<svg width="30" height="24" viewBox="0 0 30 24" fill="none" xmlns="http://www.w3.org/2000/svg">
<path d="M26.0105 12C26.0105 12.7293 26.3033 13.4288 26.8245 13.9445C27.3456 14.4603 28.0525 14.75 28.7895 14.75V20.25C28.7895 20.9793 28.4967 21.6788 27.9755 22.1945C27.4544 22.7103 26.7475 23 26.0105 23H3.77895C3.04192 23 2.33509 22.7103 1.81393 22.1945C1.29278 21.6788 1 20.9793 1 20.25V14.75C2.54232 14.75 3.77895 13.5125 3.77895 12C3.77895 11.2707 3.48617 10.5712 2.96501 10.0555C2.44386 9.53973 1.73702 9.25 1 9.25V3.75C1 2.22375 2.25053 1 3.77895 1H26.0105C26.7475 1 27.4544 1.28973 27.9755 1.80546C28.4967 2.32118 28.7895 3.02065 28.7895 3.75V9.25C28.0525 9.25 27.3456 9.53973 26.8245 10.0555C26.3033 10.5712 26.0105 11.2707 26.0105 12ZM21.1474 17.8438C21.1474 15.7812 16.9789 14.75 14.8947 14.75C12.8105 14.75 8.64211 15.7812 8.64211 17.8438V18.875H21.1474V17.8438ZM14.8947 12.3438C15.7239 12.3438 16.5191 12.0178 17.1054 11.4376C17.6917 10.8574 18.0211 10.0705 18.0211 9.25C18.0211 8.42949 17.6917 7.64258 17.1054 7.06239C16.5191 6.4822 15.7239 6.15625 14.8947 6.15625C14.0656 6.15625 13.2704 6.4822 12.6841 7.06239C12.0978 7.64258 11.7684 8.42949 11.7684 9.25C11.7684 10.0705 12.0978 10.8574 12.6841 11.4376C13.2704 12.0178 14.0656 12.3438 14.8947 12.3438Z" stroke="#1F005B" stroke-width="1.5"/>
</svg>
