<svg width="30" height="30" viewBox="0 0 30 30" fill="none" xmlns="http://www.w3.org/2000/svg">
  <path d="M20.4771 11.8662C20.4771 11.6232 20.5737 11.3902 20.7455 11.2183C20.9173 11.0465 21.1504 10.95 21.3934 10.95H23.2259C23.4689 10.95 23.702 11.0465 23.8738 11.2183C24.0457 11.3902 24.1422 11.6232 24.1422 11.8662V13.6987C24.1422 13.9417 24.0457 14.1748 23.8738 14.3466C23.702 14.5185 23.4689 14.615 23.2259 14.615H21.3934C21.1504 14.615 20.9173 14.5185 20.7455 14.3466C20.5737 14.1748 20.4771 13.9417 20.4771 13.6987V11.8662ZM14.9796 11.8662C14.9796 11.6232 15.0761 11.3902 15.2479 11.2183C15.4198 11.0465 15.6528 10.95 15.8958 10.95H17.7284C17.9714 10.95 18.2044 11.0465 18.3763 11.2183C18.5481 11.3902 18.6446 11.6232 18.6446 11.8662V13.6987C18.6446 13.9417 18.5481 14.1748 18.3763 14.3466C18.2044 14.5185 17.9714 14.615 17.7284 14.615H15.8958C15.6528 14.615 15.4198 14.5185 15.2479 14.3466C15.0761 14.1748 14.9796 13.9417 14.9796 13.6987V11.8662ZM5.81694 17.3638C5.81694 17.1208 5.91347 16.8877 6.0853 16.7159C6.25714 16.5441 6.49019 16.4475 6.7332 16.4475H8.56573C8.80873 16.4475 9.04179 16.5441 9.21362 16.7159C9.38545 16.8877 9.48199 17.1208 9.48199 17.3638V19.1963C9.48199 19.4393 9.38545 19.6724 9.21362 19.8442C9.04179 20.0161 8.80873 20.1126 8.56573 20.1126H6.7332C6.49019 20.1126 6.25714 20.0161 6.0853 19.8442C5.91347 19.6724 5.81694 19.4393 5.81694 19.1963V17.3638ZM11.3145 17.3638C11.3145 17.1208 11.4111 16.8877 11.5829 16.7159C11.7547 16.5441 11.9878 16.4475 12.2308 16.4475H14.0633C14.3063 16.4475 14.5394 16.5441 14.7112 16.7159C14.883 16.8877 14.9796 17.1208 14.9796 17.3638V19.1963C14.9796 19.4393 14.883 19.6724 14.7112 19.8442C14.5394 20.0161 14.3063 20.1126 14.0633 20.1126H12.2308C11.9878 20.1126 11.7547 20.0161 11.5829 19.8442C11.4111 19.6724 11.3145 19.4393 11.3145 19.1963V17.3638Z" 
        stroke="currentColor" 
        stroke-width="1.5"
        fill="currentColor"/>
  <path d="M6.99569 0.478394C7.2387 0.478394 7.47175 0.574928 7.64359 0.746761C7.81542 0.918594 7.91195 1.15165 7.91195 1.39466V2.31092H22.5722V1.39466C22.5722 1.15165 22.6687 0.918594 22.8405 0.746761C23.0124 0.574928 23.2454 0.478394 23.4884 0.478394C23.7314 0.478394 23.9645 0.574928 24.1363 0.746761C24.3082 0.918594 24.4047 1.15165 24.4047 1.39466V2.31092H26.2372C27.2093 2.31092 28.1415 2.69706 28.8288 3.38439C29.5161 4.07172 29.9023 5.00394 29.9023 5.97597V26.1338C29.9023 27.1058 29.5161 28.038 28.8288 28.7253C28.1415 29.4127 27.2093 29.7988 26.2372 29.7988H4.2469C3.27487 29.7988 2.34265 29.4127 1.65532 28.7253C0.967987 28.038 0.581848 27.1058 0.581848 26.1338V5.97597C0.581848 5.00394 0.967987 4.07172 1.65532 3.38439C2.34265 2.69706 3.27487 2.31092 4.2469 2.31092H6.07943V1.39466C6.07943 1.15165 6.17596 0.918594 6.3478 0.746761C6.51963 0.574928 6.75268 0.478394 6.99569 0.478394V0.478394ZM2.41437 7.8085V26.1338C2.41437 26.6198 2.60744 27.0859 2.95111 27.4296C3.29477 27.7732 3.76088 27.9663 4.2469 27.9663H26.2372C26.7232 27.9663 27.1893 27.7732 27.533 27.4296C27.8767 27.0859 28.0697 26.6198 28.0697 26.1338V7.8085H2.41437Z" 
        stroke="currentColor" 
        stroke-width="1.5"
        fill="currentColor"/>
</svg>