<svg width="30" height="29" viewBox="0 0 30 29" fill="none" xmlns="http://www.w3.org/2000/svg">
<path d="M27.9943 14.5222C27.9984 17.0814 27.2372 19.5833 25.8086 21.7066C24.6304 23.464 23.0373 24.9041 21.1702 25.8993C19.3031 26.8946 17.2195 27.4144 15.1036 27.4128C12.9878 27.4144 10.9042 26.8946 9.03707 25.8993C7.16994 24.9041 5.57684 23.464 4.39867 21.7066C3.27679 20.0343 2.56232 18.1224 2.31254 16.1242C2.06275 14.126 2.28459 12.097 2.96028 10.2C3.63597 8.30299 4.7467 6.59065 6.20345 5.20028C7.6602 3.8099 9.42243 2.78016 11.3489 2.1936C13.2753 1.60703 15.3124 1.47997 17.2968 1.82259C19.2812 2.1652 21.1578 2.96798 22.776 4.16654C24.3942 5.36511 25.7092 6.92614 26.6154 8.72449C27.5216 10.5228 27.9938 12.5085 27.9943 14.5222Z" stroke="white" stroke-width="2.5"/>
<path d="M16.8927 10.2255C16.8927 11.2138 16.0906 12.0158 15.1023 12.0158V14.1643C16.147 14.1643 17.1488 13.7493 17.8875 13.0106C18.6262 12.272 19.0412 11.2701 19.0412 10.2255H16.8927ZM15.1023 12.0158C14.1141 12.0158 13.312 11.2138 13.312 10.2255H11.1635C11.1635 11.2701 11.5785 12.272 12.3172 13.0106C13.0559 13.7493 14.0577 14.1643 15.1023 14.1643V12.0158ZM13.312 10.2255C13.312 9.2372 14.1141 8.43511 15.1023 8.43511V6.28668C14.0577 6.28668 13.0559 6.70166 12.3172 7.44033C11.5785 8.17899 11.1635 9.18084 11.1635 10.2255H13.312ZM15.1023 8.43511C16.0906 8.43511 16.8927 9.2372 16.8927 10.2255H19.0412C19.0412 9.18084 18.6262 8.17899 17.8875 7.44033C17.1488 6.70166 16.147 6.28668 15.1023 6.28668V8.43511ZM5.31405 22.9098L4.28423 22.6033L4.11665 23.1648L4.49907 23.6088L5.31405 22.9098ZM24.8906 22.9098L25.7071 23.6102L26.088 23.1662L25.9205 22.6033L24.8906 22.9098ZM10.8055 19.8934H19.3992V17.745H10.8055V19.8934ZM10.8055 17.745C9.34026 17.7446 7.91407 18.2172 6.73909 19.0926C5.56411 19.968 4.70312 21.1993 4.28423 22.6033L6.34387 23.2163C6.63068 22.2559 7.21982 21.4138 8.02368 20.8151C8.82753 20.2164 9.80316 19.8931 10.8055 19.8934V17.745ZM15.1023 26.3387C13.3971 26.3407 11.7117 25.9726 10.1625 25.26C8.61328 24.5473 7.23714 23.507 6.12902 22.2109L4.49907 23.6088C5.80885 25.1399 7.43505 26.3702 9.26559 27.2121C11.0961 28.0541 13.0875 28.4891 15.1023 28.4871V26.3387ZM19.3992 19.8934C21.5047 19.8934 23.2879 21.2942 23.8608 23.2163L25.9205 22.6033C25.5016 21.1993 24.6406 19.968 23.4656 19.0926C22.2906 18.2172 20.8644 17.7446 19.3992 17.745V19.8934ZM24.0757 22.2109C22.9676 23.507 21.5914 24.5473 20.0422 25.26C18.493 25.9726 16.8076 26.3407 15.1023 26.3387V28.4871C17.1172 28.4891 19.1086 28.0541 20.9391 27.2121C22.7696 26.3702 24.3973 25.1413 25.7071 23.6102L24.0757 22.2109Z" fill="white"/>
</svg>
