<svg width="24" height="24" viewBox="0 0 24 24" fill="none" xmlns="http://www.w3.org/2000/svg">
<path d="M7.11111 4.66667H4.66667V7.11111H7.11111V4.66667ZM1 3.75C1 2.23122 2.23122 1 3.75 1H8.02778C9.54656 1 10.7778 2.23122 10.7778 3.75V8.02778C10.7778 9.54656 9.54656 10.7778 8.02778 10.7778H3.75C2.23122 10.7778 1 9.54656 1 8.02778V3.75ZM3.75 2.83333C3.24374 2.83333 2.83333 3.24374 2.83333 3.75V8.02778C2.83333 8.53404 3.24374 8.94444 3.75 8.94444H8.02778C8.53404 8.94444 8.94444 8.53404 8.94444 8.02778V3.75C8.94444 3.24374 8.53404 2.83333 8.02778 2.83333H3.75ZM4.66667 16.8889H7.11111V19.3333H4.66667V16.8889ZM1 15.9722C1 14.4534 2.23122 13.2222 3.75 13.2222H8.02778C9.54656 13.2222 10.7778 14.4534 10.7778 15.9722V20.25C10.7778 21.7688 9.54656 23 8.02778 23H3.75C2.23122 23 1 21.7688 1 20.25V15.9722ZM3.75 15.0556C3.24374 15.0556 2.83333 15.466 2.83333 15.9722V20.25C2.83333 20.7563 3.24374 21.1667 3.75 21.1667H8.02778C8.53404 21.1667 8.94444 20.7563 8.94444 20.25V15.9722C8.94444 15.466 8.53404 15.0556 8.02778 15.0556H3.75ZM19.3333 4.66667H16.8889V7.11111H19.3333V4.66667ZM15.9722 1C14.4534 1 13.2222 2.23122 13.2222 3.75V8.02778C13.2222 9.54656 14.4534 10.7778 15.9722 10.7778H20.25C21.7688 10.7778 23 9.54656 23 8.02778V3.75C23 2.23122 21.7688 1 20.25 1H15.9722ZM15.0556 3.75C15.0556 3.24374 15.466 2.83333 15.9722 2.83333H20.25C20.7563 2.83333 21.1667 3.24374 21.1667 3.75V8.02778C21.1667 8.53404 20.7563 8.94444 20.25 8.94444H15.9722C15.466 8.94444 15.0556 8.53404 15.0556 8.02778V3.75ZM13.2222 13.2222H16.5833V16.5833H13.2222V13.2222ZM19.6389 16.5833H16.5833V19.6389H13.2222V23H16.5833V19.6389H19.6389V23H23V19.6389H19.6389V16.5833ZM19.6389 16.5833V13.2222H23V16.5833H19.6389Z" fill="#F5F5F5"/>
</svg>
