<svg xmlns="http://www.w3.org/2000/svg" width="30" height="30" viewBox="0 0 30 30" fill="none">
  <path d="M3 8C3 7.44772 3.44772 7 4 7H26C26.5523 7 27 7.44772 27 8V8.66667C27 9.21895 26.5523 9.66667 26 9.66667H4C3.44772 9.66667 3 9.21895 3 8.66667V8ZM3 14.6667C3 14.1144 3.44772 13.6667 4 13.6667H26C26.5523 13.6667 27 14.1144 27 14.6667V15.3333C27 15.8856 26.5523 16.3333 26 16.3333H4C3.44772 16.3333 3 15.8856 3 15.3333V14.6667ZM3 21.3333C3 20.781 3.44772 20.3333 4 20.3333H26C26.5523 20.3333 27 20.781 27 21.3333V22C27 22.5523 26.5523 23 26 23H4C3.44772 23 3 22.5523 3 22V21.3333Z" fill="white"/>
</svg>