<svg width="24" height="24" viewBox="0 0 24 24" fill="none" xmlns="http://www.w3.org/2000/svg">
<path d="M16 17.001V14.001H9V10.001H16V7.00098L21 12.001L16 17.001ZM14 2.00098C14.5304 2.00098 15.0391 2.21169 15.4142 2.58676C15.7893 2.96184 16 3.47054 16 4.00098V6.00098H14V4.00098H5V20.001H14V18.001H16V20.001C16 20.5314 15.7893 21.0401 15.4142 21.4152C15.0391 21.7903 14.5304 22.001 14 22.001H5C4.46957 22.001 3.96086 21.7903 3.58579 21.4152C3.21071 21.0401 3 20.5314 3 20.001V4.00098C3 3.47054 3.21071 2.96184 3.58579 2.58676C3.96086 2.21169 4.46957 2.00098 5 2.00098H14Z" fill="white"/>
</svg>
