<svg xmlns="http://www.w3.org/2000/svg" width="44" height="44" viewBox="0 0 44 44" fill="none">
<path d="M27.0004 18.875C27.0004 18.6429 27.0926 18.4204 27.2566 18.2563C27.4207 18.0922 27.6433 18 27.8754 18H29.6254C29.8574 18 30.08 18.0922 30.2441 18.2563C30.4082 18.4204 30.5004 18.6429 30.5004 18.875V20.625C30.5004 20.8571 30.4082 21.0796 30.2441 21.2437C30.08 21.4078 29.8574 21.5 29.6254 21.5H27.8754C27.6433 21.5 27.4207 21.4078 27.2566 21.2437C27.0926 21.0796 27.0004 20.8571 27.0004 20.625V18.875ZM21.7504 18.875C21.7504 18.6429 21.8426 18.4204 22.0066 18.2563C22.1707 18.0922 22.3933 18 22.6254 18H24.3754C24.6074 18 24.83 18.0922 24.9941 18.2563C25.1582 18.4204 25.2504 18.6429 25.2504 18.875V20.625C25.2504 20.8571 25.1582 21.0796 24.9941 21.2437C24.83 21.4078 24.6074 21.5 24.3754 21.5H22.6254C22.3933 21.5 22.1707 21.4078 22.0066 21.2437C21.8426 21.0796 21.7504 20.8571 21.7504 20.625V18.875ZM13.0004 24.125C13.0004 23.8929 13.0926 23.6704 13.2566 23.5063C13.4207 23.3422 13.6433 23.25 13.8754 23.25H15.6254C15.8574 23.25 16.08 23.3422 16.2441 23.5063C16.4082 23.6704 16.5004 23.8929 16.5004 24.125V25.875C16.5004 26.1071 16.4082 26.3296 16.2441 26.4937C16.08 26.6578 15.8574 26.75 15.6254 26.75H13.8754C13.6433 26.75 13.4207 26.6578 13.2566 26.4937C13.0926 26.3296 13.0004 26.1071 13.0004 25.875V24.125ZM18.2504 24.125C18.2504 23.8929 18.3426 23.6704 18.5066 23.5063C18.6707 23.3422 18.8933 23.25 19.1254 23.25H20.8754C21.1074 23.25 21.33 23.3422 21.4941 23.5063C21.6582 23.6704 21.7504 23.8929 21.7504 24.125V25.875C21.7504 26.1071 21.6582 26.3296 21.4941 26.4937C21.33 26.6578 21.1074 26.75 20.8754 26.75H19.1254C18.8933 26.75 18.6707 26.6578 18.5066 26.4937C18.3426 26.3296 18.2504 26.1071 18.2504 25.875V24.125Z" fill="#D9D9D9"/>
<path d="M14.125 8C14.3571 8 14.5796 8.09219 14.7437 8.25628C14.9078 8.42038 15 8.64294 15 8.875V9.75H29V8.875C29 8.64294 29.0922 8.42038 29.2563 8.25628C29.4204 8.09219 29.6429 8 29.875 8C30.1071 8 30.3296 8.09219 30.4937 8.25628C30.6578 8.42038 30.75 8.64294 30.75 8.875V9.75H32.5C33.4283 9.75 34.3185 10.1187 34.9749 10.7751C35.6313 11.4315 36 12.3217 36 13.25V32.5C36 33.4283 35.6313 34.3185 34.9749 34.9749C34.3185 35.6313 33.4283 36 32.5 36H11.5C10.5717 36 9.6815 35.6313 9.02513 34.9749C8.36875 34.3185 8 33.4283 8 32.5V13.25C8 12.3217 8.36875 11.4315 9.02513 10.7751C9.6815 10.1187 10.5717 9.75 11.5 9.75H13.25V8.875C13.25 8.64294 13.3422 8.42038 13.5063 8.25628C13.6704 8.09219 13.8929 8 14.125 8V8ZM9.75 15V32.5C9.75 32.9641 9.93437 33.4092 10.2626 33.7374C10.5908 34.0656 11.0359 34.25 11.5 34.25H32.5C32.9641 34.25 33.4092 34.0656 33.7374 33.7374C34.0656 33.4092 34.25 32.9641 34.25 32.5V15H9.75Z" fill="#D9D9D9"/>
</svg>