<svg xmlns="http://www.w3.org/2000/svg" width="44" height="44" viewBox="0 0 44 44" fill="none">
<path d="M33.1158 22C33.1158 22.7293 33.4085 23.4288 33.9297 23.9445C34.4508 24.4603 35.1577 24.75 35.8947 24.75V30.25C35.8947 30.9793 35.6019 31.6788 35.0808 32.1945C34.5596 32.7103 33.8528 33 33.1158 33H10.8842C10.1471 33 9.44031 32.7103 8.91916 32.1945C8.39801 31.6788 8.10522 30.9793 8.10522 30.25V24.75C9.64754 24.75 10.8842 23.5125 10.8842 22C10.8842 21.2707 10.5914 20.5712 10.0702 20.0555C9.54908 19.5397 8.84225 19.25 8.10522 19.25V13.75C8.10522 12.2237 9.35575 11 10.8842 11H33.1158C33.8528 11 34.5596 11.2897 35.0808 11.8055C35.6019 12.3212 35.8947 13.0207 35.8947 13.75V19.25C35.1577 19.25 34.4508 19.5397 33.9297 20.0555C33.4085 20.5712 33.1158 21.2707 33.1158 22ZM28.2526 27.8437C28.2526 25.7812 24.0842 24.75 22 24.75C19.9158 24.75 15.7473 25.7812 15.7473 27.8437V28.875H28.2526V27.8437ZM22 22.3438C22.8291 22.3438 23.6243 22.0178 24.2106 21.4376C24.7969 20.8574 25.1263 20.0705 25.1263 19.25C25.1263 18.4295 24.7969 17.6426 24.2106 17.0624C23.6243 16.4822 22.8291 16.1562 22 16.1562C21.1708 16.1562 20.3756 16.4822 19.7893 17.0624C19.203 17.6426 18.8736 18.4295 18.8736 19.25C18.8736 20.0705 19.203 20.8574 19.7893 21.4376C20.3756 22.0178 21.1708 22.3438 22 22.3438Z" stroke="white" stroke-width="1.5"/>
</svg>