<svg width="22" height="22" viewBox="0 0 22 22" fill="none" xmlns="http://www.w3.org/2000/svg">
<path opacity="0.9" d="M9.86811 4.58486L11 5.71676M12.0065 6.72324L13.1384 7.85513M14.1449 8.86162L15.2768 9.99351M16.2832 11L17.4151 12.1319M18.547 6.09459C18.195 6.43648 17.7226 6.62612 17.2319 6.62254C16.7412 6.61895 16.2716 6.42242 15.9246 6.07543C15.5776 5.72843 15.3811 5.25884 15.3775 4.76813C15.3739 4.27742 15.5635 3.805 15.9054 3.45297L13.4535 1L1 13.453L3.45297 15.9059C3.80559 15.5674 4.27687 15.3805 4.76568 15.3855C5.2545 15.3904 5.72189 15.5868 6.06759 15.9324C6.41329 16.278 6.60973 16.7454 6.61478 17.2342C6.61983 17.723 6.43308 18.1943 6.09459 18.547L8.54703 21L21 8.54703L18.547 6.09459Z" stroke="white" stroke-width="1.25" stroke-linecap="round" stroke-linejoin="round"/>
</svg>
