<svg width="20" height="16" viewBox="0 0 20 16" fill="none" xmlns="http://www.w3.org/2000/svg">
<path d="M0.545453 10.6667C0.40079 10.6667 0.262051 10.7315 0.159758 10.8469C0.057465 10.9623 -1.48062e-06 11.1188 -1.49489e-06 11.2821L-1.78182e-06 14.5641C-1.81511e-06 14.9449 0.134089 15.3102 0.372772 15.5794C0.611454 15.8487 0.935177 16 1.27273 16L18.7273 16C19.0648 16 19.3885 15.8487 19.6272 15.5794C19.8659 15.3102 20 14.9449 20 14.5641L20 11.2821C20 11.1188 19.9425 10.9623 19.8402 10.8469C19.7379 10.7315 19.5992 10.6667 19.4545 10.6667C18.8277 10.6667 18.2265 10.3857 17.7832 9.88562C17.3399 9.38552 17.0909 8.70724 17.0909 8C17.0909 7.29276 17.3399 6.61448 17.7832 6.11438C18.2265 5.61429 18.8277 5.33333 19.4545 5.33333C19.5992 5.33333 19.7379 5.2685 19.8402 5.15309C19.9425 5.03769 20 4.88116 20 4.71795L20 1.4359C20 1.05508 19.8659 0.68985 19.6272 0.420567C19.3885 0.151284 19.0648 1.82559e-06 18.7273 1.79608e-06L1.27273 2.70158e-07C0.935178 2.40649e-07 0.611455 0.151283 0.372774 0.420566C0.13409 0.689848 -6.00822e-07 1.05507 -6.34115e-07 1.4359L-9.2104e-07 4.71795C-9.35309e-07 4.88116 0.0574656 5.03768 0.159759 5.15309C0.262052 5.2685 0.40079 5.33333 0.545453 5.33333C1.17233 5.33333 1.77353 5.61428 2.2168 6.11438C2.66007 6.61448 2.90909 7.29276 2.90909 8C2.90909 8.70724 2.66007 9.38552 2.2168 9.88562C1.77353 10.3857 1.17233 10.6667 0.545453 10.6667ZM18.9091 1.4359L18.9091 4.15077C18.0969 4.29623 17.3574 4.76378 16.8235 5.46936C16.2895 6.17493 15.9962 7.07225 15.9962 8C15.9962 8.92775 16.2895 9.82507 16.8235 10.5306C17.3574 11.2362 18.0969 11.7038 18.9091 11.8492L18.9091 14.5641C18.9091 14.6185 18.8899 14.6707 18.8558 14.7092C18.8217 14.7476 18.7755 14.7692 18.7273 14.7692L13.4545 14.7692L13.4545 1.23077L18.7273 1.23077C18.7755 1.23077 18.8217 1.25238 18.8558 1.29085C18.8899 1.32932 18.9091 1.3815 18.9091 1.4359ZM1.09091 4.15077L1.09091 1.4359C1.09091 1.38149 1.11006 1.32932 1.14416 1.29085C1.17826 1.25238 1.22451 1.23077 1.27273 1.23077L12.3636 1.23077L12.3636 14.7692L1.27273 14.7692C1.2245 14.7692 1.17826 14.7476 1.14416 14.7091C1.11006 14.6707 1.09091 14.6185 1.09091 14.5641L1.09091 11.8492C1.90306 11.7038 2.64258 11.2362 3.17653 10.5306C3.71047 9.82507 4.00381 8.92775 4.00381 8C4.00381 7.07225 3.71047 6.17493 3.17653 5.46936C2.64258 4.76378 1.90306 4.29623 1.09091 4.15077Z" fill="white"/>
</svg>
