<svg width="19" height="15" viewBox="0 0 19 15" fill="none" xmlns="http://www.w3.org/2000/svg">
<path d="M17.0488 12.6152C17.0488 13.0691 16.6736 13.4443 16.2197 13.4443H1.80176C1.34811 13.4441 0.972657 13.069 0.972657 12.6152L0.972656 3.91895C1.02409 4.02526 1.08592 4.12655 1.1582 4.2207C1.29183 4.39474 1.45839 4.5399 1.64648 4.65234L1.64648 4.6543L7.54004 8.33984C8.44148 8.90676 9.58106 8.90693 10.4824 8.33984L16.375 4.6543L16.374 4.65332C16.5627 4.54079 16.7293 4.39514 16.8633 4.2207C16.9356 4.12656 16.9974 4.02524 17.0488 3.91895L17.0488 12.6152ZM1.80176 0.972656H16.2197C16.6734 0.97268 17.0486 1.34811 17.0488 1.80176L17.0488 2.40234C17.0474 2.39946 17.0463 2.39643 17.0449 2.39355L16.959 2.24023L16.8584 2.0957C16.7865 2.00306 16.7052 1.91812 16.6162 1.8418L16.4775 1.73437L16.3281 1.6416C16.2256 1.5847 16.1177 1.5381 16.0059 1.50293L15.835 1.45898L15.6611 1.43164C15.5446 1.41973 15.4271 1.41993 15.3105 1.43164L15.1367 1.45801C14.9209 1.50203 14.7162 1.5875 14.5322 1.70801L14.5322 1.70703L9.01074 5.15918L3.48926 1.70703L3.48828 1.70801C3.35371 1.62 3.20875 1.54974 3.05566 1.50195L2.88477 1.45801L2.71094 1.43164C2.59437 1.41996 2.47689 1.4197 2.36035 1.43164L2.18652 1.45898C2.01378 1.4946 1.84798 1.55638 1.69434 1.6416L1.54492 1.73437C1.40018 1.83505 1.27175 1.95696 1.16406 2.0957L1.0625 2.24023C1.02937 2.29326 0.999787 2.34825 0.972656 2.4043L0.972656 1.80176C0.9729 1.34823 1.34825 0.972893 1.80176 0.972656Z" fill="white" stroke="white" stroke-width="1.94592"/>
</svg>
