<svg width="15" height="14" viewBox="0 0 15 14" fill="none" xmlns="http://www.w3.org/2000/svg">
<path d="M2.11621 0.767578C2.58787 0.298639 3.38658 0.323068 3.86719 0.838867L3.95898 0.948242L4.96777 2.2959C5.33913 2.79184 5.28946 3.45257 4.88379 3.85547L4.65332 4.08594L4.65332 4.08691L4.63867 4.10156C4.63279 4.10795 4.6263 4.11549 4.61914 4.12402C4.60451 4.14147 4.5875 4.16367 4.56934 4.19043C4.53279 4.24432 4.49113 4.31723 4.45605 4.41016C4.38472 4.59929 4.34402 4.85632 4.39453 5.18262C4.49399 5.82424 4.9427 6.70844 6.1543 7.91309C7.36629 9.11811 8.25501 9.56335 8.89844 9.66211C9.22546 9.71226 9.4826 9.672 9.67187 9.60156C9.76478 9.56697 9.83755 9.52638 9.8916 9.49023C9.9186 9.47216 9.94138 9.455 9.95898 9.44043C9.96756 9.43332 9.97502 9.42674 9.98144 9.4209C9.98472 9.41792 9.98849 9.4147 9.99121 9.41211C9.99242 9.41095 9.99304 9.40927 9.99414 9.4082L9.99609 9.40625H9.99707C9.99749 9.40584 9.99795 9.4052 9.69336 9.09863L9.99805 9.4043L10.3623 9.04102C10.7254 8.68059 11.3013 8.59802 11.7861 8.86133L13.3164 9.69336C14.064 10.0994 14.198 11.0696 13.6494 11.6143H13.6484L12.5117 12.7451L12.5107 12.7461C12.2719 12.9842 12.0018 13.1315 11.7148 13.1582C10.5136 13.2703 7.45602 13.1632 4.16113 9.88769C1.03123 6.77497 0.499839 4.14218 0.433594 2.97559C0.41686 2.67916 0.534719 2.38649 0.756836 2.12598L0.858398 2.0166L2.11523 0.767578H2.11621Z" fill="white" stroke="white" stroke-width="0.864857"/>
</svg>
