<svg width="34" height="31" viewBox="0 0 34 31" fill="none" xmlns="http://www.w3.org/2000/svg">
<path d="M1.43158 6.27509e-05C1.0519 6.27509e-05 0.687773 0.156834 0.4193 0.435887C0.150827 0.714941 0 1.09342 0 1.48806C0 1.8827 0.150827 2.26118 0.4193 2.54023C0.687773 2.81929 1.0519 2.97606 1.43158 2.97606H4.60968L8.36615 18.6C8.68539 19.9243 9.82636 20.832 11.1391 20.832H27.5593C28.852 20.832 29.9501 19.9392 30.2893 18.6447L34 4.46405H10.0211L10.7368 7.44005H30.2865L27.5579 17.856H11.1377L7.38265 2.23206C7.22754 1.59107 6.86997 1.02273 6.3672 0.618048C5.86444 0.213366 5.24556 -0.00424516 4.60968 6.27509e-05H1.43158ZM25.7684 22.072C23.4135 22.072 21.4737 24.0883 21.4737 26.536C21.4737 28.9838 23.4135 31 25.7684 31C28.1234 31 30.0632 28.9838 30.0632 26.536C30.0632 24.0883 28.1234 22.072 25.7684 22.072ZM12.8842 22.072C10.5293 22.072 8.58947 24.0883 8.58947 26.536C8.58947 28.9838 10.5293 31 12.8842 31C15.2392 31 17.1789 28.9838 17.1789 26.536C17.1789 24.0883 15.2392 22.072 12.8842 22.072ZM12.8842 25.048C13.6916 25.048 14.3158 25.6968 14.3158 26.536C14.3158 27.3752 13.6916 28.024 12.8842 28.024C12.0768 28.024 11.4526 27.3752 11.4526 26.536C11.4526 25.6968 12.0768 25.048 12.8842 25.048ZM25.7684 25.048C26.5758 25.048 27.2 25.6968 27.2 26.536C27.2 27.3752 26.5758 28.024 25.7684 28.024C24.961 28.024 24.3368 27.3752 24.3368 26.536C24.3368 25.6968 24.961 25.048 25.7684 25.048Z" fill="white"/>
</svg>
