<svg width="18" height="18" viewBox="0 0 18 18" fill="none" xmlns="http://www.w3.org/2000/svg">
<path d="M7.90551 14.4093C7.73806 14.5768 7.09879 15.0609 6.86157 15.108L2.35438 15.9916C2.11716 16.0387 1.96192 15.8826 2.00814 15.6453L2.89249 11.14C2.93958 10.9028 3.42274 10.2625 3.59019 10.095M8.06991 14.2492C7.81525 14.5039 7.39924 14.5039 7.14458 14.2492L3.75285 10.8569C3.49906 10.6022 3.49906 10.1861 3.75285 9.93139L11.1721 2.51094C11.8532 1.82969 12.9573 1.82969 13.6394 2.51094L15.4891 4.36191C16.1703 5.04228 16.1703 6.14658 15.4891 6.8287L8.06991 14.2492Z" stroke="#AFAFAF" stroke-width="1.6" stroke-linecap="round" stroke-linejoin="round"/>
</svg>
