<svg width="102" height="34" viewBox="0 0 102 34" fill="none" xmlns="http://www.w3.org/2000/svg">
<g filter="url(#filter0_d_2265_2582)">
<mask id="path-1-outside-1_2265_2582" maskUnits="userSpaceOnUse" x="3.68945" y="0" width="94" height="26" fill="black">
<rect fill="white" x="3.68945" width="94" height="26"/>
<path d="M5.00008 0.999998L21.9601 0.999998V6.664L10.6641 6.664V9.864L21.9601 9.864L21.9601 15.528L10.6641 15.528L10.6641 25H5.00008L5.00008 0.999998ZM39.9553 0.999998C40.8727 0.999998 41.726 1.18133 42.5153 1.544C43.326 1.88533 44.03 2.35467 44.6273 2.952C45.2247 3.54933 45.694 4.25333 46.0353 5.064C46.3767 5.85333 46.5473 6.696 46.5473 7.592V25L33.3633 25C32.446 25 31.582 24.8293 30.7713 24.488C29.982 24.1253 29.2887 23.6453 28.6913 23.048C28.094 22.4507 27.6247 21.7573 27.2833 20.968C26.942 20.1573 26.7713 19.304 26.7713 18.408L26.7713 0.999998L39.9553 0.999998ZM40.8833 7.592C40.8833 7.336 40.7873 7.12267 40.5953 6.952C40.4247 6.76 40.2113 6.664 39.9553 6.664L32.4353 6.664V18.408C32.4353 18.664 32.5207 18.888 32.6913 19.08C32.8833 19.2507 33.1073 19.336 33.3633 19.336L40.8833 19.336V7.592ZM64.8516 0.999998C65.7689 0.999998 66.6222 1.18133 67.4116 1.544C68.2222 1.88533 68.9262 2.35467 69.5236 2.952C70.1209 3.54933 70.5902 4.25333 70.9316 5.064C71.2729 5.85333 71.4436 6.696 71.4436 7.592V25L58.2596 25C57.3422 25 56.4782 24.8293 55.6676 24.488C54.8782 24.1253 54.1849 23.6453 53.5876 23.048C52.9902 22.4507 52.5209 21.7573 52.1796 20.968C51.8382 20.1573 51.6676 19.304 51.6676 18.408V0.999998L64.8516 0.999998ZM65.7796 7.592C65.7796 7.336 65.6836 7.12267 65.4916 6.952C65.3209 6.76 65.1076 6.664 64.8516 6.664L57.3316 6.664V18.408C57.3316 18.664 57.4169 18.888 57.5876 19.08C57.7796 19.2507 58.0036 19.336 58.2596 19.336L65.7796 19.336V7.592ZM87.8918 0.999998C89.0652 0.999998 90.1638 1.224 91.1878 1.672C92.2118 2.12 93.1078 2.728 93.8758 3.496C94.6438 4.264 95.2518 5.16 95.6998 6.184C96.1478 7.208 96.3718 8.30667 96.3718 9.48V16.52C96.3718 17.6933 96.1478 18.792 95.6998 19.816C95.2518 20.84 94.6438 21.736 93.8758 22.504C93.1078 23.272 92.2118 23.88 91.1878 24.328C90.1638 24.776 89.0652 25 87.8918 25L76.5638 25V0.999998L87.8918 0.999998ZM90.7078 9.48C90.7078 9.096 90.6332 8.73333 90.4838 8.392C90.3345 8.05067 90.1318 7.752 89.8758 7.496C89.6198 7.24 89.3212 7.03733 88.9798 6.888C88.6385 6.73867 88.2758 6.664 87.8918 6.664L82.2278 6.664V19.336H87.8918C88.2758 19.336 88.6385 19.2613 88.9798 19.112C89.3212 18.9627 89.6198 18.76 89.8758 18.504C90.1318 18.248 90.3345 17.9493 90.4838 17.608C90.6332 17.2667 90.7078 16.904 90.7078 16.52V9.48Z"/>
</mask>
<path d="M5.00008 0.999998L21.9601 0.999998V6.664L10.6641 6.664V9.864L21.9601 9.864L21.9601 15.528L10.6641 15.528L10.6641 25H5.00008L5.00008 0.999998ZM39.9553 0.999998C40.8727 0.999998 41.726 1.18133 42.5153 1.544C43.326 1.88533 44.03 2.35467 44.6273 2.952C45.2247 3.54933 45.694 4.25333 46.0353 5.064C46.3767 5.85333 46.5473 6.696 46.5473 7.592V25L33.3633 25C32.446 25 31.582 24.8293 30.7713 24.488C29.982 24.1253 29.2887 23.6453 28.6913 23.048C28.094 22.4507 27.6247 21.7573 27.2833 20.968C26.942 20.1573 26.7713 19.304 26.7713 18.408L26.7713 0.999998L39.9553 0.999998ZM40.8833 7.592C40.8833 7.336 40.7873 7.12267 40.5953 6.952C40.4247 6.76 40.2113 6.664 39.9553 6.664L32.4353 6.664V18.408C32.4353 18.664 32.5207 18.888 32.6913 19.08C32.8833 19.2507 33.1073 19.336 33.3633 19.336L40.8833 19.336V7.592ZM64.8516 0.999998C65.7689 0.999998 66.6222 1.18133 67.4116 1.544C68.2222 1.88533 68.9262 2.35467 69.5236 2.952C70.1209 3.54933 70.5902 4.25333 70.9316 5.064C71.2729 5.85333 71.4436 6.696 71.4436 7.592V25L58.2596 25C57.3422 25 56.4782 24.8293 55.6676 24.488C54.8782 24.1253 54.1849 23.6453 53.5876 23.048C52.9902 22.4507 52.5209 21.7573 52.1796 20.968C51.8382 20.1573 51.6676 19.304 51.6676 18.408V0.999998L64.8516 0.999998ZM65.7796 7.592C65.7796 7.336 65.6836 7.12267 65.4916 6.952C65.3209 6.76 65.1076 6.664 64.8516 6.664L57.3316 6.664V18.408C57.3316 18.664 57.4169 18.888 57.5876 19.08C57.7796 19.2507 58.0036 19.336 58.2596 19.336L65.7796 19.336V7.592ZM87.8918 0.999998C89.0652 0.999998 90.1638 1.224 91.1878 1.672C92.2118 2.12 93.1078 2.728 93.8758 3.496C94.6438 4.264 95.2518 5.16 95.6998 6.184C96.1478 7.208 96.3718 8.30667 96.3718 9.48V16.52C96.3718 17.6933 96.1478 18.792 95.6998 19.816C95.2518 20.84 94.6438 21.736 93.8758 22.504C93.1078 23.272 92.2118 23.88 91.1878 24.328C90.1638 24.776 89.0652 25 87.8918 25L76.5638 25V0.999998L87.8918 0.999998ZM90.7078 9.48C90.7078 9.096 90.6332 8.73333 90.4838 8.392C90.3345 8.05067 90.1318 7.752 89.8758 7.496C89.6198 7.24 89.3212 7.03733 88.9798 6.888C88.6385 6.73867 88.2758 6.664 87.8918 6.664L82.2278 6.664V19.336H87.8918C88.2758 19.336 88.6385 19.2613 88.9798 19.112C89.3212 18.9627 89.6198 18.76 89.8758 18.504C90.1318 18.248 90.3345 17.9493 90.4838 17.608C90.6332 17.2667 90.7078 16.904 90.7078 16.52V9.48Z" fill="white"/>
<path d="M5.00008 0.999998V-1.90735e-06H4.00008L4.00008 0.999998H5.00008ZM21.9601 0.999998H22.9601V-1.90735e-06H21.9601V0.999998ZM21.9601 6.664V7.664H22.9601V6.664H21.9601ZM10.6641 6.664V5.664L9.66408 5.664V6.664L10.6641 6.664ZM10.6641 9.864H9.66408V10.864H10.6641V9.864ZM21.9601 9.864H22.9601V8.864H21.9601V9.864ZM21.9601 15.528V16.528H22.9601V15.528H21.9601ZM10.6641 15.528V14.528H9.66408V15.528H10.6641ZM10.6641 25V26H11.6641V25H10.6641ZM5.00008 25H4.00008V26H5.00008V25ZM5.00008 0.999998V2L21.9601 2V0.999998V-1.90735e-06L5.00008 -1.90735e-06V0.999998ZM21.9601 0.999998L20.9601 0.999998V6.664L21.9601 6.664H22.9601V0.999998H21.9601ZM21.9601 6.664V5.664L10.6641 5.664V6.664V7.664L21.9601 7.664V6.664ZM10.6641 6.664L9.66408 6.664V9.864H10.6641H11.6641V6.664H10.6641ZM10.6641 9.864V10.864L21.9601 10.864V9.864V8.864L10.6641 8.864V9.864ZM21.9601 9.864H20.9601L20.9601 15.528H21.9601H22.9601L22.9601 9.864H21.9601ZM21.9601 15.528V14.528L10.6641 14.528V15.528V16.528L21.9601 16.528V15.528ZM10.6641 15.528H9.66408L9.66408 25H10.6641H11.6641L11.6641 15.528H10.6641ZM10.6641 25V24H5.00008V25V26H10.6641V25ZM5.00008 25H6.00008L6.00008 0.999998L5.00008 0.999998H4.00008L4.00008 25H5.00008ZM42.5153 1.544L42.0978 2.45268L42.1124 2.45939L42.1273 2.46563L42.5153 1.544ZM46.0353 5.064L45.1137 5.45207L45.1175 5.46091L46.0353 5.064ZM46.5473 25L46.5473 26H47.5473L47.5473 25H46.5473ZM30.7713 24.488L30.3538 25.3967L30.3684 25.4034L30.3833 25.4096L30.7713 24.488ZM27.2833 20.968L26.3616 21.3561L26.3655 21.3649L27.2833 20.968ZM26.7713 0.999998V-1.90735e-06H25.7713V0.999998H26.7713ZM40.5953 6.952L39.8479 7.61636L39.887 7.66033L39.931 7.69941L40.5953 6.952ZM32.4353 6.664V5.664H31.4353V6.664H32.4353ZM32.6913 19.08L31.9439 19.7444L31.983 19.7883L32.027 19.8274L32.6913 19.08ZM40.8833 19.336V20.336H41.8833V19.336H40.8833ZM39.9553 0.999998V2C40.7368 2 41.4467 2.15353 42.0978 2.45268L42.5153 1.544L42.9328 0.635322C42.0052 0.209134 41.0085 -1.90735e-06 39.9553 -1.90735e-06V0.999998ZM42.5153 1.544L42.1273 2.46563C42.8237 2.75888 43.4181 3.15701 43.9202 3.65911L44.6273 2.952L45.3344 2.24489C44.6419 1.55232 43.8283 1.01179 42.9034 0.622364L42.5153 1.544ZM44.6273 2.952L43.9202 3.65911C44.4223 4.1612 44.8205 4.75561 45.1137 5.45206L46.0353 5.064L46.957 4.67594C46.5675 3.75106 46.027 2.93746 45.3344 2.24489L44.6273 2.952ZM46.0353 5.064L45.1175 5.46091C45.4023 6.11968 45.5473 6.82668 45.5473 7.592H46.5473H47.5473C47.5473 6.56532 47.351 5.58698 46.9532 4.66709L46.0353 5.064ZM46.5473 7.592H45.5473V25H46.5473H47.5473V7.592H46.5473ZM46.5473 25V24L33.3633 24V25V26L46.5473 26L46.5473 25ZM33.3633 25V24C32.5734 24 31.842 23.8538 31.1594 23.5664L30.7713 24.488L30.3833 25.4096C31.322 25.8049 32.3185 26 33.3633 26V25ZM30.7713 24.488L31.1888 23.5793C30.5041 23.2647 29.9096 22.852 29.3984 22.3409L28.6913 23.048L27.9842 23.7551C28.6678 24.4386 29.4599 24.9859 30.3538 25.3967L30.7713 24.488ZM28.6913 23.048L29.3984 22.3409C28.8919 21.8344 28.4934 21.2468 28.2012 20.5711L27.2833 20.968L26.3655 21.3649C26.7559 22.2679 27.2961 23.067 27.9842 23.7551L28.6913 23.048ZM27.2833 20.968L28.205 20.5799C27.9163 19.8944 27.7713 19.1733 27.7713 18.408H26.7713H25.7713C25.7713 19.4347 25.9677 20.4202 26.3617 21.3561L27.2833 20.968ZM26.7713 18.408H27.7713L27.7713 0.999998L26.7713 0.999998H25.7713L25.7713 18.408H26.7713ZM26.7713 0.999998V2L39.9553 2V0.999998V-1.90735e-06L26.7713 -1.90735e-06V0.999998ZM40.8833 7.592H41.8833C41.8833 7.04923 41.6643 6.56427 41.2597 6.20459L40.5953 6.952L39.931 7.69941C39.932 7.70037 39.9147 7.68438 39.8994 7.65036C39.8924 7.63483 39.888 7.62027 39.8856 7.6084C39.8832 7.59677 39.8833 7.59072 39.8833 7.592H40.8833ZM40.5953 6.952L41.3427 6.28764C40.9831 5.883 40.4981 5.664 39.9553 5.664V6.664V7.664C39.9566 7.664 39.9506 7.66409 39.9389 7.66171C39.9271 7.65929 39.9125 7.65491 39.897 7.64792C39.8629 7.63262 39.847 7.61529 39.8479 7.61636L40.5953 6.952ZM39.9553 6.664V5.664L32.4353 5.664V6.664V7.664L39.9553 7.664V6.664ZM32.4353 6.664H31.4353L31.4353 18.408H32.4353H33.4353V6.664L32.4353 6.664ZM32.4353 18.408H31.4353C31.4353 18.9099 31.6112 19.37 31.9439 19.7444L32.6913 19.08L33.4387 18.4156C33.4357 18.4123 33.4338 18.4098 33.4326 18.4082C33.432 18.4074 33.4316 18.4068 33.4314 18.4065C33.4312 18.4063 33.4311 18.4061 33.4311 18.406C33.431 18.406 33.431 18.4059 33.431 18.4059C33.431 18.4059 33.431 18.4059 33.4311 18.406C33.4311 18.4061 33.4312 18.4062 33.4313 18.4064C33.4314 18.4067 33.4317 18.4072 33.432 18.4077C33.4325 18.4089 33.4332 18.4103 33.4338 18.412C33.4352 18.4156 33.4358 18.4183 33.4359 18.419C33.436 18.4196 33.4353 18.4162 33.4353 18.408H32.4353ZM32.6913 19.08L32.027 19.8274C32.4013 20.1602 32.8615 20.336 33.3633 20.336V19.336V18.336C33.3551 18.336 33.3518 18.3353 33.3524 18.3354C33.3531 18.3356 33.3557 18.3361 33.3593 18.3375C33.361 18.3381 33.3624 18.3388 33.3636 18.3394C33.3642 18.3397 33.3646 18.3399 33.3649 18.3401C33.3651 18.3402 33.3652 18.3402 33.3653 18.3403C33.3654 18.3403 33.3654 18.3403 33.3654 18.3403C33.3654 18.3403 33.3654 18.3403 33.3653 18.3403C33.3652 18.3402 33.3651 18.3401 33.3649 18.34C33.3645 18.3397 33.3639 18.3393 33.3631 18.3387C33.3615 18.3375 33.3591 18.3356 33.3557 18.3326L32.6913 19.08ZM33.3633 19.336V20.336L40.8833 20.336V19.336V18.336H33.3633V19.336ZM40.8833 19.336H41.8833V7.592H40.8833H39.8833V19.336H40.8833ZM67.4116 1.544L66.9941 2.45268L67.0087 2.45939L67.0235 2.46563L67.4116 1.544ZM70.9316 5.064L70.0099 5.45207L70.0137 5.46091L70.9316 5.064ZM71.4436 25V26H72.4436V25H71.4436ZM55.6676 24.488L55.2501 25.3967L55.2647 25.4034L55.2795 25.4096L55.6676 24.488ZM52.1796 20.968L51.2579 21.3561L51.2617 21.3649L52.1796 20.968ZM51.6676 0.999998V-1.90735e-06H50.6676V0.999998H51.6676ZM65.4916 6.952L64.7442 7.61636L64.7832 7.66033L64.8272 7.69941L65.4916 6.952ZM57.3316 6.664V5.664H56.3316V6.664H57.3316ZM57.5876 19.08L56.8402 19.7444L56.8792 19.7883L56.9232 19.8274L57.5876 19.08ZM65.7796 19.336V20.336H66.7796V19.336H65.7796ZM64.8516 0.999998V2C65.633 2 66.343 2.15353 66.9941 2.45268L67.4116 1.544L67.8291 0.635322C66.9015 0.209134 65.9048 -1.90735e-06 64.8516 -1.90735e-06V0.999998ZM67.4116 1.544L67.0235 2.46563C67.72 2.75888 68.3144 3.15701 68.8165 3.65911L69.5236 2.952L70.2307 2.24489C69.5381 1.55232 68.7245 1.01179 67.7996 0.622364L67.4116 1.544ZM69.5236 2.952L68.8165 3.65911C69.3186 4.1612 69.7167 4.75561 70.0099 5.45206L70.9316 5.064L71.8532 4.67594C71.4638 3.75106 70.9233 2.93746 70.2307 2.24489L69.5236 2.952ZM70.9316 5.064L70.0137 5.46091C70.2986 6.11968 70.4436 6.82668 70.4436 7.592H71.4436H72.4436C72.4436 6.56532 72.2472 5.58698 71.8494 4.66709L70.9316 5.064ZM71.4436 7.592H70.4436V25H71.4436H72.4436V7.592H71.4436ZM71.4436 25V24L58.2596 24V25L58.2596 26L71.4436 26V25ZM58.2596 25V24C57.4697 24 56.7382 23.8538 56.0556 23.5664L55.6676 24.488L55.2795 25.4096C56.2183 25.8049 57.2148 26 58.2596 26L58.2596 25ZM55.6676 24.488L56.0851 23.5793C55.4004 23.2647 54.8058 22.852 54.2947 22.3409L53.5876 23.048L52.8805 23.7551C53.564 24.4386 54.3561 24.9859 55.2501 25.3967L55.6676 24.488ZM53.5876 23.048L54.2947 22.3409C53.7882 21.8344 53.3896 21.2468 53.0974 20.5711L52.1796 20.968L51.2617 21.3649C51.6522 22.2679 52.1923 23.067 52.8805 23.7551L53.5876 23.048ZM52.1796 20.968L53.1012 20.5799C52.8126 19.8944 52.6676 19.1733 52.6676 18.408H51.6676H50.6676C50.6676 19.4347 50.8639 20.4202 51.2579 21.3561L52.1796 20.968ZM51.6676 18.408H52.6676V0.999998L51.6676 0.999998H50.6676V18.408H51.6676ZM51.6676 0.999998V2L64.8516 2V0.999998V-1.90735e-06L51.6676 -1.90735e-06V0.999998ZM65.7796 7.592H66.7796C66.7796 7.04923 66.5606 6.56427 66.1559 6.20459L65.4916 6.952L64.8272 7.69941C64.8283 7.70037 64.811 7.68438 64.7957 7.65036C64.7887 7.63483 64.7843 7.62027 64.7819 7.6084C64.7795 7.59677 64.7796 7.59072 64.7796 7.592H65.7796ZM65.4916 6.952L66.239 6.28764C65.8793 5.883 65.3944 5.664 64.8516 5.664V6.664V7.664C64.8529 7.664 64.8468 7.66409 64.8352 7.66171C64.8233 7.65929 64.8087 7.65491 64.7932 7.64792C64.7592 7.63262 64.7432 7.61529 64.7442 7.61636L65.4916 6.952ZM64.8516 6.664V5.664L57.3316 5.664V6.664V7.664L64.8516 7.664V6.664ZM57.3316 6.664H56.3316V18.408H57.3316H58.3316V6.664H57.3316ZM57.3316 18.408H56.3316C56.3316 18.9099 56.5074 19.37 56.8402 19.7444L57.5876 19.08L58.335 18.4156C58.332 18.4123 58.33 18.4098 58.3289 18.4082C58.3283 18.4074 58.3279 18.4068 58.3276 18.4065C58.3275 18.4063 58.3274 18.4061 58.3273 18.406C58.3273 18.406 58.3272 18.4059 58.3272 18.4059C58.3272 18.4059 58.3273 18.4059 58.3273 18.406C58.3274 18.4061 58.3274 18.4062 58.3275 18.4064C58.3277 18.4067 58.3279 18.4072 58.3282 18.4077C58.3288 18.4089 58.3294 18.4103 58.3301 18.412C58.3314 18.4156 58.332 18.4183 58.3321 18.419C58.3322 18.4196 58.3316 18.4162 58.3316 18.408H57.3316ZM57.5876 19.08L56.9232 19.8274C57.2976 20.1602 57.7577 20.336 58.2596 20.336V19.336V18.336C58.2513 18.336 58.248 18.3353 58.2486 18.3354C58.2493 18.3356 58.252 18.3361 58.2556 18.3375C58.2572 18.3381 58.2587 18.3388 58.2599 18.3394C58.2604 18.3397 58.2609 18.3399 58.2612 18.3401C58.2614 18.3402 58.2615 18.3402 58.2616 18.3403C58.2616 18.3403 58.2617 18.3403 58.2617 18.3403C58.2617 18.3403 58.2616 18.3403 58.2615 18.3403C58.2614 18.3402 58.2613 18.3401 58.2611 18.34C58.2607 18.3397 58.2602 18.3393 58.2594 18.3387C58.2578 18.3375 58.2553 18.3356 58.2519 18.3326L57.5876 19.08ZM58.2596 19.336V20.336L65.7796 20.336V19.336V18.336L58.2596 18.336V19.336ZM65.7796 19.336H66.7796V7.592H65.7796H64.7796V19.336H65.7796ZM91.1878 1.672L90.787 2.58816V2.58816L91.1878 1.672ZM93.8758 3.496L94.5829 2.78889V2.78889L93.8758 3.496ZM95.6998 6.184L94.7837 6.58482V6.58482L95.6998 6.184ZM95.6998 19.816L94.7837 19.4152V19.4152L95.6998 19.816ZM93.8758 22.504L94.5829 23.2111L93.8758 22.504ZM91.1878 24.328L90.787 23.4118L91.1878 24.328ZM76.5638 25H75.5638V26H76.5638V25ZM76.5638 0.999998V-1.90735e-06H75.5638V0.999998H76.5638ZM90.4838 8.392L91.4 7.99118V7.99118L90.4838 8.392ZM89.8758 7.496L90.5829 6.78889V6.78889L89.8758 7.496ZM88.9798 6.888L89.3807 5.97184L89.3806 5.97184L88.9798 6.888ZM82.2278 6.664V5.664H81.2278V6.664H82.2278ZM82.2278 19.336H81.2278V20.336H82.2278V19.336ZM88.9798 19.112L88.579 18.1958V18.1958L88.9798 19.112ZM87.8918 0.999998V2C88.9342 2 89.8957 2.19819 90.787 2.58816L91.1878 1.672L91.5886 0.755842C90.432 0.249805 89.1961 -1.90735e-06 87.8918 -1.90735e-06V0.999998ZM91.1878 1.672L90.787 2.58816C91.7002 2.98766 92.4915 3.52585 93.1687 4.20311L93.8758 3.496L94.5829 2.78889C93.7242 1.93015 92.7235 1.25234 91.5886 0.755842L91.1878 1.672ZM93.8758 3.496L93.1687 4.20311C93.846 4.88036 94.3842 5.67167 94.7837 6.58482L95.6998 6.184L96.616 5.78318C96.1195 4.64833 95.4417 3.64764 94.5829 2.78889L93.8758 3.496ZM95.6998 6.184L94.7837 6.58482C95.1736 7.47617 95.3718 8.43762 95.3718 9.48H96.3718H97.3718C97.3718 8.17571 97.122 6.93983 96.616 5.78318L95.6998 6.184ZM96.3718 9.48H95.3718V16.52H96.3718H97.3718V9.48H96.3718ZM96.3718 16.52H95.3718C95.3718 17.5624 95.1736 18.5238 94.7837 19.4152L95.6998 19.816L96.616 20.2168C97.122 19.0602 97.3718 17.8243 97.3718 16.52H96.3718ZM95.6998 19.816L94.7837 19.4152C94.3842 20.3283 93.846 21.1196 93.1687 21.7969L93.8758 22.504L94.5829 23.2111C95.4417 22.3524 96.1195 21.3517 96.616 20.2168L95.6998 19.816ZM93.8758 22.504L93.1687 21.7969C92.4915 22.4741 91.7002 23.0123 90.787 23.4118L91.1878 24.328L91.5886 25.2442C92.7235 24.7477 93.7242 24.0699 94.5829 23.2111L93.8758 22.504ZM91.1878 24.328L90.787 23.4118C89.8957 23.8018 88.9342 24 87.8918 24V25V26C89.1961 26 90.432 25.7502 91.5886 25.2442L91.1878 24.328ZM87.8918 25V24L76.5638 24V25V26L87.8918 26V25ZM76.5638 25H77.5638V0.999998L76.5638 0.999998H75.5638V25H76.5638ZM76.5638 0.999998V2L87.8918 2V0.999998V-1.90735e-06L76.5638 -1.90735e-06V0.999998ZM90.7078 9.48H91.7078C91.7078 8.96238 91.6063 8.46282 91.4 7.99118L90.4838 8.392L89.5677 8.79282C89.66 9.00384 89.7078 9.22962 89.7078 9.48H90.7078ZM90.4838 8.392L91.4 7.99118C91.2022 7.539 90.9297 7.13564 90.5829 6.78889L89.8758 7.496L89.1687 8.2031C89.334 8.36836 89.4668 8.56233 89.5677 8.79282L90.4838 8.392ZM89.8758 7.496L90.5829 6.78889C90.2362 6.44215 89.8328 6.16967 89.3807 5.97184L88.9798 6.888L88.579 7.80416C88.8095 7.90499 89.0035 8.03785 89.1687 8.20311L89.8758 7.496ZM88.9798 6.888L89.3806 5.97184C88.909 5.7655 88.4095 5.664 87.8918 5.664V6.664V7.664C88.1422 7.664 88.368 7.71183 88.579 7.80416L88.9798 6.888ZM87.8918 6.664V5.664L82.2278 5.664V6.664V7.664L87.8918 7.664V6.664ZM82.2278 6.664H81.2278V19.336H82.2278H83.2278V6.664H82.2278ZM82.2278 19.336V20.336H87.8918V19.336V18.336H82.2278V19.336ZM87.8918 19.336V20.336C88.4095 20.336 88.909 20.2345 89.3806 20.0282L88.9798 19.112L88.579 18.1958C88.368 18.2882 88.1422 18.336 87.8918 18.336V19.336ZM88.9798 19.112L89.3806 20.0282C89.8328 19.8303 90.2362 19.5579 90.5829 19.2111L89.8758 18.504L89.1687 17.7969C89.0035 17.9621 88.8095 18.095 88.579 18.1958L88.9798 19.112ZM89.8758 18.504L90.5829 19.2111C90.9297 18.8644 91.2022 18.461 91.4 18.0088L90.4838 17.608L89.5677 17.2072C89.4668 17.4377 89.334 17.6316 89.1687 17.7969L89.8758 18.504ZM90.4838 17.608L91.4 18.0088C91.6063 17.5372 91.7078 17.0376 91.7078 16.52H90.7078H89.7078C89.7078 16.7704 89.66 16.9962 89.5677 17.2072L90.4838 17.608ZM90.7078 16.52H91.7078V9.48H90.7078H89.7078V16.52H90.7078Z" fill="black" mask="url(#path-1-outside-1_2265_2582)"/>
</g>
<defs>
<filter id="filter0_d_2265_2582" x="0" y="0" width="101.372" height="34" filterUnits="userSpaceOnUse" color-interpolation-filters="sRGB">
<feFlood flood-opacity="0" result="BackgroundImageFix"/>
<feColorMatrix in="SourceAlpha" type="matrix" values="0 0 0 0 0 0 0 0 0 0 0 0 0 0 0 0 0 0 127 0" result="hardAlpha"/>
<feOffset dy="4"/>
<feGaussianBlur stdDeviation="2"/>
<feComposite in2="hardAlpha" operator="out"/>
<feColorMatrix type="matrix" values="0 0 0 0 0 0 0 0 0 0 0 0 0 0 0 0 0 0 0.25 0"/>
<feBlend mode="normal" in2="BackgroundImageFix" result="effect1_dropShadow_2265_2582"/>
<feBlend mode="normal" in="SourceGraphic" in2="effect1_dropShadow_2265_2582" result="shape"/>
</filter>
</defs>
</svg>
