<svg width="11" height="14" viewBox="0 0 11 14" fill="none" xmlns="http://www.w3.org/2000/svg">
<path fill-rule="evenodd" clip-rule="evenodd" d="M4.99263 13.8097C4.99263 13.8097 0 9.61477 0 5.4871C0 4.03183 0.579463 2.63617 1.61091 1.60714C2.64236 0.578104 4.04131 0 5.5 0C6.95869 0 8.35764 0.578104 9.38909 1.60714C10.4205 2.63617 11 4.03183 11 5.4871C11 9.61477 6.00737 13.8097 6.00737 13.8097C5.72962 14.0648 5.27244 14.0621 4.99263 13.8097ZM5.5 7.88771C5.81599 7.88771 6.12889 7.82562 6.42083 7.70497C6.71277 7.58433 6.97803 7.4075 7.20148 7.18459C7.42492 6.96167 7.60216 6.69703 7.72309 6.40577C7.84401 6.11452 7.90625 5.80235 7.90625 5.4871C7.90625 5.17185 7.84401 4.85968 7.72309 4.56843C7.60216 4.27717 7.42492 4.01253 7.20148 3.78962C6.97803 3.5667 6.71277 3.38987 6.42083 3.26923C6.12889 3.14859 5.81599 3.08649 5.5 3.08649C4.86182 3.08649 4.24978 3.33942 3.79852 3.78962C3.34727 4.23982 3.09375 4.85042 3.09375 5.4871C3.09375 6.12378 3.34727 6.73439 3.79852 7.18459C4.24978 7.63479 4.86182 7.88771 5.5 7.88771Z" fill="#EBEBEB"/>
</svg>
