<svg width="74" height="20" viewBox="0 0 74 20" fill="none" xmlns="http://www.w3.org/2000/svg">
<path d="M0 0H74V20H31.7143H0V0Z" fill="#1E8B3D"/>
<path d="M12.0508 13.1855C11.8438 13.3652 11.6133 13.5156 11.3594 13.6367C11.1094 13.7539 10.8535 13.8496 10.5918 13.9238C10.334 13.9941 10.0781 14.043 9.82422 14.0703C9.57422 14.1016 9.34766 14.1172 9.14453 14.1172C8.57031 14.1172 8.03516 14.0176 7.53906 13.8184C7.04688 13.6191 6.61914 13.3379 6.25586 12.9746C5.89258 12.6074 5.60742 12.166 5.40039 11.6504C5.19336 11.1309 5.08984 10.5547 5.08984 9.92188C5.08984 9.4375 5.15039 8.98828 5.27148 8.57422C5.39258 8.15625 5.56055 7.77734 5.77539 7.4375C5.99023 7.09375 6.24609 6.78906 6.54297 6.52344C6.83984 6.25781 7.16406 6.03516 7.51562 5.85547C7.86719 5.67188 8.24023 5.5332 8.63477 5.43945C9.0293 5.3457 9.43359 5.29883 9.84766 5.29883C9.98047 5.29883 10.1309 5.30469 10.2988 5.31641C10.4668 5.32812 10.6465 5.34766 10.8379 5.375C11.0293 5.39844 11.2266 5.43164 11.4297 5.47461C11.6367 5.51367 11.8457 5.56445 12.0566 5.62695L11.8223 6.76367L11.7051 6.82227C11.2988 6.63477 10.918 6.50586 10.5625 6.43555C10.2109 6.36523 9.90625 6.33008 9.64844 6.33008C9.20312 6.33008 8.79297 6.41602 8.41797 6.58789C8.04297 6.75586 7.7207 6.98828 7.45117 7.28516C7.18164 7.58203 6.9707 7.93359 6.81836 8.33984C6.66992 8.74219 6.5957 9.17578 6.5957 9.64062C6.5957 10.0977 6.66602 10.5312 6.80664 10.9414C6.94727 11.3516 7.15234 11.7129 7.42188 12.0254C7.69531 12.334 8.0293 12.5801 8.42383 12.7637C8.81836 12.9473 9.27148 13.0391 9.7832 13.0391C10.1074 13.0391 10.4629 12.9941 10.8496 12.9043C11.2363 12.8145 11.6367 12.6523 12.0508 12.418V13.1855ZM16.1582 14.1172C15.6699 14.1172 15.2383 14.0352 14.8633 13.8711C14.4922 13.707 14.1797 13.4863 13.9258 13.209C13.6719 12.9277 13.4785 12.6035 13.3457 12.2363C13.2168 11.8691 13.1523 11.4805 13.1523 11.0703C13.1523 10.5977 13.2363 10.1562 13.4043 9.74609C13.5723 9.33203 13.8066 8.97266 14.1074 8.66797C14.4121 8.35938 14.7734 8.11719 15.1914 7.94141C15.6094 7.76172 16.0684 7.67188 16.5684 7.67188C17.0566 7.67188 17.4883 7.75391 17.8633 7.91797C18.2383 8.08203 18.5527 8.30469 18.8066 8.58594C19.0605 8.86719 19.252 9.19336 19.3809 9.56445C19.5137 9.93164 19.5801 10.3203 19.5801 10.7305C19.5801 11.207 19.4941 11.6523 19.3223 12.0664C19.1543 12.4766 18.918 12.834 18.6133 13.1387C18.3086 13.4434 17.9473 13.6836 17.5293 13.8594C17.1113 14.0312 16.6543 14.1172 16.1582 14.1172ZM16.4043 13.1035C16.6543 13.1035 16.8828 13.0527 17.0898 12.9512C17.2969 12.8457 17.4746 12.7012 17.623 12.5176C17.7715 12.3301 17.8867 12.1074 17.9688 11.8496C18.0508 11.5918 18.0918 11.3066 18.0918 10.9941C18.0918 10.6895 18.0508 10.3984 17.9688 10.1211C17.8906 9.84375 17.7754 9.59961 17.623 9.38867C17.4707 9.17383 17.2852 9.00391 17.0664 8.87891C16.8477 8.75 16.5996 8.68555 16.3223 8.68555C16.0684 8.68555 15.8379 8.73828 15.6309 8.84375C15.4238 8.94922 15.2461 9.0957 15.0977 9.2832C14.9531 9.4707 14.8398 9.69531 14.7578 9.95703C14.6758 10.2148 14.6348 10.498 14.6348 10.8066C14.6348 11.1152 14.6738 11.4082 14.752 11.6855C14.834 11.9629 14.9512 12.207 15.1035 12.418C15.2559 12.6289 15.4414 12.7969 15.6602 12.9219C15.8789 13.043 16.127 13.1035 16.4043 13.1035ZM21.1621 7.78906H22.3105L22.5098 8.84961C22.6465 8.72461 22.7988 8.59375 22.9668 8.45703C23.1387 8.31641 23.3203 8.18945 23.5117 8.07617C23.707 7.95898 23.9082 7.86328 24.1152 7.78906C24.3262 7.71094 24.5371 7.67188 24.748 7.67188C24.9355 7.67188 25.1172 7.70312 25.293 7.76562C25.4688 7.82422 25.6309 7.90625 25.7793 8.01172C25.9277 8.11719 26.0586 8.24414 26.1719 8.39258C26.2852 8.53711 26.373 8.69727 26.4355 8.87305C26.5879 8.74414 26.748 8.60938 26.916 8.46875C27.084 8.32422 27.2637 8.19336 27.4551 8.07617C27.6465 7.95898 27.8477 7.86328 28.0586 7.78906C28.2734 7.71094 28.502 7.67188 28.7441 7.67188C29.0332 7.67188 29.293 7.72852 29.5234 7.8418C29.7539 7.95508 29.9492 8.11133 30.1094 8.31055C30.2734 8.50586 30.3984 8.73828 30.4844 9.00781C30.5742 9.27344 30.6191 9.5625 30.6191 9.875V14H29.1953V10.0332C29.1953 9.63867 29.0957 9.32812 28.8965 9.10156C28.6973 8.87109 28.4297 8.75586 28.0938 8.75586C27.9531 8.75586 27.8184 8.77734 27.6895 8.82031C27.5645 8.85938 27.4414 8.91602 27.3203 8.99023C27.1992 9.06055 27.0781 9.14648 26.957 9.24805C26.8359 9.34961 26.7109 9.45898 26.582 9.57617C26.5898 9.62305 26.5938 9.66992 26.5938 9.7168C26.5938 9.76367 26.5938 9.81641 26.5938 9.875V14H25.1758V10.0332C25.1758 9.83789 25.1484 9.66211 25.0938 9.50586C25.0391 9.3457 24.9629 9.21094 24.8652 9.10156C24.7676 8.98828 24.6504 8.90234 24.5137 8.84375C24.377 8.78516 24.2266 8.75586 24.0625 8.75586C23.9258 8.75586 23.7949 8.77734 23.6699 8.82031C23.5449 8.85938 23.4219 8.91602 23.3008 8.99023C23.1836 9.06055 23.0645 9.14453 22.9434 9.24219C22.8262 9.33984 22.7051 9.44727 22.5801 9.56445V14H21.1621V7.78906ZM34.0293 12.8574C34.127 12.9043 34.2305 12.9434 34.3398 12.9746C34.4531 13.0059 34.5625 13.0312 34.668 13.0508C34.7734 13.0703 34.875 13.084 34.9727 13.0918C35.0703 13.0996 35.1543 13.1035 35.2246 13.1035C35.5254 13.1035 35.7969 13.0449 36.0391 12.9277C36.2812 12.8066 36.4883 12.6445 36.6602 12.4414C36.832 12.2344 36.9629 11.9941 37.0527 11.7207C37.1465 11.4473 37.1934 11.1543 37.1934 10.8418C37.1934 10.5488 37.1543 10.2754 37.0762 10.0215C37.002 9.76758 36.8965 9.54688 36.7598 9.35938C36.623 9.17188 36.457 9.02539 36.2617 8.91992C36.0664 8.81055 35.8516 8.75586 35.6172 8.75586C35.3359 8.75586 35.0586 8.83203 34.7852 8.98438C34.5156 9.13281 34.2637 9.32812 34.0293 9.57031V12.8574ZM33.959 8.83203C34.0996 8.69922 34.252 8.56445 34.416 8.42773C34.5801 8.29102 34.7559 8.16797 34.9434 8.05859C35.1348 7.94531 35.3379 7.85352 35.5527 7.7832C35.7715 7.70898 36.0039 7.67188 36.25 7.67188C36.6289 7.67188 36.9668 7.75586 37.2637 7.92383C37.5645 8.08789 37.8184 8.30859 38.0254 8.58594C38.2324 8.85938 38.3906 9.17578 38.5 9.53516C38.6133 9.89062 38.6699 10.2578 38.6699 10.6367C38.6699 11.1367 38.5781 11.5996 38.3945 12.0254C38.2109 12.4512 37.9609 12.8203 37.6445 13.1328C37.3281 13.4414 36.957 13.6836 36.5312 13.8594C36.1055 14.0312 35.6523 14.1172 35.1719 14.1172C35.0781 14.1172 34.9785 14.1133 34.873 14.1055C34.7715 14.1016 34.6699 14.0938 34.5684 14.082C34.4707 14.0703 34.375 14.0547 34.2812 14.0352C34.1875 14.0195 34.1035 14 34.0293 13.9766V17.1406H32.6113V7.78906H33.748L33.959 8.83203ZM40.252 4.61328H41.6699V14H40.252V4.61328ZM48.707 13.4316C48.5352 13.5527 48.3496 13.6562 48.1504 13.7422C47.9512 13.8281 47.7461 13.9004 47.5352 13.959C47.3242 14.0137 47.1133 14.0527 46.9023 14.0762C46.6953 14.1035 46.498 14.1172 46.3105 14.1172C45.877 14.1172 45.4727 14.0508 45.0977 13.918C44.7266 13.7852 44.4023 13.5898 44.125 13.332C43.8516 13.0742 43.6367 12.7578 43.4805 12.3828C43.3242 12.0039 43.2461 11.5703 43.2461 11.082C43.2461 10.5625 43.334 10.0918 43.5098 9.66992C43.6855 9.24805 43.9199 8.89062 44.2129 8.59766C44.5098 8.30078 44.8516 8.07227 45.2383 7.91211C45.6289 7.75195 46.0352 7.67188 46.457 7.67188C46.8086 7.67188 47.1348 7.73047 47.4355 7.84766C47.7402 7.96094 48.002 8.13086 48.2207 8.35742C48.4434 8.58398 48.6172 8.86719 48.7422 9.20703C48.8672 9.54688 48.9297 9.94141 48.9297 10.3906C48.9297 10.5 48.9238 10.6172 48.9121 10.7422C48.9043 10.8633 48.8887 10.9824 48.8652 11.0996H44.7168C44.7168 11.416 44.7715 11.6953 44.8809 11.9375C44.9941 12.1797 45.1523 12.3828 45.3555 12.5469C45.5586 12.707 45.8027 12.8301 46.0879 12.916C46.373 12.998 46.6875 13.0391 47.0312 13.0391C47.1289 13.0391 47.2422 13.0352 47.3711 13.0273C47.5039 13.0195 47.6445 13.0039 47.793 12.9805C47.9414 12.957 48.0938 12.9258 48.25 12.8867C48.4062 12.8438 48.5586 12.7891 48.707 12.7227V13.4316ZM47.6113 10.4082C47.6113 10.123 47.5742 9.87305 47.5 9.6582C47.4297 9.44336 47.332 9.26367 47.207 9.11914C47.082 8.97461 46.9355 8.86719 46.7676 8.79688C46.6035 8.72266 46.4258 8.68555 46.2344 8.68555C46.0195 8.68555 45.8203 8.72852 45.6367 8.81445C45.4531 8.90039 45.293 9.02148 45.1562 9.17773C45.0195 9.33008 44.9121 9.51172 44.834 9.72266C44.7559 9.93359 44.7168 10.1621 44.7168 10.4082H47.6113ZM51.0801 8.80273H49.832L49.9375 8.13477C50.2461 8.05664 50.4922 7.96875 50.6758 7.87109C50.8633 7.77344 51.0176 7.6543 51.1387 7.51367C51.2637 7.36914 51.3711 7.19531 51.4609 6.99219C51.5547 6.78516 51.6621 6.53516 51.7832 6.24219H52.4629V7.78906H54.6953L54.4434 8.80273H52.5039V12.002C52.5039 12.1934 52.5312 12.3555 52.5859 12.4883C52.6406 12.6172 52.7188 12.7227 52.8203 12.8047C52.9219 12.8867 53.043 12.9473 53.1836 12.9863C53.3281 13.0215 53.4902 13.0391 53.6699 13.0391C53.8418 13.0391 54.0117 13.0234 54.1797 12.9922C54.3516 12.9609 54.5137 12.916 54.666 12.8574V13.5723C54.4004 13.752 54.1152 13.8887 53.8105 13.9824C53.5098 14.0723 53.2051 14.1172 52.8965 14.1172C52.3066 14.1172 51.8555 13.957 51.543 13.6367C51.2344 13.3164 51.0801 12.8652 51.0801 12.2832V8.80273ZM61.1992 13.4316C61.0273 13.5527 60.8418 13.6562 60.6426 13.7422C60.4434 13.8281 60.2383 13.9004 60.0273 13.959C59.8164 14.0137 59.6055 14.0527 59.3945 14.0762C59.1875 14.1035 58.9902 14.1172 58.8027 14.1172C58.3691 14.1172 57.9648 14.0508 57.5898 13.918C57.2188 13.7852 56.8945 13.5898 56.6172 13.332C56.3438 13.0742 56.1289 12.7578 55.9727 12.3828C55.8164 12.0039 55.7383 11.5703 55.7383 11.082C55.7383 10.5625 55.8262 10.0918 56.002 9.66992C56.1777 9.24805 56.4121 8.89062 56.7051 8.59766C57.002 8.30078 57.3438 8.07227 57.7305 7.91211C58.1211 7.75195 58.5273 7.67188 58.9492 7.67188C59.3008 7.67188 59.627 7.73047 59.9277 7.84766C60.2324 7.96094 60.4941 8.13086 60.7129 8.35742C60.9355 8.58398 61.1094 8.86719 61.2344 9.20703C61.3594 9.54688 61.4219 9.94141 61.4219 10.3906C61.4219 10.5 61.416 10.6172 61.4043 10.7422C61.3965 10.8633 61.3809 10.9824 61.3574 11.0996H57.209C57.209 11.416 57.2637 11.6953 57.373 11.9375C57.4863 12.1797 57.6445 12.3828 57.8477 12.5469C58.0508 12.707 58.2949 12.8301 58.5801 12.916C58.8652 12.998 59.1797 13.0391 59.5234 13.0391C59.6211 13.0391 59.7344 13.0352 59.8633 13.0273C59.9961 13.0195 60.1367 13.0039 60.2852 12.9805C60.4336 12.957 60.5859 12.9258 60.7422 12.8867C60.8984 12.8438 61.0508 12.7891 61.1992 12.7227V13.4316ZM60.1035 10.4082C60.1035 10.123 60.0664 9.87305 59.9922 9.6582C59.9219 9.44336 59.8242 9.26367 59.6992 9.11914C59.5742 8.97461 59.4277 8.86719 59.2598 8.79688C59.0957 8.72266 58.918 8.68555 58.7266 8.68555C58.5117 8.68555 58.3125 8.72852 58.1289 8.81445C57.9453 8.90039 57.7852 9.02148 57.6484 9.17773C57.5117 9.33008 57.4043 9.51172 57.3262 9.72266C57.248 9.93359 57.209 10.1621 57.209 10.4082H60.1035ZM67.3047 8.94336C67.0508 8.83398 66.8223 8.76367 66.6191 8.73242C66.4199 8.70117 66.2559 8.68555 66.127 8.68555C65.8105 8.68555 65.5273 8.74219 65.2773 8.85547C65.0312 8.96875 64.8242 9.125 64.6562 9.32422C64.4883 9.52344 64.3594 9.76172 64.2695 10.0391C64.1836 10.3125 64.1406 10.6113 64.1406 10.9355C64.1406 11.2285 64.1777 11.502 64.252 11.7559C64.3262 12.0098 64.4316 12.2324 64.5684 12.4238C64.7051 12.6152 64.8691 12.7656 65.0605 12.875C65.2559 12.9844 65.4727 13.0391 65.7109 13.0391C65.9922 13.0391 66.2656 12.9668 66.5312 12.8223C66.8008 12.6738 67.0586 12.4707 67.3047 12.2129V8.94336ZM67.3047 4.61328H68.7285V14H67.5684L67.375 12.9629C67.2383 13.0879 67.0879 13.2188 66.9238 13.3555C66.7637 13.4883 66.5879 13.6113 66.3965 13.7246C66.2051 13.8379 65.998 13.9316 65.7754 14.0059C65.5566 14.0801 65.3223 14.1172 65.0723 14.1172C64.6973 14.1172 64.3613 14.0352 64.0645 13.8711C63.7676 13.7031 63.5137 13.4824 63.3027 13.209C63.0957 12.9316 62.9375 12.6152 62.8281 12.2598C62.7188 11.9043 62.6641 11.5371 62.6641 11.1582C62.6641 10.6582 62.7539 10.1953 62.9336 9.76953C63.1172 9.34375 63.3672 8.97656 63.6836 8.66797C64 8.35547 64.3711 8.11133 64.7969 7.93555C65.2227 7.75977 65.6797 7.67188 66.168 7.67188C66.3906 7.67188 66.5996 7.6875 66.7949 7.71875C66.9941 7.75 67.1641 7.7832 67.3047 7.81836V4.61328Z" fill="white"/>
</svg>
