<svg width="74" height="20" viewBox="0 0 74 20" fill="none" xmlns="http://www.w3.org/2000/svg">
<path d="M0 0H74V20H31.7143H0V0Z" fill="#0087BC"/>
<path d="M10.6855 14H9.23242V5.41602H11.8223C12.3145 5.41602 12.7617 5.47656 13.1641 5.59766C13.5703 5.71484 13.918 5.88867 14.207 6.11914C14.5 6.3457 14.7266 6.625 14.8867 6.95703C15.0469 7.28906 15.127 7.66992 15.127 8.09961C15.127 8.56055 15.0391 8.97266 14.8633 9.33594C14.6875 9.69922 14.4551 10.0078 14.166 10.2617C13.877 10.5117 13.5469 10.7051 13.1758 10.8418C12.8047 10.9746 12.4258 11.041 12.0391 11.041C11.9883 11.041 11.9336 11.0391 11.875 11.0352C11.8203 11.0312 11.7539 11.0234 11.6758 11.0117L11.7637 10.0391C11.8223 10.0469 11.877 10.0527 11.9277 10.0566C11.9785 10.0566 12.0254 10.0566 12.0684 10.0566C12.3027 10.0566 12.5176 10.0176 12.7129 9.93945C12.9082 9.86133 13.0762 9.74609 13.2168 9.59375C13.3613 9.44141 13.4727 9.25586 13.5508 9.03711C13.6328 8.81445 13.6738 8.55859 13.6738 8.26953C13.6738 7.94922 13.627 7.67383 13.5332 7.44336C13.4395 7.21289 13.3027 7.02344 13.123 6.875C12.9473 6.72656 12.7324 6.61914 12.4785 6.55273C12.2285 6.48242 11.9453 6.44727 11.6289 6.44727H10.6855V14ZM16.6797 7.78906H17.8281L18.0273 9.64062C18.082 9.53906 18.1387 9.43555 18.1973 9.33008C18.2559 9.2207 18.3145 9.11719 18.373 9.01953C18.4316 8.91797 18.4863 8.82617 18.5371 8.74414C18.5879 8.66211 18.6309 8.59375 18.666 8.53906C18.748 8.41797 18.8398 8.30469 18.9414 8.19922C19.0469 8.08984 19.1602 7.99805 19.2812 7.92383C19.4023 7.8457 19.5332 7.78516 19.6738 7.74219C19.8145 7.69531 19.9668 7.67188 20.1309 7.67188C20.2441 7.67188 20.3574 7.68555 20.4707 7.71289C20.584 7.74023 20.6797 7.7832 20.7578 7.8418L20.6055 9.14844C20.5352 9.12891 20.4531 9.11719 20.3594 9.11328C20.2656 9.10547 20.1816 9.10156 20.1074 9.10156C19.8574 9.10156 19.6348 9.13867 19.4395 9.21289C19.2441 9.2832 19.0664 9.38281 18.9062 9.51172C18.75 9.63672 18.6055 9.78516 18.4727 9.95703C18.3438 10.1289 18.2188 10.3145 18.0977 10.5137V14H16.6797V7.78906ZM26.9277 13.4316C26.7559 13.5527 26.5703 13.6562 26.3711 13.7422C26.1719 13.8281 25.9668 13.9004 25.7559 13.959C25.5449 14.0137 25.334 14.0527 25.123 14.0762C24.916 14.1035 24.7188 14.1172 24.5312 14.1172C24.0977 14.1172 23.6934 14.0508 23.3184 13.918C22.9473 13.7852 22.623 13.5898 22.3457 13.332C22.0723 13.0742 21.8574 12.7578 21.7012 12.3828C21.5449 12.0039 21.4668 11.5703 21.4668 11.082C21.4668 10.5625 21.5547 10.0918 21.7305 9.66992C21.9062 9.24805 22.1406 8.89062 22.4336 8.59766C22.7305 8.30078 23.0723 8.07227 23.459 7.91211C23.8496 7.75195 24.2559 7.67188 24.6777 7.67188C25.0293 7.67188 25.3555 7.73047 25.6562 7.84766C25.9609 7.96094 26.2227 8.13086 26.4414 8.35742C26.6641 8.58398 26.8379 8.86719 26.9629 9.20703C27.0879 9.54688 27.1504 9.94141 27.1504 10.3906C27.1504 10.5 27.1445 10.6172 27.1328 10.7422C27.125 10.8633 27.1094 10.9824 27.0859 11.0996H22.9375C22.9375 11.416 22.9922 11.6953 23.1016 11.9375C23.2148 12.1797 23.373 12.3828 23.5762 12.5469C23.7793 12.707 24.0234 12.8301 24.3086 12.916C24.5938 12.998 24.9082 13.0391 25.252 13.0391C25.3496 13.0391 25.4629 13.0352 25.5918 13.0273C25.7246 13.0195 25.8652 13.0039 26.0137 12.9805C26.1621 12.957 26.3145 12.9258 26.4707 12.8867C26.627 12.8438 26.7793 12.7891 26.9277 12.7227V13.4316ZM25.832 10.4082C25.832 10.123 25.7949 9.87305 25.7207 9.6582C25.6504 9.44336 25.5527 9.26367 25.4277 9.11914C25.3027 8.97461 25.1562 8.86719 24.9883 8.79688C24.8242 8.72266 24.6465 8.68555 24.4551 8.68555C24.2402 8.68555 24.041 8.72852 23.8574 8.81445C23.6738 8.90039 23.5137 9.02148 23.377 9.17773C23.2402 9.33008 23.1328 9.51172 23.0547 9.72266C22.9766 9.93359 22.9375 10.1621 22.9375 10.4082H25.832ZM30.1914 12.8574C30.2891 12.9043 30.3926 12.9434 30.502 12.9746C30.6152 13.0059 30.7246 13.0312 30.8301 13.0508C30.9355 13.0703 31.0371 13.084 31.1348 13.0918C31.2324 13.0996 31.3164 13.1035 31.3867 13.1035C31.6875 13.1035 31.959 13.0449 32.2012 12.9277C32.4434 12.8066 32.6504 12.6445 32.8223 12.4414C32.9941 12.2344 33.125 11.9941 33.2148 11.7207C33.3086 11.4473 33.3555 11.1543 33.3555 10.8418C33.3555 10.5488 33.3164 10.2754 33.2383 10.0215C33.1641 9.76758 33.0586 9.54688 32.9219 9.35938C32.7852 9.17188 32.6191 9.02539 32.4238 8.91992C32.2285 8.81055 32.0137 8.75586 31.7793 8.75586C31.498 8.75586 31.2207 8.83203 30.9473 8.98438C30.6777 9.13281 30.4258 9.32812 30.1914 9.57031V12.8574ZM30.1211 8.83203C30.2617 8.69922 30.4141 8.56445 30.5781 8.42773C30.7422 8.29102 30.918 8.16797 31.1055 8.05859C31.2969 7.94531 31.5 7.85352 31.7148 7.7832C31.9336 7.70898 32.166 7.67188 32.4121 7.67188C32.791 7.67188 33.1289 7.75586 33.4258 7.92383C33.7266 8.08789 33.9805 8.30859 34.1875 8.58594C34.3945 8.85938 34.5527 9.17578 34.6621 9.53516C34.7754 9.89062 34.832 10.2578 34.832 10.6367C34.832 11.1367 34.7402 11.5996 34.5566 12.0254C34.373 12.4512 34.123 12.8203 33.8066 13.1328C33.4902 13.4414 33.1191 13.6836 32.6934 13.8594C32.2676 14.0312 31.8145 14.1172 31.334 14.1172C31.2402 14.1172 31.1406 14.1133 31.0352 14.1055C30.9336 14.1016 30.832 14.0938 30.7305 14.082C30.6328 14.0703 30.5371 14.0547 30.4434 14.0352C30.3496 14.0195 30.2656 14 30.1914 13.9766V17.1406H28.7734V7.78906H29.9102L30.1211 8.83203ZM39.7656 13.0859C39.6641 13.1719 39.541 13.2754 39.3965 13.3965C39.2559 13.5137 39.0977 13.627 38.9219 13.7363C38.75 13.8418 38.5605 13.9316 38.3535 14.0059C38.1504 14.0801 37.9355 14.1172 37.709 14.1172C37.4785 14.1172 37.2637 14.0762 37.0645 13.9941C36.8691 13.9082 36.6973 13.791 36.5488 13.6426C36.4043 13.4902 36.2891 13.3105 36.2031 13.1035C36.1211 12.8926 36.0801 12.6602 36.0801 12.4062C36.0801 12.1406 36.1328 11.8809 36.2383 11.627C36.3477 11.373 36.5273 11.1465 36.7773 10.9473C37.0312 10.748 37.3652 10.5879 37.7793 10.4668C38.1934 10.3418 38.7051 10.2793 39.3145 10.2793H39.7422V9.79883C39.7422 9.62695 39.7129 9.47266 39.6543 9.33594C39.5957 9.19922 39.5137 9.08203 39.4082 8.98438C39.3027 8.88672 39.1758 8.8125 39.0273 8.76172C38.8828 8.71094 38.7207 8.68555 38.541 8.68555C38.4004 8.68555 38.25 8.70312 38.0898 8.73828C37.9297 8.76953 37.7715 8.81445 37.6152 8.87305C37.459 8.93164 37.3066 9.00195 37.1582 9.08398C37.0098 9.16211 36.877 9.24805 36.7598 9.3418L36.6543 9.2832L36.3848 8.29883C36.8574 8.05273 37.2969 7.88672 37.7031 7.80078C38.1094 7.71484 38.4902 7.67188 38.8457 7.67188C39.2129 7.67188 39.5391 7.70898 39.8242 7.7832C40.1133 7.85742 40.3574 7.97266 40.5566 8.12891C40.7559 8.28125 40.9062 8.47656 41.0078 8.71484C41.1133 8.94922 41.166 9.22852 41.166 9.55273V12.4238C41.166 12.4824 41.1699 12.5469 41.1777 12.6172C41.1895 12.6875 41.209 12.7539 41.2363 12.8164C41.2676 12.8789 41.3105 12.9316 41.3652 12.9746C41.4238 13.0176 41.5 13.0391 41.5938 13.0391C41.6484 13.0391 41.7148 13.0312 41.793 13.0156C41.8711 13 41.9492 12.9746 42.0273 12.9395V13.6426C41.8164 13.7871 41.6055 13.9023 41.3945 13.9883C41.1875 14.0742 40.9844 14.1172 40.7852 14.1172C40.6289 14.1172 40.4941 14.0879 40.3809 14.0293C40.2676 13.9707 40.1719 13.8945 40.0938 13.8008C40.0156 13.7031 39.9492 13.5938 39.8945 13.4727C39.8438 13.3477 39.8008 13.2188 39.7656 13.0859ZM39.7422 10.9707H39.373C38.9668 10.9707 38.6387 11 38.3887 11.0586C38.1426 11.1133 37.9512 11.1914 37.8145 11.293C37.6777 11.3906 37.5859 11.5059 37.5391 11.6387C37.4961 11.7676 37.4746 11.9082 37.4746 12.0605C37.4746 12.2207 37.498 12.3613 37.5449 12.4824C37.5918 12.6035 37.6543 12.7051 37.7324 12.7871C37.8145 12.8691 37.9102 12.9316 38.0195 12.9746C38.1289 13.0176 38.2461 13.0391 38.3711 13.0391C38.4648 13.0391 38.5625 13.0293 38.6641 13.0098C38.7656 12.9863 38.8711 12.9473 38.9805 12.8926C39.0938 12.8379 39.2129 12.7656 39.3379 12.6758C39.4629 12.5859 39.5977 12.4707 39.7422 12.3301V10.9707ZM43.293 7.78906H44.4414L44.6406 9.64062C44.6953 9.53906 44.752 9.43555 44.8105 9.33008C44.8691 9.2207 44.9277 9.11719 44.9863 9.01953C45.0449 8.91797 45.0996 8.82617 45.1504 8.74414C45.2012 8.66211 45.2441 8.59375 45.2793 8.53906C45.3613 8.41797 45.4531 8.30469 45.5547 8.19922C45.6602 8.08984 45.7734 7.99805 45.8945 7.92383C46.0156 7.8457 46.1465 7.78516 46.2871 7.74219C46.4277 7.69531 46.5801 7.67188 46.7441 7.67188C46.8574 7.67188 46.9707 7.68555 47.084 7.71289C47.1973 7.74023 47.293 7.7832 47.3711 7.8418L47.2188 9.14844C47.1484 9.12891 47.0664 9.11719 46.9727 9.11328C46.8789 9.10547 46.7949 9.10156 46.7207 9.10156C46.4707 9.10156 46.248 9.13867 46.0527 9.21289C45.8574 9.2832 45.6797 9.38281 45.5195 9.51172C45.3633 9.63672 45.2188 9.78516 45.0859 9.95703C44.957 10.1289 44.832 10.3145 44.7109 10.5137V14H43.293V7.78906ZM48.7012 7.78906H50.125V14H48.7012V7.78906ZM49.4102 6.56445C49.2852 6.56445 49.1699 6.54492 49.0645 6.50586C48.9629 6.46289 48.873 6.40625 48.7949 6.33594C48.7207 6.26562 48.6621 6.18164 48.6191 6.08398C48.5801 5.98633 48.5605 5.88086 48.5605 5.76758C48.5605 5.65039 48.582 5.54297 48.625 5.44531C48.6719 5.34375 48.7344 5.25586 48.8125 5.18164C48.8945 5.10352 48.9883 5.04297 49.0938 5C49.2031 4.95703 49.3203 4.93555 49.4453 4.93555C49.5664 4.93555 49.6777 4.95703 49.7793 5C49.8809 5.04297 49.9688 5.10156 50.043 5.17578C50.1172 5.24609 50.1758 5.33203 50.2188 5.43359C50.2617 5.53125 50.2832 5.63672 50.2832 5.75C50.2832 5.86719 50.2598 5.97656 50.2129 6.07812C50.1699 6.17578 50.1074 6.26172 50.0254 6.33594C49.9473 6.40625 49.8555 6.46289 49.75 6.50586C49.6445 6.54492 49.5312 6.56445 49.4102 6.56445ZM52.0938 7.78906H53.2422L53.4414 8.84961C53.5781 8.72461 53.7324 8.59375 53.9043 8.45703C54.0762 8.31641 54.2637 8.18945 54.4668 8.07617C54.6699 7.95898 54.8828 7.86328 55.1055 7.78906C55.332 7.71094 55.5664 7.67188 55.8086 7.67188C56.0938 7.67188 56.3516 7.72656 56.582 7.83594C56.8164 7.94141 57.0156 8.0918 57.1797 8.28711C57.3438 8.47852 57.4707 8.70898 57.5605 8.97852C57.6504 9.24805 57.6953 9.54297 57.6953 9.86328V14H56.2715V10.0332C56.2715 9.82227 56.2422 9.63672 56.1836 9.47656C56.125 9.31641 56.043 9.18359 55.9375 9.07812C55.8359 8.97266 55.7129 8.89258 55.5684 8.83789C55.4277 8.7832 55.2754 8.75586 55.1113 8.75586C54.8223 8.75586 54.5488 8.83008 54.291 8.97852C54.0332 9.12695 53.7734 9.32227 53.5117 9.56445V14H52.0938V7.78906ZM61.3574 14.4277C61.2676 14.4785 61.1738 14.5371 61.0762 14.6035C60.9785 14.6699 60.8867 14.7422 60.8008 14.8203C60.7188 14.9023 60.6504 14.9902 60.5957 15.084C60.541 15.1816 60.5137 15.2852 60.5137 15.3945C60.5137 15.5117 60.5469 15.6211 60.6133 15.7227C60.6836 15.8242 60.7852 15.9121 60.918 15.9863C61.0547 16.0645 61.2227 16.125 61.4219 16.168C61.6211 16.2148 61.8496 16.2383 62.1074 16.2383C62.4043 16.2383 62.668 16.209 62.8984 16.1504C63.1289 16.0918 63.3223 16.0117 63.4785 15.9102C63.6387 15.8125 63.7598 15.6992 63.8418 15.5703C63.9238 15.4414 63.9648 15.3066 63.9648 15.166C63.9648 15.041 63.9336 14.9316 63.8711 14.8379C63.8086 14.748 63.7227 14.6719 63.6133 14.6094C63.5078 14.5469 63.3828 14.5 63.2383 14.4688C63.0938 14.4414 62.9395 14.4277 62.7754 14.4277H61.3574ZM60.4902 14.3105C60.2207 14.2168 60 14.0938 59.8281 13.9414C59.6602 13.7852 59.5762 13.6016 59.5762 13.3906C59.5762 13.2617 59.6094 13.1387 59.6758 13.0215C59.7461 12.9043 59.8359 12.793 59.9453 12.6875C60.0586 12.582 60.1855 12.4824 60.3262 12.3887C60.4668 12.291 60.6094 12.1973 60.7539 12.1074C60.5117 12.002 60.3047 11.877 60.1328 11.7324C59.9648 11.5879 59.8262 11.4297 59.7168 11.2578C59.6113 11.0859 59.5332 10.9043 59.4824 10.7129C59.4355 10.5215 59.4121 10.3281 59.4121 10.1328C59.4121 9.75781 59.4922 9.41992 59.6523 9.11914C59.8125 8.81445 60.0234 8.55469 60.2852 8.33984C60.5508 8.125 60.8516 7.96094 61.1875 7.84766C61.5273 7.73047 61.877 7.67188 62.2363 7.67188C62.5059 7.67188 62.7715 7.70508 63.0332 7.77148C63.2949 7.83789 63.5156 7.92773 63.6953 8.04102C63.8203 7.9707 63.9863 7.91211 64.1934 7.86523C64.4004 7.81445 64.6152 7.78906 64.8379 7.78906H65.834L65.582 8.79688H64.3223C64.3457 8.82031 64.3809 8.86719 64.4277 8.9375C64.4746 9.00391 64.5195 9.08789 64.5625 9.18945C64.6055 9.29102 64.6426 9.4082 64.6738 9.54102C64.709 9.66992 64.7266 9.80859 64.7266 9.95703C64.7266 10.2852 64.6484 10.5918 64.4922 10.877C64.3398 11.1582 64.1348 11.4043 63.877 11.6152C63.623 11.8223 63.3301 11.9863 62.998 12.1074C62.6699 12.2246 62.332 12.2832 61.9844 12.2832C61.9102 12.2832 61.8359 12.2812 61.7617 12.2773C61.6875 12.2695 61.6113 12.2617 61.5332 12.2539C61.4707 12.293 61.4043 12.3379 61.334 12.3887C61.2637 12.4355 61.1992 12.4883 61.1406 12.5469C61.082 12.6016 61.0332 12.6621 60.9941 12.7285C60.9551 12.7949 60.9355 12.8633 60.9355 12.9336C60.9355 13.0547 60.9902 13.1523 61.0996 13.2266C61.209 13.3008 61.3594 13.3379 61.5508 13.3379H63.1328C63.4141 13.3379 63.6836 13.373 63.9414 13.4434C64.2031 13.5098 64.4316 13.6094 64.627 13.7422C64.8262 13.8711 64.9844 14.0293 65.1016 14.2168C65.2227 14.4082 65.2832 14.625 65.2832 14.8672C65.2832 15.1367 65.2051 15.4121 65.0488 15.6934C64.8965 15.9785 64.6699 16.2363 64.3691 16.4668C64.0684 16.7012 63.6973 16.8906 63.2559 17.0352C62.8145 17.1836 62.3066 17.2578 61.7324 17.2578C61.3652 17.2578 61.0234 17.2246 60.707 17.1582C60.3945 17.0957 60.1211 17.0039 59.8867 16.8828C59.6562 16.7656 59.4746 16.6211 59.3418 16.4492C59.2129 16.2812 59.1484 16.0918 59.1484 15.8809C59.1484 15.6934 59.1973 15.5195 59.2949 15.3594C59.3926 15.1992 59.5117 15.0527 59.6523 14.9199C59.793 14.7871 59.9395 14.6699 60.0918 14.5684C60.2441 14.4668 60.377 14.3809 60.4902 14.3105ZM60.7188 9.94531C60.7188 10.1445 60.752 10.3301 60.8184 10.502C60.8887 10.6699 60.9844 10.8184 61.1055 10.9473C61.2305 11.0723 61.375 11.1699 61.5391 11.2402C61.707 11.3105 61.8906 11.3457 62.0898 11.3457C62.2773 11.3457 62.4531 11.3145 62.6172 11.252C62.7812 11.1855 62.9238 11.0938 63.0449 10.9766C63.166 10.8594 63.2617 10.7188 63.332 10.5547C63.4023 10.3867 63.4375 10.2012 63.4375 9.99805C63.4375 9.79883 63.4023 9.61523 63.332 9.44727C63.2656 9.2793 63.1699 9.13477 63.0449 9.01367C62.9238 8.88867 62.7793 8.79102 62.6113 8.7207C62.4434 8.65039 62.2598 8.61523 62.0605 8.61523C61.873 8.61523 61.6973 8.64648 61.5332 8.70898C61.373 8.77148 61.2324 8.86133 61.1113 8.97852C60.9902 9.0918 60.8945 9.23047 60.8242 9.39453C60.7539 9.55859 60.7188 9.74219 60.7188 9.94531Z" fill="white"/>
</svg>
