<svg width="74" height="20" viewBox="0 0 74 20" fill="none" xmlns="http://www.w3.org/2000/svg">
<path d="M0 0H74V20H31.7143H0V0Z" fill="#1E8B3D"/>
<path d="M21.6367 10.6602V14H20.1836V5.41602H22.8262C23.2949 5.41602 23.7148 5.47656 24.0859 5.59766C24.4609 5.71484 24.7773 5.87695 25.0352 6.08398C25.293 6.28711 25.4902 6.52539 25.627 6.79883C25.7676 7.07227 25.8379 7.36523 25.8379 7.67773C25.8379 7.95508 25.7871 8.21484 25.6855 8.45703C25.584 8.69922 25.4512 8.92383 25.2871 9.13086C25.123 9.33398 24.9375 9.51953 24.7305 9.6875C24.5273 9.85156 24.3242 9.99414 24.1211 10.1152L26.6055 14H24.8887L23.0547 10.6602H21.6367ZM21.6367 9.6582H23.4004C23.5449 9.58008 23.6777 9.48242 23.7988 9.36523C23.9199 9.24805 24.0234 9.11719 24.1094 8.97266C24.1992 8.82422 24.2676 8.66602 24.3145 8.49805C24.3613 8.33008 24.3848 8.15625 24.3848 7.97656C24.3848 7.76172 24.3477 7.56055 24.2734 7.37305C24.1992 7.18555 24.0879 7.02344 23.9395 6.88672C23.7949 6.75 23.6113 6.64258 23.3887 6.56445C23.1699 6.48633 22.9141 6.44727 22.6211 6.44727H21.6367V9.6582ZM33.0391 13.4316C32.8672 13.5527 32.6816 13.6562 32.4824 13.7422C32.2832 13.8281 32.0781 13.9004 31.8672 13.959C31.6562 14.0137 31.4453 14.0527 31.2344 14.0762C31.0273 14.1035 30.8301 14.1172 30.6426 14.1172C30.209 14.1172 29.8047 14.0508 29.4297 13.918C29.0586 13.7852 28.7344 13.5898 28.457 13.332C28.1836 13.0742 27.9688 12.7578 27.8125 12.3828C27.6562 12.0039 27.5781 11.5703 27.5781 11.082C27.5781 10.5625 27.666 10.0918 27.8418 9.66992C28.0176 9.24805 28.252 8.89062 28.5449 8.59766C28.8418 8.30078 29.1836 8.07227 29.5703 7.91211C29.9609 7.75195 30.3672 7.67188 30.7891 7.67188C31.1406 7.67188 31.4668 7.73047 31.7676 7.84766C32.0723 7.96094 32.334 8.13086 32.5527 8.35742C32.7754 8.58398 32.9492 8.86719 33.0742 9.20703C33.1992 9.54688 33.2617 9.94141 33.2617 10.3906C33.2617 10.5 33.2559 10.6172 33.2441 10.7422C33.2363 10.8633 33.2207 10.9824 33.1973 11.0996H29.0488C29.0488 11.416 29.1035 11.6953 29.2129 11.9375C29.3262 12.1797 29.4844 12.3828 29.6875 12.5469C29.8906 12.707 30.1348 12.8301 30.4199 12.916C30.7051 12.998 31.0195 13.0391 31.3633 13.0391C31.4609 13.0391 31.5742 13.0352 31.7031 13.0273C31.8359 13.0195 31.9766 13.0039 32.125 12.9805C32.2734 12.957 32.4258 12.9258 32.582 12.8867C32.7383 12.8438 32.8906 12.7891 33.0391 12.7227V13.4316ZM31.9434 10.4082C31.9434 10.123 31.9062 9.87305 31.832 9.6582C31.7617 9.44336 31.6641 9.26367 31.5391 9.11914C31.4141 8.97461 31.2676 8.86719 31.0996 8.79688C30.9355 8.72266 30.7578 8.68555 30.5664 8.68555C30.3516 8.68555 30.1523 8.72852 29.9688 8.81445C29.7852 8.90039 29.625 9.02148 29.4883 9.17773C29.3516 9.33008 29.2441 9.51172 29.166 9.72266C29.0879 9.93359 29.0488 10.1621 29.0488 10.4082H31.9434ZM38.2363 13.0859C38.1348 13.1719 38.0117 13.2754 37.8672 13.3965C37.7266 13.5137 37.5684 13.627 37.3926 13.7363C37.2207 13.8418 37.0312 13.9316 36.8242 14.0059C36.6211 14.0801 36.4062 14.1172 36.1797 14.1172C35.9492 14.1172 35.7344 14.0762 35.5352 13.9941C35.3398 13.9082 35.168 13.791 35.0195 13.6426C34.875 13.4902 34.7598 13.3105 34.6738 13.1035C34.5918 12.8926 34.5508 12.6602 34.5508 12.4062C34.5508 12.1406 34.6035 11.8809 34.709 11.627C34.8184 11.373 34.998 11.1465 35.248 10.9473C35.502 10.748 35.8359 10.5879 36.25 10.4668C36.6641 10.3418 37.1758 10.2793 37.7852 10.2793H38.2129V9.79883C38.2129 9.62695 38.1836 9.47266 38.125 9.33594C38.0664 9.19922 37.9844 9.08203 37.8789 8.98438C37.7734 8.88672 37.6465 8.8125 37.498 8.76172C37.3535 8.71094 37.1914 8.68555 37.0117 8.68555C36.8711 8.68555 36.7207 8.70312 36.5605 8.73828C36.4004 8.76953 36.2422 8.81445 36.0859 8.87305C35.9297 8.93164 35.7773 9.00195 35.6289 9.08398C35.4805 9.16211 35.3477 9.24805 35.2305 9.3418L35.125 9.2832L34.8555 8.29883C35.3281 8.05273 35.7676 7.88672 36.1738 7.80078C36.5801 7.71484 36.9609 7.67188 37.3164 7.67188C37.6836 7.67188 38.0098 7.70898 38.2949 7.7832C38.584 7.85742 38.8281 7.97266 39.0273 8.12891C39.2266 8.28125 39.377 8.47656 39.4785 8.71484C39.584 8.94922 39.6367 9.22852 39.6367 9.55273V12.4238C39.6367 12.4824 39.6406 12.5469 39.6484 12.6172C39.6602 12.6875 39.6797 12.7539 39.707 12.8164C39.7383 12.8789 39.7812 12.9316 39.8359 12.9746C39.8945 13.0176 39.9707 13.0391 40.0645 13.0391C40.1191 13.0391 40.1855 13.0312 40.2637 13.0156C40.3418 13 40.4199 12.9746 40.498 12.9395V13.6426C40.2871 13.7871 40.0762 13.9023 39.8652 13.9883C39.6582 14.0742 39.4551 14.1172 39.2559 14.1172C39.0996 14.1172 38.9648 14.0879 38.8516 14.0293C38.7383 13.9707 38.6426 13.8945 38.5645 13.8008C38.4863 13.7031 38.4199 13.5938 38.3652 13.4727C38.3145 13.3477 38.2715 13.2188 38.2363 13.0859ZM38.2129 10.9707H37.8438C37.4375 10.9707 37.1094 11 36.8594 11.0586C36.6133 11.1133 36.4219 11.1914 36.2852 11.293C36.1484 11.3906 36.0566 11.5059 36.0098 11.6387C35.9668 11.7676 35.9453 11.9082 35.9453 12.0605C35.9453 12.2207 35.9688 12.3613 36.0156 12.4824C36.0625 12.6035 36.125 12.7051 36.2031 12.7871C36.2852 12.8691 36.3809 12.9316 36.4902 12.9746C36.5996 13.0176 36.7168 13.0391 36.8418 13.0391C36.9355 13.0391 37.0332 13.0293 37.1348 13.0098C37.2363 12.9863 37.3418 12.9473 37.4512 12.8926C37.5645 12.8379 37.6836 12.7656 37.8086 12.6758C37.9336 12.5859 38.0684 12.4707 38.2129 12.3301V10.9707ZM46.0234 8.94336C45.7695 8.83398 45.541 8.76367 45.3379 8.73242C45.1387 8.70117 44.9746 8.68555 44.8457 8.68555C44.5293 8.68555 44.2461 8.74219 43.9961 8.85547C43.75 8.96875 43.543 9.125 43.375 9.32422C43.207 9.52344 43.0781 9.76172 42.9883 10.0391C42.9023 10.3125 42.8594 10.6113 42.8594 10.9355C42.8594 11.2285 42.8965 11.502 42.9707 11.7559C43.0449 12.0098 43.1504 12.2324 43.2871 12.4238C43.4238 12.6152 43.5879 12.7656 43.7793 12.875C43.9746 12.9844 44.1914 13.0391 44.4297 13.0391C44.7109 13.0391 44.9844 12.9668 45.25 12.8223C45.5195 12.6738 45.7773 12.4707 46.0234 12.2129V8.94336ZM46.0234 4.61328H47.4473V14H46.2871L46.0938 12.9629C45.957 13.0879 45.8066 13.2188 45.6426 13.3555C45.4824 13.4883 45.3066 13.6113 45.1152 13.7246C44.9238 13.8379 44.7168 13.9316 44.4941 14.0059C44.2754 14.0801 44.041 14.1172 43.791 14.1172C43.416 14.1172 43.0801 14.0352 42.7832 13.8711C42.4863 13.7031 42.2324 13.4824 42.0215 13.209C41.8145 12.9316 41.6562 12.6152 41.5469 12.2598C41.4375 11.9043 41.3828 11.5371 41.3828 11.1582C41.3828 10.6582 41.4727 10.1953 41.6523 9.76953C41.8359 9.34375 42.0859 8.97656 42.4023 8.66797C42.7188 8.35547 43.0898 8.11133 43.5156 7.93555C43.9414 7.75977 44.3984 7.67188 44.8867 7.67188C45.1094 7.67188 45.3184 7.6875 45.5137 7.71875C45.7129 7.75 45.8828 7.7832 46.0234 7.81836V4.61328ZM48.7305 7.78906H50.3008L51.5078 11.7676L51.7773 12.9336H51.8945L52.1582 11.7676L53.377 7.78906H54.7188L51.3848 17.1406H50.0723L51.3848 14H50.9512L48.7305 7.78906Z" fill="white"/>
</svg>
