<svg width="74" height="20" viewBox="0 0 74 20" fill="none" xmlns="http://www.w3.org/2000/svg">
<path d="M0 0H74V20H31.7143H0V0Z" fill="#D20000"/>
<path d="M16.1348 13.1855C15.9277 13.3652 15.6973 13.5156 15.4434 13.6367C15.1934 13.7539 14.9375 13.8496 14.6758 13.9238C14.418 13.9941 14.1621 14.043 13.9082 14.0703C13.6582 14.1016 13.4316 14.1172 13.2285 14.1172C12.6543 14.1172 12.1191 14.0176 11.623 13.8184C11.1309 13.6191 10.7031 13.3379 10.3398 12.9746C9.97656 12.6074 9.69141 12.166 9.48438 11.6504C9.27734 11.1309 9.17383 10.5547 9.17383 9.92188C9.17383 9.4375 9.23438 8.98828 9.35547 8.57422C9.47656 8.15625 9.64453 7.77734 9.85938 7.4375C10.0742 7.09375 10.3301 6.78906 10.627 6.52344C10.9238 6.25781 11.248 6.03516 11.5996 5.85547C11.9512 5.67188 12.3242 5.5332 12.7188 5.43945C13.1133 5.3457 13.5176 5.29883 13.9316 5.29883C14.0645 5.29883 14.2148 5.30469 14.3828 5.31641C14.5508 5.32812 14.7305 5.34766 14.9219 5.375C15.1133 5.39844 15.3105 5.43164 15.5137 5.47461C15.7207 5.51367 15.9297 5.56445 16.1406 5.62695L15.9062 6.76367L15.7891 6.82227C15.3828 6.63477 15.002 6.50586 14.6465 6.43555C14.2949 6.36523 13.9902 6.33008 13.7324 6.33008C13.2871 6.33008 12.877 6.41602 12.502 6.58789C12.127 6.75586 11.8047 6.98828 11.5352 7.28516C11.2656 7.58203 11.0547 7.93359 10.9023 8.33984C10.7539 8.74219 10.6797 9.17578 10.6797 9.64062C10.6797 10.0977 10.75 10.5312 10.8906 10.9414C11.0312 11.3516 11.2363 11.7129 11.5059 12.0254C11.7793 12.334 12.1133 12.5801 12.5078 12.7637C12.9023 12.9473 13.3555 13.0391 13.8672 13.0391C14.1914 13.0391 14.5469 12.9941 14.9336 12.9043C15.3203 12.8145 15.7207 12.6523 16.1348 12.418V13.1855ZM21.1562 13.0859C21.0547 13.1719 20.9316 13.2754 20.7871 13.3965C20.6465 13.5137 20.4883 13.627 20.3125 13.7363C20.1406 13.8418 19.9512 13.9316 19.7441 14.0059C19.541 14.0801 19.3262 14.1172 19.0996 14.1172C18.8691 14.1172 18.6543 14.0762 18.4551 13.9941C18.2598 13.9082 18.0879 13.791 17.9395 13.6426C17.7949 13.4902 17.6797 13.3105 17.5938 13.1035C17.5117 12.8926 17.4707 12.6602 17.4707 12.4062C17.4707 12.1406 17.5234 11.8809 17.6289 11.627C17.7383 11.373 17.918 11.1465 18.168 10.9473C18.4219 10.748 18.7559 10.5879 19.1699 10.4668C19.584 10.3418 20.0957 10.2793 20.7051 10.2793H21.1328V9.79883C21.1328 9.62695 21.1035 9.47266 21.0449 9.33594C20.9863 9.19922 20.9043 9.08203 20.7988 8.98438C20.6934 8.88672 20.5664 8.8125 20.418 8.76172C20.2734 8.71094 20.1113 8.68555 19.9316 8.68555C19.791 8.68555 19.6406 8.70312 19.4805 8.73828C19.3203 8.76953 19.1621 8.81445 19.0059 8.87305C18.8496 8.93164 18.6973 9.00195 18.5488 9.08398C18.4004 9.16211 18.2676 9.24805 18.1504 9.3418L18.0449 9.2832L17.7754 8.29883C18.248 8.05273 18.6875 7.88672 19.0938 7.80078C19.5 7.71484 19.8809 7.67188 20.2363 7.67188C20.6035 7.67188 20.9297 7.70898 21.2148 7.7832C21.5039 7.85742 21.748 7.97266 21.9473 8.12891C22.1465 8.28125 22.2969 8.47656 22.3984 8.71484C22.5039 8.94922 22.5566 9.22852 22.5566 9.55273V12.4238C22.5566 12.4824 22.5605 12.5469 22.5684 12.6172C22.5801 12.6875 22.5996 12.7539 22.627 12.8164C22.6582 12.8789 22.7012 12.9316 22.7559 12.9746C22.8145 13.0176 22.8906 13.0391 22.9844 13.0391C23.0391 13.0391 23.1055 13.0312 23.1836 13.0156C23.2617 13 23.3398 12.9746 23.418 12.9395V13.6426C23.207 13.7871 22.9961 13.9023 22.7852 13.9883C22.5781 14.0742 22.375 14.1172 22.1758 14.1172C22.0195 14.1172 21.8848 14.0879 21.7715 14.0293C21.6582 13.9707 21.5625 13.8945 21.4844 13.8008C21.4062 13.7031 21.3398 13.5938 21.2852 13.4727C21.2344 13.3477 21.1914 13.2188 21.1562 13.0859ZM21.1328 10.9707H20.7637C20.3574 10.9707 20.0293 11 19.7793 11.0586C19.5332 11.1133 19.3418 11.1914 19.2051 11.293C19.0684 11.3906 18.9766 11.5059 18.9297 11.6387C18.8867 11.7676 18.8652 11.9082 18.8652 12.0605C18.8652 12.2207 18.8887 12.3613 18.9355 12.4824C18.9824 12.6035 19.0449 12.7051 19.123 12.7871C19.2051 12.8691 19.3008 12.9316 19.4102 12.9746C19.5195 13.0176 19.6367 13.0391 19.7617 13.0391C19.8555 13.0391 19.9531 13.0293 20.0547 13.0098C20.1562 12.9863 20.2617 12.9473 20.3711 12.8926C20.4844 12.8379 20.6035 12.7656 20.7285 12.6758C20.8535 12.5859 20.9883 12.4707 21.1328 12.3301V10.9707ZM24.6836 7.78906H25.832L26.0312 8.84961C26.168 8.72461 26.3223 8.59375 26.4941 8.45703C26.666 8.31641 26.8535 8.18945 27.0566 8.07617C27.2598 7.95898 27.4727 7.86328 27.6953 7.78906C27.9219 7.71094 28.1562 7.67188 28.3984 7.67188C28.6836 7.67188 28.9414 7.72656 29.1719 7.83594C29.4062 7.94141 29.6055 8.0918 29.7695 8.28711C29.9336 8.47852 30.0605 8.70898 30.1504 8.97852C30.2402 9.24805 30.2852 9.54297 30.2852 9.86328V14H28.8613V10.0332C28.8613 9.82227 28.832 9.63672 28.7734 9.47656C28.7148 9.31641 28.6328 9.18359 28.5273 9.07812C28.4258 8.97266 28.3027 8.89258 28.1582 8.83789C28.0176 8.7832 27.8652 8.75586 27.7012 8.75586C27.4121 8.75586 27.1387 8.83008 26.8809 8.97852C26.623 9.12695 26.3633 9.32227 26.1016 9.56445V14H24.6836V7.78906ZM36.7305 13.4316C36.4531 13.6543 36.1445 13.8242 35.8047 13.9414C35.4648 14.0586 35.0996 14.1172 34.709 14.1172C34.2715 14.1172 33.877 14.0449 33.5254 13.9004C33.1738 13.752 32.875 13.5488 32.6289 13.291C32.3828 13.0293 32.1934 12.7188 32.0605 12.3594C31.9277 11.9961 31.8613 11.5977 31.8613 11.1641C31.8613 10.6523 31.9512 10.1836 32.1309 9.75781C32.3105 9.32812 32.5547 8.95898 32.8633 8.65039C33.1758 8.3418 33.543 8.10156 33.9648 7.92969C34.3867 7.75781 34.8398 7.67188 35.3242 7.67188C35.4297 7.67188 35.543 7.67773 35.6641 7.68945C35.7852 7.69727 35.9082 7.71094 36.0332 7.73047C36.1621 7.75 36.2871 7.77734 36.4082 7.8125C36.5332 7.84375 36.6484 7.88281 36.7539 7.92969L36.502 9.01953L36.3789 9.07812C36.3086 9.02734 36.2246 8.97852 36.127 8.93164C36.0332 8.88086 35.9316 8.83789 35.8223 8.80273C35.7129 8.76758 35.5996 8.74023 35.4824 8.7207C35.3652 8.69727 35.25 8.68555 35.1367 8.68555C34.8867 8.68555 34.6523 8.73438 34.4336 8.83203C34.2188 8.92969 34.0293 9.07227 33.8652 9.25977C33.7051 9.44727 33.5781 9.67773 33.4844 9.95117C33.3906 10.2207 33.3438 10.5273 33.3438 10.8711C33.3438 11.2305 33.3945 11.5449 33.4961 11.8145C33.5977 12.084 33.7383 12.3105 33.918 12.4941C34.0977 12.6738 34.3105 12.8105 34.5566 12.9043C34.8027 12.9941 35.0703 13.0391 35.3594 13.0391C35.5391 13.0391 35.7441 13.0176 35.9746 12.9746C36.2051 12.9316 36.457 12.8477 36.7305 12.7227V13.4316ZM43.3691 13.4316C43.1973 13.5527 43.0117 13.6562 42.8125 13.7422C42.6133 13.8281 42.4082 13.9004 42.1973 13.959C41.9863 14.0137 41.7754 14.0527 41.5645 14.0762C41.3574 14.1035 41.1602 14.1172 40.9727 14.1172C40.5391 14.1172 40.1348 14.0508 39.7598 13.918C39.3887 13.7852 39.0645 13.5898 38.7871 13.332C38.5137 13.0742 38.2988 12.7578 38.1426 12.3828C37.9863 12.0039 37.9082 11.5703 37.9082 11.082C37.9082 10.5625 37.9961 10.0918 38.1719 9.66992C38.3477 9.24805 38.582 8.89062 38.875 8.59766C39.1719 8.30078 39.5137 8.07227 39.9004 7.91211C40.291 7.75195 40.6973 7.67188 41.1191 7.67188C41.4707 7.67188 41.7969 7.73047 42.0977 7.84766C42.4023 7.96094 42.6641 8.13086 42.8828 8.35742C43.1055 8.58398 43.2793 8.86719 43.4043 9.20703C43.5293 9.54688 43.5918 9.94141 43.5918 10.3906C43.5918 10.5 43.5859 10.6172 43.5742 10.7422C43.5664 10.8633 43.5508 10.9824 43.5273 11.0996H39.3789C39.3789 11.416 39.4336 11.6953 39.543 11.9375C39.6562 12.1797 39.8145 12.3828 40.0176 12.5469C40.2207 12.707 40.4648 12.8301 40.75 12.916C41.0352 12.998 41.3496 13.0391 41.6934 13.0391C41.791 13.0391 41.9043 13.0352 42.0332 13.0273C42.166 13.0195 42.3066 13.0039 42.4551 12.9805C42.6035 12.957 42.7559 12.9258 42.9121 12.8867C43.0684 12.8438 43.2207 12.7891 43.3691 12.7227V13.4316ZM42.2734 10.4082C42.2734 10.123 42.2363 9.87305 42.1621 9.6582C42.0918 9.44336 41.9941 9.26367 41.8691 9.11914C41.7441 8.97461 41.5977 8.86719 41.4297 8.79688C41.2656 8.72266 41.0879 8.68555 40.8965 8.68555C40.6816 8.68555 40.4824 8.72852 40.2988 8.81445C40.1152 8.90039 39.9551 9.02148 39.8184 9.17773C39.6816 9.33008 39.5742 9.51172 39.4961 9.72266C39.418 9.93359 39.3789 10.1621 39.3789 10.4082H42.2734ZM45.2148 4.61328H46.6328V14H45.2148V4.61328ZM48.6602 4.61328H50.0781V14H48.6602V4.61328ZM57.1152 13.4316C56.9434 13.5527 56.7578 13.6562 56.5586 13.7422C56.3594 13.8281 56.1543 13.9004 55.9434 13.959C55.7324 14.0137 55.5215 14.0527 55.3105 14.0762C55.1035 14.1035 54.9062 14.1172 54.7188 14.1172C54.2852 14.1172 53.8809 14.0508 53.5059 13.918C53.1348 13.7852 52.8105 13.5898 52.5332 13.332C52.2598 13.0742 52.0449 12.7578 51.8887 12.3828C51.7324 12.0039 51.6543 11.5703 51.6543 11.082C51.6543 10.5625 51.7422 10.0918 51.918 9.66992C52.0938 9.24805 52.3281 8.89062 52.6211 8.59766C52.918 8.30078 53.2598 8.07227 53.6465 7.91211C54.0371 7.75195 54.4434 7.67188 54.8652 7.67188C55.2168 7.67188 55.543 7.73047 55.8438 7.84766C56.1484 7.96094 56.4102 8.13086 56.6289 8.35742C56.8516 8.58398 57.0254 8.86719 57.1504 9.20703C57.2754 9.54688 57.3379 9.94141 57.3379 10.3906C57.3379 10.5 57.332 10.6172 57.3203 10.7422C57.3125 10.8633 57.2969 10.9824 57.2734 11.0996H53.125C53.125 11.416 53.1797 11.6953 53.2891 11.9375C53.4023 12.1797 53.5605 12.3828 53.7637 12.5469C53.9668 12.707 54.2109 12.8301 54.4961 12.916C54.7812 12.998 55.0957 13.0391 55.4395 13.0391C55.5371 13.0391 55.6504 13.0352 55.7793 13.0273C55.9121 13.0195 56.0527 13.0039 56.2012 12.9805C56.3496 12.957 56.502 12.9258 56.6582 12.8867C56.8145 12.8438 56.9668 12.7891 57.1152 12.7227V13.4316ZM56.0195 10.4082C56.0195 10.123 55.9824 9.87305 55.9082 9.6582C55.8379 9.44336 55.7402 9.26367 55.6152 9.11914C55.4902 8.97461 55.3438 8.86719 55.1758 8.79688C55.0117 8.72266 54.834 8.68555 54.6426 8.68555C54.4277 8.68555 54.2285 8.72852 54.0449 8.81445C53.8613 8.90039 53.7012 9.02148 53.5645 9.17773C53.4277 9.33008 53.3203 9.51172 53.2422 9.72266C53.1641 9.93359 53.125 10.1621 53.125 10.4082H56.0195ZM63.2207 8.94336C62.9668 8.83398 62.7383 8.76367 62.5352 8.73242C62.3359 8.70117 62.1719 8.68555 62.043 8.68555C61.7266 8.68555 61.4434 8.74219 61.1934 8.85547C60.9473 8.96875 60.7402 9.125 60.5723 9.32422C60.4043 9.52344 60.2754 9.76172 60.1855 10.0391C60.0996 10.3125 60.0566 10.6113 60.0566 10.9355C60.0566 11.2285 60.0938 11.502 60.168 11.7559C60.2422 12.0098 60.3477 12.2324 60.4844 12.4238C60.6211 12.6152 60.7852 12.7656 60.9766 12.875C61.1719 12.9844 61.3887 13.0391 61.627 13.0391C61.9082 13.0391 62.1816 12.9668 62.4473 12.8223C62.7168 12.6738 62.9746 12.4707 63.2207 12.2129V8.94336ZM63.2207 4.61328H64.6445V14H63.4844L63.291 12.9629C63.1543 13.0879 63.0039 13.2188 62.8398 13.3555C62.6797 13.4883 62.5039 13.6113 62.3125 13.7246C62.1211 13.8379 61.9141 13.9316 61.6914 14.0059C61.4727 14.0801 61.2383 14.1172 60.9883 14.1172C60.6133 14.1172 60.2773 14.0352 59.9805 13.8711C59.6836 13.7031 59.4297 13.4824 59.2188 13.209C59.0117 12.9316 58.8535 12.6152 58.7441 12.2598C58.6348 11.9043 58.5801 11.5371 58.5801 11.1582C58.5801 10.6582 58.6699 10.1953 58.8496 9.76953C59.0332 9.34375 59.2832 8.97656 59.5996 8.66797C59.916 8.35547 60.2871 8.11133 60.7129 7.93555C61.1387 7.75977 61.5957 7.67188 62.084 7.67188C62.3066 7.67188 62.5156 7.6875 62.7109 7.71875C62.9102 7.75 63.0801 7.7832 63.2207 7.81836V4.61328Z" fill="white"/>
</svg>
