<svg width="74" height="20" viewBox="0 0 74 20" fill="none" xmlns="http://www.w3.org/2000/svg">
<path d="M0 0H74V20H31.7143H0V0Z" fill="#6605AB"/>
<path d="M15.8184 14H14.3652V5.41602H16.9551C17.4473 5.41602 17.8945 5.47656 18.2969 5.59766C18.7031 5.71484 19.0508 5.88867 19.3398 6.11914C19.6328 6.3457 19.8594 6.625 20.0195 6.95703C20.1797 7.28906 20.2598 7.66992 20.2598 8.09961C20.2598 8.56055 20.1719 8.97266 19.9961 9.33594C19.8203 9.69922 19.5879 10.0078 19.2988 10.2617C19.0098 10.5117 18.6797 10.7051 18.3086 10.8418C17.9375 10.9746 17.5586 11.041 17.1719 11.041C17.1211 11.041 17.0664 11.0391 17.0078 11.0352C16.9531 11.0312 16.8867 11.0234 16.8086 11.0117L16.8965 10.0391C16.9551 10.0469 17.0098 10.0527 17.0605 10.0566C17.1113 10.0566 17.1582 10.0566 17.2012 10.0566C17.4355 10.0566 17.6504 10.0176 17.8457 9.93945C18.041 9.86133 18.209 9.74609 18.3496 9.59375C18.4941 9.44141 18.6055 9.25586 18.6836 9.03711C18.7656 8.81445 18.8066 8.55859 18.8066 8.26953C18.8066 7.94922 18.7598 7.67383 18.666 7.44336C18.5723 7.21289 18.4355 7.02344 18.2559 6.875C18.0801 6.72656 17.8652 6.61914 17.6113 6.55273C17.3613 6.48242 17.0781 6.44727 16.7617 6.44727H15.8184V14ZM26.5293 13.4316C26.3574 13.5527 26.1719 13.6562 25.9727 13.7422C25.7734 13.8281 25.5684 13.9004 25.3574 13.959C25.1465 14.0137 24.9355 14.0527 24.7246 14.0762C24.5176 14.1035 24.3203 14.1172 24.1328 14.1172C23.6992 14.1172 23.2949 14.0508 22.9199 13.918C22.5488 13.7852 22.2246 13.5898 21.9473 13.332C21.6738 13.0742 21.459 12.7578 21.3027 12.3828C21.1465 12.0039 21.0684 11.5703 21.0684 11.082C21.0684 10.5625 21.1562 10.0918 21.332 9.66992C21.5078 9.24805 21.7422 8.89062 22.0352 8.59766C22.332 8.30078 22.6738 8.07227 23.0605 7.91211C23.4512 7.75195 23.8574 7.67188 24.2793 7.67188C24.6309 7.67188 24.957 7.73047 25.2578 7.84766C25.5625 7.96094 25.8242 8.13086 26.043 8.35742C26.2656 8.58398 26.4395 8.86719 26.5645 9.20703C26.6895 9.54688 26.752 9.94141 26.752 10.3906C26.752 10.5 26.7461 10.6172 26.7344 10.7422C26.7266 10.8633 26.7109 10.9824 26.6875 11.0996H22.5391C22.5391 11.416 22.5938 11.6953 22.7031 11.9375C22.8164 12.1797 22.9746 12.3828 23.1777 12.5469C23.3809 12.707 23.625 12.8301 23.9102 12.916C24.1953 12.998 24.5098 13.0391 24.8535 13.0391C24.9512 13.0391 25.0645 13.0352 25.1934 13.0273C25.3262 13.0195 25.4668 13.0039 25.6152 12.9805C25.7637 12.957 25.916 12.9258 26.0723 12.8867C26.2285 12.8438 26.3809 12.7891 26.5293 12.7227V13.4316ZM25.4336 10.4082C25.4336 10.123 25.3965 9.87305 25.3223 9.6582C25.252 9.44336 25.1543 9.26367 25.0293 9.11914C24.9043 8.97461 24.7578 8.86719 24.5898 8.79688C24.4258 8.72266 24.248 8.68555 24.0566 8.68555C23.8418 8.68555 23.6426 8.72852 23.459 8.81445C23.2754 8.90039 23.1152 9.02148 22.9785 9.17773C22.8418 9.33008 22.7344 9.51172 22.6562 9.72266C22.5781 9.93359 22.5391 10.1621 22.5391 10.4082H25.4336ZM28.375 7.78906H29.5234L29.7227 8.84961C29.8594 8.72461 30.0137 8.59375 30.1855 8.45703C30.3574 8.31641 30.5449 8.18945 30.748 8.07617C30.9512 7.95898 31.1641 7.86328 31.3867 7.78906C31.6133 7.71094 31.8477 7.67188 32.0898 7.67188C32.375 7.67188 32.6328 7.72656 32.8633 7.83594C33.0977 7.94141 33.2969 8.0918 33.4609 8.28711C33.625 8.47852 33.752 8.70898 33.8418 8.97852C33.9316 9.24805 33.9766 9.54297 33.9766 9.86328V14H32.5527V10.0332C32.5527 9.82227 32.5234 9.63672 32.4648 9.47656C32.4062 9.31641 32.3242 9.18359 32.2188 9.07812C32.1172 8.97266 31.9941 8.89258 31.8496 8.83789C31.709 8.7832 31.5566 8.75586 31.3926 8.75586C31.1035 8.75586 30.8301 8.83008 30.5723 8.97852C30.3145 9.12695 30.0547 9.32227 29.793 9.56445V14H28.375V7.78906ZM40.1934 8.94336C39.9395 8.83398 39.7109 8.76367 39.5078 8.73242C39.3086 8.70117 39.1445 8.68555 39.0156 8.68555C38.6992 8.68555 38.416 8.74219 38.166 8.85547C37.9199 8.96875 37.7129 9.125 37.5449 9.32422C37.377 9.52344 37.248 9.76172 37.1582 10.0391C37.0723 10.3125 37.0293 10.6113 37.0293 10.9355C37.0293 11.2285 37.0664 11.502 37.1406 11.7559C37.2148 12.0098 37.3203 12.2324 37.457 12.4238C37.5938 12.6152 37.7578 12.7656 37.9492 12.875C38.1445 12.9844 38.3613 13.0391 38.5996 13.0391C38.8809 13.0391 39.1543 12.9668 39.4199 12.8223C39.6895 12.6738 39.9473 12.4707 40.1934 12.2129V8.94336ZM40.1934 4.61328H41.6172V14H40.457L40.2637 12.9629C40.127 13.0879 39.9766 13.2188 39.8125 13.3555C39.6523 13.4883 39.4766 13.6113 39.2852 13.7246C39.0938 13.8379 38.8867 13.9316 38.6641 14.0059C38.4453 14.0801 38.2109 14.1172 37.9609 14.1172C37.5859 14.1172 37.25 14.0352 36.9531 13.8711C36.6562 13.7031 36.4023 13.4824 36.1914 13.209C35.9844 12.9316 35.8262 12.6152 35.7168 12.2598C35.6074 11.9043 35.5527 11.5371 35.5527 11.1582C35.5527 10.6582 35.6426 10.1953 35.8223 9.76953C36.0059 9.34375 36.2559 8.97656 36.5723 8.66797C36.8887 8.35547 37.2598 8.11133 37.6855 7.93555C38.1113 7.75977 38.5684 7.67188 39.0566 7.67188C39.2793 7.67188 39.4883 7.6875 39.6836 7.71875C39.8828 7.75 40.0527 7.7832 40.1934 7.81836V4.61328ZM43.5684 7.78906H44.9922V14H43.5684V7.78906ZM44.2773 6.56445C44.1523 6.56445 44.0371 6.54492 43.9316 6.50586C43.8301 6.46289 43.7402 6.40625 43.6621 6.33594C43.5879 6.26562 43.5293 6.18164 43.4863 6.08398C43.4473 5.98633 43.4277 5.88086 43.4277 5.76758C43.4277 5.65039 43.4492 5.54297 43.4922 5.44531C43.5391 5.34375 43.6016 5.25586 43.6797 5.18164C43.7617 5.10352 43.8555 5.04297 43.9609 5C44.0703 4.95703 44.1875 4.93555 44.3125 4.93555C44.4336 4.93555 44.5449 4.95703 44.6465 5C44.748 5.04297 44.8359 5.10156 44.9102 5.17578C44.9844 5.24609 45.043 5.33203 45.0859 5.43359C45.1289 5.53125 45.1504 5.63672 45.1504 5.75C45.1504 5.86719 45.127 5.97656 45.0801 6.07812C45.0371 6.17578 44.9746 6.26172 44.8926 6.33594C44.8145 6.40625 44.7227 6.46289 44.6172 6.50586C44.5117 6.54492 44.3984 6.56445 44.2773 6.56445ZM46.9609 7.78906H48.1094L48.3086 8.84961C48.4453 8.72461 48.5996 8.59375 48.7715 8.45703C48.9434 8.31641 49.1309 8.18945 49.334 8.07617C49.5371 7.95898 49.75 7.86328 49.9727 7.78906C50.1992 7.71094 50.4336 7.67188 50.6758 7.67188C50.9609 7.67188 51.2188 7.72656 51.4492 7.83594C51.6836 7.94141 51.8828 8.0918 52.0469 8.28711C52.2109 8.47852 52.3379 8.70898 52.4277 8.97852C52.5176 9.24805 52.5625 9.54297 52.5625 9.86328V14H51.1387V10.0332C51.1387 9.82227 51.1094 9.63672 51.0508 9.47656C50.9922 9.31641 50.9102 9.18359 50.8047 9.07812C50.7031 8.97266 50.5801 8.89258 50.4355 8.83789C50.2949 8.7832 50.1426 8.75586 49.9785 8.75586C49.6895 8.75586 49.416 8.83008 49.1582 8.97852C48.9004 9.12695 48.6406 9.32227 48.3789 9.56445V14H46.9609V7.78906ZM56.2246 14.4277C56.1348 14.4785 56.041 14.5371 55.9434 14.6035C55.8457 14.6699 55.7539 14.7422 55.668 14.8203C55.5859 14.9023 55.5176 14.9902 55.4629 15.084C55.4082 15.1816 55.3809 15.2852 55.3809 15.3945C55.3809 15.5117 55.4141 15.6211 55.4805 15.7227C55.5508 15.8242 55.6523 15.9121 55.7852 15.9863C55.9219 16.0645 56.0898 16.125 56.2891 16.168C56.4883 16.2148 56.7168 16.2383 56.9746 16.2383C57.2715 16.2383 57.5352 16.209 57.7656 16.1504C57.9961 16.0918 58.1895 16.0117 58.3457 15.9102C58.5059 15.8125 58.627 15.6992 58.709 15.5703C58.791 15.4414 58.832 15.3066 58.832 15.166C58.832 15.041 58.8008 14.9316 58.7383 14.8379C58.6758 14.748 58.5898 14.6719 58.4805 14.6094C58.375 14.5469 58.25 14.5 58.1055 14.4688C57.9609 14.4414 57.8066 14.4277 57.6426 14.4277H56.2246ZM55.3574 14.3105C55.0879 14.2168 54.8672 14.0938 54.6953 13.9414C54.5273 13.7852 54.4434 13.6016 54.4434 13.3906C54.4434 13.2617 54.4766 13.1387 54.543 13.0215C54.6133 12.9043 54.7031 12.793 54.8125 12.6875C54.9258 12.582 55.0527 12.4824 55.1934 12.3887C55.334 12.291 55.4766 12.1973 55.6211 12.1074C55.3789 12.002 55.1719 11.877 55 11.7324C54.832 11.5879 54.6934 11.4297 54.584 11.2578C54.4785 11.0859 54.4004 10.9043 54.3496 10.7129C54.3027 10.5215 54.2793 10.3281 54.2793 10.1328C54.2793 9.75781 54.3594 9.41992 54.5195 9.11914C54.6797 8.81445 54.8906 8.55469 55.1523 8.33984C55.418 8.125 55.7188 7.96094 56.0547 7.84766C56.3945 7.73047 56.7441 7.67188 57.1035 7.67188C57.373 7.67188 57.6387 7.70508 57.9004 7.77148C58.1621 7.83789 58.3828 7.92773 58.5625 8.04102C58.6875 7.9707 58.8535 7.91211 59.0605 7.86523C59.2676 7.81445 59.4824 7.78906 59.7051 7.78906H60.7012L60.4492 8.79688H59.1895C59.2129 8.82031 59.248 8.86719 59.2949 8.9375C59.3418 9.00391 59.3867 9.08789 59.4297 9.18945C59.4727 9.29102 59.5098 9.4082 59.541 9.54102C59.5762 9.66992 59.5938 9.80859 59.5938 9.95703C59.5938 10.2852 59.5156 10.5918 59.3594 10.877C59.207 11.1582 59.002 11.4043 58.7441 11.6152C58.4902 11.8223 58.1973 11.9863 57.8652 12.1074C57.5371 12.2246 57.1992 12.2832 56.8516 12.2832C56.7773 12.2832 56.7031 12.2812 56.6289 12.2773C56.5547 12.2695 56.4785 12.2617 56.4004 12.2539C56.3379 12.293 56.2715 12.3379 56.2012 12.3887C56.1309 12.4355 56.0664 12.4883 56.0078 12.5469C55.9492 12.6016 55.9004 12.6621 55.8613 12.7285C55.8223 12.7949 55.8027 12.8633 55.8027 12.9336C55.8027 13.0547 55.8574 13.1523 55.9668 13.2266C56.0762 13.3008 56.2266 13.3379 56.418 13.3379H58C58.2812 13.3379 58.5508 13.373 58.8086 13.4434C59.0703 13.5098 59.2988 13.6094 59.4941 13.7422C59.6934 13.8711 59.8516 14.0293 59.9688 14.2168C60.0898 14.4082 60.1504 14.625 60.1504 14.8672C60.1504 15.1367 60.0723 15.4121 59.916 15.6934C59.7637 15.9785 59.5371 16.2363 59.2363 16.4668C58.9355 16.7012 58.5645 16.8906 58.123 17.0352C57.6816 17.1836 57.1738 17.2578 56.5996 17.2578C56.2324 17.2578 55.8906 17.2246 55.5742 17.1582C55.2617 17.0957 54.9883 17.0039 54.7539 16.8828C54.5234 16.7656 54.3418 16.6211 54.209 16.4492C54.0801 16.2812 54.0156 16.0918 54.0156 15.8809C54.0156 15.6934 54.0645 15.5195 54.1621 15.3594C54.2598 15.1992 54.3789 15.0527 54.5195 14.9199C54.6602 14.7871 54.8066 14.6699 54.959 14.5684C55.1113 14.4668 55.2441 14.3809 55.3574 14.3105ZM55.5859 9.94531C55.5859 10.1445 55.6191 10.3301 55.6855 10.502C55.7559 10.6699 55.8516 10.8184 55.9727 10.9473C56.0977 11.0723 56.2422 11.1699 56.4062 11.2402C56.5742 11.3105 56.7578 11.3457 56.957 11.3457C57.1445 11.3457 57.3203 11.3145 57.4844 11.252C57.6484 11.1855 57.791 11.0938 57.9121 10.9766C58.0332 10.8594 58.1289 10.7188 58.1992 10.5547C58.2695 10.3867 58.3047 10.2012 58.3047 9.99805C58.3047 9.79883 58.2695 9.61523 58.1992 9.44727C58.1328 9.2793 58.0371 9.13477 57.9121 9.01367C57.791 8.88867 57.6465 8.79102 57.4785 8.7207C57.3105 8.65039 57.127 8.61523 56.9277 8.61523C56.7402 8.61523 56.5645 8.64648 56.4004 8.70898C56.2402 8.77148 56.0996 8.86133 55.9785 8.97852C55.8574 9.0918 55.7617 9.23047 55.6914 9.39453C55.6211 9.55859 55.5859 9.74219 55.5859 9.94531Z" fill="white"/>
</svg>
