<svg width="23" height="22" viewBox="0 0 23 22" fill="none" xmlns="http://www.w3.org/2000/svg">
<mask id="mask0_336_382" style="mask-type:luminance" maskUnits="userSpaceOnUse" x="0" y="0" width="23" height="22">
<path d="M23 0H0.909058V22H23V0Z" fill="white"/>
</mask>
<g mask="url(#mask0_336_382)">
<path d="M22.5582 11.2498C22.5582 10.4698 22.4879 9.71982 22.3574 8.99976H11.9545V13.2548H17.899C17.643 14.6298 16.8648 15.7948 15.695 16.5748V19.3348H19.2647C21.3532 17.4198 22.5582 14.5997 22.5582 11.2498Z" fill="#4285F4"/>
<path d="M11.9545 21.9998C14.9368 21.9998 17.437 21.0148 19.2645 19.3349L15.6948 16.5749C14.7058 17.2349 13.4406 17.6248 11.9545 17.6248C9.0776 17.6248 6.64263 15.6898 5.77401 13.0898H2.08383V15.9398C3.90136 19.5349 7.63672 21.9998 11.9545 21.9998Z" fill="#34A853"/>
<path d="M5.77403 13.0902C5.55312 12.4302 5.42765 11.7252 5.42765 11.0002C5.42765 10.2752 5.55312 9.57017 5.77403 8.91017V6.06018H2.08385C1.33585 7.54518 0.909058 9.22521 0.909058 11.0002C0.909058 12.7751 1.33585 14.4552 2.08385 15.9402L5.77403 13.0902Z" fill="#FBBC04"/>
<path d="M11.9545 4.37503C13.5761 4.37503 15.0321 4.92998 16.1769 6.01997L19.3449 2.86495C17.4321 1.08999 14.9317 0 11.9545 0C7.63672 0 3.90136 2.46499 2.08383 6.06001L5.77401 8.91C6.64263 6.31004 9.0776 4.37503 11.9545 4.37503Z" fill="#E94235"/>
</g>
</svg>
