<svg width="20" height="20" viewBox="0 0 20 20" fill="none" xmlns="http://www.w3.org/2000/svg">
<path d="M9.90159 19.7999C4.43382 19.7999 0.00158691 15.3676 0.00158691 9.89988C0.00158691 4.43211 4.43382 -0.00012207 9.90159 -0.00012207C15.3694 -0.00012207 19.8016 4.43211 19.8016 9.89988C19.8016 15.3676 15.3694 19.7999 9.90159 19.7999ZM9.90159 17.8199C12.0021 17.8199 14.0166 16.9855 15.5019 15.5002C16.9872 14.0149 17.8216 12.0004 17.8216 9.89988C17.8216 7.79936 16.9872 5.78488 15.5019 4.29959C14.0166 2.8143 12.0021 1.97988 9.90159 1.97988C7.80107 1.97988 5.78659 2.8143 4.3013 4.29959C2.81601 5.78488 1.98159 7.79936 1.98159 9.89988C1.98159 12.0004 2.81601 14.0149 4.3013 15.5002C5.78659 16.9855 7.80107 17.8199 9.90159 17.8199ZM8.72188 12.8699H10.9545L10.8916 14.8499H8.91159L8.72188 12.8699ZM10.7266 10.7249L10.9545 11.8799H8.72188L8.91159 10.3949C8.91159 10.1323 9.01589 9.8805 9.20155 9.69484C9.38721 9.50918 9.63902 9.40488 9.90159 9.40488C10.1828 9.40486 10.4583 9.32498 10.6959 9.17453C10.9335 9.02409 11.1235 8.80926 11.2438 8.55505C11.3641 8.30083 11.4097 8.01769 11.3754 7.73855C11.341 7.45942 11.2281 7.19578 11.0498 6.9783C10.8715 6.76082 10.6351 6.59846 10.3681 6.51009C10.1011 6.42172 9.8145 6.41099 9.54165 6.47914C9.26879 6.54729 9.0209 6.69152 8.82681 6.89505C8.63272 7.09858 8.30671 7.5616 8.25159 7.83738L6.60159 7.42488C6.722 6.82304 6.9014 6.07885 7.3087 5.6197C7.716 5.16055 8.23791 4.81779 8.82109 4.62646C9.40427 4.43514 10.0278 4.4021 10.6279 4.53073C11.2281 4.65936 11.7833 4.94504 12.2368 5.35857C12.6904 5.77211 13.0259 6.29866 13.2093 6.8844C13.3926 7.47014 13.3384 8.06406 13.2016 8.66238C13.0648 9.2607 12.7963 9.45203 12.3766 9.89988C11.9569 10.3477 11.3148 10.5496 10.7266 10.7249Z" fill="white"/>
</svg>
