<svg width="21" height="18" viewBox="0 0 21 18" fill="none" xmlns="http://www.w3.org/2000/svg">
<path d="M0.00158691 11.2499V8.99988H8.05159V11.2499H0.00158691ZM0.00158691 6.74988V4.49988H12.6516V6.74988H0.00158691ZM0.00158691 2.24988V-0.00012207H12.6516V2.24988H0.00158691ZM10.3516 17.9999V14.5405L16.7053 8.353C16.8778 8.18425 17.0695 8.06238 17.2803 7.98738C17.4912 7.91238 17.702 7.87488 17.9128 7.87488C18.1428 7.87488 18.3633 7.91707 18.5741 8.00144C18.7849 8.08582 18.9766 8.21238 19.1491 8.38113L20.2128 9.42175C20.3662 9.5905 20.486 9.778 20.5722 9.98425C20.6585 10.1905 20.7016 10.3968 20.7016 10.603C20.7016 10.8093 20.6633 11.0202 20.5866 11.2358C20.5099 11.4514 20.3853 11.6436 20.2128 11.8124L13.8878 17.9999H10.3516ZM12.0766 16.3124H13.1691L16.6478 12.8811L16.1303 12.3468L15.5841 11.8405L12.0766 15.2436V16.3124ZM16.1303 12.3468L15.5841 11.8405L16.6478 12.8811L16.1303 12.3468Z" fill="white"/>
</svg>
