<svg width="15" height="15" viewBox="0 0 15 15" fill="none" xmlns="http://www.w3.org/2000/svg">
<path d="M14.4011 10.8023V12.9743C14.402 13.176 14.3607 13.3756 14.2799 13.5603C14.1991 13.7451 14.0806 13.9109 13.932 14.0473C13.7834 14.1836 13.608 14.2874 13.417 14.352C13.226 14.4166 13.0236 14.4406 12.8228 14.4224C10.5948 14.1803 8.4547 13.419 6.5744 12.1996C4.82502 11.088 3.34186 9.60485 2.23023 7.85547C1.00661 5.96663 0.245121 3.81611 0.00746364 1.57815C-0.0106295 1.37793 0.0131653 1.17614 0.0773326 0.985619C0.1415 0.795102 0.244634 0.620032 0.380169 0.471557C0.515703 0.323082 0.680668 0.204455 0.864561 0.123228C1.04845 0.0420009 1.24725 -4.56613e-05 1.44828 -0.00023498H3.62036C3.97174 -0.00369326 4.31238 0.120735 4.5788 0.349856C4.84522 0.578978 5.01924 0.897159 5.06842 1.24509C5.1601 1.94021 5.33012 2.62272 5.57524 3.27961C5.67265 3.53876 5.69374 3.8204 5.63599 4.09116C5.57824 4.36192 5.44409 4.61046 5.24943 4.80731L4.32991 5.72683C5.3606 7.53946 6.86144 9.0403 8.67408 10.071L9.59359 9.15148C9.79045 8.95682 10.039 8.82266 10.3097 8.76492C10.5805 8.70717 10.8621 8.72825 11.1213 8.82567C11.7782 9.07079 12.4607 9.24081 13.1558 9.33249C13.5075 9.3821 13.8287 9.55926 14.0583 9.83025C14.2879 10.1012 14.41 10.4472 14.4011 10.8023Z" fill="#D9D9D9"/>
</svg>
