<svg width="20" height="20" viewBox="0 0 20 20" fill="none" xmlns="http://www.w3.org/2000/svg">
<path d="M11.1391 8.38826H9.07659L9.42034 14.5758H10.7953L11.1391 8.38826Z" fill="white"/>
<path d="M11.1391 5.98174C11.1391 6.55128 10.6774 7.01299 10.1078 7.01299C9.53829 7.01299 9.07659 6.55128 9.07659 5.98174C9.07659 5.41219 9.53829 4.95049 10.1078 4.95049C10.6774 4.95049 11.1391 5.41219 11.1391 5.98174Z" fill="white"/>
<path d="M19.8016 9.90049C19.8016 15.3681 15.3692 19.8005 9.90159 19.8005C4.43397 19.8005 0.00158691 15.3681 0.00158691 9.90049C0.00158691 4.43287 4.43397 0.000488281 9.90159 0.000488281C15.3692 0.000488281 19.8016 4.43287 19.8016 9.90049ZM1.98159 9.90049C1.98159 14.2746 5.52749 17.8205 9.90159 17.8205C14.2757 17.8205 17.8216 14.2746 17.8216 9.90049C17.8216 5.52639 14.2757 1.98049 9.90159 1.98049C5.52749 1.98049 1.98159 5.52639 1.98159 9.90049Z" fill="white"/>
</svg>
