<svg width="275" height="148" viewBox="0 0 275 148" fill="none" xmlns="http://www.w3.org/2000/svg">
<g opacity="0.85">
<path fill-rule="evenodd" clip-rule="evenodd" d="M134.285 148C134.192 147.212 133.708 143.101 137.429 141.032C137.621 140.925 137.812 140.83 138 140.743V138.862C135.558 140.207 132.59 139.272 131.597 137.042C130.288 134.104 132.049 131.807 133.87 132.247C135.692 132.687 134.612 134.444 133.75 134.112C132.888 133.782 132.632 137.177 135.702 137.507C136.565 137.599 137.358 137.346 138 136.862V133.505C137.894 134.103 137.37 133.991 137.187 133.196C136.827 131.634 136.36 130.964 135.251 130.479C134.452 130.129 134.605 129.52 135.47 129.679C136.738 129.911 137.665 131.394 137.957 132.75C137.976 132.838 137.99 132.92 138 132.997V129.782C135.451 126.96 131.047 126.103 127.736 129.827C124.173 133.834 125.52 139.826 126.999 141.538C128.478 143.251 129.967 143.932 129.838 144.337C129.713 144.729 127.687 147.572 124.093 148H131.101C131.507 147.803 131.935 147.561 132.398 147.259C132.981 146.878 133.405 147.427 133.042 148H134.285ZM138 142.516C136.366 143.577 135.572 145.481 135.824 148H138V145.383C137.951 145.518 137.906 145.662 137.865 145.817C137.624 146.705 137.101 146.58 137.177 145.633C137.231 144.941 137.553 144.319 138 143.82V142.516ZM-4.35349 148C-4.57601 147.577 -4.69063 147.15 -4.69619 146.811C-4.71767 145.502 -4.14038 144.751 -3.28617 144.407C-2.43182 144.062 -2.09763 145.31 -2.75239 145.399C-3.40715 145.487 -4.1245 146.725 -3.08673 147.97C-3.07822 147.98 -3.06936 147.99 -3.06064 148H-0.394688C0.0303345 147.56 0.303585 146.869 0.239191 145.919C0.0587263 143.26 -1.98467 140.981 -4.80891 141.944C-5.24479 142.093 -5.64248 142.284 -6 142.516V143.82C-5.54904 143.316 -4.97014 142.936 -4.40707 142.731C-3.28527 142.323 -3.12103 143.206 -3.98049 143.536C-5.10854 143.969 -5.65705 144.445 -6 145.384V148H-4.35349ZM87.662 148C86.8298 147.355 85.6896 146.786 84.1754 146.674C83.1459 146.598 83.0783 145.789 84.1984 145.598C86.7016 145.171 88.5563 146.757 89.4541 147.918C89.4767 147.947 89.4987 147.974 89.5212 148H90.5938C90.6103 147.707 90.4756 147.283 90.1076 146.787C89.0581 145.372 86.6465 142.861 82.0838 144.256C79.455 145.06 77.7996 146.463 76.717 148H79.7144C79.7164 147.807 79.8325 147.586 80.1245 147.375C80.9887 146.75 81.5711 147.283 81.1179 148H87.662ZM12.3907 148C12.3734 147.794 12.4463 147.605 12.629 147.532C13.4389 147.21 13.4308 144.138 11.0677 144.427C9.37798 144.634 8.42048 146.161 8.68101 148H12.3907ZM-6 140.743C-2.4168 139.111 0.434877 141.204 1.26229 143.794C1.72041 145.229 1.68466 146.817 1.1699 148H6.88623C6.91487 147.867 6.92814 147.744 6.93866 147.625C6.99118 147.032 7.78264 142.691 11.3554 142.8C14.5936 142.898 15.0727 146.487 14.1434 148H17.9686C18.0388 147.82 18.0906 147.644 18.1228 147.478C18.3133 146.498 19.2835 146.803 19.0049 148H20.6619C20.7615 147.641 20.8429 147.262 20.904 146.862C21.8819 140.467 17.507 136.21 15.5751 135.751C14.3229 135.454 14.3199 136.594 14.9403 136.906C15.5608 137.217 17.6302 138.523 18.5534 140.784C18.9817 141.834 18.1294 141.936 17.6805 141.241C16.7108 139.739 14.7479 137.675 13.4877 137.707C12.2276 137.738 10.1301 139.94 7.02869 139.793C3.92729 139.646 0.624505 137.696 0.0672388 132.363C-0.445713 127.453 3.05171 125.355 5.54081 125.243C8.67089 125.103 11.0203 129.374 9.50577 132.045C7.90332 134.872 4.83813 132.973 4.83392 131.07C4.83017 129.347 6.02321 129.251 6.1868 129.775C6.35049 130.298 5.9813 130.614 6.30958 131.199C6.63787 131.785 8.35809 132.159 8.40486 130.231C8.46214 127.877 6.29531 126.335 3.98473 127.473C0.910824 128.987 0.69641 134.459 4.28467 136.759C8.22779 139.286 15.1441 136.127 15.1091 128.421C15.0749 120.871 10.4518 115.939 4.87483 115.515C-1.3266 115.043 -4.81767 118.406 -6 120.192V121.957C-5.71814 121.902 -5.37173 121.679 -5.076 121.296C-2.08782 117.429 2.24773 117.062 3.59836 117.311C4.94914 117.559 4.56318 118.492 3.34739 118.633C-3.17962 119.391 -5.10965 124.662 -5.59941 126.14C-6.08918 127.618 -4.88752 128.139 -4.43436 128.916C-3.98114 129.694 -1.46345 133.043 -3.91064 136.858C-4.5007 137.778 -5.22396 138.434 -6 138.862V140.743ZM122.115 148C120.567 147.844 119.03 147.398 117.371 147.213C115.711 147.029 113.93 147.107 111.892 148H122.115ZM19.6103 144.371C19.5066 143.728 19.2124 143.464 18.9678 143.501C18.7232 143.539 18.5283 143.876 18.623 144.435C18.8127 145.554 19.8188 145.663 19.6103 144.371ZM128.49 134.004C128.927 132.893 128.184 132.334 127.541 133.734C126.588 135.81 126.941 140.162 129.858 142.094C130.714 142.66 131.327 142.279 130.569 141.595C128.195 139.453 127.666 136.094 128.49 134.004ZM0.729459 138.164C0.182057 137.192 -0.530888 138.159 0.207093 139.351C1.50715 141.451 3.68484 141.956 4.90758 142.148C6.13042 142.34 6.18901 141.476 5.16916 141.284C4.14932 141.092 2.01259 140.442 0.729459 138.164ZM7.67373 142.065C8.1257 141.981 8.31472 141.72 8.29249 141.499C8.27026 141.278 8.03681 141.097 7.64369 141.174C6.85754 141.327 6.76525 142.233 7.67373 142.065ZM-6 136.862C-4.35799 135.622 -3.7108 132.86 -5.45145 130.458C-5.6226 130.221 -5.80612 129.996 -6 129.781V132.997C-5.97336 133.202 -5.97617 133.372 -6 133.505V136.862ZM105.12 118.043C103.533 117.893 103.263 119.013 104.849 119.463C106.434 119.913 106.622 121.38 104.786 121.12C102.95 120.86 100.53 120.41 96.3793 122.872C92.2282 125.334 88.1347 125.744 84.8644 122.067C81.4179 118.191 83.1955 111.035 87.7431 110.372C92.2908 109.71 94.5852 113.261 93.8135 116.149C93.0414 119.037 89.6204 120.031 88.4316 117.948C87.2424 115.864 88.6505 114.266 89.5057 114.361C90.361 114.456 90.2358 115.545 89.5373 115.652C88.8382 115.758 88.7446 118.019 90.5803 117.853C92.416 117.687 93.3443 114.278 91.404 112.823C89.4642 111.367 86.2935 111.767 85.2295 115.498C84.0612 119.593 87.6074 122.753 90.7365 122.682C93.8656 122.611 97.172 120.99 99.0392 114.776C100.916 108.526 97.2661 102.442 90.9033 100.429C89.1262 99.8674 88.7131 101.258 90.2779 101.708C91.8422 102.157 95.4094 104.04 96.536 107.105C96.9992 108.367 96.0633 108.723 95.472 107.413C94.3769 104.987 90.9038 103.081 89.5057 102.915C88.1082 102.75 87.9204 103.554 87.1693 104.502C86.4182 105.448 82.6482 108.908 78.0219 106.774C75.2373 105.489 74.2984 102.773 70.7938 101.684C69.3116 101.223 69.4619 100.099 69.5214 99.506C70.0012 94.7479 73.1843 91.169 75.6649 90.4513C77.097 90.0365 77.4345 91.0531 76.2909 91.6464C74.0165 92.8266 72.2439 95.2332 71.6701 98.1097C71.272 100.105 72.5859 100.477 73.0156 98.8553C73.7246 96.1805 76.4236 91.9924 80.7028 93.0432C83.7919 93.8018 84.4563 97.7478 83.1559 99.8986C82.2291 101.431 80.2316 101.861 79.0269 100.777C77.8131 99.6833 79.0609 98.1274 79.9622 99.6009C80.3158 100.179 81.2917 99.8833 81.7714 99.0212C82.3452 97.9904 82.2987 96.2419 80.8485 95.4583C78.2202 94.0376 74.8202 96.6652 75.9258 101.661C77.0314 106.656 85.8764 107.389 87.1277 99.0803C88.3796 90.7707 83.3177 84.937 75.9539 84.1556C68.4208 83.3561 63.6894 90.3871 62.742 93.1619C61.9403 95.5077 63.4245 95.1235 64.2858 93.4932C65.9477 90.3451 69.0002 86.9832 72.3796 86.344C74.2534 85.9894 74.348 87.4987 72.6505 88.001C70.2515 88.7113 66.9041 91.3253 64.9533 96.6419C64.454 98.0023 64.6768 99.3537 64.8646 100.348C65.0524 101.342 65.4365 102.345 66.5451 102.23C69.7653 101.894 73.1307 104.691 74.0275 106.277C74.9244 107.863 74.1527 108.763 72.7131 107.105C71.274 105.448 68.3117 104.241 66.81 104.217C65.3078 104.194 64.9112 105.59 66.7469 105.756C68.5831 105.922 69.4383 106.632 69.8554 107.034C70.2725 107.437 70.1474 108.857 68.9376 108.289C67.7273 107.721 62.5958 107.082 61.365 107.745C60.1342 108.408 59.8838 106.514 61.4486 105.969C63.0129 105.425 63.5347 104.525 63.2422 102.3C62.9503 100.074 58.966 91.0548 50.1215 92.9966C41.2765 94.9377 41.4024 108.431 46.8673 110.704C52.3323 112.977 55.5455 107.91 54.3768 104.596C53.209 101.282 50.4555 102.987 50.5171 104.573C50.5802 106.159 51.8315 106.017 52.1029 105.851C52.3743 105.685 52.9587 107.318 51.1435 107.224C49.3284 107.129 47.8267 103.98 50.4134 101.613C53.0007 99.2457 56.4212 102.134 56.3371 105.945C56.2545 109.757 54.1895 113.569 48.6824 113.332C43.1742 113.095 40.5046 113.9 37.2506 118.351C33.9964 122.801 28.4476 123.748 25.2342 122.091C22.0221 120.434 22.1479 122.967 24.5042 124.647C26.8619 126.328 30.8669 127.843 34.9138 126.139C38.9608 124.435 40.025 122.588 43.3839 122.683C46.7416 122.777 47.8267 123.464 48.39 123.819C48.9538 124.174 49.9758 123.251 48.411 122.02C46.8462 120.789 43.3629 120.126 41.0891 121.002C38.8154 121.878 39.4195 120.055 40.9423 119.416C42.4652 118.777 46.4702 118.54 48.8487 119.842C51.2276 121.144 52.0398 120.493 52.7083 118.93C53.3753 117.368 55.4724 111.201 62.2308 111.012C68.9897 110.822 72.7967 116.67 72.4628 121.215C72.1293 125.76 70.0011 128.791 66.142 129.099C62.2828 129.406 60.1137 126.186 60.8227 122.565C61.5322 118.942 65.099 118.493 66.476 120.292C67.853 122.091 67.3523 124.269 66.497 124.056C65.6418 123.843 65.6312 123.05 65.7669 122.565C65.9021 122.079 65.0364 120.682 63.6809 121.345C62.3249 122.008 61.8347 126.163 64.5467 126.991C67.2581 127.82 70.5545 126.139 70.0537 120.41C69.553 114.681 64.3659 111.769 58.8308 114.255C53.522 116.639 51.6523 129.641 59.8317 134.283C67.9927 138.914 74.3715 133.999 76.6664 129.43C77.398 127.973 76.3329 127.749 75.6649 128.933C74.9975 130.116 73.0576 132.223 72.2229 132.555C71.3887 132.886 70.8879 132.318 72.0562 131.111C73.2244 129.903 75.7901 127.039 76.5828 123.583C77.3759 120.126 76.8957 117.546 76.6664 116.646C76.4371 115.746 77.8346 115.462 78.2517 117.261C78.5887 118.714 78.5311 120.397 78.5406 121.192C78.5532 122.284 79.7564 123.228 80.442 123.819C82.0483 125.204 83.4879 125.595 84.239 125.903C84.9896 126.21 84.7828 127.123 83.4043 126.849C81.4955 126.47 79.3994 125.169 78.6273 124.269C77.8557 123.369 77.2222 124.848 78.5437 126.045C80.1916 127.536 86.4292 130.708 92.2282 129.525C98.0277 128.341 100.74 124.553 105.579 124.743C110.419 124.932 113.172 126.116 115.092 127.157C117.011 128.199 117.887 126.305 115.717 124.08C113.548 121.854 109.542 118.461 105.12 118.043ZM8.52673 136.113C9.081 136.01 9.31278 135.69 9.28554 135.419C9.2583 135.148 8.97199 134.926 8.48983 135.02C7.52552 135.209 7.41255 136.319 8.52673 136.113ZM11.496 123.855C10.8312 122.729 11.5537 121.956 12.4927 123.356C13.8837 125.429 14.5185 131.224 11.6374 133.969C10.7928 134.774 10.001 134.426 10.7751 133.574C13.2684 130.829 12.7475 125.973 11.496 123.855ZM66.7033 132.9C66.2456 133.014 66.0889 133.424 66.1941 133.747C66.2992 134.071 66.6663 134.31 67.2556 134.083C68.4339 133.629 67.6797 132.655 66.7033 132.9ZM56.1814 122.881C56.2114 121.401 57.298 121.688 57.278 122.852C57.2114 127.116 58.616 130.514 63.2733 132.414C64.3989 132.872 63.8657 133.782 62.8617 133.487C59.5223 132.508 56.0412 129.764 56.1814 122.881ZM129.303 130.492C128.794 130.944 128.717 131.413 128.877 131.669C129.037 131.926 129.434 131.969 129.874 131.572C130.755 130.775 130.326 129.583 129.303 130.492ZM86.8023 126.617C86.4362 126.619 86.2575 126.902 86.291 127.168C86.3241 127.435 86.5694 127.685 87.0516 127.622C88.016 127.497 87.5829 126.612 86.8023 126.617ZM-3.14452 126.759C-3.50229 127.76 -4.54442 127.238 -3.99857 125.824C-3.45272 124.41 -2.0418 122.953 -0.833731 122.232C-0.00666952 121.738 0.442439 122.459 -0.453574 123.101C-1.64367 123.952 -2.49226 124.933 -3.14452 126.759ZM101.074 122.706C101.925 122.618 102.514 123.757 101.332 123.838C99.62 123.954 95.8866 127.537 92.5837 127.22C91.7004 127.136 91.3054 126.29 92.8206 126.219C96.3377 126.054 98.3697 122.983 101.074 122.706ZM137.384 124.762C137.603 123.889 137.379 123.356 137.055 123.232C136.73 123.108 136.305 123.392 136.121 124.154C135.751 125.678 136.944 126.515 137.384 124.762ZM37.5205 122.965C37.9032 122.56 37.8488 122.066 37.5857 121.823C37.3226 121.58 36.8508 121.588 36.3987 122.185C35.4944 123.379 36.7054 123.83 37.5205 122.965ZM138 120.192C137.917 120.318 137.844 120.437 137.783 120.546C137.193 121.604 137.491 122.056 138 121.957V120.192ZM108.302 120.813C107.941 120.75 107.725 120.997 107.721 121.266C107.717 121.535 107.924 121.826 108.409 121.85C109.379 121.898 109.073 120.948 108.302 120.813ZM2.00693 120.501C1.45242 120.601 1.21968 120.921 1.24617 121.192C1.27266 121.463 1.55837 121.686 2.04078 121.594C3.00559 121.409 3.12171 120.299 2.00693 120.501ZM9.7676 121.127C10.2384 121.474 10.5999 121.415 10.7405 121.193C10.881 120.971 10.8008 120.589 10.3881 120.291C9.56285 119.694 8.82087 120.429 9.7676 121.127ZM81.9842 119.313C81.8034 118.952 81.499 118.914 81.3102 119.077C81.1219 119.24 81.0498 119.606 81.3342 120.052C81.9026 120.945 82.3698 120.083 81.9842 119.313ZM97.3703 114.664C97.4679 113.798 96.5921 113.674 96.4734 114.617C96.2546 116.357 95.2937 118.324 93.8035 119.292C92.9548 119.844 93.8901 120.345 94.6107 119.838C95.4344 119.258 97.0142 117.828 97.3703 114.664ZM56.8379 118.809C56.5895 119.26 56.7377 119.673 57.0151 119.814C57.2925 119.956 57.6991 119.825 57.9685 119.188C58.5073 117.916 57.3661 117.845 56.8379 118.809ZM100.982 117.759C101.813 117.782 102.132 118.139 102.018 118.457C101.904 118.776 101.356 119.056 100.454 118.924C98.6511 118.663 99.3997 117.717 100.982 117.759ZM50.82 116.593C51.6022 116.985 51.2997 118.262 50.1841 117.812C49.0675 117.363 47.8582 116.866 45.5213 116.866C44.6355 116.866 44.7076 115.859 45.6785 115.741C46.6484 115.623 48.8176 115.589 50.82 116.593ZM84.0072 108.723C84.9666 108.194 85.1233 109.117 84.4168 109.63C83.1124 110.577 81.3177 112.882 81.6903 116.834C81.7944 117.938 81.0138 117.816 80.847 116.872C80.2927 113.733 81.5406 110.084 84.0072 108.723ZM76.5332 110.939C76.2773 110.266 75.7496 110.131 75.391 110.377C75.0325 110.622 74.8437 111.247 75.2669 112.092C76.1121 113.782 77.078 112.374 76.5332 110.939ZM97.5896 110.805C97.5745 110.39 97.3187 110.198 97.0853 110.245C96.852 110.293 96.6402 110.58 96.7133 111.125C96.8595 112.214 97.6221 111.69 97.5896 110.805ZM93.6263 107.438C94.0739 108.088 93.5742 108.615 93.0735 108.095C92.6163 107.619 91.384 106.239 89.2518 106.06C87.8458 105.942 88.1973 104.484 89.4126 104.703C90.4471 104.89 92.1947 105.356 93.6263 107.438ZM0.11596 76.9296C0.0133595 76.2426 1.15258 76.1869 1.12394 77.191C1.09519 78.1946 -0.151131 80.0852 -1.87711 79.3317C-3.60294 78.5781 -3.98915 76.4938 -3.51055 74.9788C-3.03195 73.4638 -1.10533 71.0123 2.19776 72.658C5.501 74.3031 6.52375 78.9066 3.22146 83.1265C0.705323 86.3417 -3.45687 85.5853 -6 84.084V85.9297C-5.75083 86.2297 -5.75754 86.5985 -6 86.6912V91.8498C-4.86188 94.0172 -3.29629 96.0924 -2.85569 96.5629C-2.27419 97.184 -2.80627 97.883 -3.72797 97.134C-4.64967 96.3851 -5.37033 95.1593 -5.77777 94.6451C-5.84532 94.5598 -5.92204 94.5002 -6 94.4655V96.3925C-4.79118 98.4888 -0.616863 104.442 5.1925 105.647C11.5951 106.974 16.9258 104.289 18.2406 97.7256C19.5553 91.1611 14.542 88.5249 11.0303 88.4965C7.51871 88.4681 4.82306 92.7369 5.85612 96.0441C6.88938 99.3514 10.2138 99.631 11.0823 98.6746C11.9508 97.7182 12.1859 96.2032 11.7035 95.6259C11.2212 95.0491 12.8873 94.2763 13.4874 96.4152C14.0875 98.5541 12.1636 101.535 8.88376 100.832C5.60385 100.128 3.26442 96.7766 3.8649 93.3148C4.46553 89.8529 7.36193 86.2013 11.6557 86.6503C15.9493 87.0997 17.7181 89.7603 19.3981 90.673C21.0782 91.5856 24.4328 91.535 25.891 90.6002C27.3493 89.666 27.3172 91.1014 26.3277 91.7452C25.3383 92.3891 22.837 93.3557 20.8274 92.9295C18.8177 92.5044 19.466 94.1961 21.1132 94.5013C22.7603 94.8064 25.8334 94.7957 29.5177 91.2531C33.2021 87.71 36.6512 88.688 38.2468 89.8723C39.8424 91.056 40.9367 89.7365 39.0605 87.6311C37.1842 85.5251 33.5414 83.884 28.5417 85.5291C23.5419 87.1742 18.7756 86.2218 15.1392 82.082C11.5029 77.9423 9.57337 68.8069 2.60275 67.3181C-1.17368 66.5117 -4.14854 67.996 -6 70.2532V72.9933C-4.92563 70.8049 -2.80412 69.1587 -0.963371 68.9734C0.136941 68.862 0.570176 69.8389 -0.537747 69.8815C-2.60473 69.9611 -6.35677 73.2922 -5.49681 77.4422C-5.3844 77.9843 -5.69846 78.4969 -6 78.3753V81.7615C-4.81371 83.0339 -3.24577 83.6464 -1.5606 83.5049C1.65862 83.235 3.60057 80.1374 3.53938 77.9377C3.47819 75.738 1.87278 74.0713 0.287261 73.7786C-1.29836 73.486 -2.37734 75.2533 -2.06619 76.866C-1.75508 78.4781 0.285959 78.0673 0.11596 76.9296ZM-0.489377 98.9587C-0.92171 98.4445 -1.75914 99.0423 -0.943342 99.9736C2.65568 104.082 7.6525 104.503 9.16422 104.18C10.0634 103.988 9.81382 103.133 8.64771 103.14C7.4816 103.147 2.65438 102.694 -0.489377 98.9587ZM11.8664 102.488C11.3828 102.667 11.2281 103.005 11.309 103.251C11.3898 103.497 11.706 103.652 12.1641 103.466C13.08 103.095 13.1248 102.023 11.8664 102.488ZM61.2929 102.04C61.1126 101.599 60.7601 101.521 60.5263 101.691C60.2924 101.862 60.1773 102.281 60.4717 102.833C61.0611 103.936 61.6785 102.981 61.2929 102.04ZM60.0265 99.0889C60.8302 100.254 59.8813 101.127 59.0381 99.9878C56.6215 96.7215 52.4294 94.7258 48.9839 97.2466C47.9789 97.9825 47.8517 96.8482 48.6734 96.1305C51.111 94.0007 56.3567 93.7705 60.0265 99.0889ZM47.1857 99.5156C47.371 99.0769 47.2002 98.7189 46.9354 98.6223C46.671 98.5257 46.3129 98.6911 46.1242 99.3003C45.7481 100.517 46.7911 100.452 47.1857 99.5156ZM4.12979 98.9235C3.80977 98.5359 3.50162 98.5212 3.3523 98.6933C3.20293 98.8661 3.2124 99.2252 3.52746 99.5861C4.15768 100.308 4.96236 99.9322 4.12979 98.9235ZM138 84.084C137.206 83.6152 136.569 83.0731 136.19 82.5571C134.599 80.388 134.979 79.5749 134.299 78.91C133.618 78.2451 128.677 75.9602 123.62 78.7952C118.563 81.6308 117.848 87.7379 118.317 89.4904C118.685 90.8627 119.403 90.3184 119.371 89.3887C119.329 88.1544 119.495 87.364 119.761 86.7383C120.073 86.007 120.747 86.1189 120.584 87.443C119.999 92.1953 123.598 95.4679 127.158 96.4732C128.026 96.7181 127.702 97.7415 126.878 97.5949C125.819 97.4068 124.771 96.9005 123.506 95.9833C122.566 95.3026 121.992 96.3902 123.167 97.346C124.26 98.2342 126.731 100.317 130.258 99.2917C133.461 98.3598 136.111 95.1486 135.505 91.1338C134.9 87.1185 131.282 86.1314 129.895 86.744C128.508 87.356 127.891 89.2881 128.391 90.4337C128.891 91.5793 130.411 91.1372 130.517 90.245C130.624 89.3535 131.733 89.8512 131.316 91.102C130.9 92.3533 129.445 93.3364 127.681 92.1425C125.918 90.9491 126.208 85.9348 129.769 84.9636C133.33 83.9925 136.159 87.0577 137.09 89.7916C137.316 90.4542 137.636 91.1565 138 91.8498V86.6912C137.864 86.744 137.652 86.7088 137.369 86.5247C136.681 86.0769 137.156 85.2955 137.8 85.7467C137.88 85.8024 137.946 85.8643 138 85.9303V84.084ZM3.1137 90.5815C3.67723 89.6256 2.9056 89.1676 1.99842 90.4797C1.05549 91.8441 0.545589 95.19 1.8823 97.0676C2.55163 98.0075 3.11686 97.2073 2.67456 96.4186C2.01705 95.2457 1.98875 92.4908 3.1137 90.5815ZM8.78061 95.9879C8.51577 95.7049 8.22534 95.7861 8.07527 95.9987C7.9252 96.2112 7.91554 96.555 8.21222 96.7965C8.74866 97.2329 9.43156 96.684 8.78061 95.9879ZM130.689 95.9043C129.922 96.0129 129.973 97.1983 131.193 96.8823C133.443 96.3004 134.097 94.0012 134.075 93.1193C134.056 92.3857 133.421 92.4476 133.313 93.1835C133.141 94.3626 132.378 95.664 130.689 95.9043ZM138 94.4655C137.608 94.291 137.182 94.7587 137.724 95.8799C137.784 96.0043 137.877 96.1782 138 96.3925V94.4655ZM120.081 91.6168C119.897 90.9321 118.954 91.2264 119.178 92.1578C119.402 93.0892 120.37 94.6428 121.238 95.1434C121.93 95.5424 122.274 94.8923 121.684 94.2956C121.039 93.6432 120.318 92.4954 120.081 91.6168ZM8.53159 94.0603C8.4008 94.9036 7.6863 94.6695 7.65541 93.837C7.53273 90.5314 10.9908 89.3353 13.2818 90.6104C14.3267 91.1923 13.8253 91.8981 12.9522 91.506C11.2351 90.7349 8.95897 91.3054 8.53159 94.0603ZM125.016 92.4419C124.746 92.1112 124.777 91.7998 124.937 91.6526C125.096 91.5049 125.385 91.5214 125.633 91.847C126.128 92.4971 125.715 93.3023 125.016 92.4419ZM133.274 90.6752C133.087 90.278 133.186 89.9854 133.373 89.8887C133.561 89.7921 133.837 89.891 134.004 90.2769C134.338 91.0486 133.759 91.7083 133.274 90.6752ZM28.8858 89.071C29.3588 88.775 29.7015 88.8835 29.8112 89.133C29.9208 89.3824 29.7974 89.7734 29.3383 90.0416C28.4201 90.5781 27.6552 89.8405 28.8858 89.071ZM127.701 84.3704C128.65 83.9658 127.982 82.9236 126.621 83.5532C125.206 84.2079 123.184 87.0009 123.799 89.3114C124.184 90.7514 124.86 90.2985 124.771 89.1932C124.656 87.7521 125.412 85.3455 127.701 84.3704ZM23.7458 87.9777C25.1096 87.9857 25.0415 89.1142 23.3099 89.2853C21.7479 89.4393 18.0469 87.8487 16.6204 86.5303C15.194 85.2114 16.131 84.9477 17.1277 85.7183C19.2461 87.3555 21.851 87.9669 23.7458 87.9777ZM-3.74174 86.8565C-4.68798 86.444 -4.81702 87.7936 -3.41161 88.2817C-1.77842 88.8483 1.96242 88.9551 4.72136 85.2376C5.57501 84.0874 4.55021 83.7402 3.92559 84.5937C2.11884 87.0634 -1.45945 87.8521 -3.74174 86.8565ZM14.5461 83.6981C14.9144 84.0885 14.9288 84.4647 14.7654 84.6477C14.6019 84.8301 14.2608 84.8193 13.9181 84.4346C13.2328 83.6658 13.5878 82.6821 14.5461 83.6981ZM121.429 83.4294C121.744 82.9861 122.093 82.9719 122.285 83.1714C122.478 83.3708 122.513 83.7839 122.2 84.1965C121.574 85.021 120.61 84.5829 121.429 83.4294ZM5.7711 81.6354C6.03899 81.066 6.39621 80.9387 6.61914 81.0881C6.84201 81.237 6.93059 81.6615 6.6611 82.1974C6.12191 83.2685 5.07428 83.1151 5.7711 81.6354ZM132.148 79.5976C133.331 80.1096 133.212 81.2961 131.883 80.8307C129.16 79.8783 126.296 80.592 124.651 81.7053C123.727 82.3309 123.25 81.524 123.964 80.8108C125.418 79.3589 128.862 78.1769 132.148 79.5976ZM138 70.2532C136.434 72.1619 135.672 74.6236 135.91 76.7199C136.157 78.8998 136.921 80.604 138 81.7615V78.3753C137.902 78.3355 137.805 78.2281 137.724 78.0315C137.012 76.296 137.254 74.5134 138 72.9927V70.2532ZM110.017 59.7637C109.17 60.216 109.593 61.2406 110.509 60.84C111.424 60.4388 112.548 60.1973 113.52 60.3689C114.492 60.5411 114.439 61.6645 113.212 61.6452C111.985 61.6264 108.947 62.7021 107.534 64.2171C106.121 65.7327 104.734 69.0615 102.75 70.0798C100.768 71.0982 101.943 72.0653 103.293 71.2806C104.643 70.4958 105.136 71.7687 103.291 72.8132C101.445 73.8582 98.0177 74.71 95.149 73.3894C92.2788 72.0687 91.6153 71.2112 91.1772 70.6759C90.7385 70.1406 91.2383 69.1575 92.0745 69.9054C92.9102 70.6526 94.3193 71.6335 95.4239 71.8761C96.528 72.1187 96.7463 71.1061 95.7754 70.7481C94.8045 70.3901 92.3669 69.1564 91.1216 65.3303C89.8753 61.5042 91.7275 57.5912 94.148 56.5169C96.5691 55.4429 100.225 56.7291 100.734 60.6928C101.241 64.6564 97.8905 65.8923 96.5896 65.0292C95.2887 64.1654 94.8205 62.4515 94.9722 61.6338C95.1224 60.8155 96.1184 60.6558 96.2065 61.7389C96.2947 62.8226 97.2591 63.9915 98.561 63.213C99.8629 62.4345 99.8609 58.9869 97.1735 57.9492C94.4855 56.9116 92.1416 59.3557 92.1681 62.3515C92.1937 65.3474 94.0544 69.7298 98.9596 69.5877C103.864 69.4457 106.291 64.5177 105.817 59.3238C105.342 54.1301 101.199 50.8478 99.922 50.6161C98.6456 50.3845 98.7117 51.4486 99.603 51.8826C100.494 52.3164 101.965 53.9247 102.341 54.9933C102.716 56.062 101.955 56.3561 101.125 55.1917C100.297 54.0273 98.3562 51.7566 94.7659 52.5197C91.1757 53.2826 89.7571 55.5211 89.3029 56.3888C88.8488 57.2565 87.9274 56.9139 88.4021 55.4745C88.8778 54.0348 90.1992 52.575 91.6999 51.5522C93.2006 50.5296 92.3249 49.8746 90.8627 50.4984C89.4006 51.1223 86.2389 53.4945 85.6466 57.839C85.0527 62.1833 86.0967 63.5829 85.7968 64.0591C85.4973 64.5353 84.3301 63.6545 82.1344 64.087C79.9402 64.5194 77.2422 66.1105 76.1522 67.3874C75.0636 68.6643 76.0039 69.5957 77.2287 69.1115C78.455 68.6268 82.3823 69.1343 86.0742 72.912C89.7641 76.6898 94.3999 80.654 101.972 76.845C109.543 73.0359 109.523 67.7409 114.216 66.0492C118.91 64.3575 121.178 66.6083 124.755 65.7162C128.332 64.8234 129.215 63.0249 129.606 62.2964C129.998 61.5685 129.294 60.6945 128.005 61.7122C126.717 62.73 123.316 62.8908 121.169 61.6401C118.778 60.2473 114.071 57.6003 110.017 59.7637ZM6.59215 71.8465C5.92457 71.3499 5.21017 71.946 6.21364 72.8529C8.10842 74.5657 9.04324 76.6506 9.41939 77.4473C9.85773 78.3764 10.4238 77.9366 10.0408 76.9228C9.65804 75.9085 8.6417 73.3729 6.59215 71.8465ZM94.788 75.301C93.6628 74.9379 93.2893 76.0499 94.3518 76.3528C95.4129 76.6557 97.1775 76.9785 98.6261 76.5642C99.5439 76.3023 99.233 75.4806 98.3322 75.6385C97.4313 75.7971 95.6212 75.5703 94.788 75.301ZM92.4681 74.4372C92.8892 74.6503 92.9508 75.047 92.8071 75.3038C92.6628 75.5613 92.3133 75.6783 91.9118 75.3334C91.1842 74.7089 91.5046 73.9497 92.4681 74.4372ZM99.0527 72.2676C98.5224 72.271 98.2846 71.971 98.3241 71.6658C98.3637 71.3601 98.6812 71.0493 99.262 71.0288C100.31 70.993 100.267 72.2602 99.0527 72.2676ZM106.118 70.1446C105.804 70.5282 105.495 70.5208 105.347 70.3111C105.2 70.1009 105.215 69.6872 105.55 69.2576C106.154 68.4819 106.835 69.2672 106.118 70.1446ZM2.8715 70.2975C2.31969 70.1423 2.1233 69.7804 2.19581 69.4991C2.26826 69.2172 2.60961 69.0155 3.13323 69.1803C4.18046 69.5104 4.30695 70.7004 2.8715 70.2975ZM89.4596 67.9386C90.1231 68.6603 89.6524 69.3445 88.9885 68.8308C86.9099 67.2232 84.9986 66.4157 83.3953 66.2037C82.5776 66.0952 83.0062 65.2638 83.9396 65.3735C86.3957 65.6628 88.6395 67.047 89.4596 67.9386ZM108.424 67.151C107.631 68.1267 106.802 67.3982 107.569 66.5117C108.336 65.6247 109.692 64.3063 111.119 63.8023C112.024 63.4835 112.136 64.3688 111.294 64.7666C110.453 65.1638 109.013 66.4276 108.424 67.151ZM101.38 66.9635C101.01 67.2113 100.736 67.1124 100.654 66.8805C100.571 66.6487 100.681 66.2844 101.08 66.0009C101.799 65.49 102.225 66.3958 101.38 66.9635ZM102.98 59.2875C102.679 57.9958 103.647 57.7009 103.945 58.8965C104.334 60.4581 104.268 62.7226 103.375 64.391C102.884 65.3087 102.209 64.9081 102.591 63.9694C103.071 62.7925 103.332 60.7934 102.98 59.2875ZM14.2983 57.1701C12.6795 57.9827 12.6601 59.2539 15.1735 58.6766C17.6867 58.0998 22.7042 60.2393 26.3575 61.4963C30.0108 62.7533 33.1114 62.1146 34.5388 61.6162C35.9661 61.1184 35.5648 59.9785 34.0796 60.4882C32.5942 60.9974 30.0866 60.9099 29.3991 60.7064C28.7118 60.5035 28.6972 59.7074 29.637 59.7659C30.5768 59.8245 33.1837 59.7034 35.1621 58.9067C37.1405 58.1106 37.3284 57.5452 37.2651 56.9752C37.2017 56.4054 36.5511 52.078 40.4003 49.9375C44.2494 47.7972 47.363 49.9731 48.2343 52.6997C49.072 55.323 48.2578 58.4646 45.8813 58.6891C43.505 58.9141 42.2939 56.8394 42.2756 55.7165C42.2541 54.4071 42.8313 53.6566 43.6856 53.3122C44.5398 52.9676 44.8743 54.2154 44.2194 54.3039C43.5646 54.3924 42.8472 55.6308 43.885 56.8752C44.9229 58.1197 47.3915 57.4844 47.2108 54.8245C47.0305 52.165 44.987 49.8864 42.1629 50.8496C39.3389 51.8128 38.1146 54.5732 39.07 58.4749C40.0254 62.3765 43.5886 64.1728 47.1557 63.896C49.8051 63.6898 51.3118 62.6839 52.0328 62.1396C52.9472 61.4497 52.6547 60.5638 51.6418 61.1218C50.9157 61.5224 47.8277 62.9442 45.7356 62.5305C44.7637 62.3384 44.9239 61.3315 46.0421 61.4139C47.3935 61.5128 50.2147 60.6854 51.9767 59.2545C53.7383 57.8236 53.858 57.123 53.9106 56.5305C53.9631 55.9378 54.7543 51.5969 58.327 51.705C61.9003 51.813 62.1141 56.1723 60.7831 57.3014C59.6289 58.2811 58.9785 56.6853 59.6009 56.4378C60.4106 56.1155 60.4026 53.0434 58.0391 53.3327C55.3216 53.6654 54.4969 57.4128 57.591 60.3819C60.6354 63.3039 66.8891 62.2197 67.8755 55.7676C68.8535 49.3719 64.4786 45.1154 62.5467 44.6566C61.2944 44.3592 61.2914 45.5 61.9118 45.8109C62.5327 46.1221 64.6017 47.4279 65.5251 49.6898C65.9532 50.739 65.101 50.8411 64.6523 50.1462C63.6824 48.6447 61.7195 46.5804 60.4592 46.6122C59.1993 46.6438 57.1017 48.8452 54.0002 48.6983C50.8992 48.5514 47.5963 46.6013 47.039 41.2679C46.5263 36.3582 50.0234 34.26 52.5125 34.1484C55.6426 34.008 57.9921 38.2793 56.4773 40.9504C54.875 43.7767 51.81 41.8782 51.8055 39.976C51.802 38.2521 52.9947 38.1569 53.1585 38.68C53.3222 39.2029 52.9532 39.5195 53.2812 40.1049C53.6096 40.6901 55.3296 41.0643 55.3767 39.1364C55.4338 36.7822 53.2671 35.2407 50.9562 36.3784C47.8827 37.8919 47.6684 43.3646 51.2562 45.664C55.1995 48.191 62.1156 45.033 62.081 37.3268C62.0465 29.7766 57.4237 24.8447 51.8465 24.4203C45.2058 23.915 41.6724 27.8079 40.7547 29.4515C39.8368 31.0952 41.0658 31.2757 41.8958 30.2015C44.8838 26.3349 49.2197 25.9675 50.5702 26.2159C51.9207 26.4641 51.5351 27.3973 50.3193 27.5384C43.7921 28.2966 41.8621 33.5669 41.3724 35.045C40.8826 36.523 42.0842 37.0443 42.5374 37.8218C42.9906 38.5992 45.5083 41.949 43.0611 45.7631C40.6139 49.5774 35.8777 48.8861 34.5687 45.948C33.2596 43.0099 35.02 40.7125 36.8417 41.1524C38.6633 41.5922 37.5839 43.349 36.7216 43.0179C35.8594 42.6868 35.6036 46.0824 38.6733 46.4116C41.7429 46.7408 43.9414 42.7048 41.5203 39.363C39.0992 36.0213 34.2705 34.7251 30.7072 38.7323C27.1438 42.7396 28.4908 48.7309 29.9702 50.4436C31.4497 52.1563 32.9384 52.8377 32.8094 53.2424C32.6805 53.6471 30.5185 56.6737 26.6926 56.9406C22.8668 57.2071 19.3774 54.6209 14.2983 57.1701ZM116.508 60.7826C115.486 60.6314 115.251 61.731 116.269 61.8748C117.268 62.0163 118.228 62.3953 119.068 62.772C119.713 63.0624 119.944 62.3328 119.347 61.9373C118.599 61.4417 117.451 60.9218 116.508 60.7826ZM108.255 61.9623C107.859 62.2288 107.565 62.1225 107.476 61.8736C107.388 61.6247 107.506 61.2332 107.934 60.9286C108.706 60.3797 109.164 61.3525 108.255 61.9623ZM43.2018 60.6678C42.7689 60.2365 42.3941 60.237 42.2226 60.4382C42.0511 60.6394 42.0828 61.0417 42.4628 61.4133C43.2231 62.1572 44.0722 61.5349 43.2018 60.6678ZM36.8385 59.533C36.2416 59.8137 36.0565 60.2421 36.1502 60.5376C36.2438 60.8337 36.6161 60.9962 37.1342 60.7462C38.1704 60.2461 38.0386 58.9681 36.8385 59.533ZM53.8715 59.2335C53.3623 59.6852 53.2852 60.1541 53.4449 60.4109C53.6046 60.6672 54.0022 60.711 54.4423 60.3126C55.3226 59.5159 54.894 58.3243 53.8715 59.2335ZM87.288 59.3216C87.3481 58.6959 87.7261 58.4697 88.0386 58.5629C88.351 58.6556 88.5984 59.067 88.3971 59.7165C88.0336 60.8917 87.1483 60.7547 87.288 59.3216ZM26.3486 60.3279C26.9035 60.5035 27.241 60.3189 27.3187 60.0529C27.3963 59.787 27.214 59.4403 26.7294 59.2926C25.7601 58.9965 25.2331 59.9751 26.3486 60.3279ZM65.0945 56.3838C65.2897 55.3781 66.3062 55.725 65.9527 57.0002C65.5987 58.2754 64.7429 59.3108 63.441 59.7705C62.1391 60.2302 62.2919 59.3443 63.1882 58.8993C64.2312 58.3822 64.9277 57.2434 65.0945 56.3838ZM35.3694 56.1642C36.1142 55.6784 36.5982 56.7073 35.5179 57.3673C34.4375 58.0271 32.3679 58.4624 31.7147 58.4828C31.0614 58.5033 30.7906 57.8253 31.8699 57.6265C32.9492 57.427 34.0114 57.0497 35.3694 56.1642ZM42.9913 52.4412C43.8507 52.1112 43.6865 51.2285 42.5647 51.6363C41.443 52.0441 40.2581 53.1486 40.1479 54.5387C40.0728 55.4859 40.5957 55.6111 40.8359 54.7219C41.1695 53.4874 41.7017 52.9364 42.9913 52.4412ZM66.5821 53.2761C66.478 52.633 66.1841 52.3696 65.9397 52.4067C65.6948 52.4438 65.5 52.7815 65.5947 53.3409C65.7845 54.4594 66.7904 54.5689 66.5821 53.2761ZM1.28637 47.6169C1.29374 47.1516 0.323514 47.0563 0.421408 48.2499C0.519301 49.4434 2.7007 50.2081 3.97091 48.5037C5.24107 46.7997 5.10542 44.3763 2.99087 43.2971C0.876324 42.218 -1.12606 43.3087 -1.85368 44.9119C-2.52746 46.3963 -4.47632 46.8276 -6 46.9689V44.3369C-5.16703 44.3974 -5.00915 43.6116 -5.91387 43.3043C-5.94282 43.2945 -5.97151 43.2873 -6 43.2822V41.1936C-2.96881 42.3018 0.801965 41.6848 2.77581 40.0597C6.17729 37.2591 6.6938 33.0955 7.04556 32.5588C7.39743 32.0219 9.37267 32.5619 10.7942 33.7066C12.2159 34.8515 12.6388 36.0971 12.7915 36.5971C12.9443 37.0972 13.7236 36.9303 13.3937 35.438C13.0638 33.9455 11.6309 32.2824 10.5088 31.7524C9.38684 31.2223 10.1691 30.2195 11.4103 30.9556C12.6516 31.6918 15.8993 34.6023 14.8469 39.2389C13.7945 43.8754 9.78197 43.9065 8.1279 42.9869C6.47398 42.0675 6.23878 39.5189 7.30094 38.5326C8.36314 37.546 9.40592 38.0185 9.593 39.0513C9.77982 40.0841 9.26361 40.6379 9.5303 40.9455C9.79699 41.2531 10.6988 41.2261 10.9736 39.8088C11.2484 38.3915 10.4475 36.7124 8.34206 36.722C6.23668 36.7318 4.9876 38.7424 5.25128 40.9211C5.51497 43.0998 7.03705 44.0911 7.3116 44.2267C7.58616 44.3621 7.28186 46.428 6.71999 47.4701C6.15816 48.5123 7.08287 48.2346 7.50944 47.5958C7.93607 46.9572 8.21558 45.9516 8.28057 45.2919C8.34562 44.6321 9.38734 44.6134 9.00338 46.1172C8.61937 47.621 6.9686 51.7845 3.4528 51.9508C-0.0631018 52.117 -1.90009 49.3022 -0.865377 46.6021C0.169289 43.9022 2.3276 44.5326 2.95312 45.1796C3.50247 45.7479 3.67182 46.8673 3.02557 47.7054C2.37948 48.5436 1.27431 48.3725 1.28637 47.6169ZM31.4611 42.909C31.8987 41.7983 31.1556 41.239 30.5123 42.6397C29.559 44.7149 29.9123 49.0671 32.8298 50.9987C33.6851 51.5651 34.298 51.1843 33.5402 50.5003C31.1666 48.3581 30.6373 44.9996 31.4611 42.909ZM47.701 47.0695C47.1537 46.0976 46.4411 47.064 47.1787 48.2559C48.4786 50.356 50.6568 50.8612 51.8791 51.0534C53.1024 51.2456 53.161 50.3809 52.141 50.1892C51.121 49.9976 48.9843 49.3474 47.701 47.0695ZM54.6457 50.9702C55.0973 50.8865 55.2866 50.6253 55.2641 50.4042C55.242 50.1831 55.0087 50.002 54.6156 50.0788C53.8295 50.2324 53.7368 51.1383 54.6457 50.9702ZM95.7479 50.7338C95.2446 50.5701 95.0924 50.2115 95.2046 49.9347C95.3167 49.6579 95.6933 49.463 96.2486 49.6266C97.2496 49.922 96.899 51.1088 95.7479 50.7338ZM5.75322 49.0908C5.92116 48.881 6.1824 48.8769 6.33302 48.9922C6.48359 49.1076 6.5236 49.3424 6.24915 49.6104C5.70014 50.1465 5.26035 49.7067 5.75322 49.0908ZM138 46.9689C137.878 46.9802 137.759 46.9898 137.643 46.9978C136.083 47.1057 134.726 46.8539 134.033 46.6542C133.341 46.4545 133.007 47.3639 133.788 47.6751C134.569 47.9861 136.193 48.2801 136.893 48.321C137.593 48.3619 137.762 49.2742 136.457 49.4235C135.152 49.573 131.815 49.4045 127.63 46.7976C123.444 44.1907 120.713 44.0841 117.926 45.1953C115.139 46.3066 111.636 46.7124 109.463 45.6298C107.29 44.5472 108.072 43.2924 110.176 43.84C112.279 44.3876 114.24 43.4405 117.874 40.68C121.507 37.9195 125.784 39.0187 126.788 39.5818C127.791 40.1447 127.95 38.9862 127.28 38.5355C126.611 38.085 126.194 37.198 126.056 35.0929C125.918 32.988 126.582 31.2351 126.953 30.5401C127.323 29.8453 126.655 29.3681 125.931 30.3875C125.206 31.4069 124.742 34.4058 124.973 36.0251C125.204 37.6443 124.189 37.3329 123.826 36.0509C123.463 34.7688 123.398 31.8188 125.021 29.0472C126.644 26.2754 129.792 25.4506 131.745 25.6974C133.698 25.9445 134.398 26.5029 134.558 26.3396C134.691 26.2028 135.555 23.9435 138 22.8123V27.2754C135.396 27.8718 132.697 30.4926 133.544 35.8094C134.002 38.6882 135.808 40.3921 138 41.1937V43.2822C137.382 43.1718 136.892 44.1338 137.829 44.3139C137.889 44.3254 137.946 44.333 138 44.3369V46.9689ZM-4.34437 48.0181C-4.85943 48.0454 -5.03013 48.399 -4.9067 48.7064C-4.78327 49.0138 -4.36576 49.2749 -3.70429 49.1171C-2.27384 48.7761 -2.87407 47.9397 -4.34437 48.0181ZM55.4984 45.0184C56.0527 44.9158 56.2845 44.5954 56.2575 44.3242C56.23 44.053 55.9436 43.831 55.4613 43.9252C54.4974 44.1138 54.3843 45.2246 55.4984 45.0184ZM130.408 43.7283C130.115 43.5264 129.77 43.6364 129.611 43.8548C129.452 44.0731 129.48 44.3998 129.933 44.6312C130.839 45.0941 131.267 44.321 130.408 43.7283ZM121.154 40.832C120.451 41.143 120.386 42.008 121.706 41.8065C125.604 41.2114 127.243 42.6138 128.108 43.2422C129.003 43.8918 129.384 42.693 128.39 41.9316C127.395 41.17 124.184 39.4914 121.154 40.832ZM58.4678 32.7599C57.8028 31.6345 58.5253 30.8617 59.4642 32.2612C60.8552 34.3348 61.4902 40.1301 58.609 42.8745C57.7647 43.6791 56.9726 43.3314 57.7467 42.4795C60.2403 39.7347 59.7191 34.8782 58.4678 32.7599ZM131.647 34.8227C131.712 33.9642 130.722 33.7279 130.624 35.214C130.325 39.7488 134.05 42.9525 135.292 43.1578C136.313 43.3266 136.146 42.4407 135.5 42.1878C134.225 41.6887 131.361 38.659 131.647 34.8227ZM119.433 42.7005C119.738 42.5236 119.836 42.1324 119.756 41.8646C119.675 41.5967 119.416 41.4521 119.004 41.7682C118.181 42.4005 118.536 43.2197 119.433 42.7005ZM40.1582 42.1008C40.3981 43.1416 41.2208 43.0122 40.9289 41.6557C40.6367 40.2988 39.7095 38.8164 38.4411 38.5839C37.5767 38.4253 37.4234 39.0347 38.2222 39.3841C39.3315 39.8693 39.7982 40.5393 40.1582 42.1008ZM32.2746 39.3976C31.7657 39.8496 31.6884 40.3186 31.8482 40.5749C32.0082 40.8312 32.4054 40.875 32.8456 40.4768C33.726 39.6801 33.2976 38.4889 32.2746 39.3976ZM-6 22.8124C-5.52931 22.5946 -5.00039 22.4184 -4.40637 22.3075C-3.38807 22.1172 -3.39028 21.305 -4.52153 21.239C-5.05056 21.2081 -5.54358 21.262 -6 21.3778V19.7053C-5.03358 19.4651 -3.88796 19.413 -2.53242 19.6696C2.12866 20.5527 4.02724 23.5568 5.03767 26.0312C6.04795 28.5057 5.58768 32.2081 5.08719 33.1874C4.58671 34.1668 3.98723 33.7714 4.26809 32.4228C5.15024 28.1877 2.55103 24.9038 1.73118 24.4179C0.911175 23.932 0.51865 24.8513 1.31006 25.7072C2.10152 26.563 3.58755 29.0552 3.08731 31.9028C2.53896 35.0247 0.279099 36.8348 -1.22921 37.3439C-2.06639 37.6265 -1.50036 38.6817 -0.122189 38.2049C1.25598 37.728 2.37777 36.4597 3.02387 35.3629C3.47448 34.5981 4.40625 35.0521 3.69565 36.5368C2.98521 38.0215 -0.304506 41.4828 -4.81396 39.8021C-5.24409 39.6418 -5.63887 39.458 -6 39.2546V37.3855C-5.5213 37.8194 -4.87931 38.1849 -4.14018 38.3751C-2.96751 38.6768 -2.73001 37.6109 -3.64901 37.3424C-4.83154 36.9969 -5.47223 36.5454 -5.94101 36.0534C-5.96044 36.033 -5.98017 36.0142 -6 35.9968V29.292C-4.36365 28.8073 -2.68665 29.5794 -2.30178 30.3137C-1.74216 31.3816 -1.52805 33.1061 -2.80382 33.3898C-4.07979 33.6736 -4.24908 32.5091 -4.02265 31.8986C-3.79617 31.2882 -5.46121 30.8722 -5.29266 33.0853C-5.12412 35.2982 -1.63826 35.7939 -0.678404 33.1956C0.281602 30.5974 -0.953757 27.924 -3.84675 27.2505C-4.49725 27.0992 -5.24464 27.1024 -6 27.2754V22.8124ZM12.9461 38.8419C13.0224 38.4533 13.3388 38.242 13.5934 38.264C13.8479 38.286 14.0407 38.541 13.8699 39.0849C13.5285 40.1726 12.7219 39.9829 12.9461 38.8419ZM138 39.2546C134.454 37.257 134.173 33.3516 135.92 30.852C136.522 29.9917 137.257 29.5121 138 29.2919V35.9968C137.542 35.5941 137.005 35.9738 137.345 36.5824C137.5 36.8593 137.723 37.134 138 37.3856V39.2546ZM129.05 36.927C128.935 36.5605 128.606 36.3987 128.361 36.4544C128.117 36.5101 127.957 36.7835 128.179 37.2875C128.625 38.2956 129.387 38.0026 129.05 36.927ZM43.8272 35.6644C43.4695 36.6659 42.4273 36.143 42.9732 34.729C43.519 33.3151 44.9299 31.8582 46.1382 31.1374C46.9649 30.644 47.4141 31.3645 46.5182 32.0057C45.328 32.8576 44.4798 33.838 43.8272 35.6644ZM8.30461 33.568C7.61705 33.4938 7.66803 34.3206 8.22619 34.393C8.78426 34.4654 9.69404 34.9035 9.99729 35.1799C10.3005 35.4564 10.6146 34.9771 10.2372 34.5304C9.85994 34.0837 8.95566 33.6384 8.30461 33.568ZM130.814 28.4566C131.406 27.8507 130.565 26.969 129.354 28.4245C128.141 29.8798 127.576 33.1259 127.655 34.1514C127.744 35.2979 128.514 35.0642 128.549 34.0312C128.584 32.998 129.157 30.1527 130.814 28.4566ZM40.3551 33.6669C40.574 32.7946 40.3507 32.2619 40.0263 32.1376C39.7021 32.0133 39.2768 32.2976 39.0921 33.0594C38.7227 34.5831 39.915 35.4203 40.3551 33.6669ZM8.17392 30.8669C8.54251 30.9967 8.89317 30.7696 9.01395 30.4819C9.13477 30.1942 9.02582 29.8459 8.47511 29.7334C7.37369 29.5084 7.09193 30.4855 8.17392 30.8669ZM48.9788 29.406C48.424 29.5066 48.1912 29.8261 48.2177 30.0974C48.2443 30.3686 48.5302 30.5917 49.0124 30.4992C49.9773 30.3142 50.0935 29.2038 48.9788 29.406ZM56.7392 30.0327C57.2104 30.3799 57.5714 30.3198 57.7121 30.0983C57.8528 29.8769 57.7727 29.4941 57.3596 29.1958C56.5344 28.5991 55.7928 29.3347 56.7392 30.0327ZM80.6873 24.4934C80.6402 24.0311 81.5976 23.8288 81.6026 25.0275C81.6082 26.2262 79.5026 27.2288 78.092 25.6735C76.6814 24.1182 76.6078 21.6914 78.6193 20.3831C80.6312 19.0748 82.7178 19.9385 83.5795 21.4533C84.4418 22.9684 86.6791 23.0959 88.2414 23.0303C89.8032 22.9649 91.1321 22.564 91.8041 22.2885C92.4761 22.013 92.8867 22.8812 92.1361 23.2773C91.3855 23.6734 89.7946 24.1459 89.1016 24.2642C88.4086 24.3824 88.3185 25.309 89.6299 25.3131C90.9418 25.3173 94.2482 24.7799 98.189 21.7217C102.13 18.6636 104.84 18.2548 107.709 19.052C110.578 19.8492 114.1 19.8648 116.169 18.5467C118.238 17.2286 117.352 16.0664 115.306 16.8444C113.259 17.6225 111.227 16.8972 107.373 14.5524C103.519 12.2077 99.3567 13.7755 98.4063 14.4471C97.4564 15.1185 97.1995 13.983 97.8269 13.4603C98.4543 12.9378 98.7918 12.0089 98.7488 9.89861C98.7052 7.78844 97.8935 6.11747 97.4649 5.46687C97.0363 4.81639 97.6602 4.26751 98.4689 5.20178C99.2775 6.13594 99.9971 9.06923 99.9065 10.7064C99.8163 12.3434 100.8 11.921 101.051 10.6049C101.302 9.28875 101.112 6.34568 99.259 3.76704C97.4058 1.18823 94.2016 0.71629 92.2788 1.17828C90.356 1.64056 89.7075 2.27389 89.5348 2.12904C89.4321 2.04317 88.8748 0.940524 87.6615 0H81.1179C81.0463 0.113538 80.9487 0.231565 80.822 0.350331C80.3743 0.769706 79.7084 0.4687 79.7144 0H76.717C75.9198 1.13112 75.4331 2.33497 75.0971 3.42637C74.3045 6.00098 75.0811 9.63471 75.6634 10.5539C76.2458 11.4732 76.8081 11.0132 76.413 9.70227C75.1707 5.58507 77.4751 2.02885 78.2492 1.45451C79.0234 0.880062 79.4931 1.75143 78.779 2.69099C78.065 3.63038 76.8006 6.27528 77.5432 9.05383C78.3574 12.1 80.7624 13.6512 82.3072 13.9907C83.1644 14.1792 82.6922 15.2921 81.2797 14.9703C79.8671 14.6484 78.6413 13.5105 77.9042 12.4904C77.39 11.7792 76.5017 12.3342 77.3364 13.7331C78.1711 15.132 81.7429 18.2123 86.0862 16.04C90.5698 13.7974 90.7205 9.29841 88.5668 6.7708C86.4132 4.24324 83.235 5.7506 82.7699 6.87536C82.3047 8.00011 82.2401 9.74006 83.534 9.8811C84.8284 10.0222 84.897 8.84443 84.6191 8.26196C84.3412 7.67956 85.962 7.08107 85.9851 9.30228C86.0076 11.5233 82.5811 12.4028 81.4024 9.92333C80.2231 7.44384 81.2226 4.64636 84.0437 3.65561C86.8653 2.66496 91.8557 4.49407 91.3584 11.4412C90.8617 18.3882 82.181 19.5477 78.5552 17.1373C74.9289 14.727 74.0566 10.6405 73.6605 10.1453C73.2639 9.64988 71.3446 10.4062 70.0282 11.703C68.7118 12.9999 68.3983 14.2864 68.2891 14.801C68.18 15.3155 67.3903 15.2358 67.5901 13.7141C67.7899 12.1922 69.0733 10.3783 70.1444 9.72642C71.2154 9.07457 70.3507 8.16315 69.1784 9.03338C68.0062 9.90361 65.0249 13.1599 66.471 17.6578C67.9171 22.1556 71.9135 21.742 73.4802 20.6435C75.047 19.5452 75.0621 16.9827 73.9199 16.1188C72.7782 15.2547 71.7808 15.8405 71.6836 16.889C71.5865 17.9375 72.1478 18.4316 71.9089 18.7672C71.6701 19.1029 70.7703 19.176 70.3747 17.7958C69.9791 16.4158 70.6321 14.656 72.7281 14.4323C74.8242 14.2087 76.2403 16.0713 76.1652 18.2688C76.0906 20.4663 74.661 21.6215 74.3991 21.7869C74.1377 21.952 74.6184 23.9744 75.2669 24.9493C75.9158 25.9242 74.9719 25.7503 74.4922 25.1619C74.0125 24.5735 73.648 23.6037 73.5263 22.9543C73.4051 22.305 72.3666 22.4018 72.8784 23.8558C73.3896 25.3098 75.391 29.2706 78.9042 29.0466C82.4173 28.8224 84.0037 25.8175 82.7418 23.2451C81.4795 20.6726 79.3859 21.5392 78.8191 22.2524C78.3208 22.8788 78.2487 24.0117 78.9643 24.7742C79.6793 25.5368 80.7644 25.244 80.6873 24.4934ZM76.3685 26.4552C76.1837 26.2649 75.9233 26.2898 75.7831 26.4213C75.6434 26.5528 75.6234 26.7909 75.9198 27.0272C76.5122 27.4999 76.9123 27.0135 76.3685 26.4552ZM86.3256 24.2687C86.8408 24.2389 87.0411 24.5719 86.9445 24.8915C86.8483 25.2111 86.4553 25.5172 85.7833 25.4335C84.3301 25.2526 84.8559 24.3536 86.3256 24.2687ZM138 21.3778C136.276 21.8151 135.075 23.1383 134.448 24.1301C133.688 25.3296 132.777 24.6032 133.7 23.0777C134.354 21.996 135.644 20.2908 138 19.7052V21.3778ZM-0.924364 23.6041C-0.584666 23.8636 -0.167355 23.7541 0.0326881 23.5035C0.232681 23.2529 0.215406 22.8613 -0.31407 22.5564C-1.37297 21.9466 -1.92172 22.8425 -0.924364 23.6041ZM87.4823 19.4036C87.7992 19.2564 88.1252 19.4264 88.2514 19.6703C88.3781 19.9142 88.3055 20.2318 87.8258 20.3798C86.8669 20.6759 86.5509 19.8362 87.4823 19.4036ZM95.161 18.9749C95.4349 18.7415 95.7879 18.8128 95.9647 19.0125C96.1409 19.2122 96.1414 19.5404 95.7103 19.821C94.8485 20.382 94.3558 19.66 95.161 18.9749ZM93.1606 10.2492C93.0229 9.40195 93.9873 9.05707 94.2126 10.5252C94.9006 15.0052 91.4686 18.6064 90.2503 18.9482C89.2483 19.2294 89.3395 18.3291 89.9604 18.0059C91.1867 17.3678 93.776 14.0354 93.1606 10.2492ZM104.121 15.0671C104.848 15.2988 104.986 16.1525 103.655 16.0981C99.7247 15.9378 98.215 17.5149 97.4078 18.2364C96.5736 18.9818 96.0904 17.8312 97.0142 16.9631C97.9386 16.0951 100.991 14.0686 104.121 15.0671ZM68.3282 17.0521C68.219 16.6738 67.8861 16.4986 67.6347 16.5487C67.3833 16.5987 67.2131 16.8739 67.4299 17.3963C67.8635 18.4409 68.6497 18.1628 68.3282 17.0521ZM105.995 16.7359C105.676 16.5937 105.544 16.2154 105.601 15.9399C105.658 15.6644 105.904 15.4917 106.341 15.7608C107.215 16.2988 106.932 17.1534 105.995 16.7359ZM84.7152 13.7212C83.8239 14.0901 84.1519 15.1247 85.2931 14.6944C86.4292 14.2661 87.2865 13.4295 87.6415 12.6318C87.9404 11.9606 87.31 11.6429 86.8854 12.1844C86.4613 12.7259 85.8624 13.2463 84.7152 13.7212ZM72.4943 11.2892C73.1718 11.1392 73.1923 11.9676 72.643 12.1016C72.0942 12.2355 71.2264 12.7722 70.948 13.0809C70.6701 13.3897 70.3161 12.9474 70.6536 12.4612C70.9906 11.9747 71.8524 11.4314 72.4943 11.2892ZM95.9271 12.0556C96.0103 11.6782 96.3237 11.4806 96.5716 11.509C96.8194 11.5373 97.0027 11.7917 96.8245 12.318C96.4674 13.3706 95.6843 13.1634 95.9271 12.0556ZM93.443 3.82108C92.8016 3.28368 93.5622 2.3131 94.8936 3.62731C96.2251 4.94135 97.0668 8.10933 97.0763 9.13867C97.0868 10.2895 96.3002 10.1423 96.176 9.11816C96.0518 8.09382 95.2376 5.32549 93.443 3.82108ZM72.3916 8.58644C72.0361 8.75646 71.6676 8.56934 71.5224 8.2964C71.3777 8.02347 71.4563 7.66473 71.9946 7.49175C73.0711 7.14579 73.4357 8.08706 72.3916 8.58644ZM1.16995 0C0.743079 0.980871 -0.0131788 1.68227 -1.09051 1.7841C-2.74889 1.94106 -3.83958 0.977973 -4.35359 0H-6V4.94447C-4.40181 6.48951 -2.1098 7.16892 0.18401 6.99077C2.83324 6.78495 4.34 5.77896 5.06131 5.23462C5.9755 4.54465 5.68287 3.65839 4.67023 4.21688C3.94392 4.61738 0.855794 6.03894 -1.23622 5.6253C-2.20825 5.43318 -2.04771 4.42656 -0.929822 4.5085C0.421858 4.60772 3.24294 3.78051 5.00482 2.34958C6.41344 1.20567 6.77221 0.52848 6.88628 0H1.16995ZM111.327 0.265036C109.708 1.07753 109.689 2.34873 112.202 1.77177C114.715 1.19488 119.733 3.3342 123.386 4.59107C127.039 5.84795 130.14 5.20945 131.567 4.71137C132.994 4.21329 132.593 3.07348 131.108 3.58298C129.622 4.09254 127.115 4.0048 126.428 3.80159C125.74 3.59861 125.726 2.80248 126.666 2.86095C127.605 2.91937 130.212 2.79816 132.191 2.00169C134.169 1.20528 134.357 0.639973 134.294 0.0701799C134.291 0.0510864 134.289 0.0273901 134.285 0H133.042C132.941 0.158658 132.781 0.319134 132.546 0.462278C131.466 1.12214 129.396 1.55731 128.743 1.57783C128.09 1.59823 127.819 0.920351 128.898 0.721177C129.61 0.589682 130.315 0.380904 131.101 0H124.094C123.971 0.0146611 123.847 0.0265945 123.721 0.0354025C123.181 0.0731349 122.646 0.0537572 122.114 0H111.892C111.706 0.0816587 111.517 0.169341 111.327 0.265036ZM14.1435 0C14.0474 0.156498 13.9362 0.290664 13.8115 0.396531C12.9961 1.08833 12.4322 0.49518 12.3907 0H8.68101C8.83954 1.11907 9.44888 2.35373 10.6194 3.47712C13.475 6.21754 19.1548 5.43352 20.6619 0H19.005C18.9977 0.0310837 18.9899 0.0626221 18.9809 0.0948991C18.6272 1.37007 17.7713 2.40549 16.4694 2.86539C15.1674 3.32522 15.3201 2.43896 16.2166 1.9943C17.0585 1.57686 17.6746 0.754079 17.9687 0H14.1435ZM135.824 0C135.874 0.49967 135.965 1.02349 136.098 1.5697C136.439 2.9625 137.113 4.08686 138 4.94459V0H135.824ZM-3.76988 3.76267C-4.20282 3.33136 -4.57762 3.33176 -4.74912 3.53303C-4.92067 3.73431 -4.88897 4.13641 -4.50892 4.50839C-3.74865 5.2523 -2.89971 4.62988 -3.76988 3.76267ZM133.867 2.62785C133.27 2.90886 133.085 3.33721 133.179 3.63282C133.272 3.92837 133.645 4.09118 134.163 3.8412C135.199 3.34102 135.067 2.06301 133.867 2.62785ZM6.8996 2.32815C6.3906 2.7802 6.31324 3.24919 6.47312 3.50559C6.63306 3.76198 7.03024 3.8058 7.47049 3.4075C8.35103 2.61075 7.92245 1.41945 6.8996 2.32815ZM123.377 3.42296C123.932 3.5985 124.27 3.41364 124.347 3.14787C124.425 2.88209 124.243 2.5354 123.758 2.38737C122.788 2.09113 122.262 3.0699 123.377 3.42296ZM-3.06074 0C-2.72395 0.385336 -2.2464 0.581044 -1.75854 0.582578C-1.27067 0.584113 -0.772491 0.391473 -0.394538 0H-3.06074ZM89.5207 0C89.7881 0.315099 90.049 0.445515 90.2468 0.431933C90.4446 0.418352 90.5793 0.260831 90.5938 0H89.5207Z" fill="url(#paint0_linear_2644_1368)"/>
<path fill-rule="evenodd" clip-rule="evenodd" d="M278.285 148C278.191 147.212 277.708 143.101 281.429 141.032C281.621 140.925 281.811 140.83 282 140.743V138.862C279.557 140.207 276.59 139.272 275.597 137.042C274.288 134.104 276.048 131.807 277.87 132.247C279.692 132.687 278.612 134.444 277.75 134.112C276.887 133.782 276.632 137.177 279.702 137.507C280.564 137.599 281.358 137.346 282 136.862V133.505C281.894 134.103 281.37 133.991 281.186 133.196C280.826 131.634 280.36 130.964 279.25 130.479C278.452 130.129 278.605 129.52 279.469 129.679C280.738 129.911 281.665 131.394 281.957 132.75C281.976 132.838 281.99 132.92 282 132.997V129.782C279.451 126.96 275.047 126.103 271.735 129.827C268.172 133.834 269.519 139.826 270.998 141.538C272.478 143.251 273.967 143.932 273.838 144.337C273.713 144.729 271.686 147.572 268.093 148H275.1C275.507 147.803 275.935 147.561 276.398 147.259C276.981 146.878 277.404 147.427 277.041 148H278.285ZM282 142.516C280.366 143.577 279.572 145.481 279.824 148H282V145.383C281.951 145.518 281.906 145.662 281.864 145.817C281.624 146.705 281.101 146.58 281.176 145.633C281.231 144.941 281.552 144.319 282 143.82V142.516ZM139.646 148C139.424 147.577 139.309 147.15 139.304 146.811C139.282 145.502 139.859 144.751 140.714 144.407C141.568 144.062 141.902 145.31 141.247 145.399C140.593 145.487 139.875 146.725 140.913 147.97C140.922 147.98 140.93 147.99 140.939 148H143.605C144.03 147.56 144.303 146.869 144.239 145.919C144.058 143.26 142.015 140.981 139.191 141.944C138.755 142.093 138.358 142.284 138 142.516V143.82C138.451 143.316 139.03 142.936 139.593 142.731C140.714 142.323 140.879 143.206 140.019 143.536C138.891 143.969 138.343 144.444 138 145.383V148H139.646ZM231.662 148C230.83 147.355 229.689 146.786 228.175 146.674C227.146 146.598 227.078 145.789 228.198 145.598C230.701 145.171 232.556 146.757 233.454 147.918C233.476 147.947 233.498 147.974 233.521 148H234.594C234.61 147.707 234.475 147.283 234.107 146.787C233.058 145.372 230.646 142.861 226.084 144.256C223.455 145.06 221.799 146.463 220.717 148H223.714C223.716 147.807 223.832 147.586 224.124 147.375C224.988 146.75 225.571 147.283 225.118 148H231.662ZM156.39 148C156.373 147.794 156.446 147.605 156.629 147.532C157.439 147.21 157.431 144.138 155.067 144.427C153.378 144.634 152.42 146.161 152.681 148H156.39ZM138 140.743C141.583 139.111 144.435 141.204 145.262 143.794C145.72 145.229 145.684 146.817 145.17 148H150.886C150.915 147.867 150.928 147.744 150.938 147.625C150.991 147.032 151.782 142.691 155.355 142.8C158.593 142.898 159.072 146.487 158.143 148H161.968C162.038 147.82 162.09 147.644 162.123 147.478C162.313 146.498 163.283 146.803 163.005 148H164.662C164.761 147.641 164.843 147.262 164.904 146.862C165.882 140.467 161.507 136.21 159.575 135.751C158.323 135.454 158.32 136.594 158.94 136.906C159.561 137.217 161.63 138.523 162.553 140.784C162.981 141.834 162.129 141.936 161.68 141.241C160.711 139.739 158.748 137.675 157.487 137.707C156.227 137.738 154.13 139.94 151.028 139.793C147.927 139.646 144.624 137.696 144.067 132.363C143.554 127.453 147.051 125.355 149.541 125.243C152.671 125.103 155.02 129.374 153.505 132.045C151.903 134.872 148.838 132.973 148.834 131.07C148.83 129.347 150.023 129.251 150.187 129.775C150.35 130.298 149.981 130.614 150.309 131.199C150.638 131.785 152.358 132.159 152.405 130.231C152.462 127.877 150.295 126.335 147.984 127.473C144.911 128.987 144.696 134.459 148.284 136.759C152.228 139.286 159.144 136.127 159.109 128.421C159.075 120.871 154.452 115.939 148.875 115.515C142.673 115.043 139.183 118.406 138 120.192V121.957C138.282 121.902 138.628 121.679 138.924 121.296C141.912 117.429 146.247 117.062 147.598 117.311C148.949 117.559 148.563 118.492 147.347 118.633C140.82 119.391 138.89 124.662 138.4 126.14C137.911 127.618 139.112 128.139 139.565 128.916C140.019 129.694 142.536 133.043 140.089 136.858C139.499 137.778 138.776 138.434 138 138.862V140.743ZM266.114 148C264.567 147.844 263.03 147.398 261.37 147.213C259.711 147.029 257.929 147.107 255.891 148H266.114ZM163.61 144.371C163.506 143.728 163.212 143.464 162.968 143.501C162.723 143.539 162.528 143.876 162.623 144.435C162.812 145.554 163.819 145.663 163.61 144.371ZM272.49 134.004C272.927 132.893 272.184 132.334 271.541 133.734C270.587 135.81 270.941 140.162 273.858 142.094C274.713 142.66 275.326 142.279 274.569 141.595C272.195 139.453 271.665 136.094 272.49 134.004ZM144.729 138.164C144.182 137.192 143.469 138.159 144.207 139.351C145.507 141.451 147.685 141.956 148.907 142.148C150.13 142.34 150.189 141.476 149.169 141.284C148.149 141.092 146.012 140.442 144.729 138.164ZM151.673 142.065C152.125 141.981 152.314 141.72 152.292 141.499C152.27 141.278 152.037 141.097 151.643 141.174C150.857 141.327 150.765 142.233 151.673 142.065ZM138 136.862C139.642 135.622 140.289 132.86 138.548 130.458C138.377 130.221 138.194 129.996 138 129.782V132.997C138.027 133.203 138.024 133.371 138 133.505V136.862ZM249.12 118.043C247.533 117.893 247.263 119.013 248.848 119.463C250.434 119.913 250.622 121.38 248.786 121.12C246.95 120.86 244.53 120.41 240.379 122.872C236.228 125.334 232.134 125.744 228.864 122.067C225.418 118.191 227.195 111.035 231.743 110.372C236.291 109.71 238.585 113.261 237.813 116.149C237.041 119.037 233.62 120.031 232.431 117.948C231.242 115.864 232.65 114.266 233.505 114.361C234.361 114.456 234.236 115.545 233.537 115.652C232.838 115.758 232.744 118.019 234.58 117.853C236.416 117.687 237.344 114.278 235.404 112.823C233.464 111.367 230.293 111.767 229.229 115.498C228.061 119.593 231.607 122.753 234.736 122.682C237.865 122.611 241.172 120.99 243.039 114.776C244.916 108.526 241.266 102.442 234.903 100.429C233.126 99.8674 232.713 101.258 234.278 101.708C235.842 102.157 239.409 104.04 240.536 107.105C240.999 108.367 240.063 108.723 239.472 107.413C238.377 104.987 234.904 103.081 233.505 102.915C232.108 102.75 231.92 103.554 231.169 104.502C230.418 105.448 226.648 108.908 222.022 106.774C219.237 105.489 218.298 102.773 214.794 101.684C213.311 101.223 213.462 100.099 213.521 99.506C214.001 94.7479 217.184 91.169 219.665 90.4513C221.097 90.0365 221.434 91.0531 220.291 91.6464C218.016 92.8266 216.244 95.2332 215.67 98.1097C215.272 100.105 216.586 100.477 217.015 98.8553C217.724 96.1805 220.423 91.9924 224.703 93.0432C227.792 93.8018 228.456 97.7478 227.156 99.8986C226.229 101.431 224.231 101.861 223.027 100.777C221.813 99.6833 223.061 98.1274 223.962 99.6009C224.315 100.179 225.291 99.8833 225.771 99.0212C226.345 97.9904 226.298 96.2419 224.848 95.4583C222.22 94.0376 218.82 96.6652 219.926 101.661C221.031 106.656 229.876 107.389 231.127 99.0803C232.379 90.7707 227.317 84.937 219.954 84.1556C212.421 83.3561 207.689 90.3871 206.742 93.1619C205.94 95.5077 207.424 95.1235 208.286 93.4932C209.947 90.3451 213 86.9832 216.379 86.344C218.253 85.9894 218.348 87.4987 216.65 88.001C214.251 88.7113 210.904 91.3253 208.953 96.6419C208.454 98.0023 208.677 99.3537 208.864 100.348C209.052 101.342 209.436 102.345 210.545 102.23C213.765 101.894 217.13 104.691 218.027 106.277C218.924 107.863 218.152 108.763 216.713 107.105C215.274 105.448 212.311 104.241 210.81 104.217C209.308 104.194 208.911 105.59 210.747 105.756C212.583 105.922 213.438 106.632 213.855 107.034C214.272 107.437 214.147 108.857 212.937 108.289C211.727 107.721 206.596 107.082 205.365 107.745C204.134 108.408 203.884 106.514 205.448 105.969C207.013 105.425 207.534 104.525 207.242 102.3C206.95 100.074 202.966 91.0548 194.121 92.9966C185.276 94.9377 185.402 108.431 190.867 110.704C196.332 112.977 199.545 107.91 198.376 104.596C197.209 101.282 194.455 102.987 194.517 104.573C194.58 106.159 195.831 106.017 196.103 105.851C196.374 105.685 196.958 107.318 195.143 107.224C193.328 107.129 191.826 103.98 194.413 101.613C197 99.2457 200.421 102.134 200.337 105.945C200.254 109.757 198.189 113.569 192.682 113.332C187.174 113.095 184.504 113.9 181.25 118.351C177.996 122.801 172.447 123.748 169.234 122.091C166.022 120.434 166.148 122.967 168.504 124.647C170.862 126.328 174.867 127.843 178.914 126.139C182.96 124.435 184.025 122.588 187.384 122.683C190.741 122.777 191.826 123.464 192.39 123.819C192.954 124.174 193.976 123.251 192.411 122.02C190.846 120.789 187.363 120.126 185.089 121.002C182.815 121.878 183.419 120.055 184.942 119.416C186.465 118.777 190.47 118.54 192.848 119.842C195.227 121.144 196.04 120.493 196.708 118.93C197.375 117.368 199.472 111.201 206.23 111.012C212.989 110.822 216.796 116.67 216.462 121.215C216.129 125.76 214.001 128.791 210.142 129.099C206.283 129.406 204.113 126.186 204.822 122.565C205.532 118.942 209.099 118.493 210.476 120.292C211.853 122.091 211.352 124.269 210.497 124.056C209.641 123.843 209.631 123.05 209.767 122.565C209.902 122.079 209.036 120.682 207.681 121.345C206.325 122.008 205.834 126.163 208.546 126.991C211.258 127.82 214.554 126.139 214.053 120.41C213.553 114.681 208.366 111.769 202.831 114.255C197.522 116.639 195.652 129.641 203.831 134.283C211.992 138.914 218.371 133.999 220.666 129.43C221.398 127.973 220.333 127.749 219.665 128.933C218.997 130.116 217.057 132.223 216.223 132.555C215.388 132.886 214.888 132.318 216.056 131.111C217.224 129.903 219.79 127.039 220.583 123.583C221.376 120.126 220.895 117.546 220.666 116.646C220.437 115.746 221.834 115.462 222.251 117.261C222.588 118.714 222.531 120.397 222.54 121.192C222.553 122.284 223.756 123.228 224.442 123.819C226.048 125.204 227.488 125.595 228.239 125.903C228.989 126.21 228.783 127.123 227.404 126.849C225.495 126.47 223.399 125.169 222.627 124.269C221.855 123.369 221.222 124.848 222.543 126.045C224.191 127.536 230.429 130.708 236.228 129.525C242.027 128.341 244.739 124.553 249.579 124.743C254.419 124.932 257.172 126.116 259.091 127.157C261.01 128.199 261.887 126.305 259.717 124.08C257.548 121.854 253.541 118.461 249.12 118.043ZM152.526 136.113C153.081 136.01 153.313 135.69 153.285 135.419C153.258 135.148 152.972 134.926 152.49 135.02C151.525 135.209 151.412 136.319 152.526 136.113ZM155.496 123.855C154.831 122.729 155.553 121.956 156.492 123.356C157.883 125.429 158.518 131.224 155.637 133.969C154.793 134.774 154.001 134.426 154.775 133.574C157.268 130.829 156.747 125.973 155.496 123.855ZM210.703 132.9C210.245 133.014 210.089 133.424 210.194 133.747C210.299 134.071 210.666 134.31 211.255 134.083C212.434 133.629 211.679 132.655 210.703 132.9ZM200.181 122.881C200.211 121.401 201.298 121.688 201.278 122.852C201.211 127.116 202.616 130.514 207.273 132.414C208.399 132.872 207.865 133.782 206.861 133.487C203.522 132.508 200.041 129.764 200.181 122.881ZM273.303 130.492C272.794 130.944 272.716 131.413 272.877 131.669C273.036 131.926 273.433 131.969 273.874 131.572C274.754 130.775 274.326 129.583 273.303 130.492ZM230.802 126.617C230.436 126.619 230.257 126.902 230.291 127.168C230.324 127.435 230.569 127.685 231.051 127.622C232.016 127.497 231.583 126.612 230.802 126.617ZM140.855 126.759C140.497 127.76 139.455 127.238 140.001 125.824C140.547 124.41 141.958 122.953 143.166 122.232C143.993 121.738 144.442 122.459 143.546 123.101C142.356 123.952 141.507 124.933 140.855 126.759ZM245.073 122.706C245.925 122.618 246.514 123.757 245.332 123.838C243.62 123.954 239.886 127.537 236.583 127.22C235.7 127.136 235.305 126.29 236.82 126.219C240.337 126.054 242.369 122.983 245.073 122.706ZM281.384 124.762C281.602 123.889 281.379 123.356 281.055 123.232C280.73 123.108 280.305 123.392 280.12 124.154C279.751 125.678 280.943 126.515 281.384 124.762ZM181.52 122.965C181.903 122.56 181.849 122.066 181.585 121.823C181.322 121.58 180.851 121.588 180.398 122.185C179.494 123.379 180.705 123.83 181.52 122.965ZM282 120.192C281.916 120.318 281.844 120.437 281.783 120.546C281.192 121.604 281.491 122.056 282 121.957V120.192ZM252.302 120.813C251.94 120.75 251.725 120.997 251.721 121.266C251.717 121.535 251.924 121.826 252.409 121.85C253.379 121.898 253.073 120.948 252.302 120.813ZM146.007 120.501C145.452 120.601 145.219 120.921 145.246 121.192C145.272 121.463 145.558 121.686 146.041 121.594C147.005 121.409 147.121 120.299 146.007 120.501ZM153.767 121.127C154.238 121.474 154.6 121.415 154.74 121.193C154.881 120.971 154.8 120.589 154.388 120.291C153.563 119.694 152.821 120.429 153.767 121.127ZM225.984 119.313C225.803 118.952 225.499 118.914 225.31 119.077C225.122 119.24 225.05 119.606 225.334 120.052C225.902 120.945 226.37 120.083 225.984 119.313ZM241.37 114.664C241.468 113.798 240.592 113.674 240.473 114.617C240.254 116.357 239.293 118.324 237.803 119.292C236.955 119.844 237.89 120.345 238.61 119.838C239.434 119.258 241.014 117.828 241.37 114.664ZM200.838 118.809C200.589 119.26 200.737 119.673 201.015 119.814C201.292 119.956 201.699 119.825 201.968 119.188C202.507 117.916 201.366 117.845 200.838 118.809ZM244.981 117.759C245.813 117.782 246.132 118.139 246.018 118.457C245.904 118.776 245.356 119.056 244.454 118.924C242.651 118.663 243.399 117.717 244.981 117.759ZM194.82 116.593C195.602 116.985 195.299 118.262 194.184 117.812C193.067 117.363 191.858 116.866 189.521 116.866C188.635 116.866 188.707 115.859 189.678 115.741C190.648 115.623 192.817 115.589 194.82 116.593ZM228.007 108.723C228.966 108.194 229.123 109.117 228.417 109.63C227.112 110.577 225.317 112.882 225.69 116.834C225.794 117.938 225.014 117.816 224.847 116.872C224.292 113.733 225.54 110.084 228.007 108.723ZM220.533 110.939C220.277 110.266 219.749 110.131 219.391 110.377C219.032 110.622 218.843 111.247 219.267 112.092C220.112 113.782 221.078 112.374 220.533 110.939ZM241.589 110.805C241.574 110.39 241.318 110.198 241.085 110.245C240.852 110.293 240.64 110.58 240.713 111.125C240.859 112.214 241.622 111.69 241.589 110.805ZM237.626 107.438C238.074 108.088 237.574 108.615 237.073 108.095C236.616 107.619 235.384 106.239 233.252 106.06C231.846 105.942 232.197 104.484 233.412 104.703C234.447 104.89 236.194 105.356 237.626 107.438ZM144.116 76.9296C144.013 76.2426 145.152 76.1869 145.124 77.191C145.095 78.1946 143.849 80.0852 142.123 79.3317C140.397 78.5781 140.011 76.4938 140.489 74.9788C140.968 73.4638 142.894 71.0123 146.197 72.658C149.501 74.3031 150.523 78.9066 147.221 83.1265C144.705 86.3417 140.543 85.5853 138 84.084V85.9303C138.249 86.2303 138.243 86.5985 138 86.6912V91.8498C139.138 94.0172 140.703 96.0924 141.144 96.5629C141.726 97.184 141.193 97.883 140.272 97.134C139.35 96.3851 138.629 95.1593 138.222 94.6451C138.154 94.5598 138.078 94.5002 138 94.4655V96.3925C139.209 98.4888 143.383 104.442 149.192 105.647C155.595 106.974 160.926 104.289 162.24 97.7256C163.555 91.1611 158.542 88.5249 155.03 88.4965C151.518 88.4681 148.823 92.7369 149.856 96.0441C150.889 99.3514 154.214 99.631 155.082 98.6746C155.951 97.7182 156.186 96.2032 155.703 95.6259C155.221 95.0491 156.887 94.2763 157.487 96.4152C158.087 98.5541 156.163 101.535 152.883 100.832C149.604 100.128 147.264 96.7766 147.865 93.3148C148.465 89.8529 151.362 86.2013 155.655 86.6503C159.949 87.0997 161.718 89.7603 163.398 90.673C165.078 91.5856 168.433 91.535 169.891 90.6002C171.349 89.666 171.317 91.1014 170.327 91.7452C169.338 92.3891 166.837 93.3557 164.827 92.9295C162.817 92.5044 163.466 94.1961 165.113 94.5013C166.76 94.8064 169.833 94.7957 173.517 91.2531C177.202 87.71 180.651 88.688 182.247 89.8723C183.842 91.056 184.936 89.7365 183.06 87.6311C181.184 85.5251 177.541 83.884 172.541 85.5291C167.542 87.1742 162.775 86.2218 159.139 82.082C155.503 77.9423 153.573 68.8069 146.602 67.3181C142.826 66.5117 139.852 67.996 138 70.2532V72.9927C139.075 70.8044 141.196 69.1587 143.036 68.9734C144.137 68.862 144.57 69.8389 143.462 69.8815C141.395 69.9611 137.643 73.2922 138.503 77.4422C138.615 77.9843 138.302 78.4969 138 78.3753V81.7615C139.187 83.0339 140.754 83.6464 142.439 83.5049C145.658 83.235 147.6 80.1374 147.539 77.9377C147.478 75.738 145.873 74.0713 144.287 73.7786C142.701 73.486 141.622 75.2533 141.934 76.866C142.245 78.4781 144.286 78.0673 144.116 76.9296ZM143.51 98.9587C143.078 98.4445 142.241 99.0423 143.056 99.9736C146.655 104.082 151.652 104.503 153.164 104.18C154.063 103.988 153.814 103.133 152.647 103.14C151.481 103.147 146.654 102.694 143.51 98.9587ZM155.866 102.488C155.382 102.667 155.228 103.005 155.309 103.251C155.39 103.497 155.706 103.652 156.164 103.466C157.08 103.095 157.124 102.023 155.866 102.488ZM205.293 102.04C205.112 101.599 204.76 101.521 204.526 101.691C204.292 101.862 204.177 102.281 204.471 102.833C205.061 103.936 205.678 102.981 205.293 102.04ZM204.026 99.0889C204.83 100.254 203.881 101.127 203.038 99.9878C200.621 96.7215 196.429 94.7258 192.984 97.2466C191.979 97.9825 191.851 96.8482 192.673 96.1305C195.111 94.0007 200.356 93.7705 204.026 99.0889ZM191.185 99.5156C191.371 99.0769 191.2 98.7189 190.935 98.6223C190.671 98.5257 190.313 98.6911 190.124 99.3003C189.748 100.517 190.791 100.452 191.185 99.5156ZM148.13 98.9235C147.81 98.5359 147.501 98.5212 147.352 98.6933C147.203 98.8661 147.212 99.2252 147.527 99.5861C148.157 100.308 148.962 99.9322 148.13 98.9235ZM282 84.084C281.205 83.6152 280.568 83.0731 280.19 82.5571C278.599 80.388 278.979 79.5749 278.299 78.91C277.618 78.2451 272.677 75.9602 267.619 78.7952C262.563 81.6308 261.848 87.7379 262.317 89.4904C262.685 90.8627 263.403 90.3184 263.371 89.3887C263.329 88.1544 263.494 87.364 263.761 86.7383C264.072 86.007 264.747 86.1189 264.583 87.443C263.999 92.1953 267.598 95.4679 271.158 96.4732C272.026 96.7181 271.702 97.7415 270.878 97.5949C269.819 97.4068 268.771 96.9005 267.506 95.9833C266.565 95.3026 265.992 96.3902 267.167 97.346C268.259 98.2342 270.73 100.317 274.258 99.2917C277.46 98.3598 280.111 95.1486 279.505 91.1338C278.899 87.1185 275.282 86.1314 273.895 86.744C272.508 87.356 271.891 89.2881 272.391 90.4337C272.891 91.5793 274.41 91.1372 274.517 90.245C274.624 89.3535 275.732 89.8512 275.316 91.102C274.9 92.3533 273.444 93.3364 271.681 92.1425C269.917 90.9491 270.208 85.9348 273.769 84.9636C277.33 83.9925 280.159 87.0577 281.09 89.7916C281.316 90.4542 281.636 91.1565 282 91.8498V86.6912C281.863 86.744 281.652 86.7088 281.369 86.5247C280.681 86.0769 281.155 85.2955 281.8 85.7467C281.879 85.8024 281.946 85.8643 282 85.9303V84.084ZM147.113 90.5815C147.677 89.6256 146.905 89.1676 145.998 90.4797C145.055 91.8441 144.545 95.19 145.882 97.0676C146.551 98.0075 147.117 97.2073 146.674 96.4186C146.017 95.2457 145.988 92.4908 147.113 90.5815ZM152.78 95.9879C152.515 95.7049 152.225 95.7861 152.075 95.9987C151.925 96.2112 151.915 96.555 152.212 96.7965C152.748 97.2329 153.431 96.684 152.78 95.9879ZM274.688 95.9043C273.922 96.0129 273.972 97.1983 275.193 96.8823C277.443 96.3004 278.097 94.0012 278.075 93.1193C278.056 92.3857 277.42 92.4476 277.313 93.1835C277.14 94.3626 276.377 95.664 274.688 95.9043ZM282 94.4655C281.607 94.291 281.182 94.7587 281.724 95.8799C281.784 96.0043 281.877 96.1782 282 96.3925V94.4655ZM264.081 91.6168C263.896 90.9321 262.954 91.2264 263.177 92.1578C263.401 93.0892 264.37 94.6428 265.238 95.1434C265.929 95.5424 266.273 94.8923 265.684 94.2956C265.039 93.6432 264.318 92.4954 264.081 91.6168ZM152.531 94.0603C152.401 94.9036 151.686 94.6695 151.655 93.837C151.532 90.5314 154.991 89.3353 157.282 90.6104C158.326 91.1923 157.825 91.8981 156.952 91.506C155.235 90.7349 152.959 91.3054 152.531 94.0603ZM269.015 92.4419C268.746 92.1112 268.777 91.7998 268.936 91.6526C269.096 91.5049 269.385 91.5214 269.633 91.847C270.128 92.4971 269.715 93.3023 269.015 92.4419ZM277.274 90.6752C277.087 90.278 277.186 89.9854 277.373 89.8887C277.56 89.7921 277.836 89.891 278.004 90.2769C278.338 91.0486 277.758 91.7083 277.274 90.6752ZM172.885 89.071C173.359 88.775 173.701 88.8835 173.811 89.133C173.921 89.3824 173.797 89.7734 173.338 90.0416C172.42 90.5781 171.655 89.8405 172.885 89.071ZM271.701 84.3704C272.65 83.9658 271.981 82.9236 270.62 83.5532C269.206 84.2079 267.184 87.0009 267.799 89.3114C268.183 90.7514 268.859 90.2985 268.771 89.1932C268.655 87.7521 269.412 85.3455 271.701 84.3704ZM167.746 87.9777C169.109 87.9857 169.041 89.1142 167.31 89.2853C165.748 89.4393 162.047 87.8487 160.62 86.5303C159.194 85.2114 160.131 84.9477 161.127 85.7183C163.246 87.3555 165.851 87.9669 167.746 87.9777ZM140.258 86.8565C139.312 86.444 139.183 87.7936 140.588 88.2817C142.221 88.8483 145.962 88.9551 148.721 85.2376C149.575 84.0874 148.55 83.7402 147.925 84.5937C146.119 87.0634 142.54 87.8521 140.258 86.8565ZM158.546 83.6981C158.914 84.0885 158.928 84.4647 158.765 84.6477C158.602 84.8301 158.261 84.8193 157.918 84.4346C157.233 83.6658 157.588 82.6821 158.546 83.6981ZM265.429 83.4294C265.744 82.9861 266.093 82.9719 266.285 83.1714C266.477 83.3708 266.512 83.7839 266.199 84.1965C265.574 85.021 264.61 84.5829 265.429 83.4294ZM149.771 81.6354C150.039 81.066 150.396 80.9387 150.619 81.0881C150.842 81.237 150.93 81.6615 150.661 82.1974C150.122 83.2685 149.074 83.1151 149.771 81.6354ZM276.148 79.5976C277.331 80.1096 277.212 81.2961 275.883 80.8307C273.16 79.8783 270.296 80.592 268.651 81.7053C267.727 82.3309 267.25 81.524 267.964 80.8108C269.418 79.3589 272.862 78.1769 276.148 79.5976ZM282 70.2532C280.434 72.1619 279.672 74.6236 279.909 76.7199C280.156 78.8998 280.92 80.604 282 81.7615V78.3753C281.901 78.3355 281.804 78.2281 281.724 78.0315C281.012 76.296 281.253 74.5134 282 72.9927V70.2532ZM254.017 59.7637C253.169 60.216 253.593 61.2406 254.509 60.84C255.424 60.4388 256.548 60.1973 257.52 60.3689C258.492 60.5411 258.438 61.6645 257.212 61.6452C255.985 61.6264 252.946 62.7021 251.534 64.2171C250.121 65.7327 248.733 69.0615 246.75 70.0798C244.767 71.0982 245.943 72.0653 247.293 71.2806C248.643 70.4958 249.136 71.7687 247.291 72.8132C245.444 73.8582 242.017 74.71 239.149 73.3894C236.279 72.0687 235.615 71.2112 235.177 70.6759C234.738 70.1406 235.238 69.1575 236.074 69.9054C236.91 70.6526 238.319 71.6335 239.424 71.8761C240.528 72.1187 240.746 71.1061 239.775 70.7481C238.804 70.3901 236.367 69.1564 235.121 65.3303C233.875 61.5042 235.727 57.5912 238.148 56.5169C240.569 55.4429 244.225 56.7291 244.733 60.6928C245.241 64.6564 241.89 65.8923 240.589 65.0292C239.288 64.1654 238.82 62.4515 238.972 61.6338C239.122 60.8155 240.118 60.6558 240.206 61.7389C240.294 62.8226 241.259 63.9915 242.561 63.213C243.863 62.4345 243.861 58.9869 241.173 57.9492C238.485 56.9116 236.141 59.3557 236.168 62.3515C236.193 65.3474 238.054 69.7298 242.959 69.5877C247.864 69.4457 250.291 64.5177 249.816 59.3238C249.342 54.1301 245.199 50.8478 243.922 50.6161C242.645 50.3845 242.711 51.4486 243.603 51.8826C244.494 52.3164 245.965 53.9247 246.34 54.9933C246.716 56.062 245.955 56.3561 245.125 55.1917C244.296 54.0273 242.356 51.7566 238.766 52.5197C235.175 53.2826 233.757 55.5211 233.303 56.3888C232.848 57.2565 231.927 56.9139 232.402 55.4745C232.878 54.0348 234.199 52.575 235.7 51.5522C237.2 50.5296 236.325 49.8746 234.862 50.4984C233.4 51.1223 230.239 53.4945 229.646 57.839C229.052 62.1833 230.096 63.5829 229.797 64.0591C229.497 64.5353 228.33 63.6545 226.134 64.087C223.94 64.5194 221.242 66.1105 220.152 67.3874C219.063 68.6643 220.004 69.5957 221.228 69.1115C222.455 68.6268 226.382 69.1343 230.074 72.912C233.764 76.6898 238.4 80.654 245.972 76.845C253.543 73.0359 253.522 67.7409 258.216 66.0492C262.91 64.3575 265.177 66.6083 268.755 65.7162C272.332 64.8234 273.215 63.0249 273.606 62.2964C273.997 61.5685 273.294 60.6945 272.005 61.7122C270.716 62.73 267.316 62.8908 265.169 61.6401C262.778 60.2473 258.071 57.6003 254.017 59.7637ZM150.592 71.8465C149.924 71.3499 149.21 71.946 150.213 72.8529C152.108 74.5657 153.043 76.6506 153.419 77.4473C153.857 78.3764 154.423 77.9366 154.041 76.9228C153.658 75.9085 152.641 73.3729 150.592 71.8465ZM238.788 75.301C237.663 74.9379 237.289 76.0499 238.352 76.3528C239.413 76.6557 241.177 76.9785 242.626 76.5642C243.544 76.3023 243.233 75.4806 242.332 75.6385C241.431 75.7971 239.621 75.5703 238.788 75.301ZM236.468 74.4372C236.889 74.6503 236.951 75.047 236.807 75.3038C236.663 75.5613 236.313 75.6783 235.911 75.3334C235.184 74.7089 235.504 73.9497 236.468 74.4372ZM243.052 72.2676C242.522 72.271 242.284 71.971 242.324 71.6658C242.363 71.3601 242.681 71.0493 243.262 71.0288C244.31 70.993 244.266 72.2602 243.052 72.2676ZM250.117 70.1446C249.803 70.5282 249.494 70.5208 249.347 70.3111C249.2 70.1009 249.215 69.6872 249.55 69.2576C250.153 68.4819 250.835 69.2672 250.117 70.1446ZM146.871 70.2975C146.319 70.1423 146.123 69.7804 146.196 69.4991C146.268 69.2172 146.609 69.0155 147.133 69.1803C148.18 69.5104 148.307 70.7004 146.871 70.2975ZM233.459 67.9386C234.123 68.6603 233.652 69.3445 232.988 68.8308C230.91 67.2232 228.998 66.4157 227.395 66.2037C226.577 66.0952 227.006 65.2638 227.939 65.3735C230.395 65.6628 232.639 67.047 233.459 67.9386ZM252.424 67.151C251.631 68.1267 250.801 67.3982 251.568 66.5117C252.336 65.6247 253.692 64.3063 255.119 63.8023C256.023 63.4835 256.136 64.3688 255.294 64.7666C254.453 65.1638 253.013 66.4276 252.424 67.151ZM245.379 66.9635C245.01 67.2113 244.736 67.1124 244.653 66.8805C244.571 66.6487 244.681 66.2844 245.079 66.0009C245.798 65.49 246.225 66.3958 245.379 66.9635ZM246.98 59.2875C246.679 57.9958 247.647 57.7009 247.945 58.8965C248.334 60.4581 248.268 62.7226 247.375 64.391C246.884 65.3087 246.209 64.9081 246.591 63.9694C247.07 62.7925 247.332 60.7934 246.98 59.2875ZM158.298 57.1701C156.679 57.9827 156.66 59.2539 159.173 58.6766C161.686 58.0998 166.704 60.2393 170.357 61.4963C174.01 62.7533 177.111 62.1146 178.539 61.6162C179.966 61.1184 179.565 59.9785 178.079 60.4882C176.594 60.9974 174.086 60.9099 173.399 60.7064C172.711 60.5035 172.697 59.7074 173.637 59.7659C174.577 59.8245 177.183 59.7034 179.162 58.9067C181.14 58.1106 181.328 57.5452 181.265 56.9752C181.201 56.4054 180.551 52.078 184.4 49.9375C188.249 47.7972 191.363 49.9731 192.234 52.6997C193.072 55.323 192.258 58.4646 189.881 58.6891C187.505 58.9141 186.294 56.8394 186.275 55.7165C186.254 54.4071 186.831 53.6566 187.685 53.3122C188.54 52.9676 188.874 54.2154 188.219 54.3039C187.564 54.3924 186.847 55.6308 187.885 56.8752C188.923 58.1197 191.391 57.4844 191.21 54.8245C191.03 52.165 188.987 49.8864 186.163 50.8496C183.339 51.8128 182.114 54.5732 183.07 58.4749C184.025 62.3765 187.588 64.1728 191.155 63.896C193.805 63.6898 195.312 62.6839 196.033 62.1396C196.947 61.4497 196.654 60.5638 195.641 61.1218C194.915 61.5224 191.827 62.9442 189.735 62.5305C188.763 62.3384 188.924 61.3315 190.042 61.4139C191.393 61.5128 194.214 60.6854 195.976 59.2545C197.738 57.8236 197.858 57.123 197.91 56.5305C197.963 55.9378 198.754 51.5969 202.327 51.705C205.9 51.813 206.114 56.1723 204.783 57.3014C203.629 58.2811 202.978 56.6853 203.601 56.4378C204.41 56.1155 204.402 53.0434 202.039 53.3327C199.321 53.6654 198.497 57.4128 201.591 60.3819C204.635 63.3039 210.889 62.2197 211.875 55.7676C212.853 49.3719 208.478 45.1154 206.546 44.6566C205.294 44.3592 205.291 45.5 205.912 45.8109C206.532 46.1221 208.601 47.4279 209.525 49.6898C209.953 50.739 209.101 50.8411 208.652 50.1462C207.682 48.6447 205.719 46.5804 204.459 46.6122C203.199 46.6438 201.101 48.8452 198 48.6983C194.899 48.5514 191.596 46.6013 191.039 41.2679C190.526 36.3582 194.023 34.26 196.512 34.1484C199.642 34.008 201.992 38.2793 200.477 40.9504C198.875 43.7767 195.81 41.8782 195.805 39.976C195.802 38.2521 196.994 38.1569 197.158 38.68C197.322 39.2029 196.953 39.5195 197.281 40.1049C197.609 40.6901 199.329 41.0643 199.376 39.1364C199.434 36.7822 197.267 35.2407 194.956 36.3784C191.882 37.8919 191.668 43.3646 195.256 45.664C199.199 48.191 206.115 45.033 206.081 37.3268C206.046 29.7766 201.423 24.8447 195.846 24.4203C189.206 23.915 185.672 27.8079 184.754 29.4515C183.837 31.0952 185.066 31.2757 185.895 30.2015C188.884 26.3349 193.219 25.9675 194.57 26.2159C195.92 26.4641 195.535 27.3973 194.319 27.5384C187.792 28.2966 185.862 33.5669 185.372 35.045C184.882 36.523 186.084 37.0443 186.537 37.8218C186.99 38.5992 189.508 41.949 187.061 45.7631C184.614 49.5774 179.877 48.8861 178.568 45.948C177.259 43.0099 179.02 40.7125 180.841 41.1524C182.663 41.5922 181.584 43.349 180.721 43.0179C179.859 42.6868 179.603 46.0824 182.673 46.4116C185.743 46.7408 187.941 42.7048 185.52 39.363C183.099 36.0213 178.27 34.7251 174.707 38.7323C171.144 42.7396 172.491 48.7309 173.97 50.4436C175.449 52.1563 176.938 52.8377 176.809 53.2424C176.68 53.6471 174.518 56.6737 170.692 56.9406C166.867 57.2071 163.377 54.6209 158.298 57.1701ZM260.508 60.7826C259.486 60.6314 259.251 61.731 260.269 61.8748C261.268 62.0163 262.228 62.3953 263.067 62.772C263.713 63.0624 263.944 62.3328 263.347 61.9373C262.599 61.4417 261.45 60.9218 260.508 60.7826ZM252.255 61.9623C251.859 62.2288 251.564 62.1225 251.476 61.8736C251.388 61.6247 251.505 61.2332 251.933 60.9286C252.706 60.3797 253.163 61.3525 252.255 61.9623ZM187.202 60.6678C186.769 60.2365 186.394 60.237 186.222 60.4382C186.051 60.6394 186.083 61.0417 186.463 61.4133C187.223 62.1572 188.072 61.5349 187.202 60.6678ZM180.838 59.533C180.241 59.8137 180.056 60.2421 180.15 60.5376C180.244 60.8337 180.616 60.9962 181.134 60.7462C182.17 60.2461 182.038 58.9681 180.838 59.533ZM197.871 59.2335C197.362 59.6852 197.285 60.1541 197.445 60.4109C197.604 60.6672 198.002 60.711 198.442 60.3126C199.322 59.5159 198.894 58.3243 197.871 59.2335ZM231.288 59.3216C231.348 58.6959 231.726 58.4697 232.038 58.5629C232.351 58.6556 232.598 59.067 232.397 59.7165C232.033 60.8917 231.148 60.7547 231.288 59.3216ZM170.348 60.3279C170.903 60.5035 171.241 60.3189 171.318 60.0529C171.396 59.787 171.214 59.4403 170.729 59.2926C169.76 58.9965 169.233 59.9751 170.348 60.3279ZM209.094 56.3838C209.289 55.3781 210.306 55.725 209.952 57.0002C209.598 58.2754 208.743 59.3108 207.441 59.7705C206.139 60.2302 206.292 59.3443 207.188 58.8993C208.231 58.3822 208.927 57.2434 209.094 56.3838ZM179.369 56.1642C180.114 55.6784 180.598 56.7073 179.518 57.3673C178.437 58.0271 176.368 58.4624 175.714 58.4828C175.061 58.5033 174.79 57.8253 175.87 57.6265C176.949 57.427 178.011 57.0497 179.369 56.1642ZM186.991 52.4412C187.85 52.1112 187.686 51.2285 186.564 51.6363C185.443 52.0441 184.258 53.1486 184.148 54.5387C184.073 55.4859 184.595 55.6111 184.836 54.7219C185.169 53.4874 185.701 52.9364 186.991 52.4412ZM210.582 53.2761C210.478 52.633 210.184 52.3696 209.939 52.4067C209.695 52.4438 209.5 52.7815 209.594 53.3409C209.784 54.4594 210.79 54.5689 210.582 53.2761ZM145.286 47.6169C145.293 47.1516 144.323 47.0563 144.421 48.2499C144.519 49.4434 146.7 50.2081 147.971 48.5037C149.241 46.7997 149.105 44.3763 146.991 43.2971C144.876 42.218 142.874 43.3087 142.146 44.9119C141.472 46.3963 139.524 46.8276 138 46.9689V44.3369C138.833 44.3974 138.991 43.6116 138.086 43.3043C138.057 43.2945 138.029 43.2873 138 43.2822V41.1937C141.031 42.3018 144.802 41.6848 146.776 40.0597C150.177 37.2591 150.694 33.0955 151.045 32.5588C151.397 32.0219 153.372 32.5619 154.794 33.7066C156.216 34.8515 156.639 36.0971 156.791 36.5971C156.944 37.0972 157.723 36.9303 157.393 35.438C157.064 33.9455 155.631 32.2824 154.509 31.7524C153.387 31.2223 154.169 30.2195 155.41 30.9556C156.651 31.6918 159.899 34.6023 158.847 39.2389C157.794 43.8754 153.782 43.9065 152.128 42.9869C150.474 42.0675 150.238 39.5189 151.301 38.5326C152.363 37.546 153.406 38.0185 153.593 39.0513C153.78 40.0841 153.263 40.6379 153.53 40.9455C153.797 41.2531 154.699 41.2261 154.973 39.8088C155.248 38.3915 154.447 36.7124 152.342 36.722C150.236 36.7318 148.987 38.7424 149.251 40.9211C149.515 43.0998 151.037 44.0911 151.311 44.2267C151.586 44.3621 151.282 46.428 150.72 47.4701C150.158 48.5123 151.083 48.2346 151.509 47.5958C151.936 46.9572 152.215 45.9516 152.28 45.2919C152.345 44.6321 153.387 44.6134 153.003 46.1172C152.619 47.621 150.968 51.7845 147.453 51.9508C143.937 52.117 142.1 49.3022 143.134 46.6021C144.169 43.9022 146.327 44.5326 146.953 45.1796C147.502 45.7479 147.672 46.8673 147.025 47.7054C146.379 48.5436 145.274 48.3725 145.286 47.6169ZM175.461 42.909C175.898 41.7983 175.155 41.239 174.512 42.6397C173.559 44.7149 173.912 49.0671 176.83 50.9987C177.685 51.5651 178.298 51.1843 177.54 50.5003C175.166 48.3581 174.637 44.9996 175.461 42.909ZM191.701 47.0695C191.153 46.0976 190.441 47.064 191.178 48.2559C192.478 50.356 194.657 50.8612 195.879 51.0534C197.102 51.2456 197.161 50.3809 196.141 50.1892C195.121 49.9976 192.984 49.3474 191.701 47.0695ZM198.645 50.9702C199.097 50.8865 199.286 50.6253 199.264 50.4042C199.242 50.1831 199.008 50.002 198.615 50.0788C197.829 50.2324 197.737 51.1383 198.645 50.9702ZM239.748 50.7338C239.244 50.5701 239.092 50.2115 239.204 49.9347C239.316 49.6579 239.693 49.463 240.248 49.6266C241.249 49.922 240.899 51.1088 239.748 50.7338ZM149.753 49.0908C149.921 48.881 150.182 48.8769 150.333 48.9922C150.483 49.1076 150.523 49.3424 150.249 49.6104C149.7 50.1465 149.26 49.7067 149.753 49.0908ZM282 46.9689C281.878 46.9802 281.759 46.9898 281.643 46.9978C280.083 47.1057 278.726 46.8539 278.033 46.6542C277.341 46.4545 277.007 47.3639 277.788 47.6751C278.569 47.9861 280.193 48.2801 280.893 48.321C281.592 48.3619 281.762 49.2742 280.457 49.4235C279.152 49.573 275.815 49.4045 271.63 46.7976C267.444 44.1907 264.713 44.0841 261.926 45.1953C259.139 46.3066 255.635 46.7124 253.463 45.6298C251.29 44.5472 252.072 43.2924 254.175 43.84C256.279 44.3876 258.24 43.4405 261.874 40.68C265.507 37.9195 269.784 39.0187 270.788 39.5818C271.791 40.1447 271.949 38.9862 271.279 38.5355C270.61 38.085 270.194 37.198 270.056 35.0929C269.917 32.988 270.582 31.2351 270.952 30.5401C271.323 29.8453 270.655 29.3681 269.93 30.3875C269.206 31.4069 268.742 34.4058 268.973 36.0251C269.203 37.6443 268.188 37.3329 267.826 36.0509C267.463 34.7688 267.398 31.8188 269.021 29.0472C270.643 26.2754 273.791 25.4506 275.745 25.6974C277.698 25.9445 278.398 26.5029 278.557 26.3396C278.691 26.2028 279.555 23.9435 282 22.8123V27.2754C279.396 27.8718 276.697 30.4926 277.543 35.8094C278.002 38.6882 279.807 40.3921 282 41.1937V43.2822C281.382 43.1718 280.891 44.1338 281.828 44.3139C281.888 44.3254 281.945 44.333 282 44.3369V46.9689ZM139.655 48.0181C139.14 48.0454 138.97 48.399 139.093 48.7064C139.216 49.0138 139.634 49.2749 140.295 49.1171C141.726 48.7761 141.126 47.9397 139.655 48.0181ZM199.498 45.0184C200.052 44.9158 200.284 44.5954 200.257 44.3242C200.23 44.053 199.943 43.831 199.461 43.9252C198.497 44.1138 198.384 45.2246 199.498 45.0184ZM274.407 43.7283C274.114 43.5264 273.769 43.6364 273.611 43.8548C273.452 44.0731 273.48 44.3998 273.933 44.6312C274.839 45.0941 275.267 44.321 274.407 43.7283ZM265.154 40.832C264.451 41.143 264.386 42.008 265.706 41.8065C269.604 41.2114 271.242 42.6138 272.108 43.2422C273.002 43.8918 273.384 42.693 272.389 41.9316C271.395 41.17 268.183 39.4914 265.154 40.832ZM202.467 32.7599C201.803 31.6345 202.525 30.8617 203.464 32.2612C204.855 34.3348 205.49 40.1301 202.609 42.8745C201.764 43.6791 200.972 43.3314 201.746 42.4795C204.24 39.7347 203.719 34.8782 202.467 32.7599ZM275.647 34.8227C275.712 33.9642 274.722 33.7279 274.624 35.214C274.325 39.7488 278.05 42.9525 279.292 43.1578C280.313 43.3266 280.145 42.4407 279.5 42.1878C278.224 41.6887 275.361 38.659 275.647 34.8227ZM263.432 42.7005C263.737 42.5236 263.836 42.1324 263.756 41.8646C263.675 41.5967 263.415 41.4521 263.004 41.7682C262.181 42.4005 262.536 43.2197 263.432 42.7005ZM184.158 42.1008C184.398 43.1416 185.221 43.0122 184.929 41.6557C184.636 40.2988 183.709 38.8164 182.441 38.5839C181.576 38.4253 181.423 39.0347 182.222 39.3841C183.331 39.8693 183.798 40.5393 184.158 42.1008ZM176.274 39.3976C175.765 39.8496 175.688 40.3186 175.848 40.5749C176.008 40.8312 176.405 40.875 176.845 40.4768C177.726 39.6801 177.297 38.4889 176.274 39.3976ZM138 22.8123C138.471 22.5946 138.999 22.4184 139.593 22.3075C140.612 22.1172 140.609 21.305 139.478 21.239C138.949 21.2081 138.457 21.262 138 21.3778V19.7052C138.967 19.4651 140.112 19.413 141.467 19.6696C146.128 20.5527 148.027 23.5568 149.037 26.0312C150.048 28.5057 149.587 32.2081 149.087 33.1874C148.586 34.1668 147.987 33.7714 148.268 32.4228C149.15 28.1877 146.551 24.9038 145.731 24.4179C144.911 23.932 144.518 24.8513 145.31 25.7072C146.101 26.563 147.587 29.0552 147.087 31.9028C146.539 35.0247 144.279 36.8348 142.771 37.3439C141.933 37.6265 142.499 38.6817 143.878 38.2049C145.256 37.728 146.378 36.4597 147.024 35.3629C147.474 34.5981 148.406 35.0521 147.695 36.5368C146.985 38.0215 143.695 41.4828 139.186 39.8021C138.756 39.6418 138.361 39.458 138 39.2546V37.3856C138.479 37.8195 139.12 38.1849 139.86 38.3751C141.032 38.6768 141.27 37.6109 140.351 37.3424C139.168 36.9969 138.527 36.5454 138.059 36.0534C138.039 36.033 138.02 36.0143 138 35.9968V29.2919C139.637 28.8072 141.313 29.5794 141.698 30.3137C142.258 31.3816 142.472 33.1061 141.196 33.3898C139.92 33.6736 139.751 32.5091 139.977 31.8986C140.204 31.2882 138.539 30.8722 138.707 33.0853C138.876 35.2982 142.361 35.7939 143.321 33.1956C144.281 30.5974 143.046 27.924 140.153 27.2505C139.503 27.0992 138.756 27.1024 138 27.2754V22.8123ZM156.946 38.8419C157.022 38.4533 157.339 38.242 157.593 38.264C157.848 38.286 158.04 38.541 157.87 39.0849C157.528 40.1726 156.722 39.9829 156.946 38.8419ZM282 39.2546C278.453 37.257 278.172 33.3516 279.92 30.852C280.522 29.9917 281.257 29.5121 282 29.2919V35.9968C281.542 35.5941 281.005 35.9738 281.345 36.5824C281.5 36.8593 281.723 37.134 282 37.3856V39.2546ZM273.049 36.927C272.934 36.5605 272.605 36.3987 272.361 36.4544C272.117 36.5101 271.956 36.7835 272.179 37.2875C272.625 38.2956 273.386 38.0026 273.049 36.927ZM187.827 35.6644C187.469 36.6659 186.427 36.143 186.973 34.729C187.519 33.3151 188.93 31.8582 190.138 31.1374C190.965 30.644 191.414 31.3645 190.518 32.0057C189.328 32.8576 188.479 33.838 187.827 35.6644ZM152.304 33.568C151.617 33.4938 151.668 34.3206 152.226 34.393C152.784 34.4654 153.694 34.9035 153.997 35.1799C154.3 35.4564 154.614 34.9771 154.237 34.5304C153.86 34.0837 152.955 33.6384 152.304 33.568ZM274.813 28.4566C275.405 27.8507 274.565 26.969 273.353 28.4245C272.141 29.8798 271.576 33.1259 271.655 34.1514C271.743 35.2979 272.514 35.0642 272.549 34.0312C272.584 32.998 273.157 30.1527 274.813 28.4566ZM184.355 33.6669C184.574 32.7946 184.35 32.2619 184.026 32.1376C183.702 32.0133 183.277 32.2976 183.092 33.0594C182.722 34.5831 183.915 35.4203 184.355 33.6669ZM152.174 30.8669C152.542 30.9967 152.893 30.7696 153.014 30.4819C153.135 30.1942 153.026 29.8459 152.475 29.7334C151.373 29.5084 151.092 30.4855 152.174 30.8669ZM192.979 29.406C192.424 29.5066 192.191 29.8261 192.217 30.0974C192.244 30.3686 192.53 30.5917 193.012 30.4992C193.977 30.3142 194.093 29.2038 192.979 29.406ZM200.739 30.0327C201.21 30.3799 201.571 30.3198 201.712 30.0983C201.853 29.8769 201.772 29.4941 201.359 29.1958C200.534 28.5991 199.793 29.3347 200.739 30.0327ZM224.687 24.4934C224.64 24.0311 225.597 23.8288 225.602 25.0275C225.608 26.2262 223.502 27.2288 222.092 25.6735C220.681 24.1182 220.608 21.6914 222.619 20.3831C224.631 19.0748 226.717 19.9385 227.579 21.4533C228.442 22.9684 230.679 23.0959 232.241 23.0303C233.803 22.9649 235.132 22.564 235.804 22.2885C236.476 22.013 236.886 22.8812 236.136 23.2773C235.385 23.6734 233.794 24.1459 233.101 24.2642C232.408 24.3824 232.318 25.309 233.63 25.3131C234.942 25.3173 238.248 24.7799 242.189 21.7217C246.13 18.6636 248.839 18.2548 251.709 19.052C254.578 19.8492 258.099 19.8648 260.169 18.5467C262.238 17.2286 261.352 16.0664 259.305 16.8444C257.259 17.6225 255.226 16.8972 251.373 14.5524C247.518 12.2077 243.356 13.7755 242.406 14.4471C241.456 15.1185 241.199 13.983 241.827 13.4603C242.454 12.9378 242.792 12.0089 242.748 9.89861C242.705 7.78844 241.893 6.11747 241.465 5.46687C241.036 4.81639 241.66 4.26751 242.469 5.20178C243.277 6.13594 243.997 9.06923 243.906 10.7064C243.816 12.3434 244.799 11.921 245.05 10.6049C245.301 9.28875 245.112 6.34568 243.259 3.76704C241.406 1.18823 238.201 0.71629 236.279 1.17828C234.356 1.64056 233.707 2.27389 233.535 2.12904C233.432 2.04317 232.875 0.940524 231.661 0H225.118C225.046 0.113538 224.948 0.231565 224.822 0.350331C224.374 0.769706 223.708 0.4687 223.714 0H220.717C219.92 1.13112 219.433 2.33497 219.097 3.42637C218.304 6.00098 219.081 9.63471 219.663 10.5539C220.246 11.4732 220.808 11.0132 220.413 9.70227C219.17 5.58507 221.475 2.02885 222.249 1.45451C223.023 0.880062 223.493 1.75143 222.779 2.69099C222.065 3.63038 220.8 6.27528 221.543 9.05383C222.357 12.1 224.762 13.6512 226.307 13.9907C227.164 14.1792 226.692 15.2921 225.279 14.9703C223.867 14.6484 222.641 13.5105 221.904 12.4904C221.39 11.7792 220.501 12.3342 221.336 13.7331C222.171 15.132 225.743 18.2123 230.086 16.04C234.57 13.7974 234.72 9.29841 232.567 6.7708C230.413 4.24324 227.235 5.7506 226.77 6.87536C226.304 8.00011 226.24 9.74006 227.534 9.8811C228.828 10.0222 228.897 8.84443 228.619 8.26196C228.341 7.67956 229.962 7.08107 229.985 9.30228C230.007 11.5233 226.581 12.4028 225.402 9.92333C224.223 7.44384 225.222 4.64636 228.043 3.65561C230.865 2.66496 235.855 4.49407 235.358 11.4412C234.861 18.3882 226.181 19.5477 222.555 17.1373C218.929 14.727 218.056 10.6405 217.66 10.1453C217.264 9.64988 215.344 10.4062 214.028 11.703C212.712 12.9999 212.398 14.2864 212.289 14.801C212.18 15.3155 211.39 15.2358 211.59 13.7141C211.79 12.1922 213.073 10.3783 214.144 9.72642C215.215 9.07457 214.35 8.16315 213.178 9.03338C212.006 9.90361 209.025 13.1599 210.471 17.6578C211.917 22.1556 215.913 21.742 217.48 20.6435C219.047 19.5452 219.062 16.9827 217.92 16.1188C216.778 15.2547 215.78 15.8405 215.683 16.889C215.586 17.9375 216.148 18.4316 215.909 18.7672C215.67 19.1029 214.77 19.176 214.374 17.7958C213.979 16.4158 214.632 14.656 216.728 14.4323C218.824 14.2087 220.24 16.0713 220.165 18.2688C220.09 20.4663 218.661 21.6215 218.399 21.7869C218.137 21.952 218.618 23.9744 219.267 24.9493C219.916 25.9242 218.972 25.7503 218.492 25.1619C218.012 24.5735 217.648 23.6037 217.526 22.9543C217.405 22.305 216.366 22.4018 216.878 23.8558C217.389 25.3098 219.391 29.2706 222.904 29.0466C226.417 28.8224 228.003 25.8175 226.742 23.2451C225.479 20.6726 223.386 21.5392 222.819 22.2524C222.321 22.8788 222.248 24.0117 222.964 24.7742C223.679 25.5368 224.764 25.244 224.687 24.4934ZM220.368 26.4552C220.183 26.2649 219.923 26.2898 219.783 26.4213C219.643 26.5528 219.623 26.7909 219.92 27.0272C220.512 27.4999 220.912 27.0135 220.368 26.4552ZM230.325 24.2687C230.841 24.2389 231.041 24.5719 230.944 24.8915C230.848 25.2111 230.455 25.5172 229.783 25.4335C228.33 25.2526 228.856 24.3536 230.325 24.2687ZM282 21.3778C280.275 21.8151 279.075 23.1383 278.447 24.1301C277.688 25.3296 276.777 24.6032 277.7 23.0777C278.354 21.996 279.644 20.2908 282 19.7052V21.3778ZM143.075 23.6041C143.415 23.8636 143.832 23.7541 144.032 23.5035C144.232 23.2529 144.215 22.8613 143.686 22.5564C142.627 21.9466 142.078 22.8425 143.075 23.6041ZM231.482 19.4036C231.799 19.2564 232.125 19.4264 232.251 19.6703C232.378 19.9142 232.305 20.2318 231.825 20.3798C230.867 20.6759 230.551 19.8362 231.482 19.4036ZM239.161 18.9749C239.435 18.7415 239.788 18.8128 239.964 19.0125C240.141 19.2122 240.141 19.5404 239.71 19.821C238.848 20.382 238.356 19.66 239.161 18.9749ZM237.16 10.2492C237.023 9.40195 237.987 9.05707 238.212 10.5252C238.9 15.0052 235.468 18.6064 234.25 18.9482C233.248 19.2294 233.339 18.3291 233.96 18.0059C235.186 17.3678 237.776 14.0354 237.16 10.2492ZM248.121 15.0671C248.847 15.2988 248.986 16.1525 247.655 16.0981C243.724 15.9378 242.215 17.5149 241.408 18.2364C240.573 18.9818 240.09 17.8312 241.014 16.9631C241.938 16.0951 244.99 14.0686 248.121 15.0671ZM212.328 17.0521C212.219 16.6738 211.886 16.4986 211.634 16.5487C211.383 16.5987 211.213 16.8739 211.43 17.3963C211.863 18.4409 212.649 18.1628 212.328 17.0521ZM249.995 16.7359C249.676 16.5937 249.544 16.2154 249.601 15.9399C249.658 15.6644 249.904 15.4917 250.341 15.7608C251.214 16.2988 250.931 17.1534 249.995 16.7359ZM228.715 13.7212C227.824 14.0901 228.152 15.1247 229.293 14.6944C230.429 14.2661 231.286 13.4295 231.641 12.6318C231.94 11.9606 231.31 11.6429 230.885 12.1844C230.461 12.7259 229.862 13.2463 228.715 13.7212ZM216.494 11.2892C217.172 11.1392 217.192 11.9676 216.643 12.1016C216.094 12.2355 215.226 12.7722 214.948 13.0809C214.67 13.3897 214.316 12.9474 214.653 12.4612C214.99 11.9747 215.852 11.4314 216.494 11.2892ZM239.927 12.0556C240.01 11.6782 240.323 11.4806 240.571 11.509C240.819 11.5373 241.002 11.7917 240.824 12.318C240.467 13.3706 239.684 13.1634 239.927 12.0556ZM237.443 3.82108C236.801 3.28368 237.562 2.3131 238.893 3.62731C240.225 4.94135 241.067 8.10933 241.076 9.13867C241.087 10.2895 240.3 10.1423 240.176 9.11816C240.052 8.09382 239.237 5.32549 237.443 3.82108ZM216.391 8.58644C216.036 8.75646 215.667 8.56934 215.522 8.2964C215.377 8.02347 215.456 7.66473 215.994 7.49175C217.071 7.14579 217.435 8.08706 216.391 8.58644ZM145.17 0C144.743 0.980871 143.987 1.68227 142.909 1.7841C141.251 1.94106 140.16 0.977973 139.646 0H138V4.94459C139.598 6.48962 141.89 7.16892 144.184 6.99077C146.833 6.78495 148.34 5.77896 149.061 5.23462C149.975 4.54465 149.683 3.65839 148.67 4.21688C147.944 4.61738 144.856 6.03894 142.764 5.6253C141.791 5.43318 141.952 4.42656 143.07 4.5085C144.422 4.60772 147.243 3.78051 149.005 2.34958C150.413 1.20567 150.772 0.52848 150.886 0H145.17ZM255.326 0.265036C253.708 1.07753 253.689 2.34873 256.202 1.77177C258.715 1.19488 263.732 3.3342 267.386 4.59107C271.039 5.84795 274.14 5.20945 275.567 4.71137C276.994 4.21329 276.593 3.07348 275.108 3.58298C273.622 4.09254 271.115 4.0048 270.428 3.80159C269.74 3.59861 269.725 2.80248 270.665 2.86095C271.605 2.91937 274.212 2.79816 276.19 2.00169C278.169 1.20528 278.357 0.639973 278.294 0.0701799C278.291 0.0510864 278.289 0.0273901 278.285 0H277.041C276.941 0.158658 276.78 0.319134 276.546 0.462278C275.466 1.12214 273.396 1.55731 272.743 1.57783C272.089 1.59823 271.819 0.920351 272.898 0.721177C273.61 0.589682 274.314 0.380904 275.101 0H268.094C267.971 0.0146611 267.847 0.0265945 267.721 0.0354025C267.18 0.0731349 266.646 0.0537572 266.113 0H255.892C255.705 0.0816587 255.517 0.169341 255.326 0.265036ZM158.143 0C158.047 0.156498 157.936 0.290664 157.811 0.396531C156.996 1.08833 156.432 0.49518 156.39 0H152.681C152.839 1.11907 153.449 2.35373 154.619 3.47712C157.475 6.21754 163.155 5.43352 164.662 0H163.005C162.997 0.0310837 162.99 0.0626221 162.981 0.0948991C162.627 1.37007 161.771 2.40549 160.469 2.86539C159.167 3.32522 159.32 2.43896 160.216 1.9943C161.058 1.57686 161.674 0.754079 161.968 0H158.143ZM279.824 0C279.873 0.49967 279.965 1.02349 280.098 1.5697C280.439 2.9625 281.113 4.08686 282 4.94459V0H279.824ZM140.23 3.76267C139.797 3.33136 139.422 3.33176 139.251 3.53303C139.079 3.73431 139.111 4.13641 139.491 4.50839C140.251 5.2523 141.1 4.62988 140.23 3.76267ZM277.867 2.62785C277.27 2.90886 277.085 3.33721 277.178 3.63282C277.272 3.92837 277.645 4.09118 278.162 3.8412C279.199 3.34102 279.067 2.06301 277.867 2.62785ZM150.899 2.32815C150.39 2.7802 150.313 3.24919 150.473 3.50559C150.633 3.76198 151.03 3.8058 151.47 3.4075C152.351 2.61075 151.922 1.41945 150.899 2.32815ZM267.377 3.42296C267.932 3.5985 268.269 3.41364 268.347 3.14787C268.425 2.88209 268.242 2.5354 267.758 2.38737C266.788 2.09113 266.261 3.0699 267.377 3.42296ZM140.939 0C141.276 0.385336 141.753 0.581044 142.241 0.582578C142.729 0.584113 143.227 0.391473 143.605 0H140.939ZM233.52 0C233.788 0.315099 234.049 0.445515 234.247 0.431933C234.444 0.418352 234.579 0.260831 234.594 0H233.52Z" fill="url(#paint1_linear_2644_1368)"/>
</g>
<defs>
<linearGradient id="paint0_linear_2644_1368" x1="138" y1="0" x2="139" y2="148" gradientUnits="userSpaceOnUse">
<stop stop-color="#656565"/>
<stop offset="0.783654" stop-color="#656565" stop-opacity="0.8"/>
</linearGradient>
<linearGradient id="paint1_linear_2644_1368" x1="138" y1="0" x2="139" y2="148" gradientUnits="userSpaceOnUse">
<stop stop-color="#656565"/>
<stop offset="0.783654" stop-color="#656565" stop-opacity="0.8"/>
</linearGradient>
</defs>
</svg>
