<svg width="21" height="19" viewBox="0 0 21 19" fill="none" xmlns="http://www.w3.org/2000/svg">
<path d="M10.4142 2.93827C10.3511 2.87787 10.2671 2.84416 10.1797 2.84416C10.0923 2.84416 10.0083 2.87787 9.94518 2.93827L2.1374 10.397C2.10424 10.4287 2.07786 10.4669 2.05985 10.5091C2.04185 10.5513 2.03259 10.5967 2.03264 10.6426L2.03137 17.6429C2.03137 18.0028 2.17436 18.348 2.42887 18.6025C2.68338 18.857 3.02857 19 3.38851 19H7.46417C7.64413 19 7.81673 18.9285 7.94399 18.8013C8.07124 18.674 8.14273 18.5014 8.14273 18.3214V12.5536C8.14273 12.4636 8.17848 12.3773 8.24211 12.3137C8.30574 12.2501 8.39204 12.2143 8.48202 12.2143H11.8749C11.9648 12.2143 12.0511 12.2501 12.1148 12.3137C12.1784 12.3773 12.2141 12.4636 12.2141 12.5536V18.3214C12.2141 18.5014 12.2856 18.674 12.4129 18.8013C12.5402 18.9285 12.7128 19 12.8927 19H16.9667C17.3266 19 17.6718 18.857 17.9263 18.6025C18.1808 18.348 18.3238 18.0028 18.3238 17.6429V10.6426C18.3239 10.5967 18.3146 10.5513 18.2966 10.5091C18.2786 10.4669 18.2522 10.4287 18.2191 10.397L10.4142 2.93827Z" fill="white"/>
<path d="M20.1412 8.9974L16.9689 5.9625V1.35714C16.9689 1.17717 16.8974 1.00457 16.7702 0.877317C16.6429 0.750061 16.4703 0.678569 16.2903 0.678569H14.2546C14.0747 0.678569 13.9021 0.750061 13.7748 0.877317C13.6476 1.00457 13.5761 1.17717 13.5761 1.35714V2.71428L11.1196 0.365579C10.8898 0.133169 10.5479 0 10.1786 0C9.81043 0 9.46945 0.133169 9.23958 0.366003L0.218855 8.99655C-0.0449391 9.25102 -0.0780194 9.66961 0.162024 9.94528C0.222303 10.0149 0.29611 10.0715 0.378954 10.1116C0.461798 10.1518 0.551945 10.1746 0.64391 10.1788C0.735876 10.183 0.827735 10.1685 0.913897 10.1361C1.00006 10.1036 1.07872 10.054 1.1451 9.99023L9.94529 1.58107C10.0084 1.52067 10.0924 1.48695 10.1798 1.48695C10.2672 1.48695 10.3512 1.52067 10.4144 1.58107L19.2154 9.99023C19.345 10.1146 19.5187 10.1824 19.6983 10.1789C19.8779 10.1754 20.0487 10.1009 20.1735 9.97157C20.4339 9.70184 20.4122 9.25653 20.1412 8.9974Z" fill="white"/>
</svg>
