<svg width="18" height="18" viewBox="0 0 18 18" fill="none" xmlns="http://www.w3.org/2000/svg">
<path d="M12.3766 13.5002L11.6266 12.7502C11.6266 12.7502 12.1433 12.0336 12.3266 11.8502L14.1766 10.0002C14.1766 10.0002 7.28492 10.0002 7.00159 10.0002C6.71825 10.0002 5.62659 10.1252 5.62659 10.1252V9.00024V7.87524L7.00159 8.00024H14.1766L12.3266 6.15024C12.1266 5.95024 11.6266 5.25024 11.6266 5.25024L12.3766 4.50024L12.7516 4.12524C12.7516 4.12524 13.5183 4.51691 13.7016 4.70024L17.3016 8.30025C17.4016 8.40024 17.6266 8.62524 17.6266 8.62524C17.6266 8.62524 18.0016 8.86691 18.0016 9.00024C18.0016 9.13358 17.6266 9.37524 17.6266 9.37524C17.6266 9.37524 17.4016 9.60024 17.3016 9.70024C17.3016 9.70024 13.9183 13.0836 13.7016 13.3002C13.4849 13.5169 12.7516 13.8752 12.7516 13.8752L12.3766 13.5002ZM2.00159 18.0002C1.45159 18.0002 0.376587 17.6252 0.376587 17.6252C0.376587 17.6252 0.00158691 16.5502 0.00158691 16.0002V2.00024L0.376587 0.375244L2.00159 0.000244141H3.75159C4.03492 0.000244141 9.00159 0.375244 9.00159 0.375244C9.00159 0.375244 9.00159 0.716911 9.00159 1.00024C9.00159 1.28358 9.00159 1.87524 9.00159 1.87524C9.00159 1.87524 4.78492 2.00024 4.50159 2.00024H2.00159V16.0002H6.00159L9.00159 15.7502C9.00159 15.7502 9.00159 16.7169 9.00159 17.0002C9.00159 17.2836 9.00159 18.0002 9.00159 18.0002C9.00159 18.0002 8.28492 18.0002 8.00159 18.0002H2.00159Z" fill="white"/>
</svg>
