<svg width="209" height="39" viewBox="0 0 209 39" fill="none" xmlns="http://www.w3.org/2000/svg">
<path d="M158.12 5.09619C159.503 5.09619 160.823 5.36198 162.069 5.896C163.297 6.42255 164.373 7.15664 165.288 8.09619C166.236 9.01429 166.976 10.0949 167.506 11.3296L167.696 11.7935C168.107 12.8871 168.309 14.0537 168.309 15.2856C168.309 16.5433 168.089 17.7395 167.647 18.8677L167.648 18.8687C167.235 19.989 166.644 21.0082 165.877 21.9224L165.872 21.9282L165.868 21.9331C165.096 22.8233 164.178 23.5622 163.12 24.1499C162.058 24.74 160.91 25.1365 159.681 25.3413L159.67 25.3433L150.453 26.7612V28.2446H168.309V37.1909H141.507V19.0806L142.268 18.9634L158.307 16.4995L158.31 16.4985C158.657 16.4464 158.885 16.3126 159.054 16.1157L159.057 16.1118C159.264 15.8724 159.364 15.6101 159.364 15.2856C159.364 14.9404 159.25 14.6795 159 14.4458L158.98 14.4263L158.959 14.4048C158.726 14.1557 158.465 14.0425 158.12 14.0425H141.507V5.09619H158.12ZM197.305 5.09619V14.0425H179.49V16.2866H197.305V21.1431C197.305 23.5281 196.926 25.727 196.155 27.728C195.412 29.6953 194.336 31.393 192.922 32.8071C191.509 34.2203 189.813 35.3095 187.847 36.0786L187.836 36.0825C185.861 36.8266 183.665 37.1909 181.258 37.1909H170.543V28.2446H181.258C182.383 28.2446 183.319 28.129 184.08 27.9155C184.858 27.6708 185.483 27.3634 185.976 27.0063C186.518 26.6056 186.938 26.1714 187.249 25.7075C187.349 25.5511 187.44 25.3926 187.524 25.2329H170.543V5.09619H197.305ZM207.515 1.21826L207.433 2.19092L206.504 13.2202L206.435 14.0425H200.585L200.514 13.2231L199.544 2.19482L199.458 1.21826H207.515Z" fill="#FF0000" stroke="black" stroke-width="1.7955"/>
<path d="M63.2574 5.41455V37.5093H54.3512V26.8843H47.7477C47.5889 28.2218 47.2247 29.5029 46.651 30.7241L46.652 30.7251C45.986 32.1729 45.085 33.4391 43.9498 34.5161C42.8204 35.5877 41.5186 36.4398 40.0514 37.0728L40.0377 37.0786C38.5503 37.6911 36.9656 37.9946 35.2926 37.9946H34.3942V29.0483H35.2926C35.7492 29.0483 36.1756 28.9718 36.5787 28.8257C36.9943 28.6485 37.3609 28.4216 37.6832 28.144C38.012 27.8344 38.2678 27.5006 38.4576 27.1421L38.4625 27.1343L38.4664 27.1265C38.5104 27.0473 38.5499 26.9664 38.5865 26.8843H34.3942V18.6655H38.8785V14.3608H34.3942V5.41455H63.2574ZM23.2848 5.41455C24.5545 5.41455 25.751 5.66584 26.8639 6.17236H26.8649C27.9908 6.64645 28.9784 7.3025 29.818 8.14209C30.651 8.97511 31.3028 9.95388 31.776 11.0688L31.9567 11.4907C32.3497 12.4851 32.5455 13.5358 32.5455 14.6353V37.5093H14.9625C13.7141 37.5092 12.5182 37.2707 11.3824 36.7925L11.3688 36.7876L11.3561 36.7808C10.2658 36.2798 9.30173 35.614 8.47034 34.7827C7.63884 33.9512 6.97232 32.9864 6.47131 31.896L6.46545 31.8833L6.45959 31.8696C5.98143 30.7339 5.7428 29.538 5.7428 28.2896V14.3608H1.09729V5.41455H23.2848ZM91.5573 1.49658V14.3608H74.4283V17.0093H91.5573V26.6733C91.5573 28.1619 91.265 29.5737 90.6783 30.8999L90.6793 30.9009C90.1248 32.2143 89.3606 33.363 88.3864 34.3374C87.4154 35.3083 86.2715 36.0836 84.9645 36.6646L84.9557 36.6685C83.6513 37.2317 82.2502 37.5093 80.7623 37.5093H65.4821V28.563H80.7623C81.2756 28.563 81.6948 28.3903 82.067 28.0181C82.4323 27.6526 82.6119 27.2228 82.6119 26.6733V25.9155H65.4821V5.41455H82.6119V1.49658H91.5573ZM108.652 5.41455V14.3608H104.894V28.563H108.652V37.5093H92.191V28.563H95.9489V14.3608H92.191V5.41455H108.652ZM136.177 1.49658V14.3608H119.048V17.0093H136.177V26.6733C136.177 28.1619 135.885 29.5737 135.298 30.8999L135.299 30.9009C134.745 32.2143 133.981 33.363 133.006 34.3374C132.036 35.3083 130.892 36.0836 129.585 36.6646L129.576 36.6685C128.271 37.2317 126.87 37.5093 125.382 37.5093H110.102V28.563H125.382C125.896 28.563 126.315 28.3902 126.687 28.0181C127.052 27.6526 127.232 27.2228 127.232 26.6733V25.9155H110.102V5.41455H127.232V1.49658H136.177ZM14.6891 28.2896C14.6891 28.3732 14.707 28.4356 14.7516 28.4985C14.8154 28.5444 14.8778 28.563 14.9625 28.563H23.5992V14.6353C23.5992 14.589 23.5913 14.5675 23.5875 14.5591C23.5838 14.5507 23.5727 14.5295 23.5367 14.4976L23.5172 14.48L23.4987 14.4614C23.4133 14.3761 23.3543 14.3608 23.2848 14.3608H14.6891V28.2896ZM47.8248 18.6655H54.3512V14.3608H47.8248V18.6655Z" fill="white" stroke="black" stroke-width="1.7955"/>
</svg>
