<svg width="126" height="14" viewBox="0 0 126 14" fill="none" xmlns="http://www.w3.org/2000/svg">
<g clip-path="url(#clip0_2644_1421)">
<path d="M94.0532 1.7934C94.8835 1.7934 95.6757 1.95343 96.4233 2.27387C97.1603 2.58977 97.8058 3.02962 98.355 3.5932C98.9236 4.14403 99.3669 4.79286 99.6851 5.53363L99.7993 5.81195C100.046 6.46816 100.167 7.16851 100.167 7.90766C100.167 8.66649 100.035 9.38859 99.7661 10.0688L99.7651 10.0678C99.5177 10.7355 99.1659 11.3437 98.7085 11.8891L98.7026 11.8959C98.2397 12.4301 97.6889 12.8734 97.0542 13.226C96.4169 13.5801 95.728 13.818 94.9907 13.9409L94.9839 13.9418L89.4536 14.7924V15.683H100.167V21.0502H84.0854V10.184L84.5425 10.1137L94.1655 8.6352H94.1675C94.376 8.60392 94.5125 8.52291 94.6138 8.40473L94.6157 8.40277C94.7401 8.25922 94.7992 8.10217 94.7993 7.90766C94.7993 7.70051 94.7311 7.54395 94.5815 7.40375L94.5698 7.39106L94.5571 7.37934C94.4169 7.22979 94.2604 7.16156 94.0532 7.16156H84.0854V1.7934H94.0532ZM117.565 1.7934V7.16156H106.875V8.50824H117.565V11.4223C117.565 12.8531 117.337 14.172 116.875 15.3725L116.874 15.3715C116.428 16.5522 115.784 17.5717 114.935 18.4204C114.087 19.2683 113.069 19.9218 111.89 20.3832L111.883 20.3852C110.699 20.8316 109.381 21.0502 107.937 21.0502H101.508V15.683H107.937C108.606 15.683 109.163 15.6144 109.617 15.4887C110.09 15.3407 110.472 15.1541 110.771 14.937C111.095 14.6972 111.345 14.437 111.531 14.1596C111.59 14.0658 111.645 13.9712 111.696 13.8754H101.508V1.7934H117.565ZM123.691 -0.533749L123.642 0.0502357L123.084 6.66742L123.042 7.16156H119.533L119.49 6.66938L118.908 0.0521889L118.857 -0.533749H123.691Z" fill="#FF0000" stroke="black" stroke-width="1.0773"/>
<path d="M36.8071 2.18501V21.4418H31.4634V15.0668H27.5005C27.4052 15.8694 27.1866 16.6378 26.8423 17.3706L26.8433 17.3715C26.4437 18.2401 25.9032 18.9998 25.2222 19.646C24.5446 20.2888 23.7635 20.7994 22.8833 21.1792L22.8745 21.1831C21.9821 21.5505 21.0316 21.7329 20.0278 21.7329H19.4888V16.3647H20.0278C20.3017 16.3647 20.5575 16.3195 20.7993 16.2319C21.049 16.1255 21.2688 15.9885 21.4624 15.8217C21.6595 15.6361 21.8134 15.4361 21.9272 15.2211L21.9321 15.2124C21.9584 15.165 21.9815 15.1159 22.0034 15.0668H19.4888V10.1352H22.1792V7.55318H19.4888V2.18501H36.8071ZM12.8237 2.18501C13.5917 2.18506 14.3155 2.33707 14.9878 2.64595H14.9868C15.656 2.9299 16.2437 3.32177 16.7437 3.82173C17.2434 4.32154 17.6346 4.90865 17.9185 5.57759L18.0269 5.83052C18.2626 6.42709 18.3794 7.05759 18.3794 7.71724V21.4418H7.83057C7.08156 21.4418 6.36352 21.299 5.68213 21.0122L5.6665 21.0043C5.01225 20.7037 4.43298 20.304 3.93408 19.8051C3.43536 19.3063 3.03539 18.7278 2.73486 18.0737L2.73193 18.0659L2.72803 18.0581C2.4411 17.3766 2.29834 16.6587 2.29834 15.9096V7.55318H-0.489746V2.18501H12.8237ZM53.7866 -0.16655V7.55318H43.5093V9.14204H53.7866V14.9399C53.7866 15.8332 53.6104 16.6802 53.2583 17.476L53.2603 17.477C52.9275 18.265 52.4688 18.9539 51.8843 19.5385C51.3018 20.121 50.6157 20.5865 49.8315 20.935L49.8257 20.937C49.0431 21.2748 48.2027 21.4418 47.3101 21.4418H38.1421V16.0737H47.3101C47.6178 16.0736 47.8691 15.9706 48.0923 15.7475C48.3116 15.5282 48.4194 15.2697 48.4194 14.9399V14.4848H38.1421V2.18501H48.4194V-0.16655H53.7866ZM64.0435 2.18501V7.55318H61.7896V16.0737H64.0435V21.4418H54.1675V16.0737H56.4214V7.55318H54.1675V2.18501H64.0435ZM80.5591 -0.16655V7.55318H70.2817V9.14204H80.5591V14.9399C80.5591 15.8331 80.3829 16.6802 80.0308 17.476L80.0317 17.477C79.699 18.2651 79.2404 18.9539 78.6558 19.5385C78.0732 20.1211 77.3872 20.5865 76.603 20.935L76.5981 20.937C75.8154 21.275 74.9743 21.4418 74.0815 21.4418H64.9136V16.0737H74.0815C74.3895 16.0737 74.6414 15.9708 74.8647 15.7475C75.0841 15.5282 75.1919 15.2697 75.1919 14.9399V14.4848H64.9136V2.18501H75.1919V-0.16655H80.5591ZM7.66553 15.9096C7.66553 15.9607 7.67781 15.9981 7.70557 16.0366C7.74317 16.063 7.78059 16.0737 7.83057 16.0737H13.0122V7.71724C13.0122 7.68923 13.0066 7.67631 13.0044 7.67134C13.002 7.66618 12.9954 7.65411 12.9741 7.63521L12.9624 7.62447L12.9517 7.61275C12.9006 7.56177 12.8653 7.55323 12.8237 7.55318H7.66553V15.9096ZM27.5474 10.1352H31.4634V7.55318H27.5474V10.1352Z" fill="white" fill-opacity="0.8" stroke="black" stroke-width="1.0773"/>
</g>
<defs>
<clipPath id="clip0_2644_1421">
<rect width="126" height="12.6" fill="white" transform="translate(-0.00524902 0.699806)"/>
</clipPath>
</defs>
</svg>
