<svg width="168" height="18" viewBox="0 0 168 18" fill="none" xmlns="http://www.w3.org/2000/svg">
<g clip-path="url(#clip0_2644_1440)">
<path opacity="0.8" d="M125.357 -8.77386C126.464 -8.77383 127.52 -8.56143 128.516 -8.13421C129.499 -7.71302 130.359 -7.12592 131.092 -6.37444C131.851 -5.63856 132.445 -4.77181 132.869 -3.78167H132.868C133.297 -2.80246 133.509 -1.74665 133.509 -0.62249C133.509 0.38361 133.332 1.34028 132.978 2.24274L132.979 2.24372C132.649 3.13996 132.177 3.95575 131.563 4.68708L131.555 4.69587C130.938 5.40788 130.204 5.99924 129.358 6.46931C128.508 6.94143 127.589 7.25858 126.606 7.42243L126.597 7.42341L119.223 8.55817V9.7447H133.509V16.9019H112.067V2.41267L112.676 2.31989L125.507 0.348213L125.509 0.347237C125.786 0.305566 125.969 0.198945 126.104 0.0415726L126.107 0.0386429C126.273 -0.152848 126.351 -0.362983 126.351 -0.62249C126.351 -0.898689 126.261 -1.10743 126.061 -1.29436L126.045 -1.30999L126.029 -1.32757C125.842 -1.52687 125.633 -1.61757 125.357 -1.61761H112.067V-8.77386H125.357ZM156.706 -8.77386V-1.61761H142.453V0.178291H156.706V4.06403C156.706 5.96987 156.402 7.72642 155.786 9.32575C155.192 10.9016 154.331 12.2616 153.199 13.3941C152.068 14.5247 150.711 15.396 149.138 16.0113L149.131 16.0152C147.551 16.6105 145.793 16.9019 143.868 16.9019H135.296V9.7447H143.868C144.766 9.74468 145.513 9.65285 146.121 9.48298C146.747 9.28619 147.252 9.03834 147.647 8.75056C148.08 8.42985 148.414 8.08169 148.663 7.71052C148.741 7.5866 148.813 7.46102 148.88 7.33454H135.296V-8.77386H156.706ZM164.874 -11.8764L164.807 -11.0981L164.064 -2.27483L164.009 -1.61761H159.33L159.272 -2.27288L158.497 -11.0961L158.427 -11.8764H164.874Z" fill="#FF0000" stroke="black" stroke-width="1.4364"/>
<path d="M49.0332 -8.91835V16.7574H41.9092V8.25743H36.626C36.4989 9.32727 36.207 10.3518 35.748 11.3287L35.749 11.3297C35.2162 12.4879 34.4951 13.5004 33.5869 14.3619C32.6833 15.2192 31.6425 15.9015 30.4688 16.4078L30.458 16.4117C29.268 16.9017 27.9997 17.1451 26.6611 17.1451H25.9434V9.9879H26.6611C27.026 9.9879 27.3672 9.92772 27.6895 9.81114C28.0196 9.6705 28.3108 9.48989 28.5674 9.27013C28.8335 9.02077 29.0413 8.75262 29.1943 8.46349L29.1973 8.45665L29.2012 8.45079C29.2362 8.38773 29.2667 8.32279 29.2959 8.25743H25.9434V1.68224H29.5303V-1.7621H25.9434V-8.91835H49.0332ZM17.0557 -8.91835C18.0714 -8.91834 19.0286 -8.71811 19.9189 -8.31288H19.9199C20.8206 -7.93361 21.6106 -7.40836 22.2822 -6.73671C22.9538 -6.06506 23.4792 -5.27511 23.8584 -4.3744H23.8574C24.2619 -3.4862 24.4639 -2.53964 24.4639 -1.54237V16.7574H10.3975C9.39877 16.7574 8.44173 16.5658 7.5332 16.1832L7.52344 16.1793L7.5127 16.1744C6.64035 15.7736 5.8693 15.24 5.2041 14.5748C4.53892 13.9096 4.00529 13.1385 3.60449 12.2662L3.59961 12.2565L3.5957 12.2457C3.21316 11.3372 3.02152 10.3802 3.02148 9.38145V-1.7621H-0.694336V-8.91835H17.0557ZM71.6738 -12.0531V-1.7621H57.9707V0.35704H71.6738V8.08849C71.6738 9.28411 71.439 10.4184 70.9658 11.483L70.9648 11.482C70.5216 12.5278 69.9132 13.4428 69.1367 14.2193C68.36 14.996 67.445 15.616 66.3994 16.0807L66.3926 16.0846C65.349 16.5352 64.2275 16.7574 63.0371 16.7574H50.8135V9.6002H63.0371C63.4478 9.6002 63.7833 9.46145 64.0811 9.16368C64.3733 8.87132 64.5166 8.52802 64.5166 8.08849V7.48106H50.8135V-8.91835H64.5166V-12.0531H71.6738ZM85.3486 -8.91835V-1.7621H82.3438V9.6002H85.3486V16.7574H72.1807V9.6002H75.1865V-1.7621H72.1807V-8.91835H85.3486ZM107.37 -12.0531V-1.7621H93.667V0.35704H107.37V8.08849C107.37 9.27932 107.135 10.4084 106.666 11.4693L106.667 11.4703C106.223 12.5212 105.612 13.4398 104.832 14.2193C104.055 14.996 103.141 15.616 102.096 16.0807L102.089 16.0846C101.045 16.5352 99.9238 16.7574 98.7334 16.7574H86.5098V9.6002H98.7334C99.144 9.6002 99.4796 9.46145 99.7773 9.16368C100.069 8.87134 100.213 8.52797 100.213 8.08849V7.48106H86.5098V-8.91835H100.213V-12.0531H107.37ZM10.1787 9.38145C10.1788 9.44912 10.1948 9.49845 10.2314 9.54942C10.2817 9.58491 10.3308 9.60015 10.3975 9.6002H17.3066V-1.54237C17.3066 -1.57972 17.3008 -1.59727 17.2979 -1.6039C17.2948 -1.61072 17.2853 -1.6274 17.2568 -1.65273L17.2412 -1.6664L17.2266 -1.68105C17.1583 -1.74929 17.1112 -1.76208 17.0557 -1.7621H10.1787V9.38145ZM36.6875 1.68224H41.9092V-1.7621H36.6875V1.68224Z" fill="white" stroke="black" stroke-width="1.4364"/>
</g>
<defs>
<clipPath id="clip0_2644_1440">
<rect width="168" height="16.8" fill="white" transform="translate(-0.00524902 0.849808)"/>
</clipPath>
</defs>
</svg>
