<svg width="168" height="22" viewBox="0 0 168 22" fill="none" xmlns="http://www.w3.org/2000/svg">
<g clip-path="url(#clip0_2644_1444)">
<path d="M49.0332 2.88594V28.5617H41.9092V20.0617H36.626C36.4989 21.1316 36.207 22.1561 35.748 23.133L35.749 23.134C35.2162 24.2922 34.4951 25.3046 33.5869 26.1662C32.6833 27.0235 31.6425 27.7058 30.4688 28.2121L30.458 28.216C29.268 28.706 27.9997 28.9494 26.6611 28.9494H25.9434V21.7922H26.6611C27.026 21.7922 27.3672 21.732 27.6895 21.6154C28.0196 21.4748 28.3108 21.2942 28.5674 21.0744C28.8335 20.8251 29.0413 20.5569 29.1943 20.2678L29.1973 20.2609L29.2012 20.2551C29.2362 20.192 29.2667 20.1271 29.2959 20.0617H25.9434V13.4865H29.5303V10.0422H25.9434V2.88594H49.0332ZM17.0557 2.88594C18.0714 2.88595 19.0286 3.08617 19.9189 3.49141H19.9199C20.8206 3.87068 21.6106 4.39592 22.2822 5.06758C22.9538 5.73923 23.4792 6.52918 23.8584 7.42988H23.8574C24.2619 8.31808 24.4639 9.26465 24.4639 10.2619V28.5617H10.3975C9.39877 28.5617 8.44173 28.37 7.5332 27.9875L7.52344 27.9836L7.5127 27.9787C6.64035 27.5779 5.8693 27.0443 5.2041 26.3791C4.53892 25.7139 4.00529 24.9428 3.60449 24.0705L3.59961 24.0607L3.5957 24.05C3.21316 23.1415 3.02152 22.1845 3.02148 21.1857V10.0422H-0.694336V2.88594H17.0557ZM71.6738 -0.248829V10.0422H57.9707V12.1613H71.6738V19.8928C71.6738 21.0884 71.439 22.2226 70.9658 23.2873L70.9648 23.2863C70.5216 24.332 69.9132 25.2471 69.1367 26.0236C68.36 26.8003 67.445 27.4202 66.3994 27.885L66.3926 27.8889C65.349 28.3395 64.2275 28.5617 63.0371 28.5617H50.8135V21.4045H63.0371C63.4478 21.4045 63.7833 21.2657 64.0811 20.968C64.3733 20.6756 64.5166 20.3323 64.5166 19.8928V19.2854H50.8135V2.88594H64.5166V-0.248829H71.6738ZM85.3486 2.88594V10.0422H82.3438V21.4045H85.3486V28.5617H72.1807V21.4045H75.1865V10.0422H72.1807V2.88594H85.3486ZM107.37 -0.248829V10.0422H93.667V12.1613H107.37V19.8928C107.37 21.0836 107.135 22.2127 106.666 23.2736L106.667 23.2746C106.223 24.3255 105.612 25.2441 104.832 26.0236C104.055 26.8003 103.141 27.4203 102.096 27.885L102.089 27.8889C101.045 28.3395 99.9238 28.5617 98.7334 28.5617H86.5098V21.4045H98.7334C99.144 21.4045 99.4796 21.2657 99.7773 20.968C100.069 20.6756 100.213 20.3323 100.213 19.8928V19.2854H86.5098V2.88594H100.213V-0.248829H107.37ZM10.1787 21.1857C10.1788 21.2534 10.1948 21.3027 10.2314 21.3537C10.2817 21.3892 10.3308 21.4044 10.3975 21.4045H17.3066V10.2619C17.3066 10.2246 17.3008 10.207 17.2979 10.2004C17.2948 10.1936 17.2853 10.1769 17.2568 10.1516L17.2412 10.1379L17.2266 10.1232C17.1583 10.055 17.1112 10.0422 17.0557 10.0422H10.1787V21.1857ZM36.6875 13.4865H41.9092V10.0422H36.6875V13.4865Z" fill="white" fill-opacity="0.6" stroke="black" stroke-width="1.4364"/>
<mask id="path-2-outside-1_2644_1444" maskUnits="userSpaceOnUse" x="-1.97656" y="-1.53106" width="168" height="32" fill="black">
<rect fill="white" x="-1.97656" y="-1.53106" width="168" height="32"/>
<path d="M118.505 19.7472V22.2681H132.79V27.9886H112.785V14.8347L125.616 12.8633C126.046 12.7986 126.391 12.6155 126.65 12.3139C126.93 11.9907 127.07 11.6136 127.07 11.1827C127.07 10.7087 126.898 10.3101 126.553 9.98689C126.23 9.64215 125.831 9.46979 125.357 9.46979H112.785V3.74932H125.357C126.37 3.74932 127.328 3.94324 128.233 4.33106C129.138 4.71889 129.925 5.25754 130.593 5.94701C131.282 6.61494 131.821 7.40137 132.209 8.3063C132.596 9.18969 132.79 10.1485 132.79 11.1827C132.79 12.1092 132.629 12.9818 132.306 13.8005C132.004 14.6193 131.573 15.3626 131.013 16.0305C130.453 16.6769 129.785 17.2156 129.009 17.6465C128.233 18.0774 127.393 18.3683 126.488 18.5191L118.505 19.7472Z"/>
<path d="M136.014 3.74932H155.987V9.46979H141.735V12.7017H155.987V15.8689C155.987 17.7004 155.696 19.3702 155.115 20.8784C154.555 22.3651 153.747 23.6363 152.691 24.692C151.635 25.7478 150.364 26.5665 148.877 27.1483C147.39 27.7085 145.721 27.9886 143.868 27.9886H136.014V22.2681H143.868C144.816 22.2681 145.634 22.1712 146.324 21.9772C147.013 21.7618 147.595 21.4817 148.069 21.1369C148.565 20.7707 148.963 20.3613 149.265 19.9088C149.567 19.4348 149.793 18.9393 149.944 18.4221H136.014V3.74932Z"/>
<path d="M159.212 0.646699H164.092L163.349 9.46979H159.988L159.212 0.646699Z"/>
<path d="M17.0556 3.60389C17.982 3.60389 18.8439 3.78703 19.6411 4.15331C20.4598 4.49805 21.1708 4.97206 21.7741 5.57535C22.3774 6.17864 22.8514 6.88965 23.1962 7.7084C23.5624 8.5056 23.7456 9.35667 23.7456 10.2616V27.8431H10.3978C9.49291 27.8431 8.63106 27.6708 7.81232 27.326C7.01511 26.9598 6.31487 26.475 5.71158 25.8717C5.10829 25.2684 4.62351 24.5681 4.25723 23.7709C3.91249 22.9522 3.74012 22.0904 3.74012 21.1854V9.32435H0.0234375V3.60389H17.0556ZM18.0251 10.2616C18.0251 10.003 17.9282 9.78759 17.7342 9.61522C17.5403 9.42131 17.3141 9.32435 17.0556 9.32435H9.46059V21.1854C9.46059 21.444 9.54677 21.6702 9.71914 21.8641C9.91305 22.0365 10.1393 22.1227 10.3978 22.1227H18.0251V10.2616Z"/>
<path d="M26.6614 3.60389H48.3151V27.8431H42.6269V19.3432H35.9692C35.9046 20.5714 35.6137 21.7348 35.0966 22.8337C34.6011 23.911 33.9331 24.8482 33.0928 25.6454C32.2526 26.4426 31.283 27.0783 30.1841 27.5523C29.0853 28.0047 27.911 28.231 26.6614 28.231V22.5105C27.1138 22.5105 27.5447 22.4351 27.9541 22.2843C28.3635 22.1119 28.7298 21.8857 29.053 21.6056C29.3762 21.3039 29.6347 20.97 29.8286 20.6037C30.0441 20.2159 30.1734 19.7957 30.2165 19.3432H26.6614V14.2045H30.2488V9.32435H26.6614V3.60389ZM42.6269 9.32435H35.9692V14.2045H42.6269V9.32435Z"/>
<path d="M65.2351 0.468945H70.9556V9.32435H57.2523V12.8794H70.9556V19.8927C70.9556 20.9915 70.7401 22.0257 70.3092 22.9953C69.8998 23.9649 69.3396 24.8052 68.6286 25.5162C67.9176 26.2272 67.0773 26.7982 66.1077 27.2291C65.1597 27.6385 64.1363 27.8431 63.0374 27.8431H51.5318V22.1227H63.0374C63.6407 22.1227 64.1578 21.9072 64.5887 21.4763C65.0196 21.0454 65.2351 20.5175 65.2351 19.8927V18.5676H51.5318V3.60389H65.2351V0.468945Z"/>
<path d="M72.899 3.60389H84.6308V9.32435H81.6251V22.1227H84.6308V27.8431H72.899V22.1227H75.9047V9.32435H72.899V3.60389Z"/>
<path d="M100.931 0.468945H106.652V9.32435H92.9484V12.8794H106.652V19.8927C106.652 20.9915 106.436 22.0257 106.005 22.9953C105.596 23.9649 105.036 24.8052 104.325 25.5162C103.614 26.2272 102.773 26.7982 101.804 27.2291C100.856 27.6385 99.8323 27.8431 98.7335 27.8431H87.2279V22.1227H98.7335C99.3368 22.1227 99.8539 21.9072 100.285 21.4763C100.716 21.0454 100.931 20.5175 100.931 19.8927V18.5676H87.2279V3.60389H100.931V0.468945Z"/>
</mask>
<path d="M118.505 19.7472V22.2681H132.79V27.9886H112.785V14.8347L125.616 12.8633C126.046 12.7986 126.391 12.6155 126.65 12.3139C126.93 11.9907 127.07 11.6136 127.07 11.1827C127.07 10.7087 126.898 10.3101 126.553 9.98689C126.23 9.64215 125.831 9.46979 125.357 9.46979H112.785V3.74932H125.357C126.37 3.74932 127.328 3.94324 128.233 4.33106C129.138 4.71889 129.925 5.25754 130.593 5.94701C131.282 6.61494 131.821 7.40137 132.209 8.3063C132.596 9.18969 132.79 10.1485 132.79 11.1827C132.79 12.1092 132.629 12.9818 132.306 13.8005C132.004 14.6193 131.573 15.3626 131.013 16.0305C130.453 16.6769 129.785 17.2156 129.009 17.6465C128.233 18.0774 127.393 18.3683 126.488 18.5191L118.505 19.7472Z" fill="#FF0000"/>
<path d="M136.014 3.74932H155.987V9.46979H141.735V12.7017H155.987V15.8689C155.987 17.7004 155.696 19.3702 155.115 20.8784C154.555 22.3651 153.747 23.6363 152.691 24.692C151.635 25.7478 150.364 26.5665 148.877 27.1483C147.39 27.7085 145.721 27.9886 143.868 27.9886H136.014V22.2681H143.868C144.816 22.2681 145.634 22.1712 146.324 21.9772C147.013 21.7618 147.595 21.4817 148.069 21.1369C148.565 20.7707 148.963 20.3613 149.265 19.9088C149.567 19.4348 149.793 18.9393 149.944 18.4221H136.014V3.74932Z" fill="#FF0000"/>
<path d="M159.212 0.646699H164.092L163.349 9.46979H159.988L159.212 0.646699Z" fill="#FF0000"/>
<path d="M17.0556 3.60389C17.982 3.60389 18.8439 3.78703 19.6411 4.15331C20.4598 4.49805 21.1708 4.97206 21.7741 5.57535C22.3774 6.17864 22.8514 6.88965 23.1962 7.7084C23.5624 8.5056 23.7456 9.35667 23.7456 10.2616V27.8431H10.3978C9.49291 27.8431 8.63106 27.6708 7.81232 27.326C7.01511 26.9598 6.31487 26.475 5.71158 25.8717C5.10829 25.2684 4.62351 24.5681 4.25723 23.7709C3.91249 22.9522 3.74012 22.0904 3.74012 21.1854V9.32435H0.0234375V3.60389H17.0556ZM18.0251 10.2616C18.0251 10.003 17.9282 9.78759 17.7342 9.61522C17.5403 9.42131 17.3141 9.32435 17.0556 9.32435H9.46059V21.1854C9.46059 21.444 9.54677 21.6702 9.71914 21.8641C9.91305 22.0365 10.1393 22.1227 10.3978 22.1227H18.0251V10.2616Z" fill="white" fill-opacity="0.6"/>
<path d="M26.6614 3.60389H48.3151V27.8431H42.6269V19.3432H35.9692C35.9046 20.5714 35.6137 21.7348 35.0966 22.8337C34.6011 23.911 33.9331 24.8482 33.0928 25.6454C32.2526 26.4426 31.283 27.0783 30.1841 27.5523C29.0853 28.0047 27.911 28.231 26.6614 28.231V22.5105C27.1138 22.5105 27.5447 22.4351 27.9541 22.2843C28.3635 22.1119 28.7298 21.8857 29.053 21.6056C29.3762 21.3039 29.6347 20.97 29.8286 20.6037C30.0441 20.2159 30.1734 19.7957 30.2165 19.3432H26.6614V14.2045H30.2488V9.32435H26.6614V3.60389ZM42.6269 9.32435H35.9692V14.2045H42.6269V9.32435Z" fill="white" fill-opacity="0.6"/>
<path d="M65.2351 0.468945H70.9556V9.32435H57.2523V12.8794H70.9556V19.8927C70.9556 20.9915 70.7401 22.0257 70.3092 22.9953C69.8998 23.9649 69.3396 24.8052 68.6286 25.5162C67.9176 26.2272 67.0773 26.7982 66.1077 27.2291C65.1597 27.6385 64.1363 27.8431 63.0374 27.8431H51.5318V22.1227H63.0374C63.6407 22.1227 64.1578 21.9072 64.5887 21.4763C65.0196 21.0454 65.2351 20.5175 65.2351 19.8927V18.5676H51.5318V3.60389H65.2351V0.468945Z" fill="white" fill-opacity="0.6"/>
<path d="M72.899 3.60389H84.6308V9.32435H81.6251V22.1227H84.6308V27.8431H72.899V22.1227H75.9047V9.32435H72.899V3.60389Z" fill="white" fill-opacity="0.6"/>
<path d="M100.931 0.468945H106.652V9.32435H92.9484V12.8794H106.652V19.8927C106.652 20.9915 106.436 22.0257 106.005 22.9953C105.596 23.9649 105.036 24.8052 104.325 25.5162C103.614 26.2272 102.773 26.7982 101.804 27.2291C100.856 27.6385 99.8323 27.8431 98.7335 27.8431H87.2279V22.1227H98.7335C99.3368 22.1227 99.8539 21.9072 100.285 21.4763C100.716 21.0454 100.931 20.5175 100.931 19.8927V18.5676H87.2279V3.60389H100.931V0.468945Z" fill="white" fill-opacity="0.6"/>
<path d="M118.505 19.7472V22.2681H132.79V27.9886H112.785V14.8347L125.616 12.8633C126.046 12.7986 126.391 12.6155 126.65 12.3139C126.93 11.9907 127.07 11.6136 127.07 11.1827C127.07 10.7087 126.898 10.3101 126.553 9.98689C126.23 9.64215 125.831 9.46979 125.357 9.46979H112.785V3.74932H125.357C126.37 3.74932 127.328 3.94324 128.233 4.33106C129.138 4.71889 129.925 5.25754 130.593 5.94701C131.282 6.61494 131.821 7.40137 132.209 8.3063C132.596 9.18969 132.79 10.1485 132.79 11.1827C132.79 12.1092 132.629 12.9818 132.306 13.8005C132.004 14.6193 131.573 15.3626 131.013 16.0305C130.453 16.6769 129.785 17.2156 129.009 17.6465C128.233 18.0774 127.393 18.3683 126.488 18.5191L118.505 19.7472Z" stroke="black" stroke-width="2.8728" mask="url(#path-2-outside-1_2644_1444)"/>
<path d="M136.014 3.74932H155.987V9.46979H141.735V12.7017H155.987V15.8689C155.987 17.7004 155.696 19.3702 155.115 20.8784C154.555 22.3651 153.747 23.6363 152.691 24.692C151.635 25.7478 150.364 26.5665 148.877 27.1483C147.39 27.7085 145.721 27.9886 143.868 27.9886H136.014V22.2681H143.868C144.816 22.2681 145.634 22.1712 146.324 21.9772C147.013 21.7618 147.595 21.4817 148.069 21.1369C148.565 20.7707 148.963 20.3613 149.265 19.9088C149.567 19.4348 149.793 18.9393 149.944 18.4221H136.014V3.74932Z" stroke="black" stroke-width="2.8728" mask="url(#path-2-outside-1_2644_1444)"/>
<path d="M159.212 0.646699H164.092L163.349 9.46979H159.988L159.212 0.646699Z" stroke="black" stroke-width="2.8728" mask="url(#path-2-outside-1_2644_1444)"/>
<path d="M17.0556 3.60389C17.982 3.60389 18.8439 3.78703 19.6411 4.15331C20.4598 4.49805 21.1708 4.97206 21.7741 5.57535C22.3774 6.17864 22.8514 6.88965 23.1962 7.7084C23.5624 8.5056 23.7456 9.35667 23.7456 10.2616V27.8431H10.3978C9.49291 27.8431 8.63106 27.6708 7.81232 27.326C7.01511 26.9598 6.31487 26.475 5.71158 25.8717C5.10829 25.2684 4.62351 24.5681 4.25723 23.7709C3.91249 22.9522 3.74012 22.0904 3.74012 21.1854V9.32435H0.0234375V3.60389H17.0556ZM18.0251 10.2616C18.0251 10.003 17.9282 9.78759 17.7342 9.61522C17.5403 9.42131 17.3141 9.32435 17.0556 9.32435H9.46059V21.1854C9.46059 21.444 9.54677 21.6702 9.71914 21.8641C9.91305 22.0365 10.1393 22.1227 10.3978 22.1227H18.0251V10.2616Z" stroke="black" stroke-width="2.8728" mask="url(#path-2-outside-1_2644_1444)"/>
<path d="M26.6614 3.60389H48.3151V27.8431H42.6269V19.3432H35.9692C35.9046 20.5714 35.6137 21.7348 35.0966 22.8337C34.6011 23.911 33.9331 24.8482 33.0928 25.6454C32.2526 26.4426 31.283 27.0783 30.1841 27.5523C29.0853 28.0047 27.911 28.231 26.6614 28.231V22.5105C27.1138 22.5105 27.5447 22.4351 27.9541 22.2843C28.3635 22.1119 28.7298 21.8857 29.053 21.6056C29.3762 21.3039 29.6347 20.97 29.8286 20.6037C30.0441 20.2159 30.1734 19.7957 30.2165 19.3432H26.6614V14.2045H30.2488V9.32435H26.6614V3.60389ZM42.6269 9.32435H35.9692V14.2045H42.6269V9.32435Z" stroke="black" stroke-width="2.8728" mask="url(#path-2-outside-1_2644_1444)"/>
<path d="M65.2351 0.468945H70.9556V9.32435H57.2523V12.8794H70.9556V19.8927C70.9556 20.9915 70.7401 22.0257 70.3092 22.9953C69.8998 23.9649 69.3396 24.8052 68.6286 25.5162C67.9176 26.2272 67.0773 26.7982 66.1077 27.2291C65.1597 27.6385 64.1363 27.8431 63.0374 27.8431H51.5318V22.1227H63.0374C63.6407 22.1227 64.1578 21.9072 64.5887 21.4763C65.0196 21.0454 65.2351 20.5175 65.2351 19.8927V18.5676H51.5318V3.60389H65.2351V0.468945Z" stroke="black" stroke-width="2.8728" mask="url(#path-2-outside-1_2644_1444)"/>
<path d="M72.899 3.60389H84.6308V9.32435H81.6251V22.1227H84.6308V27.8431H72.899V22.1227H75.9047V9.32435H72.899V3.60389Z" stroke="black" stroke-width="2.8728" mask="url(#path-2-outside-1_2644_1444)"/>
<path d="M100.931 0.468945H106.652V9.32435H92.9484V12.8794H106.652V19.8927C106.652 20.9915 106.436 22.0257 106.005 22.9953C105.596 23.9649 105.036 24.8052 104.325 25.5162C103.614 26.2272 102.773 26.7982 101.804 27.2291C100.856 27.6385 99.8323 27.8431 98.7335 27.8431H87.2279V22.1227H98.7335C99.3368 22.1227 99.8539 21.9072 100.285 21.4763C100.716 21.0454 100.931 20.5175 100.931 19.8927V18.5676H87.2279V3.60389H100.931V0.468945Z" stroke="black" stroke-width="2.8728" mask="url(#path-2-outside-1_2644_1444)"/>
</g>
<defs>
<clipPath id="clip0_2644_1444">
<rect width="168" height="21" fill="white" transform="translate(-0.00524902 0.249805)"/>
</clipPath>
</defs>
</svg>
