<svg width="136" height="15" viewBox="0 0 136 15" fill="none" xmlns="http://www.w3.org/2000/svg">
<g clip-path="url(#clip0_2644_1432)">
<path d="M101.136 -5.20409C102.021 -5.20409 102.866 -5.03409 103.663 -4.69238C104.449 -4.35542 105.138 -3.88537 105.724 -3.28417C106.33 -2.69663 106.804 -2.00499 107.144 -1.21484L107.265 -0.917961C107.528 -0.21794 107.657 0.528882 107.657 1.31739C107.657 2.12694 107.516 2.8974 107.229 3.62305L107.229 3.62208C106.965 4.33443 106.589 4.98358 106.101 5.56544L106.095 5.57227C105.601 6.14191 105.014 6.61515 104.337 6.99122C103.657 7.36892 102.921 7.62186 102.135 7.75294L102.128 7.75489L96.2295 8.66212V9.61134H107.657V15.3369H90.5039V3.7461L90.9912 3.67091L101.256 2.09376H101.258C101.48 2.06038 101.625 1.97447 101.733 1.84864L101.735 1.84571C101.868 1.69249 101.932 1.52505 101.932 1.31739C101.932 1.09647 101.859 0.929808 101.699 0.780281L101.686 0.767586L101.673 0.753914C101.523 0.5945 101.357 0.521492 101.136 0.521492H90.5039V-5.20409H101.136ZM126.215 -5.20409V0.521492H114.812V1.95802H126.215V5.06641C126.215 6.59292 125.973 8.00054 125.479 9.28126L125.478 9.28028C125.002 10.5394 124.314 11.6262 123.409 12.5313C122.505 13.4357 121.419 14.1328 120.161 14.625L120.154 14.6279C118.89 15.1041 117.484 15.3369 115.944 15.3369H109.087V9.61134H115.944C116.658 9.61134 117.253 9.53852 117.737 9.4043C118.241 9.247 118.646 9.04888 118.964 8.81837C119.313 8.56061 119.582 8.28099 119.781 7.98243C119.844 7.88398 119.9 7.78407 119.953 7.6836H109.087V-5.20409H126.215ZM132.749 -7.68554L132.696 -7.06347L132.102 -0.00487518L132.058 0.521492H128.314L128.268 -0.00292206L127.647 -7.06054L127.593 -7.68554H132.749Z" fill="#FF0000" stroke="black" stroke-width="1.14912"/>
<path d="M40.0764 -5.5202V15.0198H34.3762V8.22003H30.1506C30.0488 9.07778 29.815 9.89987 29.4465 10.6829C29.0205 11.6075 28.4443 12.4157 27.719 13.1038C26.9962 13.7896 26.1638 14.3355 25.2249 14.7405L25.2161 14.7444C24.2641 15.1364 23.2497 15.3304 22.179 15.3304H21.6038V9.6048H22.179C22.4726 9.60477 22.7469 9.55568 23.0061 9.46124C23.2689 9.34876 23.501 9.20491 23.7053 9.0296C23.9175 8.83052 24.0822 8.61582 24.2043 8.38507L24.2102 8.37531L24.2864 8.22003H21.6038V2.96027H24.4739V0.205383H21.6038V-5.5202H40.0764ZM14.4944 -5.5202C15.3068 -5.52017 16.0723 -5.35989 16.7844 -5.03583H16.7854C17.506 -4.73244 18.1377 -4.31236 18.675 -3.77509C19.2081 -3.24202 19.6251 -2.61551 19.928 -1.90204H19.929C20.2576 -1.18673 20.4211 -0.423774 20.4211 0.380188V15.0198H9.16821C8.36915 15.0198 7.60313 14.8679 6.87622 14.5618L6.86841 14.5579L6.85962 14.554C6.16182 14.2334 5.54506 13.8068 5.01294 13.2747C4.48088 12.7427 4.05427 12.1257 3.73364 11.428L3.72583 11.4105C3.41985 10.6837 3.26685 9.91838 3.26685 9.11945V0.205383H0.294189V-5.5202H14.4944ZM58.1887 -8.02802V0.205383H47.2258V1.89972H58.1887V8.08527C58.1887 9.04176 58.0009 9.94935 57.6223 10.8011L57.6213 10.8001C57.2667 11.6368 56.7797 12.3693 56.1584 12.9905C55.5371 13.6118 54.8054 14.1081 53.969 14.4798L53.9631 14.4818C53.1284 14.8422 52.2317 15.0198 51.2795 15.0198H41.5002V9.29425H51.2795C51.6081 9.29425 51.8763 9.18383 52.1145 8.94562C52.3483 8.7117 52.4631 8.43694 52.4631 8.08527V7.59991H41.5002V-5.5202H52.4631V-8.02802H58.1887ZM69.1292 -5.5202V0.205383H66.7239V9.29425H69.1292V15.0198H58.594V9.29425H60.9993V0.205383H58.594V-5.5202H69.1292ZM86.7454 -8.02802V0.205383H75.7825V1.89972H86.7454V8.08527C86.7453 9.04177 86.5575 9.94936 86.179 10.8011L86.178 10.8001C85.8234 11.6367 85.3373 12.3693 84.7161 12.9905C84.0947 13.6119 83.3621 14.108 82.5256 14.4798L82.5208 14.4818C81.6859 14.8423 80.7885 15.0198 79.8362 15.0198H70.0579V9.29425H79.8362C80.1647 9.29425 80.4329 9.18383 80.6711 8.94562C80.9051 8.71168 81.0198 8.437 81.0198 8.08527V7.59991H70.0579V-5.5202H81.0198V-8.02802H86.7454ZM8.99243 9.11945C8.99244 9.17217 9.00392 9.2116 9.03149 9.25128C9.07294 9.28158 9.11317 9.29425 9.16821 9.29425H14.6956V0.380188C14.6955 0.350412 14.6901 0.336657 14.6877 0.33136C14.6852 0.325857 14.6782 0.312465 14.6555 0.292297L14.6428 0.281555L14.6311 0.269836C14.5766 0.215321 14.5388 0.205425 14.4944 0.205383H8.99243V9.11945ZM30.1995 2.96027H34.3762V0.205383H30.1995V2.96027Z" fill="white" stroke="black" stroke-width="1.14912"/>
</g>
<defs>
<clipPath id="clip0_2644_1432">
<rect width="134.4" height="13.65" fill="white" transform="translate(0.744751 0.649811)"/>
</clipPath>
</defs>
</svg>
