<svg width="198" height="101" viewBox="0 0 198 101" fill="none" xmlns="http://www.w3.org/2000/svg">
<g opacity="0.8" clip-path="url(#clip0_4764_3736)">
<path d="M137.854 5.09341C138.684 5.09341 139.476 5.25345 140.224 5.57388C140.967 5.89213 141.617 6.33628 142.168 6.90591H142.167C142.73 7.45419 143.17 8.09814 143.486 8.83365C143.809 9.56926 143.968 10.3629 143.968 11.2077C143.968 11.9666 143.835 12.6886 143.567 13.3688L143.566 13.3678C143.319 14.0355 142.967 14.6437 142.509 15.1891L142.503 15.196C142.041 15.73 141.49 16.1734 140.855 16.526C140.218 16.8801 139.529 17.118 138.792 17.2409L138.785 17.2419L133.254 18.0924V18.9831H143.968V24.3503H127.886V13.484L128.343 13.4137L137.966 11.9352H137.968C138.177 11.904 138.313 11.8237 138.415 11.7057L138.417 11.7028C138.541 11.5592 138.6 11.4023 138.6 11.2077C138.6 11.0005 138.532 10.844 138.382 10.7038L138.358 10.6794C138.218 10.5298 138.061 10.4616 137.854 10.4616H127.886V5.09341H137.854ZM161.366 5.09341V10.4616H150.676V11.8083H161.366V14.7223C161.366 16.1534 161.138 17.4729 160.675 18.6735L160.674 18.6725C160.229 19.8529 159.584 20.8719 158.736 21.7204C157.888 22.5683 156.87 23.2218 155.691 23.6833L155.684 23.6862C154.499 24.1325 153.181 24.3502 151.738 24.3503H145.309V18.9831H151.738C152.411 18.983 152.971 18.9132 153.427 18.7858C153.895 18.6388 154.272 18.4546 154.568 18.2399C154.892 18.0001 155.144 17.7401 155.331 17.4626C155.391 17.3679 155.446 17.2721 155.497 17.1754H145.309V5.09341H161.366Z" fill="#FF0000" stroke="black" stroke-width="1.0773"/>
<path d="M80.6079 5.48521V24.742H75.2642V18.367H71.3013C71.206 19.1695 70.9873 19.938 70.6431 20.6708L70.644 20.6717C70.2444 21.5403 69.704 22.3 69.0229 22.9461C68.3453 23.589 67.5643 24.0996 66.6841 24.4793L66.6753 24.4833C65.7829 24.8507 64.8324 25.033 63.8286 25.0331H63.2896V19.6649H63.8286C64.1024 19.6649 64.3583 19.6196 64.6001 19.5321C64.8498 19.4257 65.0696 19.2887 65.2632 19.1219C65.4602 18.9363 65.6142 18.7363 65.728 18.5213L65.7329 18.5126C65.7592 18.4652 65.7823 18.4161 65.8042 18.367H63.2896V13.4354H65.98V10.8534H63.2896V5.48521H80.6079ZM56.6245 5.48521C57.3924 5.48525 58.1163 5.63726 58.7886 5.94614H58.7876C59.4568 6.23009 60.0445 6.62197 60.5444 7.12193C61.0441 7.62173 61.4354 8.20884 61.7192 8.87778L61.8276 9.13071C62.0634 9.72729 62.1802 10.3578 62.1802 11.0174V24.742H51.6313C50.8823 24.742 50.1643 24.5992 49.4829 24.3124L49.4673 24.3045C48.813 24.0039 48.2338 23.6042 47.7349 23.1053C47.2361 22.6065 46.8362 22.028 46.5356 21.3739L46.5327 21.3661L46.5288 21.3583C46.2419 20.6768 46.0991 19.9589 46.0991 19.2098V10.8534H43.311V5.48521H56.6245ZM97.5874 3.13364V10.8534H87.3101V12.4422H97.5874V18.2401C97.5874 19.1334 97.4112 19.9804 97.0591 20.7762L97.061 20.7772C96.7283 21.5652 96.2696 22.2541 95.6851 22.8387C95.1025 23.4212 94.4165 23.8867 93.6323 24.2352L93.6265 24.2372C92.8439 24.575 92.0034 24.742 91.1108 24.742H81.9429V19.3739H91.1108C91.4186 19.3738 91.6699 19.2708 91.8931 19.0477C92.1124 18.8284 92.2202 18.5699 92.2202 18.2401V17.785H81.9429V5.48521H92.2202V3.13364H97.5874ZM107.844 5.48521V10.8534H105.59V19.3739H107.844V24.742H97.9683V19.3739H100.222V10.8534H97.9683V5.48521H107.844ZM124.36 3.13364V10.8534H114.083V12.4422H124.36V18.2401C124.36 19.1333 124.184 19.9804 123.832 20.7762L123.833 20.7772C123.5 21.5653 123.041 22.2541 122.457 22.8387C121.874 23.4213 121.188 23.8867 120.404 24.2352L120.399 24.2372C119.616 24.5751 118.775 24.742 117.882 24.742H108.714V19.3739H117.882C118.19 19.3739 118.442 19.271 118.666 19.0477C118.885 18.8284 118.993 18.5699 118.993 18.2401V17.785H108.714V5.48521H118.993V3.13364H124.36ZM51.4663 19.2098C51.4663 19.2609 51.4786 19.2983 51.5063 19.3368C51.544 19.3632 51.5814 19.3739 51.6313 19.3739H56.813V11.0174C56.813 10.9894 56.8074 10.9765 56.8052 10.9715C56.8028 10.9664 56.7962 10.9543 56.7749 10.9354L56.7632 10.9247L56.7524 10.9129C56.7014 10.862 56.6661 10.8534 56.6245 10.8534H51.4663V19.2098ZM71.3481 13.4354H75.2642V10.8534H71.3481V13.4354Z" fill="#9C9C9C" stroke="black" stroke-width="1.0773"/>
</g>
<g opacity="0.8" clip-path="url(#clip1_4764_3736)">
<path d="M138.937 79.0968C139.822 79.0968 140.666 79.2667 141.464 79.6085C142.256 79.948 142.949 80.4217 143.538 81.0294H143.537C144.138 81.6144 144.607 82.3012 144.944 83.086L145.065 83.3829C145.329 84.0827 145.458 84.8291 145.458 85.6173C145.458 86.4268 145.317 87.1973 145.03 87.9229L145.029 87.922C144.765 88.6344 144.389 89.2834 143.901 89.8653L143.896 89.8722C143.402 90.4418 142.815 90.915 142.138 91.2911C141.458 91.6688 140.722 91.9227 139.936 92.0538L139.929 92.0548L134.03 92.962V93.9112H145.458V99.6368H128.305V88.046L128.792 87.9718L139.057 86.3946L139.059 86.3936C139.281 86.3602 139.426 86.2744 139.534 86.1485L139.536 86.1466C139.669 85.9933 139.732 85.8249 139.732 85.6173C139.732 85.3965 139.659 85.2296 139.5 85.0802L139.486 85.0675L139.474 85.0538C139.324 84.8945 139.157 84.8223 138.937 84.8223H128.305V79.0968H138.937ZM164.016 79.0968V84.8223H152.613V86.2579H164.016V89.3663C164.016 90.8928 163.773 92.3004 163.279 93.5811L163.278 93.5802C162.803 94.8394 162.115 95.926 161.21 96.8311C160.305 97.7356 159.22 98.4326 157.962 98.9249L157.955 98.9278C156.691 99.404 155.285 99.6368 153.745 99.6368H146.888V93.9112H153.745C154.464 93.9112 155.061 93.8372 155.548 93.7013C156.049 93.5438 156.452 93.3465 156.769 93.1163C157.114 92.8606 157.38 92.583 157.579 92.2872C157.643 92.1872 157.7 92.0856 157.754 91.9835H146.888V79.0968H164.016Z" fill="#FF0000" stroke="black" stroke-width="1.14912"/>
<path d="M77.8772 78.78V99.32H72.177V92.5202H67.9514C67.8496 93.378 67.6158 94.2001 67.2473 94.9831C66.8213 95.9077 66.245 96.7159 65.5198 97.404C64.797 98.0898 63.9646 98.6357 63.0256 99.0407L63.0168 99.0446C62.0649 99.4366 61.0505 99.6306 59.9797 99.6306H59.4045V93.905H59.9797C60.2734 93.905 60.5477 93.8559 60.8069 93.7614C61.0696 93.649 61.3017 93.5051 61.5061 93.3298C61.7182 93.1307 61.883 92.916 62.0051 92.6853L62.011 92.6755L62.0872 92.5202H59.4045V87.2605H62.2747V84.5056H59.4045V78.78H77.8772ZM52.2952 78.78C53.1076 78.78 53.8731 78.9403 54.5852 79.2644H54.5862C55.3067 79.5678 55.9385 79.9878 56.4758 80.5251C57.0089 81.0582 57.4259 81.6847 57.7288 82.3982H57.7297C58.0584 83.1135 58.2219 83.8764 58.2219 84.6804V99.32H46.969C46.1699 99.32 45.4039 99.1681 44.677 98.862L44.6692 98.8581L44.6604 98.8542C43.9626 98.5336 43.3458 98.107 42.8137 97.5749C42.2817 97.0429 41.855 96.4259 41.5344 95.7282L41.5266 95.7107C41.2206 94.9838 41.0676 94.2186 41.0676 93.4196V84.5056H38.095V78.78H52.2952ZM95.9895 76.2722V84.5056H85.0266V86.1999H95.9895V92.3855C95.9895 93.342 95.8016 94.2496 95.4231 95.1013L95.4221 95.1003C95.0675 95.937 94.5805 96.6695 93.9592 97.2907C93.3379 97.912 92.6061 98.4083 91.7698 98.78L91.7639 98.7819C90.9291 99.1424 90.0325 99.32 89.0803 99.32H79.301V93.5944H89.0803C89.4088 93.5944 89.6771 93.484 89.9153 93.2458C90.1491 93.0119 90.2639 92.7371 90.2639 92.3855V91.9001H79.301V78.78H90.2639V76.2722H95.9895ZM106.93 78.78V84.5056H104.525V93.5944H106.93V99.32H96.3948V93.5944H98.8V84.5056H96.3948V78.78H106.93ZM124.546 76.2722V84.5056H113.583V86.1999H124.546V92.3855C124.546 93.342 124.358 94.2496 123.98 95.1013L123.979 95.1003C123.624 95.9369 123.138 96.6695 122.517 97.2907C121.895 97.9121 121.163 98.4082 120.326 98.78L120.322 98.7819C119.487 99.1425 118.589 99.32 117.637 99.32H107.859V93.5944H117.637C117.965 93.5944 118.234 93.484 118.472 93.2458C118.706 93.0119 118.821 92.7372 118.821 92.3855V91.9001H107.859V78.78H118.821V76.2722H124.546ZM46.7932 93.4196C46.7932 93.4724 46.8047 93.5118 46.8323 93.5515C46.8737 93.5818 46.914 93.5944 46.969 93.5944H52.4963V84.6804C52.4963 84.6506 52.4909 84.6369 52.4885 84.6316C52.486 84.6261 52.479 84.6127 52.4563 84.5925L52.4436 84.5818L52.4319 84.57C52.3774 84.5155 52.3395 84.5056 52.2952 84.5056H46.7932V93.4196ZM68.0002 87.2605H72.177V84.5056H68.0002V87.2605Z" fill="#9C9C9C" stroke="black" stroke-width="1.14912"/>
</g>
<g opacity="0.8" clip-path="url(#clip2_4764_3736)">
<path d="M148.158 59.5264C149.265 59.5265 150.32 59.7389 151.317 60.1661C152.3 60.5873 153.16 61.1744 153.892 61.9258C154.652 62.6617 155.245 63.5285 155.67 64.5186H155.669C156.098 65.4978 156.309 66.5537 156.309 67.6778C156.309 68.6839 156.133 69.6406 155.779 70.543L155.78 70.544C155.45 71.4402 154.977 72.2561 154.364 72.9874L154.356 72.9962C153.739 73.7082 153.005 74.2995 152.159 74.7696C151.309 75.2417 150.39 75.5589 149.407 75.7227L149.398 75.7237L142.024 76.8585V78.045H156.309V85.2012H134.868V70.713L135.476 70.6202L148.307 68.6485L148.309 68.6475C148.587 68.6058 148.77 68.4984 148.905 68.3409L148.908 68.338C149.074 68.1466 149.152 67.9371 149.152 67.6778C149.152 67.4016 149.061 67.1929 148.862 67.0059L148.845 66.9903L148.83 66.9727C148.643 66.7734 148.434 66.6827 148.158 66.6827H134.868V59.5264H148.158ZM179.507 59.5264V66.6827H165.254V68.4786H179.507V72.3633C179.507 74.2715 179.203 76.031 178.586 77.6319C177.992 79.2055 177.131 80.5632 176 81.6944C174.869 82.825 173.512 83.6963 171.939 84.3116L171.931 84.3155C170.352 84.9108 168.594 85.2012 166.669 85.2012H158.096V78.045H166.669C167.567 78.045 168.314 77.9522 168.922 77.7823C169.548 77.5855 170.052 77.3386 170.448 77.0508C170.879 76.7316 171.212 76.3849 171.46 76.0157C171.54 75.8901 171.613 75.7631 171.68 75.6348H158.096V59.5264H179.507Z" fill="#FF0000" stroke="black" stroke-width="1.4364"/>
<path d="M71.834 59.3819V85.0576H64.71V76.5576H59.4268C59.2997 77.6275 59.0078 78.652 58.5488 79.6289L58.5498 79.6299C58.017 80.7881 57.2958 81.8006 56.3877 82.6621C55.4841 83.5194 54.4433 84.2017 53.2695 84.708L53.2588 84.7119C52.0688 85.2019 50.8005 85.4453 49.4619 85.4453H48.7441V78.2881H49.4619C49.8268 78.2881 50.168 78.2279 50.4902 78.1113C50.8204 77.9707 51.1116 77.7901 51.3682 77.5703C51.6342 77.321 51.842 77.0528 51.9951 76.7637L51.998 76.7569L52.002 76.751C52.037 76.6879 52.0675 76.623 52.0967 76.5576H48.7441V69.9824H52.3311V66.5381H48.7441V59.3819H71.834ZM39.8564 59.3819C40.8722 59.3819 41.8294 59.5821 42.7197 59.9873H42.7207C43.6214 60.3666 44.4114 60.8918 45.083 61.5635C45.7546 62.2351 46.2799 63.0251 46.6592 63.9258H46.6582C47.0627 64.814 47.2646 65.7606 47.2646 66.7578V85.0576H33.1982C32.1996 85.0576 31.2425 84.866 30.334 84.4834L30.3242 84.4795L30.3135 84.4746C29.4411 84.0738 28.6701 83.5402 28.0049 82.875C27.3397 82.2098 26.8061 81.4388 26.4053 80.5664L26.4004 80.5567L26.3965 80.5459C26.0139 79.6374 25.8223 78.6804 25.8223 77.6817V66.5381H22.1064V59.3819H39.8564ZM94.4746 56.2471V66.5381H80.7715V68.6572H94.4746V76.3887C94.4746 77.5843 94.2398 78.7186 93.7666 79.7832L93.7656 79.7822C93.3224 80.828 92.7139 81.743 91.9375 82.5195C91.1608 83.2962 90.2457 83.9162 89.2002 84.3809L89.1934 84.3848C88.1498 84.8354 87.0283 85.0576 85.8379 85.0576H73.6143V77.9004H85.8379C86.2485 77.9004 86.5841 77.7616 86.8818 77.4639C87.1741 77.1715 87.3174 76.8282 87.3174 76.3887V75.7813H73.6143V59.3819H87.3174V56.2471H94.4746ZM108.149 59.3819V66.5381H105.145V77.9004H108.149V85.0576H94.9814V77.9004H97.9873V66.5381H94.9814V59.3819H108.149ZM130.171 56.2471V66.5381H116.468V68.6572H130.171V76.3887C130.171 77.5795 129.936 78.7086 129.467 79.7695L129.468 79.7705C129.024 80.8214 128.412 81.74 127.633 82.5195C126.856 83.2962 125.942 83.9162 124.896 84.3809L124.89 84.3848C123.846 84.8354 122.725 85.0576 121.534 85.0576H109.311V77.9004H121.534C121.945 77.9004 122.28 77.7617 122.578 77.4639C122.87 77.1715 123.014 76.8282 123.014 76.3887V75.7813H109.311V59.3819H123.014V56.2471H130.171ZM32.9795 77.6817C32.9795 77.7493 32.9956 77.7987 33.0322 77.8496C33.0825 77.8851 33.1316 77.9004 33.1982 77.9004H40.1074V66.7578C40.1074 66.7205 40.1016 66.7029 40.0986 66.6963C40.0955 66.6895 40.0861 66.6728 40.0576 66.6475L40.042 66.6338L40.0273 66.6192C39.9591 66.5509 39.912 66.5381 39.8564 66.5381H32.9795V77.6817ZM59.4883 69.9824H64.71V66.5381H59.4883V69.9824Z" fill="white" stroke="black" stroke-width="1.4364"/>
</g>
<g opacity="0.8" clip-path="url(#clip3_4764_3736)">
<mask id="path-7-outside-1_4764_3736" maskUnits="userSpaceOnUse" x="20.8242" y="13.7691" width="160" height="32" fill="black">
<rect fill="white" x="20.8242" y="13.7691" width="160" height="32"/>
<path d="M141.306 35.0474V37.5683H155.591V43.2888H135.586V30.1349L148.416 28.1635C148.847 28.0988 149.192 27.9157 149.451 27.6141C149.731 27.2909 149.871 26.9138 149.871 26.4829C149.871 26.0089 149.698 25.6103 149.354 25.2871C149.03 24.9424 148.632 24.77 148.158 24.77H135.586V19.0495H148.158C149.17 19.0495 150.129 19.2434 151.034 19.6313C151.939 20.0191 152.726 20.5577 153.393 21.2472C154.083 21.9151 154.622 22.7016 155.009 23.6065C155.397 24.4899 155.591 25.4487 155.591 26.4829C155.591 27.4094 155.43 28.282 155.106 29.1007C154.805 29.9195 154.374 30.6628 153.814 31.3307C153.253 31.9771 152.585 32.5158 151.81 32.9467C151.034 33.3776 150.194 33.6685 149.289 33.8193L141.306 35.0474Z"/>
<path d="M158.815 19.0495H178.788V24.77H164.535V28.0019H178.788V31.1692C178.788 33.0006 178.497 34.6704 177.915 36.1786C177.355 37.6653 176.547 38.9365 175.492 39.9922C174.436 41.048 173.165 41.8667 171.678 42.4485C170.191 43.0087 168.521 43.2888 166.668 43.2888H158.815V37.5683H166.668C167.617 37.5683 168.435 37.4714 169.125 37.2774C169.814 37.062 170.396 36.7819 170.87 36.4371C171.366 36.0709 171.764 35.6615 172.066 35.209C172.367 34.735 172.594 34.2395 172.744 33.7224H158.815V19.0495Z"/>
<path d="M39.8563 18.9041C40.7828 18.9041 41.6446 19.0872 42.4419 19.4535C43.2606 19.7983 43.9716 20.2723 44.5749 20.8756C45.1782 21.4788 45.6522 22.1899 45.9969 23.0086C46.3632 23.8058 46.5464 24.6569 46.5464 25.5618V43.1433H33.1986C32.2937 43.1433 31.4318 42.971 30.6131 42.6262C29.8159 42.26 29.1157 41.7752 28.5124 41.1719C27.9091 40.5686 27.4243 39.8684 27.058 39.0711C26.7133 38.2524 26.5409 37.3906 26.5409 36.4856V24.6246H22.8242V18.9041H39.8563ZM40.8259 25.5618C40.8259 25.3033 40.7289 25.0878 40.535 24.9154C40.3411 24.7215 40.1149 24.6246 39.8563 24.6246H32.2614V36.4856C32.2614 36.7442 32.3476 36.9704 32.5199 37.1643C32.7138 37.3367 32.9401 37.4229 33.1986 37.4229H40.8259V25.5618Z"/>
<path d="M49.4621 18.9041H71.1159V43.1433H65.4277V34.6434H58.77C58.7054 35.8716 58.4145 37.0351 57.8974 38.1339C57.4018 39.2112 56.7339 40.1485 55.8936 40.9457C55.0533 41.7429 54.0838 42.3785 52.9849 42.8525C51.8861 43.3049 50.7118 43.5312 49.4621 43.5312V37.8107C49.9146 37.8107 50.3455 37.7353 50.7549 37.5845C51.1643 37.4121 51.5306 37.1859 51.8538 36.9058C52.1769 36.6041 52.4355 36.2702 52.6294 35.9039C52.8449 35.5161 52.9741 35.0959 53.0172 34.6434H49.4621V29.5047H53.0496V24.6246H49.4621V18.9041ZM65.4277 24.6246H58.77V29.5047H65.4277V24.6246Z"/>
<path d="M88.0359 15.7691H93.7563V24.6246H80.0531V28.1796H93.7563V35.1929C93.7563 36.2917 93.5409 37.3259 93.11 38.2955C92.7006 39.2651 92.1404 40.1054 91.4294 40.8164C90.7184 41.5274 89.8781 42.0984 88.9085 42.5293C87.9605 42.9387 86.937 43.1433 85.8382 43.1433H74.3326V37.4229H85.8382C86.4415 37.4229 86.9586 37.2074 87.3895 36.7765C87.8204 36.3456 88.0359 35.8177 88.0359 35.1929V33.8678H74.3326V18.9041H88.0359V15.7691Z"/>
<path d="M95.6998 18.9041H107.432V24.6246H104.426V37.4229H107.432V43.1433H95.6998V37.4229H98.7054V24.6246H95.6998V18.9041Z"/>
<path d="M123.732 15.7691H129.452V24.6246H115.749V28.1796H129.452V35.1929C129.452 36.2917 129.237 37.3259 128.806 38.2955C128.397 39.2651 127.836 40.1054 127.125 40.8164C126.414 41.5274 125.574 42.0984 124.605 42.5293C123.657 42.9387 122.633 43.1433 121.534 43.1433H110.029V37.4229H121.534C122.138 37.4229 122.655 37.2074 123.086 36.7765C123.517 36.3456 123.732 35.8177 123.732 35.1929V33.8678H110.029V18.9041H123.732V15.7691Z"/>
</mask>
<path d="M141.306 35.0474V37.5683H155.591V43.2888H135.586V30.1349L148.416 28.1635C148.847 28.0988 149.192 27.9157 149.451 27.6141C149.731 27.2909 149.871 26.9138 149.871 26.4829C149.871 26.0089 149.698 25.6103 149.354 25.2871C149.03 24.9424 148.632 24.77 148.158 24.77H135.586V19.0495H148.158C149.17 19.0495 150.129 19.2434 151.034 19.6313C151.939 20.0191 152.726 20.5577 153.393 21.2472C154.083 21.9151 154.622 22.7016 155.009 23.6065C155.397 24.4899 155.591 25.4487 155.591 26.4829C155.591 27.4094 155.43 28.282 155.106 29.1007C154.805 29.9195 154.374 30.6628 153.814 31.3307C153.253 31.9771 152.585 32.5158 151.81 32.9467C151.034 33.3776 150.194 33.6685 149.289 33.8193L141.306 35.0474Z" fill="#FF0000"/>
<path d="M158.815 19.0495H178.788V24.77H164.535V28.0019H178.788V31.1692C178.788 33.0006 178.497 34.6704 177.915 36.1786C177.355 37.6653 176.547 38.9365 175.492 39.9922C174.436 41.048 173.165 41.8667 171.678 42.4485C170.191 43.0087 168.521 43.2888 166.668 43.2888H158.815V37.5683H166.668C167.617 37.5683 168.435 37.4714 169.125 37.2774C169.814 37.062 170.396 36.7819 170.87 36.4371C171.366 36.0709 171.764 35.6615 172.066 35.209C172.367 34.735 172.594 34.2395 172.744 33.7224H158.815V19.0495Z" fill="#FF0000"/>
<path d="M39.8563 18.9041C40.7828 18.9041 41.6446 19.0872 42.4419 19.4535C43.2606 19.7983 43.9716 20.2723 44.5749 20.8756C45.1782 21.4788 45.6522 22.1899 45.9969 23.0086C46.3632 23.8058 46.5464 24.6569 46.5464 25.5618V43.1433H33.1986C32.2937 43.1433 31.4318 42.971 30.6131 42.6262C29.8159 42.26 29.1157 41.7752 28.5124 41.1719C27.9091 40.5686 27.4243 39.8684 27.058 39.0711C26.7133 38.2524 26.5409 37.3906 26.5409 36.4856V24.6246H22.8242V18.9041H39.8563ZM40.8259 25.5618C40.8259 25.3033 40.7289 25.0878 40.535 24.9154C40.3411 24.7215 40.1149 24.6246 39.8563 24.6246H32.2614V36.4856C32.2614 36.7442 32.3476 36.9704 32.5199 37.1643C32.7138 37.3367 32.9401 37.4229 33.1986 37.4229H40.8259V25.5618Z" fill="white"/>
<path d="M49.4621 18.9041H71.1159V43.1433H65.4277V34.6434H58.77C58.7054 35.8716 58.4145 37.0351 57.8974 38.1339C57.4018 39.2112 56.7339 40.1485 55.8936 40.9457C55.0533 41.7429 54.0838 42.3785 52.9849 42.8525C51.8861 43.3049 50.7118 43.5312 49.4621 43.5312V37.8107C49.9146 37.8107 50.3455 37.7353 50.7549 37.5845C51.1643 37.4121 51.5306 37.1859 51.8538 36.9058C52.1769 36.6041 52.4355 36.2702 52.6294 35.9039C52.8449 35.5161 52.9741 35.0959 53.0172 34.6434H49.4621V29.5047H53.0496V24.6246H49.4621V18.9041ZM65.4277 24.6246H58.77V29.5047H65.4277V24.6246Z" fill="white"/>
<path d="M88.0359 15.7691H93.7563V24.6246H80.0531V28.1796H93.7563V35.1929C93.7563 36.2917 93.5409 37.3259 93.11 38.2955C92.7006 39.2651 92.1404 40.1054 91.4294 40.8164C90.7184 41.5274 89.8781 42.0984 88.9085 42.5293C87.9605 42.9387 86.937 43.1433 85.8382 43.1433H74.3326V37.4229H85.8382C86.4415 37.4229 86.9586 37.2074 87.3895 36.7765C87.8204 36.3456 88.0359 35.8177 88.0359 35.1929V33.8678H74.3326V18.9041H88.0359V15.7691Z" fill="white"/>
<path d="M95.6998 18.9041H107.432V24.6246H104.426V37.4229H107.432V43.1433H95.6998V37.4229H98.7054V24.6246H95.6998V18.9041Z" fill="white"/>
<path d="M123.732 15.7691H129.452V24.6246H115.749V28.1796H129.452V35.1929C129.452 36.2917 129.237 37.3259 128.806 38.2955C128.397 39.2651 127.836 40.1054 127.125 40.8164C126.414 41.5274 125.574 42.0984 124.605 42.5293C123.657 42.9387 122.633 43.1433 121.534 43.1433H110.029V37.4229H121.534C122.138 37.4229 122.655 37.2074 123.086 36.7765C123.517 36.3456 123.732 35.8177 123.732 35.1929V33.8678H110.029V18.9041H123.732V15.7691Z" fill="white"/>
<path d="M141.306 35.0474V37.5683H155.591V43.2888H135.586V30.1349L148.416 28.1635C148.847 28.0988 149.192 27.9157 149.451 27.6141C149.731 27.2909 149.871 26.9138 149.871 26.4829C149.871 26.0089 149.698 25.6103 149.354 25.2871C149.03 24.9424 148.632 24.77 148.158 24.77H135.586V19.0495H148.158C149.17 19.0495 150.129 19.2434 151.034 19.6313C151.939 20.0191 152.726 20.5577 153.393 21.2472C154.083 21.9151 154.622 22.7016 155.009 23.6065C155.397 24.4899 155.591 25.4487 155.591 26.4829C155.591 27.4094 155.43 28.282 155.106 29.1007C154.805 29.9195 154.374 30.6628 153.814 31.3307C153.253 31.9771 152.585 32.5158 151.81 32.9467C151.034 33.3776 150.194 33.6685 149.289 33.8193L141.306 35.0474Z" stroke="black" stroke-width="2.8728" mask="url(#path-7-outside-1_4764_3736)"/>
<path d="M158.815 19.0495H178.788V24.77H164.535V28.0019H178.788V31.1692C178.788 33.0006 178.497 34.6704 177.915 36.1786C177.355 37.6653 176.547 38.9365 175.492 39.9922C174.436 41.048 173.165 41.8667 171.678 42.4485C170.191 43.0087 168.521 43.2888 166.668 43.2888H158.815V37.5683H166.668C167.617 37.5683 168.435 37.4714 169.125 37.2774C169.814 37.062 170.396 36.7819 170.87 36.4371C171.366 36.0709 171.764 35.6615 172.066 35.209C172.367 34.735 172.594 34.2395 172.744 33.7224H158.815V19.0495Z" stroke="black" stroke-width="2.8728" mask="url(#path-7-outside-1_4764_3736)"/>
<path d="M39.8563 18.9041C40.7828 18.9041 41.6446 19.0872 42.4419 19.4535C43.2606 19.7983 43.9716 20.2723 44.5749 20.8756C45.1782 21.4788 45.6522 22.1899 45.9969 23.0086C46.3632 23.8058 46.5464 24.6569 46.5464 25.5618V43.1433H33.1986C32.2937 43.1433 31.4318 42.971 30.6131 42.6262C29.8159 42.26 29.1157 41.7752 28.5124 41.1719C27.9091 40.5686 27.4243 39.8684 27.058 39.0711C26.7133 38.2524 26.5409 37.3906 26.5409 36.4856V24.6246H22.8242V18.9041H39.8563ZM40.8259 25.5618C40.8259 25.3033 40.7289 25.0878 40.535 24.9154C40.3411 24.7215 40.1149 24.6246 39.8563 24.6246H32.2614V36.4856C32.2614 36.7442 32.3476 36.9704 32.5199 37.1643C32.7138 37.3367 32.9401 37.4229 33.1986 37.4229H40.8259V25.5618Z" stroke="black" stroke-width="2.8728" mask="url(#path-7-outside-1_4764_3736)"/>
<path d="M49.4621 18.9041H71.1159V43.1433H65.4277V34.6434H58.77C58.7054 35.8716 58.4145 37.0351 57.8974 38.1339C57.4018 39.2112 56.7339 40.1485 55.8936 40.9457C55.0533 41.7429 54.0838 42.3785 52.9849 42.8525C51.8861 43.3049 50.7118 43.5312 49.4621 43.5312V37.8107C49.9146 37.8107 50.3455 37.7353 50.7549 37.5845C51.1643 37.4121 51.5306 37.1859 51.8538 36.9058C52.1769 36.6041 52.4355 36.2702 52.6294 35.9039C52.8449 35.5161 52.9741 35.0959 53.0172 34.6434H49.4621V29.5047H53.0496V24.6246H49.4621V18.9041ZM65.4277 24.6246H58.77V29.5047H65.4277V24.6246Z" stroke="black" stroke-width="2.8728" mask="url(#path-7-outside-1_4764_3736)"/>
<path d="M88.0359 15.7691H93.7563V24.6246H80.0531V28.1796H93.7563V35.1929C93.7563 36.2917 93.5409 37.3259 93.11 38.2955C92.7006 39.2651 92.1404 40.1054 91.4294 40.8164C90.7184 41.5274 89.8781 42.0984 88.9085 42.5293C87.9605 42.9387 86.937 43.1433 85.8382 43.1433H74.3326V37.4229H85.8382C86.4415 37.4229 86.9586 37.2074 87.3895 36.7765C87.8204 36.3456 88.0359 35.8177 88.0359 35.1929V33.8678H74.3326V18.9041H88.0359V15.7691Z" stroke="black" stroke-width="2.8728" mask="url(#path-7-outside-1_4764_3736)"/>
<path d="M95.6998 18.9041H107.432V24.6246H104.426V37.4229H107.432V43.1433H95.6998V37.4229H98.7054V24.6246H95.6998V18.9041Z" stroke="black" stroke-width="2.8728" mask="url(#path-7-outside-1_4764_3736)"/>
<path d="M123.732 15.7691H129.452V24.6246H115.749V28.1796H129.452V35.1929C129.452 36.2917 129.237 37.3259 128.806 38.2955C128.397 39.2651 127.836 40.1054 127.125 40.8164C126.414 41.5274 125.574 42.0984 124.605 42.5293C123.657 42.9387 122.633 43.1433 121.534 43.1433H110.029V37.4229H121.534C122.138 37.4229 122.655 37.2074 123.086 36.7765C123.517 36.3456 123.732 35.8177 123.732 35.1929V33.8678H110.029V18.9041H123.732V15.7691Z" stroke="black" stroke-width="2.8728" mask="url(#path-7-outside-1_4764_3736)"/>
</g>
<path d="M157.92 36.3967C159.304 36.3967 160.623 36.6625 161.87 37.1965C163.098 37.7232 164.175 38.4569 165.09 39.3967L165.436 39.7493C166.219 40.5876 166.842 41.5494 167.306 42.6292H167.307C167.845 43.8552 168.11 45.1783 168.11 46.5862C168.11 47.8509 167.889 49.0541 167.442 50.1878L167.441 50.1868C167.028 51.2999 166.441 52.3137 165.678 53.2229L165.673 53.2278L165.668 53.2337C164.897 54.1238 163.979 54.8628 162.921 55.4505C161.859 56.0405 160.711 56.4371 159.482 56.6419L159.471 56.6438L150.253 58.0618V59.5452H168.11V68.4915H141.308V50.3811L142.069 50.2639L158.108 47.7991H158.111C158.458 47.7469 158.686 47.6122 158.855 47.4153L158.858 47.4124C159.065 47.173 159.164 46.9105 159.164 46.5862C159.164 46.241 159.05 45.98 158.801 45.7464L158.76 45.7053C158.526 45.4561 158.266 45.3421 157.92 45.3421H141.308V36.3967H157.92ZM197.106 36.3967V45.3421H179.29V47.5872H197.106V52.4436C197.106 54.8288 196.727 57.0275 195.955 59.0286L195.954 59.0276C195.212 60.9951 194.137 62.6934 192.723 64.1077C191.31 65.5209 189.613 66.61 187.648 67.3792L187.637 67.3831C185.662 68.1272 183.466 68.4915 181.059 68.4915H170.344V59.5452H181.059C182.178 59.5452 183.11 59.4302 183.869 59.219C184.651 58.9737 185.282 58.6658 185.777 58.3069C186.321 57.9044 186.742 57.4674 187.054 57.0012C187.152 56.847 187.242 56.6909 187.325 56.5335H170.344V36.3967H197.106Z" fill="#FF0000" stroke="black" stroke-width="1.7955"/>
<path d="M63.0582 36.7148V68.8095H54.152V58.1845H47.5485C47.3897 59.522 47.0255 60.8031 46.4518 62.0243L46.4528 62.0253C45.7868 63.4731 44.8858 64.7393 43.7506 65.8163C42.6211 66.8879 41.3194 67.74 39.8522 68.373L39.8385 68.3788C38.3511 68.9913 36.7664 69.2948 35.0934 69.2948H34.1949V60.3485H35.0934C35.5499 60.3485 35.9764 60.272 36.3795 60.1259C36.7951 59.9487 37.1617 59.7218 37.484 59.4442C37.8128 59.1346 38.0686 58.8008 38.2584 58.4423L38.2633 58.4345L38.2672 58.4267C38.3112 58.3475 38.3507 58.2666 38.3873 58.1845H34.1949V49.9657H38.6793V45.661H34.1949V36.7148H63.0582ZM23.0856 36.7148C24.3553 36.7148 25.5518 36.966 26.6647 37.4726H26.6656C27.7916 37.9467 28.7792 38.6027 29.6188 39.4423C30.4518 40.2753 31.1036 41.2541 31.5768 42.369L31.7574 42.7909C32.1505 43.7853 32.3463 44.836 32.3463 45.9355V68.8095H14.7633C13.5149 68.8094 12.319 68.5709 11.1832 68.0927L11.1696 68.0878L11.1569 68.081C10.0666 67.58 9.10251 66.9142 8.27112 66.0829C7.43962 65.2514 6.7731 64.2866 6.27209 63.1962L6.26624 63.1835L6.26038 63.1698C5.78221 62.0341 5.54358 60.8382 5.54358 59.5898V45.661H0.898071V36.7148H23.0856ZM91.358 32.7968V45.661H74.2291V48.3095H91.358V57.9735C91.358 59.4621 91.0658 60.8739 90.4791 62.2001L90.4801 62.2011C89.9255 63.5145 89.1614 64.6632 88.1871 65.6376C87.2162 66.6085 86.0723 67.3838 84.7653 67.9648L84.7565 67.9687C83.4521 68.5319 82.051 68.8095 80.5631 68.8095H65.2828V59.8632H80.5631C81.0764 59.8632 81.4956 59.6905 81.8678 59.3183C82.2331 58.9528 82.4127 58.523 82.4127 57.9735V57.2157H65.2828V36.7148H82.4127V32.7968H91.358ZM108.453 36.7148V45.661H104.695V59.8632H108.453V68.8095H91.9918V59.8632H95.7496V45.661H91.9918V36.7148H108.453ZM135.978 32.7968V45.661H118.849V48.3095H135.978V57.9735C135.978 59.4621 135.686 60.8739 135.099 62.2001L135.1 62.2011C134.546 63.5145 133.782 64.6632 132.807 65.6376C131.836 66.6085 130.692 67.3838 129.385 67.9648L129.377 67.9687C128.072 68.5319 126.671 68.8095 125.183 68.8095H109.903V59.8632H125.183C125.696 59.8632 126.116 59.6905 126.488 59.3183C126.853 58.9528 127.033 58.523 127.033 57.9735V57.2157H109.903V36.7148H127.033V32.7968H135.978ZM14.4899 59.5898C14.4899 59.6734 14.5078 59.7358 14.5524 59.7987C14.6162 59.8446 14.6786 59.8632 14.7633 59.8632H23.4V45.9355C23.4 45.8892 23.3921 45.8677 23.3883 45.8593C23.3845 45.8509 23.3735 45.8297 23.3375 45.7978L23.318 45.7802L23.2994 45.7616C23.2141 45.6763 23.1551 45.661 23.0856 45.661H14.4899V59.5898ZM47.6256 49.9657H54.152V45.661H47.6256V49.9657Z" fill="white" stroke="black" stroke-width="1.7955"/>
<defs>
<clipPath id="clip0_4764_3736">
<rect width="128" height="18" fill="white" transform="translate(41.7955)"/>
</clipPath>
<clipPath id="clip1_4764_3736">
<rect width="134" height="15" fill="white" transform="translate(38.7955 86)"/>
</clipPath>
<clipPath id="clip2_4764_3736">
<rect width="168" height="18" fill="white" transform="translate(22.7955 68)"/>
</clipPath>
<clipPath id="clip3_4764_3736">
<rect width="171" height="23" fill="white" transform="translate(19.7955 14)"/>
</clipPath>
</defs>
</svg>
