<svg width="52" height="51" viewBox="0 0 52 51" fill="none" xmlns="http://www.w3.org/2000/svg">
    <path d="M24.7227 0.0186943C25.0445 0.0288612 25.2102 0.403992 24.9924 0.64101C24.7115 0.946554 24.4211 1.24121 24.1143 1.53117C23.442 2.18177 22.8446 2.89356 22.2783 3.63047C21.726 4.3493 21.8664 5.38635 22.622 5.88719C22.7443 5.96853 22.8666 6.04986 22.9926 6.13366C23.1822 6.25914 23.1822 6.25914 23.3756 6.38716C24.1737 6.91673 24.9689 7.44983 25.7589 7.99079C25.9938 8.15166 26.3131 8.10603 26.4926 7.88506C27.2852 6.91641 28.085 5.96918 28.9724 5.08162C29.0766 4.97517 29.1748 4.87146 29.2659 4.76376C29.5174 4.46622 29.6476 4.04327 29.3757 3.7642C29.2728 3.67201 29.1699 3.57981 29.0638 3.48482C28.6824 3.13132 28.3132 2.78263 27.9721 2.39142C27.4735 1.82086 26.9503 1.27346 26.4255 0.726065C26.085 0.36824 26.309 -0.0780033 26.7778 0.0776499C26.8707 0.108521 26.9651 0.1532 27.0667 0.216177C27.1408 0.262145 27.206 0.321177 27.2656 0.384897C27.3396 0.464119 27.3686 0.495096 27.4879 0.622679C27.6001 0.740742 27.7123 0.858806 27.828 0.980447C27.9324 1.09586 28.0369 1.21127 28.1445 1.33017C28.2259 1.41905 28.3074 1.50793 28.3913 1.59951C28.5377 1.7619 28.6829 1.92537 28.8268 2.08993C29.0438 2.33651 29.2643 2.58008 29.4863 2.82236C29.9376 3.31491 30.6798 3.48345 31.1979 3.06173C31.2771 2.9981 31.3564 2.93446 31.438 2.8689C31.5213 2.80154 31.6046 2.73417 31.6904 2.66477C32.4544 2.0552 33.2353 1.50041 34.0593 0.977342C34.2097 0.881884 34.2772 0.698685 34.2198 0.530065C34.1376 0.288349 34.3098 0.026688 34.565 0.0337571C34.6096 0.0349923 34.6605 0.0368 34.723 0.0391803C34.7996 0.0421013 34.8719 0.072806 34.9268 0.126497C35.0304 0.228042 35.1915 0.244605 35.313 0.165262C35.3386 0.148561 35.3654 0.131056 35.4002 0.108359C35.4648 0.0661181 35.5396 0.0414927 35.6168 0.0379816C35.9164 0.024351 36.207 0.0205671 36.5086 0.027739C36.6469 0.0294801 36.6469 0.0294801 36.7879 0.0312564C37.1867 0.0365712 37.5481 0.318959 37.5638 0.717501C37.5729 0.947177 37.5512 1.17522 37.4854 1.43469C37.4493 1.58318 37.4493 1.58318 37.4125 1.73467C37.3588 1.90591 37.4525 2.14492 37.6294 2.17529C37.7373 2.19383 37.8453 2.21226 37.9532 2.23062C38.0919 2.2545 38.2305 2.27838 38.3734 2.30298C38.6852 2.34591 38.9783 2.36447 39.2865 2.36209C39.3756 2.3614 39.4542 2.41924 39.4762 2.50554C39.5149 2.65716 39.7091 2.69998 39.7967 2.57036C40.1148 2.10018 40.2717 1.62744 40.2328 1.02171C40.2295 0.97029 40.2178 0.919232 40.1993 0.871132C40.0473 0.474963 40.3141 0.0346266 40.7384 0.0288939C40.9947 0.0254309 41.251 0.0224803 41.5073 0.0196993C41.6658 0.0164658 41.8243 0.0132323 41.9875 0.00990086C42.1399 0.00865722 42.2922 0.00741357 42.4492 0.00613224C42.6597 0.00310085 42.6597 0.00310085 42.8744 8.2273e-06C43.0815 0.0243342 43.2292 0.0630098 43.363 0.129426C43.6407 0.267372 43.9706 0.37425 44.2243 0.195882C44.2497 0.178056 44.2772 0.157978 44.3086 0.134604C44.3874 0.076027 44.4823 0.0425913 44.5805 0.0413586C44.721 0.0395944 44.8615 0.0393052 45.002 0.0405934C45.1087 0.0415713 45.1829 0.145328 45.1485 0.246299C45.1165 0.340454 45.178 0.441867 45.2766 0.454886C45.298 0.457704 45.3194 0.460537 45.341 0.463392C45.8006 0.536511 46.1589 0.633619 46.4972 0.794798C46.9941 1.0315 47.644 1.03377 47.9361 0.567308C47.9931 0.476276 48.0543 0.370189 48.1338 0.229226C48.1983 0.114966 48.3192 0.0438185 48.4504 0.0438185C48.5096 0.0438185 48.5689 0.0438185 48.6285 0.0438185C48.766 0.0438185 48.8689 0.169888 48.8414 0.304593C48.8362 0.330053 48.831 0.355549 48.8258 0.381095C48.7985 0.514572 48.9284 0.626102 49.0563 0.578963C49.1844 0.532367 49.3126 0.485772 49.4446 0.437765C49.5711 0.391501 49.6975 0.345238 49.8278 0.297572C50.7046 0.00898931 51.5484 0.0158486 52.4652 0.0116595C52.6078 0.00900644 52.7505 0.00635333 52.8974 0.00361982C53.7427 -0.000358194 54.4657 0.0956495 55.2467 0.354938C55.3514 0.389698 55.4612 0.314446 55.4612 0.204135C55.4612 0.116415 55.5323 0.0438185 55.62 0.0438185C55.6763 0.0438185 55.7328 0.0438185 55.7895 0.0438185C55.9708 0.0438185 56.1178 0.190811 56.1178 0.372139C56.1178 0.439126 56.1178 0.506341 56.1178 0.573919C56.1178 0.719411 56.2073 0.849563 56.3433 0.901144C56.3623 0.90832 56.3811 0.917325 56.3985 0.927669C56.6363 1.0691 56.646 1.08141 56.7338 1.3245C56.739 1.3389 56.7426 1.35368 56.7447 1.36885C56.7611 1.48907 56.6762 1.59974 56.5558 1.61479C56.5006 1.62169 56.445 1.62864 56.3887 1.63568C56.2144 1.67051 56.1927 1.67486 56.0538 1.70262C56.0113 1.71112 55.9753 1.73803 55.9556 1.77666C55.9087 1.86853 55.9721 1.97873 56.0751 1.98346C56.1072 1.98494 56.1396 1.98643 56.1722 1.98792C56.4461 2.00457 56.6936 2.02376 56.9294 2.05805C57.7925 2.18356 58.7109 2.29729 59.1287 1.53167C59.2958 1.1405 59.3521 0.780829 59.3813 0.384477C59.3953 0.193909 59.5487 0.0438185 59.7398 0.0438185C59.9201 0.0438185 60.0748 0.177837 60.0977 0.356698C60.0994 0.370453 60.1012 0.384214 60.1029 0.39798C60.1399 0.6879 60.4841 0.820721 60.7062 0.630718C60.8501 0.507598 60.8501 0.507598 60.997 0.381989C61.0827 0.308016 61.1681 0.233647 61.2514 0.157094C61.3296 0.085259 61.4297 0.040262 61.5358 0.0374071C61.8973 0.027682 62.0875 0.448634 61.835 0.707488C61.4876 1.06368 61.1164 1.38862 60.7144 1.71608C60.6434 1.7743 60.5725 1.83253 60.4994 1.89252C58.3717 3.63361 56.1471 5.15365 53.7767 6.56058C53.608 6.6624 53.7182 6.88634 53.9022 6.81569C57.2288 5.53807 60.4219 3.60947 62.3724 0.606599C62.5394 0.361436 62.5791 0.303173 62.6879 0.182465C62.7696 0.0917786 62.9534 0.0215341 63.0743 0.00479876C63.4377 -0.0454944 63.5558 0.371593 63.355 0.678571C63.0956 1.07504 62.8102 1.44272 62.4791 1.81256C62.4098 1.89046 62.3404 1.96837 62.2689 2.04863C61.2505 3.1818 60.191 4.13899 58.9911 5.02652C58.7597 5.19772 58.865 5.45775 59.1388 5.36893C60.2545 5.00772 61.369 4.75573 62.5226 4.54283C64.6864 4.13989 66.7101 3.7293 68.5379 2.4899C68.5651 2.47145 68.5437 2.43154 68.5131 2.44368C67.471 2.82513 66.4546 2.93216 65.4099 2.49392C64.8499 2.16649 64.475 1.64335 64.2878 1.03849C64.2685 0.97621 64.2591 0.911354 64.2573 0.846181C64.2532 0.695022 64.2512 0.543756 64.2523 0.392532C64.2536 0.197671 64.4142 0.0438185 64.6091 0.0438185C64.6322 0.0438185 64.6554 0.0438185 64.6786 0.0438185C64.8161 0.0438185 64.9334 0.143307 64.9559 0.27898C65.0753 0.90386 65.1576 1.32188 65.7049 1.71608C66.1749 2.00932 66.5669 2.0002 67.1167 1.98943C67.2704 1.98711 67.4242 1.98479 67.5825 1.9824C67.5842 1.98236 67.5859 1.98231 67.5875 1.98227C67.7895 1.97712 67.9581 1.82671 67.9863 1.62664C68.0624 1.23485 68.1677 0.933271 68.3397 0.57444C68.3873 0.473954 68.4349 0.373467 68.4839 0.269936C68.4851 0.267533 68.4862 0.265131 68.4874 0.262729C68.5527 0.128787 68.6887 0.0438185 68.8377 0.0438185C68.9295 0.0438185 69.0216 0.0438185 69.1143 0.0438185C69.2457 0.0438185 69.3381 0.173252 69.2958 0.297657C69.231 0.488004 69.1937 0.597716 69.1438 0.744093C69.1097 0.844394 69.2381 0.9191 69.3083 0.839751C69.3677 0.772594 69.4271 0.705438 69.4884 0.636246C69.7414 0.333045 70.0493 0.0438185 70.4442 0.0438185C70.8134 0.0438185 71.1844 0.0438185 71.5605 0.0438185C71.7314 0.0438185 71.8662 0.186382 71.8529 0.356728C71.8282 0.67126 72.2495 0.800353 72.4015 0.523876C72.4546 0.427224 72.508 0.330217 72.5615 0.232767C72.6256 0.116235 72.748 0.0438185 72.881 0.0438185C73.5044 0.0438185 74.1294 0.0438185 74.7694 0.0438185C74.8404 0.0438185 74.898 0.100446 74.898 0.171489C74.898 0.242533 74.8404 0.30109 74.7694 0.30109C74.571 0.30109 74.3725 0.30109 74.1728 0.30109C73.7265 0.30109 73.366 0.704955 73.4746 1.13787C73.5619 1.48584 73.6805 1.69213 73.9893 2.17215C74.0683 2.29505 74.175 2.39874 74.3011 2.47257C74.4523 2.56107 74.5291 2.60072 74.6524 2.65082C74.799 2.71038 74.898 2.84996 74.898 3.00824C74.898 3.06001 74.898 3.11195 74.898 3.16413C74.898 3.28796 74.7992 3.38834 74.6753 3.38834C74.5749 3.38834 74.4848 3.45534 74.4582 3.55217C74.3623 3.90164 74.3571 3.99273 74.4337 4.31153C74.4653 4.443 74.5207 4.56781 74.594 4.68138C74.6064 4.70048 74.6188 4.71968 74.6313 4.73902C75.0041 5.42915 74.9562 6.09758 74.9309 6.86151C74.9285 6.99798 74.9261 7.13444 74.9237 7.27505C74.9173 7.62225 74.4824 7.771 74.2665 7.49895C74.2374 7.46217 74.2054 7.4217 74.1665 7.37253C73.3115 6.34361 72.1715 5.66158 70.8268 5.44651C69.1295 5.30812 67.7106 5.5013 66.3698 6.60825C65.3528 7.55907 64.7701 8.67773 64.4314 9.95689C64.3286 10.3454 64.6409 10.7084 65.0426 10.6954C65.2525 10.7151 65.2982 10.7194 65.4966 10.8434C65.6223 10.9219 65.6807 11.0725 65.6441 11.2162C65.6033 11.3758 65.4553 11.4865 65.2908 11.4784C65.2635 11.477 65.236 11.4757 65.2083 11.4743C64.1786 11.4408 63.9337 11.4328 63.3561 11.6862C62.9044 11.8844 62.4788 12.1618 62.1919 12.5631C61.8405 13.0547 61.6517 13.6061 61.6162 14.256C61.6514 14.9078 61.8113 15.4746 62.145 16.001C62.3124 16.265 62.5389 16.4866 62.7944 16.6667C63.6256 17.2527 64.437 17.4679 65.5341 17.4508C66.3066 17.3774 66.883 17.1179 67.4624 16.6259C67.4781 16.6125 67.4926 16.5979 67.5059 16.5821C67.6075 16.4608 67.624 16.2892 67.5471 16.151C67.5242 16.1099 67.5011 16.0686 67.4779 16.0268C67.3812 15.8217 67.332 15.7172 67.3069 15.6032C67.2476 15.3335 67.4689 15.0859 67.7344 15.1619C67.835 15.1907 67.971 15.2687 68.0314 15.3541C68.1622 15.539 68.1901 15.5942 68.3561 15.9223C69.2471 17.5108 70.5699 18.5456 72.3125 19.1221C72.6627 19.2205 73.01 19.2903 73.3589 19.3408C74.227 19.4665 74.9358 20.1347 74.9637 21.0114C74.9725 21.1562 74.9813 21.3009 74.9904 21.4501C75.0147 22.4678 75.0158 22.5162 74.7079 22.9499C74.6759 22.9949 74.6397 23.0374 74.5999 23.0757C74.4778 23.1933 74.355 23.3051 74.228 23.4127C74.0266 23.5835 73.9856 23.8848 74.1511 24.0906C74.2075 24.1608 74.2638 24.2309 74.3219 24.3032C74.5953 24.6151 74.9931 24.864 74.995 25.2788C74.9963 25.5642 74.9332 25.8415 74.7666 26.1165C74.3361 26.6887 73.8335 27.1978 73.3221 27.7005C73.2073 27.8134 73.0925 27.9263 72.9742 28.0427C70.4252 30.405 67.1361 32.7771 63.4969 32.7575C63.3697 32.7573 63.2424 32.7571 63.1113 32.757C62.3085 32.7464 61.5686 32.6742 60.8196 32.4183C60.6982 32.3768 60.5662 32.4539 60.5487 32.5811C60.4156 33.3835 60.2145 33.8778 59.6836 34.4951C59.6706 34.5103 59.6548 34.5226 59.6369 34.5313C59.533 34.5822 59.5238 34.7269 59.6206 34.7902C59.6535 34.8117 59.6866 34.8332 59.7198 34.8549C59.768 34.8864 59.8021 34.9357 59.8118 34.9924C59.8774 35.3736 59.8506 35.7386 59.7609 36.1032C59.6985 36.3568 59.5772 36.5932 59.4088 36.7927C59.1954 37.0455 58.9598 37.2519 58.6719 37.4105C58.3847 37.5688 58.0542 37.6256 57.7263 37.6347C57.3066 37.6464 56.8935 37.6104 56.5162 37.4231C56.4261 37.3784 56.3448 37.2615 56.3113 37.1667C56.238 36.959 56.3983 36.7697 56.6171 36.7439C56.751 36.7281 56.8704 36.744 57.052 36.7973C57.1297 36.8201 57.2093 36.8369 57.29 36.8417C57.5374 36.8563 57.749 36.8562 57.9476 36.8223C58.528 36.7231 58.9579 36.2005 59.0528 35.6193C59.0682 35.5254 59.0797 35.4272 59.0892 35.3221C59.099 35.2193 59.1088 35.1165 59.1189 35.0106C59.1281 34.9003 59.0203 34.8173 58.916 34.8542C58.862 34.8734 58.8077 34.8926 58.7526 34.9121C58.2086 35.0665 57.5998 35.0734 57.0592 34.8921C56.917 34.8443 56.7568 34.9324 56.7401 35.0814C56.6414 35.8043 56.5172 36.3464 56.1696 36.8284C55.8174 37.3168 55.2345 37.5865 54.6357 37.6494C53.9843 37.7179 53.3253 37.6413 52.7279 37.3481C52.6209 37.2824 52.5016 37.4023 52.5705 37.5072C53.7068 39.2382 55.1252 40.3831 57.2392 40.9771C58.4744 41.2529 59.6343 41.3796 60.9032 41.376C61.0526 41.3781 61.202 41.3802 61.3559 41.3823C62.5045 41.383 63.7328 41.2904 64.7492 40.7136C64.773 40.7001 64.792 40.6801 64.8045 40.6557C64.8544 40.5579 64.7799 40.443 64.6706 40.4527C63.8976 40.5212 63.203 40.7188 62.4634 40.985C61.7365 41.2405 61.1212 40.5735 61.4399 39.8719C61.8317 39.0096 62.5154 38.2668 63.2096 37.6054C64.726 36.2592 66.3671 36.1693 68.3233 36.1824C68.4883 36.183 68.6533 36.1835 68.8232 36.1841C68.9987 36.1848 69.1741 36.1856 69.3496 36.1864C69.711 36.1882 69.9882 35.8665 69.9285 35.5101C69.908 35.3838 69.8876 35.2575 69.8665 35.1274C69.7466 34.6602 69.5234 34.4264 69.209 34.0975C69.1501 34.0359 69.107 33.9609 69.0837 33.879C69.0804 33.8677 69.0773 33.8568 69.0744 33.8463C68.9998 33.5828 69.163 33.3258 69.4362 33.3441C69.5422 33.3512 69.6889 33.3971 69.7651 33.4711C70.125 33.8206 70.4002 34.2596 70.5703 34.7285C70.6726 35.0105 70.7033 35.3122 70.7037 35.6122C70.7039 35.7621 70.7013 35.912 70.6955 36.0618C70.6955 36.2153 70.7935 36.3535 70.942 36.3926C71.1884 36.4575 71.4193 36.4893 71.6688 36.4814C71.8931 36.4742 72.1044 36.3792 72.2741 36.2322C72.5668 35.9786 72.8261 35.7018 73.0912 35.4121C73.5662 34.8953 74.1346 34.5071 74.7397 34.1482C74.7573 34.1378 74.7772 34.1323 74.7978 34.1323C74.8551 34.1323 74.904 34.1747 74.9116 34.2315C74.9375 34.4247 74.9403 34.4919 74.9201 34.6971C74.9068 34.8318 74.8504 34.959 74.7578 35.0577C74.5633 35.2652 74.3748 35.4406 74.1429 35.6276C74.0012 35.7472 73.8596 35.8667 73.7181 35.9864C73.5874 36.0962 73.4567 36.206 73.3221 36.3191C73.0717 36.5643 73.1505 36.9852 73.4727 37.1233C73.8737 37.2951 74.0874 37.3867 74.6767 37.6392C74.8106 37.6966 74.898 37.8285 74.898 37.9741C74.898 38.0587 74.898 38.1436 74.898 38.229C74.898 38.3623 74.7642 38.4539 74.6399 38.4057C72.3863 37.5374 70.4672 36.9395 68.036 36.914C67.8929 36.9122 67.7498 36.9103 67.6023 36.9084C65.9763 36.9182 64.6287 37.2648 63.4467 38.3958C63.0012 38.8683 62.6555 39.3409 62.3337 39.8771C62.2677 39.9871 62.3705 40.1185 62.494 40.0837C65.03 39.413 67.744 38.9937 70.3753 38.9963C70.4877 38.9964 70.6001 38.9965 70.7158 38.9966C71.4723 39.0036 72.2177 39.0472 72.9691 39.133C73.0577 39.1431 73.1462 39.1531 73.2374 39.1635C73.7294 39.2266 74.1903 39.3316 74.6591 39.4649C74.8013 39.5053 74.898 39.6361 74.898 39.7839C74.898 39.8417 74.898 39.8997 74.898 39.958C74.898 40.0734 74.7946 40.1613 74.6807 40.1427C70.8293 39.481 70.6764 39.4547 67.2039 40.0952C67.0115 40.1307 66.933 40.3657 67.0675 40.5078C67.5671 41.1028 67.7117 41.6829 67.642 42.4453C67.6176 42.6144 67.5869 42.7751 67.547 42.9318C67.4552 43.2917 67.6761 43.69 68.0458 43.7262C68.1039 43.7319 68.162 43.7376 68.2204 43.7433C68.4246 43.7633 68.6046 43.6103 68.6171 43.4055C68.6182 43.3875 68.6207 43.3689 68.6246 43.3512C68.7478 42.7916 68.9289 42.4666 69.3822 42.1077C70.8362 41.2241 72.8182 40.7888 74.5478 40.705C74.7399 40.6956 74.898 40.8508 74.898 41.0431C74.898 41.0665 74.898 41.0898 74.898 41.1133C74.898 41.2415 74.8048 41.3507 74.6782 41.3708C73.05 41.6361 71.5625 42.002 70.0388 42.6222C69.9696 42.6448 69.9005 42.6674 69.8307 42.6902C69.7118 42.729 69.6127 42.8137 69.5583 42.9263C69.512 43.0221 69.4868 43.0809 69.4576 43.1637C69.4142 43.2872 69.4904 43.4203 69.6176 43.4513C70.3999 43.6688 70.7624 43.8923 71.2208 44.5517C71.4101 44.9227 71.3783 45.2459 71.3555 45.6475C71.3532 45.6885 71.3335 45.7631 71.3199 45.802C71.2194 46.0905 71.4174 46.383 71.7223 46.3634C72.3767 46.3213 72.9578 46.1119 73.571 45.7879C73.6679 45.7366 73.759 45.6748 73.8422 45.6033C74.1054 45.377 74.343 45.1423 74.5794 44.8829C74.6314 44.8267 74.6834 44.7705 74.7364 44.7131C74.7557 44.6922 74.7824 44.6804 74.8109 44.6804C74.8609 44.6804 74.9039 44.7168 74.9117 44.7662C74.9555 45.044 74.9786 45.2444 74.9422 45.4923C74.921 45.6366 74.8507 45.7689 74.7491 45.8735C74.1972 46.4411 73.4441 46.8089 72.6736 47.0252C72.4081 47.0997 72.133 47.1319 71.8575 47.1421C71.7386 47.1465 71.6197 47.15 71.5008 47.1521C71.2463 47.1491 71.0756 47.1471 70.9367 47.1562C70.3234 47.1963 69.8314 47.6965 69.6448 48.2822C69.604 48.4075 69.5632 48.5329 69.5212 48.6621C69.3273 49.3399 69.2261 49.9516 69.2478 50.646C69.2494 50.6986 69.2386 50.7502 69.2147 50.7971C69.1575 50.909 69.0361 50.9786 68.9133 50.9523C68.7172 50.9102 68.5893 50.8363 68.4243 50.6909C68.3615 50.6355 68.3076 50.5707 68.2628 50.5C67.411 49.158 67.2607 47.6517 67.4122 46.0954C67.4148 46.0847 67.4174 46.074 67.42 46.0633C67.6237 45.233 67.2397 44.2239 66.3858 44.2653C66.2037 44.2741 66.0159 44.3392 65.8666 44.4438C65.0369 45.0251 64.6668 45.8413 64.3932 46.7702C64.3094 47.0548 64.1048 47.3015 63.824 47.2057C63.7145 47.1684 63.563 47.0788 63.4965 46.9842C62.9327 46.182 62.96 45.1088 63.0399 44.1694C63.1515 43.4115 63.459 42.6926 63.8696 42.0451C63.9136 41.9758 63.851 41.8861 63.7712 41.9055C62.8256 42.1154 61.9195 42.1468 60.9524 42.1398C60.7945 42.14 60.6365 42.1401 60.4738 42.1403C59.6659 42.1352 58.9254 42.0899 58.137 41.9228C56.816 41.7074 55.5354 42.2605 54.2862 42.6357C52.2807 43.2117 50.1782 43.433 48.1067 43.6513C47.9363 43.6702 47.9363 43.6702 47.7624 43.6894C46.7262 43.7948 45.6922 43.8058 44.6511 43.804C44.5587 43.8039 44.4663 43.8038 44.3711 43.8037C36.7112 43.7821 29.4473 41.4889 23.7092 36.4614C23.6164 36.3801 23.4778 36.3774 23.3828 36.4562C21.7504 37.7373 19.7524 38.5466 17.6381 38.3772C17.4262 38.344 17.3237 38.328 17.2402 38.3113C17.1391 38.2912 17.0555 38.3936 17.1024 38.4855C17.1091 38.4987 17.1136 38.5136 17.115 38.5284C17.2543 39.9728 16.8824 41.1935 16.0211 42.3725C15.2243 43.2703 14.1924 43.4534 13.0379 43.5574C12.9967 43.5611 12.9552 43.5603 12.9142 43.5553C12.8804 43.5512 12.8465 43.547 12.8125 43.5429C12.7077 43.53 12.6057 43.4612 12.5463 43.3739C12.4479 43.2294 12.4725 43.0464 12.5989 42.9256C12.8473 42.6883 13.1046 42.468 13.3781 42.2524C13.7329 41.96 13.9475 41.6754 14.1309 41.2883C14.1848 41.1748 14.1335 41.0439 14.0162 40.9988C14.0056 40.9947 13.9887 40.9873 13.9789 40.9816C13.511 40.711 13.2396 40.3969 13.0816 39.8787C13.0507 39.7432 13.0215 39.608 12.9941 39.4724C12.9414 39.2111 12.7171 39.017 12.4506 39.0124C11.7182 38.927 11.3084 38.4881 10.8089 37.9913C10.7339 37.9233 10.6589 37.8554 10.5817 37.7853C10.4059 37.5957 10.1846 37.3783 9.9319 37.4326C9.40481 37.546 9.00186 37.7239 8.57775 38.1187C8.48745 38.2027 8.41021 38.3004 8.35039 38.4083C8.05608 38.939 8.00216 39.4058 8.02638 40.0334C8.02816 40.122 8.02993 40.2105 8.03176 40.3017C8.03996 40.6869 7.79551 41.0719 7.4128 41.028C7.12893 40.9955 6.86362 40.8765 6.53763 40.7399C5.9326 40.4128 5.58358 39.9709 5.29344 39.3811C5.2598 39.3128 5.23414 39.2339 5.21984 39.1591C5.0819 38.4375 4.41766 37.6596 3.78132 38.0267C3.55771 38.1557 3.34713 38.3238 3.14 38.5462C3.08619 38.604 3.03881 38.6678 2.99876 38.7358C2.82645 39.0286 2.70289 39.3251 2.6001 39.6336C2.4734 40.0138 2.0821 40.3209 1.76986 40.0697C1.71084 40.0222 1.65338 39.9522 1.61662 39.8859C1.16479 39.0719 1.01773 38.2354 1.02484 37.3079C1.02502 37.2022 1.0252 37.0964 1.02539 36.9874C1.04885 36.0675 1.29118 35.325 1.74716 34.5182C1.75078 34.5111 1.7544 34.504 1.75802 34.4969C1.7874 34.4393 1.71867 34.3817 1.66713 34.4207C1.52797 34.5247 1.52797 34.5247 1.386 34.6307C1.29458 34.6994 1.20316 34.768 1.10898 34.8387C0.668821 35.1424 0.029109 34.9621 0.00263437 34.428C-0.00758272 34.2219 0.0134148 34.0029 0.0398667 33.7463C0.278004 32.614 1.05958 31.8493 2.01803 31.2299C3.30933 30.4679 4.54647 29.7453 6.08105 29.7265C6.24086 29.7232 6.40068 29.7199 6.56533 29.7164C7.92661 29.7736 9.11859 30.2918 10.3164 30.8842C10.6039 31.0228 10.8916 31.1612 11.1793 31.2993C11.3177 31.366 11.456 31.4327 11.5986 31.5014C12.124 31.7516 12.6542 31.9892 13.1893 32.2188C13.344 32.2855 13.4988 32.3521 13.6582 32.4208C14.6893 32.8195 15.8838 33.1678 16.9676 32.75C17.6381 32.4288 18.2663 32.0374 18.8565 31.5902C18.8878 31.5681 18.9148 31.5491 18.9387 31.5328C19.095 31.426 19.2213 31.2243 19.1238 31.0621C16.4191 26.4993 16.328 26.3455 16.3249 24.434C16.3247 24.316 16.2456 24.217 16.1286 24.2017C16.1138 24.1997 16.0909 24.1954 16.0768 24.1905C15.2003 23.8861 14.5834 22.816 14.1743 22.0485C13.3152 20.2045 13.0743 18.1942 13.7875 16.2549C14.2587 15.1978 14.8779 14.0827 15.8227 13.3517C16.1458 13.1018 16.518 12.8861 16.6902 12.5158C16.8207 12.235 16.8872 11.9243 16.9814 11.6049C18.1795 7.85429 20.309 4.50205 23.0129 1.62061C23.3556 1.25516 23.6876 0.881065 24.0194 0.506103C24.4341 0.0470841 24.4341 0.0470841 24.7227 0.0186943ZM36.0356 0.481984C35.9357 0.545824 35.8358 0.609664 35.7329 0.675439C35.6286 0.742928 35.5244 0.810416 35.4169 0.87995C35.259 0.981183 35.259 0.981183 35.0978 1.08446C34.7301 1.32028 34.73 1.85617 35.1176 2.05752C35.1567 2.07783 35.1963 2.098 35.2363 2.11807C35.3704 2.18622 35.3704 2.18622 35.5072 2.25575C35.8972 2.44148 36.346 2.20478 36.5798 1.8415C36.7279 1.61132 36.8335 1.36579 36.9112 1.07516C36.9342 0.988915 36.9352 0.849628 36.9265 0.760775C36.8893 0.379525 36.5271 0.163095 36.2054 0.371056C36.1533 0.404728 36.0979 0.441909 36.0356 0.481984ZM41.0965 0.317425C40.9588 0.371871 40.8871 0.522481 40.8928 0.670415C40.9076 1.35475 40.8445 1.97008 40.6868 2.61983C40.653 2.75931 40.7363 2.90179 40.8758 2.93561C40.9747 2.96173 41.0698 2.98861 41.1619 3.01663C42.1911 3.33002 43.639 3.34241 43.7594 2.27329C43.7799 2.09135 43.7499 1.88296 43.6844 1.712C43.5092 1.25492 43.275 0.965793 42.9133 0.672135C42.7048 0.502876 42.4742 0.346095 42.2089 0.304474C42.0675 0.282282 41.924 0.284416 41.7372 0.28501C41.6329 0.284679 41.5286 0.284347 41.4212 0.284005C41.2481 0.284008 41.181 0.284009 41.0965 0.317425ZM44.5608 3.90289C44.42 4.01105 44.2791 4.11908 44.1381 4.22699C43.5697 4.66276 43.0021 5.09948 42.4375 5.53998C41.2192 6.4903 40.0176 7.40787 38.6509 8.14786C38.548 8.2059 38.4451 8.26394 38.339 8.32373C37.7118 8.64189 37.0977 8.73243 36.4326 8.70594C36.073 8.69162 35.6842 8.61624 35.3726 8.43608C34.8163 8.1144 34.6002 7.43267 34.6628 6.79308C34.7224 6.18362 34.9662 5.65161 35.3677 5.06061C35.4588 4.88805 35.287 4.7149 35.1197 4.81543C33.8734 5.56447 32.7665 6.88384 31.8546 7.92275C29.8406 10.217 27.5007 11.7206 24.3608 11.9607C23.7029 12.0053 23.0448 12.0451 22.3864 12.0817C20.3941 12.1957 18.3725 12.343 16.7188 13.5506C16.6277 13.6151 16.5366 13.6796 16.4428 13.746C15.2453 14.6767 14.3687 16.0657 14.0922 17.5383C13.887 19.4578 14.2457 21.0945 15.4055 22.6837C15.7759 23.1033 16.3946 23.1829 16.8668 22.8824C16.9351 22.8389 17.0033 22.7941 17.0717 22.748C18.0187 22.1646 19.1147 22.0313 20.208 22.2306C21.2679 22.4735 22.205 22.8646 23.1868 23.3188C24.6838 23.9904 26.0568 24.547 27.6739 24.6092C27.8169 24.6148 27.8703 24.4342 27.7505 24.356C27.0081 23.8135 26.4846 23.3392 26.3059 22.4264C26.1815 21.5614 26.3536 20.8489 26.8312 20.111C27.546 19.2548 28.5464 18.9246 29.6322 18.7573C31.2924 18.6603 32.8763 19.1278 34.4686 19.5348C36.0229 19.9308 37.4844 20.159 39.0942 20.1512C39.2503 20.1504 39.4064 20.1497 39.5673 20.149C41.3895 20.1243 43.0058 19.7484 44.6465 18.9749C44.676 18.9609 44.6999 18.9379 44.7148 18.9088C44.7648 18.8109 44.6949 18.6941 44.585 18.6926C44.5366 18.6919 44.4879 18.6912 44.4387 18.6905C43.3671 18.652 42.4589 18.5562 41.6417 17.9629C41.3308 17.7373 41.0789 17.4286 40.9635 17.0623C40.8429 16.6793 40.8248 16.2837 40.8442 15.874C40.8606 15.526 40.9243 15.1781 41.0761 14.8645C41.466 14.0593 42.14 13.4401 42.9191 12.9637C42.999 12.9142 43.0788 12.8648 43.1611 12.8139C43.9374 12.3483 44.7433 12.018 45.6114 11.7497C45.7554 11.7046 45.7554 11.7046 45.9023 11.6587C48.7929 10.9033 51.4544 11.7147 54.1731 12.6619C55.4235 13.058 56.7234 13.039 57.9373 12.5296C57.95 12.5242 57.9622 12.5175 57.9735 12.5097C58.0331 12.4685 58.0924 12.4269 58.1513 12.3847C58.2572 12.3087 58.1985 12.148 58.0683 12.1537C56.884 12.1901 55.8313 12.1937 54.8466 11.4557C54.5102 11.1216 54.357 10.7664 54.2905 10.3498C54.2531 10.1152 54.2563 9.87454 54.3073 9.64248C54.5289 8.63391 55.3025 7.72821 56.0768 7.07858C56.1872 6.99177 56.1872 6.99177 56.2999 6.90321C56.4677 6.76834 56.3289 6.5379 56.1278 6.61482C55.8863 6.70723 55.6477 6.80705 55.4084 6.91439C52.9315 8.02265 50.4962 8.55757 47.7701 8.59005C47.6264 8.59292 47.4827 8.59579 47.3347 8.59875C46.3732 8.59608 45.4781 8.48859 44.7421 7.82847C44.2628 7.29131 44.1168 6.8312 44.1314 6.12085C44.2622 5.05457 44.9172 4.3008 45.7427 3.64562C47.5176 2.38385 49.3825 1.54236 51.5213 1.0729C51.6271 1.04886 51.7329 1.02482 51.8419 1.00004C52.2939 0.925012 52.7469 0.898044 53.2039 0.87191C53.2949 0.866355 53.3859 0.8608 53.4797 0.855077C53.6793 0.842941 53.8789 0.831233 54.0786 0.819648C54.1175 0.817391 54.1479 0.785689 54.1479 0.746732C54.1479 0.712151 54.1235 0.681661 54.0897 0.67458C50.6169 -0.0518758 47.182 1.85909 44.5608 3.90289ZM71.0071 0.558361C70.977 0.558361 70.9486 0.57425 70.9334 0.600181C70.6092 1.15327 70.5053 1.55582 70.561 2.19642C70.563 2.21893 70.569 2.24106 70.5787 2.26147C70.6573 2.42707 70.891 2.39055 70.9232 2.2101C70.9349 2.14459 70.9465 2.07907 70.9581 2.01355C70.9825 1.87775 71.0069 1.74194 71.032 1.60202C71.079 1.27426 71.0974 0.967727 71.0915 0.641218C71.0906 0.59506 71.0532 0.558361 71.0071 0.558361ZM44.4875 1.18475C44.2851 1.26054 44.1686 1.46626 44.1714 1.68242C44.1726 1.83414 44.1738 1.98586 44.175 2.14219C44.1765 2.29292 44.178 2.44365 44.1796 2.59894C44.17 2.90151 44.489 3.16468 44.7489 3.00932C44.8475 2.95034 44.9453 2.8889 45.043 2.82456C45.1302 2.76735 45.2174 2.71014 45.3072 2.6512C45.3967 2.592 45.4863 2.53281 45.5786 2.47182C45.716 2.38153 45.716 2.38153 45.8561 2.28941C46.2627 2.02212 46.5083 1.44673 46.0548 1.27037C46.0316 1.26133 46.0069 1.25182 45.9808 1.24174C45.423 1.02904 44.9833 0.999148 44.4875 1.18475ZM52.1618 1.56213C52.095 1.57681 52.0466 1.63526 52.0466 1.70369C52.0466 1.78194 52.1084 1.84715 52.1866 1.85023C52.2245 1.85173 52.2628 1.85324 52.3015 1.85477C52.8978 1.89306 53.36 1.93227 53.8688 2.25474C53.9895 2.34239 54.0714 2.40182 54.1376 2.43895C54.3941 2.5826 54.6881 2.339 54.8896 2.12508C55.0393 1.96626 55.1745 1.79778 55.3091 1.61566C55.3226 1.59736 55.3298 1.5755 55.3298 1.55274C55.3298 1.49914 55.2891 1.45332 55.2359 1.44619C53.6948 1.23916 53.6278 1.24028 52.1618 1.56213ZM72.7248 1.45881C72.6885 1.45881 72.6544 1.47851 72.6368 1.51029C72.4706 1.80906 72.3052 2.10816 72.1401 2.4075C72.09 2.49737 72.0399 2.58725 71.9882 2.67984C71.6833 3.18467 72.0715 3.81755 72.6492 3.69841C72.832 3.66069 73.0194 3.59788 73.2297 3.51296C73.3553 3.443 73.4466 3.37288 73.5169 3.29049C73.7051 3.07007 73.5983 2.74327 73.4041 2.52809C73.1315 2.20962 72.9563 1.91524 72.8201 1.52741C72.8058 1.48662 72.7681 1.45881 72.7248 1.45881ZM50.8397 1.84472C50.7532 1.84472 50.7081 1.94868 50.7698 2.00917C50.8164 2.05472 50.8942 2.04399 50.9238 1.986C50.9566 1.9218 50.9118 1.84472 50.8397 1.84472ZM50.3002 2.61281C49.9513 2.24457 49.3929 2.19253 48.9252 2.38895C48.4886 2.5723 48.2969 2.72114 47.8051 3.16024C47.6735 3.27764 47.569 3.42405 47.5089 3.5898C47.4268 3.8164 47.3633 4.03746 47.3349 4.27451C47.3163 4.43018 47.4327 4.56417 47.5875 4.58878C47.7632 4.61937 47.7632 4.61937 47.9425 4.65058C48.0583 4.66998 48.1741 4.68938 48.2934 4.70937C48.6359 4.80443 48.8376 4.94255 49.1043 5.14817C49.1387 5.17471 49.1809 5.18924 49.2244 5.18924C49.2551 5.18924 49.2859 5.18924 49.3169 5.18924C49.3738 5.18924 49.42 5.23451 49.42 5.29142C49.42 5.36486 49.4948 5.41538 49.5606 5.38286C50.0595 5.13643 50.3125 4.77439 50.549 4.27474C50.5849 4.19894 50.6113 4.11875 50.6243 4.03589C50.6848 3.65029 50.6504 3.31716 50.515 2.95524C50.4681 2.83007 50.3922 2.70983 50.3002 2.61281ZM69.9478 2.23062C69.9223 2.23062 69.8971 2.24086 69.8792 2.25901C69.3912 2.75396 69.3101 3.12184 69.2837 3.81445C69.2762 3.97579 69.2688 4.13713 69.2611 4.30337C69.2555 4.50677 69.4188 4.6747 69.6223 4.6747C69.6497 4.6747 69.6771 4.6747 69.7045 4.6747C69.9575 4.6747 70.1587 4.46239 70.1452 4.20972C70.1117 3.58702 70.0781 2.96153 70.0437 2.32203C70.041 2.27078 69.9991 2.23062 69.9478 2.23062ZM33.1549 2.5059C32.9847 2.56541 32.8859 2.73886 32.9057 2.91802C32.9577 3.43885 32.9866 3.92324 32.9604 4.41726C32.9375 4.84783 33.2021 5.30484 33.6261 5.22658C33.7251 5.20831 33.8336 5.15892 33.9132 5.09725C34.2234 4.85677 34.5024 4.59794 34.7859 4.32246C34.8477 4.26609 34.9092 4.21308 34.971 4.16273C35.4163 3.79974 35.8282 3.22778 35.4262 2.81737C35.3691 2.75912 35.2844 2.68967 35.2142 2.64827C34.5407 2.25135 33.859 2.25966 33.1549 2.5059ZM52.2435 2.39612C51.6073 2.44317 51.1122 2.97604 51.1355 3.61346C51.1418 4.08112 51.0878 4.46422 50.9651 4.88131C50.9167 5.0457 51.0139 5.22048 51.1817 5.25557C52.4212 5.53325 54.1809 5.52906 54.38 4.27448C54.4163 4.04581 54.3873 3.78697 54.3074 3.56966C54.2316 3.36345 54.1421 3.20195 54.0101 3.04364C53.799 2.79028 53.51 2.61007 53.1957 2.51007C52.8686 2.40597 52.5602 2.3727 52.2435 2.39612ZM55.5461 2.77562C55.1429 2.89692 54.7925 3.21358 54.8151 3.63397C54.8232 3.78329 54.8464 3.93853 54.862 4.11192C54.8753 4.26481 54.8887 4.41769 54.9025 4.57521C54.9197 4.75907 55.1021 4.88061 55.2718 4.80782C55.8099 4.57706 56.2666 4.22881 56.7498 3.88681C56.8534 3.81434 56.9569 3.74188 57.0635 3.66722C57.4453 3.39978 57.4543 2.82642 57.0043 2.70474C56.5325 2.57714 56.0454 2.62539 55.5461 2.77562ZM30.6398 4.41743C30.5713 4.48809 30.5056 4.55859 30.442 4.62963C30.2102 4.88827 30.3459 5.29029 30.6808 5.3822C30.8103 5.41801 30.9398 5.45383 31.0733 5.49073C31.5405 5.62092 32.0389 5.38714 32.2447 4.94789C32.4173 4.57928 32.4773 4.18813 32.4787 3.72028C32.4788 3.67083 32.4705 3.62244 32.4546 3.57563C32.3904 3.38714 32.2086 3.25355 32.0221 3.32325C31.5083 3.51524 31.0102 4.09591 30.6398 4.41743ZM38.6253 3.3371C38.474 3.28771 38.3073 3.29656 38.1651 3.36812C38.0065 3.44795 37.9345 3.49655 37.6659 3.67777C37.477 3.79816 37.477 3.79816 37.2843 3.92098C36.7315 4.30911 36.537 4.5829 36.3718 5.13372C36.321 5.30307 36.431 5.47664 36.604 5.51284C36.6954 5.53333 36.7847 5.55356 36.872 5.5741C37.9223 5.82119 39.3759 5.6673 39.3692 4.58832C39.3687 4.4947 39.3561 4.38595 39.3308 4.29583C39.2445 3.98898 39.0962 3.75781 38.8914 3.51405C38.8213 3.43056 38.729 3.37095 38.6253 3.3371ZM68.0573 3.55423C67.9809 3.61295 67.9124 3.68867 67.868 3.77417C67.7325 4.03492 67.6291 4.29966 67.5627 4.5863C67.5493 4.64401 67.5533 4.70343 67.5724 4.7595C67.6297 4.92796 67.809 5.02308 67.9803 4.97512C68.0551 4.9542 68.13 4.93323 68.2053 4.91216C68.4392 4.84672 68.6078 4.64295 68.6284 4.40098C68.6395 4.27005 68.6507 4.13886 68.6619 4.00714C68.6961 3.60501 68.3773 3.30831 68.0573 3.55423ZM40.1831 3.52464C39.9616 3.57331 39.8347 3.79017 39.8375 4.01695C39.8387 4.17829 39.8399 4.33963 39.8411 4.50587C39.8426 4.66555 39.8441 4.82523 39.8457 4.98976C39.8447 5.02504 39.8435 5.05991 39.842 5.09442C39.8178 5.65364 40.0928 6.29314 40.6359 6.15759C40.7563 6.12755 40.9211 6.05972 41.0203 5.98522C41.2185 5.83639 41.4083 5.68113 41.5976 5.51887C41.6812 5.4508 41.7647 5.38273 41.8508 5.3126C42.22 5.01083 42.3929 4.47278 42.0863 4.10762C41.9926 3.99591 41.8819 3.89446 41.7438 3.78979C41.6119 3.68985 41.4611 3.61682 41.3008 3.57597C40.9376 3.48343 40.5461 3.4449 40.1831 3.52464ZM46.8804 3.81614C46.8346 3.72644 46.7197 3.69714 46.6372 3.75487C46.4307 3.89934 46.2235 4.04431 46.0127 4.19181C45.9306 4.24927 45.8958 4.35274 45.9281 4.44762C45.9698 4.57016 46.1075 4.63532 46.2222 4.57529C46.4988 4.43048 46.6748 4.25572 46.8686 3.98363C46.9037 3.93428 46.908 3.87011 46.8804 3.81614ZM65.7542 4.48175C65.6347 4.52142 65.5152 4.5611 65.3952 4.60094C65.041 4.71852 64.8197 5.07032 64.8669 5.44045C64.8906 5.626 64.9143 5.81201 64.9382 5.99892C64.9857 6.37109 65.4266 6.54326 65.7116 6.29923C65.9676 6.08969 65.9676 6.08969 66.1948 5.94045C66.6911 5.6056 66.8218 5.31999 66.9361 4.76314C66.9849 4.44259 66.7308 4.1661 66.4193 4.25615C66.1955 4.32086 65.9759 4.40762 65.7542 4.48175ZM73.2207 4.09819C73.1476 4.12551 73.0195 4.1614 72.9415 4.16319C72.6662 4.16953 72.3908 4.17067 72.1155 4.1682C71.9484 4.16704 71.7813 4.16588 71.6091 4.16468C71.5822 4.16437 71.5591 4.1641 71.5387 4.16386C71.3541 4.16171 71.1946 4.2885 71.1576 4.46934C71.1189 4.65897 71.2266 4.85024 71.4097 4.9129C71.4136 4.91423 71.4175 4.91556 71.4214 4.9169C72.3674 5.25445 73.1695 5.63332 73.9787 6.21833C74.0124 6.24033 74.0461 6.26233 74.0798 6.28437C74.2363 6.38653 74.4458 6.33247 74.5307 6.16606C74.5925 6.04495 74.5705 5.89585 74.4746 5.79945C74.4247 5.7493 74.3744 5.69876 74.3234 5.64751C74.0352 5.31394 73.9006 4.96742 73.8142 4.58317C73.7427 4.26523 73.526 3.98419 73.2207 4.09819ZM45.3734 4.93197C45.2765 4.93197 45.1848 4.98035 45.1319 5.06154C44.8085 5.55829 44.6267 5.93016 44.668 6.51549C44.6781 6.65968 44.7577 6.85144 44.8303 6.97643C45.0518 7.35778 45.5892 7.52825 45.7753 7.12841C45.7949 7.08609 45.8165 7.0377 45.8412 6.9821C46.0425 6.47794 46.0178 6.10463 45.9108 5.60915C45.8875 5.50094 45.8489 5.39637 45.7962 5.29908C45.7156 5.1507 45.6784 5.10541 45.5615 5.0025C45.5094 4.95666 45.4428 4.93197 45.3734 4.93197ZM46.9332 5.17631C46.6862 5.24321 46.5406 5.48846 46.5553 5.74398C46.5587 6.35723 46.3992 6.92382 46.219 7.50084C46.1755 7.64001 46.2624 7.78614 46.4055 7.81371C46.5227 7.83643 46.6398 7.85915 46.7605 7.88255C46.9342 7.91613 46.9342 7.91613 47.1114 7.95039C47.3164 7.99206 47.5206 8.03823 47.7224 8.09259C47.8133 8.11244 47.9028 8.12719 47.9915 8.13689C48.6731 8.2115 49.363 7.78423 49.4107 7.10018C49.4262 6.87846 49.4087 6.61981 49.3366 6.40956C49.24 6.1277 49.0919 5.90735 48.8813 5.68609C48.723 5.51985 48.5301 5.38929 48.3186 5.30019C47.8344 5.09619 47.4275 5.04247 46.9332 5.17631ZM55.9634 7.8926C55.5378 8.34606 55.1558 8.85974 54.9543 9.43277C54.7528 10.0061 54.8711 10.682 55.3379 11.071C55.3993 11.1222 55.4643 11.1707 55.5329 11.2177C55.8237 11.4171 56.1545 11.5563 56.5023 11.6144C57.4964 11.7803 58.4929 11.5578 59.4011 11.1065C60.1382 10.65 60.167 10.6322 60.6528 10.0257C60.6927 9.97586 60.7768 9.93011 60.8381 9.91219C61.0457 9.85157 61.2039 10.045 61.1395 10.2514C60.8949 11.0362 60.3404 11.6962 59.6781 12.2114C58.2929 13.1184 56.8654 13.5887 55.1985 13.4219C54.1106 13.2066 53.0695 12.8572 52.022 12.5054C49.5091 11.6654 46.9716 11.6403 44.5269 12.7305C43.1391 13.4121 41.8679 14.1709 41.3442 15.6796C41.2748 16.0074 41.2625 16.2769 41.333 16.5473C41.4204 16.8827 41.652 17.1592 41.9064 17.3945C42.3055 17.7635 42.7286 18.0202 43.3321 18.097C44.9767 18.1765 46.2478 17.4664 47.4675 16.4298C47.8092 16.1819 48.1861 16.5469 47.9757 16.9129C47.6642 17.4551 47.135 17.8956 46.6621 18.3101C45.3163 19.348 43.77 20.0445 42.1241 20.4814C42.0896 20.4906 42.0655 20.5213 42.0655 20.557C42.0655 20.596 42.0943 20.6297 42.133 20.6349C44.69 20.9835 47.162 20.4264 49.2887 18.9533C50.1993 18.2316 51.0475 17.4306 51.7126 16.4837C51.7577 16.4195 51.8298 16.3805 51.9083 16.3805C52.0509 16.3805 52.1626 16.5056 52.1413 16.6466C52.0584 17.1955 51.9335 17.7218 51.7706 18.2603C51.7165 18.4438 51.6625 18.6273 51.6085 18.8108C51.5235 19.0969 51.4381 19.3828 51.3525 19.6687C51.2694 19.9467 51.1875 20.225 51.1057 20.5034C51.0796 20.5893 51.0535 20.6752 51.0266 20.7637C50.8861 21.1745 51.374 21.3511 51.6973 21.0612C51.9644 20.8217 52.2198 20.571 52.457 20.2959C52.9054 19.7768 53.3919 19.3022 53.8852 18.8246C54.5964 18.1371 54.5964 18.1371 55.2642 17.4096C55.7696 16.8236 56.3333 16.295 56.8895 15.7559C57.3695 15.2887 57.8261 14.8117 58.2653 14.3073C58.5343 14.0064 58.8133 13.7173 59.0974 13.43C59.1927 13.3333 59.288 13.2366 59.3862 13.137C59.4479 13.0859 59.4959 13.0462 59.539 13.0139C59.8079 12.8125 60.1433 13.1369 60.1008 13.4701C60.0804 13.6298 60.06 13.7898 60.0395 13.9505C60.0022 14.2426 60.2897 14.3624 60.3909 14.086C60.4288 13.9838 60.4666 13.8816 60.5056 13.7763C60.5461 13.6648 60.5865 13.5534 60.6282 13.4385C60.671 13.3225 60.7137 13.2065 60.7578 13.087C60.8972 12.7084 61.0356 12.3295 61.174 11.9507C61.3165 11.5626 61.4593 11.1747 61.6021 10.7868C61.697 10.5289 61.7919 10.271 61.8866 10.0131C62.1604 9.26877 62.4377 8.52589 62.7213 7.78507C62.7526 7.70304 62.784 7.62102 62.8163 7.5365C62.9578 7.16682 63.1 6.79745 63.2432 6.4284C63.2917 6.30187 63.3402 6.17534 63.3902 6.04497C63.4527 5.88378 63.4527 5.88378 63.5164 5.71933C63.6483 5.36555 63.3076 5.0583 62.931 5.08524C60.5002 5.25911 57.6926 6.33977 55.9634 7.8926ZM21.1157 5.68976C20.9294 5.55617 20.7069 5.67381 20.5649 5.85391C19.4051 7.32526 17.8105 9.87498 17.5449 11.7536C17.5081 12.0141 17.7508 12.2094 18.0075 12.1516C18.2344 12.1029 18.4615 12.0547 18.6887 12.0069C18.8427 11.9745 18.8427 11.9745 18.9997 11.9413C20.0506 11.737 21.101 11.6711 22.169 11.613C22.5206 11.5934 22.8722 11.5729 23.2237 11.5522C23.3775 11.5437 23.5313 11.5352 23.6898 11.5265C24.2116 11.4993 24.6409 11.145 24.8978 10.69C24.9854 10.5349 25.07 10.3778 25.1567 10.2221C25.2187 10.1155 25.2807 10.0089 25.3445 9.89902C25.4024 9.79637 25.4603 9.69373 25.52 9.58798C25.5732 9.49381 25.6264 9.39965 25.6812 9.30263C25.7045 9.25657 25.7238 9.21823 25.7392 9.1846C25.8909 8.8515 25.5137 8.52772 25.2024 8.33519C25.1082 8.27341 25.014 8.21163 24.9169 8.14798C24.7634 8.04967 24.7634 8.04967 24.6068 7.94938C24.5024 7.8814 24.3979 7.81342 24.2903 7.74339C24.0694 7.59986 23.8481 7.45684 23.6266 7.31427C23.286 7.09513 22.9465 6.87458 22.6071 6.65373C22.3927 6.51471 22.1783 6.37577 21.9638 6.23692C21.8615 6.1706 21.7591 6.10428 21.6537 6.03595C21.5595 5.97539 21.4653 5.91482 21.3682 5.85243C21.2432 5.7719 21.2432 5.7719 21.1157 5.68976ZM64.19 5.57515C64.1535 5.57515 64.1204 5.59768 64.1075 5.63173C63.8117 6.41375 63.5173 7.19629 63.224 7.97922C63.1215 8.25211 63.0187 8.52488 62.9155 8.79751C62.7676 9.18863 62.6209 9.5802 62.4745 9.97188C62.4045 10.1556 62.4045 10.1556 62.3332 10.343C62.27 10.513 62.27 10.513 62.2057 10.6863C62.168 10.7863 62.1304 10.8863 62.0917 10.9893C62.0324 11.1474 62.01 11.2072 62.0405 11.2895C62.0872 11.4156 62.2496 11.448 62.3704 11.3889C62.7518 11.2021 62.9599 11.1002 63.1005 11.0354C63.3593 10.9163 63.7248 10.8691 63.789 10.5916C63.8014 10.5379 63.8115 10.4687 63.8253 10.3749C63.8388 10.2343 63.8523 10.0936 63.8663 9.94876C63.9363 9.37536 64.0315 8.91812 64.2849 8.39709C64.69 7.49772 64.4753 6.57463 64.2751 5.6444C64.2665 5.60402 64.2313 5.57515 64.19 5.57515ZM28.8181 6.31569C28.6572 6.40561 28.5911 6.60275 28.6616 6.77307C28.8735 7.29802 28.9632 7.73876 29.0064 8.30062C29.0174 8.4404 29.0284 8.58019 29.0397 8.72421C29.0528 8.90038 29.2118 9.0311 29.3842 8.99265C30.0754 8.83852 30.5639 8.49473 31.0099 8.04591C31.5471 7.50537 31.7735 6.59633 31.1659 6.13638C31.0173 6.0239 30.8123 5.93056 30.629 5.8971C29.9295 5.76941 29.4343 5.97137 28.8181 6.31569ZM50.1503 5.98387C50.0221 6.04447 49.9471 6.17854 49.9499 6.32033C49.9581 7.02114 50.6517 7.60934 51.26 7.26117C51.3843 7.18997 51.5092 7.11553 51.6362 7.03838C51.7266 6.98432 51.817 6.93027 51.9101 6.87457C52.2491 6.67169 52.3138 6.18557 51.9604 6.00915C51.6828 5.87058 51.3778 5.81091 50.9877 5.80026C50.6084 5.82385 50.4164 5.85813 50.1503 5.98387ZM32.5658 5.96106C32.5119 5.96106 32.4602 5.98782 32.4299 6.03238C32.4142 6.05535 32.4009 6.07488 32.3889 6.09253C32.3153 6.20064 32.3916 6.34696 32.5224 6.34696C32.5763 6.34696 32.6279 6.3203 32.6582 6.27574C32.6718 6.2557 32.6855 6.23564 32.6992 6.21554C32.7728 6.10743 32.6965 5.96106 32.5658 5.96106ZM36.6393 6.11218C36.0393 6.12221 35.7232 6.7715 35.8515 7.35779C35.9555 7.83322 36.3357 8.24206 36.8213 8.21023C37.1711 8.18731 37.4916 8.09075 37.8825 7.9357C37.9568 7.90623 38.071 7.83314 38.1345 7.78455C38.4329 7.55607 38.4079 7.15636 38.1852 6.85365C38.0702 6.69733 37.9647 6.59756 37.7713 6.44679C37.5744 6.29334 37.3437 6.18485 37.0969 6.14706C36.9331 6.12198 36.7846 6.10976 36.6393 6.11218ZM39.3585 6.74949C39.3263 6.739 39.2905 6.74121 39.2602 6.75607C39.196 6.78752 39.1711 6.79968 39.1139 6.82771C39.0717 6.84838 39.0449 6.8906 39.0449 6.9376C39.0449 7.02434 39.1322 7.08458 39.2129 7.05294C39.2634 7.03317 39.314 7.01336 39.3647 6.99348C39.4781 6.94906 39.4742 6.78728 39.3585 6.74949ZM28.0655 7.11878C28.0325 7.11878 28.0004 7.13261 27.978 7.15696C27.5891 7.58085 27.2372 8.0108 26.9187 8.46494C26.5431 9.00071 26.9492 9.69149 27.6035 9.69149C27.9314 9.69149 28.2491 9.512 28.3681 9.20649C28.5215 8.81269 28.5788 8.43541 28.4585 7.96094C28.3702 7.70157 28.2767 7.44634 28.1744 7.19242C28.1565 7.14782 28.1136 7.11878 28.0655 7.11878ZM25.4443 10.9279C25.4074 10.9594 25.3866 11.005 25.3866 11.0535C25.3866 11.1512 25.4696 11.2293 25.5669 11.2199C26.3219 11.1468 27.0008 10.9618 27.6877 10.6233C27.7286 10.6031 27.7614 10.5707 27.7821 10.5301C27.8368 10.423 27.7935 10.2898 27.6803 10.2494C26.8431 9.95076 26.0943 10.3717 25.4443 10.9279ZM59.1788 14.1937C59.1533 14.1937 59.1284 14.2041 59.1107 14.2225C58.9715 14.3679 58.8364 14.5172 58.7034 14.6681C58.58 14.8081 58.58 14.8081 58.4541 14.951C58.2514 15.1854 58.0526 15.4224 57.8575 15.6626C57.7911 15.7444 57.848 15.866 57.9534 15.866C58.0256 15.866 58.0847 15.9268 58.077 15.9986C58.0043 16.6756 57.6786 17.0243 57.2013 17.5302C57.0797 17.662 56.9605 17.794 56.8437 17.9268C56.4692 18.3524 56.8399 18.8105 57.3162 18.503C57.3976 18.4511 57.4791 18.3992 57.563 18.3458C58.2687 17.9445 58.3866 17.8775 58.6287 17.3933C58.7433 17.1642 58.824 16.9194 58.8811 16.6697C58.9092 16.5398 58.9372 16.4099 58.966 16.276C58.9956 16.1476 59.0251 16.0192 59.0556 15.8869C59.1779 15.3402 59.2763 14.8405 59.2715 14.2851C59.271 14.2343 59.2297 14.1937 59.1788 14.1937ZM60.9031 14.5796C60.8684 14.5796 60.8363 14.5997 60.8216 14.6311C60.7444 14.796 60.6677 14.9611 60.5912 15.1263C60.5204 15.2786 60.5204 15.2786 60.4481 15.4339C60.3091 15.7641 60.6668 16.0679 60.9172 15.8116C60.9354 15.7929 60.9546 15.7729 60.975 15.7513C61.0611 15.6605 61.1083 15.5387 61.0993 15.4139C61.0807 15.157 61.038 14.9122 60.9905 14.6529C60.9827 14.6105 60.9462 14.5796 60.9031 14.5796ZM57.2528 16.4172C57.2093 16.332 57.0993 16.3244 57.0333 16.3937C57.0234 16.4041 57.012 16.416 56.9985 16.4302C56.7353 16.706 56.4718 16.9815 56.2081 17.2569C56.1127 17.3566 56.0172 17.4563 55.9189 17.5591C55.3742 18.1259 54.8223 18.6819 54.2546 19.2266C53.7351 19.7285 54.1005 20.2063 54.5829 19.6688C54.657 19.5884 54.731 19.5081 54.8073 19.4253C55.4437 18.7297 56.0485 18.0111 56.6431 17.281C56.8408 17.0464 57.04 16.813 57.2394 16.5798C57.2759 16.5371 57.2784 16.4673 57.2528 16.4172ZM60.1152 17.2167C59.9823 17.3241 59.8494 17.4316 59.7125 17.5423C59.529 17.6915 59.4475 17.9587 59.5821 18.1533C59.6322 18.2257 59.6899 18.2803 59.7891 18.3595C59.8892 18.4395 60.007 18.4966 60.1337 18.5158C60.4483 18.5636 60.7247 18.54 61.0311 18.4939C61.207 18.4675 61.3115 18.2833 61.2479 18.1171C61.2022 17.9697 61.1647 17.8258 61.1331 17.6829C61.0033 17.096 60.5821 16.8382 60.1152 17.2167ZM61.9569 16.8167C61.8084 16.6409 61.614 16.8054 61.619 17.0355C61.6287 17.4816 61.7483 17.79 62.0588 18.1867C62.1239 18.2699 62.1989 18.3454 62.2803 18.4128C62.8051 18.8479 63.1186 18.9676 63.8699 18.9703C63.9037 18.9694 63.9335 18.9685 63.9604 18.9675C64.3078 18.9549 64.5808 18.626 64.4178 18.319C64.3424 18.177 64.1822 18.0163 64.0321 17.9585C63.7589 17.8534 63.4818 17.7716 63.1973 17.6855C62.6839 17.4874 62.3487 17.1895 61.9569 16.8167ZM68.2277 17.1524C68.1333 17.1524 68.0473 17.2122 68.0203 17.3027C67.9281 17.6122 67.9693 17.6977 68.1427 18.0448C68.4012 18.518 68.6695 18.7778 69.1338 19.0225C69.211 19.0632 69.293 19.0949 69.3766 19.1198C69.6365 19.1974 69.6943 19.2059 69.9424 19.2094C70.0041 19.2103 70.0629 19.1869 70.107 19.1437C70.2089 19.0439 70.1985 18.8761 70.0844 18.7906C70.0688 18.7789 70.0531 18.7671 70.0373 18.7553C68.9732 17.9428 68.9732 17.9428 68.5942 17.4739C68.5291 17.3942 68.464 17.3145 68.3977 17.2334C68.3558 17.1821 68.294 17.1524 68.2277 17.1524ZM66.5996 17.8518C66.5775 17.8592 66.5555 17.8665 66.5335 17.8737C65.8969 18.0808 65.5119 18.8495 66.1277 19.1123C66.2417 19.1609 66.4257 19.2088 66.5495 19.2036C66.7412 19.1956 66.9313 19.1836 67.1178 19.1561C67.5285 19.0956 67.7217 18.6774 67.6001 18.2804C67.4914 17.9255 67.1529 17.6621 66.8013 17.7812C66.7371 17.8029 66.6708 17.8267 66.5996 17.8518ZM50.5281 18.696C50.4439 18.7676 50.3598 18.8393 50.2731 18.9131C50.1801 18.993 50.1991 19.1419 50.3092 19.1958C50.3136 19.1979 50.3182 19.2002 50.3229 19.2025C50.3249 19.2035 50.327 19.2045 50.329 19.2055C50.6024 19.3394 50.9282 19.1874 50.9956 18.8905C51.0625 18.5954 50.8495 18.392 50.6309 18.6013C50.5964 18.6345 50.5622 18.6668 50.5281 18.696ZM58.7828 18.4387C58.6771 18.4387 58.5756 18.49 58.5248 18.5827C58.3327 18.9338 58.2957 19.2984 58.3213 19.6882C58.3342 19.8841 58.3819 20.077 58.4664 20.2542C58.713 20.7713 59.064 21.167 59.5618 21.4867C59.6552 21.5468 59.7596 21.5888 59.8694 21.6055C60.1459 21.6477 60.3962 21.633 60.6604 21.5972C60.8987 21.5649 61.0466 21.322 60.977 21.0918C60.8369 20.5524 60.8227 20.0289 60.8368 19.4839C60.8409 19.324 60.7361 19.1811 60.5815 19.1397C59.9861 18.9737 59.4757 18.808 58.9552 18.4886C58.903 18.4566 58.844 18.4387 58.7828 18.4387ZM63.4942 19.506C62.512 19.352 61.2208 19.7141 61.4478 20.682C61.4758 20.8014 61.5316 20.9374 61.5947 21.0426C61.8997 21.5514 62.2205 21.8878 62.775 22.1073C62.8877 22.1519 63.0084 22.1718 63.1295 22.1748C63.4154 22.1819 63.6668 22.1771 63.9344 22.1254C64.1232 22.0889 64.2323 21.8986 64.1951 21.7099C64.1277 21.2604 64.116 20.8382 64.1207 20.3843C64.1219 20.2361 64.1231 20.0878 64.1243 19.9351C64.1244 19.9288 64.1245 19.9226 64.1246 19.9163C64.1271 19.7338 63.9928 19.5781 63.8119 19.5537C63.7038 19.5379 63.598 19.5223 63.4942 19.506ZM56.8319 19.5321C56.699 19.6157 56.5661 19.6993 56.4292 19.7854C56.2498 19.8989 56.1666 20.1334 56.2799 20.313C56.3871 20.483 56.5141 20.5685 56.8155 20.73C56.9403 20.7798 57.0344 20.8174 57.1147 20.8431C57.5833 20.9927 57.9 20.3946 57.8236 19.9087C57.7494 19.4363 57.3504 19.1684 56.9603 19.4449C56.915 19.477 56.872 19.5068 56.8319 19.5321ZM28.0624 19.8234C28.0296 19.8432 28.0021 19.87 27.9805 19.9017C27.9648 19.9248 27.9491 19.9479 27.9333 19.9711C27.8456 20.0999 27.9155 20.2765 28.0676 20.3105C28.648 20.4453 29.1878 20.5738 29.7114 20.8074C29.9471 20.9125 30.2306 20.8563 30.3853 20.6496C30.8737 20.0783 30.959 19.2135 30.208 19.2448C29.4224 19.2775 28.6482 19.4711 28.0624 19.8234ZM65.2013 19.3392C65.0257 19.3392 64.858 19.4304 64.788 19.5914C64.6265 19.9627 64.5907 20.327 64.6136 20.7247C64.6295 21.0006 64.7078 21.2725 64.8629 21.5013C65.1427 21.9142 65.5042 22.2019 65.9727 22.4134C66.1777 22.506 66.4025 22.5524 66.6265 22.533C66.7345 22.5237 66.8385 22.5074 66.9416 22.485C67.3367 22.3992 67.7898 22.0994 67.6211 21.7319C67.5859 21.6552 67.5384 21.55 67.5167 21.4683C67.3819 20.9613 67.3878 20.4712 67.4046 19.9516C67.4086 19.83 67.3074 19.7314 67.186 19.7386C66.4793 19.7629 66.0271 19.6643 65.4115 19.3856C65.3452 19.3556 65.2742 19.3392 65.2013 19.3392ZM69.5699 19.6497C68.8307 19.5623 67.9518 19.7869 67.8955 20.5291C67.8856 20.6587 67.8882 20.7923 67.9043 20.9319C67.9204 21.0711 67.9635 21.2059 68.0252 21.3317C68.1089 21.5025 68.2007 21.6566 68.3057 21.7994C68.6601 22.2819 69.2437 22.5634 69.8422 22.5515C70.0667 22.547 70.2917 22.5175 70.5267 22.4664C70.6388 22.442 70.7442 22.3934 70.8377 22.327C70.8871 22.2919 70.9261 22.263 70.959 22.2363C71.1591 22.073 71.1452 21.77 71.0238 21.542C70.806 21.0543 70.7889 20.578 70.8093 20.0709C70.817 19.8798 70.672 19.7165 70.481 19.706C70.254 19.6915 70.254 19.6915 70.0224 19.6768C69.8731 19.6679 69.7238 19.6589 69.5699 19.6497ZM72.2733 19.7751C71.824 19.6901 71.3409 19.9317 71.3331 20.389C71.3292 20.6217 71.3637 20.8529 71.4377 21.0991C71.4751 21.2236 71.5355 21.34 71.6099 21.4467C71.7303 21.6193 71.8521 21.7762 71.9925 21.9149C72.3071 22.2258 72.7541 22.3656 73.1964 22.3613C73.6066 22.3573 73.9914 22.261 74.3891 22.0405C74.3926 22.0381 74.3962 22.0357 74.3997 22.0333C74.6112 21.8892 74.6867 21.6129 74.5779 21.3813C74.4527 21.1147 74.3773 20.8532 74.3216 20.5808C74.2646 20.3022 74.0518 20.0787 73.7715 20.0311C73.5669 19.9961 73.3624 19.9611 73.1579 19.9261C73.0048 19.9001 73.0048 19.9001 72.8486 19.8736C72.7495 19.8566 72.6505 19.8396 72.5484 19.822C72.4577 19.8066 72.3669 19.7911 72.2733 19.7751ZM50.5096 19.8537C50.4851 19.8537 50.4615 19.8644 50.4457 19.8831C50.3326 20.0173 50.224 20.1554 50.1177 20.2949C50.0476 20.3866 49.9775 20.4783 49.9053 20.5728C49.8318 20.6698 49.7583 20.7668 49.6826 20.8667C49.6092 20.9627 49.5357 21.0587 49.46 21.1576C49.424 21.2038 49.3913 21.2455 49.3616 21.2838C49.1088 21.6083 49.4056 22.0433 49.8093 21.9643C49.9728 21.9322 50.1118 21.8161 50.1664 21.6587C50.3635 21.09 50.5169 20.5498 50.5913 19.946C50.5973 19.8968 50.5591 19.8537 50.5096 19.8537ZM30.8942 20.9471C30.6945 21.1536 30.6302 21.2201 30.6219 21.367C30.6128 21.5297 30.7651 21.6526 30.9281 21.6501C31.4628 21.6452 31.9748 21.645 32.4948 21.7173C32.715 21.748 32.9344 21.6347 33.0201 21.4295C33.2915 20.9688 33.5606 20.7883 34.0078 20.5243C34.0366 20.5073 34.0544 20.4768 34.0544 20.4433C34.0544 20.3996 34.0242 20.361 33.9816 20.3514C32.8565 20.0995 31.8044 20.2194 30.8942 20.9471ZM55.4727 20.4969C55.384 20.4969 55.2994 20.5407 55.2532 20.6164C54.9184 21.1649 54.8986 21.5961 54.9923 22.2465C55.1326 22.8245 55.4189 23.1661 55.8453 23.5393C55.9167 23.6017 55.9964 23.6547 56.0834 23.6923C56.4714 23.8603 56.7597 23.878 57.1582 23.8582C57.3006 23.8511 57.3997 23.7145 57.3655 23.5761C57.2601 22.9696 57.2824 22.3991 57.38 21.8063C57.4065 21.645 57.3165 21.4857 57.1623 21.4315C56.562 21.2106 56.1035 21.0369 55.674 20.5861C55.621 20.5306 55.5494 20.4969 55.4727 20.4969ZM33.8409 21.3411C33.5333 21.6087 33.8391 21.9829 34.2425 21.923C34.3029 21.914 34.3633 21.905 34.4237 21.8958C34.5206 21.8839 34.6176 21.8719 34.7174 21.8596C34.8035 21.8478 34.8667 21.8392 34.9217 21.8298C35.3093 21.7638 35.6701 21.5061 35.8066 21.1374C35.8285 21.0783 35.852 21.0074 35.8828 20.9137C35.8895 20.8933 35.8989 20.874 35.911 20.8563C36.0149 20.7037 35.9055 20.5024 35.7228 20.5284C35.0452 20.6245 34.3598 20.933 33.8409 21.3411ZM36.3864 21.1796C36.3294 21.2331 36.3117 21.3172 36.3472 21.3868C36.387 21.4647 36.4807 21.4998 36.5614 21.4659C36.7333 21.3937 36.9056 21.3214 37.08 21.2482C37.228 21.1861 37.3087 21.0269 37.269 20.8713C37.2324 20.7279 37.0978 20.626 36.9673 20.6959C36.7608 20.8067 36.5512 21.025 36.3864 21.1796ZM49.0506 19.7492C48.2504 20.2573 47.4329 20.5879 46.5307 20.8828C46.4393 20.9131 46.3479 20.9435 46.2537 20.9747C44.6041 21.4477 42.5964 21.3715 40.9564 20.8742C40.3948 20.7298 39.8925 20.7255 39.3158 20.7381C39.2134 20.7392 39.1111 20.7404 39.0057 20.7416C38.6886 20.7454 38.5232 21.0967 38.7647 21.3021C39.7297 22.1229 41.167 22.4075 42.3938 22.6435C42.6214 22.6634 42.6214 22.6634 42.8535 22.6837C42.949 22.6994 43.0444 22.7152 43.1428 22.7314C44.7943 22.8927 46.6024 21.7569 47.8558 20.7943C47.9136 20.7555 47.9686 20.7219 48.0226 20.6926C48.3177 20.5326 48.632 20.8044 48.632 21.1401C49.1326 20.6777 49.5307 20.2045 49.9115 19.6463C49.9336 19.6139 49.9453 19.576 49.9453 19.5368C49.9453 19.428 49.8561 19.3363 49.7495 19.3581C49.4841 19.4124 49.3089 19.5754 49.0506 19.7492ZM27.6483 20.8911C27.1811 20.9964 26.7957 21.3724 26.7946 21.8512C26.7941 22.0865 26.8384 22.3256 26.9025 22.5721C27.0757 23.0037 27.2102 23.242 27.6192 23.4466C27.6618 23.4679 27.7067 23.4844 27.7525 23.4976C27.9213 23.546 28.0891 23.5897 28.2585 23.6286C28.4871 23.6811 28.7097 23.5318 28.7601 23.3027C28.9013 22.8102 29.1615 22.5483 29.5393 22.2132C29.5723 22.1839 29.6013 22.1512 29.6261 22.1148C29.7593 21.9191 29.75 21.6532 29.5716 21.4977C29.1793 21.1556 28.7204 20.9725 28.1927 20.881C28.0144 20.8501 27.8249 20.8513 27.6483 20.8911ZM53.483 21.2687C53.2654 21.3761 53.2654 21.3761 53.0434 21.4858C52.8591 21.5772 52.7871 21.8076 52.9019 21.9782C53.0946 22.2646 53.2936 22.4605 53.6499 22.6352C53.7178 22.6685 53.7918 22.6837 53.8675 22.6837C54.1668 22.6837 54.4105 22.441 54.4105 22.1417C54.4105 22.0225 54.4105 21.9031 54.4105 21.7832C54.4105 21.2859 54.0201 20.9774 53.5837 21.2159C53.5489 21.2349 53.5152 21.2528 53.483 21.2687ZM47.45 21.7028C47.3657 21.7559 47.2814 21.809 47.1945 21.8636C46.8248 22.0985 46.9986 22.6021 47.4128 22.4594C47.5004 22.4293 47.6004 22.3916 47.7222 22.3448C47.8024 22.3139 47.8761 22.2672 47.9371 22.2066C48.1302 22.0147 48.3122 21.8168 48.4788 21.604C48.582 21.4721 48.632 21.3075 48.632 21.1401C48.1757 21.1401 47.8222 21.4642 47.45 21.7028ZM59.6919 22.0687C58.8644 21.8148 57.8793 21.901 57.8082 22.7636C57.8387 23.3151 58.0581 23.7371 58.4015 24.1191C58.5862 24.3245 58.8047 24.5021 59.0562 24.6161C59.3006 24.7269 59.5179 24.7549 59.8771 24.7499C59.9845 24.7487 60.0918 24.7476 60.2024 24.7464C60.229 24.7459 60.2556 24.7454 60.2823 24.7449C60.3866 24.743 60.4808 24.6848 60.5282 24.5919C60.5629 24.5239 60.5692 24.4438 60.5446 24.3715C60.5244 24.3122 60.5041 24.2527 60.4837 24.1925C60.4625 24.1303 60.4496 24.0654 60.4465 23.9997C60.4381 23.8211 60.4347 23.6423 60.4353 23.4635C60.4348 23.2986 60.4348 23.2986 60.4343 23.1304C60.4449 22.9368 60.4691 22.7615 60.5082 22.5839C60.5428 22.4275 60.4509 22.2674 60.2947 22.2315C60.0819 22.1792 59.8824 22.1271 59.6919 22.0687ZM35.8053 22.7691C35.4053 23.2356 35.2663 23.5196 35.2397 24.0181C35.2315 24.1725 35.3977 24.2693 35.5339 24.1962C35.6632 24.1268 35.7926 24.0575 35.9258 23.9861C36.1178 23.8831 36.1178 23.8831 36.3136 23.7781C36.6653 23.5924 36.6803 23.5845 36.9479 23.4766C36.9726 23.4666 36.9963 23.4548 37.019 23.4409C37.1379 23.3685 37.2211 23.2486 37.243 23.1111C37.2848 22.8485 37.3141 22.5952 37.3354 22.3258C37.3369 22.3071 37.3397 22.2887 37.3439 22.2705C37.4003 22.0259 37.2126 21.7954 36.9814 21.893C36.536 22.081 36.1082 22.4731 35.8053 22.7691ZM38.5015 21.8631C38.3593 21.8167 38.2038 21.8769 38.1315 22.0079C38.0826 22.0963 38.0342 22.1849 37.9861 22.2737C37.9358 22.3647 37.8855 22.4557 37.8337 22.5495C37.7761 22.6639 37.7419 22.7319 37.733 22.7968C37.7041 23.0086 38.0273 23.0614 38.1724 22.9044C38.1781 22.8982 38.1839 22.8918 38.1901 22.8852C38.2331 22.8384 38.2569 22.7779 38.2569 22.7144C38.2569 22.6174 38.3121 22.528 38.3993 22.4853C38.4489 22.461 38.4987 22.4366 38.5488 22.4121C38.6823 22.3467 38.7469 22.1938 38.699 22.0531C38.669 21.9651 38.5989 21.8949 38.5105 21.866C38.5075 21.8651 38.5045 21.8641 38.5015 21.8631ZM52.0405 22.0405C51.9612 22.0405 51.8837 22.0728 51.8325 22.1333C51.4771 22.5532 51.4142 22.9358 51.3735 23.4982C51.3976 24.0027 51.5435 24.4118 51.8005 24.8247C51.8737 24.9424 51.9668 25.0472 52.0762 25.1324C52.4482 25.4222 52.7358 25.5067 53.1797 25.5165C53.3569 25.5204 53.5016 25.3798 53.5153 25.2031C53.5942 24.2257 53.6162 23.9539 53.6709 23.6333C53.7136 23.3831 53.5752 23.1364 53.3353 23.0535C52.8289 22.8457 52.5816 22.5494 52.264 22.1491C52.2096 22.0806 52.1279 22.0405 52.0405 22.0405ZM63.1593 22.7137C62.1522 22.5018 60.8821 22.6624 60.935 23.6902C61.0246 24.2867 61.2563 24.6405 61.7076 25.0393C62.1636 25.3486 62.397 25.4027 62.947 25.4011C63.1217 25.4016 63.1217 25.4016 63.2999 25.4021C63.471 25.4034 63.5468 25.404 63.6252 25.3787C63.7776 25.3294 63.8397 25.1491 63.8011 24.9936C63.7235 24.5471 63.7224 24.1253 63.7268 23.6726C63.7279 23.5112 63.7291 23.3499 63.7303 23.1837C63.7308 23.1458 63.7313 23.108 63.7318 23.0701C63.7336 22.9224 63.6261 22.796 63.48 22.7741C63.369 22.7553 63.2624 22.7354 63.1593 22.7137ZM29.6412 22.8783C29.6116 22.9089 29.5853 22.9426 29.5618 22.9781C29.4929 23.0824 29.4355 23.1761 29.388 23.2677C29.2147 23.6016 29.5509 23.9322 29.9212 23.8664C30.0411 23.845 30.1601 23.8201 30.3309 23.7822C30.4891 23.7471 30.6398 23.865 30.6398 24.027C30.6398 24.1434 30.7193 24.2468 30.8324 24.2745C30.9636 24.3066 31.0951 24.3388 31.2275 24.3712C31.4807 24.4332 31.735 24.2734 31.7889 24.0183C32.0143 23.1289 31.8073 22.0034 30.9091 22.1909C30.4344 22.29 29.9903 22.5173 29.6412 22.8783ZM32.5659 23.4949C32.5074 23.5535 32.4573 23.6209 32.4272 23.6981C32.3204 23.9715 32.3291 24.2377 32.3402 24.5283C32.3444 24.6376 32.4483 24.7166 32.5543 24.6901C32.9549 24.5933 33.3568 24.5028 33.7589 24.4122C33.9126 24.3776 34.0663 24.3429 34.2247 24.3072C34.2683 24.2974 34.312 24.2876 34.3558 24.2777C34.4913 24.2472 34.5951 24.1381 34.6187 24.0012C34.7746 23.2035 34.2663 22.2988 33.5629 22.7061C33.2043 22.9137 32.8745 23.1858 32.5659 23.4949ZM49.9945 22.4907C49.8628 22.5266 49.7311 22.5624 49.5954 22.5993C49.4307 22.6446 49.3388 22.8225 49.4102 22.9777C49.5735 23.3327 49.7671 23.5942 50.0862 23.8693C50.1646 23.9368 50.2619 23.9789 50.3644 23.9932C50.4031 23.9987 50.4362 24.0028 50.4659 24.0057C50.6964 24.028 50.8611 23.7996 50.8564 23.5681C50.8578 23.4812 50.8608 23.396 50.8652 23.3119C50.8933 22.783 50.5054 22.3511 49.9945 22.4907ZM64.9116 22.555C64.7522 22.555 64.6006 22.6359 64.525 22.7762C64.2735 23.2428 64.1835 23.6712 64.2242 24.1865C64.2398 24.3856 64.2896 24.5816 64.3771 24.7611C64.4708 24.9534 64.5827 25.1224 64.7213 25.2789C64.9471 25.5336 65.2523 25.7087 65.5823 25.7921C65.9393 25.8824 66.2645 25.8854 66.6236 25.8055C66.9683 25.7289 67.3601 25.4936 67.2655 25.1534C67.2177 24.9818 67.1463 24.7788 67.1433 24.6007C67.1397 24.3825 67.1393 24.1642 67.1413 23.9459C67.1425 23.7823 67.1437 23.6186 67.1449 23.45C67.145 23.4441 67.1451 23.4382 67.1451 23.4323C67.1477 23.2254 66.9951 23.0493 66.7899 23.0224C66.5576 22.99 66.5576 22.99 66.3205 22.957C66.1666 22.9361 66.0127 22.9153 65.8542 22.8937C65.4871 22.8212 65.4471 22.8133 65.1641 22.6304C65.0885 22.5816 65.0016 22.555 64.9116 22.555ZM73.3539 22.9219C72.3307 22.8259 71.0365 23.2164 71.1316 24.2396C71.1444 24.3769 71.1708 24.5196 71.2126 24.6695C71.2878 24.8472 71.4993 24.9239 71.6624 24.8209C72.1036 24.5422 72.4578 24.2061 72.8378 23.8253C72.9461 23.7191 72.9461 23.7191 73.0566 23.6108C73.3352 23.3892 73.3994 23.3381 73.4899 23.1524C73.5396 23.0502 73.4671 22.9312 73.3539 22.9219ZM16.9277 23.5172C16.8777 23.5591 16.8501 23.6205 16.8501 23.6857C16.8501 23.8315 16.9846 23.9409 17.127 23.91C17.5032 23.8285 17.8792 23.7466 18.2552 23.6644C19.255 23.4455 19.2688 22.5001 18.2885 22.7941C17.7853 22.945 17.3128 23.1951 16.9277 23.5172ZM38.733 23.0696C37.998 23.818 37.6728 24.4859 37.6747 25.5287C37.6882 25.6297 37.6971 25.696 37.7195 25.7479C37.8334 26.0117 38.2451 25.8491 38.4047 25.6101C38.6883 25.2178 38.9718 24.9773 39.355 24.7405C39.4802 24.6631 39.5432 24.514 39.5046 24.372C39.458 24.0869 39.4391 23.8037 39.4332 23.5198C39.4236 23.0605 39.0647 22.7518 38.733 23.0696ZM40.5784 22.7888C40.3253 22.7337 40.0253 22.8681 39.9829 23.1237C39.9441 23.3579 39.9412 23.5836 39.956 23.8446C39.9606 23.9261 39.9928 24.0038 40.0464 24.0653C40.0965 24.1229 40.1301 24.1595 40.1667 24.1944C40.2633 24.2866 40.421 24.2571 40.4926 24.1444C40.5512 24.0524 40.6098 23.9603 40.6701 23.8655C40.728 23.7745 40.7859 23.6835 40.8456 23.5897C40.85 23.5828 40.8544 23.576 40.8588 23.5691C41.0548 23.2658 40.9313 22.8656 40.5784 22.7888ZM69.796 23.0698C68.7578 22.9913 67.5679 23.311 67.6321 24.3503C67.6474 24.5977 67.7279 24.8574 67.8587 25.0679C68.0249 25.3353 68.2149 25.5629 68.4737 25.7466C68.6333 25.8599 68.8216 25.9254 69.0149 25.9563C69.5828 26.0469 69.9897 25.9765 70.5191 25.7703C70.7003 25.6997 70.7997 25.5064 70.7616 25.3157C70.6915 24.8441 70.6827 24.3981 70.6872 23.9218C70.6884 23.7616 70.6896 23.6014 70.6908 23.4364C70.6914 23.3947 70.6919 23.353 70.6924 23.3111C70.6941 23.1805 70.5847 23.0758 70.4543 23.0832C70.2255 23.0904 70.0077 23.0858 69.796 23.0698ZM48.5498 23.0696C48.4374 23.0696 48.3293 23.1229 48.2671 23.2166C47.8804 23.799 47.7537 24.3242 47.7993 24.9869C47.8176 25.2527 47.8812 25.5155 48.0028 25.7526C48.1837 26.1053 48.4337 26.4057 48.7882 26.6134C48.8573 26.6539 48.9357 26.6753 49.0155 26.6824C49.1617 26.6953 49.2303 26.6988 49.3257 26.6928C49.4563 26.6845 49.5576 26.5759 49.5662 26.4453C49.6201 25.8173 49.7333 25.363 50.0362 24.8137C50.0623 24.7665 50.0766 24.7142 50.0766 24.6603C50.0766 24.5517 50.0197 24.4504 49.9267 24.3944C49.857 24.3526 49.7869 24.3104 49.7155 24.2675C49.2628 23.952 49.0868 23.6898 48.8619 23.2607C48.8006 23.1439 48.6818 23.0696 48.5498 23.0696ZM43.3972 23.2583C43.0377 23.2263 42.7025 23.5185 42.7634 23.8742C42.8019 24.0997 42.8845 24.2569 43.0832 24.612C43.1102 24.6603 43.1584 24.7103 43.2031 24.7428C43.3179 24.8262 43.4648 24.8386 43.5724 24.7461C43.7777 24.5699 43.8099 24.3405 43.9205 24.0263C43.9669 23.8962 44.0133 23.766 44.0611 23.6319C44.1148 23.4769 44.0086 23.3128 43.8453 23.2982C43.6964 23.285 43.5471 23.2717 43.3972 23.2583ZM46.5718 23.1339C46.4125 23.1518 46.4125 23.1518 46.2501 23.1701C46.098 23.1876 45.959 23.2801 45.9061 23.4238C45.8312 23.6271 45.8822 23.7047 46.1039 24.0424C46.2961 24.369 46.4058 24.4825 46.7059 24.684C46.7626 24.7221 46.8298 24.7419 46.8981 24.7419C46.9035 24.7419 46.909 24.7419 46.9144 24.7419C47.073 24.7419 47.2095 24.6297 47.2402 24.474C47.2634 24.3581 47.2866 24.2422 47.3105 24.1228C47.3448 23.9504 47.3448 23.9504 47.3797 23.7746C47.4572 23.4229 47.2071 23.0725 46.8485 23.1053C46.7572 23.1137 46.6652 23.1233 46.5718 23.1339ZM41.614 23.4967C40.9463 24.2522 40.7009 24.8949 40.6988 25.8755C40.6986 25.9417 40.704 26.008 40.7187 26.0725C40.743 26.1783 40.7753 26.2715 40.8154 26.3565C41.036 26.8244 41.7015 26.7636 41.9178 26.2935C42.0765 25.9713 42.2181 25.7461 42.4681 25.5515C42.6051 25.445 42.6729 25.2643 42.6072 25.1036C42.5585 24.9843 42.5097 24.8649 42.4595 24.7419C42.4134 24.6384 42.3674 24.5349 42.32 24.4283C42.2462 24.2308 42.1938 24.0373 42.1526 23.8404C42.0899 23.5406 41.8186 23.2686 41.614 23.4967ZM56.0616 24.2166C55.2427 23.867 54.0955 23.9104 54.0259 24.798C54.0167 24.916 54.028 25.058 54.0587 25.1724C54.2015 25.7062 54.4405 26.1183 54.8482 26.4887C54.9886 26.6163 55.1465 26.7296 55.3262 26.79C55.3377 26.7939 55.3489 26.7973 55.3599 26.8002C55.5946 26.8622 55.8526 26.7868 56.0557 26.6538C56.3273 26.476 56.4309 26.1264 56.495 25.8081C56.5353 25.6079 56.5673 25.4066 56.5959 25.1996C56.6291 24.9684 56.639 24.8996 56.6874 24.7453C56.733 24.6003 56.6585 24.4444 56.5149 24.3946C56.3554 24.3363 56.205 24.2779 56.0616 24.2166ZM20.4217 23.6806C20.3266 23.7035 20.2315 23.7263 20.1336 23.7498C19.8323 23.8224 19.5314 23.8962 19.2305 23.97C19.0253 24.0197 18.8201 24.0693 18.6149 24.1188C18.5956 24.1234 18.5762 24.1281 18.5569 24.1328C17.7346 24.3316 17.1288 25.1413 17.4211 25.9353C17.4567 26.0321 17.4923 26.1288 17.529 26.2286C17.5677 26.3296 17.6064 26.4306 17.6463 26.5347C17.687 26.6415 17.7278 26.7484 17.7697 26.8584C18.3304 28.2945 19.0487 29.6376 19.8379 30.9646C19.8858 31.0466 19.9337 31.1285 19.983 31.213C20.2099 31.5838 20.3858 31.7987 20.7224 31.9791C20.8425 32.0435 20.9884 32.0233 21.0971 31.941C22.1813 31.1213 23.265 30.3045 24.3942 29.5447C24.7544 29.2987 25.0671 29.0393 25.3704 28.7495C25.5353 28.5919 25.5542 28.3372 25.423 28.1507C24.5797 26.9249 23.9084 25.6537 23.4223 24.2504C23.2584 23.9149 23.1327 23.8294 22.7928 23.6726C22.6193 23.588 22.4403 23.5114 22.25 23.4794C21.6342 23.3755 21.0349 23.5285 20.4217 23.6806ZM45.058 23.4555C44.9928 23.4555 44.9294 23.4825 44.8852 23.5304C44.7767 23.6481 44.7555 23.6794 44.6182 23.8816C44.5612 23.9607 44.5041 24.0398 44.4453 24.1213C44.1568 24.5812 44.1022 25.075 44.1284 25.5875C44.1434 25.8809 44.2064 26.1742 44.3511 26.43C44.5056 26.7034 44.7029 26.9181 44.9895 27.1204C45.0517 27.1643 45.1255 27.1859 45.2016 27.1859C45.3678 27.1859 45.517 27.0811 45.5722 26.9243C45.5752 26.9159 45.5782 26.9075 45.5811 26.899C45.6263 26.7735 45.6715 26.648 45.7181 26.5186C45.7623 26.3948 45.8065 26.2709 45.852 26.1433C45.9614 25.8778 46.0864 25.6377 46.2294 25.399C46.3198 25.2482 46.2867 25.0572 46.1376 24.964C46.1216 24.9539 46.0967 24.9364 46.0829 24.9235C45.6644 24.5335 45.4766 24.1133 45.276 23.605C45.2405 23.5149 45.1547 23.4555 45.058 23.4555ZM35.7734 24.8403C35.2117 25.4143 34.9779 25.8061 34.9731 26.576C34.9727 26.6391 34.9967 26.7417 35.0172 26.8014C35.1101 27.0724 35.4218 27.106 35.6716 26.9655C35.8316 26.8756 35.9869 26.7784 36.1474 26.6714C36.2743 26.5902 36.3612 26.5347 36.4412 26.4886C36.8775 26.2373 37.2063 25.8326 37.2063 25.3291C37.2063 24.6534 36.6199 24.1208 36.0999 24.5522C35.9923 24.6415 35.8853 24.7391 35.7734 24.8403ZM72.8414 24.5615C72.6922 24.7098 72.5433 24.8584 72.3945 25.0072C71.7627 25.6327 71.1238 26.2368 70.4328 26.8C70.3541 26.8649 70.2754 26.9297 70.1943 26.9965C69.8726 27.2604 69.7578 27.7165 70.0019 28.0534C70.0964 28.1839 70.2006 28.3103 70.3179 28.4401C70.3886 28.5191 70.4594 28.598 70.5323 28.6793C70.6304 28.7868 70.7861 28.8238 70.9153 28.7568C71.3184 28.548 71.6367 28.2539 71.9759 27.9417C72.0799 27.8467 72.0799 27.8467 72.186 27.7498C72.3903 27.5626 72.5935 27.3743 72.7967 27.1859C72.9017 27.0901 73.0067 26.9942 73.1148 26.8955C73.4675 26.5643 73.7528 26.247 74.0017 25.8839C74.2476 25.5252 74.1644 25.0481 73.8556 24.7419C73.7596 24.6463 73.6636 24.5508 73.5647 24.4524C73.1862 24.1013 73.2456 24.1749 72.8414 24.5615ZM59.2367 25.2431C58.2964 24.9868 57.0207 24.9973 57.0125 25.9719C57.0106 26.0729 57.0088 26.1739 57.0069 26.2779C57.009 26.4007 57.0102 26.4722 57.032 26.5304C57.1101 26.7397 57.4224 26.6959 57.5927 26.5513C57.7209 26.445 57.849 26.3387 57.9811 26.2292C58.1075 26.1232 58.234 26.0173 58.3643 25.9081C58.6684 25.6954 58.8721 25.5955 59.1826 25.5423C59.284 25.5249 59.3625 25.6246 59.3287 25.7217C59.1463 26.2513 58.9741 26.7833 58.8084 27.3176C58.7076 27.6426 58.9478 28.0146 59.2797 27.9393C59.308 27.9329 59.3378 27.9253 59.3702 27.9165C59.5446 27.8691 59.66 27.7038 59.6545 27.5231C59.6424 26.8344 59.6546 26.2433 59.8511 25.6066C59.8869 25.4907 59.8152 25.3666 59.6955 25.3468C59.534 25.3166 59.3817 25.2826 59.2367 25.2431ZM24.3501 24.4846C24.2755 24.4846 24.2186 24.5531 24.2335 24.6263C24.2634 24.7728 24.2935 24.92 24.3241 25.0699C24.331 25.1036 24.3601 25.1278 24.3945 25.1278C24.4344 25.1278 24.4673 25.0954 24.4673 25.0555C24.4673 24.9056 24.4673 24.7555 24.4673 24.6026C24.4673 24.5374 24.4153 24.4846 24.3501 24.4846ZM50.9728 24.7419C50.9043 24.7419 50.8372 24.7695 50.7904 24.8194C50.3204 25.3203 50.1552 25.699 50.1259 26.4141C50.1543 27.0319 50.2541 27.4435 50.6681 27.9145C51.0692 28.2653 51.3987 28.4172 51.8646 28.4594C52.0437 28.4756 52.1965 28.3398 52.2215 28.1618C52.3225 27.5008 52.4142 26.9281 52.7196 26.3558C52.7764 26.2493 52.7342 26.1142 52.6232 26.0669C51.9715 25.7722 51.5431 25.4787 51.2011 24.8788C51.1539 24.7959 51.0682 24.7419 50.9728 24.7419ZM25.95 24.9059C25.4445 24.8375 24.9562 25.1643 24.9629 25.6744C24.9645 25.7991 24.9735 25.9253 24.9839 26.0526C24.9896 26.1219 25.003 26.1905 25.0239 26.2568C25.0764 26.4238 25.1017 26.4979 25.1436 26.5861C25.2069 26.7196 25.3488 26.7965 25.4964 26.791C26.2475 26.7751 26.9342 26.8522 27.656 27.0067C27.7753 27.0323 27.8911 26.9483 27.9013 26.8267C27.9112 26.725 27.921 26.6234 27.9311 26.5186C27.9402 26.4186 27.9494 26.3187 27.9588 26.2156C28.0452 25.7133 27.7782 25.1808 27.2741 25.1052C27.1812 25.0913 27.0883 25.0774 26.9954 25.0634C26.8745 25.045 26.7536 25.0266 26.6291 25.0077C26.5123 24.9903 26.3955 24.9728 26.2751 24.9549C26.1678 24.9387 26.0605 24.9226 25.95 24.9059ZM29.1031 25.363C28.7901 25.6015 28.5772 25.9587 28.5334 26.3498C28.5204 26.4653 28.5151 26.5864 28.5139 26.7277C28.512 26.8257 28.5101 26.9237 28.5082 27.0246C28.5241 27.1765 28.5542 27.3031 28.5989 27.4237C28.6914 27.6737 28.9806 27.7761 29.2362 27.7005C29.8303 27.5521 30.4153 27.5472 31.0183 27.5634C31.1728 27.5675 31.303 27.4484 31.3113 27.294C31.394 26.114 30.9056 24.6142 29.7857 24.9951C29.5476 25.0761 29.3186 25.1988 29.1031 25.363ZM32.2896 25.8192C31.9927 26.1926 31.8373 26.4775 31.8224 26.9308C31.8196 27.0145 31.8346 27.0979 31.8632 27.1767C31.9031 27.2868 31.9465 27.3925 31.9929 27.497C32.107 27.754 32.4192 27.849 32.6672 27.7166C33.0891 27.5081 33.5082 27.379 33.9508 27.282C34.2346 27.2198 34.4413 26.9698 34.4319 26.6794C34.4288 25.7243 33.758 24.7485 32.9518 25.2607C32.7229 25.4062 32.5047 25.5919 32.2896 25.8192ZM39.1762 25.6423C38.7431 26.0762 38.486 26.4409 38.3367 26.965C38.2714 27.1943 38.2536 27.4356 38.2846 27.6719C38.342 28.1091 38.4904 28.4198 38.8321 28.7759C38.8834 28.8294 38.9542 28.8582 39.0283 28.8582C39.1205 28.8582 39.2084 28.8137 39.2606 28.7378C39.335 28.6297 39.3607 28.5819 39.4717 28.3758C39.7102 27.9826 39.9371 27.7459 40.2645 27.5274C40.4568 27.3991 40.5372 27.1507 40.4321 26.9447C40.3217 26.6965 40.2513 26.447 40.2039 26.1939C40.0931 25.6019 39.6557 25.2777 39.1762 25.6423ZM60.9848 25.2564C60.8968 25.2564 60.8115 25.2931 60.754 25.3597C60.2998 25.8855 60.1385 26.3076 60.1536 27.0412C60.2284 27.6186 60.4752 28.031 60.9416 28.3899C61.0654 28.4605 61.1851 28.5177 61.3028 28.5631C62.2687 28.9353 63.0893 27.9802 63.0701 26.9452C63.0748 26.7137 63.0907 26.5173 63.1335 26.3135C63.1651 26.163 63.0692 26.0099 62.9167 25.99C62.2089 25.8838 61.7255 25.7986 61.2006 25.3404C61.1403 25.2878 61.0647 25.2564 60.9848 25.2564ZM47.45 25.8996C47.3062 25.6882 47.0134 25.6337 46.8117 25.7908C46.5034 26.031 46.4208 26.1621 46.2262 26.5977C46.1664 26.7315 46.1275 26.8741 46.115 27.0201C46.0835 27.3881 46.0854 27.7106 46.1713 28.044C46.2557 28.3714 46.4591 28.6553 46.7157 28.8756C46.9141 29.0459 47.1232 29.1896 47.3702 29.3287C47.4224 29.358 47.4814 29.3727 47.5412 29.3727C47.5656 29.3727 47.5901 29.3727 47.6146 29.3727C47.7472 29.3727 47.8605 29.2773 47.883 29.1466C48.0163 28.4648 48.1954 28.0142 48.6162 27.4638C48.6266 27.4502 48.6358 27.4357 48.6436 27.4205C48.7107 27.2891 48.6633 27.128 48.5356 27.0542C48.4915 27.0286 48.4471 27.0029 48.4022 26.9769C47.9593 26.6894 47.7223 26.3472 47.45 25.8996ZM42.6857 26.1865C42.3278 26.5466 42.1443 26.9462 42.0599 27.4016C42.0067 27.6887 42.0096 27.9873 42.0914 28.2676C42.2186 28.7039 42.4643 29.0061 42.8699 29.3567C42.9774 29.4326 43.0359 29.474 43.0936 29.4944C43.2614 29.5539 43.4264 29.4029 43.504 29.2426C43.7409 28.7639 43.9688 28.3212 44.2815 27.9072C44.4292 27.7116 44.4276 27.4343 44.2571 27.2583C44.0754 27.0475 43.9421 26.8277 43.8355 26.5967C43.5854 26.0549 43.1384 25.7977 42.6857 26.1865ZM65.7761 26.3363C64.8326 26.1748 63.679 26.2243 63.5098 27.1665C63.4789 27.3384 63.4822 27.5314 63.5216 27.7015C63.6173 28.1148 63.7777 28.4063 64.06 28.6927C64.2672 28.9028 64.5173 29.0727 64.799 29.1603C65.1364 29.2652 65.4666 29.2739 65.8543 29.2514C65.9294 29.247 66.0035 29.2311 66.0741 29.2048C66.154 29.1749 66.2337 29.1445 66.3132 29.1134C66.4991 29.0405 66.6107 28.8514 66.5909 28.6527C66.5283 27.9646 66.4746 27.3293 66.5788 26.6605C66.5989 26.5312 66.5047 26.4093 66.3739 26.4041C66.1591 26.3901 65.9623 26.3682 65.7761 26.3363ZM68.6209 26.3578C68.0599 26.2176 67.3926 26.4124 67.1996 26.9574C66.9363 27.7009 67.8339 28.1147 68.465 27.6416C68.7721 27.4114 69.07 27.1673 69.3709 26.9182C69.4543 26.8492 69.479 26.7325 69.4298 26.6361C69.3998 26.5773 69.3457 26.5332 69.2818 26.5166C69.0625 26.4597 68.8427 26.4043 68.6209 26.3578ZM53.7428 26.2855C53.6668 26.2855 53.5929 26.3171 53.5414 26.3731C53.1567 26.7909 52.9216 27.091 52.8247 27.6275C52.7978 27.7766 52.7967 27.9298 52.8213 28.0793C52.8892 28.4934 53.0416 28.8201 53.2515 29.1872C53.3176 29.3028 53.44 29.3727 53.5733 29.3727C53.6866 29.3727 53.7958 29.3221 53.866 29.2331C54.0389 29.0141 54.1965 28.7961 54.3531 28.5607C54.4055 28.4842 54.4579 28.4077 54.5118 28.3288C54.6544 28.1202 54.7952 27.9104 54.9358 27.7005C55.0755 27.4953 55.0044 27.2141 54.7839 27.1C54.7771 27.0965 54.7703 27.093 54.7635 27.0895C54.4098 26.8939 54.1941 26.7043 53.9688 26.4021C53.9152 26.3301 53.8326 26.2855 53.7428 26.2855ZM35.9516 27.5279C35.8758 27.6048 35.8085 27.69 35.7541 27.7833C35.4771 28.2581 35.3992 28.7464 35.4654 29.2852C35.4831 29.4294 35.5291 29.5687 35.5919 29.6997C35.6953 29.9156 35.7443 29.9865 35.8952 30.1424C35.977 30.2269 36.089 30.2732 36.2065 30.2732C36.3396 30.2732 36.4671 30.2133 36.5508 30.1098C36.6588 29.9762 36.7665 29.8423 36.8728 29.7074C37.1596 29.4151 37.511 29.2447 37.8816 29.0881C38.0183 29.0304 38.0878 28.8774 38.0394 28.7371C37.6906 27.6759 36.759 26.7197 35.9695 27.5099C35.9635 27.5159 35.9576 27.5219 35.9516 27.5279ZM57.6117 27.3548C56.9074 28.0533 56.2196 28.8677 56.0169 29.8438C55.9954 29.9472 55.9208 30.032 55.8182 30.0571C55.6446 30.0996 55.4795 29.9582 55.4977 29.7803C55.5129 29.6313 55.5285 29.4823 55.5445 29.3334C55.6013 28.8059 55.0157 28.5148 54.6963 28.9385C53.9685 29.9042 53.4211 31.0731 53.1573 32.1834C53.1214 32.3345 53.2232 32.4818 53.3763 32.5082C53.7539 32.5886 53.7539 32.5886 54.1232 32.7333C54.658 32.8771 55.0904 32.8605 55.5467 32.7026C55.8767 32.5884 56.1793 32.3947 56.4072 32.1302C56.6748 31.8198 56.7996 31.4935 56.8648 31.0048C56.8713 30.9292 56.8778 30.8536 56.8844 30.7774C56.8965 30.6377 57.0115 30.5305 57.1518 30.5305C57.3038 30.5305 57.4288 30.656 57.418 30.8077C57.3693 31.4942 57.1966 32.047 56.7436 32.5998C56.6784 32.6794 56.6045 32.7517 56.5222 32.8135C55.9605 33.2356 55.3063 33.3855 54.5945 33.3625C54.5595 33.3613 54.5245 33.357 54.4902 33.3498C53.9753 33.2426 53.5543 33.1112 53.1786 32.7941C53.0986 32.7265 52.9659 32.7786 52.9659 32.8833C52.9659 32.9362 52.9298 32.9834 52.8785 32.9959C52.8174 33.0109 52.7739 33.0215 52.7336 33.0314C52.5713 33.0712 52.4073 32.9727 52.3659 32.8108C52.2782 32.4668 52.19 32.1216 52.1003 31.7702C52.0726 31.6615 51.965 31.5995 51.8643 31.6488C51.8212 31.6699 51.7755 31.7139 51.7613 31.7597C51.3062 33.2316 51.3576 34.9781 51.9043 36.419C51.9115 36.438 51.9228 36.455 51.9372 36.4692C51.9785 36.5097 52.0199 36.5502 52.0615 36.591C52.1049 36.6334 52.1779 36.6037 52.1779 36.543C52.1779 36.4965 52.2238 36.4627 52.2681 36.4771C52.9663 36.7051 52.9769 36.7094 53.2445 36.817C53.7296 37.0023 54.1162 37.1061 54.5705 37.0436C54.8368 37.007 55.0936 36.9034 55.3019 36.7335C55.5931 36.4959 55.7858 36.1888 55.9565 35.8399C55.9992 35.7527 56.031 35.6605 56.0512 35.5655C56.0869 35.3977 56.116 35.2298 56.1404 35.0616C56.2224 34.497 56.744 34.0689 57.2752 34.277C57.5888 34.3613 57.8589 34.3949 58.1359 34.3764C58.5472 34.349 58.9454 34.1789 59.2441 33.8948C59.5557 33.5985 59.7088 33.2577 59.8679 32.7409C59.8731 32.7192 59.878 32.6989 59.8825 32.6799C59.9913 32.2214 59.7298 31.7583 59.319 31.5274C58.6568 31.0935 58.0366 30.653 57.8076 29.8978C57.7738 29.7862 57.7605 29.6694 57.7602 29.5528C57.7582 28.9184 57.885 28.2893 58.0349 27.6688C58.126 27.2918 57.8938 27.0886 57.6117 27.3548ZM26.1146 27.2787C25.7678 27.3002 25.8003 27.7685 26.0127 28.0436C26.6757 28.9025 26.8081 29.0564 27.7213 30.1108C27.7394 30.1318 27.7661 30.1446 27.7938 30.1446C27.8434 30.1446 27.8851 30.1066 27.8894 30.0572C27.8933 30.0114 27.8973 29.9654 27.9013 29.9184C28.0036 28.8721 27.776 27.6423 26.7588 27.3767C26.5964 27.3342 26.4273 27.3024 26.25 27.2811C26.2108 27.2763 26.154 27.2762 26.1146 27.2787ZM48.9067 27.9426C48.8067 28.0442 48.7216 28.1459 48.6601 28.2746C48.5297 28.5473 48.4701 28.8372 48.4559 29.134C48.4319 29.6337 48.5928 30.1342 48.9109 30.5204C49.0789 30.7245 49.2723 30.9024 49.506 31.0615C49.6198 31.139 49.754 31.1805 49.8913 31.1917C50.0971 31.2085 50.1875 31.2104 50.3502 31.1974C50.4986 31.1855 50.618 31.071 50.6409 30.9239C50.7598 30.2506 50.9252 29.7421 51.2643 29.184C51.3292 29.0772 51.2938 28.9361 51.1832 28.8778C50.7942 28.6588 50.5075 28.4425 50.2544 28.1796C49.8502 27.7596 49.3154 27.527 48.9067 27.9426ZM33.1005 28.1702C32.7833 28.368 32.5018 28.6302 32.3241 28.959C32.2199 29.1518 32.1517 29.3494 32.1148 29.5774C32.0819 29.7809 32.111 29.9897 32.186 30.1818C32.3292 30.5492 32.5135 30.8359 32.7986 31.1161C32.915 31.2304 33.0967 31.2366 33.23 31.1425C33.7714 30.7724 34.2348 30.5024 34.8374 30.3375C34.9825 30.2978 35.0752 30.1519 35.0393 30.0059C34.9655 29.5832 34.9658 29.1902 34.9737 28.7617C34.9744 28.7193 34.9751 28.6768 34.9757 28.6344C34.9817 28.197 34.795 27.7761 34.3581 27.797C33.8461 27.805 33.4741 27.9373 33.1005 28.1702ZM40.1766 28.3818C39.7387 28.8335 39.5509 29.273 39.5128 29.8873C39.5393 30.5353 39.8554 30.9451 40.3182 31.3781C40.3501 31.408 40.3974 31.4395 40.4359 31.4602C40.5614 31.5276 40.7003 31.5401 40.8281 31.4771C41.1308 31.3277 41.1899 31.1292 41.3847 30.7691C41.591 30.4525 41.8494 30.2415 42.1413 30.0247C42.2446 29.948 42.2683 29.8032 42.1937 29.6983C42.0654 29.5094 41.9558 29.3293 41.8613 29.1494C41.4824 28.4283 40.7822 27.837 40.1766 28.3818ZM69.2617 28.2196C69.1056 28.0678 68.8609 28.0562 68.6886 28.1894C67.768 28.8947 66.8303 29.5603 65.8519 30.1872C65.5015 30.4051 65.3842 30.4781 65.2634 30.6586C65.1106 30.887 65.1346 31.2049 65.2878 31.433C65.4558 31.6831 65.7617 31.7819 66.0521 31.7013C67.4371 31.3169 68.7421 30.5251 69.8533 29.6338C70.0367 29.4867 70.0754 29.2249 69.9485 29.027C69.9074 28.9629 69.8662 28.8987 69.8239 28.8326C69.6526 28.611 69.4608 28.4131 69.2617 28.2196ZM28.95 28.6073C28.7841 28.7514 28.6423 28.9271 28.5688 29.1341C28.4548 29.4552 28.4624 29.7863 28.503 30.1349C28.5237 30.3127 28.5693 30.4965 28.6473 30.6576C28.8678 31.1135 29.3478 31.4717 29.824 31.2996C29.9373 31.2587 30.0595 31.204 30.2099 31.144C30.5638 31.0267 30.922 30.9769 31.2875 30.9457C31.5132 30.9263 31.6884 30.7389 31.6858 30.5124C31.6846 30.3362 31.6834 30.16 31.6822 29.9838C31.6811 29.896 31.68 29.8083 31.6789 29.7179C31.6753 28.9966 31.3445 28.1742 30.6287 28.0844C30.0359 28.0102 29.4755 28.1507 28.95 28.6073ZM44.6758 28.3762C44.5958 28.4432 44.5276 28.5134 44.4666 28.5981C44.0612 29.1614 43.9519 29.6273 43.9847 30.3546C44.0816 30.9357 44.366 31.2752 44.817 31.6182C44.8646 31.6545 44.9159 31.6862 44.9692 31.7133C45.1843 31.823 45.2532 31.8441 45.5028 31.8321C45.6471 31.8252 45.7698 31.7248 45.8105 31.5862C46.0088 30.9527 46.2456 30.5036 46.6521 30.0442C46.7802 29.8994 46.7447 29.6684 46.5718 29.5818C46.2495 29.3763 46.0363 29.0994 45.8654 28.7904C45.5953 28.3023 45.1035 28.0182 44.6758 28.3762ZM58.6656 28.5323C58.5606 28.498 58.4419 28.5438 58.4047 28.6479C58.3339 28.8463 58.338 29.0047 58.3422 29.2602C58.3448 29.4144 58.5331 29.4667 58.6003 29.3278C58.6803 29.1625 58.7445 28.9952 58.8065 28.8126C58.8461 28.6959 58.7828 28.5706 58.6656 28.5323ZM60.0619 28.4723C59.9757 28.4723 59.8914 28.5058 59.8313 28.5677C59.3599 29.0532 59.1606 29.4594 59.0357 30.1117C59.0152 30.2187 59.0055 30.3496 59.0168 30.458C59.0423 30.7036 59.2373 30.8698 59.4417 31.0082C60.0297 31.4065 60.701 31.7034 61.3802 31.9094C61.4604 31.9337 61.5455 31.9384 61.6281 31.9238C61.6561 31.9189 61.6804 31.9144 61.7023 31.9102C61.8998 31.8717 62.0239 31.6793 62.0184 31.4781C62.0161 31.3299 62.0137 31.1817 62.0112 31.0289C62.0082 30.8827 62.0052 30.7364 62.002 30.5857C62.022 30.2414 62.0843 29.9569 62.1865 29.6546C62.2371 29.505 62.1514 29.3413 61.9974 29.3064C61.3145 29.1403 60.8079 29.0002 60.2852 28.5571C60.2224 28.5038 60.1443 28.4723 60.0619 28.4723ZM26.1688 29.3669C26.0213 29.2225 25.7902 29.2083 25.6261 29.3335C24.4224 30.2468 23.1992 31.1327 21.9709 32.014C21.5109 32.3459 21.3483 32.9639 21.6635 33.4356C22.617 34.8625 24.178 36.1281 25.4604 37.123C25.5355 37.1814 25.6105 37.2398 25.6878 37.2999C26.38 37.8207 27.3046 37.5093 27.7999 36.7987C28.2407 36.1662 28.6782 35.5316 29.1136 34.8955C29.7728 33.9322 29.6472 32.6345 28.7765 31.857C28.0193 31.1769 27.2894 30.4759 26.5685 29.7586C26.4354 29.628 26.3021 29.4974 26.1688 29.3669ZM64.0399 29.371C63.6246 29.2161 63.1355 29.3393 62.9025 29.7163C62.8701 29.7686 62.8399 29.8205 62.8119 29.8724C62.4229 30.5927 63.2878 31.1414 63.9921 30.7241C64.073 30.6762 64.1541 30.6276 64.2357 30.5787C64.3721 30.4976 64.3721 30.4976 64.5114 30.4149C64.8497 30.2138 64.8923 29.7531 64.5387 29.5804C64.378 29.502 64.2099 29.4344 64.0399 29.371ZM51.69 29.5968C51.6654 29.6192 51.6419 29.6431 51.6215 29.6695C51.4454 29.8979 51.3465 30.1018 51.2948 30.3169C51.2292 30.5892 51.5705 30.6866 51.7002 30.4383C51.7519 30.3392 51.8535 30.2732 51.9654 30.2732C52.0914 30.2732 52.2052 30.3534 52.2458 30.4728C52.264 30.5261 52.2821 30.5795 52.3003 30.6329C52.4262 31.0028 52.9241 31.1265 53.0914 30.7735C53.128 30.6961 53.1613 30.6109 53.194 30.5121C53.2179 30.4395 53.2293 30.3625 53.2187 30.2868C53.1883 30.0683 53.094 29.8808 52.969 29.7079C52.6723 29.2973 52.1433 29.167 51.7762 29.5162C51.7465 29.5444 51.7178 29.5716 51.69 29.5968ZM38.1502 29.6461C37.6699 29.8344 37.3415 30.0846 37.0496 30.4263C36.7946 30.7248 36.585 31.0821 36.5676 31.4742C36.5601 31.6414 36.583 31.8045 36.6286 31.9988C36.6606 32.1349 36.7123 32.2663 36.7841 32.3863C37.0119 32.7668 37.2492 32.9947 37.6144 33.1876C37.828 33.3005 38.0876 33.2115 38.2159 33.0067C38.5712 32.5176 38.945 32.2117 39.4459 31.9449C39.5825 31.8721 39.6378 31.7023 39.5625 31.5671C39.347 31.1657 39.1847 30.8142 39.0721 30.4351C38.9245 29.9383 38.6284 29.4462 38.1502 29.6461ZM47.1668 30.4473C47.0868 30.5094 47.0213 30.5681 46.9553 30.6448C46.4906 31.1852 46.3534 31.5455 46.3619 32.2902C46.4234 32.78 46.6802 33.1021 47.0013 33.4367C47.1019 33.5415 47.2189 33.6312 47.3544 33.6836C47.6449 33.796 47.9302 33.8289 48.2439 33.8546C48.392 33.8668 48.5274 33.7694 48.5638 33.6253C48.7554 32.9294 48.987 32.4225 49.4049 31.8731C49.4779 31.7772 49.448 31.6371 49.34 31.5837C48.9021 31.3458 48.6241 31.1225 48.4047 30.8255C48.0742 30.3782 47.6059 30.106 47.1668 30.4473ZM42.2156 30.6824C42.1202 30.7474 42.0259 30.8306 41.9533 30.9203C41.6912 31.2441 41.5268 31.5586 41.4436 31.9378C41.3883 32.1893 41.3863 32.4523 41.4507 32.7015C41.5197 32.9689 41.6389 33.2082 41.803 33.4427C41.8863 33.5618 41.9904 33.6652 42.109 33.7492C42.3767 33.9387 42.6387 34.0653 42.9588 34.1121C43.1334 34.1376 43.2946 34.0294 43.368 33.869C43.6668 33.2459 43.9009 32.8093 44.4523 32.4072C44.5191 32.3585 44.5608 32.2827 44.5608 32.2C44.5608 32.1214 44.5235 32.0465 44.4604 31.9997C44.3933 31.95 44.3259 31.9 44.2571 31.849C44.098 31.7185 43.9656 31.5801 43.8549 31.4322C43.4148 30.8443 42.8225 30.2689 42.2156 30.6824ZM5.05693 30.4997C4.9027 30.5704 4.88227 30.7713 5.00348 30.89C5.01571 30.902 5.02724 30.9156 5.03682 30.9298C5.34049 31.3796 5.36496 31.6815 5.38849 32.2168C5.41097 32.369 5.50422 32.5101 5.653 32.5495C5.8285 32.5959 5.96382 32.569 6.21443 32.5344C8.1964 32.2942 10.1472 32.4847 12.1039 32.7998C12.2551 32.8242 12.3529 32.9714 12.315 33.1198C12.2808 33.2539 12.1476 33.3401 12.0117 33.314C11.9464 33.3015 11.8806 33.2888 11.8139 33.276C9.35345 32.8329 6.44059 32.586 4.0541 33.5326C3.95521 33.5718 3.9312 33.6993 4.00696 33.774C4.85507 34.6653 5.0836 35.516 5.04426 36.7216C5.03674 36.8522 5.14065 36.9622 5.27149 36.9622C5.28234 36.9622 5.29321 36.9622 5.30409 36.9622C5.38037 36.9622 5.45297 36.9287 5.50167 36.87C5.6195 36.728 5.64206 36.6888 5.78556 36.4397C6.5736 35.2286 7.64362 34.3193 9.0801 33.9403C10.4406 33.7264 12.1504 33.6284 13.3734 34.3518C13.4139 34.3757 13.4497 34.4312 13.4649 34.4757C13.5141 34.6202 13.3867 34.7478 13.2363 34.7214C12.7873 34.6426 12.3464 34.5443 11.9006 34.4378C10.4409 34.1347 9.22543 34.3009 7.91967 35.0327C7.19381 35.5706 6.61159 36.0781 6.20242 36.8444C6.13427 36.9721 6.20609 37.1265 6.34525 37.1662C7.11389 37.3883 7.3696 37.4621 7.61928 37.5566C7.88652 37.6576 8.18792 37.6155 8.40395 37.4285C8.81106 37.1012 9.20904 36.8971 9.66742 36.8025C10.1208 36.7089 10.6164 36.7752 10.962 37.0831C11.1955 37.2911 11.3842 37.5541 11.5913 37.8134C12.0667 38.3566 12.5534 38.4217 13.207 38.4841C13.3419 38.497 13.4515 38.5984 13.4745 38.732C13.5805 39.2745 13.7077 39.7532 14.0103 40.1619C14.2661 40.5076 14.6896 40.7228 15.115 40.6601C15.1658 40.6526 15.2173 40.6428 15.2705 40.6312C15.4486 40.5924 15.6643 40.4912 15.8203 40.3968C16.2864 40.1146 16.5234 39.6169 16.4942 39.0728C16.4788 38.786 16.4238 38.5088 16.3007 38.2219C16.2502 38.104 16.1771 37.9973 16.0929 37.9006C15.9456 37.7313 15.883 37.6842 15.645 37.5413C15.5758 37.4998 15.5143 37.3936 15.494 37.3155C15.4341 37.0861 15.6789 36.9427 15.8965 37.0371C16.1624 37.1523 16.4206 37.2763 16.6777 37.4285C17.5137 37.9154 18.5935 37.8337 19.5147 37.6461C20.3041 37.4238 21.0472 37.1316 21.7338 36.7365C22.5009 36.2951 22.561 35.2669 21.9607 34.6166C21.4264 34.0547 20.9551 33.4684 20.5084 32.856C20.1114 32.3118 19.4174 32.0032 18.8483 32.3635C18.757 32.4206 18.6656 32.4776 18.5715 32.5364C18.4775 32.5961 18.3834 32.6558 18.2865 32.7173C18.0992 32.8355 17.9116 32.9535 17.7238 33.071C17.6411 33.1234 17.5585 33.1758 17.4734 33.2298C16.6081 33.7228 15.4537 33.5801 14.5108 33.3861C12.8918 32.9473 11.3837 32.1821 9.89886 31.4269C8.60976 30.7721 6.52689 29.8258 5.05693 30.4997ZM33.5455 31.6962C33.2347 32.117 33.1341 32.3693 33.14 32.76C33.1441 33.0354 33.2001 33.3119 33.3307 33.5543C33.5185 33.9028 33.799 34.187 34.111 34.4549C34.1601 34.497 34.2164 34.5282 34.2778 34.5482C34.4619 34.6084 34.6651 34.5584 34.7996 34.4191C34.8219 34.396 34.8444 34.3727 34.867 34.3493C35.3122 33.9326 35.7342 33.6897 36.2605 33.4979C36.4647 33.4235 36.5515 33.1764 36.4265 32.9987C36.106 32.4603 36.0773 31.9489 36.0474 31.3354C36.0578 31.0236 35.7258 30.8974 35.4137 30.9012C34.6894 30.9099 34.0746 31.0888 33.5455 31.6962ZM3.66222 31.0455C3.28296 31.2546 2.90719 31.467 2.53514 31.6882C2.43593 31.747 2.33673 31.8059 2.23452 31.8666C1.54504 32.3216 1.06472 32.9128 0.735328 33.6564C0.709772 33.7141 0.707743 33.7793 0.728071 33.8391C0.729142 33.8422 0.730214 33.8454 0.731285 33.8485C0.781532 33.9962 0.953337 34.0621 1.08948 33.986C1.95062 33.5323 2.824 33.2348 3.736 32.9834C4.36374 32.8104 4.999 32.3538 4.79668 31.7349C4.73337 31.5412 4.60643 31.2981 4.46007 31.1563C4.23785 30.941 4.05463 30.8859 3.66222 31.0455ZM63.5708 31.5997C63.4316 31.6865 63.4316 31.6865 63.2897 31.7751C63.24 31.8151 63.1903 31.8552 63.1399 31.8958C63.1009 31.9272 63.0783 31.9738 63.0783 32.0238C63.0783 32.12 63.1606 32.1965 63.2565 32.1893C63.7783 32.15 63.9312 32.1385 64.3468 32.1071C64.5795 32.0896 64.7448 31.8743 64.6981 31.6457C64.6712 31.5137 64.5781 31.3985 64.4472 31.3671C64.1134 31.2872 63.9196 31.3752 63.5708 31.5997ZM31.5305 31.526C30.5779 31.4166 30.4367 32.5249 31.2535 33.0269C31.3165 33.0656 31.3801 33.1044 31.4442 33.1434C31.5398 33.2035 31.6355 33.2636 31.734 33.3255C31.8256 33.3816 31.9172 33.4378 32.0116 33.4956C32.0949 33.5469 32.1782 33.5982 32.264 33.651C32.3271 33.6791 32.3527 33.6904 32.3858 33.7052C32.4445 33.7313 32.5109 33.7304 32.5687 33.7021C32.6668 33.6541 32.7147 33.5402 32.6795 33.4368C32.6626 33.3872 32.6456 33.3373 32.6285 33.2869C32.616 33.2504 32.609 33.2122 32.6077 33.1736C32.6004 32.9493 32.5988 32.7247 32.6015 32.5002C32.6027 32.3723 32.6039 32.2445 32.6051 32.1128C32.6079 31.9342 32.5018 31.7701 32.3328 31.7123C32.0713 31.6229 31.8008 31.557 31.5305 31.526ZM49.8569 32.3241C49.7412 32.4146 49.6325 32.5149 49.5453 32.633C49.3613 32.882 49.2347 33.1348 49.1618 33.4191C49.0841 33.7219 49.095 34.0441 49.1884 34.3424C49.3345 34.8085 49.6095 35.1046 50.0766 35.4669C50.544 35.7615 51.0019 35.2532 51.0069 34.7007C51.0089 34.4764 51.0107 34.2521 51.0124 34.0277C51.0146 33.8715 51.0168 33.7152 51.019 33.5542C51.0203 33.3297 51.0203 33.3297 51.0216 33.1007C51.0237 32.8935 51.0237 32.8935 51.0258 32.6822C51.0215 32.1619 50.3966 31.9207 49.9787 32.2307C49.9385 32.2606 49.898 32.2918 49.8569 32.3241ZM39.2683 32.6982C39.1276 32.7843 38.9869 32.9059 38.8839 33.0347C38.794 33.147 38.7147 33.2597 38.6452 33.3759C38.3207 33.9189 38.3101 34.6257 38.6484 35.1603C38.7926 35.3882 38.9806 35.5881 39.225 35.7872C39.2793 35.8314 39.3385 35.8696 39.401 35.9012C39.5982 36.0009 39.7672 36.069 39.9612 36.1247C40.1184 36.1697 40.2832 36.0958 40.3669 35.9553C40.787 35.2892 41.1234 34.9096 41.8085 34.5769C41.8844 34.5401 41.9342 34.4649 41.9342 34.3806C41.9342 34.3067 41.8961 34.2371 41.8335 34.1979C41.783 34.1663 41.7527 34.1473 41.6803 34.102C41.6526 34.0847 41.6264 34.065 41.6028 34.0425C41.5118 33.9558 41.4327 33.8658 41.3628 33.7728C40.7959 33.0174 40.0741 32.2055 39.2683 32.6982ZM44.5608 33.1032C44.3563 33.3035 44.1991 33.4718 44.0729 33.6585C43.803 34.0578 43.7226 34.5743 43.8621 35.0357C43.9006 35.1632 43.9531 35.2872 44.0223 35.4207C44.1119 35.5936 44.2342 35.7486 44.3847 35.8722C44.7951 36.2096 45.2076 36.3635 45.7418 36.425C45.8973 36.443 46.041 36.3457 46.0926 36.198C46.3332 35.5551 46.5995 35.0804 47.0097 34.5984C47.1533 34.4297 47.1027 34.1655 46.9001 34.076C46.71 33.9719 46.5552 33.85 46.4236 33.7134C45.864 33.1324 45.2079 32.6215 44.5608 33.1032ZM31.2276 33.7117C30.9658 33.5837 30.6497 33.6684 30.4864 33.9097C30.3542 34.1045 30.222 34.2993 30.0898 34.494C30.0203 34.5968 29.9508 34.6995 29.8791 34.8054C29.4948 35.3714 29.1052 35.933 28.7057 36.4889C28.627 36.599 28.5484 36.7092 28.4673 36.8226C28.3138 37.0368 28.1593 37.2503 28.0036 37.4629C27.9341 37.5602 27.8647 37.6574 27.7931 37.7577C27.7309 37.8433 27.6687 37.9289 27.6047 38.0172C27.5961 38.0305 27.588 38.0431 27.5804 38.055C27.3582 38.404 27.7835 38.7772 28.1476 38.9737C28.2589 39.0369 28.3701 39.1001 28.4848 39.1652C28.6054 39.2315 28.7261 39.2978 28.8504 39.3661C28.9737 39.4345 29.097 39.5029 29.224 39.5734C30.4019 40.214 31.6161 40.734 32.8724 41.2072C33.0162 41.2631 33.0162 41.2631 33.1629 41.3202C33.8273 41.5742 34.4642 41.1335 34.6803 40.4559C34.8025 40.0727 34.9246 39.6894 35.0465 39.306C35.1291 39.0466 35.2119 38.7872 35.2949 38.5278C35.4141 38.1554 35.5325 37.7827 35.6508 37.41C35.6882 37.2938 35.7255 37.1776 35.764 37.0579C35.7982 36.9497 35.8324 36.8416 35.8676 36.7302C35.9131 36.5875 35.9131 36.5875 35.9595 36.4419C35.9909 36.3368 36.0101 36.2725 36.021 36.2116C36.064 35.9693 35.8713 35.7519 35.6385 35.6719C34.4023 35.2375 33.2358 34.7242 32.0716 34.1301C31.7915 33.9883 31.5098 33.8496 31.2276 33.7117ZM4.17317 34.8629C3.62218 34.2209 2.63075 34.4094 2.20718 35.1417C1.82708 35.799 1.60479 36.5202 1.62506 37.3321C1.66561 37.8138 1.72243 38.2771 1.83922 38.7432C1.86129 38.8313 1.94031 38.8918 2.03113 38.8918C2.09918 38.8918 2.16382 38.8577 2.20044 38.8003C2.2941 38.6536 2.38304 38.504 2.46947 38.3531C2.79471 37.8485 3.06167 37.628 3.61861 37.3883C4.27658 37.1123 4.58979 36.3541 4.48162 35.6488C4.44101 35.384 4.3501 35.1261 4.17317 34.8629ZM35.6903 34.3506C35.6502 34.3758 35.6152 34.4083 35.5857 34.4453C35.4009 34.6775 35.493 35.0179 35.7654 35.1357C36.6678 35.5261 36.8872 35.5776 38.0148 35.7645C38.1233 35.7825 38.212 35.6776 38.1754 35.5739C37.8617 34.6729 37.0093 33.8033 36.1159 34.1379C35.9749 34.1907 35.8337 34.2601 35.6903 34.3506ZM47.4005 35.1055C47.3459 35.1424 47.2949 35.1846 47.2496 35.2324C47.2284 35.2547 47.208 35.2766 47.1883 35.2984C46.7523 35.7806 47.2951 36.3937 47.9425 36.3351C48.0634 36.325 48.1843 36.3149 48.3088 36.3045C48.4256 36.2937 48.5424 36.2829 48.6628 36.2718C48.7701 36.2624 48.8774 36.253 48.9879 36.2433C49.1945 36.207 49.3648 36.1514 49.5358 36.0744C49.6539 36.0211 49.6486 35.8566 49.531 35.8023C49.5228 35.7985 49.5146 35.7938 49.5072 35.7887C49.4457 35.7458 49.3898 35.703 49.3383 35.6599C48.7518 35.1687 48.1152 34.6322 47.4771 35.0542C47.4517 35.071 47.4262 35.0881 47.4005 35.1055ZM41.5207 35.4116C41.1067 35.807 41.4288 36.4077 42.0005 36.4381C42.3221 36.4552 42.6451 36.4594 42.9766 36.4557C43.0789 36.4552 43.1813 36.4546 43.2867 36.454C43.4544 36.453 43.6221 36.4516 43.7898 36.4501C43.8946 36.4491 43.9557 36.3316 43.8964 36.2452C43.3823 35.4734 42.4641 34.7136 41.7128 35.2574C41.6467 35.3053 41.5826 35.3567 41.5207 35.4116ZM39.4711 36.6118C37.875 36.3725 36.2689 37.2227 35.7751 38.7593C35.2342 40.4427 36.2544 42.233 37.9876 42.5829C38.5175 42.6898 39.05 42.7852 39.5866 42.8634C39.6913 42.8788 39.796 42.8942 39.9038 42.91C40.9094 43.047 41.7585 42.2555 41.8467 41.2445C41.9252 40.3443 41.9861 39.4432 42.0245 38.538C42.0308 38.3964 42.0371 38.2548 42.0437 38.1089C42.0487 37.9779 42.0537 37.8469 42.0588 37.7119C42.0656 37.5367 42.0656 37.5367 42.0725 37.3578C42.0997 37.0603 41.7803 36.9332 41.4846 36.8898C41.3918 36.8762 41.2987 36.8632 41.2057 36.8507C41.0538 36.8296 40.902 36.8086 40.7455 36.7869C40.4278 36.7438 40.1101 36.7009 39.7924 36.6582C39.685 36.6433 39.578 36.6278 39.4711 36.6118ZM49.8632 36.6407C49.7579 36.6591 49.6526 36.6775 49.5441 36.6964C49.0961 36.7748 48.7731 37.1715 48.8014 37.6254C48.8432 38.2968 48.908 38.9663 48.9855 39.6345C49.1931 41.4249 50.8807 42.6888 52.6485 42.3376C53.1199 42.2439 53.5897 42.1416 54.0576 42.0273C54.1671 42.0008 54.2767 41.9743 54.3896 41.947C55.1197 41.7624 55.3698 40.9277 54.706 40.5721C53.4402 39.8537 52.588 38.8737 51.9043 37.7015C51.4711 36.9585 50.7102 36.4912 49.8632 36.6407ZM44.7496 37.0266C44.5525 37.0328 44.3554 37.039 44.1583 37.0452C43.3396 37.0709 42.6703 37.7064 42.6027 38.5228C42.5864 38.7204 42.5701 38.9181 42.5538 39.1157C42.5349 39.3449 42.5158 39.5741 42.4965 39.8032C42.4687 40.1344 42.4414 40.4655 42.4143 40.7967C42.4057 40.8976 42.3971 40.9986 42.3882 41.1026C42.3802 41.2023 42.373 41.3019 42.3668 41.4013C42.3058 42.3644 43.0994 43.1458 44.0644 43.1509C44.2602 43.1522 44.4561 43.1539 44.6519 43.1562C44.696 43.1567 44.7401 43.157 44.7842 43.1573C47.0424 43.1719 48.6572 41.1467 48.3611 38.9079C48.3364 38.7178 48.3117 38.5276 48.287 38.3375C48.1845 37.5486 47.5151 36.9559 46.7197 36.971C46.063 36.9835 45.4065 37.0054 44.7496 37.0266ZM6.7798 37.8815C6.29436 37.7324 5.76897 38.0425 5.79275 38.5498C5.79382 38.5726 5.79513 38.5956 5.79662 38.619C5.80813 38.7992 5.8591 38.9759 5.95572 39.1285C6.2577 39.6053 6.63162 39.9347 7.10378 40.286C7.12184 40.2995 7.14352 40.3068 7.16604 40.3068C7.22068 40.3068 7.26654 40.2649 7.27112 40.2104C7.2764 40.1476 7.28171 40.0844 7.28713 40.0198C7.29814 39.8943 7.30914 39.7688 7.32048 39.6395C7.33114 39.5156 7.34181 39.3917 7.3528 39.2641C7.35997 39.1999 7.36785 39.1361 7.37643 39.0726C7.44416 38.5713 7.26345 38.03 6.7798 37.8815ZM65.9775 40.564C65.8041 40.564 65.6347 40.6313 65.5173 40.7588C64.4677 41.8988 63.6842 43.6156 63.6068 45.1229C63.6043 45.1709 63.6073 45.219 63.6147 45.2665C63.6496 45.4914 63.66 45.5496 63.6987 45.7001C63.7197 45.7815 63.7925 45.8381 63.8766 45.8381C63.9496 45.8381 64.0168 45.7952 64.0467 45.7285C64.0981 45.6136 64.1499 45.498 64.2028 45.3798C64.6317 44.55 65.1696 43.9863 66.0661 43.6593C66.1719 43.6177 66.2627 43.5816 66.3442 43.5424C66.6965 43.3731 66.8917 42.994 66.9717 42.6114C67.0461 42.2553 67.0415 41.8978 66.9465 41.5325C66.9121 41.4002 66.8544 41.2749 66.7775 41.162C66.6683 41.0014 66.5559 40.8746 66.4161 40.7382C66.2988 40.6238 66.1414 40.564 65.9775 40.564ZM15.086 41.2591C14.9501 41.3065 14.8296 41.3923 14.7415 41.506C14.672 41.5956 14.6362 41.6566 14.5272 41.8424C14.4698 41.9337 14.4124 42.0251 14.3533 42.1192C14.1966 42.3677 14.474 42.6156 14.7462 42.5052C14.9819 42.4096 15.1558 42.2527 15.3809 41.9871C15.5 41.85 15.5 41.85 15.6215 41.7102C15.8359 41.4672 15.5534 41.1446 15.2369 41.2145C15.1906 41.2248 15.1428 41.2393 15.086 41.2591ZM69.1566 44.1534C68.8748 44.2297 68.7579 44.5269 68.6114 44.7794C68.6057 44.7892 68.5999 44.7991 68.5942 44.809C68.5453 44.8924 68.4963 44.9758 68.4459 45.0618C67.8609 46.2298 67.851 47.769 68.2659 48.9977C68.346 49.1776 68.595 49.1849 68.6775 49.0061C68.8003 48.7396 68.9108 48.469 69.021 48.1937C69.3529 47.407 69.7439 46.6203 70.3825 46.0265C70.418 45.9897 70.4495 45.9531 70.4774 45.9165C70.8819 45.3865 70.5699 44.5631 69.9611 44.2913C69.7291 44.1878 69.4018 44.0869 69.1566 44.1534Z" fill="#A60000"/>
</svg>
