<svg width="23" height="23" viewBox="0 0 23 23" fill="none" xmlns="http://www.w3.org/2000/svg">
    <g clip-path="url(#clip0_2757_478)">
        <path d="M16.7179 4.28062H21.936V14.7169H16.7179V16.8041C16.7179 17.0809 16.8278 17.3464 17.0235 17.5421C17.2192 17.7378 17.4847 17.8477 17.7615 17.8477H19.8487V19.935H17.2397C16.6657 19.935 15.6742 19.4654 15.6742 18.8914C15.6742 19.4654 14.6828 19.935 14.1088 19.935H11.4997V17.8477H13.587C13.8638 17.8477 14.1292 17.7378 14.3249 17.5421C14.5206 17.3464 14.6306 17.0809 14.6306 16.8041V2.19338C14.6306 1.91659 14.5206 1.65114 14.3249 1.45542C14.1292 1.2597 13.8638 1.14975 13.587 1.14975H11.4997V-0.9375H14.1088C14.6828 -0.9375 15.6742 -0.467869 15.6742 0.106125C15.6742 -0.467869 16.6657 -0.9375 17.2397 -0.9375H19.8487V1.14975H17.7615C17.4847 1.14975 17.2192 1.2597 17.0235 1.45542C16.8278 1.65114 16.7179 1.91659 16.7179 2.19338V4.28062ZM1.06348 4.28062H12.5434V6.36788H3.15073V12.6296H12.5434V14.7169H1.06348V4.28062ZM19.8487 12.6296V6.36788H16.7179V12.6296H19.8487ZM7.84704 9.49875C7.84704 9.08357 7.68211 8.6854 7.38853 8.39182C7.09496 8.09824 6.69678 7.93331 6.2816 7.93331C5.86642 7.93331 5.46825 8.09824 5.17467 8.39182C4.88109 8.6854 4.71616 9.08357 4.71616 9.49875C4.71616 9.91393 4.88109 10.3121 5.17467 10.6057C5.46825 10.8993 5.86642 11.0642 6.2816 11.0642C6.69678 11.0642 7.09496 10.8993 7.38853 10.6057C7.68211 10.3121 7.84704 9.91393 7.84704 9.49875ZM12.5434 8.34033C11.9067 7.7559 10.9153 7.80808 10.3309 8.45512C9.74644 9.0813 9.79862 10.0727 10.4561 10.6572C11.0301 11.1999 11.9485 11.1999 12.5434 10.6572V8.34033Z" fill="white"/>
    </g>
    <defs>
        <clipPath id="clip0_2757_478">
            <rect width="23" height="23" fill="white"/>
        </clipPath>
    </defs>
</svg>
