<svg width="29" height="20" viewBox="0 0 29 20" fill="none" xmlns="http://www.w3.org/2000/svg">
    <path d="M5.81641 12.0205H5.99512C6.94216 12.4462 7.98671 12.706 9.10742 12.7061C10.2267 12.7061 11.2748 12.4464 12.2197 12.0205H12.3994C14.6646 12.0206 16.5029 13.8588 16.5029 16.124V17.3584C16.5028 18.0335 15.9544 18.581 15.2793 18.5811H2.93652C2.26138 18.5811 1.71306 18.0335 1.71289 17.3584V16.124C1.71289 13.8587 3.55112 12.0205 5.81641 12.0205ZM19.3936 12.0205H19.4238C20.0449 12.223 20.722 12.3633 21.4512 12.3633C22.1801 12.3632 22.8566 12.2229 23.4775 12.0205H23.5078C25.7001 12.0205 27.4744 13.794 27.4746 15.9863C27.4746 16.6616 26.9262 17.2099 26.251 17.21H19.542V16.124C19.542 14.6569 19.086 13.3037 18.3271 12.1768C18.6685 12.0753 19.0249 12.0205 19.3936 12.0205ZM9.10742 1.04883C11.2997 1.04883 13.0741 2.82236 13.0742 5.01465C13.0742 7.20708 11.2999 8.98145 9.10742 8.98145C6.9151 8.98132 5.1416 7.207 5.1416 5.01465C5.14176 2.82244 6.91521 1.04896 9.10742 1.04883ZM21.4512 2.41992C23.2618 2.42013 24.7312 3.88955 24.7314 5.7002C24.7314 7.51106 23.262 8.98124 21.4512 8.98145C19.6402 8.98145 18.1699 7.51119 18.1699 5.7002C18.1702 3.88943 19.6403 2.41992 21.4512 2.41992Z" stroke="white" stroke-width="1.66758"/>
</svg>
