<svg width="72" height="74" viewBox="0 0 72 74" fill="none" xmlns="http://www.w3.org/2000/svg">
<path d="M36.2289 0.0510365C35.7669 0.065882 35.5271 0.602854 35.8369 0.9459C36.2399 1.39213 36.6566 1.82233 37.0969 2.24561C38.0589 3.19237 38.9134 4.22843 39.7233 5.301C40.5108 6.3439 40.3096 7.83563 39.226 8.56611C39.0515 8.68412 38.877 8.80214 38.6972 8.92373C38.4268 9.10581 38.4267 9.10581 38.1508 9.29156C37.0131 10.0593 35.8796 10.8322 34.7535 11.6164C34.4182 11.8499 33.9589 11.7842 33.7039 11.465C32.5731 10.0595 31.432 8.68508 30.1661 7.39724C30.0177 7.24309 29.8778 7.09291 29.7481 6.93697C29.3879 6.50388 29.201 5.89247 29.5906 5.48569C29.7375 5.35192 29.8843 5.21815 30.0356 5.08032C30.5798 4.5674 31.1066 4.06146 31.5931 3.49381C32.3044 2.66594 33.0509 1.87167 33.7996 1.07742C34.2864 0.557203 33.9581 -0.0925829 33.2849 0.140737C33.1562 0.185364 33.0253 0.249016 32.8848 0.337634C32.779 0.404333 32.6863 0.489738 32.6017 0.581791C32.4956 0.697184 32.4544 0.741965 32.284 0.927406C32.1239 1.09871 31.9637 1.27002 31.7988 1.44652C31.6497 1.61398 31.5007 1.78144 31.3472 1.95397C31.231 2.08293 31.1148 2.21189 30.9951 2.34476C30.7862 2.5804 30.5791 2.81759 30.3738 3.05636C30.0626 3.41595 29.7464 3.77115 29.4281 4.12445C28.7891 4.83373 27.7264 5.07522 26.991 4.46642C26.8779 4.37409 26.7649 4.28176 26.6485 4.18663C26.5296 4.08889 26.4108 3.99114 26.2883 3.89044C25.199 3.00651 24.0857 2.20198 22.9109 1.44343C22.6945 1.3037 22.5974 1.03912 22.6791 0.794843C22.797 0.442349 22.5456 0.0623588 22.1741 0.0732719C22.1138 0.0750414 22.0454 0.077527 21.9627 0.0807287C21.8529 0.0849832 21.7495 0.129468 21.6716 0.207048C21.524 0.354083 21.2922 0.378004 21.1187 0.262745C21.0825 0.238748 21.0446 0.213529 20.9955 0.180929C20.9034 0.119803 20.7966 0.0841039 20.6862 0.0789999C20.2589 0.0592401 19.8446 0.0537578 19.4144 0.0641602C19.2171 0.0666865 19.2171 0.0666865 19.0159 0.0692638C18.4473 0.0769703 17.9341 0.480677 17.9096 1.0488C17.895 1.38754 17.9254 1.72304 18.0209 2.10562C18.0723 2.32108 18.0723 2.32108 18.1248 2.54089C18.2018 2.79053 18.0654 3.13656 17.808 3.1815C17.6565 3.20796 17.505 3.23428 17.3534 3.2605C17.1556 3.29515 16.9578 3.3298 16.754 3.36549C16.3097 3.42769 15.8921 3.45464 15.453 3.45127C15.325 3.45029 15.2121 3.53363 15.181 3.65777C15.1261 3.87659 14.8457 3.93774 14.7209 3.74979C14.2686 3.06848 14.0456 2.38315 14.1012 1.50529C14.1059 1.4314 14.1225 1.35793 14.1487 1.28866C14.3663 0.711788 13.9771 0.0739992 13.3606 0.0655715C13.0014 0.0606607 12.6421 0.0564589 12.2829 0.0524947C12.0568 0.047803 11.8307 0.0431113 11.5978 0.0382774C11.3804 0.0364729 11.1631 0.0346684 10.9391 0.0328092C10.6389 0.0284107 10.6389 0.0284107 10.3326 0.0239234C10.0368 0.0592437 9.82601 0.115413 9.63511 0.211901C9.23911 0.412053 8.76641 0.565591 8.40557 0.307386C8.37009 0.282005 8.33166 0.25348 8.28788 0.220389C8.17447 0.134683 8.03735 0.0856779 7.89521 0.0838796C7.69752 0.0813785 7.49979 0.0809597 7.30209 0.082766C7.14711 0.0841819 7.03902 0.234557 7.0882 0.381528C7.134 0.518392 7.04455 0.665246 6.90151 0.684456C6.87232 0.688375 6.84299 0.692315 6.81344 0.696284C6.16317 0.801511 5.65504 0.940977 5.17585 1.17142C4.46129 1.51506 3.52299 1.51759 3.10801 0.841968C3.02739 0.710719 2.94067 0.557723 2.82829 0.355123C2.73689 0.190354 2.56343 0.0874911 2.37501 0.0874911C2.293 0.0874911 2.21078 0.0874911 2.12817 0.0874911C1.92928 0.0874911 1.78017 0.269526 1.81931 0.464525C1.82724 0.503989 1.83517 0.543514 1.84312 0.583121C1.88141 0.773809 1.69518 0.932281 1.51308 0.863975C1.33024 0.796366 1.1474 0.728757 0.95903 0.6591C0.77861 0.591972 0.59819 0.524845 0.412308 0.455683C-0.838577 0.0369547 -2.04232 0.0469075 -3.35035 0.0408292C-3.55383 0.0369796 -3.75732 0.03313 -3.96696 0.0291637C-5.17094 0.023401 -6.20113 0.162247 -7.31319 0.537097C-7.46485 0.588218 -7.6246 0.479358 -7.6246 0.319316C-7.6246 0.192472 -7.72742 0.0874911 -7.85427 0.0874911C-7.93364 0.0874911 -8.01317 0.0874911 -8.093 0.0874911C-8.3517 0.0874911 -8.56141 0.2972 -8.56141 0.555894C-8.56141 0.657641 -8.56141 0.759742 -8.56141 0.862428C-8.56141 1.07028 -8.68864 1.25644 -8.88257 1.33122C-8.90997 1.34178 -8.93716 1.35503 -8.96229 1.37023C-9.30127 1.57522 -9.31509 1.59319 -9.44029 1.94598C-9.44765 1.96671 -9.45282 1.98797 -9.45574 2.00977C-9.47914 2.1846 -9.35578 2.34538 -9.1808 2.36763C-9.10385 2.37742 -9.02634 2.38728 -8.94785 2.39726C-8.70021 2.4476 -8.66849 2.45405 -8.47237 2.49393C-8.41033 2.50654 -8.3579 2.5461 -8.32951 2.60267C-8.26255 2.73607 -8.35466 2.89506 -8.50375 2.90203C-8.54852 2.90412 -8.59357 2.90623 -8.639 2.90835C-9.02444 2.93217 -9.37329 2.95959 -9.70554 3.00808C-10.9462 3.18912 -12.2641 3.35112 -12.8569 2.24633C-13.0966 1.67594 -13.1765 1.15172 -13.2179 0.573253C-13.2373 0.301569 -13.4561 0.0874911 -13.7285 0.0874911C-13.9858 0.0874911 -14.2064 0.279006 -14.2384 0.534288C-14.2416 0.559698 -14.2448 0.585121 -14.248 0.610557C-14.2999 1.02453 -14.7927 1.21294 -15.1075 0.939072C-15.3129 0.760426 -15.3129 0.760426 -15.5224 0.578171C-15.644 0.471388 -15.7653 0.364038 -15.8835 0.253564C-15.9962 0.148312 -16.1414 0.0822205 -16.2955 0.0780688C-16.8125 0.0641419 -17.087 0.66485 -16.7294 1.03853C-16.2304 1.56003 -15.6971 2.03512 -15.1192 2.51391C-15.0179 2.59839 -14.9167 2.68287 -14.8124 2.76991C-11.7769 5.29621 -8.60324 7.50176 -5.22143 9.54319C-4.97848 9.6923 -5.14005 10.0151 -5.40556 9.91135C-10.1496 8.05754 -14.7028 5.25963 -17.4846 0.904075C-17.7222 0.54934 -17.7792 0.464283 -17.9334 0.290126C-18.0507 0.157645 -18.3156 0.0547406 -18.4909 0.0301935C-19.0095 -0.0424546 -19.1785 0.553183 -18.8958 0.993974C-18.5233 1.57479 -18.1132 2.11276 -17.6369 2.6539C-17.5379 2.76693 -17.439 2.87997 -17.337 2.99643C-15.8826 4.64229 -14.3695 6.0323 -12.6555 7.32118C-12.3237 7.57069 -12.4771 7.94418 -12.8713 7.81412C-14.4631 7.29002 -16.0532 6.92438 -17.6989 6.61547C-20.7863 6.03075 -23.6737 5.43492 -26.2816 3.6361C-26.3206 3.6092 -26.2893 3.55188 -26.2454 3.56964C-24.7586 4.12312 -23.3086 4.27842 -21.8182 3.64255C-21.0186 3.16711 -20.4836 2.40731 -20.2166 1.52889C-20.1895 1.43972 -20.1763 1.34699 -20.1738 1.25382C-20.1678 1.0308 -20.165 0.807623 -20.1666 0.584509C-20.1687 0.30683 -20.3975 0.0874911 -20.6752 0.0874911C-20.7064 0.0874911 -20.7377 0.0874911 -20.7691 0.0874911C-20.9684 0.0874911 -21.1384 0.231975 -21.1704 0.428707C-21.3407 1.33539 -21.4581 1.94193 -22.239 2.51391C-22.9095 2.9394 -23.4688 2.92617 -24.2532 2.91054C-24.4725 2.90717 -24.6918 2.9038 -24.9177 2.90033C-25.2099 2.89276 -25.4537 2.6736 -25.4937 2.38413C-25.6023 1.81565 -25.7525 1.37807 -25.998 0.857413C-26.0659 0.711609 -26.1338 0.565805 -26.2037 0.415583C-26.2056 0.41158 -26.2075 0.407577 -26.2094 0.403575C-26.3021 0.210395 -26.4973 0.0874911 -26.7116 0.0874911C-26.841 0.0874911 -26.9707 0.0874911 -27.1014 0.0874911C-27.2901 0.0874911 -27.4232 0.272884 -27.3633 0.451846C-27.2695 0.732097 -27.216 0.892024 -27.144 1.1073C-27.0959 1.25104 -27.2803 1.35673 -27.3798 1.24237C-27.4646 1.14493 -27.5494 1.04749 -27.6367 0.947092C-27.9987 0.506059 -28.4427 0.0874911 -29.0133 0.0874911C-29.5351 0.0874911 -30.0595 0.0874911 -30.591 0.0874911C-30.836 0.0874911 -31.0294 0.291657 -31.0105 0.535841C-30.9756 0.98845 -31.5832 1.17181 -31.7991 0.77246C-31.8731 0.635566 -31.9473 0.498178 -32.0219 0.360177C-32.1127 0.192192 -32.2883 0.0874911 -32.4793 0.0874911C-33.3669 0.0874911 -34.2567 0.0874911 -35.1679 0.0874911C-35.2709 0.0874911 -35.3545 0.169656 -35.3545 0.272739C-35.3545 0.375822 -35.271 0.460787 -35.1679 0.460787C-34.8854 0.460787 -34.6027 0.460787 -34.3184 0.460787C-33.6818 0.460787 -33.1693 1.03557 -33.3188 1.65434C-33.4439 2.17207 -33.6117 2.47003 -34.0586 3.17669C-34.171 3.35434 -34.3234 3.50466 -34.504 3.61218C-34.7175 3.73923 -34.8268 3.79678 -35.0003 3.86861C-35.2119 3.95626 -35.3545 4.15837 -35.3545 4.38745C-35.3545 4.46504 -35.3545 4.54286 -35.3545 4.62108C-35.3545 4.7974 -35.2137 4.94033 -35.0374 4.94033C-34.8939 4.94033 -34.7653 5.0364 -34.7279 5.17493C-34.5899 5.68595 -34.5826 5.81705 -34.693 6.28362C-34.7375 6.4719 -34.8157 6.65093 -34.9194 6.81425C-34.9375 6.8427 -34.9556 6.87131 -34.9739 6.90013C-35.5059 7.9015 -35.4376 8.87138 -35.4014 9.97982C-35.398 10.1778 -35.3946 10.3758 -35.3911 10.5799C-35.3821 11.0792 -34.7548 11.291 -34.4477 10.8972C-34.4077 10.8458 -34.3637 10.7893 -34.3108 10.7213C-33.0911 9.22836 -31.4646 8.23876 -29.5462 7.9267C-27.1247 7.72588 -25.1005 8.00619 -23.1875 9.61236C-21.7321 10.9963 -20.9001 12.6254 -20.4176 14.4887C-20.2738 15.0444 -20.7205 15.5615 -21.2941 15.5428C-21.5933 15.5713 -21.6587 15.5775 -21.9414 15.7572C-22.1215 15.8716 -22.205 16.0882 -22.153 16.2951C-22.0945 16.5284 -21.8786 16.6904 -21.6384 16.6783C-21.6027 16.6765 -21.5667 16.6747 -21.5305 16.6729C-19.9018 16.619 -19.6493 16.6106 -18.6006 17.1141C-18.1534 17.3288 -17.733 17.6084 -17.4217 17.9947C-16.795 18.7723 -16.4626 19.6507 -16.4058 20.7092C-16.4598 21.7271 -16.7201 22.6023 -17.2738 23.4153C-17.4498 23.6736 -17.6727 23.8968 -17.9218 24.0855C-19.1662 25.0276 -20.3576 25.3706 -21.9953 25.3447C-23.0971 25.2382 -23.9194 24.8619 -24.7457 24.1483C-24.7686 24.1285 -24.7895 24.107 -24.8088 24.0837C-24.954 23.9076 -24.9776 23.6605 -24.868 23.4603C-24.8351 23.4002 -24.8019 23.3396 -24.7684 23.2785C-24.6272 22.9735 -24.5569 22.8219 -24.522 22.6516C-24.4428 22.2659 -24.7556 21.9133 -25.1337 22.0233C-25.2776 22.0652 -25.4717 22.1781 -25.5572 22.3011C-25.7446 22.5704 -25.7842 22.6499 -26.0214 23.1268C-27.2925 25.4318 -29.1798 26.9333 -31.6658 27.7697C-32.1532 27.909 -32.6366 28.0087 -33.1219 28.0815C-34.3804 28.2704 -35.4083 29.2391 -35.4482 30.5111C-35.4608 30.7211 -35.4733 30.9312 -35.4863 31.1476C-35.5209 32.6236 -35.5226 32.6944 -35.0839 33.3229C-35.0378 33.3888 -34.9856 33.451 -34.9282 33.5073C-34.755 33.6768 -34.5807 33.8382 -34.4006 33.9936C-34.111 34.2435 -34.0517 34.6788 -34.2889 34.979C-34.3693 35.0807 -34.4497 35.1825 -34.5326 35.2874C-34.9206 35.7376 -35.4876 36.0968 -35.4928 36.6912C-35.4964 37.1094 -35.407 37.5156 -35.1671 37.9185C-34.5529 38.7487 -33.8358 39.4874 -33.1061 40.2168C-32.9424 40.3806 -32.7786 40.5445 -32.6099 40.7133C-28.9733 44.1409 -24.2808 47.5828 -19.0889 47.5543C-18.9074 47.5541 -18.7259 47.5539 -18.5388 47.5536C-17.3953 47.5383 -16.3412 47.4339 -15.2744 47.064C-15.099 47.0032 -14.9077 47.1145 -14.8828 47.2984C-14.693 48.4625 -14.4062 49.1797 -13.649 50.0753C-13.6302 50.0975 -13.6072 50.1156 -13.5812 50.1286C-13.4321 50.2028 -13.4188 50.4108 -13.5575 50.5029C-13.6046 50.5342 -13.6518 50.5656 -13.6994 50.5971C-13.7687 50.6432 -13.8176 50.7148 -13.8315 50.7968C-13.9251 51.3504 -13.8868 51.8806 -13.7586 52.4101C-13.6698 52.7772 -13.4968 53.1201 -13.2555 53.4107C-12.9294 53.8033 -12.567 54.1186 -12.1156 54.3544C-11.7598 54.5402 -11.3573 54.6116 -10.9562 54.6277C-10.3242 54.6532 -9.70008 54.6111 -9.13255 54.3256C-9.002 54.2599 -8.88525 54.0896 -8.83732 53.9515C-8.73259 53.6498 -8.96381 53.3739 -9.28111 53.3377C-9.4684 53.3164 -9.63708 53.3396 -9.89104 53.4151C-10.0039 53.4487 -10.1198 53.4736 -10.2373 53.4807C-10.7466 53.5111 -11.1493 53.4969 -11.5445 53.3541C-12.0972 53.1545 -12.5086 52.6646 -12.6649 52.0982C-12.735 51.8444 -12.7736 51.5796 -12.8005 51.2756C-12.8145 51.1265 -12.8286 50.9773 -12.843 50.8236C-12.856 50.6638 -12.6995 50.5441 -12.5487 50.5984C-12.4733 50.6256 -12.3973 50.653 -12.3204 50.6807C-11.5462 50.9042 -10.6801 50.9147 -9.91047 50.6536C-9.70516 50.584 -9.47301 50.7109 -9.4492 50.9264C-9.28753 52.1306 -9.07788 52.9893 -8.39287 53.7671C-7.99103 54.2234 -7.42337 54.5007 -6.82368 54.6008C-5.77399 54.7761 -4.69294 54.6983 -3.72507 54.2153C-3.57246 54.1199 -3.40021 54.2905 -3.49776 54.4417C-5.11926 56.9558 -7.14356 58.6185 -10.1613 59.4809C-11.9234 59.8811 -13.5782 60.0648 -15.3885 60.0597C-15.6016 60.0628 -15.8148 60.0658 -16.0344 60.0689C-17.6728 60.0698 -19.4249 59.9355 -20.8748 59.0989C-20.9093 59.0791 -20.9367 59.0498 -20.9545 59.0143C-21.0259 58.8721 -20.9174 58.706 -20.759 58.7203C-19.6579 58.8202 -18.6682 59.1067 -17.6145 59.4923C-16.578 59.8628 -15.698 58.9119 -16.1421 57.9047C-16.699 56.6418 -17.6814 55.5553 -18.6791 54.5886C-20.8424 52.6353 -23.1838 52.5049 -25.9746 52.5238C-26.21 52.5247 -26.4453 52.5255 -26.6878 52.5264C-26.9327 52.5273 -27.1775 52.5284 -27.4224 52.5296C-27.947 52.5323 -28.3499 52.066 -28.2647 51.5483C-28.2355 51.3651 -28.2063 51.1818 -28.1762 50.993C-28.0052 50.3154 -27.6868 49.9761 -27.2385 49.4991C-27.1543 49.4095 -27.0928 49.3008 -27.0596 49.1824C-27.0535 49.1607 -27.0477 49.1401 -27.0423 49.1206C-26.9383 48.7452 -27.1711 48.3791 -27.5597 48.4054C-27.7125 48.4157 -27.9232 48.4828 -28.0322 48.5905C-28.5951 49.1467 -29.0127 49.8589 -29.2467 50.6133C-29.3341 50.8952 -29.3655 51.1907 -29.3692 51.4858C-29.3727 51.7735 -29.37 52.0614 -29.3589 52.3489C-29.3589 52.5719 -29.5006 52.7729 -29.7161 52.8304C-30.0635 52.923 -30.3895 52.9686 -30.7412 52.9578C-31.0654 52.9479 -31.3701 52.8086 -31.6134 52.5941C-32.0301 52.2267 -32.3992 51.8257 -32.7768 51.4061C-33.4544 50.6563 -34.2652 50.0931 -35.1284 49.5724C-35.1537 49.5572 -35.1823 49.5491 -35.2119 49.5491C-35.2934 49.5491 -35.3629 49.6096 -35.3736 49.6903C-35.411 49.9737 -35.415 50.0706 -35.3857 50.3718C-35.3668 50.5653 -35.2868 50.7485 -35.1551 50.8914C-34.8773 51.1927 -34.6082 51.4474 -34.2772 51.7189C-34.0751 51.8923 -33.8731 52.0658 -33.6712 52.2395C-33.4847 52.3988 -33.2982 52.5581 -33.1061 52.7222C-32.7465 53.0805 -32.8611 53.6886 -33.3265 53.8914C-33.8948 54.1391 -34.2002 54.2722 -35.0371 54.637C-35.2293 54.7207 -35.3545 54.9109 -35.3545 55.1205C-35.3545 55.2462 -35.3545 55.3724 -35.3545 55.4993C-35.3545 55.6893 -35.1631 55.8196 -34.9863 55.7499C-31.7711 54.49 -29.0332 53.6224 -25.5647 53.5854C-25.3605 53.5827 -25.1564 53.5801 -24.946 53.5773C-22.6262 53.5916 -20.7036 54.0945 -19.0172 55.7355C-18.3804 56.4225 -17.8864 57.1097 -17.4265 57.8897C-17.3332 58.0479 -17.4815 58.2352 -17.6581 58.1845C-21.2761 57.2114 -25.148 56.603 -28.9022 56.6068C-29.0625 56.6069 -29.2228 56.6071 -29.3879 56.6072C-30.4672 56.6174 -31.5306 56.6807 -32.6026 56.8051C-32.7289 56.8197 -32.8553 56.8343 -32.9854 56.8494C-33.686 56.9408 -34.3424 57.0927 -35.0099 57.2856C-35.2152 57.3449 -35.3545 57.5342 -35.3545 57.7479C-35.3545 57.834 -35.3545 57.9205 -35.3545 58.0074C-35.3545 58.1719 -35.2068 58.2971 -35.0445 58.2702C-29.5519 57.3104 -29.3318 57.272 -24.383 58.2003C-24.1043 58.2526 -23.9898 58.5923 -24.1829 58.7999C-24.8958 59.6633 -25.1021 60.5049 -25.0026 61.6113C-24.9666 61.8641 -24.9213 62.104 -24.8617 62.3379C-24.7311 62.8511 -25.0465 63.4168 -25.5734 63.4693C-25.6548 63.4774 -25.7363 63.4855 -25.8181 63.4936C-26.1144 63.5232 -26.3759 63.3011 -26.3938 63.0038C-26.3953 62.9781 -26.3988 62.9515 -26.4043 62.9264C-26.58 62.1139 -26.8384 61.6423 -27.4852 61.1213C-29.5571 59.8409 -32.3803 59.2093 -34.8457 59.0865C-35.1248 59.0726 -35.3545 59.298 -35.3545 59.5774C-35.3545 59.6128 -35.3545 59.6482 -35.3545 59.6837C-35.3545 59.8668 -35.2217 60.0229 -35.0409 60.0522C-32.718 60.4371 -30.5958 60.9679 -28.422 61.8679C-28.3252 61.9001 -28.2283 61.9322 -28.1307 61.9646C-27.9575 62.0221 -27.8137 62.1466 -27.7354 62.3114C-27.6692 62.4509 -27.6333 62.5363 -27.5913 62.6584C-27.5302 62.8357 -27.6391 63.0259 -27.8212 63.0709C-28.9371 63.3865 -29.4544 63.7108 -30.1083 64.6676C-30.3786 65.2061 -30.333 65.6752 -30.3005 66.2583C-30.2972 66.3174 -30.2692 66.4249 -30.25 66.4809C-30.106 66.9012 -30.3943 67.3255 -30.8376 67.2954C-31.7646 67.2323 -32.5891 66.9296 -33.4588 66.4625C-33.5988 66.3873 -33.7301 66.2967 -33.8497 66.1921C-34.2246 65.8641 -34.5631 65.524 -34.9 65.1481C-34.9742 65.0665 -35.0484 64.9849 -35.1241 64.9016C-35.1515 64.8714 -35.1898 64.8543 -35.2305 64.8543C-35.3016 64.8543 -35.3628 64.9061 -35.3737 64.9763C-35.4365 65.3819 -35.4697 65.6735 -35.4171 66.0354C-35.3869 66.2427 -35.2873 66.4334 -35.1426 66.5848C-34.316 67.4499 -33.1727 67.9951 -32.0166 68.3018C-31.7457 68.3737 -31.4665 68.4077 -31.1865 68.4194C-30.9604 68.4288 -30.7341 68.4367 -30.5078 68.4406C-30.1546 68.4364 -29.9147 68.4335 -29.7194 68.4455C-28.8322 68.5 -28.1257 69.2321 -27.8599 70.0804C-27.8017 70.2623 -27.7435 70.4442 -27.6835 70.6316C-27.4067 71.616 -27.2624 72.5041 -27.2936 73.5128C-27.2959 73.5875 -27.2807 73.6608 -27.2472 73.7276C-27.1653 73.8909 -26.9888 73.9929 -26.8105 73.9534C-26.5333 73.892 -26.3515 73.7844 -26.1168 73.5737C-26.0285 73.4944 -25.9528 73.4019 -25.89 73.3013C-24.6733 71.3533 -24.4585 69.1667 -24.6747 66.9074C-24.6816 66.8784 -24.6886 66.8494 -24.6957 66.8205C-24.9856 65.635 -24.4379 64.1942 -23.2187 64.2516C-22.9533 64.264 -22.6805 64.3603 -22.4643 64.5148C-21.2814 65.3602 -20.7546 66.5469 -20.3646 67.897C-20.2472 68.3036 -19.9557 68.6572 -19.5558 68.5186C-19.3997 68.4644 -19.1837 68.3347 -19.0896 68.1988C-18.2839 67.0347 -18.3229 65.4766 -18.4369 64.1129C-18.5963 63.012 -19.0358 61.9677 -19.6226 61.0274C-19.6849 60.9276 -19.5945 60.7997 -19.4803 60.828C-18.1312 61.1326 -16.8384 61.1781 -15.4588 61.168C-15.2335 61.1682 -15.0081 61.1684 -14.776 61.1687C-13.6233 61.1613 -12.5669 61.0956 -11.4421 60.853C-9.55755 60.5405 -7.73046 61.343 -5.94838 61.8874C-3.08716 62.7233 -0.0875015 63.0444 2.86781 63.3611C3.11092 63.3885 3.11092 63.3885 3.35895 63.4164C4.83734 63.5693 6.31252 63.5853 7.79782 63.5827C7.92961 63.5825 8.0614 63.5824 8.19718 63.5822C19.1254 63.5509 29.4886 60.2235 37.6749 52.9287C37.8068 52.8111 38.0056 52.8072 38.1406 52.9212C40.4694 54.78 43.32 55.9543 46.3363 55.7085C46.6344 55.661 46.7808 55.6377 46.899 55.6139C47.0456 55.5844 47.1676 55.7322 47.1005 55.8659C47.0909 55.8849 47.0847 55.9062 47.0827 55.9274C46.8838 58.0234 47.4143 59.7947 48.6432 61.5055C49.7798 62.8081 51.2517 63.0738 52.8986 63.2247C52.9578 63.2301 53.0175 63.2291 53.0764 63.2217C53.1223 63.216 53.1682 63.2103 53.2144 63.2045C53.3679 63.1854 53.5163 63.0846 53.6023 62.956C53.7419 62.7474 53.7073 62.4848 53.5273 62.3098C53.1724 61.9648 52.8047 61.6447 52.4139 61.3313C51.9065 60.9061 51.6001 60.4921 51.338 59.9285C51.2621 59.7652 51.3353 59.5782 51.503 59.5126C51.5184 59.5066 51.543 59.4956 51.5572 59.4872C52.2245 59.0946 52.6116 58.6389 52.837 57.8871C52.8818 57.687 52.9242 57.4872 52.9638 57.287C53.0376 56.9142 53.3572 56.6369 53.7372 56.6301C54.7821 56.5062 55.3667 55.8694 56.0793 55.1486C56.1862 55.0499 56.2932 54.9513 56.4035 54.8497C56.6551 54.5735 56.9747 54.2596 57.3395 54.3399C58.088 54.5047 58.6611 54.7635 59.2645 55.3353C59.3919 55.4561 59.5007 55.596 59.5849 55.7501C60.0064 56.5216 60.0836 57.1996 60.049 58.1116C60.0465 58.2401 60.044 58.3686 60.0413 58.5009C60.0296 59.0604 60.3842 59.622 60.9396 59.5529C61.3389 59.5032 61.7137 59.3324 62.173 59.1367C63.0365 58.6618 63.5345 58.0204 63.9485 57.1642C63.9962 57.0656 64.0325 56.9521 64.0527 56.8445C64.2502 55.795 65.2204 54.6684 66.136 55.2182C66.4439 55.4031 66.7348 55.6418 67.0211 55.9546C67.0973 56.0379 67.1643 56.1296 67.2209 56.2273C67.4691 56.6559 67.6465 57.0901 67.7939 57.5419C67.9719 58.0871 68.5326 58.5268 68.9762 58.1633C69.0593 58.0952 69.1407 57.9946 69.1922 57.9003C69.8379 56.7183 70.048 55.5037 70.0379 54.157C70.0376 54.0035 70.0374 53.85 70.0371 53.6919C70.0036 52.3571 69.6579 51.2798 69.0074 50.1091C69.0018 50.098 68.9962 50.0869 68.9907 50.0757C68.9491 49.993 69.0482 49.9112 69.1216 49.9676C69.3201 50.1185 69.3201 50.1185 69.5226 50.2724C69.6531 50.372 69.7835 50.4716 69.9179 50.5742C70.5428 51.0128 71.4547 50.7548 71.4955 49.9925C71.5118 49.6893 71.4815 49.3674 71.4431 48.9892C71.1034 47.3462 69.9883 46.2366 68.6209 45.3379C66.7787 44.2322 65.0137 43.1837 62.8244 43.1565C62.5964 43.1516 62.3684 43.1468 62.1335 43.1419C60.1914 43.2248 58.4908 43.9767 56.7819 44.8363C56.3717 45.0374 55.9614 45.2381 55.5508 45.4385C55.3534 45.5353 55.1561 45.6321 54.9527 45.7318C54.203 46.0948 53.4467 46.4396 52.6833 46.7728C52.4625 46.8695 52.2418 46.9662 52.0143 47.0659C50.5433 47.6444 48.8391 48.1497 47.2929 47.5435C46.3364 47.0775 45.44 46.5095 44.5981 45.8607C44.5558 45.8304 44.519 45.8041 44.4862 45.7812C44.261 45.624 44.077 45.3309 44.2168 45.0944C48.078 38.4694 48.2056 38.2505 48.2098 35.4715C48.2101 35.3033 48.3225 35.1623 48.4892 35.1401C48.5106 35.1373 48.5438 35.1309 48.5641 35.1237C49.8145 34.6818 50.6944 33.1293 51.278 32.0159C52.5036 29.3402 52.8474 26.4234 51.8299 23.6095C51.1231 21.9971 50.1832 20.2916 48.7154 19.2385C48.3819 18.9992 48.0201 18.777 47.8124 18.4229C47.5387 17.9565 47.4345 17.4184 47.2731 16.8625C45.564 11.4203 42.5259 6.5563 38.6683 2.37538C38.1793 1.84513 37.7057 1.30232 37.2323 0.758256C36.6407 0.0922295 36.6407 0.0922296 36.2289 0.0510365ZM20.0892 0.72326C20.2317 0.815891 20.3742 0.908522 20.521 1.00396C20.6698 1.10189 20.8186 1.19981 20.9719 1.3007C21.1972 1.44759 21.1972 1.44759 21.4271 1.59744C21.9557 1.94224 21.9562 2.71496 21.3981 3.00971C21.3426 3.03906 21.2864 3.0682 21.2295 3.09719C21.0382 3.19607 21.0382 3.19607 20.8431 3.29696C20.2882 3.5657 19.6484 3.2235 19.3175 2.70326C19.1032 2.3663 18.9509 2.00696 18.8392 1.58076C18.8069 1.45766 18.8057 1.25833 18.8178 1.13166C18.8709 0.577183 19.396 0.264465 19.8608 0.571453C19.9311 0.61787 20.0058 0.668718 20.0892 0.72326ZM12.8648 0.482803C13.0649 0.561762 13.1678 0.781743 13.1597 0.99667C13.1384 1.99154 13.2289 2.8859 13.4548 3.8307C13.5026 4.03054 13.3833 4.23424 13.1838 4.28342C13.0554 4.31792 12.9314 4.35333 12.8112 4.39008C11.3247 4.84434 9.2339 4.85632 9.06866 3.31072C9.04132 3.05493 9.0827 2.76012 9.17278 2.51916C9.44413 1.79337 9.8148 1.35869 10.4114 0.891166C10.6245 0.724202 10.8541 0.570259 11.1157 0.500819C11.3764 0.431636 11.6155 0.436358 11.955 0.437456C12.1037 0.436974 12.2525 0.436493 12.4058 0.435997C12.6498 0.436001 12.7462 0.436003 12.8648 0.482803ZM7.92664 5.68692C8.12752 5.84386 8.32855 6.00061 8.52972 6.15719C9.34061 6.78948 10.1504 7.42316 10.9558 8.06231C12.6939 9.4412 14.4082 10.7726 16.358 11.8463C16.5049 11.9305 16.6517 12.0147 16.803 12.1015C17.7674 12.599 18.71 12.7129 19.7453 12.6441C20.1099 12.6199 20.4726 12.5446 20.8025 12.3874C21.0195 12.284 21.2043 12.1686 21.372 12.026C21.8555 11.6148 22.0662 10.9655 22.0683 10.3308C22.0719 9.24998 21.7099 8.36653 21.0421 7.36675C20.912 7.11627 21.1621 6.86778 21.4028 7.01523C23.178 8.10281 24.7549 10.0142 26.0541 11.5197C28.9275 14.8486 32.2657 17.0303 36.7453 17.3786C37.6838 17.4434 38.6227 17.5011 39.5621 17.5542C42.4044 17.7196 45.2885 17.9334 47.6479 19.6855C47.7778 19.7791 47.9077 19.8727 48.0416 19.9691C49.7501 21.3195 51.0007 23.3349 51.3951 25.4716C51.6879 28.2568 51.1761 30.6316 49.5215 32.9375C48.9951 33.544 48.1059 33.6594 47.432 33.2227C47.3361 33.1606 47.2404 33.0966 47.1443 33.0308C45.7933 32.1844 44.2297 31.9909 42.6699 32.2801C41.1578 32.6326 39.8209 33.2 38.4202 33.8591C36.2855 34.833 34.3276 35.6403 32.022 35.7313C31.8149 35.7395 31.7366 35.4786 31.9093 35.3639C32.9684 34.5768 33.7153 33.8887 33.9703 32.5642C34.1477 31.3091 33.9022 30.2752 33.2208 29.2045C32.201 27.9623 30.7738 27.4831 29.2247 27.2404C26.8562 27.0996 24.5964 27.778 22.3248 28.3685C20.1074 28.9432 18.0223 29.2743 15.7257 29.2629C15.5029 29.2618 15.2802 29.2608 15.0507 29.2597C12.4514 29.2238 10.1457 28.6786 7.80551 27.5566C7.76262 27.5361 7.72803 27.5023 7.70669 27.4598C7.63523 27.3174 7.73693 27.1487 7.8962 27.1464C7.96385 27.1454 8.03196 27.1444 8.10083 27.1434C9.71796 27.0844 11.0743 26.9323 12.2921 25.9312C12.5876 25.6882 12.8317 25.3824 12.9723 25.0266C13.2515 24.32 13.2669 23.5833 13.2149 22.8128C13.1918 22.4706 13.13 22.1298 12.9972 21.8135C12.461 20.5363 11.4495 19.5683 10.2687 18.8339C10.1548 18.7622 10.0408 18.6905 9.92347 18.6166C8.81598 17.9411 7.66624 17.4618 6.42773 17.0724C6.22231 17.0071 6.22231 17.0071 6.01274 16.9405C1.88885 15.8444 -1.90823 17.0218 -5.7869 18.3961C-7.5707 18.9707 -9.42489 18.9433 -11.1565 18.2043C-11.1751 18.1964 -11.1929 18.1865 -11.2094 18.1749C-11.2953 18.1146 -11.3807 18.0536 -11.4655 17.9917C-11.617 17.881 -11.5315 17.6503 -11.3441 17.6586C-9.6545 17.7116 -8.1527 17.7167 -6.74779 16.6459C-6.13728 16.0292 -5.94962 15.3629 -5.90173 14.5264C-6.04026 12.8593 -7.27088 11.346 -8.50286 10.2948C-8.66046 10.1688 -8.66046 10.1688 -8.82124 10.0403C-9.06223 9.84328 -8.85922 9.51144 -8.56915 9.62445C-8.22686 9.75781 -7.8885 9.90179 -7.5493 10.0566C-4.01564 11.6646 -0.541191 12.4408 3.34793 12.4879C3.55295 12.4921 3.75797 12.4962 3.96921 12.5005C5.34094 12.4967 6.61797 12.3407 7.66796 11.3829C8.35181 10.6035 8.56007 9.93585 8.53923 8.90514C8.35254 7.35799 7.41814 6.26429 6.24036 5.31363C3.70818 3.48283 1.04763 2.26184 -2.00367 1.58067C-2.15462 1.54579 -2.30557 1.5109 -2.4611 1.47495C-3.10599 1.36609 -3.75218 1.32696 -4.40427 1.28904C-4.53409 1.28098 -4.66391 1.27292 -4.79766 1.26461C-5.08186 1.24704 -5.36608 1.23009 -5.65032 1.21331C-5.70683 1.20998 -5.75095 1.16389 -5.75095 1.10728C-5.75095 1.05714 -5.71576 1.01288 -5.66671 1.00245C-0.712601 -0.050896 4.18739 2.72167 7.92664 5.68692ZM-29.8038 0.834082C-29.7607 0.834082 -29.72 0.857014 -29.6985 0.894314C-29.2356 1.69751 -29.0874 2.28186 -29.1672 3.21243C-29.1699 3.24406 -29.1783 3.27523 -29.1917 3.304C-29.3028 3.54207 -29.6382 3.49038 -29.6836 3.23161C-29.7003 3.13626 -29.717 3.0409 -29.7336 2.94553C-29.7684 2.74848 -29.8031 2.55143 -29.839 2.34841C-29.9062 1.87204 -29.9324 1.42658 -29.9238 0.951939C-29.9226 0.886294 -29.8694 0.834082 -29.8038 0.834082ZM8.02451 1.74045C8.31823 1.85155 8.48619 2.15105 8.48214 2.46506C8.48045 2.68521 8.47876 2.90536 8.47702 3.13218C8.47485 3.35089 8.47268 3.56959 8.47044 3.79493C8.48413 4.23309 8.02025 4.61116 7.64601 4.38288C7.50946 4.2996 7.37398 4.21293 7.23866 4.12229C7.11427 4.03928 6.98989 3.95628 6.86174 3.87075C6.73397 3.78486 6.60621 3.69896 6.47457 3.61047C6.27857 3.47946 6.27856 3.47946 6.07861 3.34581C5.49734 2.95713 5.14029 2.12644 5.79044 1.86905C5.82497 1.85538 5.86169 1.84097 5.90076 1.82565C6.69401 1.51798 7.31992 1.47393 8.02451 1.74045ZM-2.91985 2.29001C-2.82302 2.31163 -2.75312 2.39646 -2.75312 2.49566C-2.75312 2.60938 -2.84289 2.70416 -2.95651 2.70871C-3.00948 2.71084 -3.06283 2.71297 -3.11687 2.71514C-3.96757 2.77071 -4.6269 2.8276 -5.3528 3.2955C-5.51762 3.4172 -5.63168 3.50143 -5.72406 3.55566C-6.09408 3.7729 -6.52479 3.41542 -6.81586 3.10017C-7.0267 2.8718 -7.21767 2.62966 -7.40768 2.3681C-7.42694 2.34159 -7.43723 2.3101 -7.43723 2.27733C-7.43723 2.19927 -7.37799 2.13251 -7.30065 2.12194C-5.10532 1.82202 -5.00821 1.82372 -2.91985 2.29001ZM-32.2542 2.14062C-32.2023 2.14062 -32.1538 2.16893 -32.1289 2.21447C-31.8917 2.64826 -31.6555 3.08253 -31.4199 3.51714C-31.3484 3.64755 -31.2769 3.77795 -31.2032 3.91231C-30.7664 4.64775 -31.3309 5.56708 -32.1669 5.38581C-32.4212 5.33065 -32.6823 5.2411 -32.9744 5.12115C-33.1546 5.01903 -33.2854 4.91666 -33.386 4.79616C-33.6539 4.47517 -33.5007 4.00492 -33.2232 3.69213C-32.8339 3.22958 -32.5838 2.80207 -32.3895 2.23854C-32.3694 2.18037 -32.3157 2.14062 -32.2542 2.14062ZM-1.03069 2.70056C-0.906654 2.70056 -0.841347 2.84922 -0.929222 2.93675C-0.99633 3.00361 -1.10992 2.98804 -1.15241 2.90338C-1.19884 2.8109 -1.13417 2.70056 -1.03069 2.70056ZM-0.26545 3.81909C0.232254 3.28337 1.03879 3.20657 1.71081 3.49483C2.32566 3.75858 2.59998 3.97558 3.2965 4.6079C3.48523 4.77924 3.63486 4.99198 3.72041 5.23209C3.83836 5.5631 3.92947 5.88595 3.9696 6.23251C3.99535 6.45493 3.82952 6.64642 3.60848 6.68214C3.35777 6.72653 3.35777 6.72653 3.10201 6.77181C2.93681 6.79996 2.7716 6.82811 2.60139 6.85712C2.11284 6.99501 1.82513 7.19536 1.44481 7.49359C1.39556 7.53222 1.33484 7.5534 1.27225 7.5534C1.22936 7.5534 1.18636 7.5534 1.14308 7.5534C1.06084 7.5534 0.994164 7.61882 0.994164 7.70107C0.994164 7.8076 0.885353 7.88061 0.790215 7.83267C0.0793533 7.4745 -0.281006 6.94846 -0.618393 6.22258C-0.668343 6.11511 -0.705116 6.00166 -0.723312 5.88455C-0.810921 5.32056 -0.761299 4.83416 -0.565392 4.30483C-0.499969 4.12808 -0.393723 3.95717 -0.26545 3.81909ZM-28.2926 3.2605C-28.256 3.2605 -28.2198 3.27536 -28.1944 3.30165C-27.4981 4.01984 -27.3824 4.55363 -27.3447 5.5586C-27.3341 5.79271 -27.3234 6.02681 -27.3125 6.26801C-27.3045 6.56318 -27.5416 6.80681 -27.8368 6.80681C-27.8729 6.80681 -27.909 6.80681 -27.9452 6.80681C-28.3062 6.80681 -28.5934 6.50406 -28.5744 6.14355C-28.5264 5.23539 -28.4782 4.3232 -28.4289 3.39047C-28.425 3.31762 -28.3655 3.2605 -28.2926 3.2605ZM24.1931 3.65782C24.44 3.74531 24.5828 3.99751 24.5545 4.2579C24.4796 5.02106 24.4382 5.7303 24.4777 6.45447C24.5111 7.06832 24.1341 7.72083 23.5298 7.60815C23.3866 7.58145 23.2301 7.50902 23.1158 7.41883C22.6737 7.07021 22.2762 6.69501 21.8721 6.29572C21.7862 6.21602 21.7007 6.14095 21.6148 6.06958C20.9763 5.53863 20.3814 4.7121 20.957 4.11355C21.0397 4.02761 21.1618 3.92587 21.2642 3.86466C22.2221 3.29173 23.1918 3.30296 24.1931 3.65782ZM-3.05653 3.49901C-2.13368 3.56288 -1.42014 4.3425 -1.45329 5.26697C-1.46231 5.94798 -1.38477 6.50541 -1.20827 7.11314C-1.13982 7.34879 -1.27914 7.59857 -1.51916 7.64964C-3.29599 8.05447 -5.80891 8.01621 -6.08388 6.21472C-6.13292 5.89339 -6.09311 5.52427 -5.98385 5.21814C-5.86375 4.88169 -5.72016 4.62733 -5.49605 4.37123C-5.22312 4.05934 -4.86567 3.82915 -4.47412 3.69332C-3.98466 3.52352 -3.52667 3.46647 -3.05653 3.49901ZM-7.75807 4.04753C-7.17422 4.22484 -6.6707 4.68732 -6.7029 5.29665C-6.71436 5.51334 -6.74746 5.73861 -6.76974 5.99023C-6.78883 6.21206 -6.80791 6.43389 -6.82756 6.66245C-6.85202 6.92859 -7.11661 7.10414 -7.36142 6.99693C-8.12602 6.66209 -8.77576 6.15833 -9.4631 5.66359C-9.6108 5.55845 -9.75848 5.45331 -9.91065 5.34498C-10.459 4.95432 -10.473 4.12575 -9.82371 3.94776C-9.15517 3.76452 -8.46526 3.83276 -7.75807 4.04753ZM27.7873 6.43352C27.8872 6.53835 27.9828 6.64295 28.0756 6.7484C28.4052 7.12307 28.2093 7.69923 27.7287 7.83337C27.5439 7.88534 27.3592 7.93731 27.1688 7.99086C26.5033 8.17946 25.7944 7.84147 25.5027 7.21425C25.2523 6.67562 25.1656 6.10432 25.1638 5.41989C25.1636 5.34949 25.1752 5.2806 25.1975 5.21384C25.2893 4.93956 25.5535 4.74489 25.8234 4.84901C26.5535 5.13073 27.2607 5.96873 27.7873 6.43352ZM16.3932 4.86643C16.6097 4.79456 16.8489 4.80741 17.0519 4.91138C17.2776 5.02698 17.3805 5.09763 17.7633 5.36029C18.0328 5.53497 18.0328 5.53497 18.3078 5.71317C19.0986 6.27791 19.3755 6.67581 19.6116 7.47952C19.6829 7.72224 19.5257 7.97029 19.2783 8.02294C19.1607 8.04973 19.0456 8.07623 18.9328 8.10303C17.4178 8.46295 15.3212 8.23191 15.3333 6.67482C15.3343 6.54343 15.3517 6.39006 15.3864 6.26334C15.5095 5.81389 15.7224 5.47643 16.017 5.12014C16.1157 5.00079 16.2462 4.91524 16.3932 4.86643ZM-25.5949 5.18112C-25.4863 5.26605 -25.3888 5.37549 -25.326 5.49827C-25.1317 5.87804 -24.9836 6.26361 -24.8888 6.68126C-24.8702 6.76328 -24.8758 6.8476 -24.9025 6.92736C-24.9845 7.17255 -25.2453 7.31103 -25.4939 7.24025C-25.5991 7.21033 -25.7045 7.18033 -25.8103 7.1502C-26.1417 7.05589 -26.38 6.76621 -26.4088 6.42287C-26.4254 6.22392 -26.4421 6.02455 -26.4588 5.82434C-26.507 5.24805 -26.0505 4.82499 -25.5949 5.18112ZM14.1643 5.13636C14.4861 5.20713 14.6692 5.52298 14.6652 5.85243C14.6635 6.08653 14.6618 6.32064 14.66 6.56184C14.6579 6.79353 14.6557 7.02523 14.6535 7.26395C14.6551 7.3244 14.6573 7.38401 14.66 7.44293C14.6962 8.24076 14.3049 9.1556 13.5307 8.95961C13.3562 8.91545 13.1183 8.81585 12.9754 8.70659C12.6934 8.49118 12.4234 8.26648 12.154 8.03169C12.0349 7.93292 11.9157 7.83415 11.7929 7.73239C11.2647 7.2933 11.0167 6.52027 11.4524 5.98933C11.5855 5.82713 11.7425 5.67999 11.9383 5.52842C12.1309 5.37939 12.3521 5.27044 12.5879 5.20988C13.1006 5.07824 13.6521 5.02372 14.1643 5.13636ZM4.61594 5.56369C4.68163 5.43281 4.84909 5.39022 4.9684 5.47512C5.26192 5.68398 5.5565 5.89359 5.85621 6.10685C5.9731 6.19002 6.02251 6.33793 5.977 6.47398C5.9171 6.65298 5.716 6.7481 5.54962 6.65896C5.15805 6.44916 4.90813 6.19567 4.63266 5.80188C4.58337 5.73143 4.57736 5.64054 4.61594 5.56369ZM-22.3093 6.52684C-22.1391 6.58429 -21.969 6.64174 -21.7982 6.69943C-21.2915 6.87053 -20.9753 7.37468 -21.0419 7.90531C-21.0767 8.18262 -21.1116 8.46065 -21.1466 8.74007C-21.2133 9.27149 -21.8446 9.51572 -22.2485 9.16397C-22.6137 8.85994 -22.6137 8.85993 -22.938 8.64339C-23.646 8.15753 -23.8324 7.74311 -23.9955 6.93513C-24.0651 6.46969 -23.6959 6.06951 -23.2448 6.20348C-22.9301 6.29694 -22.6212 6.4208 -22.3093 6.52684ZM-32.9638 5.96947C-32.8584 6.00947 -32.6738 6.06204 -32.561 6.06467C-32.169 6.07382 -31.7768 6.07547 -31.3847 6.07189C-31.1463 6.0702 -30.908 6.06852 -30.6624 6.06678C-30.6285 6.06638 -30.5988 6.06603 -30.5722 6.06571C-30.3032 6.06253 -30.0706 6.24783 -30.0177 6.51166C-29.9626 6.78577 -30.1177 7.06191 -30.3817 7.15379C-30.386 7.15527 -30.3902 7.15675 -30.3945 7.15823C-31.7442 7.64801 -32.8885 8.19774 -34.043 9.04658C-34.0882 9.07661 -34.1334 9.10663 -34.1787 9.1367C-34.4053 9.28724 -34.7112 9.20845 -34.8332 8.96527C-34.9201 8.79228 -34.8889 8.5804 -34.7536 8.44203C-34.6814 8.36819 -34.6086 8.2938 -34.5348 8.21833C-34.1201 7.7303 -33.9284 7.22318 -33.8052 6.66008C-33.7061 6.20669 -33.3977 5.80485 -32.9638 5.96947ZM6.76758 7.18011C6.90546 7.18011 7.03582 7.24951 7.11019 7.36562C7.57414 8.08992 7.83423 8.6309 7.77314 9.48586C7.75858 9.68976 7.6466 9.96331 7.54534 10.1409C7.22872 10.6962 6.45355 10.9378 6.18889 10.356C6.16217 10.2972 6.13303 10.2306 6.09984 10.1548C5.81197 9.4213 5.84811 8.8787 6.00176 8.15687C6.03436 8.00371 6.08817 7.85549 6.16175 7.71726C6.27842 7.49812 6.33105 7.43264 6.49956 7.28189C6.57344 7.2158 6.66845 7.18011 6.76758 7.18011ZM4.53308 7.53221C4.89186 7.63002 5.10214 7.98705 5.08105 8.35832C5.07623 9.25009 5.30476 10.0739 5.56266 10.913C5.62398 11.1125 5.49957 11.3213 5.29476 11.3615C5.12762 11.3944 4.96049 11.4274 4.78829 11.4613C4.54048 11.5101 4.54048 11.5101 4.28767 11.5598C3.99525 11.6202 3.70396 11.6872 3.41599 11.7661C3.27099 11.7983 3.12832 11.8213 2.98714 11.8351C2.04272 11.9275 1.07771 11.2898 1.00859 10.3434C1.00626 10.3114 1.00428 10.2787 1.00262 10.2454C0.98761 9.94495 1.01015 9.64073 1.10303 9.35462C1.24034 8.93164 1.45413 8.60443 1.76117 8.27598C1.98763 8.03374 2.26496 7.84281 2.56989 7.71248C3.25588 7.41927 3.83347 7.3415 4.53308 7.53221ZM-8.34112 11.4759C-7.63557 12.2405 -7.01405 13.123 -6.78291 14.1216C-6.64794 14.7046 -6.75704 15.3407 -7.14897 15.793C-7.36276 16.0397 -7.61712 16.2358 -7.91306 16.4244C-8.21384 16.6162 -8.54406 16.7613 -8.89308 16.8349C-10.383 17.1489 -11.8838 16.8274 -13.2455 16.1392C-14.2974 15.4767 -14.3383 15.451 -15.0317 14.5705C-15.0884 14.4985 -15.2086 14.4322 -15.2964 14.4061C-15.592 14.3183 -15.8184 14.5937 -15.7287 14.8887C-15.3812 16.0317 -14.5883 16.9928 -13.6407 17.7425C-11.6646 19.0585 -9.62792 19.7409 -7.24986 19.4989C-5.69784 19.1864 -4.2125 18.6795 -2.71799 18.169C0.867035 16.9502 4.48719 16.9138 7.97495 18.4956C9.95483 19.4846 11.7685 20.5856 12.5156 22.7747C12.6334 23.3408 12.6359 23.7871 12.4612 24.2584C12.3413 24.5817 12.1229 24.8575 11.8794 25.1017C11.2596 25.7233 10.6245 26.16 9.67952 26.2823C7.33322 26.3976 5.51984 25.3673 3.77975 23.8632C3.29403 23.5049 2.7526 24.0244 3.04727 24.5511C3.49067 25.3438 4.25027 25.9867 4.92881 26.5915C6.84846 28.0972 9.05396 29.1078 11.4017 29.7418C11.4517 29.7553 11.4866 29.7998 11.4866 29.8516C11.4866 29.9083 11.4447 29.9572 11.3885 29.965C7.74122 30.4703 4.21511 29.6619 1.18153 27.5247C-0.117905 26.4775 -1.32803 25.3151 -2.27696 23.941C-2.34103 23.8482 -2.44445 23.7918 -2.55719 23.7918C-2.76004 23.7918 -2.91906 23.9693 -2.88937 24.17C-2.7711 24.9694 -2.59255 25.7353 -2.35937 26.5193C-2.28226 26.7855 -2.20516 27.0518 -2.12809 27.318C-2.00681 27.7331 -1.88509 28.148 -1.76287 28.5628C-1.64438 28.9662 -1.52753 29.37 -1.41084 29.774C-1.37357 29.8986 -1.33631 30.0232 -1.29791 30.1516C-1.09859 30.7444 -1.80155 30.9972 -2.26339 30.5755C-2.64134 30.2304 -3.0028 29.869 -3.33863 29.4728C-3.97833 28.7196 -4.67243 28.031 -5.37622 27.3381C-6.39082 26.3405 -6.39082 26.3405 -7.34354 25.2849C-8.06463 24.4347 -8.86882 23.6676 -9.66232 22.8854C-10.3471 22.2075 -10.9985 21.5155 -11.6251 20.7835C-12.0089 20.3469 -12.4069 19.9274 -12.8122 19.5105C-12.9482 19.3703 -13.0842 19.23 -13.2243 19.0855C-13.309 19.0142 -13.3756 18.9582 -13.4352 18.9123C-13.8192 18.6172 -14.3048 19.0828 -14.2445 19.5633C-14.215 19.7987 -14.1854 20.0347 -14.1556 20.2717C-14.1031 20.6906 -14.5146 20.8596 -14.6577 20.4624C-14.7117 20.3141 -14.7657 20.1658 -14.8214 20.013C-14.8791 19.8513 -14.9368 19.6896 -14.9962 19.5229C-15.0572 19.3546 -15.1183 19.1863 -15.1811 19.0128C-15.38 18.4636 -15.5775 17.9138 -15.7749 17.3641C-15.9783 16.8011 -16.1819 16.2382 -16.3857 15.6754C-16.5211 15.3012 -16.6564 14.927 -16.7916 14.5527C-17.1822 13.4727 -17.5778 12.3948 -17.9823 11.3199C-18.0271 11.2009 -18.0718 11.0819 -18.1179 10.9592C-18.3198 10.4228 -18.5227 9.88688 -18.727 9.35139C-18.7962 9.1678 -18.8654 8.9842 -18.9367 8.79505C-19.0258 8.56116 -19.0258 8.56116 -19.1168 8.32255C-19.3051 7.80867 -18.8117 7.36333 -18.2659 7.40364C-14.8015 7.6595 -10.8043 9.22619 -8.34112 11.4759ZM41.3749 8.27964C41.6398 8.08651 41.9575 8.25565 42.1584 8.51477C43.8155 10.6522 46.0968 14.3616 46.4708 17.0899C46.5218 17.4615 46.1751 17.7393 45.8093 17.6557C45.4855 17.585 45.1615 17.515 44.8374 17.4457C44.6178 17.3986 44.6178 17.3986 44.3937 17.3505C42.8945 17.054 41.396 16.9584 39.8722 16.8741C39.3706 16.8456 38.869 16.816 38.3675 16.7859C38.1481 16.7736 37.9286 16.7613 37.7026 16.7487C36.9576 16.7092 36.3478 16.198 35.9853 15.546C35.8581 15.3173 35.7355 15.0857 35.6097 14.856C35.5213 14.7013 35.4329 14.5466 35.3418 14.3872C35.2592 14.2383 35.1766 14.0893 35.0915 13.9359C35.0156 13.7992 34.9397 13.6626 34.8615 13.5218C34.8268 13.452 34.7982 13.3944 34.7759 13.344C34.5632 12.8636 35.0998 12.3979 35.5446 12.1181C35.679 12.0285 35.8134 11.9388 35.9519 11.8465C36.1709 11.7038 36.1709 11.7038 36.3943 11.5583C36.5433 11.4597 36.6923 11.361 36.8458 11.2594C37.161 11.0512 37.4767 10.8436 37.7928 10.6368C38.2786 10.3188 38.763 9.99879 39.2472 9.67834C39.5531 9.47663 39.859 9.27503 40.165 9.07356C40.311 8.97733 40.457 8.8811 40.6074 8.78196C40.7418 8.69408 40.8762 8.60621 41.0147 8.51567C41.193 8.39883 41.193 8.39883 41.3749 8.27964ZM-20.0778 8.11334C-20.0258 8.11334 -19.9786 8.14565 -19.9605 8.19435C-19.5383 9.32941 -19.1182 10.4652 -18.6995 11.6016C-18.5534 11.9976 -18.4067 12.3933 -18.2595 12.7889C-18.0484 13.3564 -17.8392 13.9246 -17.6303 14.4929C-17.5305 14.7595 -17.5305 14.7595 -17.4286 15.0314C-17.3386 15.278 -17.3386 15.278 -17.2467 15.5296C-17.1931 15.6747 -17.1394 15.8197 -17.0841 15.9692C-16.9989 16.2004 -16.967 16.2868 -17.0122 16.4078C-17.0792 16.5874 -17.3101 16.6344 -17.4817 16.5489C-18.1939 16.1942 -18.4825 16.0505 -18.6863 15.9625C-18.9509 15.8482 -19.2833 15.803 -19.4409 15.5618C-19.501 15.4699 -19.5196 15.3404 -19.5574 15.0776C-19.5767 14.8736 -19.596 14.6696 -19.6159 14.4594C-19.7158 13.6274 -19.8516 12.9639 -20.2131 12.2079C-20.7913 10.9024 -20.4845 9.56244 -20.1988 8.21211C-20.1867 8.15456 -20.1366 8.11334 -20.0778 8.11334ZM30.382 9.18551C30.6148 9.31771 30.7103 9.60356 30.6094 9.8515C30.3071 10.6132 30.1792 11.2527 30.1176 12.0679C30.1019 12.2708 30.0862 12.4736 30.07 12.6826C30.0513 12.9379 29.8207 13.1274 29.5711 13.0704C28.5786 12.8436 27.8795 12.3375 27.2393 11.6779C26.4854 10.9012 26.1874 9.57519 27.0482 8.91884C27.0549 8.91371 27.0617 8.90858 27.0685 8.90345C27.2883 8.73867 27.5452 8.62731 27.8154 8.57813C28.8051 8.39801 29.5087 8.68948 30.382 9.18551ZM-0.0517883 8.70446C0.134018 8.79349 0.242172 8.9886 0.238121 9.19459C0.226463 10.2111 -0.780579 11.0569 -1.65814 10.5438C-1.82658 10.4453 -1.99569 10.3427 -2.16761 10.2365C-2.29659 10.158 -2.42556 10.0796 -2.55844 9.99878C-3.04499 9.70258 -3.13961 9.0022 -2.6319 8.74396C-2.23535 8.54226 -1.79977 8.45546 -1.2425 8.43998C-0.703201 8.47409 -0.429283 8.52359 -0.0517883 8.70446ZM25.0377 8.67329C25.1156 8.67329 25.1903 8.71231 25.2336 8.77709C25.2575 8.81279 25.2776 8.84276 25.2956 8.86977C25.3995 9.02496 25.29 9.23323 25.1032 9.23323C25.0253 9.23323 24.9508 9.19435 24.9074 9.12957C24.8867 9.09867 24.866 9.06774 24.8453 9.03676C24.7414 8.88157 24.851 8.67329 25.0377 8.67329ZM19.2117 8.89234C20.08 8.90244 20.5359 9.84468 20.3533 10.6937C20.2041 11.3873 19.6511 11.9874 18.9435 11.9351C18.4554 11.899 18.0052 11.7605 17.4587 11.5402C17.3498 11.4963 17.1839 11.3885 17.0912 11.3163C16.6654 10.9844 16.7028 10.4123 17.0183 9.97416C17.1831 9.74533 17.333 9.60031 17.6083 9.38179C17.892 9.15665 18.2258 8.99699 18.5838 8.94183C18.8079 8.90728 19.0121 8.89002 19.2117 8.89234ZM15.3465 9.818C15.3936 9.80235 15.4463 9.80564 15.4907 9.82778C15.5808 9.87264 15.6163 9.89034 15.6971 9.93059C15.7576 9.96074 15.7959 10.0216 15.7959 10.0892C15.7959 10.2152 15.6688 10.3024 15.5517 10.2558C15.4804 10.2274 15.409 10.1989 15.3373 10.1704C15.1745 10.1055 15.1802 9.87321 15.3465 9.818ZM31.4596 10.3531C31.5069 10.3531 31.5527 10.3731 31.5844 10.4082C32.1473 11.0321 32.6558 11.665 33.1153 12.3345C33.6433 13.1038 33.0607 14.0861 32.1276 14.0861C31.6551 14.0861 31.1982 13.8255 31.029 13.3844C30.8096 12.8122 30.7274 12.2643 30.8993 11.5751C31.0254 11.1981 31.1591 10.8272 31.3052 10.4582C31.3304 10.3946 31.3912 10.3531 31.4596 10.3531ZM35.1994 15.88C35.2521 15.9258 35.2818 15.9915 35.2818 16.0614C35.2818 16.2036 35.1608 16.3172 35.0192 16.3032C33.9449 16.1968 32.9785 15.9288 32.0007 15.439C31.9411 15.4092 31.8936 15.3614 31.8637 15.3019C31.7857 15.1464 31.8482 14.9539 32.0117 14.8948C33.2052 14.463 34.2726 15.0735 35.1994 15.88ZM-12.9289 20.6187C-12.8922 20.6187 -12.8565 20.6338 -12.8313 20.6605C-12.6326 20.8714 -12.4399 21.088 -12.2501 21.307C-12.0741 21.5102 -12.0741 21.5102 -11.8945 21.7175C-11.6042 22.059 -11.3196 22.4042 -11.0402 22.7541C-10.9462 22.8718 -11.0283 23.0452 -11.1789 23.0452C-11.2826 23.0452 -11.3676 23.1325 -11.3568 23.2356C-11.2534 24.2191 -10.7886 24.7253 -10.1072 25.4599C-9.92975 25.6555 -9.75601 25.8513 -9.5857 26.0484C-9.05323 26.6646 -9.59029 27.3184 -10.2711 26.8714C-10.3873 26.7961 -10.5035 26.7208 -10.6232 26.6432C-11.6412 26.0546 -11.8019 25.9617 -12.1553 25.2375C-12.3102 24.92 -12.4203 24.5826 -12.4978 24.2379C-12.4998 24.2291 -12.5018 24.2202 -12.5038 24.2113C-12.5437 24.0228 -12.5837 23.8343 -12.6249 23.6401C-12.667 23.4538 -12.7092 23.2674 -12.7526 23.0754C-12.9273 22.2814 -13.0678 21.5556 -13.0606 20.7487C-13.06 20.6764 -13.0013 20.6187 -12.9289 20.6187ZM-15.3885 21.1787C-15.339 21.1787 -15.2932 21.2075 -15.2725 21.2525C-15.1622 21.492 -15.0527 21.7319 -14.9435 21.9719C-14.8424 22.1928 -14.8424 22.1928 -14.7393 22.4181C-14.5412 22.8969 -15.0596 23.3311 -15.4177 22.9566C-15.442 22.9312 -15.4674 22.9042 -15.4942 22.8754C-15.615 22.7456 -15.6811 22.5729 -15.6688 22.396C-15.6425 22.02 -15.5811 21.6623 -15.5128 21.2831C-15.5019 21.2226 -15.45 21.1787 -15.3885 21.1787ZM-10.1818 23.8472C-10.1195 23.7231 -9.95963 23.7125 -9.86464 23.8139C-9.85117 23.8282 -9.83583 23.8446 -9.81785 23.8638C-9.44234 24.264 -9.06638 24.6637 -8.69023 25.0633C-8.55406 25.208 -8.41788 25.3527 -8.27757 25.5018C-7.50052 26.3243 -6.71317 27.131 -5.90318 27.9213C-5.89513 27.9293 -5.88708 27.9372 -5.87905 27.9451C-5.13852 28.6754 -5.68343 29.3427 -6.37159 28.5629C-6.47726 28.4464 -6.58293 28.3298 -6.6918 28.2097C-7.59966 27.2004 -8.46259 26.1577 -9.31087 25.0983C-9.59342 24.7572 -9.87806 24.418 -10.1631 24.079C-10.2144 24.018 -10.2176 23.9185 -10.1818 23.8472ZM-14.2643 25.005C-14.0747 25.1609 -13.8851 25.3168 -13.6898 25.4774C-13.4272 25.6946 -13.311 26.0782 -13.5016 26.3608C-13.5727 26.4661 -13.6542 26.5451 -13.7938 26.6589C-13.9399 26.778 -14.1128 26.863 -14.2991 26.8913C-14.742 26.9586 -15.1324 26.925 -15.564 26.8593C-15.8194 26.8204 -15.9714 26.5533 -15.8803 26.3115C-15.8134 26.0919 -15.7588 25.8778 -15.713 25.6651C-15.5315 24.8225 -14.9294 24.4567 -14.2643 25.005ZM-16.8918 24.4246C-16.6809 24.1706 -16.4031 24.4054 -16.4096 24.7355C-16.4225 25.386 -16.5927 25.8346 -17.0367 26.4117C-17.1299 26.5329 -17.2375 26.6431 -17.3544 26.7416C-18.1025 27.372 -18.5499 27.5455 -19.621 27.5495C-19.6656 27.5482 -19.7052 27.547 -19.7413 27.5458C-20.2434 27.5278 -20.6358 27.052 -20.4037 26.6063C-20.2955 26.3985 -20.0645 26.1642 -19.8463 26.079C-19.4585 25.9276 -19.0652 25.8096 -18.6615 25.6852C-17.929 25.3979 -17.4508 24.9656 -16.8918 24.4246ZM-25.8378 24.9116C-25.7034 24.9116 -25.5813 24.9971 -25.5434 25.126C-25.4105 25.5781 -25.4688 25.7015 -25.717 26.2065C-26.0857 26.8933 -26.4687 27.2703 -27.1313 27.6254C-27.2411 27.6843 -27.3579 27.7302 -27.4772 27.7664C-27.8465 27.8785 -27.9298 27.8912 -28.2802 27.8963C-28.3709 27.8976 -28.4573 27.8629 -28.5215 27.7989C-28.6666 27.6544 -28.6517 27.4141 -28.4888 27.29C-28.4659 27.2726 -28.4429 27.255 -28.4198 27.2374C-26.9018 26.0586 -26.9018 26.0586 -26.361 25.3783C-26.2679 25.2623 -26.1748 25.1464 -26.0801 25.0284C-26.0208 24.9546 -25.9325 24.9116 -25.8378 24.9116ZM-23.5154 25.9265C-23.4859 25.9366 -23.4565 25.9465 -23.4271 25.9563C-22.5119 26.2598 -21.9505 27.3681 -22.8349 27.7523C-23.002 27.8249 -23.2702 27.8954 -23.4523 27.8876C-23.7208 27.8761 -23.987 27.8588 -24.2482 27.82C-24.8403 27.7321 -25.1172 27.1273 -24.9446 26.5542C-24.7883 26.0351 -24.2951 25.653 -23.7831 25.831C-23.6978 25.8606 -23.6096 25.8928 -23.5154 25.9265ZM-0.586723 27.1514C-0.46669 27.2554 -0.346657 27.3593 -0.222977 27.4664C-0.0893478 27.5832 -0.116982 27.7982 -0.275841 27.8773C-0.28167 27.8802 -0.287712 27.8832 -0.293968 27.8863C-0.68692 28.0821 -1.15865 27.8597 -1.25423 27.4313C-1.34921 27.0055 -1.04355 26.7121 -0.731049 27.0164C-0.682541 27.0637 -0.634666 27.1097 -0.586723 27.1514ZM-12.3631 26.7781C-12.2127 26.7781 -12.0685 26.8518 -11.9971 26.984C-11.72 27.4971 -11.6679 28.03 -11.7057 28.6C-11.7241 28.8784 -11.7907 29.1524 -11.9087 29.4052C-12.2603 30.1581 -12.7611 30.7338 -13.4722 31.199C-13.6071 31.2873 -13.7584 31.3492 -13.9177 31.3737C-14.3072 31.4337 -14.6603 31.4132 -15.0324 31.3623C-15.3785 31.315 -15.5935 30.9625 -15.4939 30.6277C-15.2934 29.843 -15.2736 29.0815 -15.294 28.2885C-15.2998 28.0598 -15.1504 27.8554 -14.9296 27.7952C-14.0801 27.5543 -13.3518 27.3139 -12.6092 26.8504C-12.535 26.8041 -12.4506 26.7781 -12.3631 26.7781ZM-19.1272 28.3334C-17.7072 28.1095 -15.8417 28.6396 -16.167 30.0398C-16.2063 30.2088 -16.2843 30.402 -16.3723 30.5515C-16.8074 31.291 -17.2645 31.7801 -18.0544 32.0993C-18.218 32.1654 -18.3939 32.1948 -18.5704 32.1993C-18.9734 32.2093 -19.3285 32.2022 -19.7058 32.1288C-19.9802 32.0754 -20.1382 31.7989 -20.0851 31.5245C-19.9889 30.8723 -19.9722 30.2598 -19.9789 29.6012C-19.9806 29.3861 -19.9823 29.171 -19.9841 28.9494C-19.9842 28.9377 -19.9844 28.9261 -19.9845 28.9144C-19.988 28.6538 -19.7966 28.4314 -19.5383 28.396C-19.3987 28.3752 -19.2618 28.3546 -19.1272 28.3334ZM-9.58021 28.3646C-9.39062 28.4859 -9.20102 28.6072 -9.00568 28.7321C-8.74886 28.8973 -8.63005 29.2337 -8.79018 29.4937C-8.94372 29.743 -9.12454 29.8672 -9.55679 30.1028C-9.72826 30.1724 -9.8591 30.2255 -9.97097 30.2626C-10.6461 30.4865 -11.1045 29.6198 -10.996 28.9169C-10.8896 28.2285 -10.312 27.8442 -9.74617 28.2505C-9.68787 28.2923 -9.63229 28.3312 -9.58021 28.3646ZM31.463 28.7865C31.5107 28.8157 31.5506 28.8552 31.5816 28.9016C31.6048 28.9363 31.628 28.971 31.6513 29.0057C31.7757 29.1916 31.6751 29.4444 31.457 29.494C30.6305 29.6893 29.8618 29.8754 29.1162 30.213C28.7783 30.366 28.3701 30.2848 28.1503 29.9861C27.4506 29.1536 27.3243 27.901 28.4107 27.948C29.5283 27.9965 30.6293 28.2769 31.463 28.7865ZM-21.5198 28.0847C-21.2701 28.0847 -21.032 28.2155 -20.9334 28.4449C-20.6994 28.9891 -20.6487 29.5226 -20.6827 30.106C-20.7057 30.4991 -20.8153 30.8866 -21.0329 31.2148C-21.4321 31.8165 -21.9479 32.2356 -22.617 32.5435C-22.9118 32.6792 -23.2362 32.7473 -23.5594 32.7184C-23.7067 32.7052 -23.8488 32.6828 -23.9896 32.6522C-24.563 32.5278 -25.2137 32.0891 -24.9719 31.5546C-24.922 31.4444 -24.855 31.2932 -24.8243 31.1762C-24.631 30.438 -24.6399 29.7245 -24.6641 28.9678C-24.6697 28.7944 -24.5252 28.6537 -24.352 28.6643C-23.344 28.6995 -22.6988 28.5565 -21.8207 28.1522C-21.7259 28.1085 -21.6242 28.0847 -21.5198 28.0847ZM-27.7531 28.5352C-26.7007 28.4087 -25.454 28.73 -25.3661 29.7863C-25.3497 29.9845 -25.3529 30.189 -25.3777 30.4033C-25.4005 30.6002 -25.4605 30.791 -25.5463 30.9696C-25.7204 31.3323 -25.9192 31.6429 -26.1648 31.9266C-26.5783 32.4043 -27.1743 32.7007 -27.8049 32.7389C-28.2365 32.7651 -28.6611 32.7228 -29.111 32.6237C-29.2756 32.5875 -29.4303 32.5151 -29.5668 32.4163C-29.6343 32.3675 -29.688 32.327 -29.7334 32.2894C-30.0217 32.0508 -30.0009 31.6125 -29.8273 31.281C-29.5154 30.5706 -29.492 29.877 -29.5216 29.1381C-29.5325 28.8653 -29.3255 28.6322 -29.0529 28.6169C-28.729 28.596 -28.729 28.596 -28.3986 28.5746C-28.1856 28.5616 -27.9726 28.5486 -27.7531 28.5352ZM-31.61 28.7172C-30.9703 28.5942 -30.2835 28.9388 -30.2689 29.59C-30.2612 29.9352 -30.3108 30.2776 -30.4191 30.6427C-30.4718 30.8204 -30.5566 30.9868 -30.6614 31.1397C-30.8904 31.4738 -31.1226 31.7672 -31.416 32.0117C-31.7604 32.2987 -32.2041 32.437 -32.6517 32.463C-33.3423 32.503 -33.973 32.3738 -34.6285 32.0043C-34.632 32.0018 -34.6356 31.9994 -34.6391 31.9969C-34.9444 31.7853 -35.0535 31.3849 -34.8978 31.0477C-34.7176 30.6574 -34.6097 30.2747 -34.53 29.8755C-34.4505 29.4775 -34.1472 29.1578 -33.7473 29.0886C-33.4555 29.0378 -33.1637 28.987 -32.8719 28.9362C-32.6535 28.8985 -32.6535 28.8985 -32.4306 28.86C-32.2893 28.8354 -32.148 28.8107 -32.0024 28.7853C-31.8729 28.7628 -31.7434 28.7404 -31.61 28.7172ZM-0.560799 28.8312C-0.525696 28.8312 -0.491707 28.8468 -0.469299 28.8738C-0.307793 29.0686 -0.152985 29.269 -0.00121307 29.4714C0.0987778 29.6044 0.198769 29.7375 0.301796 29.8746C0.406616 30.0153 0.511429 30.1561 0.619431 30.3011C0.724251 30.4404 0.829071 30.5797 0.937073 30.7232C0.993378 30.7966 1.04384 30.8623 1.08956 30.922C1.44711 31.3891 1.01815 32.009 0.441277 31.8941C0.206543 31.8473 0.00754547 31.6797 -0.0696869 31.4531C-0.351662 30.626 -0.571037 29.8407 -0.677185 28.9625C-0.685646 28.8925 -0.63131 28.8312 -0.560799 28.8312ZM27.4242 30.4178C27.7123 30.7206 27.803 30.8159 27.8131 31.034C27.8238 31.2662 27.6083 31.4415 27.3759 31.4378C26.6156 31.4307 25.8876 31.4303 25.1483 31.5343C24.8303 31.579 24.5133 31.4147 24.3913 31.1177C24.0043 30.4495 23.6205 30.1875 22.9829 29.8047C22.9413 29.7797 22.9158 29.7354 22.9158 29.687C22.9158 29.6233 22.9595 29.5672 23.0215 29.553C24.626 29.188 26.1262 29.3622 27.4242 30.4178ZM-7.64084 29.7645C-7.51456 29.7645 -7.39426 29.8274 -7.32922 29.9356C-6.85026 30.7326 -6.82181 31.3586 -6.95564 32.3032C-7.15574 33.1415 -7.56398 33.6371 -8.17202 34.1784C-8.27419 34.2693 -8.38865 34.3466 -8.51387 34.4017C-9.06466 34.6439 -9.47472 34.6702 -10.0395 34.642C-10.2462 34.6316 -10.3903 34.4335 -10.3414 34.2324C-10.1907 33.3503 -10.2231 32.5208 -10.3631 31.6585C-10.4006 31.4274 -10.272 31.1994 -10.0515 31.1206C-9.19474 30.7999 -8.54036 30.5478 -7.92719 29.8929C-7.85235 29.813 -7.75034 29.7645 -7.64084 29.7645ZM23.2202 30.9894C23.6615 31.3798 23.2162 31.9197 22.6337 31.8317C22.5521 31.8193 22.4705 31.8069 22.3888 31.7943C22.2505 31.777 22.1123 31.7596 21.9698 31.7418C21.8544 31.7257 21.7677 31.7136 21.6926 31.701C21.1296 31.606 20.6089 31.2262 20.4143 30.6895C20.3835 30.6045 20.3503 30.5028 20.3071 30.3691C20.2976 30.3396 20.2842 30.3117 20.267 30.286C20.118 30.0635 20.2777 29.7725 20.5427 29.8112C21.507 29.9519 22.4819 30.3988 23.2202 30.9894ZM19.5901 30.7564C19.6709 30.8334 19.696 30.9533 19.6459 31.053C19.5886 31.1673 19.4516 31.2185 19.3341 31.1684C19.0913 31.0647 18.8479 30.9608 18.6016 30.8556C18.3885 30.7647 18.2725 30.5352 18.3289 30.3105C18.3815 30.1009 18.578 29.9525 18.767 30.0572C19.0599 30.2194 19.3566 30.5337 19.5901 30.7564ZM1.52113 28.6796C2.6627 29.4168 3.82912 29.8965 5.11617 30.3244C5.24659 30.3685 5.37702 30.4125 5.5114 30.4579C7.86485 31.1442 10.7292 31.0335 13.0689 30.312C13.87 30.1024 14.5867 30.0962 15.4095 30.1144C15.5555 30.1161 15.7015 30.1178 15.8519 30.1196C16.3066 30.1251 16.5464 30.6282 16.2031 30.9264C14.8263 32.1223 12.7715 32.5361 11.0181 32.8792C10.6935 32.908 10.6935 32.908 10.3624 32.9375C10.2262 32.9604 10.0899 32.9832 9.94959 33.0068C7.59341 33.2408 5.01386 31.5927 3.2257 30.1961C3.14765 30.1427 3.07312 30.0962 2.99998 30.0553C2.57532 29.8178 2.11835 30.2112 2.11835 30.6977C1.40401 30.0268 0.835991 29.3401 0.292671 28.5299C0.261269 28.4831 0.244705 28.4287 0.244705 28.3723C0.244705 28.2139 0.374649 28.0804 0.52961 28.1133C0.905174 28.1932 1.15438 28.4287 1.52113 28.6796ZM32.0597 30.3375C32.7235 30.4905 33.2664 31.0287 33.2729 31.7099C33.2762 32.0576 33.2123 32.411 33.1191 32.7756C32.8721 33.4017 32.6802 33.7475 32.0969 34.0443C32.036 34.0753 31.9716 34.0994 31.906 34.1186C31.6682 34.188 31.432 34.2506 31.1936 34.3065C30.8632 34.3839 30.5407 34.1674 30.4689 33.8357C30.2676 33.1215 29.8968 32.7416 29.3585 32.2559C29.3106 32.2127 29.2686 32.1646 29.2327 32.111C29.0425 31.8268 29.0557 31.4432 29.3116 31.2163C29.8698 30.7213 30.5228 30.4557 31.2732 30.3228C31.531 30.2771 31.8046 30.2788 32.0597 30.3375ZM-4.80242 30.8844C-4.49194 31.0403 -4.49194 31.0403 -4.17519 31.1993C-3.91116 31.3326 -3.80782 31.663 -3.97072 31.9098C-4.24612 32.3272 -4.53006 32.6122 -5.03902 32.8665C-5.13675 32.9153 -5.24374 32.9375 -5.35298 32.9375C-5.77885 32.9375 -6.12568 32.5923 -6.12568 32.1664C-6.12568 31.9883 -6.12568 31.8099 -6.12568 31.631C-6.12568 30.9094 -5.56161 30.468 -4.92987 30.8167C-4.88593 30.841 -4.84336 30.8638 -4.80242 30.8844ZM3.80463 31.5143C3.9249 31.5913 4.04519 31.6683 4.16911 31.7476C4.70131 32.0914 4.44641 32.8194 3.84875 32.609C3.72662 32.566 3.58755 32.5126 3.41921 32.4468C3.3028 32.4013 3.1963 32.3327 3.10839 32.2438C2.83396 31.9664 2.57523 31.6803 2.33829 31.3726C2.18996 31.18 2.11835 30.9408 2.11835 30.6977C2.76927 30.6977 3.27365 31.1681 3.80463 31.5143ZM-13.6822 32.0519C-12.4908 31.6832 -11.0737 31.8104 -10.973 33.0534C-11.02 33.9181 -11.3818 34.5635 -11.9414 35.1533C-12.1322 35.3545 -12.351 35.5295 -12.5949 35.6616C-13.0146 35.8891 -13.336 35.9439 -13.9247 35.9355C-14.0779 35.9338 -14.231 35.9322 -14.3887 35.9304C-14.4248 35.9298 -14.4609 35.9291 -14.497 35.9284C-14.6492 35.9256 -14.7865 35.8401 -14.8547 35.7042C-14.9036 35.6068 -14.9124 35.4925 -14.8778 35.3891C-14.8487 35.3023 -14.8195 35.2151 -14.7901 35.1269C-14.7598 35.0365 -14.7414 34.9424 -14.737 34.8471C-14.725 34.588 -14.7202 34.3284 -14.721 34.069C-14.7203 33.8298 -14.7203 33.8298 -14.7196 33.5857C-14.7348 33.3026 -14.7698 33.0463 -14.8264 32.7865C-14.8753 32.5624 -14.7439 32.3336 -14.5205 32.2813C-14.2249 32.2075 -13.9474 32.134 -13.6822 32.0519ZM20.4178 33.0614C20.9902 33.7402 21.1879 34.1529 21.225 34.8801C21.2362 35.1003 20.9985 35.2378 20.805 35.1321C20.6205 35.0315 20.436 34.9309 20.2458 34.8273C19.972 34.6779 19.972 34.6779 19.6925 34.5255C19.1912 34.2562 19.1695 34.2446 18.7886 34.0883C18.7528 34.0736 18.7184 34.0562 18.6855 34.0358C18.5162 33.931 18.3982 33.7588 18.3673 33.5621C18.3073 33.1793 18.2653 32.8103 18.2347 32.4177C18.2327 32.391 18.2287 32.3644 18.2228 32.3383C18.1421 31.9827 18.4156 31.6493 18.7501 31.7946C19.3818 32.0691 19.988 32.6342 20.4178 33.0614ZM16.5695 31.7474C16.7729 31.6799 16.9957 31.7665 17.0979 31.9548C17.168 32.0838 17.2375 32.2131 17.3066 32.3426C17.3783 32.4746 17.45 32.6067 17.5239 32.7428C17.6062 32.9089 17.655 33.0075 17.6676 33.1018C17.7083 33.4067 17.2448 33.4824 17.038 33.2547C17.0309 33.2469 17.0236 33.2388 17.016 33.2304C16.9542 33.1622 16.9201 33.0745 16.9201 32.9825C16.9201 32.8413 16.8403 32.7111 16.7139 32.6481C16.6449 32.6138 16.5757 32.5793 16.5063 32.5447C16.3138 32.4489 16.2207 32.228 16.2889 32.0241C16.332 31.8955 16.4338 31.7924 16.5626 31.7497C16.5649 31.7489 16.5672 31.7482 16.5695 31.7474ZM-2.74454 32.0043C-2.6315 32.0043 -2.52107 32.0508 -2.44872 32.1377C-1.94086 32.7474 -1.85101 33.3027 -1.79288 34.1194C-1.82737 34.8525 -2.03606 35.447 -2.40385 36.0471C-2.50722 36.2158 -2.63873 36.3664 -2.79375 36.4893C-3.32319 36.909 -3.73244 37.0326 -4.36214 37.0476C-4.61916 37.0538 -4.82896 36.8495 -4.84853 36.5932C-4.96185 35.1657 -4.99281 34.7755 -5.07204 34.3064C-5.13258 33.9479 -4.93461 33.5947 -4.59164 33.4741C-3.86846 33.1722 -3.51569 32.7418 -3.06191 32.16C-2.98531 32.0618 -2.8691 32.0043 -2.74454 32.0043ZM-18.6371 32.9873C-17.1855 32.6814 -15.3589 32.9163 -15.4339 34.3979C-15.5618 35.2635 -15.8924 35.7768 -16.5361 36.3555C-17.1867 36.8042 -17.5198 36.8827 -18.3044 36.8804C-18.5536 36.8811 -18.5536 36.8812 -18.8079 36.8819C-19.0487 36.8838 -19.1572 36.8846 -19.2674 36.8494C-19.4891 36.7785 -19.5781 36.5153 -19.523 36.2891C-19.4121 35.6413 -19.4107 35.0292 -19.4168 34.3724C-19.4185 34.1382 -19.4202 33.9041 -19.422 33.6629C-19.4227 33.606 -19.4234 33.5491 -19.424 33.4921C-19.4266 33.2811 -19.2734 33.1005 -19.0648 33.0687C-18.9172 33.0433 -18.7749 33.0164 -18.6371 32.9873ZM29.2119 33.2198C29.2541 33.2642 29.2917 33.3132 29.325 33.3645C29.4272 33.5218 29.5116 33.6625 29.581 33.8004C29.8218 34.2793 29.3412 34.7491 28.8137 34.6538C28.6443 34.6231 28.4762 34.5874 28.2364 34.5333C28.0066 34.4815 27.7873 34.6525 27.7873 34.888C27.7873 35.0563 27.6726 35.2058 27.5093 35.2465C27.3265 35.292 27.1433 35.3377 26.9589 35.3836C26.5929 35.4747 26.2245 35.2433 26.1478 34.874C25.8252 33.5794 26.1304 31.9412 27.4332 32.229C28.099 32.3761 28.7212 32.7038 29.2119 33.2198ZM25.0395 34.1148C25.1229 34.1997 25.1941 34.2971 25.2368 34.4082C25.3902 34.8069 25.377 35.1949 25.3611 35.6189C25.3552 35.7747 25.2069 35.8871 25.0558 35.8488C24.4844 35.7083 23.911 35.577 23.3373 35.4456C23.118 35.3953 22.8987 35.345 22.6728 35.2932C22.6122 35.2793 22.5516 35.2654 22.4907 35.2515C22.2943 35.2066 22.1444 35.0478 22.1107 34.8492C21.8875 33.6874 22.6308 32.3805 23.6463 32.9874C24.1466 33.2864 24.6076 33.6748 25.0395 34.1148ZM0.174446 32.6575C0.36235 32.7095 0.550255 32.7615 0.743858 32.815C0.979622 32.881 1.11124 33.1354 1.0106 33.3586C0.777214 33.8762 0.500938 34.2569 0.0444489 34.6571C-0.0678177 34.7555 -0.20787 34.817 -0.35569 34.838C-0.405754 34.8451 -0.449112 34.8507 -0.488327 34.8547C-0.822845 34.8892 -1.06188 34.5569 -1.05513 34.2207C-1.0573 34.0866 -1.06193 33.9553 -1.069 33.8256C-1.11027 33.0698 -0.554893 32.4548 0.174446 32.6575ZM-21.1065 32.7508C-20.8798 32.7508 -20.6645 32.8669 -20.5581 33.0671C-20.1959 33.7487 -20.0673 34.3737 -20.1272 35.1273C-20.1496 35.4099 -20.2191 35.6883 -20.3411 35.9443C-20.4866 36.25 -20.6632 36.5151 -20.8865 36.7599C-21.1822 37.0842 -21.572 37.312 -21.9948 37.4293C-22.5268 37.5769 -23.0056 37.5881 -23.5353 37.4705C-24.0371 37.359 -24.6021 37.0129 -24.4645 36.5177C-24.3961 36.2717 -24.2954 35.9792 -24.2912 35.724C-24.2859 35.4057 -24.2854 35.0873 -24.2883 34.769C-24.29 34.5315 -24.2917 34.294 -24.2934 34.0494C-24.2936 34.0379 -24.2937 34.0265 -24.2938 34.015C-24.2974 33.7196 -24.0798 33.468 -23.787 33.4289C-23.4555 33.382 -23.4555 33.382 -23.1173 33.3341C-22.8977 33.3038 -22.6782 33.2735 -22.452 33.2423C-21.9282 33.137 -21.8712 33.1255 -21.4671 32.86C-21.3595 32.7893 -21.2353 32.7508 -21.1065 32.7508ZM-33.1515 33.2831C-31.6954 33.1443 -29.8616 33.7003 -29.9779 35.1583C-29.9947 35.369 -30.0334 35.5879 -30.0966 35.8189C-30.2035 36.0756 -30.5089 36.1862 -30.7428 36.0357C-31.3701 35.6319 -31.8744 35.1452 -32.4152 34.594C-32.5698 34.4399 -32.5697 34.4399 -32.7274 34.2827C-33.1269 33.9595 -33.2175 33.8863 -33.3476 33.6134C-33.4176 33.4665 -33.3137 33.2967 -33.1515 33.2831ZM47.3499 34.147C47.4213 34.2078 47.4605 34.2961 47.4605 34.3899C47.4605 34.6018 47.2644 34.7608 47.0574 34.7151C46.5149 34.5955 45.9725 34.4754 45.4303 34.3547C43.9998 34.0362 43.978 32.6691 45.3819 33.0897C46.1097 33.3078 46.7938 33.6739 47.3499 34.147ZM16.2409 33.4974C17.2895 34.5834 17.7535 35.5525 17.7508 37.0656C17.7319 37.2095 17.7193 37.3049 17.6886 37.3796C17.5313 37.7617 16.9361 37.5292 16.7093 37.1837C16.3056 36.6156 15.9019 36.267 15.3569 35.924C15.176 35.8102 15.0849 35.5937 15.1402 35.3872C15.2074 34.9686 15.2341 34.5529 15.2423 34.1359C15.2551 33.4775 15.7693 33.0379 16.2409 33.4974ZM13.6015 33.0915C13.9666 33.0107 14.3972 33.2056 14.4575 33.5746C14.5134 33.9165 14.5173 34.2458 14.4958 34.6273C14.4893 34.7421 14.4446 34.8517 14.3699 34.9391C14.2975 35.0237 14.2492 35.0774 14.1969 35.1283C14.0593 35.2619 13.8322 35.2197 13.7305 35.057C13.647 34.9234 13.5634 34.7899 13.4773 34.6523C13.3947 34.5202 13.3121 34.3881 13.227 34.252C13.2171 34.2364 13.2071 34.2207 13.1971 34.205C12.9211 33.7711 13.0994 33.2026 13.6015 33.0915ZM-28.125 33.5013C-26.6174 33.3947 -24.8942 33.8594 -24.9892 35.3678C-25.0113 35.7184 -25.1237 36.0878 -25.3063 36.3879C-25.5435 36.7778 -25.8144 37.1098 -26.1837 37.3778C-26.4144 37.5452 -26.6881 37.6421 -26.9695 37.6873C-27.7732 37.8164 -28.3514 37.7149 -29.1011 37.4185C-29.3639 37.3147 -29.5077 37.0338 -29.4533 36.7565C-29.3533 36.0722 -29.3406 35.4251 -29.3471 34.734C-29.3488 34.5016 -29.3505 34.2691 -29.3523 34.0297C-29.353 33.9672 -29.3538 33.9047 -29.3546 33.842C-29.3569 33.6557 -29.2009 33.5065 -29.0149 33.5171C-28.7062 33.5271 -28.4115 33.5216 -28.125 33.5013ZM2.23524 33.4974C2.39568 33.4974 2.54969 33.5742 2.63747 33.7085C3.20743 34.5806 3.38226 35.364 3.29952 36.3693C3.27273 36.6949 3.19583 37.0161 3.05505 37.3109C2.79444 37.8565 2.4278 38.3219 1.89675 38.6387C1.79746 38.698 1.6843 38.7294 1.56914 38.7397C1.36475 38.7581 1.26689 38.7632 1.13412 38.7549C0.944481 38.7432 0.797836 38.5851 0.785576 38.3955C0.708595 37.4843 0.547127 36.8251 0.11496 36.0281C0.0777969 35.9596 0.0573425 35.884 0.0573425 35.806C0.0573425 35.648 0.139549 35.5003 0.274361 35.4179C0.372719 35.3578 0.471802 35.2972 0.572594 35.2356C1.21981 34.7768 1.47052 34.3957 1.79243 33.7709C1.87846 33.6039 2.0474 33.4974 2.23524 33.4974ZM9.58265 33.7717C10.0975 33.725 10.5757 34.1428 10.4929 34.653C10.4387 34.9872 10.3212 35.2146 10.0335 35.7377C9.99574 35.8063 9.92772 35.8778 9.86475 35.9244C9.70061 36.0457 9.48875 36.0633 9.33527 35.9288C9.04367 35.6732 8.99759 35.3408 8.84004 34.8856C8.77386 34.6968 8.70768 34.5079 8.6395 34.3133C8.56271 34.0879 8.71719 33.85 8.95435 33.8286C9.16315 33.8097 9.37238 33.7907 9.58265 33.7717ZM5.05762 33.5908C5.28477 33.6167 5.28478 33.6167 5.51653 33.6433C5.73331 33.6686 5.93051 33.8017 6.00554 34.0066C6.11485 34.3052 6.04313 34.4163 5.72511 34.909C5.45101 35.3827 5.29445 35.5474 4.86659 35.8397C4.7855 35.8951 4.68906 35.9239 4.59084 35.9239C4.58563 35.9239 4.58041 35.9239 4.5752 35.9239C4.34534 35.9239 4.14774 35.7609 4.10397 35.5353C4.07088 35.3671 4.03779 35.1989 4.0037 35.0256C3.95479 34.7755 3.9548 34.7755 3.9049 34.5204C3.7942 34.0092 4.15843 33.5017 4.67911 33.5508C4.80406 33.5626 4.92986 33.576 5.05762 33.5908ZM12.1306 34.1172C13.0845 35.2147 13.4342 36.1482 13.4364 37.5739C13.4366 37.6665 13.4292 37.7593 13.409 37.8496C13.3746 38.0043 13.3284 38.1403 13.271 38.2644C12.9594 38.9392 12.0037 38.8525 11.6973 38.1753C11.4715 37.7092 11.2701 37.3829 10.9154 37.1012C10.718 36.9445 10.6198 36.6827 10.7137 36.4488C10.7832 36.2756 10.8528 36.1023 10.9245 35.9239C10.9902 35.7737 11.0559 35.6236 11.1235 35.4689C11.2299 35.1793 11.3051 34.8955 11.3642 34.6066C11.4521 34.1769 11.8405 33.7881 12.1306 34.1172ZM-8.50804 35.1734C-7.32754 34.6649 -5.67267 34.7319 -5.57635 36.0136C-5.5639 36.1794 -5.57956 36.3799 -5.62163 36.5407C-5.82558 37.3205 -6.16769 37.9213 -6.75323 38.4614C-6.95145 38.6442 -7.17483 38.8069 -7.42973 38.8949C-7.44324 38.8996 -7.45644 38.9037 -7.46946 38.9075C-7.80957 39.0047 -8.1844 38.8931 -8.47746 38.6949C-8.85961 38.4366 -9.00654 37.9373 -9.09675 37.485C-9.15559 37.1898 -9.20198 36.8932 -9.24354 36.5881C-9.29121 36.25 -9.30513 36.1513 -9.37566 35.9238C-9.44018 35.7157 -9.33338 35.4925 -9.1279 35.4201C-8.91023 35.3391 -8.70457 35.258 -8.50804 35.1734ZM42.3651 34.384C42.5007 34.4172 42.6364 34.4503 42.7761 34.4844C43.2059 34.5897 43.6352 34.6968 44.0645 34.804C44.3572 34.876 44.65 34.948 44.9428 35.0198C44.9599 35.024 44.9769 35.0282 44.994 35.0324C46.187 35.3256 47.0641 36.5003 46.6459 37.6555C46.5951 37.7959 46.5443 37.9364 46.4919 38.0811C46.4367 38.2276 46.3815 38.3742 46.3246 38.5253C46.2665 38.6803 46.2084 38.8353 46.1485 38.995C45.3486 41.0787 44.3239 43.0274 43.198 44.9529C43.1296 45.0719 43.0613 45.1908 42.9909 45.3133C42.6674 45.851 42.4165 46.1629 41.9369 46.4246C41.7655 46.5181 41.5561 46.4888 41.4014 46.3697C39.8547 45.1802 38.3086 43.9951 36.6976 42.8926C36.1841 42.536 35.7384 42.1601 35.3061 41.74C35.0692 41.5097 35.0419 41.1417 35.2299 40.87C36.433 39.0914 37.3906 37.247 38.0842 35.2108C38.3181 34.724 38.4973 34.5998 38.9823 34.3724C38.9848 34.3711 38.9873 34.3698 38.9898 34.3686C39.2323 34.2483 39.4827 34.1396 39.7493 34.0933C40.6304 33.9401 41.4878 34.1627 42.3651 34.384ZM7.21683 34.0574C7.31004 34.0574 7.40064 34.0964 7.46323 34.1654C7.61851 34.3368 7.64863 34.3819 7.84467 34.6757C7.92606 34.7904 8.00745 34.9052 8.09131 35.0234C8.50913 35.7007 8.58311 36.4285 8.54173 37.1839C8.51961 37.5877 8.43401 37.9906 8.24089 38.3459C8.01819 38.7556 7.73329 39.0747 7.31501 39.3751C7.22636 39.4387 7.12049 39.4702 7.01136 39.4702C6.77508 39.4702 6.56322 39.3204 6.4859 39.0972C6.48092 39.0828 6.47592 39.0683 6.47091 39.0539C6.40642 38.8717 6.34193 38.6896 6.2755 38.5019C6.21246 38.3222 6.14941 38.1425 6.08447 37.9573C5.92789 37.5707 5.74886 37.2213 5.54395 36.8738C5.41552 36.656 5.46288 36.3824 5.67617 36.2466C5.69949 36.2318 5.73549 36.206 5.75555 36.1869C6.35326 35.6203 6.62099 35.0097 6.90765 34.2706C6.95742 34.1423 7.07921 34.0574 7.21683 34.0574ZM20.4632 36.0668C21.2657 36.9006 21.599 37.4694 21.605 38.5892C21.6055 38.6781 21.5718 38.8238 21.5435 38.9081C21.4112 39.3014 20.9596 39.3517 20.5995 39.1452C20.3745 39.0162 20.1557 38.8769 19.9297 38.7236C19.7543 38.6095 19.6326 38.5303 19.5213 38.4646C18.8938 38.0944 18.419 37.509 18.419 36.7804C18.419 35.7975 19.2713 35.0301 20.0196 35.6674C20.1656 35.7918 20.3113 35.9268 20.4632 36.0668ZM-32.4204 35.6621C-32.2076 35.8774 -31.9951 36.093 -31.7829 36.3088C-30.8815 37.2164 -29.9699 38.093 -28.9841 38.9102C-28.8718 39.0043 -28.7595 39.0984 -28.6438 39.1953C-28.1834 39.5794 -28.0186 40.2353 -28.3659 40.724C-28.5016 40.9151 -28.6514 41.0999 -28.8202 41.29C-28.9211 41.4045 -29.0221 41.519 -29.1261 41.637C-29.2656 41.7926 -29.4896 41.846 -29.6744 41.7485C-30.2486 41.4456 -30.7022 41.0192 -31.1857 40.5667C-31.334 40.4289 -31.334 40.4289 -31.4854 40.2884C-31.7768 40.0167 -32.0668 39.7435 -32.3567 39.4702C-32.5064 39.3311 -32.6562 39.192 -32.8105 39.0487C-33.3148 38.5671 -33.7226 38.1057 -34.0782 37.5774C-34.4286 37.0567 -34.3093 36.3695 -33.8673 35.9239C-33.7304 35.7853 -33.5934 35.6467 -33.4523 35.5039C-32.9123 34.9944 -32.997 35.1012 -32.4204 35.6621ZM-13.0344 36.6576C-11.6819 36.288 -9.84943 36.3066 -9.83784 37.7087C-9.83518 37.8552 -9.83253 38.0017 -9.82979 38.1527C-9.83284 38.3313 -9.83461 38.4351 -9.8659 38.5198C-9.97672 38.8197 -10.4236 38.7583 -10.6656 38.5493C-10.8484 38.3951 -11.0313 38.2409 -11.2197 38.082C-11.4001 37.9282 -11.5805 37.7745 -11.7664 37.6161C-12.1988 37.3085 -12.4888 37.1635 -12.9293 37.0861C-13.0762 37.0602 -13.1906 37.2044 -13.1423 37.3456C-12.8805 38.1186 -12.6335 38.8951 -12.3958 39.675C-12.2539 40.1406 -12.5983 40.6728 -13.0727 40.5632C-13.1111 40.5543 -13.1514 40.544 -13.195 40.532C-13.4482 40.4624 -13.6149 40.2219 -13.6071 39.9594C-13.5898 38.9584 -13.6073 38.0995 -13.889 37.1739C-13.9396 37.0077 -13.8369 36.8305 -13.6656 36.8017C-13.4438 36.7594 -13.2343 36.7122 -13.0344 36.6576ZM36.7608 35.5506C36.8673 35.5506 36.9485 35.6481 36.9276 35.7525C36.8846 35.9667 36.8414 36.1818 36.7973 36.4011C36.7877 36.4492 36.7461 36.4838 36.697 36.4838C36.6402 36.4838 36.5934 36.4377 36.5934 36.3808C36.5934 36.1619 36.5934 35.9426 36.5934 35.7193C36.5934 35.6261 36.6676 35.5506 36.7608 35.5506ZM-1.2215 35.9239C-1.12363 35.9239 -1.02798 35.9638 -0.961617 36.0357C-0.290634 36.7629 -0.0548172 37.3123 -0.0129242 38.3503C-0.0534744 39.2467 -0.195816 39.8439 -0.78653 40.5274C-1.35654 41.0344 -1.82529 41.2551 -2.48603 41.3173C-2.74557 41.3417 -2.96705 41.1443 -3.0027 40.8861C-3.14693 39.9259 -3.27795 39.0941 -3.71483 38.2626C-3.79549 38.1091 -3.73493 37.9154 -3.57577 37.8465C-2.64499 37.4184 -2.0334 36.992 -1.54531 36.1197C-1.47901 36.0012 -1.35729 35.9239 -1.2215 35.9239ZM34.478 36.1619C35.1983 36.0627 35.8928 36.531 35.8865 37.2581C35.8848 37.4464 35.8715 37.6369 35.856 37.8292C35.8481 37.9274 35.8294 38.0247 35.8002 38.1188C35.7238 38.366 35.6877 38.4736 35.6265 38.6041C35.5371 38.7946 35.3355 38.9051 35.1252 38.8971C34.0554 38.8741 33.0771 38.9856 32.0493 39.209C31.8767 39.2465 31.7087 39.125 31.6941 38.9489C31.6801 38.8014 31.6661 38.6539 31.6516 38.5019C31.6386 38.3569 31.6255 38.2118 31.6121 38.0623C31.4885 37.3317 31.8778 36.5596 32.6103 36.4478C32.7357 36.4287 32.8612 36.4096 32.9866 36.3905C33.1591 36.3638 33.3315 36.3371 33.5092 36.3096C33.6758 36.2843 33.8425 36.259 34.0142 36.233C34.1673 36.2095 34.3203 36.1861 34.478 36.1619ZM29.9798 36.8253C30.427 37.1719 30.7285 37.6875 30.7916 38.2498C30.8106 38.4197 30.8184 38.5974 30.8202 38.8052C30.8229 38.9474 30.8255 39.0896 30.8283 39.2361C30.8053 39.4596 30.7615 39.6453 30.6962 39.8227C30.5651 40.1792 30.1535 40.3261 29.7897 40.2168C28.9443 40.002 28.1118 39.9944 27.254 40.0177C27.0298 40.0237 26.841 39.8509 26.8292 39.6269C26.7109 37.91 27.4287 35.7208 29.0472 36.306C29.3721 36.4234 29.6848 36.5967 29.9798 36.8253ZM25.4335 37.487C25.8582 38.0303 26.08 38.4444 26.1003 39.1051C26.1039 39.2232 26.0832 39.3409 26.0435 39.4522C25.9852 39.6159 25.9218 39.773 25.8539 39.9283C25.6931 40.2956 25.2471 40.4315 24.8948 40.2401C24.2965 39.9394 23.7022 39.7526 23.0751 39.6122C22.6634 39.52 22.3637 39.1569 22.3771 38.7352C22.3815 37.3472 23.3637 35.9335 24.5219 36.6984C24.8365 36.9062 25.1371 37.1685 25.4335 37.487ZM15.6086 37.2304C16.23 37.8635 16.5973 38.395 16.8098 39.1621C16.8998 39.4869 16.9243 39.8278 16.8823 40.1621C16.8016 40.8038 16.5902 41.2573 16.0988 41.7781C16.0261 41.8551 15.9252 41.8966 15.8194 41.8966C15.6882 41.8966 15.5632 41.8326 15.4897 41.724C15.3824 41.5657 15.3461 41.4971 15.187 41.1967C14.8479 40.6279 14.5251 40.2848 14.0604 39.9686C13.783 39.7798 13.6663 39.4202 13.8169 39.1202C13.977 38.7539 14.0782 38.3858 14.1458 38.0121C14.2995 37.163 14.926 36.7025 15.6086 37.2304ZM-15.5048 36.6705C-15.3795 36.6705 -15.2581 36.7234 -15.1769 36.8188C-14.528 37.5824 -14.2976 38.1951 -14.3192 39.2602C-14.4259 40.0979 -14.7779 40.6963 -15.4434 41.2171C-15.6074 41.3123 -15.7665 41.3907 -15.9228 41.4541C-17.314 42.0182 -18.5074 40.6219 -18.48 39.1209C-18.4868 38.7826 -18.5098 38.4958 -18.5718 38.1979C-18.6167 37.9825 -18.4792 37.7638 -18.2612 37.7349C-17.251 37.5807 -16.5612 37.4571 -15.8119 36.7914C-15.7266 36.7157 -15.6189 36.6705 -15.5048 36.6705ZM3.80463 37.6037C4.00883 37.2985 4.43063 37.22 4.71826 37.4483C5.1577 37.7969 5.27467 37.9879 5.55462 38.6257C5.63727 38.8139 5.69097 39.0142 5.70841 39.2191C5.75471 39.763 5.75231 40.2382 5.62503 40.7306C5.50514 41.1944 5.2209 41.5987 4.86063 41.9145C4.57517 42.1647 4.27474 42.3752 3.91905 42.5789C3.84435 42.6217 3.75948 42.6432 3.67339 42.6432C3.64074 42.6432 3.60806 42.6432 3.5753 42.6432C3.38314 42.6432 3.21902 42.5045 3.18691 42.3151C2.99683 41.3259 2.74131 40.6721 2.14109 39.8736C2.1261 39.8536 2.11288 39.8326 2.10168 39.8103C2.00571 39.6191 2.07423 39.3858 2.2586 39.2773C2.32063 39.2408 2.3831 39.204 2.44624 39.1669C3.078 38.7498 3.41618 38.2532 3.80463 37.6037ZM10.6017 38.02C11.1638 38.5952 11.4245 39.2399 11.5268 39.9856C11.5658 40.2701 11.5612 40.5605 11.4997 40.841C11.3368 41.5845 10.9762 42.0597 10.339 42.6199C10.1888 42.7278 10.1057 42.7876 10.0251 42.8178C9.78412 42.9084 9.54488 42.6868 9.43433 42.4543C9.09625 41.7595 8.77102 41.117 8.32458 40.516C8.11327 40.2315 8.11554 39.8318 8.35992 39.5752C8.62235 39.2655 8.81411 38.9422 8.9671 38.6026C9.31834 37.8227 9.95751 37.4573 10.6017 38.02ZM-22.377 38.2436C-21.0105 38.0136 -19.3429 38.0876 -19.1054 39.4528C-19.0633 39.6946 -19.0677 39.9673 -19.1215 40.2067C-19.2723 40.8772 -19.5369 41.3272 -20.0284 41.7904C-20.2445 41.9942 -20.4923 42.1655 -20.7693 42.2727C-21.3127 42.483 -21.8294 42.5037 -22.4485 42.4673C-22.5581 42.4609 -22.666 42.4373 -22.7687 42.3983C-22.8796 42.3562 -22.9902 42.3133 -23.1004 42.2694C-23.3699 42.162 -23.5313 41.8871 -23.503 41.5984C-23.4135 40.598 -23.3368 39.6745 -23.4866 38.702C-23.5151 38.5171 -23.3803 38.3433 -23.1934 38.3357C-22.9009 38.3164 -22.6319 38.2865 -22.377 38.2436ZM-26.3991 38.2686C-25.6008 38.0656 -24.6838 38.2921 -24.398 39.0646C-24.3917 39.0816 -24.3856 39.0985 -24.3796 39.1154C-23.9993 40.1862 -25.29 40.809 -26.193 40.119C-26.6254 39.7885 -27.0453 39.4386 -27.4693 39.0816C-27.5885 38.9811 -27.624 38.8134 -27.554 38.674C-27.5107 38.5877 -27.4318 38.5227 -27.3385 38.4981C-27.0268 38.4158 -26.7144 38.3358 -26.3991 38.2686ZM-5.17325 38.1636C-5.06474 38.1636 -4.95953 38.2093 -4.88671 38.2897C-4.3355 38.8985 -3.99934 39.3349 -3.86189 40.1186C-3.82481 40.3299 -3.82335 40.5467 -3.85709 40.7586C-3.95361 41.3645 -4.17242 41.8411 -4.47413 42.3776C-4.56712 42.5429 -4.74123 42.6432 -4.93092 42.6432C-5.09263 42.6432 -5.24825 42.5702 -5.34743 42.4424C-5.59463 42.124 -5.81994 41.8072 -6.04371 41.465C-6.11846 41.3539 -6.19321 41.2429 -6.27023 41.1285C-6.47363 40.8257 -6.67449 40.5213 -6.87514 40.2168C-7.0754 39.9175 -6.97227 39.5107 -6.65363 39.343C-6.64551 39.3388 -6.63737 39.3345 -6.62922 39.3302C-6.12392 39.046 -5.81592 38.7705 -5.49407 38.3308C-5.41853 38.2276 -5.30113 38.1636 -5.17325 38.1636ZM20.2068 39.9641C20.3144 40.075 20.4129 40.201 20.4898 40.3351C20.8871 41.0269 20.9979 41.7384 20.9018 42.5239C20.8768 42.7279 20.8127 42.9253 20.7253 43.1113C20.5753 43.4302 20.506 43.5327 20.288 43.7615C20.1724 43.8829 20.0129 43.9497 19.8452 43.9497C19.6557 43.9497 19.4743 43.8635 19.3563 43.7152C19.2014 43.5205 19.0472 43.3253 18.8948 43.1288C18.4867 42.7058 17.9871 42.4588 17.46 42.2321C17.262 42.1469 17.1612 41.925 17.2304 41.7209C17.729 40.178 19.0776 38.8005 20.2068 39.9641ZM-10.6927 39.7151C-9.68681 40.7298 -8.7045 41.9129 -8.41649 43.3311C-8.38654 43.4786 -8.28071 43.5997 -8.13467 43.636C-7.88686 43.6978 -7.65039 43.4963 -7.6759 43.2422C-7.69769 43.0251 -7.72001 42.8082 -7.74295 42.5914C-7.82365 41.8287 -6.97603 41.4136 -6.52052 42.0306C-5.48731 43.4302 -4.71048 45.1215 -4.33627 46.7276C-4.28586 46.944 -4.43138 47.1543 -4.65018 47.1927C-5.18886 47.3094 -5.18886 47.3094 -5.71582 47.5193C-6.55936 47.75 -7.22442 47.6962 -7.9546 47.3951C-8.27953 47.2612 -8.57726 47.0643 -8.82188 46.812C-9.31025 46.3081 -9.52256 45.8088 -9.62704 45.0113C-9.63654 44.8997 -9.64603 44.7882 -9.65559 44.6758C-9.67256 44.4763 -9.83669 44.323 -10.0369 44.323C-10.2536 44.323 -10.4317 44.5019 -10.4169 44.7182C-10.3481 45.7172 -10.1022 46.521 -9.45498 47.3247C-9.36151 47.4407 -9.25535 47.5465 -9.13689 47.6369C-8.33595 48.2483 -7.40334 48.4655 -6.38877 48.4322C-6.3384 48.4305 -6.28817 48.4242 -6.23887 48.4137C-5.50632 48.2585 -4.9071 48.0685 -4.37226 47.611C-4.25727 47.5126 -4.06467 47.5873 -4.06467 47.7387C-4.06467 47.8144 -4.01303 47.8822 -3.93953 47.9005C-3.85375 47.9218 -3.7923 47.9371 -3.73553 47.9513C-3.50325 48.0091 -3.26804 47.868 -3.20977 47.6358C-3.08396 47.1345 -2.95766 46.6312 -2.82912 46.119C-2.79008 45.9635 -2.63573 45.8747 -2.49217 45.9462C-2.4313 45.9765 -2.36667 46.0393 -2.34687 46.1043C-1.69665 48.2409 -1.76994 50.7765 -2.55047 52.8681C-2.5605 52.895 -2.57628 52.9193 -2.5966 52.9395C-2.65508 52.9978 -2.71362 53.0561 -2.77263 53.1149C-2.83468 53.1767 -2.94048 53.1342 -2.94048 53.0466C-2.94048 52.9795 -3.00684 52.9308 -3.07053 52.952C-4.06532 53.2824 -4.08063 53.2886 -4.46209 53.4447C-5.21238 53.7361 -5.79754 53.8886 -6.51945 53.7454C-6.78628 53.6925 -7.04249 53.5876 -7.26273 53.4279C-7.75598 53.0704 -8.06322 52.5845 -8.33254 52.0245C-8.39262 51.8995 -8.43736 51.7677 -8.46577 51.632C-8.51861 51.3796 -8.56136 51.1271 -8.59705 50.8741C-8.71065 50.0683 -9.45661 49.4579 -10.2126 49.7591C-10.7562 49.9078 -11.208 49.9478 -11.6972 49.8757C-12.1097 49.815 -12.5014 49.6419 -12.8248 49.3788C-13.4063 48.9059 -13.6533 48.3833 -13.9115 47.5303C-13.92 47.4943 -13.9278 47.4611 -13.935 47.4302C-14.0884 46.771 -13.7159 46.1054 -13.1284 45.7695C-12.183 45.1394 -11.2974 44.4998 -10.9714 43.4023C-10.9238 43.242 -10.9051 43.0747 -10.9045 42.9075C-10.9013 41.9824 -11.0838 41.065 -11.299 40.1603C-11.428 39.6178 -11.095 39.3291 -10.6927 39.7151ZM34.2463 39.6049C34.7438 39.6367 34.6946 40.3115 34.3932 40.7086C33.4433 41.9601 33.2558 42.1817 31.9508 43.7143C31.925 43.7446 31.8869 43.7631 31.8471 43.7631C31.7766 43.7631 31.7173 43.7091 31.7114 43.6388C31.7057 43.5716 31.6999 43.5039 31.6941 43.435C31.5479 41.9138 31.8737 40.1228 33.353 39.7393C33.5749 39.6818 33.8057 39.6383 34.047 39.6086C34.1049 39.6014 34.188 39.6012 34.2463 39.6049ZM1.72875 40.5704C1.86953 40.716 1.98951 40.8617 2.07601 41.0449C2.30157 41.5224 2.37977 42.0364 2.37426 42.5605C2.36846 43.1118 2.19803 43.6545 1.87704 44.1028C1.60215 44.4866 1.28043 44.8101 0.872734 45.0926C0.709671 45.2057 0.516472 45.2663 0.318756 45.2827C0.0297623 45.3067 -0.0993729 45.3095 -0.327141 45.2912C-0.54229 45.2739 -0.714996 45.1072 -0.747742 44.8939C-0.91745 43.916 -1.15382 43.1776 -1.6385 42.367C-1.73083 42.2125 -1.67992 42.0101 -1.52135 41.925C-0.965332 41.6066 -0.555824 41.2923 -0.194199 40.9097C0.381226 40.301 1.14655 39.9681 1.72875 40.5704ZM24.48 41.0339C24.7866 41.2479 25.0598 41.5113 25.2591 41.8276C25.4824 42.1819 25.6198 42.5321 25.685 42.9543C25.7293 43.2406 25.6892 43.5336 25.5862 43.8044C25.381 44.3438 25.1171 44.7633 24.7067 45.1733C24.5417 45.3382 24.2813 45.3471 24.0919 45.211C23.3212 44.6753 22.6614 44.2841 21.8044 44.0446C21.5939 43.9858 21.4592 43.7743 21.5105 43.5618C21.6159 42.9485 21.6155 42.3784 21.6042 41.7566C21.603 41.6904 21.602 41.6242 21.6011 41.5579C21.593 40.9318 21.857 40.3264 22.4825 40.3567C23.3055 40.3699 23.8751 40.612 24.48 41.0339ZM14.1814 41.2054C14.8061 41.8608 15.074 42.4984 15.1285 43.3898C15.0905 44.3305 14.6393 44.9251 13.9785 45.5538C13.9336 45.5965 13.8666 45.6419 13.8122 45.6716C13.6329 45.7696 13.4333 45.7877 13.2508 45.696C12.82 45.4793 12.7354 45.1913 12.4578 44.6693C12.1639 44.2103 11.7957 43.9044 11.3797 43.5902C11.231 43.4778 11.1967 43.2684 11.3036 43.1156C11.4915 42.8343 11.6512 42.5665 11.7884 42.2988C12.3199 41.2615 13.3214 40.4186 14.1814 41.2054ZM-27.3127 40.9693C-27.0913 40.7504 -26.7405 40.7337 -26.4957 40.9262C-25.1823 41.9496 -23.8446 42.9153 -22.4487 43.8249C-21.9431 44.1448 -21.7777 44.2494 -21.6033 44.518C-21.3902 44.846 -21.4248 45.2995 -21.6398 45.6263C-21.8817 45.994 -22.3278 46.1374 -22.7511 46.0171C-24.7198 45.4578 -26.5748 44.3126 -28.155 43.0239C-28.4191 42.8086 -28.4749 42.4298 -28.2932 42.1416C-28.2345 42.0485 -28.1758 41.9553 -28.1154 41.8594C-27.8708 41.5376 -27.597 41.2504 -27.3127 40.9693ZM30.2035 41.5374C30.4363 41.7438 30.6346 41.9943 30.7385 42.2875C30.9054 42.7586 30.8939 43.2446 30.8349 43.7564C30.8057 44.0095 30.7414 44.2721 30.6323 44.5024C30.3175 45.1668 29.6217 45.6901 28.9331 45.4324C28.7765 45.3738 28.6072 45.297 28.4006 45.2132C27.8988 45.0441 27.3909 44.9718 26.873 44.9263C26.5453 44.8975 26.2912 44.6256 26.2949 44.2968C26.2967 44.0411 26.2984 43.7854 26.3 43.5298C26.3016 43.4025 26.3032 43.2752 26.3048 43.1441C26.3099 42.0947 26.7877 40.8955 27.8296 40.7706C28.6675 40.6702 29.46 40.8779 30.2035 41.5374ZM7.76363 41.1982C7.87674 41.2945 7.97337 41.3955 8.05925 41.5168C8.63904 42.3353 8.79528 43.0115 8.74855 44.0678C8.61026 44.9111 8.20445 45.4037 7.56095 45.9015C7.4931 45.9539 7.41993 45.9999 7.34379 46.0394C7.03866 46.1976 6.93977 46.2287 6.58819 46.2119C6.3792 46.202 6.20178 46.0559 6.14375 45.8548C5.86043 44.9346 5.52222 44.2825 4.94101 43.6152C4.75794 43.405 4.80927 43.0731 5.05762 42.9465C5.52069 42.6463 5.8259 42.2407 6.07072 41.7884C6.45118 41.0855 7.15505 40.68 7.76363 41.1982ZM-12.1993 41.4248C-12.0482 41.3746 -11.8769 41.4409 -11.8242 41.5912C-11.723 41.8791 -11.7289 42.109 -11.7349 42.4799C-11.7385 42.7015 -12.0093 42.7754 -12.1044 42.5752C-12.2189 42.334 -12.3108 42.09 -12.3997 41.8232C-12.455 41.6573 -12.3652 41.4799 -12.1993 41.4248ZM-14.1882 41.3366C-14.0654 41.3366 -13.9454 41.385 -13.8605 41.4738C-13.1865 42.1794 -12.9021 42.7694 -12.7239 43.7177C-12.695 43.8715 -12.6814 44.0604 -12.6971 44.2161C-12.7331 44.5734 -13.0136 44.8169 -13.3095 45.0204C-14.1461 45.5956 -15.1005 46.0247 -16.0661 46.3229C-16.1825 46.3588 -16.306 46.3657 -16.4259 46.3442C-16.4614 46.3378 -16.4928 46.332 -16.5213 46.3264C-16.8081 46.2702 -16.9875 45.9903 -16.9796 45.6981C-16.9762 45.483 -16.9729 45.2679 -16.9694 45.0463C-16.965 44.8341 -16.9607 44.6218 -16.9562 44.4032C-16.9849 43.9014 -17.0743 43.4872 -17.2213 43.0463C-17.2929 42.8317 -17.1701 42.5977 -16.9496 42.5469C-15.9749 42.3058 -15.2519 42.1024 -14.5059 41.4589C-14.4169 41.3821 -14.3058 41.3366 -14.1882 41.3366ZM34.1666 42.6339C34.3757 42.4257 34.7069 42.4054 34.94 42.5863C36.6573 43.9114 38.4025 45.1968 40.1548 46.4756C40.8134 46.9588 41.0466 47.8472 40.5987 48.5303C39.2388 50.6039 37.0085 52.4433 35.1764 53.8887C35.0694 53.9734 34.9623 54.0581 34.8521 54.1453C33.8694 54.8973 32.5471 54.4515 31.8476 53.4309C31.2137 52.506 30.5846 51.578 29.9587 50.6478C29.0181 49.2498 29.1981 47.3806 30.4455 46.2478C31.5258 45.261 32.5672 44.2438 33.5955 43.2031C33.7858 43.0133 33.9761 42.8236 34.1666 42.6339ZM-19.8849 42.6488C-19.2818 42.4189 -18.5679 42.6005 -18.2341 43.1528C-18.1886 43.2281 -18.1462 43.3027 -18.1068 43.3774C-17.5568 44.4194 -18.8025 45.2028 -19.8115 44.5943C-19.9216 44.5279 -20.0319 44.4607 -20.1429 44.393C-20.3376 44.2753 -20.3376 44.2753 -20.5363 44.1553C-21.022 43.8617 -21.0844 43.1976 -20.5761 42.945C-20.3534 42.8344 -20.1206 42.7386 -19.8849 42.6488ZM-2.24406 42.9686C-2.20912 43.0009 -2.17593 43.0353 -2.14718 43.0732C-1.89465 43.4061 -1.75333 43.7031 -1.6797 44.0166C-1.58797 44.4072 -2.07666 44.5444 -2.25989 44.1874C-2.33295 44.0451 -2.47795 43.9497 -2.63792 43.9497C-2.81743 43.9497 -2.97888 44.0645 -3.03584 44.2347C-3.06187 44.3125 -3.08791 44.3903 -3.11398 44.4682C-3.29281 45.0026 -4.01157 45.1788 -4.2477 44.667C-4.29903 44.5558 -4.34573 44.4332 -4.39168 44.2913C-4.42473 44.1893 -4.44028 44.0813 -4.42612 43.975C-4.38344 43.6548 -4.24781 43.3806 -4.06792 43.1278C-3.64607 42.535 -2.88816 42.3475 -2.36518 42.8534C-2.32352 42.8937 -2.28312 42.9326 -2.24406 42.9686ZM17.0724 43.0398C17.8504 43.3501 18.3491 43.7761 18.8093 44.3808C19.0447 44.69 19.2352 45.0396 19.3009 45.4226C19.3608 45.7714 19.3315 46.0738 19.241 46.4628C19.1966 46.6541 19.1251 46.8389 19.0257 47.0084C18.7004 47.5633 18.3622 47.8952 17.8417 48.1759C17.5355 48.3409 17.1611 48.2122 16.9787 47.916C16.4725 47.2074 15.9401 46.7639 15.2272 46.3771C15.0298 46.2701 14.9496 46.0241 15.0575 45.8271C15.368 45.2392 15.601 44.7249 15.7617 44.1689C15.9677 43.4563 16.3898 42.7496 17.0724 43.0398ZM4.20937 44.2028C4.32275 44.2924 4.41577 44.3771 4.50912 44.4874C5.17318 45.2723 5.36919 45.7951 5.35697 46.8763C5.26917 47.5879 4.902 48.0556 4.44301 48.5418C4.30068 48.6925 4.13471 48.822 3.94179 48.8979C3.52883 49.0605 3.12337 49.1086 2.67792 49.1458C2.46344 49.1638 2.26758 49.0224 2.21569 48.8135C1.94208 47.8031 1.6114 47.0671 1.01418 46.2692C0.910172 46.1303 0.95327 45.9292 1.10834 45.8512C1.7372 45.5037 2.13487 45.1777 2.44891 44.7424C2.91502 44.0964 3.58436 43.7089 4.20937 44.2028ZM11.2728 44.5437C11.4083 44.6376 11.5426 44.758 11.6453 44.887C12.0595 45.407 12.3029 45.9102 12.4076 46.5424C12.449 46.7922 12.4507 47.0483 12.4029 47.2969C12.3142 47.7589 12.129 48.1601 11.8586 48.5522C11.7412 48.7224 11.5945 48.8707 11.4268 48.9916C11.0457 49.2664 10.6729 49.4503 10.2178 49.5191C9.9657 49.5571 9.73296 49.3996 9.62828 49.1671C9.2024 48.2638 8.86849 47.6305 8.08312 47.0475C7.98665 46.9758 7.92664 46.8656 7.92664 46.7455C7.92664 46.6313 7.98024 46.5224 8.0714 46.4537C8.16651 46.382 8.26226 46.3098 8.35992 46.2361C8.59269 46.042 8.78538 45.8357 8.94578 45.6149C9.56286 44.7652 10.4097 43.9456 11.2728 44.5437ZM64.284 44.2777C64.5064 44.3812 64.5359 44.6712 64.362 44.8443C64.3444 44.8619 64.3277 44.8819 64.3139 44.9027C63.8809 45.5552 63.846 45.9932 63.8124 46.7698C63.7803 46.9909 63.6462 47.1968 63.4302 47.2538C63.1822 47.3194 62.9893 47.2806 62.6341 47.2306C59.8077 46.8823 57.0258 47.1584 54.2354 47.6152C54.0172 47.651 53.8762 47.8631 53.93 48.0775C53.9791 48.2731 54.1733 48.399 54.3713 48.3603C54.4618 48.3426 54.5531 48.3248 54.6455 48.3068C58.1551 47.664 62.31 47.3057 65.7144 48.6783C65.8573 48.736 65.8922 48.9202 65.7834 49.0293C64.5734 50.3226 64.2474 51.5569 64.3035 53.3062C64.3142 53.4958 64.1634 53.6554 63.9735 53.6554C63.9604 53.6554 63.9473 53.6554 63.9342 53.6554C63.8246 53.6554 63.7204 53.6067 63.6512 53.5218C63.4829 53.3155 63.4507 53.2588 63.2459 52.8971C62.1217 51.1399 60.5951 49.8205 58.5457 49.2706C56.605 48.9604 54.1662 48.8182 52.4215 49.8672C52.3632 49.9022 52.3118 49.9828 52.2902 50.0474C52.2199 50.2575 52.4052 50.4417 52.6233 50.4027C53.2614 50.2886 53.8882 50.1465 54.5218 49.9924C56.6043 49.5527 58.3384 49.7939 60.2013 50.8557C61.2382 51.6372 62.0696 52.3744 62.6535 53.4888C62.7498 53.6726 62.6467 53.8936 62.4474 53.9514C61.3539 54.2726 60.9881 54.3801 60.6328 54.5166C60.2505 54.6635 59.8178 54.6027 59.5104 54.332C58.8476 53.79 58.2018 53.4809 57.4255 53.3749C56.9595 53.3112 56.4676 53.3721 56.0862 53.6474C55.6426 53.9678 55.3222 54.4331 54.9631 54.8905C54.2862 55.677 53.5932 55.7726 52.6634 55.863C52.4678 55.8821 52.3092 56.0295 52.2763 56.2233C52.1245 57.0133 51.9423 57.71 51.5073 58.3045C51.1451 58.7995 50.5428 59.1119 49.9362 59.0209C49.8661 59.0104 49.7952 58.9969 49.722 58.9808C49.4625 58.9237 49.1508 58.7752 48.9246 58.6357C48.2622 58.2274 47.9297 57.5151 47.9672 56.7378C47.9877 56.3138 48.0662 55.9048 48.2452 55.481C48.3168 55.3116 48.4204 55.1576 48.54 55.0178C48.7506 54.7716 48.8397 54.7033 49.1792 54.4961C49.2783 54.4355 49.366 54.2819 49.3949 54.1694C49.4804 53.8365 49.1246 53.6298 48.8102 53.7687C48.4346 53.9346 48.0697 54.1131 47.7064 54.332C46.5138 55.0384 44.9733 54.9198 43.6591 54.6477C42.5356 54.3258 41.4777 53.9032 40.5002 53.3321C39.3944 52.686 39.3086 51.2003 40.1694 50.252C40.9349 49.4332 41.6098 48.5787 42.2495 47.686C42.8097 46.9044 43.8013 46.4622 44.6098 46.9827C44.7401 47.0655 44.8704 47.1483 45.0046 47.2335C45.1388 47.3202 45.273 47.4068 45.4112 47.496C45.6785 47.6676 45.9461 47.8388 46.2141 48.0093C46.332 48.0853 46.4498 48.1614 46.5713 48.2397C47.8058 48.9551 49.4527 48.7479 50.7979 48.4664C53.1077 47.8298 55.2592 46.7195 57.3776 45.6237C59.2163 44.6738 62.1869 43.3012 64.284 44.2777ZM23.6418 46.0145C24.1334 46.6915 24.2563 47.068 24.2124 47.7509C24.1949 48.0216 24.1438 48.2914 24.0324 48.5386C23.7683 49.1247 23.329 49.5862 22.8338 50.0182C22.7646 50.0786 22.6848 50.1236 22.5976 50.1525C22.3351 50.2397 22.0447 50.1677 21.8543 49.9672C21.8219 49.933 21.7893 49.8987 21.7565 49.8641C21.1229 49.261 20.5223 48.9088 19.7741 48.6308C19.4786 48.521 19.3522 48.1636 19.5315 47.9043C19.9888 47.1232 20.0298 46.3811 20.0724 45.491C20.0576 45.0404 20.5347 44.8549 20.9855 44.8611C22.0149 44.8751 22.8891 45.1357 23.6418 46.0145ZM66.2752 45.0703C66.8163 45.3737 67.3524 45.682 67.8832 46.0028C68.0247 46.0883 68.1663 46.1737 68.3121 46.2617C69.2966 46.9224 69.9822 47.7812 70.4521 48.8614C70.4878 48.9435 70.4907 49.0359 70.4623 49.1208C70.4599 49.1278 70.4575 49.1349 70.4552 49.142C70.3846 49.3529 70.139 49.4469 69.9457 49.337C68.7248 48.6827 67.4867 48.2523 66.1944 47.8891C65.2841 47.6332 64.3676 46.9684 64.6575 46.0683C64.7475 45.7887 64.928 45.4369 65.1373 45.2308C65.4542 44.9187 65.7156 44.8389 66.2752 45.0703ZM-19.1943 45.8745C-18.9958 46.0005 -18.9958 46.0005 -18.7933 46.129C-18.7225 46.187 -18.6516 46.2451 -18.5797 46.304C-18.524 46.3497 -18.4917 46.4169 -18.4917 46.4889C-18.4917 46.6289 -18.6116 46.7402 -18.7512 46.7295C-19.4874 46.6731 -19.7076 46.6563 -20.2918 46.6115C-20.6294 46.5856 -20.8694 46.2736 -20.8027 45.9416C-20.7642 45.7498 -20.6299 45.5815 -20.4397 45.5358C-19.9665 45.4219 -19.6902 45.5498 -19.1943 45.8745ZM26.5268 45.7663C27.8898 45.6104 28.0933 47.2058 26.9304 47.9336C26.8343 47.9937 26.7374 48.0537 26.6396 48.1143C26.5032 48.2015 26.3667 48.2887 26.2261 48.3786C26.0955 48.46 25.9648 48.5415 25.8302 48.6254C25.7113 48.6998 25.5924 48.7742 25.47 48.8509C25.3817 48.8908 25.3449 48.9075 25.2989 48.9283C25.2136 48.9668 25.1167 48.9656 25.0329 48.9239C24.894 48.8546 24.8261 48.693 24.8753 48.5458C24.9001 48.4718 24.925 48.3974 24.9501 48.3223C24.9678 48.2694 24.9779 48.2143 24.9797 48.1586C24.9901 47.8329 24.9923 47.5069 24.9885 47.1811C24.9868 46.9955 24.9851 46.81 24.9834 46.6189C24.9794 46.3595 25.1326 46.1208 25.3778 46.0358C25.7523 45.906 26.1397 45.8106 26.5268 45.7663ZM0.373497 46.9276C0.536682 47.0576 0.68988 47.2014 0.812691 47.37C1.1213 47.7938 1.31728 48.2253 1.40891 48.7288C1.46395 49.0312 1.45251 49.3433 1.38181 49.6425C1.19212 50.4451 0.790695 50.9073 0.0573425 51.4856C-0.60762 51.912 -1.26254 51.1849 -1.26961 50.395C-1.27258 50.0625 -1.27518 49.73 -1.27763 49.3975C-1.28077 49.1707 -1.28391 48.944 -1.28715 48.7103C-1.28896 48.3846 -1.28896 48.3846 -1.2908 48.0523C-1.29375 47.7518 -1.29375 47.7518 -1.29675 47.4451C-1.29063 46.6933 -0.391579 46.3437 0.207481 46.7979C0.262337 46.8395 0.317421 46.8829 0.373497 46.9276ZM15.4779 47.4688C15.6776 47.5931 15.8779 47.7691 16.0235 47.9538C16.2505 48.2419 16.4302 48.5316 16.5684 48.8476C16.8177 49.4177 16.8188 50.0779 16.5686 50.6476C16.3465 51.153 16.0187 51.5531 15.5379 51.9513C15.4611 52.0149 15.3773 52.0699 15.2887 52.1155C15.0085 52.2596 14.7682 52.3583 14.493 52.4388C14.2668 52.5051 14.029 52.3978 13.9099 52.1943C13.3111 51.2288 12.8314 50.6781 11.8558 50.1956C11.7459 50.1413 11.6739 50.0319 11.6739 49.9093C11.6739 49.8021 11.7287 49.7009 11.8191 49.6434C11.8901 49.5982 11.9334 49.5706 12.0355 49.5057C12.0753 49.4803 12.1132 49.4514 12.1471 49.4185C12.2837 49.2861 12.4015 49.1485 12.5049 49.0058C13.297 47.9132 14.332 46.7559 15.4779 47.4688ZM7.92664 48.056C8.31808 48.4459 8.58788 48.7522 8.79264 49.1516C9.00905 49.5737 9.07866 50.0623 8.99967 50.53C8.94678 50.8432 8.84935 51.1168 8.6913 51.4256C8.56544 51.6714 8.39394 51.8927 8.18224 52.0702C7.59668 52.561 7.00855 52.7853 6.24734 52.8753C6.02253 52.9018 5.81472 52.7605 5.74121 52.5464C5.39741 51.6123 5.01688 50.9227 4.43005 50.2223C4.22513 49.9776 4.29814 49.5983 4.58922 49.4675C4.86611 49.3133 5.09048 49.1322 5.28075 48.9289C6.06889 48.0868 7.00706 47.3598 7.92664 48.056ZM26.9431 48.9416C27.3184 48.7551 27.7739 48.8773 28.0061 49.2262C28.1947 49.5088 28.3832 49.7915 28.5718 50.0741C28.671 50.2232 28.7702 50.3722 28.8724 50.5258C29.4208 51.3471 29.9765 52.162 30.5465 52.9686C30.6587 53.1284 30.771 53.2882 30.8867 53.4528C31.1056 53.7636 31.3261 54.0733 31.5482 54.3818C31.6473 54.523 31.7464 54.6641 31.8485 54.8095C31.9372 54.9338 32.0259 55.0581 32.1174 55.1861C32.1312 55.208 32.1442 55.2286 32.1564 55.2481C32.4707 55.7513 31.8629 56.2885 31.3428 56.574C31.184 56.6656 31.0253 56.7573 30.8617 56.8518C30.6896 56.948 30.5174 57.0442 30.3401 57.1434C30.1642 57.2426 29.9883 57.3418 29.8071 57.4441C28.1266 58.3737 26.3943 59.1282 24.6021 59.8148C24.3969 59.8959 24.3969 59.8959 24.1875 59.9787C23.2417 60.3465 22.3338 59.7163 22.0301 58.748C21.8533 58.1842 21.6767 57.6202 21.5004 57.0562C21.3825 56.6797 21.2644 56.3033 21.146 55.927C20.9759 55.3866 20.8069 54.8458 20.6381 54.305C20.5849 54.1364 20.5316 53.9679 20.4767 53.7942C20.4279 53.6373 20.3792 53.4804 20.3289 53.3187C20.264 53.1117 20.264 53.1117 20.1978 52.9005C20.1515 52.7428 20.1237 52.6485 20.1086 52.5576C20.0509 52.2103 20.3233 51.8993 20.6557 51.7831C22.4193 51.1528 24.0836 50.4081 25.7445 49.546C26.1424 49.3412 26.5424 49.1408 26.9431 48.9416ZM65.5463 50.6092C66.3273 49.6837 67.7467 49.9541 68.3466 51.0061C68.8916 51.9618 69.2106 53.0108 69.1816 54.192C69.1236 54.8924 69.0424 55.5658 68.8751 56.2434C68.8441 56.3688 68.7319 56.4551 68.6027 56.4551C68.5054 56.4551 68.4132 56.406 68.3615 56.3236C68.2276 56.1104 68.1004 55.8929 67.9769 55.6735C67.5129 54.9413 67.132 54.6214 66.3374 54.2737C66.2821 54.25 66.2308 54.2282 66.1833 54.2077C65.3422 53.8455 64.9979 52.8434 65.084 51.9316C65.1264 51.4829 65.2542 51.0513 65.5463 50.6092ZM20.5802 49.8648C20.6385 49.9022 20.6893 49.95 20.732 50.0046C20.9967 50.3427 20.8631 50.8343 20.47 51.0072C19.1879 51.5712 18.8729 51.6465 17.2705 51.9167C17.1133 51.9432 16.9841 51.7916 17.0365 51.6409C17.484 50.3335 18.7224 49.0635 20.008 49.5703C20.1976 49.645 20.3875 49.7414 20.5802 49.8648ZM3.87393 50.9604C3.95266 51.0146 4.02617 51.0764 4.09143 51.1463C4.12734 51.1847 4.16164 51.2225 4.19443 51.2597C4.80733 51.9567 4.02623 52.8305 3.10201 52.7455C2.92956 52.7308 2.75711 52.7161 2.57944 52.701C2.41278 52.6854 2.24613 52.6697 2.07443 52.6536C1.92136 52.6399 1.7683 52.6263 1.6106 52.6122C1.31561 52.5595 1.0724 52.4788 0.828278 52.3668C0.658432 52.2889 0.66626 52.052 0.835342 51.9725C0.847298 51.9669 0.859261 51.96 0.870033 51.9523C0.961937 51.8871 1.04523 51.8221 1.12154 51.7565C1.9509 51.0432 2.86002 50.2773 3.76759 50.8879C3.80281 50.9116 3.83823 50.9358 3.87393 50.9604ZM12.2638 51.4054C12.8584 51.983 12.3893 52.852 11.5616 52.8959C11.1087 52.9199 10.6535 52.9257 10.1867 52.9205C10.0407 52.9196 9.89471 52.9188 9.74429 52.9179C9.50639 52.9165 9.26848 52.9145 9.03058 52.9123C8.87864 52.9108 8.78942 52.7409 8.87444 52.615C9.60913 51.4933 10.9384 50.3948 12.0119 51.1982C12.0984 51.2629 12.1824 51.332 12.2638 51.4054ZM15.0903 53.1617C17.4186 52.8122 19.7637 54.0543 20.4724 56.2995C21.2391 58.7284 19.7713 61.3058 17.2761 61.8166C16.5294 61.9695 15.7791 62.1058 15.0231 62.2179C14.8737 62.2402 14.7244 62.2625 14.5706 62.2855C13.1368 62.4842 11.9267 61.3533 11.8024 59.9112C11.6886 58.5909 11.6004 57.2694 11.5451 55.9418C11.5361 55.7364 11.527 55.5309 11.5177 55.3192C11.5106 55.1291 11.5034 54.9391 11.4961 54.7432C11.4864 54.4889 11.4864 54.4889 11.4765 54.2294C11.4379 53.7993 11.8964 53.6127 12.3235 53.5491C12.4533 53.5297 12.5832 53.5113 12.7132 53.4935C12.9299 53.463 13.1465 53.4324 13.3697 53.4009C13.823 53.3385 14.2763 53.2763 14.7296 53.2143C14.85 53.1973 14.9703 53.1797 15.0903 53.1617ZM0.361809 53.1888C0.512032 53.2155 0.662262 53.2422 0.817047 53.2697C1.45676 53.3835 1.91727 53.9505 1.87782 54.599C1.81856 55.5733 1.72652 56.5447 1.61618 57.5143C1.31982 60.1185 -1.1364 61.9596 -3.70455 61.4361C-4.34589 61.3053 -4.98523 61.1629 -5.62213 61.0047C-5.77846 60.9662 -5.93479 60.9278 -6.09586 60.8882C-7.14846 60.6175 -7.50163 59.4132 -6.54726 58.8932C-4.73328 57.8462 -3.51459 56.4162 -2.53706 54.7051C-1.92886 53.6405 -0.845001 52.9721 0.361809 53.1888ZM7.6573 53.7487C7.93847 53.7577 8.21964 53.7667 8.50081 53.7757C9.66862 53.813 10.6225 54.7206 10.7173 55.8852C10.7416 56.1835 10.7658 56.4818 10.7899 56.7801C10.8169 57.1126 10.8442 57.4451 10.8717 57.7776C10.9114 58.2581 10.9502 58.7386 10.9889 59.2191C11.0012 59.3656 11.0135 59.5121 11.0261 59.663C11.0387 59.8217 11.0498 59.9802 11.0594 60.1385C11.1427 61.5127 10.0116 62.6276 8.63483 62.635C8.35543 62.6368 8.07603 62.6394 7.79664 62.6426C7.35603 62.6477 6.91903 62.6452 6.48428 62.6351C3.89594 62.5748 2.04445 60.2587 2.35322 57.6881C2.40162 57.2851 2.45231 56.882 2.50478 56.4784C2.5401 56.2026 2.57536 55.9268 2.61055 55.6509C2.75673 54.5068 3.72652 53.6461 4.87973 53.6688C5.8056 53.687 6.73117 53.7184 7.6573 53.7487ZM61.816 54.9928C62.5145 54.7721 63.269 55.2231 63.2359 55.9549C63.2342 55.9916 63.2321 56.0288 63.2297 56.0665C63.2133 56.3233 63.1419 56.5752 63.0062 56.7938C62.5749 57.4881 62.0405 57.9671 61.3654 58.4781C61.3396 58.4976 61.3084 58.5082 61.276 58.5082C61.1983 58.5082 61.1332 58.4487 61.1268 58.3712C61.1192 58.2792 61.1115 58.1865 61.1037 58.0919C61.088 57.9098 61.0723 57.7277 61.0561 57.54C61.0409 57.3603 61.0257 57.1805 61.01 56.9954C60.9987 56.8921 60.9861 56.7896 60.9723 56.6876C60.8762 55.9771 61.1323 55.2087 61.816 54.9928ZM-22.6278 58.8815C-22.3808 58.8815 -22.1395 58.9785 -21.9737 59.1615C-20.4747 60.8161 -19.3556 63.3097 -19.2456 65.4984C-19.2422 65.5667 -19.2464 65.6352 -19.2567 65.7028C-19.3069 66.0323 -19.3216 66.1159 -19.3777 66.3372C-19.4071 66.4533 -19.5107 66.5341 -19.6304 66.5341C-19.7346 66.5341 -19.8304 66.4725 -19.8724 66.3772C-19.9461 66.2097 -20.0202 66.0414 -20.096 65.8692C-20.7079 64.665 -21.4753 63.8471 -22.7543 63.3727C-23.0109 63.2702 -23.2054 63.1906 -23.3781 63.0732C-23.6986 62.8552 -23.879 62.4869 -23.983 62.1135C-24.1516 61.5079 -24.1689 60.9017 -24.0086 60.2797C-23.9604 60.0926 -23.8799 59.9151 -23.7727 59.7543C-23.6153 59.5181 -23.4535 59.3323 -23.2517 59.1322C-23.0858 58.9678 -22.8614 58.8815 -22.6278 58.8815ZM49.9767 59.8899C50.1709 59.9588 50.3427 60.083 50.4677 60.2468C50.5675 60.3776 50.6184 60.4659 50.7745 60.7363C50.8564 60.8689 50.9383 61.0015 51.0226 61.1381C51.2466 61.4992 50.8439 61.8585 50.4521 61.6939C50.1208 61.5548 49.8745 61.3279 49.5566 60.9463C49.3867 60.7475 49.3867 60.7475 49.2134 60.5446C48.9063 60.1906 49.3163 59.721 49.7726 59.8278C49.8352 59.8425 49.9002 59.8627 49.9767 59.8899ZM-27.1566 64.0915C-26.7592 64.2072 -26.5967 64.6281 -26.3915 64.9875C-26.3814 65.0053 -26.3712 65.0231 -26.361 65.0409C-26.2912 65.1619 -26.2214 65.283 -26.1495 65.4076C-25.3149 67.1024 -25.3008 69.3358 -25.8926 71.1186C-26.0059 71.3772 -26.3635 71.3875 -26.48 71.1304C-26.6552 70.7439 -26.8128 70.3514 -26.97 69.9521C-27.4435 68.8105 -28.0013 67.6691 -28.9124 66.8075C-28.9697 66.747 -29.0196 66.687 -29.0632 66.627C-29.6208 65.8583 -29.1846 64.6905 -28.3214 64.2945C-27.983 64.1392 -27.5141 63.9874 -27.1566 64.0915Z" fill="url(#paint0_linear_2291_3264)"/>
<defs>
<linearGradient id="paint0_linear_2291_3264" x1="18" y1="0" x2="18" y2="74" gradientUnits="userSpaceOnUse">
<stop stop-color="white"/>
<stop offset="1" stop-color="#606060"/>
</linearGradient>
</defs>
</svg>
