<svg width="151" height="154" viewBox="0 0 151 154" fill="none" xmlns="http://www.w3.org/2000/svg">
<path d="M25.5744 84.1777L22.5988 67.0869C11.6539 69.2073 4.45654 76.6589 2.47748 82.6369C1.26929 86.2785 2.00363 89.3751 5.00693 90.3867C6.39308 90.8533 7.93994 90.723 9.26139 90.1036C12.1341 88.7518 15.0969 87.5597 18.1276 86.4971C20.5658 85.6432 23.0492 84.8747 25.5744 84.1777Z" fill="white"/>
<path d="M25.5744 84.1777L22.5989 67.0869C11.654 69.2073 4.4566 76.6589 2.47754 82.6369C2.51695 83.4483 2.57742 84.2617 2.63774 85.0694C4.0302 80.3377 7.63622 76.2066 12.3103 73.9861C13.9942 73.1866 15.9752 72.6261 17.7415 73.2271C19.8514 73.9441 21.0044 76.1188 21.3377 78.2042C21.5841 79.7333 21.4939 81.3317 20.909 82.7833C20.324 84.2349 19.2169 85.5267 17.7428 86.2364L18.1277 86.4971C20.5659 85.6432 23.0493 84.8747 25.5744 84.1777Z" fill="#B6CDD8"/>
<path d="M6.74786 91.4463C6.06793 91.4463 5.39396 91.3403 4.75772 91.126C2.27689 90.2908 0.966929 88.1251 1.16334 85.1836C1.5813 78.9242 9.21129 68.8875 22.4497 66.3233C22.8738 66.2403 23.2813 66.5177 23.3633 66.9404C23.4452 67.3631 23.1688 67.7721 22.7462 67.854C15.6608 69.2265 10.9479 72.6682 8.24183 75.3139C4.98816 78.4948 2.92356 82.2232 2.7189 85.2875C2.61459 86.8522 2.96974 88.8791 5.25537 89.6484C6.41855 90.04 7.75806 89.9489 8.93071 89.3979C13.8991 87.062 19.2757 85.1092 25.3676 83.4272C25.7821 83.3125 26.2122 83.5561 26.3267 83.9711C26.4414 84.3863 26.1978 84.8156 25.7828 84.9301C19.7769 86.5882 14.4815 88.5113 9.594 90.8089C8.69406 91.2318 7.71489 91.4463 6.74786 91.4463Z" fill="#650000"/>
<path d="M146.76 74.2816C146.556 76.6949 146.354 79.1291 146.163 81.5819C146.086 82.5828 146.009 83.5863 145.936 84.5899L145.936 84.5925C145.694 87.9224 145.485 91.2744 145.331 94.6336L143.965 109.925C141.865 115.129 145.714 130.861 135.038 141.552C132.339 144.254 129.046 146.232 125.462 147.416C124.75 147.651 124.03 147.855 123.298 148.025C122.209 148.28 121.097 148.466 119.974 148.576C116.278 148.944 112.436 149.154 108.508 149.203C107.792 149.218 107.074 149.221 106.351 149.22C94.6382 149.216 82.259 147.87 70.7107 145.335C70.1071 145.205 69.5091 145.068 68.9136 144.93C68.6867 144.878 68.4625 144.825 68.2383 144.772C65.009 144.006 62.3 141.814 60.8964 138.806C57.4377 131.402 54.999 117.872 53.7964 102.079C51.6386 73.7437 53.4605 38.1231 60.5113 17.5313C62.1978 12.6079 64.1842 8.5465 66.4849 5.64655C67.291 4.62938 68.2798 3.80125 69.3852 3.18566C70.0628 2.80855 70.7841 2.51107 71.5333 2.30052L71.5359 2.30062C72.5376 2.01652 73.588 1.8877 74.6526 1.93108L74.7305 1.93408C81.3468 2.19524 88.2679 2.64498 95.1993 3.37073C96.5256 3.50734 97.8462 3.65412 99.1716 3.81412C99.1742 3.81422 99.1742 3.81422 99.1742 3.81422C110.28 5.14193 121.271 7.21426 130.946 10.3804C135.164 11.759 138.854 14.2617 141.643 17.5568C141.837 17.7853 142.029 18.0188 142.215 18.2574C143.05 19.3245 143.797 20.4687 144.437 21.6791C144.796 22.3534 145.121 23.0498 145.41 23.763C145.577 24.1621 145.728 24.5658 145.871 24.9769C146.63 27.1748 147.196 29.5553 147.604 32.0935C147.703 32.6954 147.791 33.3047 147.869 33.924C149.321 45.1647 148.028 59.2363 146.76 74.2816Z" fill="#F44906"/>
<path d="M106.991 14.418C109.53 15.0692 112.048 15.8027 114.54 16.6133C118.531 17.913 122.565 19.4822 125.641 22.3384C126.778 23.3962 127.812 24.6451 129.246 25.2357C130.682 25.829 132.695 25.4172 133.189 23.946C133.553 22.8521 132.955 21.685 132.906 20.5336C132.789 17.7361 136.13 15.7836 138.873 16.3437C139.885 16.5489 140.805 16.9794 141.643 17.5577C141.837 17.7862 142.029 18.0197 142.215 18.2583C143.05 19.3254 143.797 20.4696 144.437 21.68C143.969 21.8857 143.518 22.1206 143.092 22.3852C140.681 23.8792 139.271 26.3322 137.23 28.2279C135.221 30.0936 132.675 31.3042 129.995 31.8387C124.25 32.9788 118.406 30.6329 114.37 26.5385C110.991 23.1089 109.109 18.6782 106.991 14.418Z" fill="#D12C07"/>
<path d="M146.76 74.2823C146.916 76.8707 146.7 79.2497 146.191 81.2639C145.845 85.6795 145.534 90.1483 145.331 94.6344L143.965 109.925C141.865 115.129 145.714 130.862 135.038 141.553C131.008 145.588 125.649 148.012 119.974 148.577C103.878 150.179 85.0416 148.753 68.2382 144.773C65.009 144.007 62.2999 141.815 60.8964 138.807C57.4377 131.403 54.999 117.872 53.7964 102.08C55.1889 99.1972 56.8367 96.4386 58.7224 93.8505C69.2467 79.3938 86.8012 70.2125 93.9537 53.8219C96.7445 47.4299 97.7054 40.401 99.863 33.7689C100.541 31.6831 101.383 29.5959 102.41 27.6224C103.568 32.782 106.532 37.5298 110.905 40.4877C113.547 42.274 116.557 43.3801 119.543 44.5373C119.985 39.3739 120.459 35.8111 117.458 32.5495C115.678 30.6167 112.585 29.6894 106.484 27.586C101.117 25.7369 95.4676 24.8834 89.8565 24.0418C83.4751 23.0822 77.0961 22.1228 70.7146 21.1658C67.18 20.6326 63.4458 20.0163 60.7125 17.7089C60.6445 17.6516 60.5765 17.5918 60.5112 17.5321C62.1977 12.6088 64.184 8.54736 66.4848 5.64741C67.2909 4.63024 68.2796 3.80211 69.385 3.18652C69.2488 3.34774 69.1175 3.51695 68.9964 3.69175C67.9784 5.14808 67.6438 7.23135 68.6781 8.67527C69.9198 10.4106 72.4154 10.5036 74.5488 10.4787C84.6301 10.3732 94.7265 11.5011 104.541 13.8144C106.912 18.464 108.723 23.4562 112.15 27.4676C119.289 35.8236 132.908 37.1904 140.329 28.4427C141.92 26.5688 143.319 24.7864 145.41 23.7639C145.577 24.163 145.728 24.5666 145.871 24.9778C150.068 37.1531 148.394 54.9134 146.76 74.2823Z" fill="#D12C07"/>
<path d="M85.3254 32.494C85.1509 32.9763 84.5305 32.8094 84.491 32.3476C83.9279 25.5932 85.2323 18.6944 82.1095 12.3672C80.8665 9.85161 79.1048 7.57106 77.0019 5.71173C75.9279 4.76301 74.74 3.93214 73.49 3.22892C72.8588 2.87189 72.1793 2.61699 71.5361 2.30111C72.5378 2.01701 73.5882 1.88819 74.6528 1.93157L74.7307 1.93457C75.9917 2.5524 77.1936 3.28756 78.3157 4.13934C80.7593 5.99613 82.793 8.30271 84.2896 10.9892C87.8787 17.4304 87.7628 25.6854 85.3254 32.494Z" fill="white"/>
<path d="M145.41 23.7605C143.319 24.7831 141.92 26.5655 140.329 28.4394C132.908 37.187 119.289 35.8203 112.15 27.4643C108.723 23.4529 106.912 18.4607 104.541 13.811C105.358 14.0035 106.177 14.204 106.991 14.4146C109.109 18.6748 110.991 23.1054 114.37 26.535C118.406 30.6294 124.25 32.9753 129.994 31.8352C132.675 31.3008 135.221 30.0902 137.23 28.2244C139.271 26.3288 140.681 23.8758 143.092 22.3818C143.518 22.1172 143.969 21.8822 144.437 21.6765C144.498 21.788 144.556 21.9021 144.614 22.0161C144.655 22.0957 144.694 22.1752 144.735 22.2548C144.739 22.268 144.747 22.2813 144.754 22.2946C144.903 22.602 145.05 22.9145 145.186 23.2292C145.263 23.4038 145.337 23.5834 145.41 23.7605Z" fill="#B6CDD8"/>
<path d="M105.427 11.4487C105.978 12.4189 106.491 13.4112 106.991 14.416C106.177 14.2054 105.358 14.005 104.541 13.8125C104.287 13.3164 104.028 12.8254 103.76 12.3392C102.471 9.99878 100.918 7.78079 98.957 5.95029C97.9854 5.04186 96.9018 4.27481 95.7351 3.63719C95.5593 3.54204 95.3807 3.45197 95.1992 3.36963C96.5255 3.50623 97.8461 3.65301 99.1715 3.81301C99.1741 3.81312 99.1741 3.81312 99.1741 3.81312C99.4542 4.0371 99.7212 4.26316 99.9754 4.48353C102.2 6.42816 103.973 8.886 105.427 11.4487Z" fill="white"/>
<path d="M147.869 33.9228C146.125 34.4958 144.529 35.2226 143.022 36.4938C141.13 38.0857 139.622 40.1214 138.602 42.3735C137.664 44.4466 137.123 46.704 137.075 48.9829C137.015 51.9088 137.839 54.7491 138.446 57.5835C139.536 62.6626 139.383 67.5381 136.729 72.1252C131.622 80.9407 119.574 83.9745 111.504 77.3434C111.108 77.0187 111.469 76.4162 111.936 76.6629C116.903 79.3185 123.631 79.6932 128.657 77.0199C132.989 74.7126 135.985 70.3024 136.817 65.4945C137.771 59.9892 135.122 54.736 135.152 49.2604C135.174 45.0405 136.758 40.8102 139.424 37.5497C141.413 35.1189 144.389 32.7883 147.604 32.0923C147.703 32.6941 147.791 33.3035 147.869 33.9228Z" fill="#B6CDD8"/>
<path d="M146.163 81.585C146.086 82.5858 146.009 83.5893 145.936 84.5929L145.936 84.5955C144.504 85.9294 142.928 87.0939 141.251 88.0465C137.627 90.1052 133.396 91.1342 129.231 90.9435C127.277 90.8531 125.311 90.5047 123.455 89.8745C121.719 89.2853 119.714 88.4907 118.653 86.9262C118.419 86.5792 118.843 86.2261 119.173 86.3012C120.968 86.7106 122.582 87.8178 124.364 88.3411C126.164 88.873 128.035 89.1137 129.91 89.1101C133.689 89.0988 137.452 88.096 140.704 86.1687C142.814 84.9181 144.613 83.359 146.163 81.585Z" fill="#B6CDD8"/>
<path d="M108.508 149.203C107.792 149.217 107.074 149.221 106.351 149.219C106.22 147.69 105.917 146.17 105.376 144.735C104.007 141.094 101.102 138.652 97.5635 137.206C93.9816 135.738 89.8521 134.508 85.9825 134.235C81.6668 133.929 77.9823 136.022 74.945 138.938C73.568 140.261 72.3762 141.776 71.4766 143.465C71.1487 144.085 70.9039 144.705 70.7107 145.335C70.1071 145.205 69.5091 145.067 68.9136 144.93C69.8142 141.852 72.093 138.982 74.2781 136.998C77.7159 133.879 81.8084 131.862 86.5372 132.246C88.9405 132.439 91.3183 133.027 93.6462 133.629C95.768 134.178 97.8467 134.838 99.8171 135.81C103.625 137.688 106.404 140.77 107.697 144.832C108.148 146.246 108.395 147.722 108.508 149.203Z" fill="#B6CDD8"/>
<path d="M136.515 128.916C136.391 131.075 136.082 133.378 134.724 135.138C133.496 136.73 131.684 137.589 130.056 138.684C128.411 139.788 127.13 141.326 126.358 143.153C125.781 144.517 125.499 145.957 125.462 147.415C124.75 147.65 124.03 147.854 123.298 148.024C123.26 146.777 123.415 145.508 123.722 144.282C124.606 140.763 126.823 138.149 129.862 136.279C131.707 135.14 133.401 134.118 134.06 131.919C134.682 129.847 134.981 127.081 134.196 125.028C132.31 120.087 125.567 120.963 121.554 121.99C119.385 122.544 117.266 123.334 115.257 124.318C113.309 125.276 111.557 126.546 109.646 127.549C109.184 127.791 108.861 127.207 109.155 126.859C110.857 124.849 113.313 123.469 115.666 122.324C117.94 121.214 120.366 120.408 122.844 119.891C127.038 119.02 132.228 118.961 135.074 122.747C136.41 124.528 136.639 126.755 136.515 128.916Z" fill="#B6CDD8"/>
<path d="M106.434 150.002C103.326 150.002 100.152 149.907 96.9228 149.718C95.8831 149.657 94.8323 149.585 93.8001 149.504C88.9422 149.13 84.053 148.544 79.2696 147.762C76.8469 147.368 74.4068 146.914 72.0181 146.413C70.7454 146.146 69.4133 145.849 68.0594 145.529C64.5679 144.701 61.7001 142.37 60.19 139.134C54.7796 127.551 51.5875 100.343 52.2468 71.4322C52.5788 56.8832 53.871 43.2984 55.9835 32.1468C58.3809 19.4918 61.7086 10.4122 65.8741 5.16076C67.9728 2.51601 71.2654 1.01635 74.6832 1.15092C82.7516 1.46828 90.427 2.03398 97.4961 2.83261C101.807 3.31836 105.988 3.90018 109.923 4.562C109.929 4.56277 109.934 4.56373 109.94 4.56475C112.791 5.04628 115.574 5.58268 118.211 6.15881C118.646 6.25366 119.081 6.35126 119.515 6.44885C123.685 7.39452 127.612 8.46753 131.189 9.63819C138.403 11.9988 144.167 17.6377 146.608 24.7217C150.725 36.6669 149.254 54.0482 147.696 72.4477L147.497 74.8257C147.347 76.6199 147.195 78.4273 147.052 80.2448C146.966 81.3171 146.881 82.3942 146.801 83.4744C146.495 87.5527 146.274 91.1268 146.123 94.4011C146.116 94.4952 146.113 94.5749 146.11 94.6524C146.11 94.6653 146.108 94.6889 146.107 94.7018L144.742 109.993C144.735 110.07 144.717 110.145 144.688 110.216C144.58 110.482 144.487 110.792 144.411 111.138C144.145 112.298 144.046 113.812 143.979 115.277C143.956 115.773 143.936 116.288 143.917 116.82L143.894 117.405C143.642 124.18 143.262 134.42 135.589 142.102C131.513 146.184 125.995 148.759 120.052 149.351C115.699 149.785 111.144 150.002 106.434 150.002ZM74.2602 2.70175C71.4692 2.70175 68.8123 3.9665 67.0956 6.12971C59.4884 15.7203 54.52 40.1458 53.8056 71.4677C53.1513 100.161 56.2847 127.089 61.6028 138.475C62.9102 141.277 65.3943 143.295 68.4185 144.012C69.7588 144.329 71.0777 144.623 72.3379 144.887C74.704 145.383 77.1203 145.833 79.5205 146.223C84.2611 146.998 89.1059 147.579 93.921 147.95C94.9441 148.03 95.9844 148.101 97.014 148.162C105.056 148.633 112.755 148.511 119.897 147.799C125.482 147.243 130.664 144.828 134.486 141C141.726 133.751 142.094 123.879 142.336 117.346L142.359 116.761C142.379 116.225 142.398 115.705 142.421 115.205C142.492 113.668 142.598 112.069 142.889 110.796C142.973 110.416 143.077 110.061 143.199 109.743L144.553 94.5821C144.556 94.487 144.56 94.3986 144.566 94.3124C144.717 91.0399 144.939 87.4512 145.246 83.3585C145.326 82.276 145.412 81.1959 145.497 80.1215C145.641 78.3019 145.793 76.4924 145.943 74.6959L146.142 72.3176C146.142 72.3173 146.142 72.3171 146.142 72.3168C147.686 54.085 149.143 36.8641 145.134 25.2297C142.851 18.6045 137.456 13.3299 130.704 11.1202C127.173 9.96424 123.293 8.90435 119.172 7.96988C118.742 7.87304 118.31 7.77641 117.878 7.68207C115.269 7.11215 112.516 6.58144 109.694 6.10439C109.689 6.10362 109.683 6.10266 109.678 6.10189C105.767 5.44379 101.61 4.86522 97.3212 4.38222C90.2894 3.58781 82.6524 3.02486 74.6221 2.70897C74.5011 2.70424 74.3807 2.70175 74.2602 2.70175Z" fill="#650000"/>
<path d="M107.645 148.435C112.803 148.642 117.279 145.9 120.292 141.832C125.479 134.884 127.103 126.151 128.71 117.791C128.518 124.757 126.995 131.711 124.063 138.067C122.537 141.266 120.5 144.288 117.712 146.55C114.926 148.877 111.228 150.123 107.6 149.993L107.645 148.435Z" fill="#650000"/>
<path d="M49.0942 130.727C48.9847 137.679 48.3651 143.463 45.9043 146.694C45.1481 147.687 44.0524 148.269 42.894 148.409C41.7694 148.547 40.5889 148.275 39.609 147.567C36.2553 145.149 34.1251 140.355 33.2888 134.841C33.0127 133.037 32.8756 131.155 32.8805 129.252L49.0942 130.727Z" fill="white"/>
<path d="M49.0942 130.727C48.9847 137.679 48.3651 143.463 45.9043 146.694C45.1481 147.687 44.0524 148.269 42.894 148.409C42.8488 148.391 42.8062 148.372 42.7608 148.351C44.5146 147.617 45.1638 145.451 45.1844 143.55C45.1985 142.256 44.9923 140.883 44.1636 139.888C43.0373 138.538 41.1196 138.25 39.4196 137.8C37.2127 137.216 35.1235 136.203 33.2888 134.841C33.0127 133.037 32.8756 131.155 32.8805 129.252L49.0942 130.727Z" fill="#B6CDD8"/>
<path d="M42.3139 149.218C41.2152 149.218 40.1045 148.887 39.1523 148.201C34.7854 145.052 32.0836 137.791 32.1012 129.252C32.1014 129.033 32.1938 128.825 32.3555 128.678C32.5171 128.531 32.7324 128.457 32.9512 128.477L49.1648 129.952C49.5711 129.989 49.8803 130.333 49.8738 130.74C49.774 137.118 49.2994 143.521 46.5255 147.166C45.5036 148.509 43.9215 149.218 42.3139 149.218ZM33.6679 130.108C33.8199 137.778 36.2384 144.177 40.0642 146.936C41.7298 148.136 44.0713 147.816 45.2849 146.222C47.689 143.063 48.1847 137.057 48.3016 131.439L33.6679 130.108Z" fill="#650000"/>
<path d="M97.7565 134.943C97.0107 141.856 95.8639 147.559 93.1175 150.551C92.2735 151.471 91.1291 151.95 89.9627 151.983C88.8302 152.018 87.6796 151.638 86.7687 150.844C83.6505 148.129 81.9684 143.16 81.6407 137.593C81.5311 135.771 81.5669 133.884 81.746 131.99L97.7565 134.943Z" fill="white"/>
<path d="M97.7566 134.943C97.0108 141.856 95.864 147.559 93.1175 150.551C92.2735 151.471 91.1292 151.95 89.9628 151.983C89.9195 151.961 89.8787 151.938 89.8354 151.913C91.6491 151.343 92.494 149.245 92.6886 147.354C92.8211 146.067 92.7416 144.68 92.0074 143.615C91.0097 142.167 89.1263 141.705 87.4747 141.101C85.3306 140.316 83.3429 139.117 81.6407 137.593C81.5311 135.771 81.5669 133.884 81.746 131.99L97.7566 134.943Z" fill="#B6CDD8"/>
<path d="M89.8118 152.757C88.549 152.757 87.2761 152.319 86.2559 151.431C82.1959 147.895 80.1703 140.417 80.9699 131.916C80.9905 131.698 81.1015 131.499 81.2761 131.367C81.4507 131.235 81.6722 131.183 81.8877 131.222L97.8982 134.176C98.2993 134.25 98.5754 134.621 98.5317 135.026C97.8481 141.368 96.7887 147.701 93.693 151.076C92.6709 152.19 91.2479 152.757 89.8118 152.757ZM82.4518 132.912C81.9007 140.563 83.723 147.157 87.2801 150.255C88.8282 151.603 91.1893 151.499 92.544 150.022C95.2273 147.097 96.271 141.161 96.9022 135.578L82.4518 132.912Z" fill="#650000"/>
<path d="M126.361 43.326C128.329 46.262 127.79 49.7418 124.774 50.8069C129.279 55.4005 128.488 60.6415 124.546 63.5411C126.514 66.4771 125.99 70.8 123.429 72.3403C124.316 77.1619 124.116 81.7157 120.845 85.5042L118.871 106.751L118.631 109.345C119.229 111.456 119.099 113.625 118.383 115.837C118.47 116.009 118.549 116.184 118.62 116.358C119.776 119.11 119.282 121.886 117.046 123.587C119.753 127.592 119.763 131.953 116.488 131.368C118.905 136.141 115.8 137.507 112.693 135.383C111.565 137.681 107.746 138.252 105.133 135.874C104.254 138.441 99.5377 138.887 97.6019 135.585C96.2335 137.84 93.3678 138.448 91.9205 136.242C91.8983 136.21 91.8788 136.178 91.8592 136.146C90.3917 140.51 84.258 140.143 80.9328 136.247C79.2554 139.304 74.4382 140.212 70.7657 136.898C67.7998 139.645 63.023 139.904 61.2272 134.713C58.2912 136.681 55.2216 136.501 52.7175 132.826C47.3847 136.263 41.4628 136.546 38.7347 131.251C36.5479 134.027 32.6727 133.359 32.1025 127.876C25.0525 135.408 15.7229 127.769 21.5142 119.148C16.6301 117.661 16.6722 112.963 19.2854 109.441C16.9881 108.313 16.2411 105.478 17.6964 103.399L18.5826 87.0491C17.124 84.3926 18.4646 82.2543 21.3783 81.955C17.0433 79.7085 17.3582 75.2216 20.3982 73.5956C16.6323 70.0706 16.6677 66.0905 20.0169 63.1786C18.5782 60.0028 18.2954 56.1145 21.8932 54.9286C19.166 51.4434 18.886 44.4943 22.88 42.7437C21.7109 39.3182 22.3145 35.8461 25.5353 34.5235C23.0877 30.5289 23.4223 25.0519 28.8094 23.7265C27.9 20.3109 29.8363 17.2851 32.6935 17.3738C31.9034 10.8421 40.0953 5.8844 45.0972 12.6477C46.5249 9.32157 51.5351 8.19754 53.6865 12.4565C56.133 9.68953 61.1066 8.83979 63.5244 13.6134C65.5634 10.4174 67.8962 10.348 70.5456 13.6223C74.0606 10.1161 77.4363 10.1127 78.6155 13.4112C81.9932 8.4642 85.5958 7.6972 88.2235 13.7792C91.25 10.9434 97.4912 9.45304 98.0912 14.1571C100.188 12.5678 104.502 12.1037 107.196 14.0091C108.072 14.6278 108.775 15.4999 109.178 16.6622C112.002 14.4116 117.587 14.3836 117.658 19.3275C120.506 18.7526 125.448 19.6258 123.941 25.0293C131.142 27.1255 131.931 32.6039 127.718 35.0562C130.088 38.1402 130.326 41.6574 126.361 43.326Z" fill="white"/>
<path d="M116.488 131.368C118.905 136.142 115.8 137.508 112.693 135.383C111.565 137.681 107.746 138.252 105.132 135.874C104.254 138.441 99.5376 138.887 97.6018 135.586C96.2334 137.84 93.3677 138.448 91.9204 136.242C94.733 137.021 97.9713 134.697 98.122 131.78C100.042 131.83 101.941 130.67 102.774 128.942C103.607 127.213 103.33 125.005 102.094 123.535C103.621 121.703 103.396 118.67 101.616 117.083L102.15 117.194C107.65 117.413 113.171 117.133 118.62 116.358C119.776 119.11 119.282 121.887 117.046 123.588C119.753 127.592 119.763 131.954 116.488 131.368Z" fill="#B6CDD8"/>
<path d="M126.361 43.3259C128.329 46.2619 127.79 49.7417 124.774 50.8069C129.279 55.4004 128.488 60.6415 124.546 63.541C126.514 66.477 125.99 70.7999 123.429 72.3402C124.316 77.1618 124.116 81.7156 120.845 85.5042C121.314 86.7347 121.999 89.0202 121.769 91.911C121.577 94.3352 120.819 96.2009 120.262 97.3145C119.799 100.46 119.335 103.605 118.871 106.751C118.685 106.775 118.403 106.813 118.059 106.837C115.355 107.024 112.67 106.381 110.052 105.672C104.045 104.045 97.9944 101.978 93.1646 98.0529C96.1973 97.7686 99.4016 97.4206 101.851 95.6082C104.302 93.7958 105.538 89.9761 103.586 87.6337C106.147 85.9452 106.759 81.9403 104.818 79.5644C107.276 78.6834 109.127 76.3097 109.386 73.7138C109.646 71.1154 108.301 68.4217 106.067 67.0722C107.686 66.5543 108.954 65.0763 109.221 63.3988C109.486 61.7212 108.733 59.9213 107.354 58.9323C109.533 56.6986 110.198 53.1197 108.968 50.2509C110.975 48.9755 111.869 46.4221 111.775 44.0494C111.681 41.6741 110.756 39.4204 109.812 37.2413C111.499 37.6752 113.037 35.7602 112.934 34.0217C112.829 32.2831 111.671 30.811 110.565 29.4658C112.805 29.3149 114.181 26.5225 113.438 24.4058C112.697 22.2866 110.474 20.9792 108.256 20.642C109.712 18.4639 108.788 15.0841 106.426 13.9482L107.196 14.0089C108.073 14.6276 108.775 15.4997 109.178 16.662C112.003 14.4115 117.587 14.3834 117.658 19.3273C120.507 18.7524 125.448 19.6256 123.941 25.0291C131.142 27.1253 131.931 32.6038 127.718 35.056C130.088 38.1401 130.326 41.6573 126.361 43.3259Z" fill="#B6CDD8"/>
<path d="M87.1866 140.079C85.7202 140.079 84.1626 139.636 82.7392 138.782C82.6702 138.74 82.6036 138.699 82.537 138.657C82.3317 138.528 82.1385 138.395 81.9455 138.247C81.6632 138.044 81.3664 137.797 81.0545 137.504C81.0478 137.498 81.0413 137.491 81.0348 137.485C80.2255 138.476 79.0857 139.194 77.739 139.545C75.7372 140.069 73.4959 139.687 71.592 138.499C71.3131 138.325 71.0385 138.131 70.7705 137.921C68.9095 139.389 66.6706 139.944 64.7241 139.407C63.508 139.073 61.9095 138.179 60.8449 135.855C57.7746 137.503 54.8027 136.8 52.5141 133.871C46.8638 137.24 41.4743 136.784 38.6534 132.64C38.645 132.628 38.6371 132.615 38.6296 132.603C38.6137 132.579 38.5981 132.556 38.5827 132.533C37.4656 133.491 36.0966 133.856 34.8274 133.488C33.2532 133.033 32.1109 131.591 31.5824 129.449C30.5644 130.311 29.4815 130.936 28.3491 131.314C28.33 131.322 28.3104 131.33 28.2903 131.336C25.2951 132.315 22.1902 131.402 20.3809 129.01C18.8429 126.976 18.0987 123.484 20.3481 119.55C18.2778 118.648 17.4036 117.213 17.0371 116.1C16.4016 114.172 16.8302 111.822 18.1784 109.68C17.266 109.01 16.6072 108.051 16.3238 106.952C15.9898 105.656 16.2106 104.282 16.9283 103.146L17.7937 87.2223C17.0877 85.8281 17.0189 84.4568 17.6042 83.3403C17.9961 82.5929 18.644 82.0148 19.4918 81.639C18.1148 80.4835 17.3472 78.9851 17.3368 77.3568C17.3271 75.8459 18.0145 74.4314 19.1794 73.4763C17.5577 71.7214 16.7246 69.8137 16.7594 67.9134C16.7919 66.1249 17.5925 64.4293 19.0818 62.9803C18.1254 60.6182 17.9784 58.3757 18.6867 56.7618C19.1014 55.8172 19.7799 55.0895 20.7096 54.5891C19.235 52.1848 18.6812 48.8546 19.3656 46.1413C19.7997 44.4209 20.684 43.1261 21.9418 42.356C20.9274 38.7596 21.8837 35.6845 24.4534 34.1898C23.1924 31.7304 22.9411 28.9825 23.8175 26.8499C24.3317 25.5988 25.454 24.0005 27.8971 23.1805C27.6088 21.3786 28.0093 19.611 29.0193 18.3381C29.7615 17.4026 30.7512 16.819 31.8634 16.6461C31.8026 13.3687 33.75 10.3566 36.807 9.14055C39.707 7.98779 42.6954 8.79115 44.9831 11.2844C46.0003 9.8813 47.6529 8.96473 49.3922 8.91011C51.1737 8.85248 52.7593 9.68092 53.8443 11.2089C55.3822 9.88776 57.3883 9.23469 59.2821 9.47555C61.002 9.69582 62.4979 10.6509 63.5874 12.2018C64.5243 11.0781 65.5462 10.4791 66.6354 10.4175C67.9464 10.3465 69.2534 11.0247 70.6025 12.4958C72.6374 10.6753 74.6782 9.88979 76.4091 10.2809C77.3562 10.494 78.1548 11.0632 78.7372 11.9226C80.5515 9.61063 82.364 8.52765 84.1409 8.69604C85.8253 8.85772 87.289 10.147 88.5001 12.5328C90.7048 10.8781 93.9502 9.79342 96.2923 10.6353C97.114 10.9308 98.0999 11.5663 98.5973 12.9313C100.573 11.9367 103.32 11.6882 105.568 12.3711C107.376 12.9214 108.725 13.9902 109.518 15.4889C111.491 14.3404 114.069 14.0861 115.873 14.9393C117.257 15.5939 118.123 16.8185 118.367 18.4364C120.293 18.2524 122.551 18.674 123.867 20.09C124.586 20.8638 125.3 22.2383 124.866 24.5039C128.427 25.719 130.71 27.9259 131.026 30.4989C131.249 32.3147 130.433 34.0458 128.82 35.2604C130.039 37.1023 130.478 38.9576 130.057 40.5501C129.812 41.4769 129.157 42.7141 127.465 43.6563C128.328 45.2915 128.539 47.0363 128.037 48.5499C127.685 49.6091 126.997 50.4718 126.055 51.0556C127.911 53.2442 128.786 55.6404 128.593 58.0385C128.419 60.2141 127.351 62.2107 125.568 63.7275C126.462 65.3919 126.751 67.414 126.337 69.2718C126.013 70.7231 125.293 71.9198 124.285 72.6986C124.902 76.3314 125.167 81.3872 121.73 85.6598C122.4 87.5876 122.686 89.6661 122.558 91.7005C122.419 93.9146 121.79 96.1111 120.738 98.064C120.3 101.806 119.862 105.548 119.422 109.291C119.71 110.42 119.827 111.5 119.778 112.588C119.733 113.621 119.545 114.693 119.218 115.778C120.579 118.757 120.129 121.782 118.069 123.738C119.784 126.551 120.281 129.495 119.262 131.062C119.019 131.435 118.537 131.961 117.68 132.139C118.681 134.81 117.746 136.051 117.248 136.489C116.237 137.376 114.599 137.343 112.937 136.446C112.275 137.275 111.274 137.857 110.085 138.083C108.482 138.387 106.782 138.006 105.377 137.055C104.706 137.95 103.585 138.549 102.254 138.683C100.805 138.828 98.9295 138.403 97.5877 136.89C96.7034 137.837 95.5348 138.397 94.3567 138.401C93.4875 138.394 92.6998 138.114 92.0531 137.567C91.4467 138.553 90.5535 139.279 89.421 139.696C88.725 139.953 87.9688 140.079 87.1866 140.079ZM80.9338 135.468C81.1611 135.468 81.3783 135.567 81.5274 135.742C81.7136 135.96 81.914 136.171 82.1234 136.368C82.3849 136.615 82.6305 136.819 82.8736 136.995C83.0457 137.125 83.2009 137.233 83.365 137.336C83.4221 137.372 83.4803 137.408 83.5411 137.444C85.2966 138.498 87.3428 138.801 88.8823 138.233C89.9667 137.834 90.7403 137.026 91.1197 135.897C91.2163 135.611 91.4699 135.406 91.7706 135.371C92.0718 135.337 92.3644 135.48 92.5228 135.738C92.9668 136.46 93.5968 136.841 94.3448 136.841C94.3473 136.841 94.3495 136.841 94.3518 136.841C95.3262 136.838 96.3163 136.202 96.9352 135.181C97.0767 134.947 97.3296 134.805 97.602 134.805C97.6039 134.805 97.6057 134.805 97.6076 134.805C97.8823 134.807 98.1356 134.953 98.2744 135.19C99.2233 136.809 100.87 137.254 102.098 137.131C103.235 137.017 104.116 136.438 104.395 135.621C104.48 135.372 104.685 135.183 104.939 135.118C105.194 135.053 105.464 135.12 105.658 135.297C106.819 136.354 108.365 136.823 109.794 136.551C110.815 136.357 111.617 135.806 111.993 135.041C112.092 134.838 112.275 134.688 112.494 134.631C112.713 134.573 112.945 134.613 113.132 134.741C114.514 135.685 115.731 135.745 116.22 135.317C116.686 134.907 116.819 133.747 115.791 131.719C115.657 131.456 115.684 131.139 115.861 130.902C116.038 130.665 116.334 130.548 116.624 130.6C117.59 130.772 117.865 130.351 117.955 130.212C118.589 129.238 118.18 126.657 116.399 124.023C116.167 123.68 116.244 123.216 116.574 122.966C118.579 121.442 119.005 118.843 117.685 116.184C117.594 116.001 117.579 115.791 117.642 115.597C117.983 114.543 118.178 113.507 118.22 112.519C118.264 111.544 118.152 110.573 117.877 109.548C117.852 109.452 117.844 109.353 117.856 109.255C118.308 105.414 118.758 101.573 119.207 97.7326C119.219 97.6322 119.25 97.5349 119.299 97.4465C120.285 95.6605 120.874 93.6395 121.002 91.6025C121.126 89.6362 120.819 87.6239 120.116 85.7836C120.014 85.5159 120.067 85.2134 120.254 84.9963C122.939 81.883 123.682 78.0234 122.663 72.4814C122.605 72.1623 122.75 71.84 123.028 71.6726C123.904 71.1454 124.539 70.1722 124.815 68.9325C125.191 67.2453 124.849 65.3923 123.9 63.9753C123.668 63.6289 123.749 63.161 124.085 62.9136C125.835 61.6258 126.884 59.8502 127.039 57.9135C127.218 55.6859 126.242 53.4176 124.217 51.354C124.031 51.1638 123.954 50.8916 124.014 50.6319C124.074 50.3724 124.263 50.1615 124.514 50.0729C125.532 49.7133 126.239 49.0167 126.557 48.0584C126.979 46.786 126.664 45.1793 125.714 43.7603C125.584 43.5668 125.548 43.3257 125.615 43.1027C125.681 42.8797 125.844 42.6982 126.059 42.608C127.433 42.0294 128.271 41.2027 128.549 40.1513C128.896 38.8408 128.381 37.2006 127.1 35.5325C126.963 35.3547 126.91 35.127 126.953 34.907C126.996 34.6872 127.132 34.4965 127.326 34.3838C128.872 33.4838 129.656 32.1368 129.478 30.6886C129.221 28.5879 127.07 26.752 123.724 25.7778C123.314 25.6583 123.076 25.2312 123.191 24.8197C123.642 23.2036 123.485 21.9693 122.725 21.1516C121.623 19.9653 119.406 19.7706 117.812 20.0917C117.585 20.1381 117.35 20.08 117.169 19.9342C116.988 19.7887 116.882 19.5705 116.879 19.3387C116.858 17.8698 116.295 16.8639 115.207 16.3488C113.665 15.6192 111.23 16.024 109.665 17.2711C109.467 17.4293 109.205 17.4805 108.962 17.4102C108.719 17.3396 108.525 17.1554 108.442 16.9163C107.79 15.0309 106.273 14.2152 105.114 13.8628C102.942 13.2027 100.124 13.5953 98.5605 14.7781C98.3385 14.946 98.0434 14.9827 97.7881 14.8749C97.5316 14.7669 97.3523 14.5307 97.317 14.2549C97.1735 13.1304 96.6659 12.4264 95.7649 12.1026C93.9571 11.4515 90.7474 12.4806 88.7565 14.3483C88.5715 14.5218 88.314 14.5949 88.0646 14.5429C87.816 14.4913 87.6081 14.3219 87.5073 14.0887C86.7869 12.4214 85.5925 10.4015 83.9922 10.248C82.6127 10.1192 80.9353 11.3956 79.2597 13.8501C79.0946 14.0922 78.808 14.2209 78.5165 14.1839C78.2257 14.1464 77.9806 13.9492 77.8818 13.6731C77.5043 12.6176 76.8934 11.9881 76.0665 11.8019C74.7233 11.4987 72.9101 12.3644 71.0949 14.1754C70.9384 14.3316 70.7213 14.4139 70.5028 14.4022C70.2823 14.3905 70.0769 14.2857 69.9381 14.1138C68.7878 12.6916 67.7398 11.9715 66.8208 11.9715C66.7882 11.9715 66.7557 11.9725 66.7232 11.9742C65.8776 12.0219 65.0228 12.7143 64.1827 14.0322C64.0322 14.2683 63.7638 14.4029 63.4871 14.392C63.2073 14.3781 62.9567 14.2154 62.83 13.9656C61.9561 12.2419 60.6611 11.224 59.0842 11.0221C57.4 10.8073 55.5087 11.5719 54.271 12.973C54.0997 13.1667 53.8441 13.2623 53.5871 13.23C53.3308 13.197 53.1073 13.0391 52.9909 12.8084C52.226 11.2943 51.0114 10.4666 49.5619 10.4666C49.5216 10.4666 49.4814 10.4673 49.4412 10.4686C47.8893 10.5172 46.4319 11.517 45.8145 12.9564C45.7045 13.2131 45.4656 13.3912 45.1882 13.4235C44.9091 13.4558 44.6374 13.3373 44.4713 13.1129C42.5596 10.5275 39.9092 9.5848 37.3831 10.5896C34.7295 11.645 33.1198 14.3963 33.4687 17.2799C33.496 17.5056 33.4232 17.7319 33.27 17.8995C33.1165 18.0674 32.8948 18.158 32.6705 18.1528C31.7172 18.1208 30.8548 18.5332 30.2409 19.3073C29.3961 20.3719 29.1428 21.9493 29.5629 23.5267C29.6169 23.7291 29.587 23.9444 29.4802 24.1247C29.3737 24.3048 29.1989 24.4344 28.9958 24.4846C27.1616 24.9355 25.8698 25.9584 25.2599 27.4427C24.4798 29.3409 24.8399 31.8985 26.2 34.1174C26.3192 34.3123 26.3473 34.5497 26.2763 34.767C26.2053 34.9843 26.0426 35.1594 25.8313 35.2461C22.7994 36.4905 22.6995 39.8055 23.6171 42.4926C23.748 42.8761 23.5632 43.296 23.192 43.4586C21.7599 44.0857 21.1428 45.4711 20.8775 46.5228C20.2316 49.0836 20.9163 52.417 22.5061 54.4493C22.6623 54.6492 22.7117 54.9127 22.6382 55.1556C22.5645 55.3984 22.3775 55.5904 22.1363 55.6699C21.139 55.9992 20.4777 56.5614 20.1147 57.3886C19.5316 58.7164 19.7546 60.7105 20.726 62.8593C20.8678 63.173 20.7869 63.5428 20.5271 63.7687C19.1094 65.0014 18.3455 66.4445 18.3182 67.942C18.2872 69.6401 19.1906 71.3985 20.9304 73.0268C21.1139 73.1984 21.2033 73.4482 21.1708 73.6975C21.138 73.9466 20.987 74.1649 20.7655 74.2834C19.5864 74.9141 18.8876 76.0592 18.8958 77.3468C18.9057 78.9051 19.941 80.3327 21.7362 81.2637C22.0422 81.4224 22.2076 81.7631 22.1433 82.1016C22.0787 82.4401 21.7998 82.6961 21.4569 82.7314C20.2485 82.8554 19.3709 83.3287 18.9852 84.0642C18.6221 84.7566 18.7222 85.6831 19.267 86.6735C19.3373 86.8011 19.3703 86.9459 19.3624 87.0914L18.4736 103.442C18.4657 103.588 18.4175 103.727 18.3341 103.847C17.7768 104.644 17.5943 105.634 17.8337 106.563C18.077 107.507 18.7314 108.301 19.6291 108.742C19.8367 108.844 19.9884 109.033 20.0431 109.258C20.0977 109.483 20.0493 109.721 19.9115 109.907C18.4915 111.819 17.9708 113.952 18.5179 115.612C18.9576 116.946 20.0424 117.885 21.7419 118.402C21.9783 118.474 22.1666 118.654 22.2495 118.887C22.3322 119.12 22.2999 119.378 22.1621 119.583C19.7495 123.174 20.3026 126.321 21.6245 128.069C23.0372 129.937 25.381 130.625 27.7521 129.872C27.77 129.864 27.7881 129.857 27.8067 129.851C29.1221 129.423 30.3757 128.579 31.5331 127.344C31.7422 127.121 32.0619 127.041 32.3507 127.138C32.6399 127.235 32.8458 127.492 32.8773 127.796C33.1135 130.059 34.004 131.627 35.2601 131.99C36.2296 132.271 37.2989 131.813 38.1212 130.768C38.2851 130.559 38.5431 130.448 38.8081 130.474C39.0723 130.499 39.3055 130.657 39.4269 130.893C39.5886 131.207 39.7609 131.497 39.9395 131.756C39.9489 131.77 39.9578 131.783 39.9663 131.797C42.8906 136.045 48.2484 134.779 52.2952 132.172C52.6503 131.943 53.1234 132.039 53.3613 132.388C55.4299 135.42 57.9306 135.984 60.7941 134.066C60.995 133.932 61.2473 133.898 61.4758 133.975C61.705 134.052 61.8855 134.23 61.9647 134.459C62.6081 136.319 63.7053 137.51 65.1377 137.904C66.6667 138.325 68.4795 137.819 69.9847 136.55C70.0666 136.48 70.1543 136.402 70.2397 136.324C70.5355 136.054 70.9879 136.052 71.2857 136.319C71.6495 136.646 72.0304 136.934 72.4185 137.177C73.9818 138.152 75.7318 138.458 77.345 138.037C78.637 137.699 79.6688 136.931 80.2502 135.872C80.3736 135.647 80.5996 135.498 80.8546 135.472C80.8812 135.469 80.9075 135.468 80.9338 135.468Z" fill="#650000"/>
<path d="M39.2277 72.4238C39.7803 69.6345 37.1504 66.7636 33.3538 66.0115C29.5572 65.2595 26.0315 66.9111 25.4789 69.7004C24.9264 72.4898 27.5563 75.3606 31.3529 76.1127C35.1495 76.8647 38.6752 75.2132 39.2277 72.4238Z" fill="#FF8CC3"/>
<path d="M95.887 80.4507C96.4579 77.5686 93.4775 74.5501 89.2301 73.7087C84.9828 72.8674 81.0768 74.5218 80.5059 77.404C79.935 80.2861 82.9153 83.3046 87.1627 84.1459C91.4101 84.9873 95.3161 83.3329 95.887 80.4507Z" fill="#FF8CC3"/>
<path d="M40.7451 59.9316C46.6307 60.9241 50.4269 57.5515 48.8776 52.3354C47.3284 47.1193 41.844 44.1468 36.6279 45.696C32.3114 46.9781 29.5314 50.9549 29.5787 55.2444C29.7961 58.9226 33.3994 58.6928 40.7451 59.9316Z" fill="#650000"/>
<path d="M46.8098 57.6699C46.8854 58.1065 46.937 58.5358 46.9644 58.9579C45.4628 59.9689 43.3009 60.3588 40.7455 59.929C39.8704 59.7833 39.0516 59.6547 38.281 59.5405C38.2556 59.4153 38.23 59.2902 38.2076 59.1607C37.2554 53.6664 39.6522 51.4103 41.2487 51.1336C42.8451 50.8569 45.8576 52.1756 46.8098 57.6699Z" fill="white"/>
<path d="M42.7272 60.9452C42.0471 60.9452 41.3373 60.8847 40.6052 60.7612C39.3469 60.5489 38.1818 60.3776 37.1539 60.2263C32.044 59.4746 28.9597 59.0209 28.7394 55.2947L28.7379 55.2542C28.6856 50.5058 31.8317 46.2439 36.3886 44.8903C42.0394 43.212 48.0048 46.4441 49.6838 52.0964C50.4467 54.6651 50.0585 56.993 48.5912 58.6509C47.265 60.1488 45.1904 60.9452 42.7272 60.9452ZM40.8848 59.1028C43.6838 59.5746 46.033 59.0035 47.3318 57.5363C48.4007 56.329 48.6634 54.567 48.0716 52.5751C46.6566 47.8119 41.6304 45.0877 36.8673 46.5024C33.0333 47.6413 30.3843 51.222 30.4194 55.2152C30.5609 57.4509 32.2168 57.8003 37.3985 58.5627C38.4345 58.7149 39.6092 58.8878 40.8848 59.1028Z" fill="#650000"/>
<path d="M34.2651 52.3217C34.9672 52.2 35.4175 51.4156 35.2709 50.5698C35.1243 49.724 34.4363 49.1369 33.7342 49.2586C33.0321 49.3803 32.5818 50.1647 32.7284 51.0105C32.875 51.8564 33.563 52.4434 34.2651 52.3217Z" fill="white"/>
<path d="M81.0589 67.0744C74.7852 66.8019 71.6207 62.4974 74.3612 57.4713C77.1018 52.4451 83.398 50.5923 88.4242 53.3328C92.5834 55.6007 94.5697 60.3035 93.578 64.7065C92.5459 68.4431 88.8891 67.4146 81.0589 67.0744Z" fill="#650000"/>
<path d="M75.3158 63.4187C75.142 63.8512 74.9945 64.2817 74.8735 64.7099C76.1963 66.0801 78.3349 66.9565 81.0586 67.076C81.991 67.1185 82.8618 67.1661 83.6796 67.218C83.7334 67.0948 83.7871 66.9717 83.8387 66.8434C86.0261 61.3997 84.0559 58.5516 82.4742 57.916C80.8924 57.2804 77.5031 57.975 75.3158 63.4187Z" fill="white"/>
<path d="M88.5757 68.3452C87.4348 68.3452 86.1388 68.2617 84.6893 68.1681C83.5984 68.0978 82.3619 68.0179 81.0207 67.9597C77.4147 67.803 74.5888 66.3716 73.2682 64.0328C72.1227 62.0047 72.2351 59.5244 73.5849 57.0492C75.0234 54.4107 77.4032 52.4906 80.2861 51.6423C83.1685 50.7935 86.2096 51.1188 88.8476 52.5577C93.2387 54.9516 95.5389 60.028 94.4411 64.9023L94.4309 64.9433C93.6648 67.7172 91.7027 68.3452 88.5757 68.3452ZM81.0977 66.1921C82.4573 66.2512 83.7037 66.3317 84.803 66.4025C90.3031 66.7576 92.0826 66.7616 92.7199 64.4923C93.6335 60.3916 91.6953 56.1252 88.0008 54.1107C85.7775 52.8986 83.2147 52.6252 80.7855 53.3394C78.356 54.0544 76.3503 55.6728 75.1379 57.8961C74.0915 59.8154 73.9745 61.6859 74.8086 63.163C75.8226 64.9585 78.1149 66.0625 81.0977 66.1921Z" fill="#650000"/>
<path d="M91.276 59.6673C91.6128 58.8292 91.3219 57.9232 90.6262 57.6437C89.9306 57.3641 89.0936 57.8169 88.7568 58.6549C88.42 59.493 88.7109 60.399 89.4066 60.6786C90.1022 60.9581 90.9392 60.5054 91.276 59.6673Z" fill="white"/>
<path d="M18.7076 87.1836C46.4655 94.696 74.7435 98.6037 103.563 98.7552C118.549 98.0437 132.659 96.7533 145.337 94.5155C146.341 94.3382 147.266 95.0817 147.332 96.0995C147.598 100.187 147.317 104.312 146.351 108.483C146.022 109.904 144.92 111.016 143.508 111.385C131.746 114.46 117.013 116.353 103.839 117.266C74.2432 117.397 33.5415 112.444 17.8214 103.533C14.0356 100.528 16.071 88.1229 18.7076 87.1836Z" fill="#6D445B"/>
<g opacity="0.4">
<path d="M19.6192 104.122C15.8335 101.117 17.8689 88.7118 20.5054 87.7725C43.2091 94.1592 62.6621 96.8218 77.1102 97.982C90.811 99.0821 101.451 98.9469 105.901 98.8446C121.848 98.4783 135.492 96.7618 146.1 94.9229C146.075 94.7455 146.014 94.5902 145.888 94.5087C145.678 94.3736 145.381 94.5077 145.337 94.5155C132.659 96.7533 118.549 98.0436 103.563 98.7552C74.7436 98.6037 46.4655 94.696 18.7076 87.1836C16.071 88.1228 14.0356 100.528 17.8214 103.533C20.6462 105.134 24.281 106.607 28.5096 107.946C25.0439 106.768 22.0355 105.492 19.6192 104.122Z" fill="white"/>
</g>
<path d="M103.024 99.2566C103.089 109.24 101.818 117.154 90.6523 116.727C106.347 118.149 124.103 115.713 142.765 111.578C144.653 105.532 144.756 99.9578 143.781 94.7861C129.766 97.3404 116.152 98.9018 103.024 99.2566Z" fill="#633349"/>
<path d="M102.689 118.05C72.578 118.05 32.817 112.93 17.437 104.213C17.4017 104.193 17.3682 104.17 17.3366 104.145C14.7898 102.123 14.6393 96.866 15.2842 92.9784C15.5077 91.6317 16.396 87.1806 18.446 86.4505C18.5954 86.3974 18.7574 86.3907 18.9111 86.4324C46.6576 93.9415 75.1331 97.8254 103.547 97.9766C119.847 97.2021 133.473 95.8191 145.201 93.7488C145.892 93.6271 146.605 93.8059 147.158 94.2395C147.717 94.6783 148.064 95.3383 148.11 96.0503C148.389 100.347 148.053 104.589 147.111 108.66C146.717 110.36 145.412 111.694 143.705 112.14C133.151 114.9 119.012 116.997 103.893 118.045C103.876 118.047 103.86 118.047 103.843 118.047C103.46 118.049 103.074 118.05 102.689 118.05ZM18.2619 102.888C33.4571 111.458 72.8136 116.49 102.681 116.49C103.06 116.49 103.434 116.49 103.81 116.488C118.826 115.445 132.853 113.366 143.311 110.632C144.455 110.333 145.329 109.442 145.591 108.308C146.5 104.386 146.823 100.296 146.554 96.1511C146.537 95.8769 146.409 95.6335 146.195 95.4656C145.988 95.3033 145.731 95.2382 145.472 95.2844C133.673 97.3671 119.977 98.7576 103.6 99.5351C103.587 99.5356 103.572 99.5351 103.559 99.5359C75.105 99.3864 46.5894 95.5111 18.7995 88.0172C18.2204 88.4667 17.3237 90.212 16.8223 93.2337C16.2261 96.8277 16.426 101.362 18.2619 102.888Z" fill="#650000"/>
<path d="M103.773 98.7178C103.821 103.001 103.504 107.274 102.816 111.469C102.988 107.214 102.778 102.974 102.216 98.8074L103.773 98.7178Z" fill="#650000"/>
<path d="M96.2293 39.0878C97.0029 38.1764 97.2283 37.3415 96.9336 36.1515C96.674 35.1027 96.0106 34.088 95.0731 33.5303C93.6522 32.6851 89.5925 32.5247 89.6776 35.0033C89.6914 35.4043 89.9831 35.6483 90.3638 35.6895C90.9799 35.7563 91.4448 35.4341 92.0064 35.2542C92.6043 35.0627 93.2577 35.1014 93.8181 35.3902C94.9718 35.9846 95.2922 37.4966 95.2709 38.6909C95.2626 39.1516 95.9086 39.4657 96.2293 39.0878Z" fill="#B6CDD8"/>
<path d="M48.7556 28.4295C48.9274 27.5148 48.6773 26.907 47.8229 26.4118C47.0368 25.9561 46.0257 25.837 45.1502 26.0712C43.5111 26.5097 41.2844 28.9828 42.3013 30.7408C42.4557 31.0077 42.8444 31.1285 43.1122 30.9534C44.1796 30.2557 44.1356 28.7321 45.276 28.0581C46.2013 27.5114 47.1713 28.0486 47.8954 28.6566C48.1645 28.8825 48.678 28.843 48.7556 28.4295Z" fill="#B6CDD8"/>
<path d="M37.5756 114.141C36.9484 113.625 36.1898 113.244 35.3627 113.395C34.4594 113.56 33.6017 114.08 33.125 114.878C32.6756 115.631 32.5689 116.591 32.8303 117.426C33.0661 118.179 33.7418 119.019 34.6229 118.732C34.8502 118.658 34.9397 118.46 34.9061 118.234C34.7636 117.274 33.8764 116.573 34.4803 115.554C34.9913 114.691 36.5238 114.393 37.4323 114.487C37.6019 114.505 37.7072 114.249 37.5756 114.141Z" fill="#B6CDD8"/>
<path d="M82.4788 123.526C82.0889 121.52 79.6574 120.108 77.7943 121.206C76.1864 122.154 75.6345 125.64 78.0449 125.874C78.5599 125.923 78.8194 125.37 78.7479 124.951C78.6605 124.439 78.2056 124.038 78.2348 123.504C78.2674 122.908 78.8537 122.521 79.407 122.561C80.3455 122.629 81.2056 123.588 82.0952 123.909C82.3367 123.997 82.5203 123.739 82.4788 123.526Z" fill="#B6CDD8"/>
<path d="M68.3015 122.782C68.7709 121.537 67.5552 120.324 66.3144 120.337C65.7357 120.342 65.0545 120.602 64.7149 121.093C64.4397 121.49 64.4355 122.227 64.8295 122.557C64.9528 122.66 65.1025 122.663 65.2265 122.557C65.5203 122.305 66.0234 121.803 66.442 121.864C66.7201 121.905 66.8849 122.12 67.0606 122.314C67.264 122.538 67.492 122.725 67.702 122.94C67.9043 123.147 68.2098 123.025 68.3015 122.782Z" fill="#B6CDD8"/>
<path d="M82.2685 26.2493C83.2375 24.7918 81.0078 23.5262 79.8093 23.47C78.2125 23.3952 76.1373 24.6189 76.2191 26.3812C76.2332 26.6838 76.4961 26.8839 76.7917 26.8174C77.8272 26.5845 78.3955 25.6275 79.3944 25.3567C80.453 25.0698 80.8287 25.9242 81.5643 26.4339C81.8022 26.5988 82.1242 26.4664 82.2685 26.2493Z" fill="#B6CDD8"/>
<path d="M77.8288 85.5995C76.9958 84.0138 74.9661 84.1483 73.7104 85.1436C73.0155 85.6943 72.5623 86.5277 72.3671 87.3865C72.2488 87.9068 72.203 88.4201 72.2891 88.9472C72.3838 89.5274 72.5995 89.7945 72.9406 90.2453C73.1818 90.5639 73.6611 90.5415 73.7958 90.1335C73.9916 89.5401 74.1518 89.0579 74.2182 88.427C74.277 87.8674 74.3232 87.3216 74.6728 86.8481C75.1848 86.1548 76.3039 85.9409 77.0393 86.3891C77.5519 86.7014 78.0881 86.0931 77.8288 85.5995Z" fill="#B6CDD8"/>
<path d="M39.298 132.199C39.0953 131.905 38.9082 131.588 38.734 131.25C36.5486 134.028 32.674 133.36 32.1022 127.877C30.7925 129.275 29.4048 130.151 28.0483 130.593C23.3031 89.874 39.4149 61.2886 31.9593 58.2637C34.2176 54.0123 45.132 54.2721 46.1896 59.5475C43.1177 62.1992 41.5044 64.8844 40.6676 66.576C39.7418 68.4478 39.269 70.1094 38.8952 71.4234C38.0297 74.4653 37.7316 76.9761 37.5958 78.4398C36.2242 93.2273 37.5958 112.223 37.5958 112.223C37.9822 117.573 38.5269 124.342 39.298 132.199Z" fill="#64DAF9"/>
<path d="M35.8204 133.612C35.4884 133.612 35.1568 133.567 34.832 133.473C33.2573 133.018 32.1164 131.571 31.5917 129.421C30.552 130.305 29.4441 130.941 28.2852 131.319C28.0679 131.39 27.8295 131.359 27.636 131.236C27.4433 131.112 27.3159 130.908 27.2896 130.681C24.6185 107.761 28.5471 88.5353 31.1469 75.813C33.0151 66.6699 34.365 60.0638 31.6721 58.9711C31.4718 58.8899 31.3151 58.7275 31.2413 58.5241C31.1673 58.3207 31.1831 58.0957 31.2845 57.9045C32.771 55.1068 37.1195 54.1649 40.6459 54.6806C44.0954 55.1853 46.4482 56.9482 46.9391 59.3967C46.9932 59.6669 46.8978 59.9453 46.6893 60.1253C44.3984 62.1028 42.6029 64.3869 41.3526 66.9142C40.4586 68.7215 39.9999 70.3332 39.6314 71.628C38.9962 73.8613 38.5794 76.1111 38.3569 78.5098C37.0065 93.0661 38.3445 111.978 38.3581 112.167C38.8344 118.765 39.4066 125.479 40.0585 132.123C40.0928 132.47 39.8879 132.796 39.5608 132.916C39.2333 133.035 38.8668 132.919 38.6691 132.632C38.6413 132.592 38.6135 132.551 38.5859 132.509C37.7561 133.226 36.7853 133.612 35.8204 133.612ZM32.1026 127.112C32.184 127.112 32.2662 127.125 32.3462 127.152C32.6297 127.247 32.8317 127.5 32.8627 127.797C33.0991 130.067 33.9941 131.64 35.2563 132.005C36.2323 132.287 37.3076 131.828 38.1335 130.777C38.1998 130.693 38.2815 130.625 38.3731 130.576C37.7878 124.474 37.2705 118.327 36.834 112.277C36.8201 112.087 35.4733 93.0494 36.8352 78.3689C37.0666 75.8751 37.5 73.5349 38.1603 71.2137C38.547 69.8553 39.027 68.1692 39.9828 66.2369C41.2573 63.6605 43.0547 61.3244 45.3289 59.2866C44.7833 57.7104 42.9894 56.5681 40.4246 56.1931C37.4292 55.7551 34.405 56.541 33.0662 58.0151C35.9057 60.1577 34.6392 66.3554 32.644 76.1191C30.1019 88.561 26.2791 107.272 28.6955 129.511C29.6926 129.034 30.6477 128.312 31.5447 127.354C31.6918 127.197 31.8949 127.112 32.1026 127.112Z" fill="#650000"/>
<path d="M90.6269 67.1234C87.5553 69.9612 85.9415 72.8327 85.1048 74.644C84.1797 76.6476 83.7067 78.425 83.3325 79.831C82.4671 83.0871 82.1683 85.7741 82.0331 87.3411C80.661 103.164 82.0331 123.491 82.0331 123.491C82.3112 127.623 82.6724 132.537 83.1402 138.114C83.1428 138.14 83.1453 138.166 83.1479 138.192C83.0804 138.127 83.0154 138.062 82.9505 137.997C82.7919 137.836 82.6412 137.667 82.4931 137.493C82.4697 137.54 82.4437 137.584 82.4177 137.628C82.1292 137.42 81.8538 137.186 81.5887 136.937C81.3601 136.721 81.1418 136.493 80.9339 136.248C79.4396 138.969 75.4533 139.99 72.0048 137.839C69.0267 97.1069 83.5455 68.8515 76.3966 65.7487C78.6549 61.201 89.5693 61.4791 90.6269 67.1234Z" fill="#64DAF9"/>
<path d="M75.9268 139.78C74.4478 139.78 72.9342 139.343 71.5887 138.504C71.3759 138.371 71.2391 138.145 71.221 137.894C69.6023 115.755 73.1883 96.9726 75.5611 84.5438C77.4342 74.7314 78.7879 67.6417 76.0838 66.4681C75.8861 66.3825 75.7322 66.2191 75.6582 66.0167C75.5844 65.8143 75.5968 65.5903 75.6927 65.3973C77.143 62.4761 81.4163 61.4339 84.8897 61.9172C88.4654 62.4131 90.8991 64.3046 91.4 66.9769C91.4497 67.2429 91.3592 67.5156 91.1606 67.6991C88.8658 69.8194 87.0683 72.2662 85.8187 74.9717C84.9225 76.9129 84.4623 78.6413 84.0928 80.03C83.4551 82.4289 83.0379 84.8414 82.8166 87.4067C81.4654 102.99 82.8039 123.234 82.8178 123.437C83.1399 128.222 83.5119 133.138 83.9239 138.046L83.9306 138.116C83.9619 138.443 83.786 138.755 83.4898 138.898C83.193 139.041 82.8394 138.985 82.6028 138.756C82.5313 138.688 82.4622 138.619 82.3937 138.55C82.3428 138.498 82.2919 138.445 82.2405 138.39C82.1399 138.368 82.0438 138.326 81.9586 138.264C81.6594 138.049 81.3621 137.801 81.05 137.508C81.0452 137.503 81.0405 137.498 81.0358 137.494C80.2257 138.483 79.0864 139.199 77.741 139.551C77.1519 139.705 76.5424 139.78 75.9268 139.78ZM72.7596 137.369C74.2337 138.185 75.8476 138.42 77.3435 138.03C78.6341 137.693 79.6645 136.925 80.2448 135.868C80.3692 135.641 80.597 135.49 80.8542 135.464C81.1112 135.437 81.3648 135.54 81.5324 135.737C81.7184 135.955 81.9188 136.166 82.1279 136.363C82.1565 136.39 82.1848 136.416 82.2131 136.442C81.857 132.099 81.5334 127.77 81.2488 123.542C81.2351 123.338 79.8885 102.973 81.25 87.2714C81.479 84.6147 81.9119 82.1143 82.5727 79.6272C82.9586 78.1782 83.4379 76.3773 84.3912 74.3126C85.6654 71.5537 87.4688 69.0495 89.7547 66.8629C89.2104 65.0988 87.3476 63.8455 84.6736 63.4744C81.6933 63.0617 78.7796 63.9122 77.4943 65.4907C80.3672 67.7525 79.1025 74.3783 77.1054 84.8385C74.7626 97.1097 71.2296 115.614 72.7596 137.369Z" fill="#650000"/>
<path d="M63.7336 88.3129C63.4062 88.6273 63.0663 88.8976 62.7164 89.1314C60.4046 90.6933 57.7554 90.6621 56.7357 90.6517C55.7759 90.6413 51.4547 90.5919 48.7381 87.2734C48.4832 86.9616 48.2557 86.6393 48.0583 86.3067C45.649 82.3255 46.9936 76.9879 48.4882 74.0202C48.868 73.2665 52.1271 66.7984 57.3605 67.1337C62.7539 67.4793 65.1957 74.727 65.4831 75.5794C65.653 76.0809 68.2073 84.0251 63.7336 88.3129Z" fill="#650000"/>
<path d="M65.7328 84.1192C64.9956 85.8213 64.0108 87.5729 62.7162 89.132C60.4044 90.6938 57.7552 90.6627 56.7355 90.6523C55.7757 90.6419 51.4545 90.5925 48.7379 87.274C48.483 86.9622 48.2555 86.6399 48.0581 86.3073C50.7673 83.0356 54.8336 81.5102 58.6874 83.1006C59.0973 83.2695 59.5022 83.4722 59.902 83.7112C60.7068 83.4176 62.0389 83.2617 63.3136 83.3864C64.2182 83.4747 65.093 83.7034 65.7328 84.1192Z" fill="#FC9595"/>
<path d="M63.3226 80.4685L63.3143 83.3925C63.3143 83.3925 60.1015 82.9454 57.4473 87.2629C57.4473 87.2629 57.8722 80.2358 63.3226 80.4685Z" fill="#650000"/>
<path d="M57.0701 91.418C56.9404 91.418 56.8257 91.4168 56.7274 91.4158C53.0387 91.3726 50.0721 90.1076 48.1465 87.7574C44.5109 83.3202 46.2214 76.8178 47.8053 73.6754C48.7127 71.8755 52.0818 66.0242 57.4091 66.3702C62.8888 66.7201 65.5285 73.3198 66.2075 75.3348C66.3287 75.6948 69.1226 84.2059 64.2623 88.8644C61.7675 91.2556 58.5104 91.418 57.0701 91.418ZM56.9683 67.8851C52.7702 67.8851 49.9504 72.8172 49.1709 74.3636C47.7532 77.1764 46.1911 82.9583 49.3291 86.7884C50.9591 88.7778 53.5232 89.8491 56.7438 89.8866C57.8958 89.902 60.9361 89.9345 63.2044 87.7603C67.3714 83.7662 64.8669 76.1456 64.7582 75.823C64.1565 74.0365 61.8413 68.1853 57.3117 67.896C57.1962 67.8888 57.0818 67.8851 56.9683 67.8851Z" fill="#650000"/>
<path d="M109.479 94.2465L116.965 75.6274C128.836 80.6645 135.183 90.8301 135.981 98.0706C136.471 102.482 134.893 105.808 131.252 106.229C129.571 106.423 127.852 105.902 126.506 104.883C123.582 102.661 120.517 100.598 117.345 98.6656C114.792 97.1118 112.167 95.6437 109.479 94.2465Z" fill="white"/>
<path d="M109.479 94.2465L116.965 75.6274C128.836 80.6645 135.183 90.8301 135.981 98.0706C135.741 98.9791 135.477 99.8848 135.214 100.784C134.779 95.0951 131.695 89.5519 126.942 85.9131C125.23 84.6027 123.123 83.491 120.98 83.7452C118.42 84.0479 116.591 86.2304 115.712 88.5095C115.064 90.18 114.781 92.0102 115.093 93.7935C115.405 95.5768 116.346 97.3052 117.843 98.4635L117.345 98.6657C114.792 97.1118 112.167 95.6437 109.479 94.2465Z" fill="#B6CDD8"/>
<path d="M109.478 94.2469C114.83 95.9266 119.519 99.0906 124.153 102.169C125.253 102.904 126.414 103.805 127.502 104.534C129.455 105.761 132.454 105.773 133.924 103.875C135.424 101.919 135.321 99.04 134.841 96.656C133.24 89.3567 128.075 83.3575 122.155 79.0176C120.486 77.7874 118.761 76.6975 116.965 75.6294C119.659 76.375 122.215 77.6299 124.555 79.2071C130.294 83.1832 135.061 89.3945 136.609 96.2864C137.193 99.1608 137.289 102.579 135.33 105.016C133.262 107.61 129.241 107.689 126.609 105.983C125.437 105.185 124.379 104.281 123.229 103.478C118.802 100.16 113.868 97.6291 109.478 94.2469Z" fill="#650000"/>
<path d="M89.8118 153.9C88.2247 153.9 86.695 153.329 85.5045 152.293C84.6301 151.531 83.8317 150.594 83.1259 149.502C81.729 149.308 80.3719 149.103 79.0851 148.893C76.6462 148.497 74.1889 148.04 71.7826 147.534C70.5059 147.267 69.1644 146.968 67.7961 146.645C63.9616 145.735 60.8117 143.175 59.1526 139.62C58.8946 139.068 58.6366 138.468 58.3821 137.83C56.1416 138.073 54.0166 137.206 52.2575 135.33C51.7754 135.587 51.2909 135.821 50.8069 136.029C50.3959 141.614 49.3194 145.384 47.4361 147.859C46.2433 149.427 44.3284 150.362 42.314 150.362C40.9268 150.362 39.6022 149.936 38.4829 149.128C34.1841 146.028 31.3968 139.374 31.0052 131.296C30.2768 131.761 29.5211 132.126 28.7453 132.388C28.7123 132.401 28.6787 132.413 28.6443 132.424C25.1798 133.557 21.5775 132.488 19.4684 129.7C17.887 127.609 16.9714 124.048 18.8123 120.035C17.0928 118.966 16.3081 117.544 15.9505 116.458C15.2946 114.469 15.5792 112.131 16.7226 109.921C15.9994 109.172 15.4759 108.247 15.2159 107.238C14.9115 106.056 14.9795 104.814 15.4017 103.673C13.6209 100.922 13.5675 96.3361 14.1553 92.7914C14.2601 92.1596 14.4848 90.9892 14.8759 89.7644C13.2262 90.423 11.6211 91.1183 10.0807 91.8425C8.30259 92.6784 6.19079 92.8139 4.39259 92.2085C1.42525 91.2097 -0.208784 88.5543 0.0214523 85.1054C0.400399 79.4325 5.99784 71.3332 15.6599 67.2066C15.8407 65.5944 16.5562 64.061 17.7581 62.7093C16.9215 60.2955 16.8753 58.0419 17.6389 56.3018C18.002 55.4751 18.5274 54.7788 19.2071 54.2213C17.9692 51.6637 17.5917 48.4947 18.2563 45.8609C18.6802 44.1805 19.4994 42.8199 20.6457 41.8774C19.9357 38.5324 20.8123 35.5653 23.0123 33.7947C21.975 31.2731 21.8712 28.5758 22.7592 26.4147C23.2877 25.1291 24.3893 23.4611 26.6709 22.4322C26.586 20.6338 27.0963 18.9205 28.123 17.6267C28.8339 16.7303 29.7299 16.0911 30.7493 15.7449C31.0324 12.3502 33.2108 9.3394 36.3843 8.07689C39.322 6.90847 42.4354 7.49604 44.9205 9.63143C46.1273 8.49678 47.7129 7.81761 49.3567 7.7662C51.1472 7.71183 52.7693 8.3679 54.0248 9.6446C55.6611 8.57454 57.5772 8.10395 59.4275 8.34014C60.328 8.45564 61.1733 8.73546 61.9538 9.17528C62.9074 7.36741 63.9214 5.78256 64.9773 4.45124C67.3009 1.52291 70.9477 -0.138433 74.7273 0.00905663C82.8242 0.327685 90.5275 0.895622 97.624 1.69746C101.946 2.18443 106.142 2.76803 110.096 3.43255C110.11 3.43478 110.126 3.43702 110.134 3.4385C113.001 3.92323 115.802 4.46309 118.455 5.04247C118.892 5.13783 119.329 5.23594 119.766 5.33399C123.971 6.28759 127.933 7.37031 131.544 8.55237C139.097 11.024 145.132 16.9299 147.69 24.3505C151.885 36.525 150.404 54.022 148.836 72.5462L148.637 74.9235C148.486 76.7157 148.335 78.521 148.192 80.3364C148.107 81.4077 148.022 82.4827 147.941 83.5607C147.682 87.0311 147.483 90.1279 147.337 92.9959C147.523 93.0947 147.7 93.2094 147.864 93.3383C147.864 93.3386 147.865 93.3386 147.865 93.3388C148.679 93.9783 149.185 94.9393 149.252 95.9756C149.538 100.384 149.193 104.738 148.225 108.917C147.847 110.553 146.778 111.936 145.31 112.728C145.212 113.576 145.16 114.504 145.121 115.331C145.099 115.824 145.079 116.337 145.06 116.866L145.038 117.45C144.779 124.404 144.388 134.913 136.399 142.912C132.135 147.181 126.37 149.873 120.165 150.491C116.604 150.846 112.845 151.059 108.993 151.124C108.57 151.147 108.13 151.153 107.681 151.141L107.563 151.142C104.088 151.168 100.485 151.075 96.8557 150.862C96.3732 150.834 95.8884 150.802 95.4027 150.769C95.1263 151.16 94.8362 151.521 94.5363 151.848C93.3401 153.152 91.6184 153.9 89.8118 153.9ZM59.1109 135.394C59.5785 135.394 60.0122 135.683 60.1825 136.139C60.5257 137.058 60.8768 137.903 61.2264 138.652C62.588 141.569 65.1744 143.671 68.3233 144.418C69.6715 144.736 70.9939 145.031 72.2522 145.294C74.625 145.793 77.0475 146.243 79.4531 146.634C80.8845 146.868 82.403 147.094 83.968 147.307C84.3126 147.354 84.6174 147.555 84.7959 147.854C85.4473 148.943 86.1913 149.856 87.0073 150.567C87.7811 151.24 88.7769 151.611 89.8117 151.611C90.9786 151.611 92.086 151.134 92.8493 150.302C93.1995 149.92 93.5368 149.472 93.8519 148.972C94.0769 148.614 94.4802 148.406 94.9023 148.44C95.5994 148.49 96.2969 148.537 96.9893 148.577C100.567 148.787 104.119 148.88 107.544 148.853L107.683 148.852C107.698 148.851 107.712 148.852 107.726 148.852C108.125 148.864 108.514 148.859 108.886 148.838C108.901 148.837 108.916 148.836 108.932 148.836C112.73 148.772 116.432 148.563 119.938 148.214C125.618 147.648 130.889 145.191 134.779 141.295C142.134 133.931 142.505 123.962 142.75 117.365L142.773 116.78C142.793 116.244 142.812 115.725 142.835 115.226C142.885 114.14 142.959 112.881 143.127 111.784C143.189 111.382 143.459 111.043 143.838 110.893C144.928 110.462 145.734 109.53 145.996 108.401C146.913 104.44 147.24 100.309 146.968 96.1237C146.943 95.736 146.755 95.3769 146.451 95.1388C146.295 95.0164 146.113 94.932 145.91 94.8882C145.364 94.7698 144.983 94.2733 145.009 93.7146C145.16 90.5948 145.373 87.2177 145.659 83.3907C145.739 82.3094 145.825 81.23 145.911 80.1554C146.054 78.3374 146.205 76.5286 146.356 74.7326L146.555 72.3543C148.102 54.0768 149.564 36.8137 145.526 25.0961C143.201 18.3492 137.708 12.9775 130.833 10.7274C127.288 9.5674 123.395 8.50405 119.262 7.56663C118.832 7.47005 118.399 7.37296 117.967 7.27857C115.349 6.70692 112.584 6.17397 109.748 5.69448C105.811 5.03316 101.652 4.45455 97.3674 3.9718C90.3257 3.17612 82.6786 2.6124 74.6378 2.29606C71.5833 2.1796 68.6418 3.51539 66.7699 5.8738C65.5915 7.35958 64.4606 9.20768 63.4084 11.3667C63.2535 11.685 62.96 11.9135 62.6135 11.9858C62.2661 12.058 61.9063 11.9659 61.6371 11.7362C60.9 11.1072 60.0587 10.7284 59.1366 10.6105C57.5923 10.4126 55.8899 10.9607 54.5901 12.0769C54.346 12.2868 54.0256 12.3841 53.7053 12.3449C53.3857 12.3057 53.0977 12.1338 52.9112 11.8713C52.0348 10.6366 50.8302 10.0016 49.4296 10.054C48.0776 10.0962 46.7294 10.8248 45.9097 11.9558C45.7078 12.2339 45.3919 12.4067 45.049 12.4264C44.7088 12.4507 44.3722 12.3111 44.1401 12.0578C42.1735 9.91471 39.6545 9.23901 37.23 10.2038C34.6523 11.2292 32.9554 13.8096 33.0076 16.6247C33.0183 17.1968 32.6046 17.689 32.0394 17.7767C31.2082 17.9058 30.4739 18.3458 29.9159 19.0494C29.1115 20.0631 28.7877 21.5026 29.0271 22.9993C29.1155 23.5516 28.7916 24.0868 28.2614 24.2648C26.6108 24.8191 25.4719 25.8351 24.8759 27.2848C24.1302 29.0994 24.353 31.4856 25.4717 33.6677C25.7493 34.2091 25.5549 34.8729 25.0289 35.1788C22.9189 36.4061 22.1766 38.9731 23.0433 42.0452C23.1823 42.5384 22.9765 43.0641 22.5394 43.3318C21.5312 43.9492 20.8368 44.9885 20.4753 46.4208C19.8768 48.7929 20.363 51.835 21.6851 53.9908C21.8498 54.2589 21.8965 54.5833 21.8145 54.887C21.7326 55.191 21.529 55.4475 21.2518 55.5967C20.5438 55.9777 20.0474 56.5093 19.7345 57.2218C19.1561 58.5397 19.3049 60.4819 20.1425 62.5508C20.3171 62.9819 20.2133 63.4758 19.8798 63.8004C18.6137 65.0321 17.9304 66.4617 17.9036 67.9341L17.9045 68.0011C17.9 68.465 17.6159 68.8802 17.1851 69.0523C8.31118 72.602 2.65068 80.0795 2.305 85.258C2.14357 87.6755 3.14411 89.3736 5.12256 90.0397C6.36844 90.4588 7.85646 90.359 9.10707 89.7715C11.4925 88.65 14.028 87.5961 16.6425 86.6393C17.1051 86.4694 17.6246 86.6154 17.9318 87.0018C18.2385 87.3878 18.2636 87.9268 17.9939 88.3396C17.0234 89.8254 16.5385 92.4093 16.413 93.1659C15.889 96.326 15.8836 100.744 17.5921 102.797C17.8854 103.15 17.94 103.643 17.7307 104.052C17.3132 104.865 17.2072 105.794 17.4319 106.667C17.6463 107.498 18.1518 108.241 18.8556 108.757C19.3394 109.112 19.4665 109.781 19.1469 110.289C17.9705 112.158 17.5975 114.146 18.1238 115.742C18.53 116.974 19.432 117.902 20.805 118.5C21.103 118.63 21.3317 118.88 21.4343 119.189C21.5366 119.497 21.5029 119.835 21.3414 120.117C18.8444 124.485 20.6734 127.499 21.2935 128.319C22.8019 130.313 25.4024 131.071 27.9228 130.252C27.9444 130.244 27.966 130.236 27.9881 130.228C28.9777 129.898 29.9382 129.342 30.8429 128.576C31.1451 128.32 31.5589 128.238 31.9349 128.36C32.3116 128.482 32.5987 128.79 32.6935 129.175C32.8137 129.661 32.9734 130.113 33.1681 130.516C33.2359 130.657 33.2744 130.809 33.2811 130.965C33.5955 138.341 36.1016 144.59 39.8214 147.272C40.5486 147.797 41.4105 148.074 42.314 148.074C43.6182 148.074 44.8521 147.476 45.6148 146.473C47.2913 144.27 48.2307 140.678 48.5714 135.167C48.599 134.719 48.8865 134.328 49.3065 134.168C50.1759 133.837 51.0582 133.407 51.9284 132.888C52.4236 132.593 53.0611 132.712 53.4159 133.166C54.9878 135.178 56.8089 135.939 58.8306 135.43C58.9239 135.406 59.0183 135.394 59.1109 135.394Z" fill="#650000"/>
</svg>
