<svg width="41" height="35" viewBox="0 0 41 35" fill="none" xmlns="http://www.w3.org/2000/svg">
<mask id="path-1-outside-1_2291_3267" maskUnits="userSpaceOnUse" x="0.5" y="0" width="40" height="35" fill="black">
<rect fill="white" x="0.5" width="40" height="35"/>
<path d="M34.155 12.115C33.525 12.115 32.94 10.99 32.04 9.91C31.095 8.74 29.835 7.39 27.9 6.085L28.53 5.275C30.78 6.22 32.4 7.3 33.48 8.335C34.65 9.37 35.1 10.18 35.1 11.035C35.1 11.755 34.74 12.115 34.155 12.115ZM38.295 8.56C37.53 8.56 37.125 7.39 36.135 6.31C35.055 5.185 33.975 4.15 31.95 2.8L32.535 1.99C34.785 2.89 36.45 3.79 37.485 4.69C38.745 5.725 39.24 6.58 39.24 7.48C39.24 8.2 38.88 8.56 38.295 8.56ZM6.21 33.94C5.13 33.94 3.195 32.23 2.61 31.195C2.25 30.52 1.89 29.305 1.8 28.765L2.7 28.27C3.645 29.395 4.815 30.97 6.525 30.97C8.145 30.97 20.52 29.665 25.38 29.35C26.1 23.86 27 16.795 27.18 14.185C27.225 13.87 27.09 13.735 26.775 13.735C24.84 13.735 12.555 15.085 9.315 15.715C8.415 15.895 7.47 16.66 6.75 16.66C5.58 16.66 3.555 14.545 3.195 13.555C3.015 13.06 2.835 11.935 2.79 11.305L3.735 10.945C4.5 12.025 5.265 13.6 6.84 13.6C9.045 13.6 22.05 12.295 24.84 11.935C26.37 11.755 26.685 10.945 27.45 10.945C28.53 10.945 31.14 12.925 31.14 13.825C31.14 14.68 30.105 15.085 29.835 16.21C29.475 18.055 28.53 23.995 27.63 29.395C28.98 29.62 30.195 30.385 30.195 31.195C30.15 31.87 29.745 32.095 28.53 32.095C27.225 32.095 25.38 31.69 22.05 31.69C18.36 31.69 12.825 32.365 10.08 32.86C7.65 33.31 7.155 33.94 6.21 33.94Z"/>
</mask>
<path d="M34.155 12.115C33.525 12.115 32.94 10.99 32.04 9.91C31.095 8.74 29.835 7.39 27.9 6.085L28.53 5.275C30.78 6.22 32.4 7.3 33.48 8.335C34.65 9.37 35.1 10.18 35.1 11.035C35.1 11.755 34.74 12.115 34.155 12.115ZM38.295 8.56C37.53 8.56 37.125 7.39 36.135 6.31C35.055 5.185 33.975 4.15 31.95 2.8L32.535 1.99C34.785 2.89 36.45 3.79 37.485 4.69C38.745 5.725 39.24 6.58 39.24 7.48C39.24 8.2 38.88 8.56 38.295 8.56ZM6.21 33.94C5.13 33.94 3.195 32.23 2.61 31.195C2.25 30.52 1.89 29.305 1.8 28.765L2.7 28.27C3.645 29.395 4.815 30.97 6.525 30.97C8.145 30.97 20.52 29.665 25.38 29.35C26.1 23.86 27 16.795 27.18 14.185C27.225 13.87 27.09 13.735 26.775 13.735C24.84 13.735 12.555 15.085 9.315 15.715C8.415 15.895 7.47 16.66 6.75 16.66C5.58 16.66 3.555 14.545 3.195 13.555C3.015 13.06 2.835 11.935 2.79 11.305L3.735 10.945C4.5 12.025 5.265 13.6 6.84 13.6C9.045 13.6 22.05 12.295 24.84 11.935C26.37 11.755 26.685 10.945 27.45 10.945C28.53 10.945 31.14 12.925 31.14 13.825C31.14 14.68 30.105 15.085 29.835 16.21C29.475 18.055 28.53 23.995 27.63 29.395C28.98 29.62 30.195 30.385 30.195 31.195C30.15 31.87 29.745 32.095 28.53 32.095C27.225 32.095 25.38 31.69 22.05 31.69C18.36 31.69 12.825 32.365 10.08 32.86C7.65 33.31 7.155 33.94 6.21 33.94Z" fill="#FF0004"/>
<path d="M32.04 9.91L31.2621 10.5383L31.2669 10.5443L31.2718 10.5502L32.04 9.91ZM27.9 6.085L27.1106 5.47106L26.4537 6.31574L27.3409 6.91407L27.9 6.085ZM28.53 5.275L28.9172 4.35302L28.211 4.05638L27.7407 4.66106L28.53 5.275ZM33.48 8.335L32.7881 9.05699L32.8025 9.07078L32.8174 9.084L33.48 8.335ZM36.135 6.31L36.8722 5.63427L36.8644 5.62578L36.8564 5.61747L36.135 6.31ZM31.95 2.8L31.1393 2.21451L30.5315 3.05616L31.3953 3.63205L31.95 2.8ZM32.535 1.99L32.9064 1.06152L32.1815 0.771547L31.7243 1.40451L32.535 1.99ZM37.485 4.69L36.8288 5.4446L36.8394 5.45381L36.8503 5.46272L37.485 4.69ZM2.61 31.195L1.72765 31.6656L1.73341 31.6764L1.73944 31.6871L2.61 31.195ZM1.8 28.765L1.31808 27.8888L0.697094 28.2303L0.813606 28.9294L1.8 28.765ZM2.7 28.27L3.46571 27.6268L2.93756 26.9981L2.21808 27.3938L2.7 28.27ZM25.38 29.35L25.4447 30.3479L26.2647 30.2948L26.3715 29.48L25.38 29.35ZM27.18 14.185L26.1901 14.0436L26.1849 14.0797L26.1824 14.1162L27.18 14.185ZM9.315 15.715L9.12413 14.7334L9.11888 14.7344L9.315 15.715ZM3.195 13.555L4.13479 13.2133L3.195 13.555ZM2.79 11.305L2.434 10.3705L1.7396 10.635L1.79254 11.3762L2.79 11.305ZM3.735 10.945L4.55103 10.367L4.10313 9.73465L3.379 10.0105L3.735 10.945ZM24.84 11.935L24.7232 10.9418L24.712 10.9432L24.84 11.935ZM29.835 16.21L28.8626 15.9766L28.8576 15.9975L28.8535 16.0185L29.835 16.21ZM27.63 29.395L26.6436 29.2306L26.4792 30.217L27.4656 30.3814L27.63 29.395ZM30.195 31.195L31.1928 31.2615L31.195 31.2283V31.195H30.195ZM10.08 32.86L9.90253 31.8759L9.89791 31.8767L10.08 32.86ZM34.155 12.115V11.115C34.3064 11.115 34.3645 11.1837 34.2988 11.1326C34.2329 11.0815 34.13 10.9782 33.9755 10.7877C33.8237 10.6005 33.6633 10.3816 33.4642 10.1137C33.2716 9.85458 33.0523 9.56269 32.8082 9.26981L32.04 9.91L31.2718 10.5502C31.4777 10.7973 31.669 11.051 31.8589 11.3066C32.0423 11.5534 32.2363 11.8182 32.422 12.0473C32.605 12.273 32.8227 12.5185 33.0719 12.7121C33.3211 12.9057 33.6886 13.115 34.155 13.115V12.115ZM32.04 9.91L32.8179 9.28166C31.8302 8.05871 30.4992 6.63179 28.4591 5.25593L27.9 6.085L27.3409 6.91407C29.1708 8.14821 30.3598 9.42129 31.2621 10.5383L32.04 9.91ZM27.9 6.085L28.6894 6.69894L29.3194 5.88894L28.53 5.275L27.7407 4.66106L27.1106 5.47106L27.9 6.085ZM28.53 5.275L28.1428 6.19698C30.3042 7.10479 31.8138 8.12332 32.7881 9.05699L33.48 8.335L34.1719 7.61301C32.9862 6.47668 31.2558 5.3352 28.9172 4.35302L28.53 5.275ZM33.48 8.335L32.8174 9.084C33.9072 10.048 34.1 10.6069 34.1 11.035H35.1H36.1C36.1 9.75308 35.3928 8.69196 34.1426 7.586L33.48 8.335ZM35.1 11.035H34.1C34.1 11.1338 34.0874 11.1862 34.0816 11.2047C34.0765 11.2206 34.0795 11.2026 34.1059 11.1735C34.1184 11.1597 34.1331 11.1469 34.149 11.1361C34.1647 11.1254 34.1784 11.1188 34.1878 11.1152C34.2062 11.108 34.1998 11.115 34.155 11.115V12.115V13.115C34.6572 13.115 35.1914 12.954 35.5879 12.5165C35.9712 12.0936 36.1 11.55 36.1 11.035H35.1ZM38.295 8.56V7.56C38.4662 7.56 38.4476 7.7043 38.0994 7.24C37.8485 6.9055 37.4088 6.21966 36.8722 5.63427L36.135 6.31L35.3979 6.98572C35.8512 7.48034 36.109 7.91949 36.4994 8.44C36.7924 8.8307 37.3588 9.56 38.295 9.56V8.56ZM36.135 6.31L36.8564 5.61747C35.7412 4.45581 34.606 3.3688 32.5047 1.96795L31.95 2.8L31.3953 3.63205C33.344 4.9312 34.3688 5.91419 35.4136 7.00253L36.135 6.31ZM31.95 2.8L32.7607 3.38549L33.3457 2.57549L32.535 1.99L31.7243 1.40451L31.1393 2.21451L31.95 2.8ZM32.535 1.99L32.1636 2.91847C34.3812 3.80551 35.9216 4.65573 36.8288 5.4446L37.485 4.69L38.1412 3.93539C36.9784 2.92427 35.1888 1.97449 32.9064 1.06152L32.535 1.99ZM37.485 4.69L36.8503 5.46272C38.0208 6.4242 38.24 7.02394 38.24 7.48H39.24H40.24C40.24 6.13605 39.4692 5.0258 38.1197 3.91727L37.485 4.69ZM39.24 7.48H38.24C38.24 7.57876 38.2274 7.63121 38.2216 7.6497C38.2165 7.66558 38.2195 7.64762 38.2459 7.61848C38.2584 7.60468 38.2731 7.59185 38.289 7.58106C38.3047 7.57036 38.3184 7.56382 38.3278 7.56018C38.3462 7.55305 38.3398 7.56 38.295 7.56V8.56V9.56C38.7972 9.56 39.3314 9.39902 39.7279 8.96152C40.1112 8.53858 40.24 7.99503 40.24 7.48H39.24ZM6.21 33.94V32.94C6.17409 32.94 6.01909 32.9156 5.73227 32.7678C5.46553 32.6303 5.16086 32.4257 4.85139 32.1766C4.21334 31.6631 3.68765 31.0693 3.48056 30.7029L2.61 31.195L1.73944 31.6871C2.11735 32.3557 2.85166 33.1344 3.59737 33.7346C3.97977 34.0424 4.39791 34.33 4.81601 34.5455C5.21404 34.7507 5.70591 34.94 6.21 34.94V33.94ZM2.61 31.195L3.49235 30.7244C3.19364 30.1643 2.86252 29.0573 2.78639 28.6006L1.8 28.765L0.813606 28.9294C0.917484 29.5527 1.30636 30.8757 1.72765 31.6656L2.61 31.195ZM1.8 28.765L2.28192 29.6412L3.18192 29.1462L2.7 28.27L2.21808 27.3938L1.31808 27.8888L1.8 28.765ZM2.7 28.27L1.9343 28.9132C2.37329 29.4358 2.97099 30.1987 3.6754 30.8016C4.39666 31.4189 5.34013 31.97 6.525 31.97L6.525 30.97V29.97C5.99987 29.97 5.50334 29.7336 4.97585 29.2821C4.43151 28.8163 3.97171 28.2292 3.46571 27.6268L2.7 28.27ZM6.525 30.97L6.525 31.97C7.39667 31.97 10.972 31.6352 14.8308 31.2738C18.7426 30.9074 23.0328 30.5042 25.4447 30.3479L25.38 29.35L25.3153 28.3521C22.8672 28.5108 18.5399 28.9176 14.6442 29.2825C10.6955 29.6523 7.27333 29.97 6.525 29.97V30.97ZM25.38 29.35L26.3715 29.48C27.0892 24.0075 27.9949 16.9028 28.1776 14.2538L27.18 14.185L26.1824 14.1162C26.0051 16.6872 25.1108 23.7125 24.3885 29.22L25.38 29.35ZM27.18 14.185L28.17 14.3264C28.2102 14.0444 28.2135 13.5603 27.8473 13.1636C27.4959 12.7829 27.0321 12.735 26.775 12.735V13.735V14.735C26.8329 14.735 26.5941 14.7546 26.3777 14.5202C26.2679 14.4012 26.2179 14.2713 26.199 14.1756C26.1901 14.1309 26.1884 14.0961 26.1884 14.0752C26.1884 14.0645 26.1889 14.0565 26.1893 14.0514C26.1897 14.0463 26.19 14.0436 26.1901 14.0436L27.18 14.185ZM26.775 13.735V12.735C25.7375 12.735 22.1139 13.0818 18.4231 13.495C14.7137 13.9102 10.7909 14.4093 9.12413 14.7334L9.315 15.715L9.50587 16.6966C11.0791 16.3907 14.9188 15.8998 18.6456 15.4825C22.3911 15.0632 25.8775 14.735 26.775 14.735V13.735ZM9.315 15.715L9.11888 14.7344C8.51277 14.8556 7.91689 15.1661 7.52703 15.356C7.30646 15.4635 7.13465 15.5436 6.98467 15.5984C6.83146 15.6544 6.76307 15.66 6.75 15.66V16.66V17.66C7.09693 17.66 7.41666 17.5699 7.67127 17.4769C7.9291 17.3826 8.18479 17.2603 8.40297 17.154C8.89061 16.9164 9.21723 16.7544 9.51112 16.6956L9.315 15.715ZM6.75 16.66V15.66C6.75162 15.66 6.74094 15.6601 6.71608 15.6552C6.6913 15.6503 6.65649 15.6411 6.61118 15.625C6.51878 15.5921 6.40159 15.537 6.2621 15.4542C5.98127 15.2875 5.66482 15.0412 5.35191 14.7485C5.04125 14.4579 4.75513 14.1412 4.53142 13.8494C4.29586 13.5421 4.17333 13.3192 4.13479 13.2133L3.195 13.555L2.25521 13.8967C2.39667 14.2858 2.66227 14.6985 2.94421 15.0662C3.23799 15.4494 3.59875 15.8471 3.98559 16.209C4.37018 16.5688 4.80186 16.9132 5.24102 17.1739C5.65609 17.4204 6.18959 17.66 6.75 17.66V16.66ZM3.195 13.555L4.13479 13.2133C4.00169 12.8472 3.83005 11.83 3.78746 11.2338L2.79 11.305L1.79254 11.3762C1.83995 12.04 2.02831 13.2728 2.25521 13.8967L3.195 13.555ZM2.79 11.305L3.146 12.2395L4.091 11.8795L3.735 10.945L3.379 10.0105L2.434 10.3705L2.79 11.305ZM3.735 10.945L2.91898 11.523C3.22256 11.9516 3.70852 12.7651 4.24594 13.3525C4.83388 13.9951 5.6665 14.6 6.84 14.6V13.6V12.6C6.4385 12.6 6.10112 12.4174 5.72156 12.0025C5.29148 11.5324 5.01244 11.0184 4.55103 10.367L3.735 10.945ZM6.84 13.6V14.6C8.00335 14.6 11.8686 14.2665 15.716 13.8979C19.5908 13.5268 23.5547 13.1091 24.968 12.9268L24.84 11.935L24.712 10.9432C23.3353 11.1209 19.4017 11.5357 15.5253 11.9071C11.6214 12.281 7.88165 12.6 6.84 12.6V13.6ZM24.84 11.935L24.9568 12.9281C25.9171 12.8152 26.5191 12.493 26.956 12.2242C27.4408 11.9258 27.4211 11.945 27.45 11.945V10.945V9.945C26.7139 9.945 26.1542 10.3692 25.9078 10.5208C25.6134 10.702 25.2929 10.8748 24.7232 10.9418L24.84 11.935ZM27.45 10.945V11.945C27.4442 11.945 27.4944 11.946 27.6139 11.9843C27.7265 12.0203 27.8676 12.0786 28.0324 12.1616C28.3628 12.3279 28.7366 12.5673 29.0892 12.8393C29.4438 13.1129 29.7462 13.3958 29.9488 13.6375C30.0503 13.7587 30.11 13.8497 30.1399 13.9069C30.1758 13.9754 30.14 13.9391 30.14 13.825H31.14H32.14C32.14 13.4859 32.0226 13.1909 31.9116 12.9788C31.7946 12.7555 31.6419 12.5441 31.4818 12.3531C31.1613 11.9705 30.7437 11.5896 30.3108 11.2557C29.8759 10.9202 29.3947 10.6083 28.9319 10.3753C28.5043 10.1599 27.964 9.945 27.45 9.945V10.945ZM31.14 13.825H30.14C30.14 13.831 30.1592 13.8722 29.8226 14.2736C29.5442 14.6055 29.0599 15.1547 28.8626 15.9766L29.835 16.21L30.8074 16.4434C30.8801 16.1403 31.0483 15.9245 31.3549 15.5589C31.6033 15.2628 32.14 14.674 32.14 13.825H31.14ZM29.835 16.21L28.8535 16.0185C28.49 17.8813 27.5397 23.8539 26.6436 29.2306L27.63 29.395L28.6164 29.5594C29.5203 24.1361 30.46 18.2287 30.8165 16.4015L29.835 16.21ZM27.63 29.395L27.4656 30.3814C28.0204 30.4739 28.5213 30.6752 28.8573 30.9031C29.2412 31.1637 29.195 31.296 29.195 31.195H30.195H31.195C31.195 30.284 30.5413 29.6288 29.9803 29.2481C29.3712 28.8348 28.5896 28.5411 27.7944 28.4086L27.63 29.395ZM30.195 31.195L29.1972 31.1285C29.1919 31.2075 29.1806 31.1934 29.2088 31.1415C29.2452 31.0748 29.2982 31.0334 29.3237 31.0195C29.3326 31.0147 29.2908 31.0388 29.1471 31.0605C29.0063 31.0818 28.8081 31.095 28.53 31.095V32.095V33.095C29.1418 33.095 29.7772 33.0493 30.2788 32.7767C30.563 32.6223 30.8017 32.398 30.9646 32.0992C31.1194 31.8154 31.1756 31.52 31.1928 31.2615L30.195 31.195ZM28.53 32.095V31.095C27.942 31.095 27.2401 31.0036 26.1462 30.8972C25.0862 30.7941 23.758 30.69 22.05 30.69V31.69V32.69C23.672 32.69 24.9313 32.7884 25.9525 32.8878C26.94 32.9839 27.813 33.095 28.53 33.095V32.095ZM22.05 31.69V30.69C18.2812 30.69 12.6834 31.3744 9.90253 31.8759L10.08 32.86L10.2575 33.8441C12.9666 33.3556 18.4388 32.69 22.05 32.69V31.69ZM10.08 32.86L9.89791 31.8767C8.60057 32.117 7.80562 32.4095 7.22336 32.6376C6.61757 32.875 6.45291 32.94 6.21 32.94V33.94V34.94C6.91209 34.94 7.46743 34.69 7.95289 34.4999C8.46188 34.3005 9.12943 34.053 10.2621 33.8433L10.08 32.86Z" fill="black" mask="url(#path-1-outside-1_2291_3267)"/>
</svg>
