<svg width="11" height="13" viewBox="0 0 11 13" fill="none" xmlns="http://www.w3.org/2000/svg">
<path fill-rule="evenodd" clip-rule="evenodd" d="M8.51417 7.04976C8.99363 6.42106 9.25175 5.65805 9.25 4.87458C9.25002 4.29618 9.10932 3.72603 8.83945 3.21095C8.56958 2.69588 8.17823 2.25058 7.69756 1.91163C7.21689 1.57267 6.66061 1.34974 6.07441 1.26115C5.48822 1.17255 4.88882 1.22081 4.32547 1.40197C3.76212 1.58313 3.25088 1.89202 2.83375 2.30326C2.41662 2.7145 2.10549 3.21636 1.92593 3.76763C1.74637 4.31889 1.70349 4.90383 1.80082 5.47439C1.89816 6.04495 2.13292 6.58485 2.48583 7.04976L5.5 10.9686L8.51417 7.04976ZM9.51667 7.77861C10.1342 6.96769 10.5 5.96339 10.5 4.87458C10.4999 4.10327 10.3121 3.34298 9.95203 2.6562C9.59197 1.96941 9.06992 1.37573 8.42879 0.923926C7.78765 0.472123 7.04572 0.175093 6.26395 0.0572431C5.48219 -0.0606068 4.6829 0.00408615 3.93177 0.246007C3.18063 0.487927 2.49908 0.900171 1.94312 1.44887C1.38716 1.99756 0.972654 2.66705 0.733658 3.40232C0.494662 4.13759 0.437998 4.91766 0.568322 5.67844C0.698646 6.43921 1.01224 7.15898 1.48333 7.77861L4.71833 11.9843L5.5 13L6.28083 11.9843L9.51667 7.77861ZM6.67851 6.02369C6.36595 6.32845 5.94203 6.49967 5.5 6.49967C5.05797 6.49967 4.63405 6.32845 4.32149 6.02369C4.00893 5.71893 3.83333 5.30558 3.83333 4.87458C3.83333 4.44358 4.00893 4.03024 4.32149 3.72548C4.63405 3.42071 5.05797 3.2495 5.5 3.2495C5.94203 3.2495 6.36595 3.42071 6.67851 3.72548C6.99107 4.03024 7.16667 4.44358 7.16667 4.87458C7.16667 5.30558 6.99107 5.71893 6.67851 6.02369ZM6.20696 5.56481C6.01942 5.74766 5.76507 5.85039 5.49985 5.85039C5.23463 5.85039 4.98028 5.74766 4.79274 5.56481C4.60521 5.38195 4.49985 5.13394 4.49985 4.87534C4.49985 4.61674 4.60521 4.36873 4.79274 4.18588C4.98028 4.00302 5.23463 3.90029 5.49985 3.90029C5.76507 3.90029 6.01942 4.00302 6.20696 4.18588C6.39449 4.36873 6.49985 4.61674 6.49985 4.87534C6.49985 5.13394 6.39449 5.38195 6.20696 5.56481Z" fill="white"/>
</svg>
