<svg width="24" height="22" viewBox="0 0 24 22" fill="none" xmlns="http://www.w3.org/2000/svg">
<path d="M24 22H20.1081L19.4595 21.3529H23.3514L24 22Z" fill="#B9B9B9"/>
<path fill-rule="evenodd" clip-rule="evenodd" d="M14.3951 2.46375C12.8137 0.886236 10.6689 0 8.43243 0C6.74291 0 5.10567 0.505788 3.72414 1.43331C3.27693 1.73355 2.85652 2.07798 2.4698 2.46375C0.888414 4.04126 0 6.18083 0 8.41177C0 10.6427 0.888414 12.7823 2.4698 14.3598C4.05119 15.9373 6.19601 16.8235 8.43243 16.8235C10.4441 16.823 12.3897 16.1072 13.92 14.8047L14.2703 15.1541V16.1765L17.4272 19.3257H21.3191L16.2162 14.2353H15.1914L14.8411 13.8859C16.0995 12.4106 16.8649 10.4953 16.8649 8.41177C16.8649 6.18083 15.9764 4.04126 14.3951 2.46375ZM21.962 19.967H18.0701L18.8108 20.7059H22.7027L21.962 19.967ZM8.43243 2.03704C5.18919 2.03704 2.06897 5.17647 2.06897 8.41177C2.06897 11.6471 5.18919 14.8047 8.43243 14.8047C11.6757 14.8047 14.8411 11.6471 14.8411 8.41177C14.8411 5.17647 11.6757 2.03704 8.43243 2.03704Z" fill="#B9B9B9"/>
</svg>
