<svg width="36" height="23" viewBox="0 0 36 23" fill="none" xmlns="http://www.w3.org/2000/svg">
<path d="M12.5801 11.25C12.5802 11.0611 12.6563 10.8769 12.7969 10.7383V10.7373L22.3135 1.35449C22.4555 1.22071 22.6486 1.14377 22.8516 1.14551C23.0557 1.14738 23.2481 1.22862 23.3877 1.36621C23.5267 1.50337 23.6028 1.68614 23.6045 1.87305C23.6056 2.01331 23.5644 2.15143 23.4863 2.27051L23.3965 2.38184L15.9521 9.72168L15.8018 9.88574C15.1494 10.6759 15.1494 11.8241 15.8018 12.6143L15.9521 12.7783L23.3965 20.1182C23.5328 20.2574 23.606 20.4402 23.6045 20.627C23.6028 20.8139 23.5267 20.9966 23.3877 21.1338C23.2481 21.2714 23.0557 21.3526 22.8516 21.3545C22.6488 21.3562 22.4554 21.28 22.3135 21.1465L12.7969 11.7627C12.6912 11.6585 12.6217 11.528 12.5938 11.3896L12.5801 11.25ZM1.14551 11.25C1.14562 11.0612 1.22194 10.8769 1.3623 10.7383L1.36328 10.7373L10.8799 1.35449C11.0218 1.22084 11.2142 1.14383 11.417 1.14551C11.6212 1.14726 11.8135 1.22864 11.9531 1.36621C12.0923 1.50338 12.1683 1.68607 12.1699 1.87305C12.1711 2.01326 12.1308 2.15145 12.0527 2.27051L11.9629 2.38184L4.51758 9.72168L4.36816 9.88574C3.66905 10.7324 3.71856 11.9905 4.51758 12.7783L11.9629 20.1182C12.0991 20.2574 12.1715 20.4403 12.1699 20.627C12.1683 20.8139 12.0923 20.9966 11.9531 21.1338C11.8135 21.2714 11.6212 21.3527 11.417 21.3545C11.2144 21.3562 11.0217 21.2798 10.8799 21.1465L1.36328 11.7627H1.3623C1.25666 11.6586 1.18811 11.528 1.16016 11.3896L1.14551 11.25Z" stroke="url(#paint0_linear_3819_3097)" stroke-width="2.29187"/>
<path d="M23.8301 11.25C23.8302 11.0611 23.9063 10.8769 24.0469 10.7383V10.7373L33.5635 1.35449C33.7055 1.22071 33.8986 1.14377 34.1016 1.14551C34.3057 1.14738 34.4981 1.22862 34.6377 1.36621C34.7767 1.50337 34.8528 1.68614 34.8545 1.87305C34.8556 2.01331 34.8144 2.15143 34.7363 2.27051L34.6465 2.38184L27.2021 9.72168L27.0518 9.88574C26.3994 10.6759 26.3994 11.8241 27.0518 12.6143L27.2021 12.7783L34.6465 20.1182C34.7828 20.2574 34.856 20.4402 34.8545 20.627C34.8528 20.8139 34.7767 20.9966 34.6377 21.1338C34.4981 21.2714 34.3057 21.3526 34.1016 21.3545C33.8988 21.3562 33.7054 21.28 33.5635 21.1465L24.0469 11.7627C23.9412 11.6585 23.8717 11.528 23.8438 11.3896L23.8301 11.25ZM12.3955 11.25C12.3956 11.0612 12.4719 10.8769 12.6123 10.7383L12.6133 10.7373L22.1299 1.35449C22.2718 1.22084 22.4642 1.14383 22.667 1.14551C22.8712 1.14726 23.0635 1.22864 23.2031 1.36621C23.3423 1.50338 23.4183 1.68607 23.4199 1.87305C23.4211 2.01326 23.3808 2.15145 23.3027 2.27051L23.2129 2.38184L15.7676 9.72168L15.6182 9.88574C14.9191 10.7324 14.9686 11.9905 15.7676 12.7783L23.2129 20.1182C23.3491 20.2574 23.4215 20.4403 23.4199 20.627C23.4183 20.8139 23.3423 20.9966 23.2031 21.1338C23.0635 21.2714 22.8712 21.3527 22.667 21.3545C22.4644 21.3562 22.2717 21.2798 22.1299 21.1465L12.6133 11.7627H12.6123C12.5067 11.6586 12.4381 11.528 12.4102 11.3896L12.3955 11.25Z" stroke="url(#paint1_linear_3819_3097)" stroke-width="2.29187"/>
<defs>
<linearGradient id="paint0_linear_3819_3097" x1="5.0625" y1="22.5" x2="11.9116" y2="3.21391" gradientUnits="userSpaceOnUse">
<stop stop-color="white"/>
<stop offset="0.293269" stop-color="#474747"/>
<stop offset="0.581731" stop-color="#E9E9E9"/>
</linearGradient>
<linearGradient id="paint1_linear_3819_3097" x1="16.3125" y1="22.5" x2="23.1616" y2="3.21391" gradientUnits="userSpaceOnUse">
<stop stop-color="white"/>
<stop offset="0.293269" stop-color="#474747"/>
<stop offset="0.581731" stop-color="#E9E9E9"/>
</linearGradient>
</defs>
</svg>
