<svg width="36" height="23" viewBox="0 0 36 23" fill="none" xmlns="http://www.w3.org/2000/svg">
<path d="M23.4199 11.25C23.4198 11.0611 23.3437 10.8769 23.2031 10.7383V10.7373L13.6865 1.35449C13.5445 1.22071 13.3514 1.14377 13.1484 1.14551C12.9443 1.14738 12.7519 1.22862 12.6123 1.36621C12.4733 1.50337 12.3972 1.68614 12.3955 1.87305C12.3944 2.01331 12.4356 2.15143 12.5137 2.27051L12.6035 2.38184L20.0479 9.72168L20.1982 9.88574C20.8506 10.6759 20.8506 11.8241 20.1982 12.6143L20.0479 12.7783L12.6035 20.1182C12.4672 20.2574 12.394 20.4402 12.3955 20.627C12.3972 20.8139 12.4733 20.9966 12.6123 21.1338C12.7519 21.2714 12.9443 21.3526 13.1484 21.3545C13.3512 21.3562 13.5446 21.28 13.6865 21.1465L23.2031 11.7627C23.3088 11.6585 23.3783 11.528 23.4062 11.3896L23.4199 11.25ZM34.8545 11.25C34.8544 11.0612 34.7781 10.8769 34.6377 10.7383L34.6367 10.7373L25.1201 1.35449C24.9782 1.22084 24.7858 1.14383 24.583 1.14551C24.3788 1.14726 24.1865 1.22864 24.0469 1.36621C23.9077 1.50338 23.8317 1.68607 23.8301 1.87305C23.8289 2.01326 23.8692 2.15145 23.9473 2.27051L24.0371 2.38184L31.4824 9.72168L31.6318 9.88574C32.3309 10.7324 32.2814 11.9905 31.4824 12.7783L24.0371 20.1182C23.9009 20.2574 23.8285 20.4403 23.8301 20.627C23.8317 20.8139 23.9077 20.9966 24.0469 21.1338C24.1865 21.2714 24.3788 21.3527 24.583 21.3545C24.7856 21.3562 24.9783 21.2798 25.1201 21.1465L34.6367 11.7627H34.6377C34.7433 11.6586 34.8119 11.528 34.8398 11.3896L34.8545 11.25Z" stroke="url(#paint0_linear_3819_3100)" stroke-width="2.29187"/>
<path d="M12.1699 11.25C12.1698 11.0611 12.0937 10.8769 11.9531 10.7383V10.7373L2.43652 1.35449C2.29455 1.22071 2.10139 1.14377 1.89844 1.14551C1.69431 1.14738 1.50185 1.22862 1.3623 1.36621C1.22327 1.50337 1.14716 1.68614 1.14551 1.87305C1.14436 2.01331 1.18558 2.15143 1.26367 2.27051L1.35352 2.38184L8.79785 9.72168L8.94824 9.88574C9.60057 10.6759 9.60058 11.8241 8.94824 12.6143L8.79785 12.7783L1.35352 20.1182C1.21723 20.2574 1.14398 20.4402 1.14551 20.627C1.14716 20.8139 1.22327 20.9966 1.3623 21.1338C1.50185 21.2714 1.69431 21.3526 1.89844 21.3545C2.10116 21.3562 2.29459 21.28 2.43652 21.1465L11.9531 11.7627C12.0588 11.6585 12.1283 11.528 12.1562 11.3896L12.1699 11.25ZM23.6045 11.25C23.6044 11.0612 23.5281 10.8769 23.3877 10.7383L23.3867 10.7373L13.8701 1.35449C13.7282 1.22084 13.5358 1.14383 13.333 1.14551C13.1288 1.14726 12.9365 1.22864 12.7969 1.36621C12.6577 1.50338 12.5817 1.68607 12.5801 1.87305C12.5789 2.01326 12.6192 2.15145 12.6973 2.27051L12.7871 2.38184L20.2324 9.72168L20.3818 9.88574C21.0809 10.7324 21.0314 11.9905 20.2324 12.7783L12.7871 20.1182C12.6509 20.2574 12.5785 20.4403 12.5801 20.627C12.5817 20.8139 12.6577 20.9966 12.7969 21.1338C12.9365 21.2714 13.1288 21.3527 13.333 21.3545C13.5356 21.3562 13.7283 21.2798 13.8701 21.1465L23.3867 11.7627H23.3877C23.4933 11.6586 23.5619 11.528 23.5898 11.3896L23.6045 11.25Z" stroke="url(#paint1_linear_3819_3100)" stroke-width="2.29187"/>
<defs>
<linearGradient id="paint0_linear_3819_3100" x1="30.9375" y1="22.5" x2="24.0884" y2="3.21391" gradientUnits="userSpaceOnUse">
<stop stop-color="white"/>
<stop offset="0.293269" stop-color="#474747"/>
<stop offset="0.581731" stop-color="#E9E9E9"/>
</linearGradient>
<linearGradient id="paint1_linear_3819_3100" x1="19.6875" y1="22.5" x2="12.8384" y2="3.21391" gradientUnits="userSpaceOnUse">
<stop stop-color="white"/>
<stop offset="0.293269" stop-color="#474747"/>
<stop offset="0.581731" stop-color="#E9E9E9"/>
</linearGradient>
</defs>
</svg>
