<svg width="180" height="321" viewBox="0 0 180 321" fill="none" xmlns="http://www.w3.org/2000/svg">
    <path d="M166 0.572968H178.605V21.7727" stroke="white" stroke-width="1.14593"/>
    <g clip-path="url(#clip0_4189_3910)">
        <rect x="1.07431" y="6.64728" width="171.851" height="312.851" fill="#CC0007"/>
        <rect x="1.07431" y="6.64728" width="171.851" height="312.851" fill="url(#paint0_linear_4189_3910)" fill-opacity="0.3"/>
        <rect x="1.07431" y="6.64728" width="171.851" height="312.851" stroke="url(#paint1_linear_4189_3910)" stroke-width="2.14863"/>
        <path opacity="0.1" d="M79.4645 240.729C91.116 234.175 102.168 226.93 116.039 231.286C126.095 234.445 135.379 239.439 145.099 243.429C146.291 243.918 147.777 243.983 149.048 243.96C149.312 243.956 151.268 243.8 150.15 243.34C137.766 238.258 125.796 231.19 112.399 229.059C106.024 228.046 99.6588 228.366 93.4535 230.185C86.4273 232.243 80.2188 236.411 73.8987 239.964C74.0617 239.873 78.092 241.502 79.4645 240.729ZM89.4576 28.6009C80.7979 32.3715 71.8867 35.5834 62.9825 38.74C56.4633 36.8921 49.9553 35.0016 43.4959 32.9237C38.5409 31.3312 33.5854 29.7123 28.6823 27.9557C35.7006 22.0056 44.2682 22.6454 52.91 24.4131C60.4073 25.9465 67.8348 27.8713 75.1548 30.0984C76.4257 30.4846 77.9369 30.5748 79.2539 30.455C80.2898 30.3611 80.2659 30.0082 79.3179 29.7202C69.3777 26.6961 59.1322 23.9388 48.8188 22.5362C48.7929 22.533 48.7664 22.5294 48.7415 22.5262C52.0747 19.5495 55.4756 17.9132 60.0304 19.1381C63.479 20.0654 66.8836 21.1557 70.2744 22.2756C76.6687 24.3867 83.0444 26.5473 89.4576 28.6009ZM142.048 7.64117C143.21 7.27612 144.38 6.92111 145.557 6.57297H137.458C127.654 9.66043 118.222 13.7354 109.174 18.6269C100.69 15.7605 92.243 12.7896 83.8193 9.74905C81.0213 8.7373 78.2323 7.66119 75.4438 6.57297H69.8001C82.1757 11.1685 94.635 15.5569 107.154 19.7357C106.669 20.0068 106.182 20.2758 105.7 20.5507C101.155 23.1407 96.4807 25.458 91.7232 27.596C82.6045 24.557 73.5176 21.0165 64.1951 18.7598C56.6697 16.9389 49.2497 16.3186 43.1381 21.7951C43.1196 21.812 43.2609 21.88 43.506 21.9734C36.6581 21.4955 29.8219 22.1786 24.2217 26.3078C24.0861 26.2556 23.9491 26.2097 23.8146 26.1575C19.3154 24.4378 14.9537 22.2983 10.3846 20.7701C9.82351 20.5834 9.24549 20.4125 8.67487 20.2342C13.5214 15.8522 18.4409 10.8578 23.7188 6.57297H17.8279C17.8131 6.58563 17.7962 6.60092 17.7798 6.61359C14.1873 9.62192 10.6704 12.7194 7.1753 15.8375C-1.07897 13.4579 -9.04953 10.228 -16.8422 6.57297H-21.6649C-13.3111 10.5213 -4.81918 14.0635 4.21109 16.5659C4.78011 16.7242 5.38354 16.8265 5.99385 16.8914C5.27079 17.5381 4.5488 18.1854 3.8268 18.8337C-3.13328 17.0265 -10.4978 15.8918 -17.5002 15.6966C-23.9463 15.5152 -30.2775 16.2658 -35.3718 19.6639C-36.1474 19.5073 -36.9095 19.3923 -37.2525 19.3902C-46.6348 19.3517 -54.6469 17.18 -63.1336 13.2506C-67.6153 11.1744 -71.977 8.71725 -76.4575 6.57297H-81.6848C-80.721 7.04932 -79.7658 7.53619 -78.8176 8.02255C-71.2207 11.9166 -63.5201 15.9271 -55.2581 18.2661C-49.1458 19.9958 -42.8692 20.4294 -36.5535 20.5217C-37.8371 21.5255 -39.031 22.715 -40.1124 24.1329C-39.9712 23.9467 -35.256 25.8726 -34.3152 24.6378C-22.5499 9.19571 2.08691 19.7267 16.3749 25.3219C36.3442 33.1405 57.0921 38.4757 77.649 44.4586C78.9315 44.8321 80.421 44.936 81.748 44.8157C82.7739 44.7229 82.7718 44.3605 81.8121 44.0804C76.9757 42.673 72.126 41.3168 67.2811 39.9537C80.546 35.2558 93.9421 30.5579 106.411 23.9757C118.103 17.8051 129.342 11.6364 142.048 7.64117ZM271.758 9.40143C276.105 8.76212 280.354 7.69391 284.588 6.57297H276.084C273.017 7.31781 269.931 7.97931 266.8 8.44086C265.586 8.61862 267.565 9.20099 267.777 9.24161C269.077 9.49377 270.446 9.59396 271.758 9.40143ZM-43.4455 10.9407C-47.5606 9.66205 -51.5141 8.1998 -55.4039 6.57297H-60.3379C-56.2073 8.34167 -51.9942 9.95532 -47.6099 11.3194C-46.3458 11.7119 -44.8234 11.7947 -43.5096 11.6771C-42.4685 11.5816 -42.5055 11.2329 -43.4455 10.9407ZM-16.675 14.1231C-22.3806 11.7383 -28.1068 9.32916 -33.6509 6.57297H-38.8867C-33.2876 9.37241 -27.5002 11.7989 -21.7279 14.2117C-20.5422 14.7076 -19.0432 14.7672 -17.777 14.745C-17.5087 14.7397 -15.5629 14.5894 -16.675 14.1231ZM329 203.85V201.524C327.612 201.183 326.089 201.012 324.386 201.009C317.017 200.994 309.17 202.569 303.077 206.826C303.11 206.801 307.403 208.456 308.643 207.589C313.284 204.346 318.343 203.055 323.923 202.396C326.041 202.147 327.654 202.775 329 203.85ZM327.965 193.03C328.316 193.195 328.653 193.384 329 193.557V191.959C326.603 191.329 324.06 191.009 321.251 191.184C309.247 191.929 299.915 198.792 288.943 202.683C288.391 202.879 290.801 203.484 290.912 203.499C292.038 203.652 293.41 203.837 294.509 203.447C303.009 200.434 310.439 195.107 319.363 193.132C322.148 192.515 325.246 191.756 327.965 193.03ZM325.608 186.445C326.754 186.703 327.885 187.035 329 187.414V185.833C328.271 185.695 327.538 185.58 326.799 185.49C317.589 184.371 309.891 188.374 301.968 192.741C302.142 192.645 306.15 194.267 307.533 193.505C311.014 191.586 314.585 189.779 318.27 188.279C320.445 187.394 323.193 185.898 325.608 186.445ZM329 266.707V265.319C320.055 264.905 311.292 268.734 302.8 273.104C303.016 272.994 306.947 274.598 308.366 273.868C314.76 270.578 321.851 266.283 329 266.707ZM311.879 278.372C317.237 276.289 323.15 274.663 329 274.459V273.039C322.627 273.091 316.067 274.351 310.224 276.195C302.309 278.692 295.358 283.11 287.03 284.328C285.816 284.506 287.796 285.09 288.007 285.13C289.307 285.382 290.676 285.481 291.99 285.289C299.174 284.24 305.192 280.971 311.879 278.372ZM329 55.9929V54.6067C320.055 54.1926 311.292 58.0217 302.8 62.3904C303.016 62.2791 306.947 63.8849 308.366 63.1553C314.76 59.8648 321.851 55.5709 329 55.9929ZM311.879 67.6581C317.237 65.576 323.15 63.9497 329 63.7456V62.3261C322.627 62.3783 316.067 63.6375 310.224 65.4805C302.309 67.9788 295.358 72.3977 287.03 73.6146C285.816 73.7918 287.796 74.3752 288.007 74.4169C289.307 74.6691 290.676 74.7688 291.99 74.5768C299.174 73.5254 305.192 70.2571 311.879 67.6581ZM320.324 229.963C323.337 230.218 326.215 231.09 329 232.234V230.421C327.582 230.007 326.142 229.655 324.669 229.399C315.659 227.839 305.52 227.806 296.507 229.294C286.473 230.95 276.871 234.518 266.8 236C265.586 236.177 267.565 236.76 267.777 236.802C269.077 237.054 270.446 237.154 271.758 236.961C281.311 235.557 290.389 232.085 299.894 230.515C306.681 229.394 313.481 229.383 320.324 229.963ZM329 86.9862V85.7028C323.559 85.1637 317.955 85.6458 312.259 87.1919C297.642 91.1598 285.526 101.447 270.612 104.477C269.421 104.717 271.341 105.23 271.588 105.278C272.848 105.523 274.298 105.696 275.57 105.438C289.154 102.678 300.255 93.8986 313.184 89.3979C318.392 87.586 323.756 86.5468 329 86.9862ZM329 94.4614V93.4439C303.158 93.0535 284.693 116.363 258.779 116.808C255.148 116.87 260.52 117.979 261.629 117.96C272.562 117.773 283.847 113.901 293.543 109.071C303.724 103.999 316.642 94.1312 329 94.4614ZM314.764 134.592C319.184 132.841 324.151 131.012 329 130.976V129.658C314.224 129.207 300.163 137.96 287.351 144.136C287.604 144.014 291.467 145.597 292.917 144.899C300.153 141.411 307.285 137.553 314.764 134.592ZM-79.1107 152.726C-81.3614 152.28 -83.6089 152.011 -85.848 151.89V153.087C-82.7651 153.251 -79.7131 153.855 -76.7496 155.032C-71.1425 157.259 -65.8272 160.223 -60.9574 163.781C-58.7791 165.374 -54.688 167.705 -53.6221 170.362C-53.0829 171.706 -47.8465 170.812 -47.8248 170.867C-49.341 167.088 -55.4172 163.801 -58.6139 161.754C-64.8771 157.744 -71.7496 154.185 -79.1107 152.726ZM-0.902176 289.967C-0.807426 289.941 -0.714264 289.918 -0.623756 289.887C10.1729 286.018 22.2065 284.782 33.6299 285.31C36.0642 285.421 38.4912 285.681 40.9081 286.051C41.2542 286.142 41.5406 286.205 41.5745 286.21C41.9482 286.262 42.3812 286.325 42.8263 286.368C52.1303 288.025 61.2606 291.282 69.9997 294.518C70.1453 294.572 70.3004 294.606 70.4496 294.65C66.3992 296.462 62.2758 298.14 58.1106 299.702C52.478 296.693 46.9011 294.262 40.3528 293.742C34.1761 293.25 27.9047 295.092 22.1414 297.145C21.0896 297.519 20.0479 297.919 19.0025 298.307C12.2229 295.852 5.60957 293.022 -0.902176 289.967ZM72.7623 293.597C63.8559 290.405 54.6874 287.75 45.4062 286.052C50.5232 283.78 55.988 281.07 61.6517 280.455C62.7067 280.595 63.9273 280.714 64.9166 280.357H64.9187C65.23 280.373 65.5396 280.385 65.8503 280.415C72.929 281.115 79.8361 283.467 86.3484 286.234C86.4527 286.277 86.5686 286.301 86.6761 286.338C85.3893 287.102 84.094 287.852 82.7786 288.57C79.509 290.356 76.1616 292.022 72.7623 293.597ZM88.7817 285.072C81.9206 282.344 74.6371 280.207 67.2747 279.476C76.0541 276.156 84.3634 272.12 92.6436 267.659C97.2504 265.178 101.86 262.494 106.717 260.526C113.581 257.744 119.114 258.403 125.978 261.103C126.021 261.12 126.067 261.128 126.111 261.144C125.526 261.537 124.946 261.932 124.373 262.324C117.536 267.015 110.578 271.38 103.516 275.726C98.5689 278.771 93.7404 282.034 88.7817 285.072ZM127.961 259.91C122.1 257.956 116.415 257.116 110.749 257.639C109.793 256.997 108.821 256.448 107.834 255.986C115.928 251.325 124.372 253.373 132.491 257.052C130.95 257.979 129.44 258.938 127.961 259.91ZM134.711 255.752C124.951 251.845 113.129 249.746 103.556 254.522C100.826 253.902 98.03 253.814 95.2225 254.116C94.0765 253.61 92.9163 253.208 91.7502 252.902C96.4924 246.912 103.868 242.834 111.77 244.003C121.659 245.467 131.218 249.215 140.511 252.759C138.54 253.668 136.605 254.678 134.711 255.752ZM69.7599 267.307C74.9468 264.824 79.9955 262.069 85.1802 259.589C88.1608 258.164 91.2319 256.715 94.4534 255.917C99.1019 254.768 102.617 255.429 106.377 258.319C103.266 259.004 100.145 260.102 96.991 261.691C84.7318 267.869 73.0544 274.558 60.1304 279.305C53.0513 279.782 46.6777 282.281 40.0797 285.186C37.5887 284.834 35.0903 284.558 32.5887 284.363C45.0003 278.726 57.4648 273.191 69.7599 267.307ZM91.5024 254.731C85.358 256.076 79.2809 258.948 73.8654 261.754C58.48 269.727 42.4918 276.571 26.719 283.737C26.5279 283.824 26.6809 283.944 26.9678 284.066C23.9056 283.983 20.8398 284.041 17.7798 284.239C29.7113 279.826 41.3855 274.731 52.532 268.586C58.3731 265.366 64.0914 261.891 70.0833 258.946C73.3127 257.36 77.3938 255.198 81.485 254.133C81.7502 254.099 82.0323 254.048 82.1895 253.968C83.9315 253.569 85.6661 253.389 87.3319 253.554C88.0248 253.737 88.8034 253.915 89.4936 253.975C89.9314 254.112 90.3623 254.275 90.7847 254.476C91.0054 254.58 91.2494 254.662 91.5024 254.731ZM76.3982 253.427C69.5058 255.319 62.821 258.929 57.0043 262.186C40.4364 271.463 23.7024 279.565 5.72761 285.808C5.71066 285.814 5.70378 285.822 5.69214 285.828C2.39974 286.492 -0.880478 287.35 -4.14059 288.424C-7.54044 286.785 -10.9159 285.093 -14.2761 283.369C-14.1549 283.336 -14.0363 283.303 -13.9235 283.258C-4.05483 279.306 5.38618 274.263 14.7171 269.201C16.3173 268.333 17.9132 267.454 19.5075 266.575C20.05 266.519 20.8213 266.379 20.3867 266.093C22.3669 265.001 24.3455 263.904 26.3268 262.81C32.4463 259.429 39.7658 255.302 47.0413 256.881C46.8513 256.993 46.657 257.098 46.467 257.213C32.3987 265.774 18.7829 274.312 3.23396 280.008C2.67817 280.212 5.09348 280.81 5.20251 280.825C6.31939 280.977 7.71045 281.171 8.80032 280.773C20.0728 276.642 30.7969 271.233 40.998 264.915C51.3246 258.521 63.661 248.1 76.3982 253.427ZM28.0815 258.293C24.0602 260.026 20.2565 262.321 16.4538 264.433C8.73417 261.339 0.549751 258.968 -7.84109 260.148C-18.5509 261.657 -28.8335 266.104 -38.4847 270.839C-40.6951 269.813 -42.9819 268.853 -45.2983 268.043C-44.78 268.039 -44.2758 267.976 -43.8526 267.793C-33.426 263.29 -22.8564 259.009 -12.081 255.399C-6.68769 253.592 -0.915947 251.466 4.79705 250.96C13.2371 250.211 20.7784 254.114 27.8724 258.192C27.9396 258.23 28.0111 258.259 28.0815 258.293ZM-24.2512 256.878C-32.6473 259.915 -40.9096 263.359 -49.0703 266.88C-51.9192 266.127 -54.7697 265.682 -57.5439 265.704C-59.4887 263.594 -60.7633 260.862 -63.2866 259.369C-65.7263 257.925 -68.8195 257.473 -71.6981 257.076C-64.2574 253.124 -57.0648 250.451 -48.4178 251.398C-40.1961 252.299 -32.146 254.477 -24.2512 256.878ZM-36.2363 271.911C-35.226 272.125 -34.1995 272.231 -33.5992 271.936C-25.8259 268.1 -17.7061 264.464 -9.26338 262.364C-4.74454 261.241 -0.500954 260.567 4.07982 261.9C7.54901 262.91 10.8843 264.263 14.201 265.68C10.3444 267.81 6.47501 269.942 2.5723 272.017C-7.49014 269.308 -18.2555 272.013 -27.5229 276.438C-27.5716 276.412 -27.6182 276.387 -27.6674 276.36C-30.2384 275 -33.1418 273.427 -36.2363 271.911ZM-24.8255 277.864C-24.131 277.952 -23.4921 277.946 -23.0681 277.736C-16.2557 274.34 -7.1048 270.293 0.524879 273.091C-5.39243 276.193 -11.3955 279.122 -17.5457 281.681C-19.9774 280.418 -22.4023 279.144 -24.8255 277.864ZM169.728 250.707C169.753 250.694 169.783 250.685 169.807 250.671C171.715 249.447 173.705 248.15 175.881 247.439C179.205 246.35 181.798 247.479 184.629 249.238C187.676 251.132 190.563 253.268 193.421 255.434C199.347 259.929 205.168 264.642 211.511 268.556C208.767 269.967 206.012 271.357 203.25 272.73C196.635 268.108 190.355 263.018 183.628 258.554C179.282 255.669 174.671 252.678 169.728 250.707ZM205.803 274.978C206.041 274.926 206.199 274.862 206.196 274.785C209.652 273.08 213.086 271.337 216.513 269.575C217.226 269.504 218.097 269.369 217.773 269.173C217.7 269.13 217.629 269.082 217.558 269.039C220.232 267.66 222.902 266.275 225.565 264.881C229.802 262.661 234.038 260.434 238.217 258.107C244.39 254.669 250.193 250.767 257.052 255.43C257.09 255.457 257.134 255.476 257.174 255.498C242.397 262.657 228.07 270.749 213.626 278.548C209.49 277.661 205.236 277.456 200.844 278.286C200.53 278.133 200.216 277.982 199.898 277.832C201.873 276.894 203.841 275.944 205.803 274.978ZM182.441 273.127C177.935 272.917 173.403 273.591 168.993 275.474C167.434 275.302 165.872 275.231 164.312 275.271C159.327 271.192 153.941 267.891 148.243 266.268C155.32 263.116 162.172 261.996 169.457 265.372C174.056 267.503 178.275 270.272 182.441 273.127ZM156.125 279.508C166.707 280.633 177.97 287.989 186.701 292.305C200.483 299.117 214.278 305.933 228.261 312.335C225.396 312.011 222.522 311.823 219.661 311.802C213.191 308.528 206.396 306.023 199.223 306.129C187.248 301.461 176.481 294.509 164.795 289.219C159.452 286.8 153.867 284.245 148.071 283.122C146.298 282.779 144.543 282.563 142.802 282.454C146.54 279.982 150.614 279.165 154.817 279.402C155.279 279.481 155.729 279.524 156.125 279.508ZM148.377 284.67C164.687 290.25 178.874 300.423 194.965 306.515C194.601 306.576 194.237 306.629 193.871 306.703C189.771 307.539 185.809 308.842 181.906 310.324C165.769 302.737 148.983 295.35 131.379 302.168C123.533 299.654 115.361 297.853 107.169 297.037C115.168 292.16 123.64 287.35 132.713 284.885C134.921 284.286 137.079 283.84 139.228 283.647C140.051 283.774 140.814 283.785 141.26 283.544C143.617 283.522 145.974 283.847 148.377 284.67ZM135.388 303.527C135.502 303.496 135.615 303.463 135.721 303.417C141.158 301.112 147.425 299.269 153.303 301.015C155.767 301.747 158.2 302.573 160.604 303.49C166.862 305.875 172.979 308.598 179.039 311.444C175.228 312.97 171.452 314.596 167.637 316.051C164.678 315.879 161.719 315.9 158.753 316.111C151.11 311.638 143.76 306.552 135.388 303.527ZM135.909 203.9C134.702 203.123 133.473 202.354 132.221 201.605C140.034 198.016 149.039 195.022 157.006 199.632C155.505 200.281 154.047 201.138 152.647 202.233C147.13 201.658 141.576 202.092 135.909 203.9ZM129.082 199.793C127.483 198.905 125.854 198.06 124.199 197.281C124.252 197.264 124.307 197.252 124.359 197.232C133.412 193.781 142.703 190.144 152.297 188.504C160.941 187.026 167.873 189.963 173.107 196.62C171.598 196.948 170.115 197.44 168.674 198.125C168.721 198.104 168.887 198.137 169.13 198.202C166.102 197.816 163.093 197.87 160.196 198.57C150.41 194.085 138.885 195.797 129.082 199.793ZM120.684 195.745C117.448 194.446 114.126 193.444 110.751 192.887C123.966 181.877 141.538 175.336 158.778 175.204C160.634 175.19 162.479 175.251 164.314 175.374C164.961 175.477 165.658 175.552 166.317 175.53C173.97 176.23 181.451 177.976 188.895 180.075C198.193 182.697 207.403 185.381 216.268 189.274C239.726 199.574 262.257 211.942 285.779 222.154C283.011 222.836 280.29 223.527 277.635 224.187C267.472 219.626 257.676 214.17 247.957 208.79C237.642 203.078 226.825 197.603 214.916 199.869C205.365 194.955 194.197 192.711 183.976 196.695C182.021 196.316 180.063 196.106 178.127 196.104C163.924 179.24 138.227 189.027 120.684 195.745ZM152.1 163.722C145.311 161.364 138.105 160.676 130.955 160.554C124.098 160.436 116.979 161.396 110.82 164.573C106.681 166.708 102.702 169.18 98.6552 171.484C81.8227 181.073 64.9118 190.808 47.4595 199.333C45.5354 198.643 43.6203 197.925 41.7148 197.187C52.3616 192.537 62.3462 186.254 72.3049 180.333C83.7589 173.523 95.2172 166.834 106.207 159.294C110.834 156.121 115.561 153.153 120.617 150.699C127.698 147.262 134.811 143.179 142.701 146.799C155.202 152.537 165.499 161.889 176.813 169.524C174.478 170.446 172.124 171.317 169.757 172.126C164.09 168.871 158.3 165.877 152.1 163.722ZM180.169 168.158C169.523 160.564 159.158 150.879 146.878 146.31C146.899 146.299 146.925 146.293 146.944 146.28C148.853 145.056 150.843 143.76 153.018 143.048C156.343 141.96 158.936 143.089 161.766 144.848C164.814 146.743 167.701 148.877 170.557 151.043C176.543 155.583 182.42 160.347 188.835 164.283C185.978 165.642 183.086 166.937 180.169 168.158ZM191.847 162.822C183.472 157.211 176.057 150.192 167.38 145.059C162.933 142.428 158.414 141.204 153.927 141.36C144.889 135.64 134.587 130.489 123.55 133.276C113.297 135.865 103.57 142.133 94.3687 147.391C89.6371 147.248 84.9737 148.009 80.7455 150.105C80.1802 149.973 79.6143 149.856 79.0443 149.771C86.5178 145.669 94.0194 141.609 101.636 137.778C108.424 134.363 115.534 130.32 122.874 128.224C128.952 126.488 135.291 125.769 141.463 127.593C145.853 128.887 150.012 130.872 154.119 132.865C162.774 137.063 171.195 141.703 179.458 146.621C180.448 147.21 181.873 147.253 182.991 147.295C183.1 147.298 185.584 147.137 185.072 146.832C175.415 141.086 165.54 135.6 155.294 130.955C146.838 127.12 138.001 124.799 128.629 125.408C123.168 125.764 118.083 127.169 113.146 129.076C111.283 126.038 109.343 123.559 106.885 121.549C107.483 121.569 107.988 121.47 108.262 121.158C122.526 104.947 146.664 118.871 161.196 127.593C176.82 136.968 192.513 145.544 209.044 153.261C209.098 153.286 209.155 153.304 209.21 153.326C207.552 154.324 205.899 155.339 204.218 156.281C200.177 158.55 196.049 160.746 191.847 162.822ZM97.2493 136.444C89.004 140.579 80.8752 144.943 72.7903 149.383C72.8358 149.357 73.1455 149.449 73.5959 149.585C73.1682 149.615 72.7405 149.655 72.3113 149.704C67.2986 147.508 62.0747 147.309 56.9042 148.26C55.33 147.679 53.7447 147.236 52.1509 146.909C59.2639 143.329 66.1833 139.378 73.2963 135.795C76.4754 134.195 79.6826 132.557 83.0248 131.32C88.7653 129.195 93.219 132.859 97.2493 136.444ZM53.5346 149.038C46.6438 150.928 39.959 154.54 34.1422 157.796C21.0272 165.14 8.25089 172.307 -5.86248 177.454C-7.71511 176.851 -9.59579 176.345 -11.458 176.025C-1.0885 171.94 8.67805 166.382 18.1349 160.525C28.4615 154.13 40.799 143.71 53.5346 149.038ZM24.1989 152.479C24.0014 152.595 23.8003 152.703 23.605 152.822C9.77798 161.236 -3.70336 170.329 -18.9569 176.02C-20.5565 176.369 -22.0757 176.996 -23.4752 177.966C-25.2199 177.055 -27.0555 176.222 -28.9442 175.521C-20.0028 171.856 -11.639 167.076 -3.29261 162.246C4.47046 157.753 14.7007 150.394 24.1989 152.479ZM57.5219 185.17C51.114 188.966 44.608 192.601 37.8697 195.66C30.6646 192.745 23.5531 189.575 16.4115 186.497C16.5237 186.451 16.6248 186.397 16.6973 186.325C27.9089 175.211 44.3704 181.337 57.5219 185.17ZM47.7104 159.049C32.9629 166.418 18.3954 174.151 3.42822 181.079C1.72803 180.367 -0.109253 179.583 -2.02488 178.836C9.12374 174.936 19.3868 169.916 29.6991 164.185C35.5201 160.951 41.2399 157.494 47.2213 154.556C50.4507 152.97 54.5318 150.808 58.6229 149.742C58.8892 149.708 59.1703 149.656 59.3259 149.578C62.3203 148.894 65.2951 148.836 67.9216 150.085C68.1465 150.192 68.3927 150.274 68.6499 150.343C61.3611 152.001 54.1284 155.843 47.7104 159.049ZM103.294 156.767C100.224 158.814 97.2091 160.944 94.1311 162.991C87.2985 167.535 80.1527 171.582 73.1031 175.78C68.5213 178.51 63.9437 181.335 59.3216 184.1C44.6959 179.779 24.5504 173.664 12.1075 184.66C10.4973 183.979 8.8829 183.309 7.26318 182.649C19.9124 176.862 32.2811 170.49 44.6668 164.171C50.1564 161.371 55.6201 158.501 61.1468 155.776C64.4926 154.126 67.9512 152.427 71.5914 151.527C76.3204 150.357 79.8769 151.056 83.714 154.078C83.8579 154.193 84.0485 154.28 84.2645 154.347C79.9436 155.139 75.6163 156.512 71.1933 158.37C58.344 163.772 45.8763 170.069 32.7464 174.79C32.1933 174.989 34.6059 175.592 34.7155 175.605C35.8371 175.76 37.2181 175.947 38.3128 175.553C48.191 172.001 57.504 167.403 67.1022 163.212C72.1853 160.993 77.3081 158.685 82.5394 156.836C89.6868 154.309 95.8694 153.91 103.116 156.713C103.172 156.735 103.235 156.746 103.294 156.767ZM100.23 147.998C106.007 144.745 111.798 141.548 117.774 138.663C124.382 135.475 130.641 132.125 138.05 135.372C142.112 137.152 145.813 139.529 149.528 141.926C149.541 141.935 149.556 141.94 149.569 141.948C147.148 142.524 144.748 143.518 142.383 144.912C131.524 142.365 121.624 146.136 112.028 151.434C108.319 149.937 104.308 148.7 100.23 147.998ZM109.754 152.717C109.715 152.74 109.675 152.762 109.637 152.785C108.102 153.672 106.599 154.61 105.115 155.571C99.473 153.812 94.0268 153.287 88.6113 153.76C87.4213 152.891 86.2113 152.171 84.9827 151.589C93.1158 146.912 101.601 149.004 109.754 152.717ZM-19.5513 180.083C-16.7279 177.284 -13.7261 176.503 -9.65878 177.969C-7.43616 178.769 -5.2691 179.692 -3.08459 180.59C2.22612 182.777 7.59876 184.813 12.9005 187.02C23.7024 191.516 34.1618 196.612 45.2464 200.405C42.3256 201.811 39.3889 203.178 36.4342 204.506C30.8514 201.264 25.6058 197.715 19.1989 196.3C16.718 195.752 14.2132 195.58 11.7677 195.808C1.27387 190.695 -9.29302 185.61 -19.5513 180.083ZM39.635 206.325C43.4335 204.652 47.1933 202.892 50.9319 201.084C51.2055 201.023 51.43 200.941 51.4432 200.838C66.4373 193.566 81.0107 185.363 95.4962 177.192C99.9065 174.704 104.313 172.208 108.703 169.685C113.105 167.153 117.45 164.289 122.431 163.012C138.461 158.898 152.857 165.282 166.401 173.229C165.297 173.578 164.19 173.914 163.08 174.234C159.973 174.055 156.858 174 153.738 174.117C136.1 174.779 118.37 180.998 104.847 192.403C103.924 192.408 102.997 192.446 102.068 192.53C100.821 192.644 99.5863 192.876 98.3614 193.187C90.4295 188.874 81.7925 188.33 73.7785 193.517C65.2649 199.024 57.7035 205.871 49.1909 211.376C45.9509 209.761 42.7623 208.07 39.635 206.325ZM53.0338 213.241C59.8033 209.09 65.9424 204.011 72.2911 199.268C75.0452 197.21 77.8226 195.021 80.8498 193.366C83.129 192.121 86.4458 190.092 89.1422 191.178C91.2028 192.006 93.0735 193.064 94.9346 194.259C94.9425 194.265 94.951 194.266 94.9584 194.271C89.5635 196.34 84.4862 199.828 79.9854 202.941C73.5255 207.41 67.37 212.3 60.9022 216.758C58.2561 215.646 55.6317 214.473 53.0338 213.241ZM73.1756 97.9714C66.1441 99.911 59.2888 102.678 52.4166 105.081C33.3149 111.757 13.6574 119.348 -6.44791 122.407C-13.0385 120.37 -19.5762 118.196 -25.9916 115.915C-32.2265 113.696 -38.2771 111.038 -44.0415 107.812C-43.6127 107.806 -43.1882 107.782 -42.7702 107.715C-34.6353 106.428 -26.9963 103.878 -19.5074 100.503C-15.917 98.8871 -12.3435 96.9407 -8.59749 95.7142C-5.91064 94.836 -3.48051 94.2124 -0.838661 95.5375C0.462944 96.1916 1.68568 96.9433 2.91212 97.7272C-7.43086 101.78 -17.8691 105.678 -28.6096 108.412C-29.7678 108.706 -27.9183 109.157 -27.6325 109.213C-26.414 109.45 -24.8769 109.685 -23.6488 109.373C-11.8063 106.359 -0.3321 101.875 11.0383 97.4539C15.8991 95.5639 20.7429 93.6243 25.6212 91.7738C27.8385 90.9324 30.1003 89.966 32.4235 89.466C35.1914 88.871 36.4083 90.34 38.1259 92.2169C38.2032 92.3013 38.3085 92.3709 38.4245 92.4326C25.2522 97.5325 12.3966 103.33 -1.45109 106.478C-2.62724 106.746 -0.738091 107.229 -0.473953 107.28C0.767838 107.521 2.25577 107.724 3.50761 107.438C14.4302 104.957 24.8822 100.945 35.2284 96.7239C39.8166 94.8528 44.4487 92.6458 49.2412 91.336C51.6417 90.6803 53.2572 90.128 55.4375 91.5095C56.6089 92.2512 57.722 93.0635 58.8315 93.8891C52.8189 94.5168 47.3378 96.8425 41.6962 99.1087C25.0739 105.787 8.17837 112.249 -9.48888 115.591C-10.6857 115.818 -8.74782 116.348 -8.51121 116.393C-7.24083 116.64 -5.81166 116.796 -4.52805 116.552C9.92409 113.818 23.9263 108.99 37.6093 103.689C42.8967 101.641 48.1206 99.4226 53.416 97.3991C57.3007 95.9142 62.2313 94.0515 66.4278 95.2811C68.7643 95.9653 70.9694 96.9591 73.1756 97.9714ZM53.0338 79.1655C59.8033 75.013 65.9424 69.9332 72.2911 65.1893C75.0452 63.1321 77.8226 60.9424 80.8498 59.2887C83.129 58.0433 86.4458 56.014 89.1422 57.0991C91.2028 57.9283 93.0735 58.987 94.9346 60.1813C94.9425 60.186 94.951 60.1892 94.9584 60.1945C89.5635 62.2628 84.4862 65.7496 79.9854 68.8629C73.5255 73.3318 67.37 78.2234 60.9022 82.6808C58.2561 81.5693 55.6317 80.3946 53.0338 79.1655ZM70.0997 61.9384C66.9847 64.1402 63.9638 66.4754 60.9371 68.8048C47.1779 64.9013 33.7527 59.7893 20.7361 53.8914C7.24252 47.7766 -5.08225 39.6314 -18.0634 32.5751C-10.7571 27.568 -2.21703 30.6745 5.2872 33.8126C12.3272 36.7571 19.074 40.3008 25.9774 43.5365C40.4031 50.2991 54.8362 57.2346 70.0997 61.9384ZM124.199 63.2028C124.252 63.1854 124.307 63.1748 124.359 63.1553C133.412 59.7023 142.703 56.0663 152.297 54.4247C160.941 52.9477 167.873 55.8853 173.107 62.5429C171.598 62.871 170.115 63.3626 168.674 64.0484C168.721 64.0257 168.887 64.0594 169.13 64.1249C166.102 63.7382 163.093 63.7925 160.196 64.4931C150.41 60.0077 138.885 61.7189 129.082 65.7153C127.483 64.8275 125.854 63.9825 124.199 63.2028ZM132.221 67.5267C140.034 63.9381 149.039 60.9451 157.006 65.5544C155.505 66.2038 154.047 67.0599 152.647 68.155C147.13 67.5816 141.576 68.0147 135.909 69.8229C134.702 69.047 133.473 68.2773 132.221 67.5267ZM242.584 71.8227C242.713 71.7931 242.842 71.7594 242.965 71.7151C252.312 68.4308 260.604 74.3378 268.554 78.6527C274.822 82.0556 281.102 85.4243 287.538 88.5007C287.993 88.718 288.526 88.8472 289.079 88.9258C286.972 90.0821 284.735 91.279 282.436 92.1758C270.536 87.2626 259.198 80.9342 247.957 74.7118C246.183 73.729 244.393 72.7537 242.584 71.8227ZM174.098 27.6113C171.277 25.0803 168.193 23.0073 164.926 21.3836C175.895 13.9 189.701 20.2906 200.605 25.0524C198.539 26.1596 196.544 27.5738 194.596 29.3204C187.809 27.2869 180.891 26.4086 174.098 27.6113ZM199.266 30.9008C201.264 28.9849 203.458 27.1386 205.87 25.7049C206.235 25.6411 206.544 25.5361 206.439 25.3752C208.406 24.2759 210.515 23.4604 212.783 23.117C218.126 22.3105 223.567 24.2659 228.634 25.7814C235.915 27.9605 243.039 30.5875 250.175 33.1901C267.474 39.4975 284.913 44.5193 302.53 49.7858C302.803 49.8687 303.092 49.9309 303.383 49.9879C298.903 51.4105 294.41 52.8026 289.851 53.8966C277.476 48.9429 265.476 43.1683 253.219 37.9487C242.668 33.4581 230.605 29.5129 219.94 35.8793C219.966 35.863 220.156 35.9184 220.445 36.0075C218.026 35.9505 215.564 36.3061 213.036 37.2392C208.598 34.8829 203.979 32.6647 199.266 30.9008ZM225.451 36.6674C225.468 36.6579 225.49 36.6526 225.507 36.6426C232.852 32.258 239.751 34.4551 247.017 37.5494C250.627 39.086 254.224 40.6437 257.794 42.2658C267.177 46.5237 276.564 50.7511 286.152 54.5317C286.259 54.5734 286.377 54.5977 286.487 54.6335C285.896 54.7517 285.309 54.8836 284.714 54.9886C279.99 55.8231 275.22 56.5093 270.439 57.0801C260.145 52.1986 250.122 46.701 239.679 42.1397C234.921 40.0613 230.24 37.7709 225.451 36.6674ZM267.092 37.3906C259.624 34.731 252.206 31.931 244.728 29.3019C236.631 26.4534 228.19 23.3749 219.654 22.2271C218.977 22.1364 218.309 22.063 217.648 22.0034C217.865 21.9844 218.015 21.9792 218.048 22.0055C217.094 21.3018 216.124 20.6103 215.139 19.9346C215.277 19.8976 215.408 19.8533 215.53 19.7964C223.43 16.1714 230.594 18.5087 238.244 21.4089C242.658 23.0816 247.153 24.5049 251.594 26.0974C260.359 29.2413 269.096 32.402 278.013 35.0928C274.404 36.0049 270.778 36.833 267.092 37.3906ZM280.94 34.339C268.694 30.6207 256.484 26.3199 244.531 21.7882C234.211 17.8778 223.053 14.3193 212.34 18.0778C210.659 16.9958 208.933 15.9636 207.183 14.965C223.177 5.55124 241.247 14.4454 256.924 20.1303C269.355 24.6378 281.958 28.1551 294.868 31.0216C290.171 31.8919 285.56 33.1347 280.94 34.339ZM183.378 6.57297C193.651 10.2771 203.651 15.3168 212.434 21.7951C212.47 21.823 212.518 21.843 212.558 21.8663C209.217 22.0097 206.089 22.6575 203.115 23.8734C190.484 18.5172 173.428 12.5226 160.931 19.645C149.59 15.4207 136.576 16.1534 124.888 21.5181C115.864 25.6611 107.63 31.4394 99.1527 36.5551C89.103 42.6192 78.7695 48.4328 67.5516 52.0736C66.4448 52.4328 68.1794 52.8079 68.5287 52.8754C69.6858 53.1006 71.3516 53.4113 72.5114 53.0347C90.3951 47.2306 105.621 36.3024 121.698 26.935C129.986 22.1058 141.192 15.9482 151.101 18.0873C159.841 19.9747 167.858 25.6627 173.36 32.5656C173.367 32.575 173.38 32.5814 173.387 32.5904C169.923 32.526 166.477 33.062 163.16 34.4229C155.984 30.4619 148.413 27.6514 140.282 28.3529C131.136 29.1432 122.474 33.553 114.34 37.5119C104.686 42.2104 95.2331 47.3008 85.8143 52.4497C85.9953 52.351 89.9933 53.9721 91.3807 53.2125C96.8947 50.1989 102.45 47.0565 108.082 44.0266C108.452 44.0308 108.822 44.0186 109.182 43.987C119.911 43.0486 131.516 49.3485 140.66 54.3819C140.91 54.5201 141.181 54.6262 141.461 54.7106C134.095 56.5421 126.88 59.2946 120.684 61.6678C114.704 59.2692 108.438 57.8729 102.068 58.4526C100.821 58.5661 99.5863 58.7992 98.3614 59.1099C90.4295 54.7971 81.7925 54.2527 73.7785 59.438C73.1084 59.8716 72.4558 60.329 71.7978 60.7779C53.3636 54.7797 36.0568 45.6703 18.5812 37.4154C7.60088 32.2285 -9.5905 24.2337 -21.7507 30.6724C-29.5275 26.9066 -37.9868 24.3202 -46.5492 23.2615C-55.1973 22.1917 -65.3005 21.8104 -72.6451 27.2056C-76.9232 24.9268 -81.257 22.7029 -85.848 21.2575V23.2605C-85.0487 23.6308 -84.2594 24.0158 -83.4838 24.4035C-71.6185 30.3321 -60.3214 36.3651 -47.6099 40.3167C-46.3458 40.7096 -44.8234 40.7925 -43.5096 40.6743C-42.4685 40.5783 -42.5055 40.2307 -43.4455 39.9379C-48.8679 38.2536 -54.0117 36.2491 -59.0963 33.9682C-58.2161 34.1206 -57.3757 34.157 -56.8777 33.8811C-47.6925 28.786 -37.3632 34.7779 -29.2284 39.3977C-22.1937 43.3941 -15.3792 47.7581 -8.4297 51.8969C-7.43933 52.4872 -6.01174 52.5288 -4.8954 52.5705C-4.78795 52.5747 -2.30171 52.4128 -2.81409 52.1084C-13.5117 45.7372 -24.1601 37.7388 -35.976 33.5225C-43.9154 30.6898 -53.8351 28.8124 -61.7257 32.7607C-63.1016 32.1146 -64.4753 31.4552 -65.8499 30.7694C-67.0564 30.1681 -68.2575 29.5372 -69.4598 28.9C-68.8185 28.9427 -68.2647 28.8841 -67.9622 28.6336C-59.4587 21.6157 -47.3897 23.4662 -37.6328 26.4972C-27.4944 29.6448 -18.5996 35.1967 -9.50581 40.5319C12.1547 53.2388 35.1675 63.3579 59.4561 69.939C56.1129 72.5016 52.7289 75.0104 49.1909 77.2987C44.9849 75.2024 40.8625 72.979 36.8524 70.6706C31.1119 67.3669 25.7657 63.6733 19.1989 62.2227C14.336 61.1471 9.37465 61.4995 4.96696 63.5435C-2.84215 59.5008 -11.2319 57.4467 -20.2003 58.9923C-29.1374 54.2553 -38.7551 51.4538 -48.8659 56.0393C-48.9713 56.0884 -48.9734 56.1464 -48.9031 56.2086C-51.8065 55.4301 -54.7159 54.969 -57.5439 54.9917C-59.4887 52.8817 -60.7633 50.1503 -63.2866 48.6559C-66.2622 46.8941 -70.2181 46.6076 -73.5553 46.0975C-77.6935 45.4651 -81.7817 45.0468 -85.848 44.993V46.1081C-84.0427 46.021 -82.2157 46.0554 -80.3616 46.26C-76.4441 46.691 -70.0984 46.5638 -67.2247 49.6666C-65.6932 51.3219 -64.5859 53.2905 -63.0232 54.9342C-62.7704 55.2001 -62.3022 55.3467 -61.7423 55.4185C-63.5439 55.7903 -65.2881 56.4165 -66.9512 57.3491C-69.7388 56.9677 -72.5298 56.8992 -75.1644 57.3201C-78.7505 55.6021 -82.3136 54.7702 -85.848 54.6067V55.9929C-83.5976 56.1259 -81.3376 56.7225 -79.0952 57.9716C-78.9385 58.0591 -78.7731 58.1303 -78.6016 58.1963C-80.9315 59.0329 -83.0596 60.3664 -84.8597 62.3298C-85.1882 62.325 -85.5176 62.3235 -85.848 62.3261V63.7456C-81.3738 63.59 -76.9386 64.2668 -72.8165 66.2169C-59.2923 72.6192 -46.3911 80.8741 -31.513 83.807C-30.4231 84.0206 -24.942 83.8666 -28.5064 83.1639C-37.4736 81.3968 -46.2333 77.1863 -54.3617 73.1013C-62.4242 69.047 -69.9195 64.1428 -79.0055 62.7798C-69.4113 52.4376 -53.3577 63.6717 -43.8402 69.1235C-32.6738 75.5199 -21.1875 80.9126 -9.25703 85.7387C-8.05917 86.2234 -6.58289 86.2931 -5.30775 86.2709C-5.04838 86.2662 -3.08353 86.1037 -4.20569 85.6495C-12.6521 82.2345 -21.0604 78.6886 -29.1125 74.4132C-36.9788 70.2375 -44.4834 65.269 -52.6327 61.6425C-55.3728 60.4218 -58.5312 59.2397 -61.8302 58.3767C-54.5786 54.1957 -45.8097 59.1215 -38.9704 62.5139C-33.9309 65.0132 -29.0125 67.7451 -24.0135 70.3198C-10.8725 77.0861 2.25206 83.6408 16.2373 88.5007C17.4834 88.9343 18.8734 89.0561 20.1871 89.0329C20.4116 89.0282 22.4458 88.814 21.2903 88.412C4.2275 82.484 -11.7401 74.0741 -27.6674 65.6478C-32.9713 62.843 -39.6839 59.1247 -46.577 56.9002C-45.5524 57.0432 -44.2138 57.2183 -43.3001 56.8026C-34.8574 52.9745 -27.8797 57.212 -20.8789 61.5834C-16.5448 64.2889 -12.2657 67.081 -7.89878 69.7359C0.63868 74.9291 9.38364 80.1814 18.732 83.8064C19.9447 84.2759 21.3956 84.3608 22.6818 84.3382C22.9296 84.3339 24.9167 84.1567 23.7823 83.7168C10.6964 78.6443 -1.1986 70.6522 -13.0147 63.2049C-14.5164 62.2586 -16.0408 61.3281 -17.587 60.4387C-10.105 58.6742 -3.6552 61.2357 2.42938 64.9573C2.32829 65.0242 2.22507 65.0838 2.12502 65.153C2.14143 65.1408 2.65594 65.3281 3.37052 65.5433C8.0381 68.5015 12.5119 72.0463 17.0959 74.7276C27.2044 80.6377 38.0608 85.3879 49.0067 89.5245C46.7243 89.7751 44.5006 90.3142 42.2822 91.0358C34.3137 84.3951 22.9767 89.8442 14.3524 93.2191C11.5846 94.3026 8.81356 95.4019 6.03831 96.4976C0.205696 93.4592 -6.34469 92.3931 -12.8575 94.5237C-18.6388 96.4142 -23.9939 99.4331 -29.6291 101.704C-35.0505 103.889 -40.5639 105.493 -46.3021 106.507C-46.8333 106.19 -47.3674 105.879 -47.8941 105.553C-53.9724 101.777 -59.343 97.0398 -65.3233 93.1263C-71.7703 88.9068 -78.6678 86.4128 -85.848 85.7028V86.9862C-82.2468 87.2879 -78.7009 88.2828 -75.3058 90.2303C-69.526 93.5451 -64.4195 97.7472 -59.0415 101.643C-48.0603 109.601 -35.6332 114.691 -22.7379 118.666C-10.0256 122.585 2.62471 126.907 15.5736 130.001C16.8979 130.317 18.3118 130.482 19.6742 130.357C20.6572 130.269 20.7419 129.863 19.7377 129.622C12.2341 127.829 4.6933 125.774 -2.7924 123.528C-2.53832 123.511 -2.2853 123.495 -2.0344 123.457C15.1263 120.918 31.9233 114.801 48.2694 109.207C55.7884 106.633 63.2746 103.966 70.7783 101.35C74.0279 100.216 77.3329 98.8919 80.7307 98.2958C87.722 97.0678 93.535 99.1852 99.0929 103.264C99.2321 103.366 99.4121 103.444 99.608 103.508C96.9539 104.661 94.4365 106.016 91.9889 107.538C84.8239 105.465 77.3615 105.417 70.1225 107.815C56.7401 112.246 43.9861 118.246 30.4169 122.219C29.2868 122.551 31.0738 122.96 31.3935 123.021C32.5802 123.251 34.1856 123.53 35.3777 123.18C44.4529 120.523 53.3202 117.242 62.116 113.781C66.9143 111.894 71.7179 109.623 76.7036 108.278C81.5178 106.982 85.547 107.016 90.1548 108.713C87.4796 110.49 84.8642 112.46 82.2128 114.586C82.2027 114.594 82.4351 114.688 82.8035 114.814C80.5348 114.895 78.2439 115.144 75.9271 115.575C60.9292 118.364 47.4113 125.657 33.2376 130.955C18.768 136.365 4.16557 141.434 -10.4697 146.381C-14.4915 147.741 -18.5207 149.153 -22.5653 150.534C-25.0547 148.954 -28.2635 148.318 -30.9927 147.553C-38.2358 145.519 -45.0568 142.717 -51.0845 138.127C-56.5328 133.975 -61.3542 129.149 -66.4739 124.622C-70.2956 121.243 -74.4392 117.647 -79.4103 116.1C-81.5338 115.439 -83.6873 115.086 -85.848 114.983V116.171C-83.1077 116.059 -80.3883 117.878 -78.2463 119.419C-68.6099 126.349 -61.196 136.153 -50.6466 141.881C-46.0224 144.391 -41.1886 146.237 -36.1267 147.658C-32.8135 148.588 -28.805 149.189 -26.359 151.813C-32.1439 153.743 -37.9641 155.56 -43.8505 157.017C-45.0134 157.305 -43.1544 157.764 -42.8733 157.819C-41.6495 158.056 -40.1248 158.283 -38.8908 157.978C-29.5 155.654 -20.2955 152.306 -11.1329 149.24C2.48126 144.686 16.0568 140.007 29.5541 135.119C40.3835 131.197 50.8218 126.557 61.5289 122.365C71.0695 118.629 83.4657 113.507 93.6287 117.268C100.788 119.916 104.399 123.429 108.147 129.905C108.369 130.289 108.909 130.473 109.568 130.55C106.957 131.685 104.371 132.924 101.777 134.186C101.37 134.386 100.967 134.594 100.56 134.794C93.607 129.614 85.1145 127.383 76.6178 130.886C66.1907 135.186 56.5247 141.152 46.4638 146.207C46.502 146.188 46.647 146.218 46.8545 146.273C39.6276 145.974 32.4214 147.976 25.8419 151.542C15.9033 149.74 6.87094 152.66 -2.10163 157.655C-12.3816 163.379 -22.3827 169.598 -33.2318 174.206C-38.6977 172.901 -44.3441 173.028 -49.3141 175.951C-61.1507 171.449 -73.523 170.39 -85.848 171.888V173.229C-78.5986 171.894 -71.2282 171.571 -64.0529 172.989C-51.914 175.386 -41.9573 182.364 -31.3362 188.287C-17.4716 196.019 -3.05812 202.174 11.4205 208.624C26.9762 215.553 42.6993 220.874 59.3831 224.373C60.4745 224.603 65.9477 224.478 62.3896 223.732C52.4701 221.65 42.6374 219.061 33.1339 215.522C24.0994 212.156 15.3835 208.02 6.52794 204.222C-9.48357 197.354 -24.4687 189.04 -39.6168 180.489C-41.4779 179.439 -43.3586 178.487 -45.2528 177.627C-45.1447 177.591 -45.0454 177.545 -44.9617 177.487C-41.8364 175.302 -38.8163 174.134 -35.0991 175.217C-34.8553 175.374 -34.2419 175.558 -33.7667 175.685C-31.7835 176.451 -29.8324 177.282 -27.9856 178.346C-24.79 180.187 -21.703 182.237 -18.3185 183.734C-9.37189 187.691 -0.801079 192.21 7.97723 196.51C5.92663 197.089 3.95702 197.984 2.12502 199.231C2.17425 199.196 6.43108 200.85 7.69086 199.994C12.7237 196.572 17.8343 196.632 23.1609 199.783C25.2888 201.04 27.405 202.314 29.5398 203.556C30.9134 204.354 32.3018 205.13 33.6939 205.897C33.7484 205.942 33.8395 205.991 33.9533 206.039C36.8037 207.601 39.6874 209.1 42.622 210.509C44.1338 211.237 45.6471 211.957 47.161 212.67C47.1128 212.7 47.0673 212.733 47.0175 212.763C47.0503 212.742 47.3833 212.85 47.8687 212.999C51.5872 214.743 55.3194 216.423 59.0977 217.985C58.9511 218.084 58.8056 218.187 58.6568 218.286C58.6992 218.257 60.4904 218.94 62.0932 219.194C66.0022 220.729 69.9759 222.113 74.0485 223.3C67.5103 228.689 61.3167 234.326 54.0925 238.885C44.9643 235.254 36.0579 231.09 27.2727 226.219C18.2652 221.22 3.41711 212.478 -7.56637 217.168C-10.0833 215.782 -12.6876 214.576 -15.4787 213.765C-22.6897 211.671 -29.7821 210.631 -37.0781 212.008C-46.3683 207.416 -56.7528 205.023 -66.6567 208.906C-70.2336 207.788 -73.8299 207.192 -77.2992 207.513C-79.7017 204.357 -82.3342 202.387 -85.848 201.524V203.85C-84.3349 205.058 -83.1586 206.83 -81.9916 208.573C-83.177 209.018 -84.3372 209.606 -85.467 210.346C-85.5949 210.326 -85.7211 210.305 -85.848 210.285V210.593C-85.8987 210.628 -85.9504 210.656 -86 210.692C-85.9969 210.69 -85.9369 210.708 -85.848 210.739V211.446C-78.4003 212.98 -70.9492 216.852 -64.1736 220.057C-56.4573 223.709 -49.4899 228.527 -41.9817 232.538C-35.437 236.038 -28.5694 238.911 -21.7279 241.771C-20.5422 242.267 -19.0432 242.327 -17.777 242.304C-17.5087 242.299 -15.5629 242.149 -16.675 241.683C-25.9768 237.794 -35.3357 233.849 -43.8658 228.429C-52.2031 223.132 -60.976 219.024 -70.0601 215.175C-73.4406 213.742 -76.8942 212.419 -80.4255 211.45C-76.9769 209.021 -73.802 208.158 -69.5302 209.932C-67.8446 210.631 -66.1888 211.385 -64.5425 212.176C-61.8715 213.459 -59.2265 214.79 -56.6049 216.172C-49.5515 219.894 -42.5582 223.733 -35.438 227.332C-22.5187 233.861 -9.80223 240.242 4.21109 244.125C5.50635 244.485 6.97416 244.604 8.31176 244.483C9.32489 244.392 9.34765 244.017 8.37422 243.747C-10.3263 238.564 -27.5425 228.913 -44.5558 219.808C-49.7655 217.022 -56.1093 213.036 -62.6887 210.346C-57.359 207.872 -52.6431 207.556 -47.1668 209.845C-44.0736 211.139 -41.0068 212.57 -38.1171 214.275C-34.3903 216.471 -30.9757 219.126 -27.3022 221.406C-15.8852 228.488 -3.74571 234.775 9.0327 239.01C10.2914 239.426 11.6592 239.565 12.983 239.541C13.198 239.538 15.2491 239.306 14.084 238.922C-1.97141 233.6 -15.9472 224.924 -30.1029 215.952C-31.4728 215.084 -32.8786 214.247 -34.3163 213.453C-23.4297 210.686 -14.7249 216.083 -5.7889 221.54C-0.842896 224.56 4.31325 227.211 9.53027 229.734C22.513 236.014 36.2304 242.451 50.5158 245.087C51.6025 245.288 57.0911 245.103 53.5208 244.443C44.5535 242.789 35.8805 239.202 27.5516 235.592C20.1014 232.364 12.7083 228.929 5.5651 225.066C2.21871 223.255 -0.970467 221.108 -4.23322 219.112C2.83326 214.813 12.4543 220.956 18.8623 224.464C24.7806 227.707 30.5704 231.176 36.6941 234.03C49.7742 240.125 63.5134 244.578 77.3711 248.544C78.6579 248.912 80.14 249.023 81.4702 248.902C82.4917 248.809 82.4981 248.442 81.5342 248.167C73.5822 245.889 65.8524 243.367 58.281 240.506C58.3223 240.488 58.3689 240.474 58.4049 240.452C66.2203 235.743 72.8665 229.866 79.7795 223.969C88.5393 216.496 99.7366 209.759 111.375 214.64C121.397 218.843 130.738 224.61 140.087 230.312C139.877 230.489 140.59 230.759 141.058 230.904C146.147 234.004 151.244 237.072 156.461 239.838C157.537 240.41 159.23 240.392 160.41 240.371C160.767 240.364 162.539 240.295 161.512 239.751C156.315 236.993 151.186 234.06 146.096 231.071C159.626 229.343 172.961 237.265 184.546 243.294C194.091 248.262 203.592 253.394 213.547 257.513C214.737 258.005 216.229 258.068 217.496 258.046C217.763 258.041 219.715 257.887 218.599 257.425C205.145 251.857 192.634 244.375 179.526 238.093C168.364 232.744 156.371 228.857 143.961 229.812C141.032 228.08 138.115 226.336 135.205 224.596C126.697 219.51 117.614 213.538 107.619 211.986C96.6999 210.293 86.3256 213.624 77.6871 220.368C76.9497 220.944 76.2288 221.53 75.5057 222.115C72.0095 221.026 68.534 219.802 65.0923 218.459C71.2823 214.279 77.1218 209.622 83.2286 205.326C89.69 200.778 97.3927 194.924 105.413 193.729C105.611 193.699 105.811 193.686 106.008 193.666C107.294 194.007 108.865 194.266 109.547 193.855C113.267 194.545 116.908 196.577 120.141 198.146C123.344 199.701 126.505 201.331 129.525 203.219C134.929 206.597 140.029 210.428 145.407 213.848C152.159 218.142 159.06 222.193 165.803 226.507C171.652 230.245 177.598 233.853 183.92 236.756C198.62 243.509 213.978 248.882 229.51 253.378C230.793 253.748 232.28 253.855 233.61 253.735C234.633 253.641 234.634 253.277 233.674 252.999C215.781 247.823 197.124 241.796 180.9 232.512C173.893 228.502 166.991 224.258 160.166 219.891C160.338 219.852 160.505 219.806 160.661 219.74C168.627 216.38 176.924 220.604 184.107 224.145C190.183 227.14 196.196 230.249 202.3 233.191C213.932 238.798 225.706 244.056 237.657 248.952C238.85 249.441 240.335 249.506 241.607 249.483C241.869 249.48 243.827 249.322 242.709 248.863C236.835 246.457 230.996 243.968 225.194 241.393C225.307 241.365 225.412 241.329 225.508 241.281C231.512 238.238 239.986 234.337 246.937 235.424C253.956 236.521 260.696 240.106 266.937 243.323C278.96 249.522 291.424 254.7 303.612 260.551C303.645 260.567 303.683 260.578 303.718 260.594C301.054 261.44 298.387 262.283 295.703 263.061C285.081 257.399 272.287 250.108 260.221 254.207C255.49 251.805 249.759 250.923 244.589 252.065C238.613 253.385 233.49 256.929 228.162 259.791C223.607 262.236 219.031 264.65 214.438 267.032C206.173 261.453 198.827 254.527 190.244 249.45C181.952 244.544 173.414 244.508 165.3 249.271C164.425 249.054 163.543 248.871 162.648 248.738C155.883 247.731 149.272 249.119 142.989 251.682C125.46 244.925 99.9912 235.088 86.1875 252.121C84.0495 252.062 81.9031 252.258 79.7663 252.65C69.3449 248.803 58.354 250.704 48.7103 255.928C43.3562 254.924 37.919 255.119 32.6061 256.648C32.1208 256.789 31.6444 256.955 31.1664 257.117C18.8061 250.507 6.11665 247.753 -7.85802 251.608C-12.5351 252.899 -17.1614 254.39 -21.7528 255.998C-31.423 253.115 -41.3912 250.665 -51.4842 250.111C-61.0556 249.585 -68.9105 251.89 -77.261 256.313C-80.1404 255.969 -82.9996 255.745 -85.848 255.707V256.822C-84.0427 256.734 -82.2157 256.769 -80.3616 256.974C-76.4441 257.404 -70.0984 257.279 -67.2247 260.381C-65.6932 262.036 -64.5859 264.004 -63.0232 265.649C-62.7704 265.913 -62.3022 266.059 -61.7423 266.132C-63.5439 266.504 -65.2881 267.13 -66.9512 268.061C-69.7388 267.68 -72.5298 267.612 -75.1644 268.032C-78.7505 266.316 -82.3136 265.482 -85.848 265.319V266.707C-83.5976 266.84 -81.3376 267.435 -79.0952 268.686C-78.9385 268.773 -78.7731 268.846 -78.6016 268.909C-80.9315 269.746 -83.0596 271.08 -84.8597 273.042C-85.1882 273.039 -85.5176 273.037 -85.848 273.039V274.459C-81.3738 274.305 -76.9386 274.98 -72.8165 276.931C-59.2923 283.332 -46.3911 291.587 -31.513 294.52C-30.4231 294.734 -24.942 294.58 -28.5064 293.877C-37.4736 292.11 -46.2333 287.899 -54.3617 283.814C-62.4242 279.761 -69.9195 274.856 -79.0055 273.493C-69.4113 263.15 -53.3577 274.385 -43.8402 279.836C-32.6738 286.232 -21.1875 291.627 -9.25703 296.452C-8.05917 296.936 -6.58289 297.007 -5.30775 296.985C-5.04838 296.979 -3.08353 296.817 -4.20569 296.364C-12.6521 292.948 -21.0604 289.402 -29.1125 285.126C-36.9788 280.952 -44.4834 275.983 -52.6327 272.356C-55.3728 271.136 -58.5312 269.952 -61.8302 269.09C-54.5786 264.908 -45.8097 269.836 -38.9704 273.227C-33.9309 275.726 -29.0125 278.458 -24.0135 281.032C-10.8725 287.799 2.25206 294.355 16.2373 299.214C16.2966 299.233 16.3596 299.244 16.4194 299.264C2.41086 304.61 -11.2494 310.982 -25.2013 316.477C-31.7268 313.167 -38.1574 309.673 -44.5558 306.248C-55.9121 300.173 -72.6534 288.4 -85.467 296.786C-85.5949 296.766 -85.7211 296.745 -85.848 296.725V297.034C-85.8987 297.067 -85.9504 297.097 -86 297.13C-85.9969 297.128 -85.9369 297.148 -85.848 297.179V297.886C-78.4003 299.42 -70.9492 303.292 -64.1736 306.498C-56.4573 310.148 -49.4899 314.965 -41.9817 318.978C-40.9582 319.526 -39.9244 320.053 -38.8867 320.573H-33.6509C-37.144 318.836 -40.5691 316.964 -43.8658 314.868C-52.2031 309.571 -60.976 305.464 -70.0601 301.614C-73.4406 300.182 -76.8942 298.86 -80.4255 297.889C-76.9769 295.461 -73.802 294.599 -69.5302 296.371C-67.8446 297.071 -66.1888 297.824 -64.5425 298.615C-61.8715 299.898 -59.2265 301.228 -56.6049 302.61C-49.5515 306.334 -42.5582 310.172 -35.438 313.771C-30.8439 316.093 -26.2748 318.395 -21.6649 320.573H-16.8422C-18.5393 319.776 -20.2283 318.954 -21.9105 318.124C-21.8354 318.101 -21.7565 318.083 -21.6834 318.054C-8.26243 312.868 4.96114 307.22 18.2271 301.658C23.0698 299.629 27.9327 297.607 33.0264 296.279C37.2229 295.183 41.0404 294.264 45.3083 295.995C48.5843 297.326 51.6645 299.009 54.7525 300.721C54.834 300.766 54.9219 300.803 55.0077 300.842C48.7061 303.109 42.3256 305.133 35.961 306.973C34.8261 307.302 36.62 307.714 36.9371 307.776C38.1259 308.007 39.725 308.281 40.9197 307.934C54.6366 303.97 68.1899 299.135 81.1039 293.018C87.6871 289.9 93.8759 286.174 99.9933 282.24C106.744 277.898 113.741 273.939 120.45 269.538C125.704 266.092 130.737 262.279 136.142 259.066C142.275 255.422 149.46 251.154 156.542 249.815C165.512 248.118 175.778 256.602 182.662 261.581C188.496 265.802 194.173 270.238 200.164 274.24C198.814 274.901 197.463 275.558 196.106 276.208C193.805 275.314 191.455 274.574 189.075 274.038C181.82 269.041 174.485 264.282 165.705 262.543C157.959 261.006 150.318 262.204 143.157 265.296C138.946 264.896 134.587 265.496 130.11 267.431C112.521 275.041 96.3918 286.185 79.7186 295.543C79.8827 295.451 83.9098 297.078 85.2845 296.306C99.0744 288.567 112.474 280.092 126.455 272.696C131.067 270.256 135.994 267.424 141.146 266.291C141.758 266.158 142.386 266.109 143.025 266.131C143.587 266.308 144.262 266.457 144.316 266.464C144.778 266.528 145.335 266.611 145.899 266.649C150.933 268.221 156.204 272.95 159.505 275.728C159.519 275.74 159.54 275.748 159.553 275.76C157.383 276.159 155.233 276.81 153.118 277.748C150.693 277.599 148.3 277.699 145.976 278.128C141.926 275.963 137.662 274.725 132.904 274.747C124.91 274.785 117.868 278.703 111.31 282.908C111.396 282.853 115.58 284.503 116.876 283.673C121.709 280.572 127.067 277.194 132.829 276.177C136.476 275.534 139.405 277.194 142.402 279.081C140.174 279.863 138.032 280.997 136.018 282.565C123.51 283.742 111.832 290.032 101.006 296.639C83.7912 296.359 66.3971 303.553 51.8667 312.288C44.6768 310.55 36.6353 309.904 29.8494 312.46C25.3009 314.176 21.5115 317.487 17.8279 320.573H23.7188C26.376 318.414 29.1227 316.435 31.999 314.811C41.3389 309.541 50.9705 313.443 60.1585 316.953C63.3646 318.178 66.5829 319.376 69.8001 320.573H75.4438C72.8803 319.571 70.3157 318.567 67.7458 317.58C76.2563 313.936 85.0097 311.228 93.8182 308.391C105.678 304.572 117.492 306.91 129.026 310.813C130.279 311.238 131.656 311.369 132.976 311.344C133.195 311.341 135.239 311.118 134.078 310.724C122.309 306.742 109.215 303.735 96.7247 305.554C90.3035 306.491 84.0776 308.902 77.9142 310.88C73.1375 312.415 68.4583 314.181 63.8373 316.119C61.4649 315.247 59.0866 314.402 56.6883 313.638C56.6385 313.623 56.5866 313.609 56.5363 313.592C63.3466 309.438 70.6111 305.952 78.0899 303.164C85.6576 300.345 93.8161 297.65 102.001 297.753C103.303 298.106 104.914 298.416 105.653 297.963C105.665 297.955 105.678 297.948 105.691 297.941C114.969 298.668 124.858 301.101 133.298 304.737C140.688 307.921 147.342 312.573 154.303 316.569C151.42 316.958 148.526 317.515 145.611 318.253C142.866 318.95 140.148 319.724 137.458 320.573H145.557C149.593 319.379 153.703 318.327 157.855 317.655C158.112 317.669 158.364 317.679 158.605 317.688C158.713 317.694 161.001 317.527 160.724 317.259C161.005 317.225 161.284 317.187 161.563 317.158C168.602 316.447 175.359 317.757 182.007 320.07C182.465 320.229 182.921 320.407 183.378 320.573H188.2C188.277 320.52 188.353 320.464 188.429 320.412C186.633 319.789 184.828 319.212 183.022 318.695C179.871 317.793 176.736 317.116 173.612 316.656C178.834 314.642 183.934 312.327 189.23 310.496C194.817 308.567 200.876 306.087 206.783 308.295C209.523 309.32 212.124 310.612 214.72 311.944C205.441 312.532 196.426 315.042 188.429 320.412C188.581 320.466 188.732 320.518 188.884 320.573H194.927C210.95 310.335 229.518 312.114 247.079 317.993C249.563 318.825 252.037 319.69 254.506 320.573H260.177C255.204 318.806 250.197 317.141 245.115 315.712C241.648 314.737 238.098 313.899 234.506 313.251C234.825 313.158 234.961 313.01 234.46 312.781C217.428 305.016 200.662 296.658 183.906 288.326C176.724 284.755 167.694 280.293 158.697 278.491C163.02 276.533 167.477 275.736 172.287 277.24C176.256 278.483 180.031 280.267 183.656 282.292C188.603 285.056 193.364 288.19 198.418 290.762C206.094 294.668 214.234 297.719 222.299 300.714C241.053 307.675 260.099 314.193 279.391 319.519C279.541 319.559 279.699 319.587 279.853 319.623C278.598 319.946 277.343 320.268 276.084 320.573H284.588C289.661 319.229 294.714 317.809 299.894 316.955C306.681 315.834 313.481 315.822 320.324 316.402C323.337 316.658 326.215 317.531 329 318.673V316.863C327.582 316.447 326.142 316.094 324.669 315.839C315.659 314.28 305.52 314.246 296.507 315.733C291.831 316.505 287.251 317.693 282.67 318.888C260.784 312.813 239.046 305.426 217.957 297.023C213.448 295.225 208.928 293.399 204.582 291.233C198.819 288.361 193.485 284.71 187.793 281.703C183.493 279.43 178.898 277.529 174.2 276.394C181.059 273.384 187.595 274.554 193.851 277.302C193.842 277.306 193.832 277.312 193.823 277.316C193.832 277.312 193.857 277.313 193.877 277.314C195.166 277.88 196.442 278.514 197.706 279.189C197.717 279.343 198.099 279.493 198.459 279.599C203.214 282.214 207.808 285.384 212.261 287.886C224.852 294.964 238.229 300.621 251.79 305.566C253.023 306.015 254.436 306.121 255.739 306.099C255.974 306.095 257.989 305.896 256.842 305.477C247.731 302.156 238.728 298.527 229.989 294.319C221.053 290.013 212.768 284.791 204.116 279.993C203.964 279.908 203.809 279.825 203.656 279.743C213.035 277.398 221.557 283.234 229.389 287.695C234.752 290.751 240.116 293.807 245.536 296.764C257.427 303.255 269.656 310.13 282.717 313.995C283.995 314.373 285.492 314.472 286.816 314.353C287.846 314.26 287.836 313.899 286.88 313.618C285.074 313.084 283.282 312.485 281.5 311.846C281.579 311.831 281.658 311.821 281.736 311.802C288.898 310.034 296.152 308.311 303.419 307.041C308.973 306.074 314.677 305.374 320.325 305.721C323.348 305.906 326.244 306.986 329 308.263V306.259C328.125 305.984 327.244 305.733 326.351 305.521C320.168 304.044 313.686 303.931 307.164 304.566C307.194 304.552 307.23 304.542 307.257 304.523C313.405 300.467 319.541 296.319 327.501 297.609C328.001 297.689 328.5 297.783 329 297.886V297.179C328.911 297.148 328.852 297.128 328.849 297.13C328.898 297.097 328.949 297.067 329 297.034V296.725C326.332 296.319 323.621 296.17 320.863 296.387C317.225 296.675 313.275 297.154 309.898 298.628C306.926 299.924 304.381 301.984 301.691 303.759C301.74 303.726 303.922 304.563 305.625 304.731C296.197 305.814 286.738 308.359 278.005 310.533C265.09 305.425 252.792 298.003 240.894 291.258C236.867 288.975 232.758 286.504 228.538 284.307C228.637 284.282 228.738 284.258 228.832 284.223C238.178 280.938 246.47 286.846 254.422 291.162C260.688 294.563 266.967 297.934 273.404 301.009C274.533 301.547 276.134 301.563 277.353 301.541C277.668 301.535 279.525 301.431 278.456 300.921C267.731 295.795 257.579 288.805 246.522 284.428C244.439 283.604 242.327 282.961 240.196 282.507C243.837 279.9 247.871 277.373 252.312 276.448C258.87 275.083 264.629 278.269 270.224 281.171C278.726 285.583 286.892 290.602 295.294 295.198C295.617 295.376 295.979 295.491 296.351 295.585C294.609 296.587 292.862 297.579 291.095 298.536C286.646 300.945 281.438 304.125 276.239 304.323C272.604 304.463 277.973 305.52 279.087 305.476C288.815 305.105 297.648 298.794 305.781 294.091C313.29 289.749 320.546 285.327 329 284.086V282.612C328.882 282.616 328.768 282.615 328.65 282.62C320.631 282.955 314.007 285.583 307.024 289.459C304.244 291.001 301.498 292.608 298.748 294.205C293.008 291.007 287.353 287.659 281.603 284.479C276.233 281.508 270.623 278.132 264.707 276.387C253.756 273.161 243.771 275.236 234.574 281.789C231.546 281.664 228.506 281.976 225.489 282.783C223.114 281.65 220.701 280.637 218.249 279.823C230.524 273.21 242.724 266.455 255.125 260.08C257.819 258.695 260.52 257.313 263.255 256.008C267.634 253.923 271.741 254.26 276.213 255.992C281.828 258.165 286.968 261.216 292.278 264.009C289.778 264.668 287.262 265.252 284.714 265.702C276.753 267.109 268.67 268.14 260.611 268.797C259.595 268.881 259.578 269.27 260.547 269.533C261.852 269.886 263.299 270 264.646 269.891C279.268 268.7 293.53 266.258 307.54 261.883C314.621 259.671 321.636 257.182 329 256.822V255.707C323.679 255.635 318.393 256.187 313.081 257.712C310.993 258.31 308.912 258.953 306.834 259.61C299.311 256.066 291.648 252.828 284.126 249.285C283.533 249.005 282.942 248.712 282.351 248.424C282.829 248.411 283.291 248.345 283.701 248.183C288.327 246.384 292.89 244.295 297.643 242.844C302.918 241.234 308.843 239.287 314.305 241.064C319.398 242.723 324.205 245.014 329 247.34V244.711C323.502 242.129 317.861 239.934 311.855 239.334C300.385 238.188 289.791 242.831 279.362 246.938C272.927 243.673 266.578 240.155 259.832 237.612C246.73 232.668 233.993 233.848 221.537 239.75C212.871 235.836 204.29 231.735 195.822 227.413C184.537 221.654 170.46 214.135 157.439 218.131C151.426 214.244 145.467 210.277 139.551 206.298C139.231 206.084 138.909 205.869 138.587 205.651C138.744 205.617 138.898 205.574 139.045 205.517C146.599 202.595 153.193 202.452 160.757 205.387C165.934 207.396 171.084 209.55 176.148 211.824C185.338 215.952 194.351 220.268 203.848 223.683C205.085 224.128 206.492 224.239 207.798 224.215C208.028 224.212 210.05 224.008 208.9 223.594C195.363 218.727 182.569 212.137 169.271 206.682C165.52 205.144 161.786 203.914 158.048 203.099C158.087 203.076 158.132 203.058 158.167 203.031C161.782 200.184 165.941 198.33 170.71 199.702C173.869 200.612 176.898 201.876 179.843 203.328C184.694 205.718 189.483 208.234 194.316 210.664C206.191 216.637 218.079 222.581 230.174 228.101C231.323 228.626 232.886 228.655 234.123 228.634C234.419 228.628 236.311 228.508 235.226 228.013C219.793 220.97 204.579 213.385 189.518 205.583C184.732 203.104 179.201 200.484 173.559 199.052C173.818 199.03 174.049 198.979 174.24 198.889C181.458 195.456 189.699 199.949 196.191 203.318C202.573 206.628 208.738 210.332 215.079 213.719C227.469 220.335 240.465 225.703 253.73 230.31C254.976 230.744 256.366 230.866 257.678 230.842C257.904 230.838 259.939 230.623 258.78 230.222C249.624 227.041 240.566 223.541 231.786 219.43C222.701 215.173 214.099 210.129 205.284 205.37C200.401 202.733 194.595 199.715 188.581 197.858C202.253 192.041 213.813 202.64 225.038 209.29C235.054 215.223 245.276 220.5 256.224 224.511C257.455 224.962 258.871 225.066 260.173 225.043C260.408 225.039 262.422 224.842 261.275 224.422C253.563 221.596 246.171 218.248 238.998 214.25C231.715 210.192 224.834 205.518 217.623 201.359C229.184 198.372 241.229 208.056 251.015 213.325C260.13 218.233 269.324 223.144 278.948 226.996C280.15 227.478 281.619 227.55 282.897 227.528C283.153 227.522 285.125 227.359 283.999 226.908C282.872 226.457 281.756 225.978 280.638 225.501C281.017 225.488 281.388 225.448 281.736 225.362C288.898 223.594 296.152 221.87 303.419 220.602C308.973 219.633 314.677 218.935 320.325 219.282C323.348 219.466 326.244 220.546 329 221.824V219.82C328.125 219.544 327.244 219.294 326.351 219.08C320.168 217.604 313.686 217.491 307.164 218.127C307.194 218.112 307.23 218.102 307.257 218.083C313.405 214.026 319.541 209.88 327.501 211.169C328.001 211.251 328.5 211.343 329 211.446V210.739C328.911 210.708 328.852 210.69 328.849 210.692C328.898 210.656 328.949 210.628 329 210.593V210.285C326.332 209.88 323.621 209.73 320.863 209.949C317.225 210.235 313.275 210.715 309.898 212.188C306.926 213.485 304.381 215.545 301.691 217.319C301.74 217.286 303.922 218.123 305.625 218.291C300.101 218.925 294.568 220.069 289.171 221.34C277.075 216.044 265.16 210.307 253.254 204.609C243.687 200.032 234.236 194.985 224.527 190.599C228.323 186.165 234.781 187.56 239.7 188.958C245.1 190.495 250.356 192.533 255.44 194.908C268.451 200.985 281.243 207.42 294.465 213.052C295.644 213.553 297.155 213.606 298.416 213.583C298.691 213.578 300.625 213.434 299.518 212.962C290.088 208.946 280.759 204.698 271.544 200.216C264.673 196.876 257.904 193.332 250.688 190.773C244.613 188.617 238.321 186.844 231.849 186.479C227.898 186.258 223.446 186.312 220.226 188.706C216.483 187.116 212.694 185.646 208.839 184.363C207.605 183.953 206.365 183.547 205.122 183.146C207.769 178.015 213.97 173.697 219.647 172.72C222.092 172.298 224.629 172.301 227.194 172.562C228.275 172.877 229.716 173.182 230.636 173.054C235.827 173.998 241.018 175.755 245.699 177.124C261.409 181.727 276.862 187.08 292.456 192.042C289.323 193.226 286.108 194.132 282.78 194.509C281.791 194.621 281.719 194.975 282.716 195.244C283.999 195.592 285.491 195.753 286.815 195.602C299.43 194.167 309.522 186.318 321.134 181.996C323.852 180.984 326.423 180.465 329 180.443V179.141C327.747 179.048 326.487 178.999 325.219 179.013C318.287 179.096 311.559 182.811 305.559 185.876C302.065 187.66 298.505 189.531 294.832 191.089C275.962 185.009 257.238 177.959 237.881 173.572C235.963 173.135 233.917 172.718 231.808 172.365C239.22 165.859 248.901 161.668 258.637 165.302C267.333 168.547 275.576 172.734 283.654 177.276C284.672 177.848 286.05 177.907 287.187 177.95C287.3 177.954 289.778 177.773 289.268 177.486C283.293 174.126 277.232 170.862 270.933 168.135C266.002 166 260.826 163.658 255.44 162.966C244.546 161.567 234.489 164.385 226.216 171.637C216.045 170.726 205.443 172.265 199.948 181.525C189.97 178.485 179.743 175.96 169.398 174.778C173.306 173.601 177.143 172.253 180.92 170.76C181.011 170.763 181.104 170.766 181.19 170.769C181.295 170.773 183.786 170.648 183.271 170.306C183.119 170.204 182.966 170.095 182.813 169.993C186.495 168.488 190.132 166.872 193.738 165.175C194.434 165.101 195.221 164.97 194.91 164.783C194.861 164.752 194.811 164.721 194.761 164.69C196.776 163.734 198.786 162.763 200.789 161.773C205.307 159.537 209.719 157.135 214.055 154.569C220.474 150.767 226.893 146.105 234.16 151.021C230.232 152.391 226.375 154.147 222.474 156.121C212.451 161.192 202.821 166.986 192.783 172.028C193.013 171.912 196.92 173.511 198.349 172.792C207.108 168.392 215.529 163.376 224.218 158.847C234.233 153.627 245.108 147.666 256.826 149.508C267.071 151.119 275.285 156.671 283.897 162.012C292.129 167.118 300.458 172.034 309.153 176.321C309.192 176.339 309.235 176.352 309.273 176.37C305.976 177.45 302.704 178.669 299.473 180.038C298.909 180.275 301.339 180.839 301.443 180.853C302.517 181 304.001 181.242 305.041 180.801C312.547 177.623 320.693 174.757 329 173.229V171.888C323.473 172.557 317.958 173.756 312.506 175.365C306.097 172.119 299.904 168.523 293.781 164.801C294.186 164.796 294.537 164.73 294.787 164.575C304.608 158.542 317.053 152.454 329 153.087V151.89C315.5 151.165 302.299 156.053 290.71 162.922C287.569 160.992 284.437 159.047 281.295 157.113C281.66 157.115 282.025 157.105 282.382 157.076C288.258 156.616 294.233 155.3 299.545 152.685C305.157 149.922 310.171 146.248 315.983 143.818C319.274 142.443 322.655 141.133 326.167 140.438C327.166 140.239 328.098 140.162 329 140.171V138.822C326.814 138.684 324.581 138.809 322.296 139.261C306.754 142.34 295.079 154.246 279.244 155.895C271.313 151.37 262.735 148.762 253.541 148.154C247.889 147.779 242.652 148.496 237.587 149.932C233.182 147.627 228.021 146.753 223.07 147.478C218.859 148.094 215.132 149.893 211.52 151.966C201.188 147.128 190.869 142.168 181.001 136.441C171.49 130.922 162.405 124.669 152.434 119.959C138.303 113.284 116.326 106.965 103.681 119.371C102.516 118.717 101.247 118.129 99.8366 117.608C96.0117 116.192 92.1646 115.312 88.2693 114.96C90.7868 112.949 93.2741 111.042 95.8323 109.315C96.0446 109.258 96.1938 109.182 96.1742 109.085C100.811 105.992 105.706 103.489 111.496 102.015C123.241 99.028 135.205 105.446 145.382 110.781C166.141 121.663 186.431 134.382 208.56 142.352C209.795 142.797 211.204 142.908 212.508 142.885C212.74 142.881 214.761 142.678 213.611 142.264C199.158 137.058 185.76 129.561 172.268 122.317C161.595 116.585 150.96 110.282 139.782 105.567C132.148 102.348 123.251 99.4674 114.671 99.7649C119.607 95.5491 125.318 92.0402 131.789 90.8496C138.505 89.6132 144.856 90.9773 151.107 93.4797C160.671 97.3062 168.855 102.93 177.457 108.452C199.6 122.665 224.515 130.518 249.463 138.354C250.724 138.751 252.251 138.831 253.562 138.712C254.606 138.618 254.564 138.271 253.626 137.977C237.966 133.057 222.178 128.189 207.11 121.635C194.554 116.172 183.629 108.608 172.072 101.437C164.497 96.736 156.075 92.5656 147.266 90.5537C135.334 84.0127 123.578 74.2597 109.512 73.1456C103.126 72.6398 96.9031 73.6109 91.1049 76.4162C85.6037 79.0779 80.7868 82.7478 75.5613 85.8642C75.6905 85.7883 79.7879 87.4277 81.1282 86.628C89.3449 81.7265 99.8716 72.0701 110.294 74.3399C121.141 76.7021 130.446 83.9293 139.99 89.4101C127.788 88.3714 117.052 91.7638 107.708 100.225C107.678 100.252 108.021 100.398 108.546 100.573C106.569 101.028 104.684 101.581 102.872 102.226C95.205 97.3337 85.5544 95.4399 76.5676 97.1522C72.5267 95.4304 68.4234 94.1312 64.0411 93.8073C61.0076 91.6082 58.0576 89.9291 54.229 89.5019C39.3889 83.9025 25.4063 77.0966 12.3891 68.0437C11.0817 67.1332 9.75311 66.2702 8.40968 65.4589C13.2107 62.5139 18.0889 62.7038 23.1609 65.7053C25.2888 66.9623 27.405 68.2357 29.5398 69.4774C33.8114 71.9609 38.1651 74.2898 42.622 76.432C44.1338 77.1599 45.6471 77.8805 47.161 78.5926C47.1128 78.6216 47.0673 78.6554 47.0175 78.6849C47.0503 78.6654 47.3833 78.7725 47.8687 78.9218C51.5872 80.6652 55.3194 82.3463 59.0977 83.9077C58.9511 84.0063 58.8056 84.1092 58.6568 84.2073C58.6992 84.1799 60.4904 84.863 62.0932 85.1162C66.269 86.7557 70.5121 88.2369 74.878 89.4734C76.1658 89.8384 77.6426 89.9518 78.976 89.8316C79.9955 89.7382 80.0071 89.3694 79.0411 89.0957C74.3513 87.7669 69.6927 86.1765 65.0923 84.3809C71.2823 80.2004 77.1218 75.5452 83.2286 71.2477C89.69 66.7001 97.3927 60.8459 105.413 59.6516C110.524 58.89 115.715 61.9199 120.141 64.0689C123.344 65.6235 126.505 67.253 129.525 69.1414C134.929 72.5211 140.029 76.3507 145.407 79.77C152.159 84.0639 159.06 88.1156 165.803 92.4268C171.652 96.1689 177.598 99.776 183.92 102.679C198.62 109.43 213.978 114.804 229.51 119.299C230.793 119.67 232.28 119.778 233.61 119.657C234.633 119.564 234.634 119.2 233.674 118.921C218.639 114.571 203.069 109.614 188.852 102.635C189.23 102.614 189.549 102.535 189.758 102.37C194.905 98.3259 200.728 95.9585 207.209 98.3296C210.749 99.6246 214.108 101.314 217.493 102.956C224.922 106.559 232.214 110.409 239.406 114.463C253.105 122.185 266.68 130.947 281.441 136.553C281.62 136.621 281.812 136.666 282 136.719C276.941 139.606 271.642 141.935 265.835 142.906C264.628 143.106 266.589 143.664 266.812 143.707C268.099 143.957 269.496 144.084 270.795 143.867C282.372 141.933 292.345 134.626 301.839 128.203C307.132 124.622 312.647 121.24 318.632 118.922C321.866 117.669 325.315 116.438 328.808 116.177C328.871 116.172 328.936 116.173 329 116.171V114.983C319.874 114.549 310.612 118.609 302.959 123.16C296.633 126.923 290.522 131.592 284.07 135.502C280.43 134.03 276.857 132.397 273.335 130.643C273.895 130.661 274.447 130.626 274.947 130.499C285.987 127.69 296.473 122.321 305.757 115.787C310.463 112.474 314.743 108.291 320.075 105.964C323.225 104.588 326.151 104.4 329 104.9V103.349C325.015 102.749 320.883 102.74 317.062 104.165C311.243 106.337 306.82 110.261 301.867 113.83C292.492 120.583 281.978 126.338 270.754 129.33C258.072 122.782 245.949 114.922 233.396 108.328C218.852 100.691 200.673 89.8474 185.267 100.816C183.796 100.043 182.335 99.2564 180.9 98.4351C166.765 90.3448 153.054 81.3045 139.551 72.2209C139.231 72.0052 138.909 71.7905 138.587 71.5742C138.744 71.5399 138.898 71.4967 139.045 71.4402C146.599 68.5173 153.193 68.3749 160.757 71.31C165.934 73.3181 171.084 75.4725 176.148 77.7465C185.338 81.8732 194.351 86.1892 203.848 89.6053C205.085 90.0505 206.492 90.1602 207.798 90.138C208.028 90.1333 210.05 89.9302 208.9 89.5161C195.363 84.6489 182.569 78.0598 169.271 72.6049C165.52 71.0657 161.786 69.8361 158.048 69.0211C158.087 68.9979 158.132 68.9805 158.167 68.9541C161.782 66.1056 165.941 64.2525 170.71 65.624C173.869 66.5334 176.898 67.7973 179.843 69.25C184.694 71.6407 189.483 74.1553 194.316 76.586C206.191 82.56 218.079 88.5038 230.174 94.0236C231.323 94.5484 232.886 94.578 234.123 94.5553C234.419 94.5506 236.311 94.4303 235.226 93.9344C219.793 86.8928 204.579 79.3068 189.518 71.5051C184.732 69.0264 179.201 66.4058 173.559 64.9736C173.818 64.952 174.049 64.9024 174.24 64.8122C181.458 61.3787 189.699 65.8725 196.191 69.2406C202.573 72.5512 208.738 76.2563 215.079 79.6413C227.469 86.2583 240.465 91.6256 253.73 96.2328C254.976 96.6648 256.366 96.7887 257.678 96.7645C257.904 96.7608 259.939 96.5461 258.78 96.1441C249.624 92.9639 240.566 89.4649 231.786 85.3515C222.701 81.0956 214.099 76.0517 205.284 71.2925C200.401 68.6556 194.595 65.6377 188.581 63.7815C202.253 57.9626 213.813 68.5632 225.038 75.2119C235.054 81.1452 245.276 86.4218 256.224 90.4329C257.455 90.885 258.871 90.9889 260.173 90.9651C260.408 90.9614 262.422 90.7647 261.275 90.3448C253.563 87.5185 246.171 84.172 238.998 80.1725C231.715 76.1139 224.834 71.4413 217.623 67.2809C229.184 64.2926 241.229 73.9786 251.015 79.2478C260.13 84.1551 269.324 89.0651 278.948 92.9185C279.142 92.9966 279.353 93.0493 279.56 93.1057C278.456 93.3837 277.348 93.5678 276.239 93.6105C272.604 93.7482 277.973 94.8054 279.087 94.7626C288.815 94.3929 297.648 88.0808 305.781 83.3781C313.29 79.0368 320.546 74.6137 329 73.3719V71.8992C328.882 71.9029 328.768 71.9013 328.65 71.906C320.631 72.241 314.007 74.8695 307.024 78.7456C301.726 81.6853 296.556 84.8567 291.232 87.7458C281.004 82.6929 271.244 76.1118 260.656 71.9192C253.78 69.1968 246.585 68.3855 239.518 70.3024C231.747 66.6147 223.623 64.1344 214.916 65.7928C205.365 60.8776 194.197 58.632 183.976 62.6162C182.021 62.2396 180.063 62.028 178.127 62.0259C169.746 52.0736 157.365 51.4021 145.013 53.9098C139.653 51.0096 133.994 48.2909 128.137 46.2568C128.398 46.221 128.626 46.1519 128.792 46.0327C136.534 40.4834 144.869 39.1683 153.682 43.0464C159.662 45.6787 165.204 49.2114 170.866 52.4497C171.877 53.0262 173.268 53.0806 174.4 53.1233C174.51 53.1275 176.991 52.9513 176.481 52.6602C168.346 48.0087 160.089 42.2399 150.745 40.3061C141.248 38.3391 131.868 39.3571 123.795 44.8848C119.435 43.6663 114.981 42.8877 110.471 42.7511C118.678 38.4066 127.058 34.3738 135.72 31.3951C140.977 29.5883 145.83 28.718 151.065 31.135C154.267 32.6146 157.328 34.3955 160.341 36.2222C166.285 39.8277 172.097 43.6452 178.071 47.2026C179.062 47.7919 180.488 47.834 181.606 47.8763C181.712 47.8805 184.199 47.7175 183.686 47.4131C177.961 44.0044 172.054 39.6631 165.86 35.9743C166.433 36.0228 166.949 35.9912 167.312 35.8155C178.637 30.2857 191.366 39.844 201.221 45.1596C210.492 50.1609 219.563 55.4907 229.066 60.0557C230.192 60.5964 231.798 60.6091 233.015 60.5869C233.331 60.5822 235.184 60.4793 234.118 59.9666C220.729 53.5369 208.029 45.78 194.836 38.9705C189.642 36.2902 183.813 33.917 177.897 32.9939C178.551 32.9063 179 32.8066 178.975 32.776C177.988 31.537 176.943 30.3802 175.86 29.2888C175.865 29.2877 175.871 29.2877 175.876 29.2856C186.384 26.3579 198.589 32.4506 207.784 37.3099C217.077 42.2225 226.079 47.6747 235.235 52.8379C253.723 63.2619 272.767 73.335 292.803 80.4911C294.043 80.9342 295.446 81.0471 296.753 81.0239C296.983 81.0191 299.006 80.8145 297.855 80.4025C272.964 71.513 249.832 58.22 226.996 45.1174C223.522 43.123 219.824 40.9502 215.969 38.8264C216.413 38.8064 216.835 38.7373 217.194 38.5754C221.058 36.8283 223.819 37.3553 227.486 39.0702C229.343 39.9379 231.209 40.764 233.094 41.5663C236.502 43.0185 239.844 44.6211 243.172 46.2468C250.671 49.9124 258.099 53.7236 265.646 57.2932C265.869 57.3992 266.113 57.4794 266.365 57.548C264.447 57.7474 262.528 57.9278 260.611 58.0839C259.595 58.1662 259.578 58.5566 260.547 58.8193C261.852 59.1721 263.299 59.2861 264.646 59.1769C279.268 57.9863 293.53 55.544 307.54 51.1689C314.621 48.9571 321.636 46.4684 329 46.1081V44.993C323.679 44.9218 318.393 45.4751 313.081 46.9975C310.688 47.6837 308.303 48.4265 305.919 49.1824C296.768 46.4726 287.487 44.1853 278.401 41.254C275.653 40.3673 272.919 39.4394 270.195 38.4878C270.72 38.4947 271.244 38.4746 271.758 38.3987C281.311 36.995 290.389 33.5219 299.894 31.9521C306.681 30.8317 313.481 30.8206 320.324 31.4003C323.337 31.6567 326.215 32.5292 329 33.6712V31.8603C327.582 31.4446 326.142 31.0923 324.669 30.8375C316.246 29.38 306.851 29.2719 298.297 30.4777C298.207 30.455 298.114 30.4329 298.01 30.4102C292.794 29.2545 287.59 28.0233 282.432 26.6301C289.368 24.9236 296.387 23.2668 303.419 22.0393C308.973 21.0719 314.677 20.3729 320.325 20.7184C323.348 20.9052 326.244 21.9844 329 23.2605V21.2575C328.125 20.9827 327.244 20.7316 326.351 20.518C317.945 18.5098 308.989 19.0209 300.131 20.5122C286.523 16.7463 273.469 11.2915 260.177 6.57297H254.506C268.383 11.5309 282.078 17.0818 296.295 20.9843C296.473 21.0339 296.66 21.0671 296.845 21.1072C290.48 22.3416 284.208 23.9853 278.271 25.467C275.918 24.7828 273.576 24.0607 271.25 23.2852C262.346 20.317 253.63 16.8218 244.713 13.8899C231.851 9.66095 216.352 6.86102 203.715 13.066C200.156 11.1965 196.496 9.49954 192.775 8.02573C193.488 7.51562 194.204 7.03455 194.927 6.57297H183.378ZM-85.848 187.414C-84.7935 187.775 -83.7524 188.179 -82.731 188.619C-74.5147 192.143 -66.7167 196.457 -58.141 199.11C-56.8746 199.502 -55.3553 199.588 -54.0414 199.468C-53.0004 199.374 -53.0347 199.025 -53.9773 198.733C-64.7686 195.392 -74.678 187.948 -85.848 185.833V187.414ZM-85.848 130.976C-83.647 130.961 -81.4697 131.314 -79.3793 132.213C-68.4023 136.932 -60.0673 145.434 -50.2055 151.868C-49.2626 152.483 -47.7514 152.502 -46.671 152.542C-46.5666 152.547 -44.0757 152.416 -44.5909 152.079C-56.3788 144.387 -66.8923 132.394 -81.4524 130.067C-82.9241 129.832 -84.3899 129.702 -85.848 129.658V130.976ZM-85.848 140.171C-83.5386 140.197 -81.4586 140.858 -79.1531 141.993C-73.9227 144.57 -69.1729 147.936 -64.5467 151.454C-63.2773 152.418 -59.1252 151.519 -58.9311 151.665C-66.855 145.64 -75.8272 139.448 -85.848 138.822V140.171ZM-67.1125 201.087C-73.7565 197.882 -79.2286 193.701 -85.848 191.959V193.557C-84.5839 194.196 -83.3455 194.878 -82.1299 195.61C-78.8649 197.581 -75.6043 199.517 -72.1639 201.175C-71.0402 201.717 -69.4309 201.73 -68.2141 201.708C-67.8963 201.702 -66.0472 201.602 -67.1125 201.087ZM-56.0196 117.55C-64.5126 111.852 -74.0995 105.515 -84.3452 103.6C-84.8431 103.507 -85.3452 103.425 -85.848 103.349V104.9C-82.5708 105.476 -79.3948 106.965 -76.0907 108.654C-60.2687 116.748 -46.952 131.94 -28.1735 132.244C-24.1167 132.31 -27.6304 131.139 -29.627 131.107C-39.526 130.945 -48.211 122.79 -56.0196 117.55ZM-85.848 71.8992V73.3719C-84.3837 73.1578 -82.8848 73.0254 -81.3397 73.0196C-74.8089 72.9937 -67.9848 77.6642 -62.4139 80.6093C-57.0338 83.4525 -51.5617 86.1628 -45.8407 88.2675C-37.7856 91.2331 -29.4867 93.1574 -20.8561 92.6616C-19.8223 92.602 -19.8398 92.1837 -20.7921 91.9257C-22.1122 91.5686 -23.5292 91.4911 -24.8906 91.5691C-37.4798 92.2918 -50.4958 84.0565 -61.227 78.4723C-69.2109 74.3188 -76.7982 71.5985 -85.848 71.8992ZM-85.848 94.4614C-82.8207 94.5421 -79.8278 95.2253 -76.9169 96.7529C-70.9823 99.8646 -65.6808 104.214 -59.9815 107.736C-53.5324 111.724 -47.0078 115.594 -40.4068 119.33C-30.5131 124.931 -21.2372 129.074 -9.63232 128.079C-8.61919 127.993 -8.59431 127.607 -9.56774 127.344C-10.8704 126.991 -12.3229 126.872 -13.6674 126.987C-22.3059 127.727 -30.16 122.217 -37.325 118.097C-43.9537 114.285 -50.5351 110.387 -56.9997 106.303C-66.287 100.436 -74.0106 93.6939 -85.5629 93.4423C-85.658 93.4407 -85.7531 93.4455 -85.848 93.4439V94.4614ZM-63.1336 42.2473C-70.6651 38.76 -77.861 34.1961 -85.848 31.8603V33.6712C-83.4435 34.6576 -81.1093 35.8456 -78.8176 37.0203C-71.2207 40.9138 -63.5201 44.9239 -55.2581 47.2628C-48.4529 49.1897 -41.4437 49.5126 -34.405 49.5416C-30.7767 49.5558 -36.1526 48.3927 -37.2525 48.3874C-46.6348 48.3494 -54.6469 46.1772 -63.1336 42.2473ZM-85.848 282.612V284.086C-84.3837 283.87 -82.8848 283.74 -81.3397 283.732C-74.8089 283.705 -67.9848 288.378 -62.4139 291.322C-57.0338 294.166 -51.5617 296.876 -45.8407 298.982C-37.7856 301.946 -29.4867 303.871 -20.8561 303.374C-19.8223 303.316 -19.8398 302.898 -20.7921 302.64C-22.1122 302.281 -23.5292 302.204 -24.8906 302.282C-37.4798 303.005 -50.4958 294.77 -61.227 289.187C-69.2109 285.031 -76.7982 282.312 -85.848 282.612ZM-76.4575 320.573C-79.5065 319.113 -82.6132 317.808 -85.848 316.863V318.673C-84.4381 319.252 -83.0523 319.898 -81.6848 320.573H-76.4575ZM-85.848 180.443C-83.1359 180.421 -80.4163 180.955 -77.5078 182.07C-73.9196 183.447 -70.3945 184.985 -66.8713 186.519C-60.2407 189.408 -53.6449 192.372 -46.9458 195.101C-45.7499 195.586 -44.2698 195.654 -42.9963 195.632C-42.735 195.627 -40.7747 195.468 -41.8943 195.011C-56.0092 189.261 -70.3688 180.295 -85.848 179.141V180.443ZM-85.848 221.824C-85.0487 222.193 -84.2594 222.579 -83.4838 222.965C-71.6185 228.895 -60.3214 234.926 -47.6099 238.878C-46.3458 239.271 -44.8234 239.355 -43.5096 239.235C-42.4685 239.142 -42.5055 238.793 -43.4455 238.5C-51.2745 236.066 -58.5281 232.983 -65.8499 229.331C-72.3995 226.066 -78.8204 222.032 -85.848 219.82V221.824ZM-65.8499 315.771C-72.3995 312.506 -78.8204 308.472 -85.848 306.259V308.263C-85.0487 308.633 -84.2594 309.017 -83.4838 309.405C-75.7119 313.288 -68.1791 317.214 -60.3379 320.573H-55.4039C-58.9166 319.105 -62.3766 317.504 -65.8499 315.771ZM-54.0001 183.01C-45.9988 186.31 -41.294 189.343 -31.8486 193.772L-31.4955 193.023C-40.8941 188.617 -45.6103 185.575 -53.6821 182.244C-59.1976 179.976 -66.4264 176.894 -72.6906 176.885C-75.5579 176.885 -78.2421 177.543 -80.4276 179.268L-79.9101 179.914C-77.9117 178.339 -75.4361 177.716 -72.6906 177.716C-66.6929 177.709 -59.5084 180.732 -54.0001 183.01ZM-31.8475 193.772H-31.8486L-31.8496 193.774L-31.8475 193.772ZM-72.0988 251.35C-76.668 249.341 -81.2073 246.889 -85.848 244.711V247.34C-82.9655 248.737 -80.0859 250.147 -77.1514 251.436C-75.9865 251.95 -74.4506 251.991 -73.2009 251.968C-72.9168 251.964 -71.0019 251.83 -72.0988 251.35ZM-85.848 232.234C-83.4435 233.22 -81.1093 234.409 -78.8176 235.583C-71.2207 239.475 -63.5201 243.487 -55.2581 245.825C-48.4529 247.753 -41.4437 248.073 -34.405 248.103C-30.7767 248.119 -36.1526 246.954 -37.2525 246.95C-46.6348 246.911 -54.6469 244.74 -63.1336 240.81C-70.6651 237.322 -77.861 232.759 -85.848 230.421V232.234Z" fill="white"/>
        <rect x="1.07431" y="6.64728" width="171.851" height="312.851" stroke="url(#paint2_linear_4189_3910)" stroke-width="2.14863"/>
    </g>
    <defs>
        <linearGradient id="paint0_linear_4189_3910" x1="87" y1="-60.927" x2="87" y2="320.573" gradientUnits="userSpaceOnUse">
            <stop stop-opacity="0"/>
            <stop offset="1"/>
        </linearGradient>
        <linearGradient id="paint1_linear_4189_3910" x1="0.107717" y1="311.5" x2="218.191" y2="266.508" gradientUnits="userSpaceOnUse">
            <stop stop-color="white"/>
            <stop offset="0.120034" stop-color="#474747"/>
            <stop offset="0.581731" stop-color="#E9E9E9"/>
        </linearGradient>
        <linearGradient id="paint2_linear_4189_3910" x1="0.107717" y1="311.5" x2="218.191" y2="266.508" gradientUnits="userSpaceOnUse">
            <stop stop-color="white"/>
            <stop offset="0.120034" stop-color="#474747"/>
            <stop offset="0.581731" stop-color="#E9E9E9"/>
        </linearGradient>
        <clipPath id="clip0_4189_3910">
            <rect width="174" height="315" fill="white" transform="translate(0 5.57297)"/>
        </clipPath>
    </defs>
</svg>