<svg width="41" height="41" viewBox="0 0 41 41" fill="none" xmlns="http://www.w3.org/2000/svg">
<path d="M30.2196 19.2184H6.40625C6.06644 19.2184 5.74055 19.3534 5.50027 19.5937C5.25999 19.834 5.125 20.1599 5.125 20.4997C5.125 20.8395 5.25999 21.1654 5.50027 21.4056C5.74055 21.6459 6.06644 21.7809 6.40625 21.7809H30.2196L20.8741 31.1238C20.6335 31.3644 20.4984 31.6907 20.4984 32.0309C20.4984 32.3712 20.6335 32.6975 20.8741 32.938C21.1147 33.1786 21.441 33.3138 21.7812 33.3138C22.1215 33.3138 22.4478 33.1786 22.6884 32.938L34.2196 21.4068C34.3389 21.2878 34.4336 21.1464 34.4982 20.9907C34.5628 20.8351 34.596 20.6682 34.596 20.4997C34.596 20.3311 34.5628 20.1643 34.4982 20.0086C34.4336 19.8529 34.3389 19.7116 34.2196 19.5925L22.6884 8.06129C22.4478 7.82071 22.1215 7.68555 21.7812 7.68555C21.441 7.68555 21.1147 7.82071 20.8741 8.06129C20.6335 8.30187 20.4984 8.62818 20.4984 8.96842C20.4984 9.30865 20.6335 9.63496 20.8741 9.87554L30.2196 19.2184Z" fill="#960101"/>
</svg>
