<svg width="41" height="41" viewBox="0 0 41 41" fill="none" xmlns="http://www.w3.org/2000/svg">
<path d="M10.7804 19.2184H34.5938C34.9336 19.2184 35.2594 19.3534 35.4997 19.5937C35.74 19.834 35.875 20.1599 35.875 20.4997C35.875 20.8395 35.74 21.1654 35.4997 21.4056C35.2594 21.6459 34.9336 21.7809 34.5938 21.7809H10.7804L20.1259 31.1238C20.3665 31.3644 20.5016 31.6907 20.5016 32.0309C20.5016 32.3712 20.3665 32.6975 20.1259 32.938C19.8853 33.1786 19.559 33.3138 19.2188 33.3138C18.8785 33.3138 18.5522 33.1786 18.3116 32.938L6.78037 21.4068C6.66106 21.2878 6.56639 21.1464 6.5018 20.9907C6.43721 20.8351 6.40396 20.6682 6.40396 20.4997C6.40396 20.3311 6.43721 20.1643 6.5018 20.0086C6.56639 19.8529 6.66106 19.7116 6.78037 19.5925L18.3116 8.06129C18.5522 7.82071 18.8785 7.68555 19.2188 7.68555C19.559 7.68555 19.8853 7.82071 20.1259 8.06129C20.3665 8.30187 20.5016 8.62818 20.5016 8.96842C20.5016 9.30865 20.3665 9.63496 20.1259 9.87554L10.7804 19.2184Z" fill="#960101"/>
</svg>
