<svg width="353" height="71" viewBox="0 0 353 71" fill="none" xmlns="http://www.w3.org/2000/svg">
<mask id="path-1-outside-1_6026_4104" maskUnits="userSpaceOnUse" x="99" y="39" width="253" height="32" fill="black">
<rect fill="white" x="99" y="39" width="253" height="32"/>
<path d="M100.616 47.68V41H136.536V46.88L113.416 62.32H136.536V69H100.256V63.12L123.256 47.68H100.616ZM139.443 69L154.243 41H168.923L183.723 69H175.043L173.043 65.2H150.123L148.123 69H139.443ZM153.643 58.52H169.523L163.763 47.68H159.363L153.643 58.52ZM187.129 69V41H222.049V47.52H195.129V51.92H220.049V58.08H195.129V62.48H222.049V69H187.129ZM226.536 69V41C231.616 40.56 236.696 40.2 241.456 40.2C255.536 40.2 266.776 43.2 266.776 55C266.776 66.8 255.536 69.8 241.456 69.8C236.696 69.8 231.616 69.44 226.536 69ZM234.536 47.2V62.76C236.616 62.84 238.696 62.92 240.656 62.92C250.736 62.92 258.776 61.4 258.776 55C258.776 48.56 250.936 47.04 241.016 47.04C238.936 47.04 236.736 47.08 234.536 47.2ZM270.942 69V41H305.862V47.52H278.942V51.92H303.862V58.08H278.942V62.48H305.862V69H270.942ZM310.349 69V41H324.389L340.389 62.32H342.189V41H350.189V69H336.349L320.309 47.68H318.349V69H310.349Z"/>
</mask>
<path d="M100.616 47.68V41H136.536V46.88L113.416 62.32H136.536V69H100.256V63.12L123.256 47.68H100.616ZM139.443 69L154.243 41H168.923L183.723 69H175.043L173.043 65.2H150.123L148.123 69H139.443ZM153.643 58.52H169.523L163.763 47.68H159.363L153.643 58.52ZM187.129 69V41H222.049V47.52H195.129V51.92H220.049V58.08H195.129V62.48H222.049V69H187.129ZM226.536 69V41C231.616 40.56 236.696 40.2 241.456 40.2C255.536 40.2 266.776 43.2 266.776 55C266.776 66.8 255.536 69.8 241.456 69.8C236.696 69.8 231.616 69.44 226.536 69ZM234.536 47.2V62.76C236.616 62.84 238.696 62.92 240.656 62.92C250.736 62.92 258.776 61.4 258.776 55C258.776 48.56 250.936 47.04 241.016 47.04C238.936 47.04 236.736 47.08 234.536 47.2ZM270.942 69V41H305.862V47.52H278.942V51.92H303.862V58.08H278.942V62.48H305.862V69H270.942ZM310.349 69V41H324.389L340.389 62.32H342.189V41H350.189V69H336.349L320.309 47.68H318.349V69H310.349Z" fill="#F50000"/>
<path d="M100.616 47.68H99.6159V48.68H100.616V47.68ZM100.616 41V40H99.6159V41H100.616ZM136.536 41H137.536V40H136.536V41ZM136.536 46.88L137.091 47.7116L137.536 47.4147V46.88H136.536ZM113.416 62.32L112.861 61.4884L110.118 63.32H113.416V62.32ZM136.536 62.32H137.536V61.32H136.536V62.32ZM136.536 69V70H137.536V69H136.536ZM100.256 69H99.2559V70H100.256V69ZM100.256 63.12L99.6986 62.2897L99.2559 62.5869V63.12H100.256ZM123.256 47.68L123.813 48.5103L126.54 46.68H123.256V47.68ZM100.616 47.68H101.616V41H100.616H99.6159V47.68H100.616ZM100.616 41V42H136.536V41V40H100.616V41ZM136.536 41H135.536V46.88H136.536H137.536V41H136.536ZM136.536 46.88L135.981 46.0484L112.861 61.4884L113.416 62.32L113.971 63.1516L137.091 47.7116L136.536 46.88ZM113.416 62.32V63.32H136.536V62.32V61.32H113.416V62.32ZM136.536 62.32H135.536V69H136.536H137.536V62.32H136.536ZM136.536 69V68H100.256V69V70H136.536V69ZM100.256 69H101.256V63.12H100.256H99.2559V69H100.256ZM100.256 63.12L100.813 63.9503L123.813 48.5103L123.256 47.68L122.699 46.8497L99.6986 62.2897L100.256 63.12ZM123.256 47.68V46.68H100.616V47.68V48.68H123.256V47.68ZM139.443 69L138.559 68.5327L137.783 70H139.443V69ZM154.243 41V40H153.64L153.359 40.5327L154.243 41ZM168.923 41L169.807 40.5327L169.525 40H168.923V41ZM183.723 69V70H185.382L184.607 68.5327L183.723 69ZM175.043 69L174.158 69.4657L174.439 70H175.043V69ZM173.043 65.2L173.928 64.7343L173.647 64.2H173.043V65.2ZM150.123 65.2V64.2H149.519L149.238 64.7343L150.123 65.2ZM148.123 69V70H148.727L149.008 69.4657L148.123 69ZM153.643 58.52L152.758 58.0533L151.984 59.52H153.643V58.52ZM169.523 58.52V59.52H171.187L170.406 58.0508L169.523 58.52ZM163.763 47.68L164.646 47.2108L164.364 46.68H163.763V47.68ZM159.363 47.68V46.68H158.76L158.478 47.2133L159.363 47.68ZM139.443 69L140.327 69.4673L155.127 41.4673L154.243 41L153.359 40.5327L138.559 68.5327L139.443 69ZM154.243 41V42H168.923V41V40H154.243V41ZM168.923 41L168.039 41.4673L182.839 69.4673L183.723 69L184.607 68.5327L169.807 40.5327L168.923 41ZM183.723 69V68H175.043V69V70H183.723V69ZM175.043 69L175.928 68.5343L173.928 64.7343L173.043 65.2L172.158 65.6657L174.158 69.4657L175.043 69ZM173.043 65.2V64.2H150.123V65.2V66.2H173.043V65.2ZM150.123 65.2L149.238 64.7343L147.238 68.5343L148.123 69L149.008 69.4657L151.008 65.6657L150.123 65.2ZM148.123 69V68H139.443V69V70H148.123V69ZM153.643 58.52V59.52H169.523V58.52V57.52H153.643V58.52ZM169.523 58.52L170.406 58.0508L164.646 47.2108L163.763 47.68L162.88 48.1492L168.64 58.9892L169.523 58.52ZM163.763 47.68V46.68H159.363V47.68V48.68H163.763V47.68ZM159.363 47.68L158.478 47.2133L152.758 58.0533L153.643 58.52L154.527 58.9867L160.247 48.1467L159.363 47.68ZM187.129 69H186.129V70H187.129V69ZM187.129 41V40H186.129V41H187.129ZM222.049 41H223.049V40H222.049V41ZM222.049 47.52V48.52H223.049V47.52H222.049ZM195.129 47.52V46.52H194.129V47.52H195.129ZM195.129 51.92H194.129V52.92H195.129V51.92ZM220.049 51.92H221.049V50.92H220.049V51.92ZM220.049 58.08V59.08H221.049V58.08H220.049ZM195.129 58.08V57.08H194.129V58.08H195.129ZM195.129 62.48H194.129V63.48H195.129V62.48ZM222.049 62.48H223.049V61.48H222.049V62.48ZM222.049 69V70H223.049V69H222.049ZM187.129 69H188.129V41H187.129H186.129V69H187.129ZM187.129 41V42H222.049V41V40H187.129V41ZM222.049 41H221.049V47.52H222.049H223.049V41H222.049ZM222.049 47.52V46.52H195.129V47.52V48.52H222.049V47.52ZM195.129 47.52H194.129V51.92H195.129H196.129V47.52H195.129ZM195.129 51.92V52.92H220.049V51.92V50.92H195.129V51.92ZM220.049 51.92H219.049V58.08H220.049H221.049V51.92H220.049ZM220.049 58.08V57.08H195.129V58.08V59.08H220.049V58.08ZM195.129 58.08H194.129V62.48H195.129H196.129V58.08H195.129ZM195.129 62.48V63.48H222.049V62.48V61.48H195.129V62.48ZM222.049 62.48H221.049V69H222.049H223.049V62.48H222.049ZM222.049 69V68H187.129V69V70H222.049V69ZM226.536 69H225.536V69.9171L226.449 69.9963L226.536 69ZM226.536 41L226.449 40.0037L225.536 40.0829V41H226.536ZM234.536 47.2L234.481 46.2015L233.536 46.2531V47.2H234.536ZM234.536 62.76H233.536V63.7223L234.497 63.7593L234.536 62.76ZM226.536 69H227.536V41H226.536H225.536V69H226.536ZM226.536 41L226.622 41.9963C231.696 41.5568 236.741 41.2 241.456 41.2V40.2V39.2C236.651 39.2 231.535 39.5632 226.449 40.0037L226.536 41ZM241.456 40.2V41.2C248.462 41.2 254.601 41.9528 258.958 44.0741C261.119 45.1261 262.809 46.4996 263.963 48.2581C265.115 50.0124 265.776 52.2151 265.776 55H266.776H267.776C267.776 51.8849 267.031 49.2876 265.635 47.1607C264.242 45.0379 262.243 43.4488 259.833 42.2759C255.05 39.9472 248.529 39.2 241.456 39.2V40.2ZM266.776 55H265.776C265.776 57.7849 265.115 59.9876 263.963 61.7419C262.809 63.5004 261.119 64.8738 258.958 65.9259C254.601 68.0472 248.462 68.8 241.456 68.8V69.8V70.8C248.529 70.8 255.05 70.0528 259.833 67.7241C262.243 66.5511 264.242 64.9621 265.635 62.8393C267.031 60.7124 267.776 58.1151 267.776 55H266.776ZM241.456 69.8V68.8C236.741 68.8 231.696 68.4432 226.622 68.0037L226.536 69L226.449 69.9963C231.535 70.4368 236.651 70.8 241.456 70.8V69.8ZM234.536 47.2H233.536V62.76H234.536H235.536V47.2H234.536ZM234.536 62.76L234.497 63.7593C236.573 63.8391 238.673 63.92 240.656 63.92V62.92V61.92C238.718 61.92 236.658 61.8409 234.574 61.7607L234.536 62.76ZM240.656 62.92V63.92C245.713 63.92 250.391 63.5433 253.835 62.3006C255.567 61.6758 257.055 60.8083 258.115 59.5956C259.193 58.3623 259.776 56.8304 259.776 55H258.776H257.776C257.776 56.3696 257.353 57.4277 256.609 58.2794C255.846 59.1517 254.695 59.8642 253.156 60.4194C250.06 61.5367 245.679 61.92 240.656 61.92V62.92ZM258.776 55H259.776C259.776 53.1682 259.211 51.6323 258.158 50.3921C257.121 49.171 255.663 48.2967 253.963 47.6672C250.585 46.4165 245.993 46.04 241.016 46.04V47.04V48.04C245.959 48.04 250.246 48.4235 253.268 49.5428C254.769 50.0983 255.89 50.8115 256.633 51.6866C257.36 52.5427 257.776 53.6118 257.776 55H258.776ZM241.016 47.04V46.04C238.924 46.04 236.704 46.0802 234.481 46.2015L234.536 47.2L234.59 48.1985C236.767 48.0798 238.948 48.04 241.016 48.04V47.04ZM270.942 69H269.942V70H270.942V69ZM270.942 41V40H269.942V41H270.942ZM305.862 41H306.862V40H305.862V41ZM305.862 47.52V48.52H306.862V47.52H305.862ZM278.942 47.52V46.52H277.942V47.52H278.942ZM278.942 51.92H277.942V52.92H278.942V51.92ZM303.862 51.92H304.862V50.92H303.862V51.92ZM303.862 58.08V59.08H304.862V58.08H303.862ZM278.942 58.08V57.08H277.942V58.08H278.942ZM278.942 62.48H277.942V63.48H278.942V62.48ZM305.862 62.48H306.862V61.48H305.862V62.48ZM305.862 69V70H306.862V69H305.862ZM270.942 69H271.942V41H270.942H269.942V69H270.942ZM270.942 41V42H305.862V41V40H270.942V41ZM305.862 41H304.862V47.52H305.862H306.862V41H305.862ZM305.862 47.52V46.52H278.942V47.52V48.52H305.862V47.52ZM278.942 47.52H277.942V51.92H278.942H279.942V47.52H278.942ZM278.942 51.92V52.92H303.862V51.92V50.92H278.942V51.92ZM303.862 51.92H302.862V58.08H303.862H304.862V51.92H303.862ZM303.862 58.08V57.08H278.942V58.08V59.08H303.862V58.08ZM278.942 58.08H277.942V62.48H278.942H279.942V58.08H278.942ZM278.942 62.48V63.48H305.862V62.48V61.48H278.942V62.48ZM305.862 62.48H304.862V69H305.862H306.862V62.48H305.862ZM305.862 69V68H270.942V69V70H305.862V69ZM310.349 69H309.349V70H310.349V69ZM310.349 41V40H309.349V41H310.349ZM324.389 41L325.189 40.3998L324.889 40H324.389V41ZM340.389 62.32L339.589 62.9202L339.889 63.32H340.389V62.32ZM342.189 62.32V63.32H343.189V62.32H342.189ZM342.189 41V40H341.189V41H342.189ZM350.189 41H351.189V40H350.189V41ZM350.189 69V70H351.189V69H350.189ZM336.349 69L335.55 69.6012L335.85 70H336.349V69ZM320.309 47.68L321.108 47.0788L320.808 46.68H320.309V47.68ZM318.349 47.68V46.68H317.349V47.68H318.349ZM318.349 69V70H319.349V69H318.349ZM310.349 69H311.349V41H310.349H309.349V69H310.349ZM310.349 41V42H324.389V41V40H310.349V41ZM324.389 41L323.589 41.6002L339.589 62.9202L340.389 62.32L341.189 61.7198L325.189 40.3998L324.389 41ZM340.389 62.32V63.32H342.189V62.32V61.32H340.389V62.32ZM342.189 62.32H343.189V41H342.189H341.189V62.32H342.189ZM342.189 41V42H350.189V41V40H342.189V41ZM350.189 41H349.189V69H350.189H351.189V41H350.189ZM350.189 69V68H336.349V69V70H350.189V69ZM336.349 69L337.148 68.3988L321.108 47.0788L320.309 47.68L319.51 48.2812L335.55 69.6012L336.349 69ZM320.309 47.68V46.68H318.349V47.68V48.68H320.309V47.68ZM318.349 47.68H317.349V69H318.349H319.349V47.68H318.349ZM318.349 69V68H310.349V69V70H318.349V69Z" fill="black" mask="url(#path-1-outside-1_6026_4104)"/>
<mask id="path-3-outside-2_6026_4104" maskUnits="userSpaceOnUse" x="1" y="0" width="222" height="32" fill="black">
<rect fill="white" x="1" width="222" height="32"/>
<path d="M2.93719 30V2C8.41719 1.64 13.8572 1.36 18.9372 1.36C32.4972 1.36 43.1772 3.48 43.1772 12.24C43.1772 22.68 28.0172 24.24 10.9372 23.68V30H2.93719ZM10.9372 8.28V16.96C23.6972 17.36 35.1772 16.88 35.1772 12.28C35.1772 8.88 28.9772 8 20.6972 8C17.6572 8 14.3372 8.12 10.9372 8.28ZM41.4469 30L56.2469 2H70.9269L85.7269 30H77.0469L75.0469 26.2H52.1269L50.1269 30H41.4469ZM55.6469 19.52H71.5269L65.7669 8.68H61.3669L55.6469 19.52ZM89.1331 30V2C94.6131 1.64 100.053 1.36 105.133 1.36C118.693 1.36 129.373 3.48 129.373 12.24C129.373 22.68 114.213 24.24 97.1331 23.68V30H89.1331ZM97.1331 8.28V16.96C109.893 17.36 121.373 16.88 121.373 12.28C121.373 8.88 115.173 8 106.893 8C103.853 8 100.533 8.12 97.1331 8.28ZM154.938 31C139.458 31 132.818 26.48 132.818 16C132.818 5.52 139.458 0.999999 154.938 0.999999C170.418 0.999999 177.058 5.52 177.058 16C177.058 26.48 170.418 31 154.938 31ZM140.818 16C140.818 22 144.778 24.32 154.938 24.32C165.098 24.32 169.058 22 169.058 16C169.058 10 165.098 7.68 154.938 7.68C144.778 7.68 140.818 10 140.818 16ZM181.228 30V2H195.268L211.268 23.32H213.068V2H221.068V30H207.228L191.188 8.68H189.228V30H181.228Z"/>
</mask>
<path d="M2.93719 30V2C8.41719 1.64 13.8572 1.36 18.9372 1.36C32.4972 1.36 43.1772 3.48 43.1772 12.24C43.1772 22.68 28.0172 24.24 10.9372 23.68V30H2.93719ZM10.9372 8.28V16.96C23.6972 17.36 35.1772 16.88 35.1772 12.28C35.1772 8.88 28.9772 8 20.6972 8C17.6572 8 14.3372 8.12 10.9372 8.28ZM41.4469 30L56.2469 2H70.9269L85.7269 30H77.0469L75.0469 26.2H52.1269L50.1269 30H41.4469ZM55.6469 19.52H71.5269L65.7669 8.68H61.3669L55.6469 19.52ZM89.1331 30V2C94.6131 1.64 100.053 1.36 105.133 1.36C118.693 1.36 129.373 3.48 129.373 12.24C129.373 22.68 114.213 24.24 97.1331 23.68V30H89.1331ZM97.1331 8.28V16.96C109.893 17.36 121.373 16.88 121.373 12.28C121.373 8.88 115.173 8 106.893 8C103.853 8 100.533 8.12 97.1331 8.28ZM154.938 31C139.458 31 132.818 26.48 132.818 16C132.818 5.52 139.458 0.999999 154.938 0.999999C170.418 0.999999 177.058 5.52 177.058 16C177.058 26.48 170.418 31 154.938 31ZM140.818 16C140.818 22 144.778 24.32 154.938 24.32C165.098 24.32 169.058 22 169.058 16C169.058 10 165.098 7.68 154.938 7.68C144.778 7.68 140.818 10 140.818 16ZM181.228 30V2H195.268L211.268 23.32H213.068V2H221.068V30H207.228L191.188 8.68H189.228V30H181.228Z" fill="#F50000"/>
<path d="M2.93719 30H1.93719V31H2.93719V30ZM2.93719 2L2.87163 1.00215L1.93719 1.06354V2H2.93719ZM10.9372 23.68L10.97 22.6805L9.93719 22.6467V23.68H10.9372ZM10.9372 30V31H11.9372V30H10.9372ZM10.9372 8.28L10.8902 7.2811L9.93719 7.32595V8.28H10.9372ZM10.9372 16.96H9.93719V17.9291L10.9059 17.9595L10.9372 16.96ZM2.93719 30H3.93719V2H2.93719H1.93719V30H2.93719ZM2.93719 2L3.00274 2.99785C8.47641 2.63826 13.8904 2.36 18.9372 2.36V1.36V0.359999C13.8239 0.359999 8.35797 0.641733 2.87163 1.00215L2.93719 2ZM18.9372 1.36V2.36C25.6988 2.36 31.6061 2.89336 35.7933 4.45216C37.8761 5.22756 39.4671 6.23307 40.5339 7.49112C41.5845 8.73016 42.1772 10.2722 42.1772 12.24H43.1772H44.1772C44.1772 9.82783 43.4349 7.81984 42.0593 6.19762C40.6998 4.59443 38.7732 3.42744 36.4911 2.57783C31.9483 0.886638 25.7355 0.359999 18.9372 0.359999V1.36ZM43.1772 12.24H42.1772C42.1772 14.5744 41.3433 16.368 39.8524 17.786C38.3306 19.2335 36.0776 20.3308 33.1977 21.1206C27.4298 22.7025 19.5013 22.9603 10.97 22.6805L10.9372 23.68L10.9044 24.6795C19.4531 24.9597 27.6446 24.7175 33.7267 23.0494C36.7718 22.2142 39.3763 20.999 41.2307 19.2352C43.1161 17.442 44.1772 15.1256 44.1772 12.24H43.1772ZM10.9372 23.68H9.93719V30H10.9372H11.9372V23.68H10.9372ZM10.9372 30V29H2.93719V30V31H10.9372V30ZM10.9372 8.28H9.93719V16.96H10.9372H11.9372V8.28H10.9372ZM10.9372 16.96L10.9059 17.9595C17.2881 18.1596 23.4254 18.1434 27.9852 17.4847C30.2552 17.1568 32.2269 16.6578 33.6575 15.889C35.1032 15.1119 36.1772 13.9452 36.1772 12.28H35.1772H34.1772C34.1772 12.9148 33.8161 13.5331 32.7106 14.1273C31.5899 14.7297 29.8941 15.1882 27.6992 15.5053C23.329 16.1366 17.3463 16.1604 10.9685 15.9605L10.9372 16.96ZM35.1772 12.28H36.1772C36.1772 11.0711 35.6047 10.1068 34.6984 9.39178C33.8275 8.70471 32.6369 8.23224 31.2843 7.89475C28.5724 7.2181 24.8478 7 20.6972 7V8V9C24.8266 9 28.3419 9.2219 30.8001 9.83525C32.0325 10.1428 32.9093 10.5278 33.4597 10.962C33.9747 11.3682 34.1772 11.7889 34.1772 12.28H35.1772ZM20.6972 8V7C17.6335 7 14.295 7.12088 10.8902 7.2811L10.9372 8.28L10.9842 9.27889C14.3794 9.11912 17.6809 9 20.6972 9V8ZM41.4469 30L40.5628 29.5327L39.7872 31H41.4469V30ZM56.2469 2V0.999998H55.6443L55.3628 1.53269L56.2469 2ZM70.9269 2L71.811 1.53269L71.5294 0.999998H70.9269V2ZM85.7269 30V31H87.3866L86.611 29.5327L85.7269 30ZM77.0469 30L76.162 30.4657L76.4431 31H77.0469V30ZM75.0469 26.2L75.9318 25.7343L75.6506 25.2H75.0469V26.2ZM52.1269 26.2V25.2H51.5231L51.242 25.7343L52.1269 26.2ZM50.1269 30V31H50.7306L51.0118 30.4657L50.1269 30ZM55.6469 19.52L54.7625 19.0533L53.9885 20.52H55.6469V19.52ZM71.5269 19.52V20.52H73.1907L72.41 19.0508L71.5269 19.52ZM65.7669 8.68L66.6499 8.21076L66.3679 7.68H65.7669V8.68ZM61.3669 8.68V7.68H60.7639L60.4825 8.21331L61.3669 8.68ZM41.4469 30L42.331 30.4673L57.131 2.46731L56.2469 2L55.3628 1.53269L40.5628 29.5327L41.4469 30ZM56.2469 2V3H70.9269V2V0.999998H56.2469V2ZM70.9269 2L70.0428 2.46731L84.8428 30.4673L85.7269 30L86.611 29.5327L71.811 1.53269L70.9269 2ZM85.7269 30V29H77.0469V30V31H85.7269V30ZM77.0469 30L77.9318 29.5343L75.9318 25.7343L75.0469 26.2L74.162 26.6657L76.162 30.4657L77.0469 30ZM75.0469 26.2V25.2H52.1269V26.2V27.2H75.0469V26.2ZM52.1269 26.2L51.242 25.7343L49.242 29.5343L50.1269 30L51.0118 30.4657L53.0118 26.6657L52.1269 26.2ZM50.1269 30V29H41.4469V30V31H50.1269V30ZM55.6469 19.52V20.52H71.5269V19.52V18.52H55.6469V19.52ZM71.5269 19.52L72.41 19.0508L66.6499 8.21076L65.7669 8.68L64.8838 9.14923L70.6438 19.9892L71.5269 19.52ZM65.7669 8.68V7.68H61.3669V8.68V9.68H65.7669V8.68ZM61.3669 8.68L60.4825 8.21331L54.7625 19.0533L55.6469 19.52L56.5313 19.9867L62.2513 9.14669L61.3669 8.68ZM89.1331 30H88.1331V31H89.1331V30ZM89.1331 2L89.0676 1.00215L88.1331 1.06354V2H89.1331ZM97.1331 23.68L97.1659 22.6805L96.1331 22.6467V23.68H97.1331ZM97.1331 30V31H98.1331V30H97.1331ZM97.1331 8.28L97.0861 7.2811L96.1331 7.32595V8.28H97.1331ZM97.1331 16.96H96.1331V17.9291L97.1018 17.9595L97.1331 16.96ZM89.1331 30H90.1331V2H89.1331H88.1331V30H89.1331ZM89.1331 2L89.1987 2.99785C94.6723 2.63826 100.086 2.36 105.133 2.36V1.36V0.359999C100.02 0.359999 94.5539 0.641733 89.0676 1.00215L89.1331 2ZM105.133 1.36V2.36C111.895 2.36 117.802 2.89336 121.989 4.45216C124.072 5.22756 125.663 6.23307 126.73 7.49112C127.78 8.73016 128.373 10.2722 128.373 12.24H129.373H130.373C130.373 9.82783 129.631 7.81984 128.255 6.19762C126.896 4.59443 124.969 3.42744 122.687 2.57783C118.144 0.886638 111.931 0.359999 105.133 0.359999V1.36ZM129.373 12.24H128.373C128.373 14.5744 127.539 16.368 126.048 17.786C124.526 19.2335 122.274 20.3308 119.394 21.1206C113.626 22.7025 105.697 22.9603 97.1659 22.6805L97.1331 23.68L97.1004 24.6795C105.649 24.9597 113.841 24.7175 119.923 23.0494C122.968 22.2142 125.572 20.999 127.427 19.2352C129.312 17.442 130.373 15.1256 130.373 12.24H129.373ZM97.1331 23.68H96.1331V30H97.1331H98.1331V23.68H97.1331ZM97.1331 30V29H89.1331V30V31H97.1331V30ZM97.1331 8.28H96.1331V16.96H97.1331H98.1331V8.28H97.1331ZM97.1331 16.96L97.1018 17.9595C103.484 18.1596 109.621 18.1434 114.181 17.4847C116.451 17.1568 118.423 16.6578 119.853 15.889C121.299 15.1119 122.373 13.9452 122.373 12.28H121.373H120.373C120.373 12.9148 120.012 13.5331 118.907 14.1273C117.786 14.7297 116.09 15.1882 113.895 15.5053C109.525 16.1366 103.542 16.1604 97.1645 15.9605L97.1331 16.96ZM121.373 12.28H122.373C122.373 11.0711 121.801 10.1068 120.894 9.39178C120.023 8.70471 118.833 8.23224 117.48 7.89475C114.768 7.2181 111.044 7 106.893 7V8V9C111.023 9 114.538 9.2219 116.996 9.83525C118.228 10.1428 119.105 10.5278 119.656 10.962C120.171 11.3682 120.373 11.7889 120.373 12.28H121.373ZM106.893 8V7C103.829 7 100.491 7.12088 97.0861 7.2811L97.1331 8.28L97.1801 9.27889C100.575 9.11912 103.877 9 106.893 9V8ZM154.938 31V30C147.252 30 141.974 28.8693 138.634 26.6026C135.384 24.3965 133.818 21.0039 133.818 16H132.818H131.818C131.818 21.4761 133.572 25.5835 137.511 28.2574C141.361 30.8707 147.144 32 154.938 32V31ZM132.818 16H133.818C133.818 10.9961 135.384 7.60351 138.634 5.39742C141.974 3.13067 147.252 2 154.938 2V0.999999V-9.53674e-07C147.144 -9.53674e-07 141.361 1.12933 137.511 3.74258C133.572 6.41648 131.818 10.5239 131.818 16H132.818ZM154.938 0.999999V2C162.624 2 167.901 3.13067 171.241 5.39742C174.492 7.60351 176.058 10.9961 176.058 16H177.058H178.058C178.058 10.5239 176.304 6.41648 172.364 3.74258C168.514 1.12933 162.732 -9.53674e-07 154.938 -9.53674e-07V0.999999ZM177.058 16H176.058C176.058 21.0039 174.492 24.3965 171.241 26.6026C167.901 28.8693 162.624 30 154.938 30V31V32C162.732 32 168.514 30.8707 172.364 28.2574C176.304 25.5835 178.058 21.4761 178.058 16H177.058ZM140.818 16H139.818C139.818 17.6063 140.082 19.0401 140.701 20.278C141.325 21.5275 142.279 22.5179 143.561 23.2718C146.067 24.7471 149.833 25.32 154.938 25.32V24.32V23.32C149.883 23.32 146.588 22.7329 144.575 21.5482C143.596 20.9721 142.926 20.2575 142.49 19.3845C142.048 18.4999 141.818 17.3937 141.818 16H140.818ZM154.938 24.32V25.32C160.043 25.32 163.808 24.7471 166.315 23.2718C167.596 22.5179 168.551 21.5275 169.175 20.278C169.793 19.0401 170.058 17.6063 170.058 16H169.058H168.058C168.058 17.3937 167.827 18.4999 167.386 19.3845C166.95 20.2575 166.279 20.9721 165.301 21.5482C163.287 22.7329 159.993 23.32 154.938 23.32V24.32ZM169.058 16H170.058C170.058 14.3937 169.793 12.9599 169.175 11.722C168.551 10.4725 167.596 9.4821 166.315 8.72816C163.808 7.25294 160.043 6.68 154.938 6.68V7.68V8.68C159.993 8.68 163.287 9.26706 165.301 10.4518C166.279 11.0279 166.95 11.7425 167.386 12.6155C167.827 13.5001 168.058 14.6063 168.058 16H169.058ZM154.938 7.68V6.68C149.833 6.68 146.067 7.25294 143.561 8.72816C142.279 9.4821 141.325 10.4725 140.701 11.722C140.082 12.9599 139.818 14.3937 139.818 16H140.818H141.818C141.818 14.6063 142.048 13.5001 142.49 12.6155C142.926 11.7425 143.596 11.0279 144.575 10.4518C146.588 9.26706 149.883 8.68 154.938 8.68V7.68ZM181.227 30H180.227V31H181.227V30ZM181.227 2V0.999998H180.227V2H181.227ZM195.268 2L196.067 1.39976L195.767 0.999998H195.268V2ZM211.268 23.32L210.468 23.9202L210.768 24.32H211.268V23.32ZM213.068 23.32V24.32H214.068V23.32H213.068ZM213.068 2V0.999998H212.068V2H213.068ZM221.068 2H222.068V0.999998H221.068V2ZM221.068 30V31H222.068V30H221.068ZM207.228 30L206.428 30.6012L206.728 31H207.228V30ZM191.188 8.68L191.987 8.0788L191.687 7.68H191.188V8.68ZM189.228 8.68V7.68H188.228V8.68H189.228ZM189.228 30V31H190.228V30H189.228ZM181.227 30H182.227V2H181.227H180.227V30H181.227ZM181.227 2V3H195.268V2V0.999998H181.227V2ZM195.268 2L194.468 2.60024L210.468 23.9202L211.268 23.32L212.067 22.7198L196.067 1.39976L195.268 2ZM211.268 23.32V24.32H213.068V23.32V22.32H211.268V23.32ZM213.068 23.32H214.068V2H213.068H212.068V23.32H213.068ZM213.068 2V3H221.068V2V0.999998H213.068V2ZM221.068 2H220.068V30H221.068H222.068V2H221.068ZM221.068 30V29H207.228V30V31H221.068V30ZM207.228 30L208.027 29.3988L191.987 8.0788L191.188 8.68L190.388 9.2812L206.428 30.6012L207.228 30ZM191.188 8.68V7.68H189.228V8.68V9.68H191.188V8.68ZM189.228 8.68H188.228V30H189.228H190.228V8.68H189.228ZM189.228 30V29H181.227V30V31H189.228V30Z" fill="black" mask="url(#path-3-outside-2_6026_4104)"/>
<mask id="path-5-outside-3_6026_4104" maskUnits="userSpaceOnUse" x="155" y="23.8008" width="42" height="24" fill="black">
<rect fill="white" x="155" y="23.8008" width="42" height="24"/>
<path d="M182.642 46.8008L176.402 40.7848L170.162 46.8008H158.322L169.586 35.9208L158.322 25.0408H170.162L176.37 31.0568L182.642 25.0408H194.482L183.186 35.9208L194.482 46.8008H182.642Z"/>
</mask>
<path d="M182.642 46.8008L176.402 40.7848L170.162 46.8008H158.322L169.586 35.9208L158.322 25.0408H170.162L176.37 31.0568L182.642 25.0408H194.482L183.186 35.9208L194.482 46.8008H182.642Z" fill="white"/>
<path d="M182.642 46.8008L181.948 47.5207L182.238 47.8008H182.642V46.8008ZM176.402 40.7848L177.096 40.0649L176.402 39.3957L175.708 40.0649L176.402 40.7848ZM170.162 46.8008V47.8008H170.565L170.856 47.5207L170.162 46.8008ZM158.322 46.8008L157.627 46.0815L155.847 47.8008H158.322V46.8008ZM169.586 35.9208L170.281 36.64L171.025 35.9208L170.281 35.2015L169.586 35.9208ZM158.322 25.0408V24.0408H155.847L157.627 25.76L158.322 25.0408ZM170.162 25.0408L170.858 24.3227L170.567 24.0408H170.162V25.0408ZM176.37 31.0568L175.674 31.7749L176.366 32.4458L177.062 31.7785L176.37 31.0568ZM182.642 25.0408V24.0408H182.24L181.95 24.3191L182.642 25.0408ZM194.482 25.0408L195.176 25.761L196.962 24.0408H194.482V25.0408ZM183.186 35.9208L182.492 35.2005L181.744 35.9208L182.492 36.641L183.186 35.9208ZM194.482 46.8008V47.8008H196.962L195.176 46.0805L194.482 46.8008ZM182.642 46.8008L183.336 46.0809L177.096 40.0649L176.402 40.7848L175.708 41.5047L181.948 47.5207L182.642 46.8008ZM176.402 40.7848L175.708 40.0649L169.468 46.0809L170.162 46.8008L170.856 47.5207L177.096 41.5047L176.402 40.7848ZM170.162 46.8008V45.8008H158.322V46.8008V47.8008H170.162V46.8008ZM158.322 46.8008L159.017 47.52L170.281 36.64L169.586 35.9208L168.891 35.2015L157.627 46.0815L158.322 46.8008ZM169.586 35.9208L170.281 35.2015L159.017 24.3215L158.322 25.0408L157.627 25.76L168.891 36.64L169.586 35.9208ZM158.322 25.0408V26.0408H170.162V25.0408V24.0408H158.322V25.0408ZM170.162 25.0408L169.466 25.7589L175.674 31.7749L176.37 31.0568L177.066 30.3387L170.858 24.3227L170.162 25.0408ZM176.37 31.0568L177.062 31.7785L183.334 25.7625L182.642 25.0408L181.95 24.3191L175.678 30.3351L176.37 31.0568ZM182.642 25.0408V26.0408H194.482V25.0408V24.0408H182.642V25.0408ZM194.482 25.0408L193.788 24.3205L182.492 35.2005L183.186 35.9208L183.88 36.641L195.176 25.761L194.482 25.0408ZM183.186 35.9208L182.492 36.641L193.788 47.521L194.482 46.8008L195.176 46.0805L183.88 35.2005L183.186 35.9208ZM194.482 46.8008V45.8008H182.642V46.8008V47.8008H194.482V46.8008Z" fill="black" mask="url(#path-5-outside-3_6026_4104)"/>
</svg>
