<svg width="257" height="72" viewBox="0 0 257 72" fill="none" xmlns="http://www.w3.org/2000/svg">
    <path d="M170.552 60.38L167.032 54.3C168.232 54.02 169.232 53.3 169.912 52.34V52.22C169.912 50.58 169.032 48.98 167.472 48.18C163.912 46.34 160.072 44.42 156.352 42.54V60.38H149.792V31.62H156.352V35.18L170.432 42.42L170.752 42.62L170.672 31.58H177.672V49.62C177.672 54.42 174.752 58.58 170.552 60.38ZM191.602 60.46H179.682V53.82H182.202L182.242 46.1L182.202 38.18H179.682V31.74H191.602V38.18H189.122V53.82H191.602V60.46ZM212.354 60.58C208.194 58.78 205.274 54.66 205.274 49.86V38.3H200.434V40.62H193.634V31.74H224.074V40.62H217.274V38.3H212.194L212.114 49.86C212.114 52.1 213.714 54.02 215.834 54.54L212.354 60.58ZM253.061 60.34H241.421C235.021 60.34 229.781 55.1 229.781 48.7V38.5H226.101V31.66H256.541V40.38H249.741V38.54H241.221V38.58H236.661V42.74H249.301V49.3H236.701C236.981 51.58 238.901 53.38 241.221 53.46V53.54H253.061V60.34Z" fill="url(#paint0_linear_6026_4101)"/>
    <g filter="url(#filter0_d_6026_4101)">
        <path d="M49.5258 23.696C49.5258 26.72 48.9798 30.71 45.9978 33.734H50.8278V51.5H24.8298V27.434H19.9998V20H49.5258V23.696ZM41.7978 27.434H32.2638V32.894C38.7738 32.852 41.0838 31.13 41.7978 27.434ZM43.3938 44.066V40.328H32.2638V44.066H43.3938ZM73.2859 20C78.0739 20 81.9799 23.906 81.9799 28.652V51.5H64.6339C59.8879 51.5 55.9819 47.594 55.9819 42.848V27.434H51.1519V20H73.2859ZM74.5459 44.066V28.652C74.5459 27.98 73.9579 27.434 73.2859 27.434H63.4159V42.848C63.4159 43.52 63.9619 44.066 64.6339 44.066H74.5459ZM92.6501 44.024C100.252 43.436 105.418 39.362 105.46 39.32L110.164 45.074C109.828 45.326 102.184 51.5 90.8861 51.5H85.2161V20H92.6501V44.024ZM118.716 44.024C126.318 43.436 131.484 39.362 131.526 39.32L136.23 45.074C135.894 45.326 128.25 51.5 116.952 51.5H111.282V20H118.716V44.024ZM152.016 34.7C154.284 30.71 155.502 25.712 155.502 20H162.936C162.936 32.096 158.484 39.446 154.746 43.478C150 48.56 143.532 51.5 136.938 51.5V44.066C140.466 44.066 143.952 42.806 146.934 40.58C140.676 37.22 136.938 29.702 136.938 20H144.372C144.372 27.728 147.312 33.314 152.016 34.7Z" fill="#E6E6E6"/>
    </g>
    <defs>
        <filter id="filter0_d_6026_4101" x="0" y="0" width="182.937" height="71.5" filterUnits="userSpaceOnUse" color-interpolation-filters="sRGB">
            <feFlood flood-opacity="0" result="BackgroundImageFix"/>
            <feColorMatrix in="SourceAlpha" type="matrix" values="0 0 0 0 0 0 0 0 0 0 0 0 0 0 0 0 0 0 127 0" result="hardAlpha"/>
            <feOffset/>
            <feGaussianBlur stdDeviation="10"/>
            <feComposite in2="hardAlpha" operator="out"/>
            <feColorMatrix type="matrix" values="0 0 0 0 1 0 0 0 0 1 0 0 0 0 1 0 0 0 0.6 0"/>
            <feBlend mode="normal" in2="BackgroundImageFix" result="effect1_dropShadow_6026_4101"/>
            <feBlend mode="normal" in="SourceGraphic" in2="effect1_dropShadow_6026_4101" result="shape"/>
        </filter>
        <linearGradient id="paint0_linear_6026_4101" x1="201.973" y1="13.8636" x2="201.973" y2="72.7727" gradientUnits="userSpaceOnUse">
            <stop stop-color="#EB0000"/>
            <stop offset="1" stop-color="#920606"/>
        </linearGradient>
    </defs>
</svg>
