<svg width="354" height="70" viewBox="0 0 354 70" fill="none" xmlns="http://www.w3.org/2000/svg">
<mask id="path-1-outside-1_6026_4020" maskUnits="userSpaceOnUse" x="-0.407227" y="-0.0800781" width="245" height="29" fill="black">
<rect fill="white" x="-0.407227" y="-0.0800781" width="245" height="29"/>
<path d="M1.6597 26.9199L14.9797 1.71992H28.1917L41.5117 26.9199H33.6997L31.8997 23.4999H11.2717L9.4717 26.9199H1.6597ZM14.4397 17.4879H28.7317L23.5477 7.73192H19.5877L14.4397 17.4879ZM43.1053 26.9199L56.4253 1.71992H69.6373L82.9573 26.9199H75.1453L73.3453 23.4999H52.7173L50.9173 26.9199H43.1053ZM55.8853 17.4879H70.1773L64.9933 7.73192H61.0333L55.8853 17.4879ZM111.911 26.9199L102.191 18.4599C99.4189 19.1439 96.3949 19.5039 93.1909 19.5399V26.9199H85.9909V1.71992H93.1909V13.5639C103.847 13.3839 110.903 9.20792 113.171 1.71992H120.371C118.823 8.09192 114.827 12.9159 109.031 15.9399L121.631 26.9199H111.911ZM123.711 26.9199L137.031 1.71992H150.243L163.563 26.9199H155.751L153.951 23.4999H133.323L131.523 26.9199H123.711ZM136.491 17.4879H150.783L145.599 7.73192H141.639L136.491 17.4879ZM201.229 2.94392V8.70392C198.601 7.83992 192.913 6.65192 184.669 6.65192C179.521 6.65192 173.257 7.65992 173.257 10.1079C173.257 11.3319 174.733 11.5479 176.857 11.5479H194.497C200.833 11.5479 204.289 13.9239 204.289 18.2799C204.289 24.1119 197.341 27.6399 183.913 27.6399C177.289 27.6399 170.377 26.6679 167.245 25.7319V19.7199C169.909 20.5839 174.121 21.7719 183.985 21.7719C194.173 21.7719 197.197 20.2959 197.197 18.3879C197.197 17.4519 196.189 17.0919 194.137 17.0919H175.309C168.685 17.0919 166.129 14.1759 166.129 10.3599C166.129 4.38392 172.501 0.999921 185.101 0.999921C191.401 0.999921 198.097 1.97192 201.229 2.94392ZM235.912 26.9199V17.3079H215.032V26.9199H207.832V1.71992H215.032V11.3319H235.912V1.71992H243.112V26.9199H235.912Z"/>
</mask>
<path d="M1.6597 26.9199L14.9797 1.71992H28.1917L41.5117 26.9199H33.6997L31.8997 23.4999H11.2717L9.4717 26.9199H1.6597ZM14.4397 17.4879H28.7317L23.5477 7.73192H19.5877L14.4397 17.4879ZM43.1053 26.9199L56.4253 1.71992H69.6373L82.9573 26.9199H75.1453L73.3453 23.4999H52.7173L50.9173 26.9199H43.1053ZM55.8853 17.4879H70.1773L64.9933 7.73192H61.0333L55.8853 17.4879ZM111.911 26.9199L102.191 18.4599C99.4189 19.1439 96.3949 19.5039 93.1909 19.5399V26.9199H85.9909V1.71992H93.1909V13.5639C103.847 13.3839 110.903 9.20792 113.171 1.71992H120.371C118.823 8.09192 114.827 12.9159 109.031 15.9399L121.631 26.9199H111.911ZM123.711 26.9199L137.031 1.71992H150.243L163.563 26.9199H155.751L153.951 23.4999H133.323L131.523 26.9199H123.711ZM136.491 17.4879H150.783L145.599 7.73192H141.639L136.491 17.4879ZM201.229 2.94392V8.70392C198.601 7.83992 192.913 6.65192 184.669 6.65192C179.521 6.65192 173.257 7.65992 173.257 10.1079C173.257 11.3319 174.733 11.5479 176.857 11.5479H194.497C200.833 11.5479 204.289 13.9239 204.289 18.2799C204.289 24.1119 197.341 27.6399 183.913 27.6399C177.289 27.6399 170.377 26.6679 167.245 25.7319V19.7199C169.909 20.5839 174.121 21.7719 183.985 21.7719C194.173 21.7719 197.197 20.2959 197.197 18.3879C197.197 17.4519 196.189 17.0919 194.137 17.0919H175.309C168.685 17.0919 166.129 14.1759 166.129 10.3599C166.129 4.38392 172.501 0.999921 185.101 0.999921C191.401 0.999921 198.097 1.97192 201.229 2.94392ZM235.912 26.9199V17.3079H215.032V26.9199H207.832V1.71992H215.032V11.3319H235.912V1.71992H243.112V26.9199H235.912Z" fill="#D80000"/>
<path d="M1.6597 26.9199L0.775603 26.4526L2.67625e-05 27.9199H1.6597V26.9199ZM14.9797 1.71992V0.71992H14.3772L14.0956 1.25261L14.9797 1.71992ZM28.1917 1.71992L29.0758 1.25261L28.7942 0.71992H28.1917V1.71992ZM41.5117 26.9199V27.9199H43.1714L42.3958 26.4526L41.5117 26.9199ZM33.6997 26.9199L32.8148 27.3857L33.096 27.9199H33.6997V26.9199ZM31.8997 23.4999L32.7846 23.0342L32.5034 22.4999H31.8997V23.4999ZM11.2717 23.4999V22.4999H10.668L10.3868 23.0342L11.2717 23.4999ZM9.4717 26.9199V27.9199H10.0754L10.3566 27.3857L9.4717 26.9199ZM14.4397 17.4879L13.5553 17.0212L12.7813 18.4879H14.4397V17.4879ZM28.7317 17.4879V18.4879H30.3955L29.6148 17.0187L28.7317 17.4879ZM23.5477 7.73192L24.4308 7.26269L24.1487 6.73192H23.5477V7.73192ZM19.5877 7.73192V6.73192H18.9847L18.7033 7.26523L19.5877 7.73192ZM1.6597 26.9199L2.54379 27.3872L15.8638 2.18723L14.9797 1.71992L14.0956 1.25261L0.775603 26.4526L1.6597 26.9199ZM14.9797 1.71992V2.71992H28.1917V1.71992V0.71992H14.9797V1.71992ZM28.1917 1.71992L27.3076 2.18723L40.6276 27.3872L41.5117 26.9199L42.3958 26.4526L29.0758 1.25261L28.1917 1.71992ZM41.5117 26.9199V25.9199H33.6997V26.9199V27.9199H41.5117V26.9199ZM33.6997 26.9199L34.5846 26.4542L32.7846 23.0342L31.8997 23.4999L31.0148 23.9657L32.8148 27.3857L33.6997 26.9199ZM31.8997 23.4999V22.4999H11.2717V23.4999V24.4999H31.8997V23.4999ZM11.2717 23.4999L10.3868 23.0342L8.58678 26.4542L9.4717 26.9199L10.3566 27.3857L12.1566 23.9657L11.2717 23.4999ZM9.4717 26.9199V25.9199H1.6597V26.9199V27.9199H9.4717V26.9199ZM14.4397 17.4879V18.4879H28.7317V17.4879V16.4879H14.4397V17.4879ZM28.7317 17.4879L29.6148 17.0187L24.4308 7.26269L23.5477 7.73192L22.6646 8.20115L27.8486 17.9572L28.7317 17.4879ZM23.5477 7.73192V6.73192H19.5877V7.73192V8.73192H23.5477V7.73192ZM19.5877 7.73192L18.7033 7.26523L13.5553 17.0212L14.4397 17.4879L15.3241 17.9546L20.4721 8.19861L19.5877 7.73192ZM43.1053 26.9199L42.2212 26.4526L41.4457 27.9199H43.1053V26.9199ZM56.4253 1.71992V0.71992H55.8228L55.5412 1.25261L56.4253 1.71992ZM69.6373 1.71992L70.5214 1.25261L70.2399 0.71992H69.6373V1.71992ZM82.9573 26.9199V27.9199H84.617L83.8414 26.4526L82.9573 26.9199ZM75.1453 26.9199L74.2604 27.3857L74.5416 27.9199H75.1453V26.9199ZM73.3453 23.4999L74.2302 23.0342L73.9491 22.4999H73.3453V23.4999ZM52.7173 23.4999V22.4999H52.1136L51.8324 23.0342L52.7173 23.4999ZM50.9173 26.9199V27.9199H51.5211L51.8022 27.3857L50.9173 26.9199ZM55.8853 17.4879L55.0009 17.0212L54.227 18.4879H55.8853V17.4879ZM70.1773 17.4879V18.4879H71.8411L71.0604 17.0187L70.1773 17.4879ZM64.9933 7.73192L65.8764 7.26269L65.5944 6.73192H64.9933V7.73192ZM61.0333 7.73192V6.73192H60.4303L60.1489 7.26523L61.0333 7.73192ZM43.1053 26.9199L43.9894 27.3872L57.3094 2.18723L56.4253 1.71992L55.5412 1.25261L42.2212 26.4526L43.1053 26.9199ZM56.4253 1.71992V2.71992H69.6373V1.71992V0.71992H56.4253V1.71992ZM69.6373 1.71992L68.7532 2.18723L82.0732 27.3872L82.9573 26.9199L83.8414 26.4526L70.5214 1.25261L69.6373 1.71992ZM82.9573 26.9199V25.9199H75.1453V26.9199V27.9199H82.9573V26.9199ZM75.1453 26.9199L76.0302 26.4542L74.2302 23.0342L73.3453 23.4999L72.4604 23.9657L74.2604 27.3857L75.1453 26.9199ZM73.3453 23.4999V22.4999H52.7173V23.4999V24.4999H73.3453V23.4999ZM52.7173 23.4999L51.8324 23.0342L50.0324 26.4542L50.9173 26.9199L51.8022 27.3857L53.6022 23.9657L52.7173 23.4999ZM50.9173 26.9199V25.9199H43.1053V26.9199V27.9199H50.9173V26.9199ZM55.8853 17.4879V18.4879H70.1773V17.4879V16.4879H55.8853V17.4879ZM70.1773 17.4879L71.0604 17.0187L65.8764 7.26269L64.9933 7.73192L64.1103 8.20115L69.2943 17.9572L70.1773 17.4879ZM64.9933 7.73192V6.73192H61.0333V7.73192V8.73192H64.9933V7.73192ZM61.0333 7.73192L60.1489 7.26523L55.0009 17.0212L55.8853 17.4879L56.7697 17.9546L61.9177 8.19861L61.0333 7.73192ZM111.911 26.9199L111.254 27.6742L111.537 27.9199H111.911V26.9199ZM102.191 18.4599L102.847 17.7056L102.456 17.3646L101.951 17.489L102.191 18.4599ZM93.1909 19.5399L93.1797 18.54L92.1909 18.5511V19.5399H93.1909ZM93.1909 26.9199V27.9199H94.1909V26.9199H93.1909ZM85.991 26.9199H84.991V27.9199H85.991V26.9199ZM85.991 1.71992V0.71992H84.991V1.71992H85.991ZM93.1909 1.71992H94.1909V0.71992H93.1909V1.71992ZM93.1909 13.5639H92.1909V14.581L93.2078 14.5638L93.1909 13.5639ZM113.171 1.71992V0.71992H112.429L112.214 1.43004L113.171 1.71992ZM120.371 1.71992L121.343 1.95599L121.643 0.71992H120.371V1.71992ZM109.031 15.9399L108.568 15.0533L107.269 15.7311L108.374 16.6938L109.031 15.9399ZM121.631 26.9199V27.9199H124.301L122.288 26.166L121.631 26.9199ZM111.911 26.9199L112.567 26.1656L102.847 17.7056L102.191 18.4599L101.534 19.2142L111.254 27.6742L111.911 26.9199ZM102.191 18.4599L101.951 17.489C99.2634 18.1523 96.317 18.5047 93.1797 18.54L93.1909 19.5399L93.2022 20.5399C96.4729 20.5031 99.5745 20.1355 102.431 19.4308L102.191 18.4599ZM93.1909 19.5399H92.1909V26.9199H93.1909H94.1909V19.5399H93.1909ZM93.1909 26.9199V25.9199H85.991V26.9199V27.9199H93.1909V26.9199ZM85.991 26.9199H86.991V1.71992H85.991H84.991V26.9199H85.991ZM85.991 1.71992V2.71992H93.1909V1.71992V0.71992H85.991V1.71992ZM93.1909 1.71992H92.1909V13.5639H93.1909H94.1909V1.71992H93.1909ZM93.1909 13.5639L93.2078 14.5638C104.1 14.3798 111.685 10.0763 114.128 2.0098L113.171 1.71992L112.214 1.43004C110.121 8.33954 103.594 12.3881 93.1741 12.5641L93.1909 13.5639ZM113.171 1.71992V2.71992H120.371V1.71992V0.71992H113.171V1.71992ZM120.371 1.71992L119.399 1.48385C117.924 7.55637 114.127 12.1531 108.568 15.0533L109.031 15.9399L109.494 16.8265C115.527 13.6787 119.722 8.62747 121.343 1.95599L120.371 1.71992ZM109.031 15.9399L108.374 16.6938L120.974 27.6738L121.631 26.9199L122.288 26.166L109.688 15.186L109.031 15.9399ZM121.631 26.9199V25.9199H111.911V26.9199V27.9199H121.631V26.9199ZM123.711 26.9199L122.827 26.4526L122.052 27.9199H123.711V26.9199ZM137.031 1.71992V0.71992H136.429L136.147 1.25261L137.031 1.71992ZM150.243 1.71992L151.128 1.25261L150.846 0.71992H150.243V1.71992ZM163.563 26.9199V27.9199H165.223L164.448 26.4526L163.563 26.9199ZM155.751 26.9199L154.867 27.3857L155.148 27.9199H155.751V26.9199ZM153.951 23.4999L154.836 23.0342L154.555 22.4999H153.951V23.4999ZM133.323 23.4999V22.4999H132.72L132.439 23.0342L133.323 23.4999ZM131.523 26.9199V27.9199H132.127L132.408 27.3857L131.523 26.9199ZM136.491 17.4879L135.607 17.0212L134.833 18.4879H136.491V17.4879ZM150.783 17.4879V18.4879H152.447L151.666 17.0187L150.783 17.4879ZM145.599 7.73192L146.482 7.26269L146.2 6.73192H145.599V7.73192ZM141.639 7.73192V6.73192H141.036L140.755 7.26523L141.639 7.73192ZM123.711 26.9199L124.596 27.3872L137.916 2.18723L137.031 1.71992L136.147 1.25261L122.827 26.4526L123.711 26.9199ZM137.031 1.71992V2.71992H150.243V1.71992V0.71992H137.031V1.71992ZM150.243 1.71992L149.359 2.18723L162.679 27.3872L163.563 26.9199L164.448 26.4526L151.128 1.25261L150.243 1.71992ZM163.563 26.9199V25.9199H155.751V26.9199V27.9199H163.563V26.9199ZM155.751 26.9199L156.636 26.4542L154.836 23.0342L153.951 23.4999L153.066 23.9657L154.867 27.3857L155.751 26.9199ZM153.951 23.4999V22.4999H133.323V23.4999V24.4999H153.951V23.4999ZM133.323 23.4999L132.439 23.0342L130.639 26.4542L131.523 26.9199L132.408 27.3857L134.208 23.9657L133.323 23.4999ZM131.523 26.9199V25.9199H123.711V26.9199V27.9199H131.523V26.9199ZM136.491 17.4879V18.4879H150.783V17.4879V16.4879H136.491V17.4879ZM150.783 17.4879L151.666 17.0187L146.482 7.26269L145.599 7.73192L144.716 8.20115L149.9 17.9572L150.783 17.4879ZM145.599 7.73192V6.73192H141.639V7.73192V8.73192H145.599V7.73192ZM141.639 7.73192L140.755 7.26523L135.607 17.0212L136.491 17.4879L137.376 17.9546L142.524 8.19861L141.639 7.73192ZM201.229 2.94392H202.229V2.20722L201.525 1.98886L201.229 2.94392ZM201.229 8.70392L200.917 9.6539L202.229 10.0853V8.70392H201.229ZM167.245 25.7319H166.245V26.4768L166.959 26.6901L167.245 25.7319ZM167.245 19.7199L167.554 18.7687L166.245 18.3443V19.7199H167.245ZM201.229 2.94392H200.229V8.70392H201.229H202.229V2.94392H201.229ZM201.229 8.70392L201.541 7.75394C198.795 6.85108 192.999 5.65192 184.669 5.65192V6.65192V7.65192C192.827 7.65192 198.407 8.82876 200.917 9.6539L201.229 8.70392ZM184.669 6.65192V5.65192C182.046 5.65192 179.104 5.90734 176.788 6.49236C175.637 6.78297 174.57 7.17202 173.767 7.69946C172.973 8.22148 172.257 9.0087 172.257 10.1079H173.257H174.257C174.257 9.98314 174.324 9.72636 174.865 9.37089C175.398 9.02083 176.219 8.69888 177.277 8.43148C179.38 7.90051 182.144 7.65192 184.669 7.65192V6.65192ZM173.257 10.1079H172.257C172.257 10.6345 172.424 11.1215 172.775 11.5149C173.105 11.8857 173.536 12.1025 173.95 12.2376C174.753 12.4996 175.801 12.5479 176.857 12.5479V11.5479V10.5479C175.789 10.5479 175.037 10.4882 174.571 10.3362C174.35 10.2643 174.28 10.1977 174.267 10.1837C174.265 10.1807 174.264 10.1798 174.265 10.1808C174.265 10.1818 174.265 10.1823 174.265 10.1811C174.265 10.1799 174.257 10.1594 174.257 10.1079H173.257ZM176.857 11.5479V12.5479H194.497V11.5479V10.5479H176.857V11.5479ZM194.497 11.5479V12.5479C197.565 12.5479 199.781 13.1273 201.203 14.1045C202.568 15.0434 203.289 16.4075 203.289 18.2799H204.289H205.289C205.289 15.7963 204.282 13.7945 202.336 12.4564C200.445 11.1565 197.765 10.5479 194.497 10.5479V11.5479ZM204.289 18.2799H203.289C203.289 20.6943 201.893 22.7414 198.71 24.2425C195.488 25.7621 190.565 26.6399 183.913 26.6399V27.6399V28.6399C190.689 28.6399 195.954 27.7537 199.563 26.0514C203.212 24.3305 205.289 21.6975 205.289 18.2799H204.289ZM183.913 27.6399V26.6399C177.352 26.6399 170.542 25.6736 167.531 24.7738L167.245 25.7319L166.959 26.6901C170.212 27.6622 177.227 28.6399 183.913 28.6399V27.6399ZM167.245 25.7319H168.245V19.7199H167.245H166.245V25.7319H167.245ZM167.245 19.7199L166.937 20.6711C169.704 21.5689 174.021 22.7719 183.985 22.7719V21.7719V20.7719C174.221 20.7719 170.114 19.599 167.554 18.7687L167.245 19.7199ZM183.985 21.7719V22.7719C189.101 22.7719 192.524 22.4042 194.698 21.7534C195.786 21.428 196.643 21.0083 197.242 20.458C197.872 19.8794 198.197 19.1696 198.197 18.3879H197.197H196.197C196.197 18.5602 196.144 18.7505 195.889 18.9852C195.602 19.2483 195.067 19.5554 194.125 19.8374C192.24 20.4016 189.057 20.7719 183.985 20.7719V21.7719ZM197.197 18.3879H198.197C198.197 17.9619 198.078 17.5434 197.802 17.1828C197.536 16.8355 197.178 16.611 196.814 16.4627C196.115 16.1783 195.185 16.0919 194.137 16.0919V17.0919V18.0919C195.142 18.0919 195.741 18.1855 196.06 18.3151C196.204 18.3738 196.226 18.4149 196.213 18.3983C196.19 18.3684 196.197 18.3459 196.197 18.3879H197.197ZM194.137 17.0919V16.0919H175.309V17.0919V18.0919H194.137V17.0919ZM175.309 17.0919V16.0919C172.125 16.0919 170.092 15.3888 168.87 14.3844C167.678 13.4048 167.129 12.0313 167.129 10.3599H166.129H165.129C165.129 12.5045 165.858 14.497 167.6 15.9294C169.312 17.3371 171.869 18.0919 175.309 18.0919V17.0919ZM166.129 10.3599H167.129C167.129 7.8234 168.438 5.7913 171.339 4.33233C174.303 2.84228 178.862 1.99992 185.101 1.99992V0.999921V-7.9155e-05C178.74 -7.9155e-05 173.814 0.849561 170.441 2.54551C167.006 4.27255 165.129 6.92044 165.129 10.3599H166.129ZM185.101 0.999921V1.99992C191.335 1.99992 197.924 2.9654 200.933 3.89899L201.229 2.94392L201.525 1.98886C198.27 0.978443 191.468 -7.9155e-05 185.101 -7.9155e-05V0.999921ZM235.912 26.9199H234.912V27.9199H235.912V26.9199ZM235.912 17.3079H236.912V16.3079H235.912V17.3079ZM215.032 17.3079V16.3079H214.032V17.3079H215.032ZM215.032 26.9199V27.9199H216.032V26.9199H215.032ZM207.832 26.9199H206.832V27.9199H207.832V26.9199ZM207.832 1.71992V0.71992H206.832V1.71992H207.832ZM215.032 1.71992H216.032V0.71992H215.032V1.71992ZM215.032 11.3319H214.032V12.3319H215.032V11.3319ZM235.912 11.3319V12.3319H236.912V11.3319H235.912ZM235.912 1.71992V0.71992H234.912V1.71992H235.912ZM243.112 1.71992H244.112V0.71992H243.112V1.71992ZM243.112 26.9199V27.9199H244.112V26.9199H243.112ZM235.912 26.9199H236.912V17.3079H235.912H234.912V26.9199H235.912ZM235.912 17.3079V16.3079H215.032V17.3079V18.3079H235.912V17.3079ZM215.032 17.3079H214.032V26.9199H215.032H216.032V17.3079H215.032ZM215.032 26.9199V25.9199H207.832V26.9199V27.9199H215.032V26.9199ZM207.832 26.9199H208.832V1.71992H207.832H206.832V26.9199H207.832ZM207.832 1.71992V2.71992H215.032V1.71992V0.71992H207.832V1.71992ZM215.032 1.71992H214.032V11.3319H215.032H216.032V1.71992H215.032ZM215.032 11.3319V12.3319H235.912V11.3319V10.3319H215.032V11.3319ZM235.912 11.3319H236.912V1.71992H235.912H234.912V11.3319H235.912ZM235.912 1.71992V2.71992H243.112V1.71992V0.71992H235.912V1.71992ZM243.112 1.71992H242.112V26.9199H243.112H244.112V1.71992H243.112ZM243.112 26.9199V25.9199H235.912V26.9199V27.9199H243.112V26.9199Z" fill="black" mask="url(#path-1-outside-1_6026_4020)"/>
<mask id="path-3-outside-2_6026_4020" maskUnits="userSpaceOnUse" x="148.593" y="39.9199" width="205" height="30" fill="black">
<rect fill="white" x="148.593" y="39.9199" width="205" height="30"/>
<path d="M170.29 68.8199C156.358 68.8199 150.382 64.7519 150.382 55.3199C150.382 45.8879 156.358 41.8199 170.29 41.8199C184.222 41.8199 190.198 45.8879 190.198 55.3199C190.198 64.7519 184.222 68.8199 170.29 68.8199ZM157.582 55.3199C157.582 60.7199 161.146 62.8079 170.29 62.8079C179.434 62.8079 182.998 60.7199 182.998 55.3199C182.998 49.9199 179.434 47.8319 170.29 47.8319C161.146 47.8319 157.582 49.9199 157.582 55.3199ZM193.919 67.9199V42.7199H206.555L220.955 61.9079H222.575V42.7199H229.775V67.9199H217.319L202.883 48.7319H201.119V67.9199H193.919ZM260.194 67.9199L250.474 59.4599C247.702 60.1439 244.678 60.5039 241.474 60.5399V67.9199H234.274V42.7199H241.474V54.5639C252.13 54.3839 259.186 50.2079 261.454 42.7199H268.654C267.106 49.0919 263.11 53.9159 257.314 56.9399L269.914 67.9199H260.194ZM271.995 67.9199L285.315 42.7199H298.527L311.847 67.9199H304.035L302.235 64.4999H281.607L279.807 67.9199H271.995ZM284.775 58.4879H299.067L293.883 48.7319H289.923L284.775 58.4879ZM344.58 67.9199C343.752 64.5359 340.332 62.3399 330.072 62.3039C327.516 62.3399 324.816 62.3039 322.08 62.2319V67.9199H314.88V42.7199C319.776 42.3959 324.672 42.1439 329.208 42.1439C341.448 42.1439 351.096 44.0519 351.096 51.9359C351.096 55.9319 348.108 58.3439 343.608 59.4599V59.8199C349.152 61.2959 351.42 64.2479 352.068 67.9199H344.58ZM322.08 48.3719V56.1839C333.564 56.5439 343.896 56.1119 343.896 51.9719C343.896 48.9119 338.316 48.1199 330.864 48.1199C328.128 48.1199 325.14 48.2279 322.08 48.3719Z"/>
</mask>
<path d="M170.29 68.8199C156.358 68.8199 150.382 64.7519 150.382 55.3199C150.382 45.8879 156.358 41.8199 170.29 41.8199C184.222 41.8199 190.198 45.8879 190.198 55.3199C190.198 64.7519 184.222 68.8199 170.29 68.8199ZM157.582 55.3199C157.582 60.7199 161.146 62.8079 170.29 62.8079C179.434 62.8079 182.998 60.7199 182.998 55.3199C182.998 49.9199 179.434 47.8319 170.29 47.8319C161.146 47.8319 157.582 49.9199 157.582 55.3199ZM193.919 67.9199V42.7199H206.555L220.955 61.9079H222.575V42.7199H229.775V67.9199H217.319L202.883 48.7319H201.119V67.9199H193.919ZM260.194 67.9199L250.474 59.4599C247.702 60.1439 244.678 60.5039 241.474 60.5399V67.9199H234.274V42.7199H241.474V54.5639C252.13 54.3839 259.186 50.2079 261.454 42.7199H268.654C267.106 49.0919 263.11 53.9159 257.314 56.9399L269.914 67.9199H260.194ZM271.995 67.9199L285.315 42.7199H298.527L311.847 67.9199H304.035L302.235 64.4999H281.607L279.807 67.9199H271.995ZM284.775 58.4879H299.067L293.883 48.7319H289.923L284.775 58.4879ZM344.58 67.9199C343.752 64.5359 340.332 62.3399 330.072 62.3039C327.516 62.3399 324.816 62.3039 322.08 62.2319V67.9199H314.88V42.7199C319.776 42.3959 324.672 42.1439 329.208 42.1439C341.448 42.1439 351.096 44.0519 351.096 51.9359C351.096 55.9319 348.108 58.3439 343.608 59.4599V59.8199C349.152 61.2959 351.42 64.2479 352.068 67.9199H344.58ZM322.08 48.3719V56.1839C333.564 56.5439 343.896 56.1119 343.896 51.9719C343.896 48.9119 338.316 48.1199 330.864 48.1199C328.128 48.1199 325.14 48.2279 322.08 48.3719Z" fill="#D80000"/>
<path d="M170.29 68.8199V67.8199C163.378 67.8199 158.653 66.8022 155.673 64.7795C152.782 62.8174 151.382 59.7998 151.382 55.3199H150.382H149.382C149.382 60.2721 150.97 64.0044 154.55 66.4343C158.04 68.8036 163.27 69.8199 170.29 69.8199V68.8199ZM150.382 55.3199H151.382C151.382 50.8401 152.782 47.8224 155.673 45.8603C158.653 43.8376 163.378 42.8199 170.29 42.8199V41.8199V40.8199C163.27 40.8199 158.04 41.8362 154.55 44.2055C150.97 46.6354 149.382 50.3678 149.382 55.3199H150.382ZM170.29 41.8199V42.8199C177.202 42.8199 181.926 43.8376 184.907 45.8603C187.798 47.8224 189.198 50.8401 189.198 55.3199H190.198H191.198C191.198 50.3678 189.61 46.6354 186.03 44.2055C182.539 41.8362 177.31 40.8199 170.29 40.8199V41.8199ZM190.198 55.3199H189.198C189.198 59.7998 187.798 62.8174 184.907 64.7795C181.926 66.8022 177.202 67.8199 170.29 67.8199V68.8199V69.8199C177.31 69.8199 182.539 68.8036 186.03 66.4343C189.61 64.0044 191.198 60.2721 191.198 55.3199H190.198ZM157.582 55.3199H156.582C156.582 56.7762 156.822 58.083 157.387 59.2148C157.958 60.3582 158.831 61.2633 160 61.9508C162.28 63.293 165.693 63.8079 170.29 63.8079V62.8079V61.8079C165.743 61.8079 162.801 61.2789 161.014 60.2271C160.148 59.7175 159.559 59.0882 159.176 58.3213C158.787 57.5428 158.582 56.5637 158.582 55.3199H157.582ZM170.29 62.8079V63.8079C174.887 63.8079 178.299 63.293 180.58 61.9508C181.748 61.2633 182.622 60.3582 183.193 59.2148C183.758 58.083 183.998 56.7762 183.998 55.3199H182.998H181.998C181.998 56.5637 181.792 57.5428 181.403 58.3213C181.02 59.0882 180.431 59.7175 179.566 60.2271C177.778 61.2789 174.837 61.8079 170.29 61.8079V62.8079ZM182.998 55.3199H183.998C183.998 53.8637 183.758 52.5568 183.193 51.425C182.622 50.2817 181.748 49.3765 180.58 48.6891C178.299 47.3469 174.887 46.8319 170.29 46.8319V47.8319V48.8319C174.837 48.8319 177.778 49.361 179.566 50.4128C180.431 50.9223 181.02 51.5517 181.403 52.3186C181.792 53.097 181.998 54.0762 181.998 55.3199H182.998ZM170.29 47.8319V46.8319C165.693 46.8319 162.28 47.3469 160 48.6891C158.831 49.3765 157.958 50.2817 157.387 51.425C156.822 52.5568 156.582 53.8637 156.582 55.3199H157.582H158.582C158.582 54.0762 158.787 53.097 159.176 52.3186C159.559 51.5517 160.148 50.9223 161.014 50.4128C162.801 49.361 165.743 48.8319 170.29 48.8319V47.8319ZM193.919 67.9199H192.919V68.9199H193.919V67.9199ZM193.919 42.7199V41.7199H192.919V42.7199H193.919ZM206.555 42.7199L207.354 42.1197L207.054 41.7199H206.555V42.7199ZM220.955 61.9079L220.155 62.5082L220.455 62.9079H220.955V61.9079ZM222.575 61.9079V62.9079H223.575V61.9079H222.575ZM222.575 42.7199V41.7199H221.575V42.7199H222.575ZM229.775 42.7199H230.775V41.7199H229.775V42.7199ZM229.775 67.9199V68.9199H230.775V67.9199H229.775ZM217.319 67.9199L216.519 68.5211L216.819 68.9199H217.319V67.9199ZM202.883 48.7319L203.682 48.1307L203.382 47.7319H202.883V48.7319ZM201.119 48.7319V47.7319H200.119V48.7319H201.119ZM201.119 67.9199V68.9199H202.119V67.9199H201.119ZM193.919 67.9199H194.919V42.7199H193.919H192.919V67.9199H193.919ZM193.919 42.7199V43.7199H206.555V42.7199V41.7199H193.919V42.7199ZM206.555 42.7199L205.755 43.3202L220.155 62.5082L220.955 61.9079L221.754 61.3077L207.354 42.1197L206.555 42.7199ZM220.955 61.9079V62.9079H222.575V61.9079V60.9079H220.955V61.9079ZM222.575 61.9079H223.575V42.7199H222.575H221.575V61.9079H222.575ZM222.575 42.7199V43.7199H229.775V42.7199V41.7199H222.575V42.7199ZM229.775 42.7199H228.775V67.9199H229.775H230.775V42.7199H229.775ZM229.775 67.9199V66.9199H217.319V67.9199V68.9199H229.775V67.9199ZM217.319 67.9199L218.118 67.3187L203.682 48.1307L202.883 48.7319L202.083 49.3331L216.519 68.5211L217.319 67.9199ZM202.883 48.7319V47.7319H201.119V48.7319V49.7319H202.883V48.7319ZM201.119 48.7319H200.119V67.9199H201.119H202.119V48.7319H201.119ZM201.119 67.9199V66.9199H193.919V67.9199V68.9199H201.119V67.9199ZM260.194 67.9199L259.538 68.6742L259.82 68.9199H260.194V67.9199ZM250.474 59.4599L251.131 58.7056L250.739 58.3646L250.235 58.489L250.474 59.4599ZM241.474 60.5399L241.463 59.54L240.474 59.5511V60.5399H241.474ZM241.474 67.9199V68.9199H242.474V67.9199H241.474ZM234.274 67.9199H233.274V68.9199H234.274V67.9199ZM234.274 42.7199V41.7199H233.274V42.7199H234.274ZM241.474 42.7199H242.474V41.7199H241.474V42.7199ZM241.474 54.5639H240.474V55.581L241.491 55.5638L241.474 54.5639ZM261.454 42.7199V41.7199H260.712L260.497 42.43L261.454 42.7199ZM268.654 42.7199L269.626 42.956L269.926 41.7199H268.654V42.7199ZM257.314 56.9399L256.852 56.0533L255.553 56.7311L256.657 57.6938L257.314 56.9399ZM269.914 67.9199V68.9199H272.584L270.571 67.166L269.914 67.9199ZM260.194 67.9199L260.851 67.1656L251.131 58.7056L250.474 59.4599L249.818 60.2142L259.538 68.6742L260.194 67.9199ZM250.474 59.4599L250.235 58.489C247.547 59.1523 244.6 59.5047 241.463 59.54L241.474 60.5399L241.486 61.5399C244.756 61.5031 247.858 61.1355 250.714 60.4308L250.474 59.4599ZM241.474 60.5399H240.474V67.9199H241.474H242.474V60.5399H241.474ZM241.474 67.9199V66.9199H234.274V67.9199V68.9199H241.474V67.9199ZM234.274 67.9199H235.274V42.7199H234.274H233.274V67.9199H234.274ZM234.274 42.7199V43.7199H241.474V42.7199V41.7199H234.274V42.7199ZM241.474 42.7199H240.474V54.5639H241.474H242.474V42.7199H241.474ZM241.474 54.5639L241.491 55.5638C252.383 55.3798 259.968 51.0763 262.411 43.0098L261.454 42.7199L260.497 42.43C258.404 49.3395 251.877 53.3881 241.457 53.5641L241.474 54.5639ZM261.454 42.7199V43.7199H268.654V42.7199V41.7199H261.454V42.7199ZM268.654 42.7199L267.683 42.4838C266.207 48.5564 262.41 53.1531 256.852 56.0533L257.314 56.9399L257.777 57.8265C263.81 54.6787 268.005 49.6275 269.626 42.956L268.654 42.7199ZM257.314 56.9399L256.657 57.6938L269.257 68.6738L269.914 67.9199L270.571 67.166L257.971 56.186L257.314 56.9399ZM269.914 67.9199V66.9199H260.194V67.9199V68.9199H269.914V67.9199ZM271.995 67.9199L271.111 67.4526L270.335 68.9199H271.995V67.9199ZM285.315 42.7199V41.7199H284.712L284.431 42.2526L285.315 42.7199ZM298.527 42.7199L299.411 42.2526L299.129 41.7199H298.527V42.7199ZM311.847 67.9199V68.9199H313.506L312.731 67.4526L311.847 67.9199ZM304.035 67.9199L303.15 68.3857L303.431 68.9199H304.035V67.9199ZM302.235 64.4999L303.12 64.0342L302.839 63.4999H302.235V64.4999ZM281.607 64.4999V63.4999H281.003L280.722 64.0342L281.607 64.4999ZM279.807 67.9199V68.9199H280.411L280.692 68.3857L279.807 67.9199ZM284.775 58.4879L283.89 58.0212L283.116 59.4879H284.775V58.4879ZM299.067 58.4879V59.4879H300.731L299.95 58.0187L299.067 58.4879ZM293.883 48.7319L294.766 48.2627L294.484 47.7319H293.883V48.7319ZM289.923 48.7319V47.7319H289.32L289.038 48.2652L289.923 48.7319ZM271.995 67.9199L272.879 68.3872L286.199 43.1872L285.315 42.7199L284.431 42.2526L271.111 67.4526L271.995 67.9199ZM285.315 42.7199V43.7199H298.527V42.7199V41.7199H285.315V42.7199ZM298.527 42.7199L297.643 43.1872L310.963 68.3872L311.847 67.9199L312.731 67.4526L299.411 42.2526L298.527 42.7199ZM311.847 67.9199V66.9199H304.035V67.9199V68.9199H311.847V67.9199ZM304.035 67.9199L304.92 67.4542L303.12 64.0342L302.235 64.4999L301.35 64.9657L303.15 68.3857L304.035 67.9199ZM302.235 64.4999V63.4999H281.607V64.4999V65.4999H302.235V64.4999ZM281.607 64.4999L280.722 64.0342L278.922 67.4542L279.807 67.9199L280.692 68.3857L282.492 64.9657L281.607 64.4999ZM279.807 67.9199V66.9199H271.995V67.9199V68.9199H279.807V67.9199ZM284.775 58.4879V59.4879H299.067V58.4879V57.4879H284.775V58.4879ZM299.067 58.4879L299.95 58.0187L294.766 48.2627L293.883 48.7319L293 49.2012L298.184 58.9572L299.067 58.4879ZM293.883 48.7319V47.7319H289.923V48.7319V49.7319H293.883V48.7319ZM289.923 48.7319L289.038 48.2652L283.89 58.0212L284.775 58.4879L285.659 58.9546L290.807 49.1986L289.923 48.7319ZM344.58 67.9199L343.609 68.1576L343.796 68.9199H344.58V67.9199ZM330.072 62.3039L330.076 61.3039L330.067 61.3039L330.058 61.304L330.072 62.3039ZM322.08 62.2319L322.107 61.2323L321.08 61.2053V62.2319H322.08ZM322.08 67.9199V68.9199H323.08V67.9199H322.08ZM314.88 67.9199H313.88V68.9199H314.88V67.9199ZM314.88 42.7199L314.814 41.7221L313.88 41.7839V42.7199H314.88ZM343.608 59.4599L343.368 58.4893L342.608 58.6776V59.4599H343.608ZM343.608 59.8199H342.608V60.5885L343.351 60.7863L343.608 59.8199ZM352.068 67.9199V68.9199H353.26L353.053 67.7461L352.068 67.9199ZM322.08 48.3719L322.033 47.373L321.08 47.4179V48.3719H322.08ZM322.08 56.1839H321.08V57.1531L322.049 57.1834L322.08 56.1839ZM344.58 67.9199L345.552 67.6823C345.057 65.6598 343.763 64.0292 341.263 62.9397C338.833 61.8809 335.249 61.3221 330.076 61.3039L330.072 62.3039L330.069 63.3039C335.156 63.3218 338.412 63.8789 340.464 64.7732C342.445 65.6366 343.276 66.796 343.609 68.1576L344.58 67.9199ZM330.072 62.3039L330.058 61.304C327.521 61.3398 324.835 61.3041 322.107 61.2323L322.08 62.2319L322.054 63.2316C324.798 63.3038 327.512 63.3401 330.086 63.3038L330.072 62.3039ZM322.08 62.2319H321.08V67.9199H322.08H323.08V62.2319H322.08ZM322.08 67.9199V66.9199H314.88V67.9199V68.9199H322.08V67.9199ZM314.88 67.9199H315.88V42.7199H314.88H313.88V67.9199H314.88ZM314.88 42.7199L314.946 43.7177C319.836 43.3942 324.706 43.1439 329.208 43.1439V42.1439V41.1439C324.639 41.1439 319.717 41.3977 314.814 41.7221L314.88 42.7199ZM329.208 42.1439V43.1439C335.31 43.1439 340.63 43.6243 344.395 45.021C346.266 45.7154 347.687 46.6127 348.636 47.728C349.569 48.824 350.096 50.1881 350.096 51.9359H351.096H352.096C352.096 49.7417 351.418 47.9108 350.159 46.4318C348.917 44.9719 347.161 43.9139 345.09 43.1459C340.971 41.6176 335.347 41.1439 329.208 41.1439V42.1439ZM351.096 51.9359H350.096C350.096 53.6531 349.467 54.9947 348.352 56.0524C347.211 57.1347 345.518 57.9559 343.368 58.4893L343.608 59.4599L343.849 60.4305C346.198 59.8479 348.25 58.9051 349.728 57.5035C351.232 56.0771 352.096 54.2147 352.096 51.9359H351.096ZM343.608 59.4599H342.608V59.8199H343.608H344.608V59.4599H343.608ZM343.608 59.8199L343.351 60.7863C345.998 61.4908 347.773 62.5238 348.957 63.7429C350.134 64.9555 350.788 66.4168 351.084 68.0937L352.068 67.9199L353.053 67.7461C352.701 65.751 351.897 63.9003 350.392 62.3499C348.893 60.8061 346.763 59.625 343.866 58.8536L343.608 59.8199ZM352.068 67.9199V66.9199H344.58V67.9199V68.9199H352.068V67.9199ZM322.08 48.3719H321.08V56.1839H322.08H323.08V48.3719H322.08ZM322.08 56.1839L322.049 57.1834C327.793 57.3635 333.325 57.3493 337.438 56.7551C339.485 56.4595 341.273 56.0084 342.576 55.3081C343.894 54.5996 344.896 53.5221 344.896 51.9719H343.896H342.896C342.896 52.4917 342.607 53.0208 341.629 53.5464C340.636 54.0802 339.124 54.4909 337.152 54.7757C333.228 55.3425 327.852 55.3643 322.112 55.1844L322.08 56.1839ZM343.896 51.9719H344.896C344.896 50.848 344.363 49.9529 343.527 49.294C342.728 48.663 341.64 48.2334 340.417 47.9282C337.964 47.316 334.601 47.1199 330.864 47.1199V48.1199V49.1199C334.58 49.1199 337.733 49.3198 339.933 49.8687C341.036 50.1439 341.809 50.4861 342.289 50.8642C342.733 51.2144 342.896 51.5659 342.896 51.9719H343.896ZM330.864 48.1199V47.1199C328.105 47.1199 325.098 47.2288 322.033 47.373L322.08 48.3719L322.127 49.3708C325.183 49.227 328.152 49.1199 330.864 49.1199V48.1199Z" fill="black" mask="url(#path-3-outside-2_6026_4020)"/>
<mask id="path-5-outside-3_6026_4020" maskUnits="userSpaceOnUse" x="155.593" y="23.9199" width="42" height="24" fill="black">
<rect fill="white" x="155.593" y="23.9199" width="42" height="24"/>
<path d="M183.235 46.9199L176.995 40.9039L170.755 46.9199H158.915L170.179 36.0399L158.915 25.1599H170.755L176.963 31.1759L183.235 25.1599H195.075L183.779 36.0399L195.075 46.9199H183.235Z"/>
</mask>
<path d="M183.235 46.9199L176.995 40.9039L170.755 46.9199H158.915L170.179 36.0399L158.915 25.1599H170.755L176.963 31.1759L183.235 25.1599H195.075L183.779 36.0399L195.075 46.9199H183.235Z" fill="white"/>
<path d="M183.235 46.9199L182.541 47.6398L182.831 47.9199H183.235V46.9199ZM176.995 40.9039L177.689 40.184L176.995 39.5149L176.301 40.184L176.995 40.9039ZM170.755 46.9199V47.9199H171.158L171.449 47.6398L170.755 46.9199ZM158.915 46.9199L158.22 46.2007L156.44 47.9199H158.915V46.9199ZM170.179 36.0399L170.873 36.7592L171.618 36.0399L170.873 35.3207L170.179 36.0399ZM158.915 25.1599V24.1599H156.44L158.22 25.8792L158.915 25.1599ZM170.755 25.1599L171.451 24.4418L171.16 24.1599H170.755V25.1599ZM176.963 31.1759L176.267 31.894L176.959 32.565L177.655 31.8976L176.963 31.1759ZM183.235 25.1599V24.1599H182.833L182.542 24.4382L183.235 25.1599ZM195.075 25.1599L195.768 25.8802L197.554 24.1599H195.075V25.1599ZM183.779 36.0399L183.085 35.3197L182.337 36.0399L183.085 36.7602L183.779 36.0399ZM195.075 46.9199V47.9199H197.554L195.768 46.1997L195.075 46.9199ZM183.235 46.9199L183.929 46.2L177.689 40.184L176.995 40.9039L176.301 41.6238L182.541 47.6398L183.235 46.9199ZM176.995 40.9039L176.301 40.184L170.061 46.2L170.755 46.9199L171.449 47.6398L177.689 41.6238L176.995 40.9039ZM170.755 46.9199V45.9199H158.915V46.9199V47.9199H170.755V46.9199ZM158.915 46.9199L159.609 47.6392L170.873 36.7592L170.179 36.0399L169.484 35.3207L158.22 46.2007L158.915 46.9199ZM170.179 36.0399L170.873 35.3207L159.609 24.4407L158.915 25.1599L158.22 25.8792L169.484 36.7592L170.179 36.0399ZM158.915 25.1599V26.1599H170.755V25.1599V24.1599H158.915V25.1599ZM170.755 25.1599L170.059 25.878L176.267 31.894L176.963 31.1759L177.659 30.4578L171.451 24.4418L170.755 25.1599ZM176.963 31.1759L177.655 31.8976L183.927 25.8816L183.235 25.1599L182.542 24.4382L176.27 30.4542L176.963 31.1759ZM183.235 25.1599V26.1599H195.075V25.1599V24.1599H183.235V25.1599ZM195.075 25.1599L194.381 24.4397L183.085 35.3197L183.779 36.0399L184.472 36.7602L195.768 25.8802L195.075 25.1599ZM183.779 36.0399L183.085 36.7602L194.381 47.6402L195.075 46.9199L195.768 46.1997L184.472 35.3197L183.779 36.0399ZM195.075 46.9199V45.9199H183.235V46.9199V47.9199H195.075V46.9199Z" fill="black" mask="url(#path-5-outside-3_6026_4020)"/>
</svg>
