<svg width="307" height="76" viewBox="0 0 307 76" fill="none" xmlns="http://www.w3.org/2000/svg">
<path d="M219.711 56.9581L216.191 50.8781C217.391 50.5981 218.391 49.8781 219.071 48.9181V48.7981C219.071 47.1581 218.191 45.5581 216.631 44.7581C213.071 42.9181 209.231 40.9981 205.511 39.1181V56.9581H198.951V28.1981H205.511V31.7581L219.591 38.9981L219.911 39.1981L219.831 28.1581H226.831V46.1981C226.831 50.9981 223.911 55.1581 219.711 56.9581ZM240.76 57.0381H228.84V50.3981H231.36L231.4 42.6781L231.36 34.7581H228.84V28.3181H240.76V34.7581H238.28V50.3981H240.76V57.0381ZM261.512 57.1581C257.352 55.3581 254.432 51.2381 254.432 46.4381V34.8781H249.592V37.1981H242.792V28.3181H273.232V37.1981H266.432V34.8781H261.352L261.272 46.4381C261.272 48.6781 262.872 50.5981 264.992 51.1181L261.512 57.1581ZM302.22 56.9181H290.58C284.18 56.9181 278.94 51.6781 278.94 45.2781V35.0781H275.26V28.2381H305.7V36.9581H298.9V35.1181H290.38V35.1581H285.82V39.3181H298.46V45.8781H285.86C286.14 48.1581 288.06 49.9581 290.38 50.0381V50.1181H302.22V56.9181Z" fill="url(#paint0_linear_6026_4167)"/>
<g filter="url(#filter0_d_6026_4167)">
<path d="M43.436 31.55V20H50.828V51.5H38.984V44.066H43.436V38.984H32.306V42.428C32.306 51.038 26.72 54.524 24.494 55.574L21.26 48.938C21.764 48.728 24.872 47.3 24.872 42.428V38.984H20V31.55H24.872V20H32.306V31.55H43.436ZM53.6541 27.434V20H68.9001V27.434H64.9941V44.066H68.9001V51.5H53.6541V44.066H57.5601V27.434H53.6541ZM70.4507 27.434V20H99.9767V30.29C99.9767 36.968 94.5167 42.386 87.8807 42.386H82.7147V51.5H75.2807V27.434H70.4507ZM92.5427 30.29V27.434H82.7147V34.952H87.8807C90.4427 34.952 92.5427 32.852 92.5427 30.29ZM103.212 38.018V30.584H121.692V38.018H103.212ZM148.357 31.55V20H155.749V51.5H143.905V44.066H148.357V38.984H137.227V42.428C137.227 51.038 131.641 54.524 129.415 55.574L126.181 48.938C126.685 48.728 129.793 47.3 129.793 42.428V38.984H124.921V31.55H129.793V20H137.227V31.55H148.357ZM179.889 20C184.677 20 188.583 23.906 188.583 28.652V51.5H171.237C166.491 51.5 162.585 47.594 162.585 42.848V27.434H157.755V20H179.889ZM181.149 44.066V28.652C181.149 27.98 180.561 27.434 179.889 27.434H170.019V42.848C170.019 43.52 170.565 44.066 171.237 44.066H181.149ZM189.727 27.434V20H219.253V30.29C219.253 36.968 213.793 42.386 207.157 42.386H201.991V51.5H194.557V27.434H189.727ZM211.819 30.29V27.434H201.991V34.952H207.157C209.719 34.952 211.819 32.852 211.819 30.29Z" fill="#E6E6E6"/>
</g>
<defs>
<filter id="filter0_d_6026_4167" x="0" y="0" width="239.253" height="75.5742" filterUnits="userSpaceOnUse" color-interpolation-filters="sRGB">
<feFlood flood-opacity="0" result="BackgroundImageFix"/>
<feColorMatrix in="SourceAlpha" type="matrix" values="0 0 0 0 0 0 0 0 0 0 0 0 0 0 0 0 0 0 127 0" result="hardAlpha"/>
<feOffset/>
<feGaussianBlur stdDeviation="10"/>
<feComposite in2="hardAlpha" operator="out"/>
<feColorMatrix type="matrix" values="0 0 0 0 1 0 0 0 0 1 0 0 0 0 1 0 0 0 0.6 0"/>
<feBlend mode="normal" in2="BackgroundImageFix" result="effect1_dropShadow_6026_4167"/>
<feBlend mode="normal" in="SourceGraphic" in2="effect1_dropShadow_6026_4167" result="shape"/>
</filter>
<linearGradient id="paint0_linear_6026_4167" x1="251.131" y1="10.4418" x2="251.131" y2="69.3509" gradientUnits="userSpaceOnUse">
<stop stop-color="#EB0000"/>
<stop offset="1" stop-color="#920606"/>
</linearGradient>
</defs>
</svg>
