<svg width="251" height="72" viewBox="0 0 251 72" fill="none" xmlns="http://www.w3.org/2000/svg">
<path d="M164.559 63.38L161.039 57.3C162.239 57.02 163.239 56.3 163.919 55.34V55.22C163.919 53.58 163.039 51.98 161.479 51.18C157.919 49.34 154.079 47.42 150.359 45.54V63.38H143.799V34.62H150.359V38.18L164.439 45.42L164.759 45.62L164.679 34.58H171.679V52.62C171.679 57.42 168.759 61.58 164.559 63.38ZM185.609 63.46H173.689V56.82H176.209L176.249 49.1L176.209 41.18H173.689V34.74H185.609V41.18H183.129V56.82H185.609V63.46ZM206.361 63.58C202.201 61.78 199.281 57.66 199.281 52.86V41.3H194.441V43.62H187.641V34.74H218.081V43.62H211.281V41.3H206.201L206.121 52.86C206.121 55.1 207.721 57.02 209.841 57.54L206.361 63.58ZM247.068 63.34H235.428C229.028 63.34 223.788 58.1 223.788 51.7V41.5H220.108V34.66H250.548V43.38H243.748V41.54H235.228V41.58H230.668V45.74H243.308V52.3H230.708C230.988 54.58 232.908 56.38 235.228 56.46V56.54H247.068V63.34Z" fill="url(#paint0_linear_6026_4234)"/>
<g filter="url(#filter0_d_6026_4234)">
<path d="M19.9998 27.434V20H35.2458V27.434H31.3398V44.066H35.2458V51.5H19.9998V44.066H23.9058V27.434H19.9998ZM60.1904 20H67.6244V51.5H60.1904V49.61C60.1904 43.436 57.7124 37.64 53.2604 33.356C52.0004 32.096 50.5724 31.046 49.0604 30.122V51.5H41.6264V27.518C41.1644 27.476 40.7024 27.434 40.2404 27.434H36.7964V20H40.2404C46.4144 20 53.2184 22.982 58.4264 28.022C59.0564 28.61 59.6444 29.198 60.1904 29.828V20ZM70.4505 27.434V20H101.321V40.37C101.321 46.502 96.2805 51.5 90.1485 51.5H70.4505V44.066H75.3225V27.434H70.4505ZM93.8865 40.37V27.434H82.7565V44.066H90.1485C92.2065 44.066 93.8865 42.386 93.8865 40.37ZM103.325 27.434V20H118.571V27.434H114.665V44.066H118.571V51.5H103.325V44.066H107.231V27.434H103.325ZM120.573 27.434V20H148.965V27.434H132.921V32.6H145.773V39.278H132.921V44.066H148.965V51.5H120.573V44.066H125.487V27.434H120.573Z" fill="#E6E6E6"/>
</g>
<defs>
<filter id="filter0_d_6026_4234" x="0" y="0" width="168.965" height="71.5" filterUnits="userSpaceOnUse" color-interpolation-filters="sRGB">
<feFlood flood-opacity="0" result="BackgroundImageFix"/>
<feColorMatrix in="SourceAlpha" type="matrix" values="0 0 0 0 0 0 0 0 0 0 0 0 0 0 0 0 0 0 127 0" result="hardAlpha"/>
<feOffset/>
<feGaussianBlur stdDeviation="10"/>
<feComposite in2="hardAlpha" operator="out"/>
<feColorMatrix type="matrix" values="0 0 0 0 1 0 0 0 0 1 0 0 0 0 1 0 0 0 0.6 0"/>
<feBlend mode="normal" in2="BackgroundImageFix" result="effect1_dropShadow_6026_4234"/>
<feBlend mode="normal" in="SourceGraphic" in2="effect1_dropShadow_6026_4234" result="shape"/>
</filter>
<linearGradient id="paint0_linear_6026_4234" x1="195.979" y1="14.1364" x2="195.979" y2="75.2273" gradientUnits="userSpaceOnUse">
<stop stop-color="#EB0000"/>
<stop offset="1" stop-color="#920606"/>
</linearGradient>
</defs>
</svg>
