<svg width="26" height="37" viewBox="0 0 26 37" fill="none" xmlns="http://www.w3.org/2000/svg">
    <path d="M13 0.75C16.2498 0.75 19.366 2.03598 21.6631 4.32422C23.9601 6.61239 25.25 9.71549 25.25 12.9502C25.25 15.2259 24.4845 17.8312 23.2852 20.498C22.0902 23.155 20.4896 25.8181 18.8789 28.1963C17.2696 30.5724 15.6593 32.6508 14.4502 34.1348C13.8513 34.8699 13.3508 35.4575 13 35.8633C12.6492 35.4575 12.1487 34.8699 11.5498 34.1348C10.3407 32.6508 8.73043 30.5724 7.12109 28.1963C5.51038 25.8181 3.90977 23.155 2.71484 20.498C1.51547 17.8312 0.750044 15.2259 0.75 12.9502C0.75 9.71549 2.03991 6.61239 4.33691 4.32422C6.63401 2.03598 9.75019 0.75 13 0.75ZM13 7.5752C11.5707 7.5752 10.1991 8.14075 9.1875 9.14844C8.17594 10.1562 7.60742 11.5238 7.60742 12.9502C7.60747 14.3766 8.17587 15.7442 9.1875 16.752C10.1991 17.7596 11.5707 18.3252 13 18.3252C13.7077 18.3252 14.4085 18.1859 15.0625 17.916C15.7166 17.6461 16.3116 17.2509 16.8125 16.752C17.3134 16.253 17.7112 15.6601 17.9824 15.0078C18.2536 14.3556 18.3926 13.6563 18.3926 12.9502C18.3926 11.5238 17.8241 10.1562 16.8125 9.14844C15.8009 8.14075 14.4293 7.5752 13 7.5752Z" stroke="white" stroke-width="1.5"/>
</svg>
