<svg width="354" height="72" viewBox="0 0 354 72" fill="none" xmlns="http://www.w3.org/2000/svg">
    <mask id="path-1-outside-1_6026_4237" maskUnits="userSpaceOnUse" x="132" y="43.6401" width="222" height="28" fill="black">
        <rect fill="white" x="132" y="43.6401" width="222" height="28"/>
        <path d="M133.558 70.6401V45.4401C138.49 45.1161 143.386 44.8641 147.958 44.8641C160.162 44.8641 169.774 46.7721 169.774 54.6561C169.774 64.0521 156.13 65.4561 140.758 64.9521V70.6401H133.558ZM140.758 51.0921V58.9041C152.242 59.2641 162.574 58.8321 162.574 54.6921C162.574 51.6321 156.994 50.8401 149.542 50.8401C146.806 50.8401 143.818 50.9481 140.758 51.0921ZM173.562 70.6401V45.4401H180.762V70.6401H173.562ZM185.265 70.6401V45.4401H197.901L212.301 64.6281H213.921V45.4401H221.121V70.6401H208.665L194.229 51.4521H192.465V70.6401H185.265ZM225.621 70.6401V45.4401H257.049V51.3081H232.821V55.2681H255.249V60.8121H232.821V64.7721H257.049V70.6401H225.621ZM277.54 70.6401V45.4401H308.968V51.3081H284.74V55.2681H307.168V60.8121H284.74V64.7721H308.968V70.6401H277.54ZM313.513 45.4401H322.909L331.693 53.9361L340.441 45.4401H349.945L337.849 57.1401L351.169 70.6401H341.701L331.693 60.4881L321.649 70.6401H312.253L325.573 57.1401L313.513 45.4401Z"/>
    </mask>
    <path d="M133.558 70.6401V45.4401C138.49 45.1161 143.386 44.8641 147.958 44.8641C160.162 44.8641 169.774 46.7721 169.774 54.6561C169.774 64.0521 156.13 65.4561 140.758 64.9521V70.6401H133.558ZM140.758 51.0921V58.9041C152.242 59.2641 162.574 58.8321 162.574 54.6921C162.574 51.6321 156.994 50.8401 149.542 50.8401C146.806 50.8401 143.818 50.9481 140.758 51.0921ZM173.562 70.6401V45.4401H180.762V70.6401H173.562ZM185.265 70.6401V45.4401H197.901L212.301 64.6281H213.921V45.4401H221.121V70.6401H208.665L194.229 51.4521H192.465V70.6401H185.265ZM225.621 70.6401V45.4401H257.049V51.3081H232.821V55.2681H255.249V60.8121H232.821V64.7721H257.049V70.6401H225.621ZM277.54 70.6401V45.4401H308.968V51.3081H284.74V55.2681H307.168V60.8121H284.74V64.7721H308.968V70.6401H277.54ZM313.513 45.4401H322.909L331.693 53.9361L340.441 45.4401H349.945L337.849 57.1401L351.169 70.6401H341.701L331.693 60.4881L321.649 70.6401H312.253L325.573 57.1401L313.513 45.4401Z" fill="#D80000"/>
    <path d="M133.558 70.6401H132.558V71.6401H133.558V70.6401ZM133.558 45.4401L133.492 44.4423L132.558 44.5037V45.4401H133.558ZM140.758 64.9521L140.79 63.9527L139.758 63.9188V64.9521H140.758ZM140.758 70.6401V71.6401H141.758V70.6401H140.758ZM140.758 51.0921L140.711 50.0932L139.758 50.1381V51.0921H140.758ZM140.758 58.9041H139.758V59.8733L140.726 59.9036L140.758 58.9041ZM133.558 70.6401H134.558V45.4401H133.558H132.558V70.6401H133.558ZM133.558 45.4401L133.623 46.438C138.549 46.1144 143.419 45.8641 147.958 45.8641V44.8641V43.8641C143.352 43.8641 138.43 44.1179 133.492 44.4423L133.558 45.4401ZM147.958 44.8641V45.8641C154.041 45.8641 159.342 46.3445 163.093 47.7408C164.958 48.4349 166.373 49.3318 167.318 50.4468C168.248 51.5428 168.774 52.9073 168.774 54.6561H169.774H170.774C170.774 52.463 170.098 50.6325 168.844 49.1533C167.606 47.6932 165.855 46.6348 163.791 45.8665C159.685 44.3378 154.078 43.8641 147.958 43.8641V44.8641ZM169.774 54.6561H168.774C168.774 56.7295 168.034 58.3176 166.712 59.5751C165.359 60.862 163.349 61.8436 160.766 62.5522C155.59 63.9717 148.468 64.2044 140.79 63.9527L140.758 64.9521L140.725 65.9516C148.419 66.2039 155.805 65.9866 161.295 64.481C164.043 63.7271 166.405 62.6275 168.091 61.0243C169.807 59.3917 170.774 57.2808 170.774 54.6561H169.774ZM140.758 64.9521H139.758V70.6401H140.758H141.758V64.9521H140.758ZM140.758 70.6401V69.6401H133.558V70.6401V71.6401H140.758V70.6401ZM140.758 51.0921H139.758V58.9041H140.758H141.758V51.0921H140.758ZM140.758 58.9041L140.726 59.9036C146.47 60.0837 152.002 60.0696 156.115 59.4754C158.162 59.1797 159.95 58.7286 161.253 58.0283C162.571 57.3198 163.574 56.2423 163.574 54.6921H162.574H161.574C161.574 55.212 161.284 55.741 160.306 56.2666C159.313 56.8004 157.801 57.2111 155.829 57.4959C151.905 58.0627 146.529 58.0846 140.789 57.9046L140.758 58.9041ZM162.574 54.6921H163.574C163.574 53.5682 163.04 52.6731 162.205 52.0142C161.405 51.3832 160.317 50.9536 159.094 50.6484C156.641 50.0362 153.278 49.8401 149.542 49.8401V50.8401V51.8401C153.257 51.8401 156.41 52.04 158.61 52.5889C159.713 52.8641 160.487 53.2063 160.966 53.5844C161.41 53.9346 161.574 54.2861 161.574 54.6921H162.574ZM149.542 50.8401V49.8401C146.782 49.8401 143.775 49.949 140.711 50.0932L140.758 51.0921L140.805 52.091C143.86 51.9473 146.829 51.8401 149.542 51.8401V50.8401ZM173.562 70.6401H172.562V71.6401H173.562V70.6401ZM173.562 45.4401V44.4401H172.562V45.4401H173.562ZM180.762 45.4401H181.762V44.4401H180.762V45.4401ZM180.762 70.6401V71.6401H181.762V70.6401H180.762ZM173.562 70.6401H174.562V45.4401H173.562H172.562V70.6401H173.562ZM173.562 45.4401V46.4401H180.762V45.4401V44.4401H173.562V45.4401ZM180.762 45.4401H179.762V70.6401H180.762H181.762V45.4401H180.762ZM180.762 70.6401V69.6401H173.562V70.6401V71.6401H180.762V70.6401ZM185.265 70.6401H184.265V71.6401H185.265V70.6401ZM185.265 45.4401V44.4401H184.265V45.4401H185.265ZM197.901 45.4401L198.701 44.8399L198.401 44.4401H197.901V45.4401ZM212.301 64.6281L211.501 65.2284L211.801 65.6281H212.301V64.6281ZM213.921 64.6281V65.6281H214.921V64.6281H213.921ZM213.921 45.4401V44.4401H212.921V45.4401H213.921ZM221.121 45.4401H222.121V44.4401H221.121V45.4401ZM221.121 70.6401V71.6401H222.121V70.6401H221.121ZM208.665 70.6401L207.866 71.2413L208.166 71.6401H208.665V70.6401ZM194.229 51.4521L195.028 50.8509L194.728 50.4521H194.229V51.4521ZM192.465 51.4521V50.4521H191.465V51.4521H192.465ZM192.465 70.6401V71.6401H193.465V70.6401H192.465ZM185.265 70.6401H186.265V45.4401H185.265H184.265V70.6401H185.265ZM185.265 45.4401V46.4401H197.901V45.4401V44.4401H185.265V45.4401ZM197.901 45.4401L197.101 46.0404L211.501 65.2284L212.301 64.6281L213.101 64.0279L198.701 44.8399L197.901 45.4401ZM212.301 64.6281V65.6281H213.921V64.6281V63.6281H212.301V64.6281ZM213.921 64.6281H214.921V45.4401H213.921H212.921V64.6281H213.921ZM213.921 45.4401V46.4401H221.121V45.4401V44.4401H213.921V45.4401ZM221.121 45.4401H220.121V70.6401H221.121H222.121V45.4401H221.121ZM221.121 70.6401V69.6401H208.665V70.6401V71.6401H221.121V70.6401ZM208.665 70.6401L209.464 70.0389L195.028 50.8509L194.229 51.4521L193.43 52.0533L207.866 71.2413L208.665 70.6401ZM194.229 51.4521V50.4521H192.465V51.4521V52.4521H194.229V51.4521ZM192.465 51.4521H191.465V70.6401H192.465H193.465V51.4521H192.465ZM192.465 70.6401V69.6401H185.265V70.6401V71.6401H192.465V70.6401ZM225.621 70.6401H224.621V71.6401H225.621V70.6401ZM225.621 45.4401V44.4401H224.621V45.4401H225.621ZM257.049 45.4401H258.049V44.4401H257.049V45.4401ZM257.049 51.3081V52.3081H258.049V51.3081H257.049ZM232.821 51.3081V50.3081H231.821V51.3081H232.821ZM232.821 55.2681H231.821V56.2681H232.821V55.2681ZM255.249 55.2681H256.249V54.2681H255.249V55.2681ZM255.249 60.8121V61.8121H256.249V60.8121H255.249ZM232.821 60.8121V59.8121H231.821V60.8121H232.821ZM232.821 64.7721H231.821V65.7721H232.821V64.7721ZM257.049 64.7721H258.049V63.7721H257.049V64.7721ZM257.049 70.6401V71.6401H258.049V70.6401H257.049ZM225.621 70.6401H226.621V45.4401H225.621H224.621V70.6401H225.621ZM225.621 45.4401V46.4401H257.049V45.4401V44.4401H225.621V45.4401ZM257.049 45.4401H256.049V51.3081H257.049H258.049V45.4401H257.049ZM257.049 51.3081V50.3081H232.821V51.3081V52.3081H257.049V51.3081ZM232.821 51.3081H231.821V55.2681H232.821H233.821V51.3081H232.821ZM232.821 55.2681V56.2681H255.249V55.2681V54.2681H232.821V55.2681ZM255.249 55.2681H254.249V60.8121H255.249H256.249V55.2681H255.249ZM255.249 60.8121V59.8121H232.821V60.8121V61.8121H255.249V60.8121ZM232.821 60.8121H231.821V64.7721H232.821H233.821V60.8121H232.821ZM232.821 64.7721V65.7721H257.049V64.7721V63.7721H232.821V64.7721ZM257.049 64.7721H256.049V70.6401H257.049H258.049V64.7721H257.049ZM257.049 70.6401V69.6401H225.621V70.6401V71.6401H257.049V70.6401ZM277.54 70.6401H276.54V71.6401H277.54V70.6401ZM277.54 45.4401V44.4401H276.54V45.4401H277.54ZM308.968 45.4401H309.968V44.4401H308.968V45.4401ZM308.968 51.3081V52.3081H309.968V51.3081H308.968ZM284.74 51.3081V50.3081H283.74V51.3081H284.74ZM284.74 55.2681H283.74V56.2681H284.74V55.2681ZM307.168 55.2681H308.168V54.2681H307.168V55.2681ZM307.168 60.8121V61.8121H308.168V60.8121H307.168ZM284.74 60.8121V59.8121H283.74V60.8121H284.74ZM284.74 64.7721H283.74V65.7721H284.74V64.7721ZM308.968 64.7721H309.968V63.7721H308.968V64.7721ZM308.968 70.6401V71.6401H309.968V70.6401H308.968ZM277.54 70.6401H278.54V45.4401H277.54H276.54V70.6401H277.54ZM277.54 45.4401V46.4401H308.968V45.4401V44.4401H277.54V45.4401ZM308.968 45.4401H307.968V51.3081H308.968H309.968V45.4401H308.968ZM308.968 51.3081V50.3081H284.74V51.3081V52.3081H308.968V51.3081ZM284.74 51.3081H283.74V55.2681H284.74H285.74V51.3081H284.74ZM284.74 55.2681V56.2681H307.168V55.2681V54.2681H284.74V55.2681ZM307.168 55.2681H306.168V60.8121H307.168H308.168V55.2681H307.168ZM307.168 60.8121V59.8121H284.74V60.8121V61.8121H307.168V60.8121ZM284.74 60.8121H283.74V64.7721H284.74H285.74V60.8121H284.74ZM284.74 64.7721V65.7721H308.968V64.7721V63.7721H284.74V64.7721ZM308.968 64.7721H307.968V70.6401H308.968H309.968V64.7721H308.968ZM308.968 70.6401V69.6401H277.54V70.6401V71.6401H308.968V70.6401ZM313.513 45.4401V44.4401H311.047L312.817 46.1579L313.513 45.4401ZM322.91 45.4401L323.605 44.7213L323.314 44.4401H322.91V45.4401ZM331.693 53.9361L330.998 54.6549L331.695 55.3287L332.39 54.6535L331.693 53.9361ZM340.441 45.4401V44.4401H340.036L339.745 44.7228L340.441 45.4401ZM349.945 45.4401L350.641 46.1589L352.418 44.4401H349.945V45.4401ZM337.849 57.1401L337.154 56.4214L336.428 57.1235L337.138 57.8425L337.849 57.1401ZM351.169 70.6401V71.6401H353.561L351.881 69.9378L351.169 70.6401ZM341.701 70.6401L340.989 71.3422L341.283 71.6401H341.701V70.6401ZM331.693 60.4881L332.406 59.7861L331.695 59.065L330.983 59.7848L331.693 60.4881ZM321.649 70.6401V71.6401H322.067L322.36 71.3435L321.649 70.6401ZM312.253 70.6401L311.542 69.9378L309.862 71.6401H312.253V70.6401ZM325.573 57.1401L326.285 57.8425L326.994 57.1246L326.27 56.4224L325.573 57.1401ZM313.513 45.4401V46.4401H322.91V45.4401V44.4401H313.513V45.4401ZM322.91 45.4401L322.214 46.1589L330.998 54.6549L331.693 53.9361L332.389 53.2173L323.605 44.7213L322.91 45.4401ZM331.693 53.9361L332.39 54.6535L341.138 46.1575L340.441 45.4401L339.745 44.7228L330.997 53.2188L331.693 53.9361ZM340.441 45.4401V46.4401H349.945V45.4401V44.4401H340.441V45.4401ZM349.945 45.4401L349.25 44.7214L337.154 56.4214L337.849 57.1401L338.545 57.8589L350.641 46.1589L349.945 45.4401ZM337.849 57.1401L337.138 57.8425L350.458 71.3425L351.169 70.6401L351.881 69.9378L338.561 56.4378L337.849 57.1401ZM351.169 70.6401V69.6401H341.701V70.6401V71.6401H351.169V70.6401ZM341.701 70.6401L342.414 69.9381L332.406 59.7861L331.693 60.4881L330.981 61.1902L340.989 71.3422L341.701 70.6401ZM331.693 60.4881L330.983 59.7848L320.939 69.9368L321.649 70.6401L322.36 71.3435L332.404 61.1915L331.693 60.4881ZM321.649 70.6401V69.6401H312.253V70.6401V71.6401H321.649V70.6401ZM312.253 70.6401L312.965 71.3425L326.285 57.8425L325.573 57.1401L324.862 56.4378L311.542 69.9378L312.253 70.6401ZM325.573 57.1401L326.27 56.4224L314.21 44.7224L313.513 45.4401L312.817 46.1579L324.877 57.8579L325.573 57.1401Z" fill="black" mask="url(#path-1-outside-1_6026_4237)"/>
    <mask id="path-3-outside-2_6026_4237" maskUnits="userSpaceOnUse" x="1" y="-0.359863" width="195" height="31" fill="black">
        <rect fill="white" x="1" y="-0.359863" width="195" height="31"/>
        <path d="M35.7417 29.6401C34.8217 25.8801 31.0217 23.4401 19.6217 23.4001C16.7817 23.4401 13.7817 23.4001 10.7417 23.3201V29.6401H2.74172V1.64013C8.18172 1.28013 13.6217 1.00014 18.6617 1.00014C32.2617 1.00014 42.9817 3.12013 42.9817 11.8801C42.9817 16.3201 39.6617 19.0001 34.6617 20.2401V20.6401C40.8217 22.2801 43.3417 25.5601 44.0617 29.6401H35.7417ZM10.7417 7.92014V16.6001C23.5017 17.0001 34.9817 16.5201 34.9817 11.9201C34.9817 8.52014 28.7817 7.64014 20.5017 7.64014C17.4617 7.64014 14.1417 7.76013 10.7417 7.92014ZM48.0077 29.6401V1.64013H56.0077V29.6401H48.0077ZM73.967 29.6401V8.32013H60.247V1.64013H95.687V8.32013H81.967V29.6401H73.967ZM98.3458 1.64013H106.986L118.266 22.9601H122.666L133.946 1.64013H142.586L127.786 29.6401H113.146L98.3458 1.64013ZM146.032 29.6401V1.64013H154.032V29.6401H146.032ZM158.871 8.32013V1.64013H194.791V7.52014L171.671 22.9601H194.791V29.6401H158.511V23.7601L181.511 8.32013H158.871Z"/>
    </mask>
    <path d="M35.7417 29.6401C34.8217 25.8801 31.0217 23.4401 19.6217 23.4001C16.7817 23.4401 13.7817 23.4001 10.7417 23.3201V29.6401H2.74172V1.64013C8.18172 1.28013 13.6217 1.00014 18.6617 1.00014C32.2617 1.00014 42.9817 3.12013 42.9817 11.8801C42.9817 16.3201 39.6617 19.0001 34.6617 20.2401V20.6401C40.8217 22.2801 43.3417 25.5601 44.0617 29.6401H35.7417ZM10.7417 7.92014V16.6001C23.5017 17.0001 34.9817 16.5201 34.9817 11.9201C34.9817 8.52014 28.7817 7.64014 20.5017 7.64014C17.4617 7.64014 14.1417 7.76013 10.7417 7.92014ZM48.0077 29.6401V1.64013H56.0077V29.6401H48.0077ZM73.967 29.6401V8.32013H60.247V1.64013H95.687V8.32013H81.967V29.6401H73.967ZM98.3458 1.64013H106.986L118.266 22.9601H122.666L133.946 1.64013H142.586L127.786 29.6401H113.146L98.3458 1.64013ZM146.032 29.6401V1.64013H154.032V29.6401H146.032ZM158.871 8.32013V1.64013H194.791V7.52014L171.671 22.9601H194.791V29.6401H158.511V23.7601L181.511 8.32013H158.871Z" fill="#D80000"/>
    <path d="M35.7417 29.6401L34.7704 29.8778L34.9569 30.6401H35.7417V29.6401ZM19.6217 23.4001L19.6252 22.4001L19.6164 22.4001L19.6076 22.4002L19.6217 23.4001ZM10.7417 23.3201L10.768 22.3205L9.74172 22.2935V23.3201H10.7417ZM10.7417 29.6401V30.6401H11.7417V29.6401H10.7417ZM2.74172 29.6401H1.74172V30.6401H2.74172V29.6401ZM2.74172 1.64013L2.67569 0.642317L1.74172 0.704124V1.64013H2.74172ZM34.6617 20.2401L34.421 19.2695L33.6617 19.4578V20.2401H34.6617ZM34.6617 20.6401H33.6617V21.4087L34.4045 21.6065L34.6617 20.6401ZM44.0617 29.6401V30.6401H45.2536L45.0465 29.4664L44.0617 29.6401ZM10.7417 7.92014L10.6947 6.92124L9.74172 6.96609V7.92014H10.7417ZM10.7417 16.6001H9.74172V17.5693L10.7104 17.5996L10.7417 16.6001ZM35.7417 29.6401L36.7131 29.4025C36.1722 27.192 34.7606 25.4064 32.0112 24.2084C29.3325 23.0412 25.3684 22.4203 19.6252 22.4001L19.6217 23.4001L19.6182 24.4001C25.2751 24.42 28.911 25.0391 31.2123 26.0419C33.4428 27.0138 34.3912 28.3282 34.7704 29.8778L35.7417 29.6401ZM19.6217 23.4001L19.6076 22.4002C16.7859 22.44 13.8004 22.4003 10.768 22.3205L10.7417 23.3201L10.7154 24.3198C13.763 24.4 16.7775 24.4403 19.6358 24.4L19.6217 23.4001ZM10.7417 23.3201H9.74172V29.6401H10.7417H11.7417V23.3201H10.7417ZM10.7417 29.6401V28.6401H2.74172V29.6401V30.6401H10.7417V29.6401ZM2.74172 29.6401H3.74172V1.64013H2.74172H1.74172V29.6401H2.74172ZM2.74172 1.64013L2.80775 2.63795C8.24111 2.27839 13.6551 2.00014 18.6617 2.00014V1.00014V0.000135899C13.5884 0.000135899 8.12234 0.281877 2.67569 0.642317L2.74172 1.64013ZM18.6617 1.00014V2.00014C25.4434 2.00014 31.3712 2.53348 35.5739 4.09269C37.6646 4.86836 39.2618 5.87425 40.3327 7.13261C41.3872 8.37176 41.9817 9.91331 41.9817 11.8801H42.9817H43.9817C43.9817 9.46696 43.2362 7.45851 41.8558 5.83641C40.4917 4.23352 38.5588 3.06691 36.2696 2.21758C31.7122 0.526793 25.48 0.000135899 18.6617 0.000135899V1.00014ZM42.9817 11.8801H41.9817C41.9817 13.8193 41.2692 15.339 40.0086 16.5346C38.7219 17.7549 36.8217 18.6742 34.421 19.2695L34.6617 20.2401L34.9024 21.2107C37.5017 20.5661 39.7616 19.5253 41.3849 17.9857C43.0343 16.4213 43.9817 14.3809 43.9817 11.8801H42.9817ZM34.6617 20.2401H33.6617V20.6401H34.6617H35.6617V20.2401H34.6617ZM34.6617 20.6401L34.4045 21.6065C37.3588 22.393 39.3517 23.549 40.6842 24.9216C42.0102 26.2877 42.745 27.9331 43.0769 29.8139L44.0617 29.6401L45.0465 29.4664C44.6584 27.2672 43.7732 25.2326 42.1193 23.5286C40.4717 21.8313 38.1246 20.5272 34.919 19.6738L34.6617 20.6401ZM44.0617 29.6401V28.6401H35.7417V29.6401V30.6401H44.0617V29.6401ZM10.7417 7.92014H9.74172V16.6001H10.7417H11.7417V7.92014H10.7417ZM10.7417 16.6001L10.7104 17.5996C17.0926 17.7997 23.2299 17.7836 27.7897 17.1249C30.0598 16.7969 32.0315 16.298 33.462 15.5291C34.9078 14.752 35.9817 13.5853 35.9817 11.9201H34.9817H33.9817C33.9817 12.555 33.6207 13.1732 32.5152 13.7674C31.3945 14.3698 29.6987 14.8283 27.5037 15.1454C23.1335 15.7767 17.1508 15.8006 10.7731 15.6006L10.7417 16.6001ZM34.9817 11.9201H35.9817C35.9817 10.7112 35.4092 9.74689 34.503 9.03192C33.6321 8.34485 32.4414 7.87238 31.0888 7.53488C28.377 6.85823 24.6523 6.64014 20.5017 6.64014V7.64014V8.64014C24.6311 8.64014 28.1465 8.86204 30.6046 9.47539C31.837 9.78289 32.7139 10.1679 33.2642 10.6021C33.7792 11.0084 33.9817 11.4291 33.9817 11.9201H34.9817ZM20.5017 7.64014V6.64014C17.438 6.64014 14.0996 6.76101 10.6947 6.92124L10.7417 7.92014L10.7887 8.91903C14.1839 8.75926 17.4854 8.64014 20.5017 8.64014V7.64014ZM48.0077 29.6401H47.0077V30.6401H48.0077V29.6401ZM48.0077 1.64013V0.640135H47.0077V1.64013H48.0077ZM56.0077 1.64013H57.0077V0.640135H56.0077V1.64013ZM56.0077 29.6401V30.6401H57.0077V29.6401H56.0077ZM48.0077 29.6401H49.0077V1.64013H48.0077H47.0077V29.6401H48.0077ZM48.0077 1.64013V2.64013H56.0077V1.64013V0.640135H48.0077V1.64013ZM56.0077 1.64013H55.0077V29.6401H56.0077H57.0077V1.64013H56.0077ZM56.0077 29.6401V28.6401H48.0077V29.6401V30.6401H56.0077V29.6401ZM73.967 29.6401H72.967V30.6401H73.967V29.6401ZM73.967 8.32013H74.967V7.32013H73.967V8.32013ZM60.247 8.32013H59.247V9.32013H60.247V8.32013ZM60.247 1.64013V0.640135H59.247V1.64013H60.247ZM95.687 1.64013H96.687V0.640135H95.687V1.64013ZM95.687 8.32013V9.32013H96.687V8.32013H95.687ZM81.967 8.32013V7.32013H80.967V8.32013H81.967ZM81.967 29.6401V30.6401H82.967V29.6401H81.967ZM73.967 29.6401H74.967V8.32013H73.967H72.967V29.6401H73.967ZM73.967 8.32013V7.32013H60.247V8.32013V9.32013H73.967V8.32013ZM60.247 8.32013H61.247V1.64013H60.247H59.247V8.32013H60.247ZM60.247 1.64013V2.64013H95.687V1.64013V0.640135H60.247V1.64013ZM95.687 1.64013H94.687V8.32013H95.687H96.687V1.64013H95.687ZM95.687 8.32013V7.32013H81.967V8.32013V9.32013H95.687V8.32013ZM81.967 8.32013H80.967V29.6401H81.967H82.967V8.32013H81.967ZM81.967 29.6401V28.6401H73.967V29.6401V30.6401H81.967V29.6401ZM98.3458 1.64013V0.640135H96.6861L97.4617 2.10744L98.3458 1.64013ZM106.986 1.64013L107.87 1.17248L107.588 0.640135H106.986V1.64013ZM118.266 22.9601L117.382 23.4278L117.664 23.9601H118.266V22.9601ZM122.666 22.9601V23.9601H123.268L123.55 23.4278L122.666 22.9601ZM133.946 1.64013V0.640135H133.344L133.062 1.17248L133.946 1.64013ZM142.586 1.64013L143.47 2.10744L144.245 0.640135H142.586V1.64013ZM127.786 29.6401V30.6401H128.388L128.67 30.1074L127.786 29.6401ZM113.146 29.6401L112.262 30.1074L112.543 30.6401H113.146V29.6401ZM98.3458 1.64013V2.64013H106.986V1.64013V0.640135H98.3458V1.64013ZM106.986 1.64013L106.102 2.10779L117.382 23.4278L118.266 22.9601L119.15 22.4925L107.87 1.17248L106.986 1.64013ZM118.266 22.9601V23.9601H122.666V22.9601V21.9601H118.266V22.9601ZM122.666 22.9601L123.55 23.4278L134.83 2.10779L133.946 1.64013L133.062 1.17248L121.782 22.4925L122.666 22.9601ZM133.946 1.64013V2.64013H142.586V1.64013V0.640135H133.946V1.64013ZM142.586 1.64013L141.702 1.17283L126.902 29.1728L127.786 29.6401L128.67 30.1074L143.47 2.10744L142.586 1.64013ZM127.786 29.6401V28.6401H113.146V29.6401V30.6401H127.786V29.6401ZM113.146 29.6401L114.03 29.1728L99.2299 1.17283L98.3458 1.64013L97.4617 2.10744L112.262 30.1074L113.146 29.6401ZM146.032 29.6401H145.032V30.6401H146.032V29.6401ZM146.032 1.64013V0.640135H145.032V1.64013H146.032ZM154.032 1.64013H155.032V0.640135H154.032V1.64013ZM154.032 29.6401V30.6401H155.032V29.6401H154.032ZM146.032 29.6401H147.032V1.64013H146.032H145.032V29.6401H146.032ZM146.032 1.64013V2.64013H154.032V1.64013V0.640135H146.032V1.64013ZM154.032 1.64013H153.032V29.6401H154.032H155.032V1.64013H154.032ZM154.032 29.6401V28.6401H146.032V29.6401V30.6401H154.032V29.6401ZM158.871 8.32013H157.871V9.32013H158.871V8.32013ZM158.871 1.64013V0.640135H157.871V1.64013H158.871ZM194.791 1.64013H195.791V0.640135H194.791V1.64013ZM194.791 7.52014L195.347 8.35174L195.791 8.05481V7.52014H194.791ZM171.671 22.9601L171.116 22.1285L168.373 23.9601H171.671V22.9601ZM194.791 22.9601H195.791V21.9601H194.791V22.9601ZM194.791 29.6401V30.6401H195.791V29.6401H194.791ZM158.511 29.6401H157.511V30.6401H158.511V29.6401ZM158.511 23.7601L157.954 22.9299L157.511 23.227V23.7601H158.511ZM181.511 8.32013L182.069 9.1504L184.795 7.32013H181.511V8.32013ZM158.871 8.32013H159.871V1.64013H158.871H157.871V8.32013H158.871ZM158.871 1.64013V2.64013H194.791V1.64013V0.640135H158.871V1.64013ZM194.791 1.64013H193.791V7.52014H194.791H195.791V1.64013H194.791ZM194.791 7.52014L194.236 6.68853L171.116 22.1285L171.671 22.9601L172.227 23.7917L195.347 8.35174L194.791 7.52014ZM171.671 22.9601V23.9601H194.791V22.9601V21.9601H171.671V22.9601ZM194.791 22.9601H193.791V29.6401H194.791H195.791V22.9601H194.791ZM194.791 29.6401V28.6401H158.511V29.6401V30.6401H194.791V29.6401ZM158.511 29.6401H159.511V23.7601H158.511H157.511V29.6401H158.511ZM158.511 23.7601L159.069 24.5904L182.069 9.1504L181.511 8.32013L180.954 7.48987L157.954 22.9299L158.511 23.7601ZM181.511 8.32013V7.32013H158.871V8.32013V9.32013H181.511V8.32013Z" fill="black" mask="url(#path-3-outside-2_6026_4237)"/>
    <mask id="path-5-outside-3_6026_4237" maskUnits="userSpaceOnUse" x="155" y="25.6401" width="42" height="24" fill="black">
        <rect fill="white" x="155" y="25.6401" width="42" height="24"/>
        <path d="M182.642 48.6401L176.402 42.6241L170.162 48.6401H158.322L169.586 37.7601L158.322 26.8801H170.162L176.37 32.8961L182.642 26.8801H194.482L183.186 37.7601L194.482 48.6401H182.642Z"/>
    </mask>
    <path d="M182.642 48.6401L176.402 42.6241L170.162 48.6401H158.322L169.586 37.7601L158.322 26.8801H170.162L176.37 32.8961L182.642 26.8801H194.482L183.186 37.7601L194.482 48.6401H182.642Z" fill="white"/>
    <path d="M182.642 48.6401L181.948 49.36L182.238 49.6401H182.642V48.6401ZM176.402 42.6241L177.096 41.9042L176.402 41.2351L175.708 41.9042L176.402 42.6241ZM170.162 48.6401V49.6401H170.565L170.856 49.36L170.162 48.6401ZM158.322 48.6401L157.627 47.9209L155.847 49.6401H158.322V48.6401ZM169.586 37.7601L170.281 38.4794L171.025 37.7601L170.281 37.0409L169.586 37.7601ZM158.322 26.8801V25.8801H155.847L157.627 27.5994L158.322 26.8801ZM170.162 26.8801L170.858 26.162L170.567 25.8801H170.162V26.8801ZM176.37 32.8961L175.674 33.6143L176.366 34.2852L177.062 33.6178L176.37 32.8961ZM182.642 26.8801V25.8801H182.24L181.95 26.1585L182.642 26.8801ZM194.482 26.8801L195.176 27.6004L196.962 25.8801H194.482V26.8801ZM183.186 37.7601L182.492 37.0399L181.744 37.7601L182.492 38.4804L183.186 37.7601ZM194.482 48.6401V49.6401H196.962L195.176 47.9199L194.482 48.6401ZM182.642 48.6401L183.336 47.9202L177.096 41.9042L176.402 42.6241L175.708 43.344L181.948 49.36L182.642 48.6401ZM176.402 42.6241L175.708 41.9042L169.468 47.9202L170.162 48.6401L170.856 49.36L177.096 43.344L176.402 42.6241ZM170.162 48.6401V47.6401H158.322V48.6401V49.6401H170.162V48.6401ZM158.322 48.6401L159.017 49.3594L170.281 38.4794L169.586 37.7601L168.891 37.0409L157.627 47.9209L158.322 48.6401ZM169.586 37.7601L170.281 37.0409L159.017 26.1609L158.322 26.8801L157.627 27.5994L168.891 38.4794L169.586 37.7601ZM158.322 26.8801V27.8801H170.162V26.8801V25.8801H158.322V26.8801ZM170.162 26.8801L169.466 27.5983L175.674 33.6143L176.37 32.8961L177.066 32.178L170.858 26.162L170.162 26.8801ZM176.37 32.8961L177.062 33.6178L183.334 27.6018L182.642 26.8801L181.95 26.1585L175.678 32.1745L176.37 32.8961ZM182.642 26.8801V27.8801H194.482V26.8801V25.8801H182.642V26.8801ZM194.482 26.8801L193.788 26.1599L182.492 37.0399L183.186 37.7601L183.88 38.4804L195.176 27.6004L194.482 26.8801ZM183.186 37.7601L182.492 38.4804L193.788 49.3604L194.482 48.6401L195.176 47.9199L183.88 37.0399L183.186 37.7601ZM194.482 48.6401V47.6401H182.642V48.6401V49.6401H194.482V48.6401Z" fill="black" mask="url(#path-5-outside-3_6026_4237)"/>
</svg>
