<svg width="353" height="106" viewBox="0 0 353 106" fill="none" xmlns="http://www.w3.org/2000/svg">
<path d="M163.453 70.8003V47.7003H170.053V65.2893H190.975V70.8003H163.453ZM211.209 71.6253C198.438 71.6253 192.96 67.8963 192.96 59.2503C192.96 50.6043 198.438 46.8753 211.209 46.8753C223.98 46.8753 229.458 50.6043 229.458 59.2503C229.458 67.8963 223.98 71.6253 211.209 71.6253ZM199.56 59.2503C199.56 64.2003 202.827 66.1143 211.209 66.1143C219.591 66.1143 222.858 64.2003 222.858 59.2503C222.858 54.3003 219.591 52.3863 211.209 52.3863C202.827 52.3863 199.56 54.3003 199.56 59.2503ZM264.62 48.8223V54.1023C262.211 53.3103 256.997 52.2213 249.44 52.2213C244.721 52.2213 238.979 53.1453 238.979 55.3893C238.979 56.5113 240.332 56.7093 242.279 56.7093H258.449C264.257 56.7093 267.425 58.8873 267.425 62.8803C267.425 68.2263 261.056 71.4603 248.747 71.4603C242.675 71.4603 236.339 70.5693 233.468 69.7113V64.2003C235.91 64.9923 239.771 66.0813 248.813 66.0813C258.152 66.0813 260.924 64.7283 260.924 62.9793C260.924 62.1213 260 61.7913 258.119 61.7913H240.86C234.788 61.7913 232.445 59.1183 232.445 55.6203C232.445 50.1423 238.286 47.0403 249.836 47.0403C255.611 47.0403 261.749 47.9313 264.62 48.8223ZM281.273 70.8003V53.2113H269.954V47.7003H299.192V53.2113H287.873V70.8003H281.273ZM158.829 79.8223V85.1023C156.42 84.3103 151.206 83.2213 143.649 83.2213C138.93 83.2213 133.188 84.1453 133.188 86.3893C133.188 87.5113 134.541 87.7093 136.488 87.7093H152.658C158.466 87.7093 161.634 89.8873 161.634 93.8803C161.634 99.2263 155.265 102.46 142.956 102.46C136.884 102.46 130.548 101.569 127.677 100.711V95.2003C130.119 95.9923 133.98 97.0813 143.022 97.0813C152.361 97.0813 155.133 95.7283 155.133 93.9793C155.133 93.1213 154.209 92.7913 152.328 92.7913H135.069C128.997 92.7913 126.654 90.1183 126.654 86.6203C126.654 81.1423 132.495 78.0403 144.045 78.0403C149.82 78.0403 155.958 78.9313 158.829 79.8223ZM175.482 101.8V84.2113H164.163V78.7003H193.401V84.2113H182.082V101.8H175.482ZM214.351 102.625C201.58 102.625 196.102 98.8963 196.102 90.2503C196.102 81.6043 201.58 77.8753 214.351 77.8753C227.122 77.8753 232.6 81.6043 232.6 90.2503C232.6 98.8963 227.122 102.625 214.351 102.625ZM202.702 90.2503C202.702 95.2003 205.969 97.1143 214.351 97.1143C222.733 97.1143 226 95.2003 226 90.2503C226 85.3003 222.733 83.3863 214.351 83.3863C205.969 83.3863 202.702 85.3003 202.702 90.2503ZM263.177 101.8C262.418 98.6983 259.283 96.6853 249.878 96.6523C247.535 96.6853 245.06 96.6523 242.552 96.5863V101.8H235.952V78.7003C240.44 78.4033 244.928 78.1723 249.086 78.1723C260.306 78.1723 269.15 79.9213 269.15 87.1483C269.15 90.8113 266.411 93.0223 262.286 94.0453V94.3753C267.368 95.7283 269.447 98.4343 270.041 101.8H263.177ZM242.552 83.8813V91.0423C253.079 91.3723 262.55 90.9763 262.55 87.1813C262.55 84.3763 257.435 83.6503 250.604 83.6503C248.096 83.6503 245.357 83.7493 242.552 83.8813ZM273.208 101.8V78.7003H279.808V101.8H273.208ZM283.878 101.8V78.7003H312.687V84.0793H290.478V87.7093H311.037V92.7913H290.478V96.4213H312.687V101.8H283.878ZM348.046 79.8223V85.1023C345.637 84.3103 340.423 83.2213 332.866 83.2213C328.147 83.2213 322.405 84.1453 322.405 86.3893C322.405 87.5113 323.758 87.7093 325.705 87.7093H341.875C347.683 87.7093 350.851 89.8873 350.851 93.8803C350.851 99.2263 344.482 102.46 332.173 102.46C326.101 102.46 319.765 101.569 316.894 100.711V95.2003C319.336 95.9923 323.197 97.0813 332.239 97.0813C341.578 97.0813 344.35 95.7283 344.35 93.9793C344.35 93.1213 343.426 92.7913 341.545 92.7913H324.286C318.214 92.7913 315.871 90.1183 315.871 86.6203C315.871 81.1423 321.712 78.0403 333.262 78.0403C339.037 78.0403 345.175 78.9313 348.046 79.8223Z" fill="#F50000"/>
<path d="M163.453 70.8003H162.953V71.3003H163.453V70.8003ZM163.453 47.7003V47.2003H162.953V47.7003H163.453ZM170.053 47.7003H170.553V47.2003H170.053V47.7003ZM170.053 65.2893H169.553V65.7893H170.053V65.2893ZM190.975 65.2893H191.475V64.7893H190.975V65.2893ZM190.975 70.8003V71.3003H191.475V70.8003H190.975ZM163.453 70.8003H163.953V47.7003H163.453H162.953V70.8003H163.453ZM163.453 47.7003V48.2003H170.053V47.7003V47.2003H163.453V47.7003ZM170.053 47.7003H169.553V65.2893H170.053H170.553V47.7003H170.053ZM170.053 65.2893V65.7893H190.975V65.2893V64.7893H170.053V65.2893ZM190.975 65.2893H190.475V70.8003H190.975H191.475V65.2893H190.975ZM190.975 70.8003V70.3003H163.453V70.8003V71.3003H190.975V70.8003ZM211.209 71.6253V71.1253C204.85 71.1253 200.414 70.1927 197.576 68.2663C194.782 66.3703 193.46 63.4552 193.46 59.2503H192.96H192.46C192.46 63.6914 193.876 66.9638 197.014 69.0938C200.108 71.1934 204.796 72.1253 211.209 72.1253V71.6253ZM192.96 59.2503H193.46C193.46 55.0454 194.782 52.1303 197.576 50.2343C200.414 48.3079 204.85 47.3753 211.209 47.3753V46.8753V46.3753C204.796 46.3753 200.108 47.3072 197.014 49.4068C193.876 51.5368 192.46 54.8092 192.46 59.2503H192.96ZM211.209 46.8753V47.3753C217.567 47.3753 222.003 48.3079 224.841 50.2343C227.635 52.1303 228.958 55.0454 228.958 59.2503H229.458H229.958C229.958 54.8092 228.541 51.5368 225.403 49.4068C222.31 47.3072 217.621 46.3753 211.209 46.3753V46.8753ZM229.458 59.2503H228.958C228.958 63.4552 227.635 66.3703 224.841 68.2663C222.003 70.1927 217.567 71.1253 211.209 71.1253V71.6253V72.1253C217.621 72.1253 222.31 71.1934 225.403 69.0938C228.541 66.9638 229.958 63.6914 229.958 59.2503H229.458ZM199.56 59.2503H199.06C199.06 60.5409 199.272 61.6706 199.754 62.6345C200.238 63.6041 200.979 64.3764 201.987 64.9695C203.975 66.1393 207.005 66.6143 211.209 66.6143V66.1143V65.6143C207.03 65.6143 204.236 65.1323 202.494 64.1076C201.638 63.6035 201.039 62.9691 200.648 62.1877C200.255 61.4005 200.06 60.4347 200.06 59.2503H199.56ZM211.209 66.1143V66.6143C215.412 66.6143 218.442 66.1393 220.43 64.9695C221.438 64.3764 222.179 63.6041 222.664 62.6345C223.145 61.6706 223.358 60.5409 223.358 59.2503H222.858H222.358C222.358 60.4347 222.162 61.4005 221.769 62.1877C221.379 62.9691 220.779 63.6035 219.923 64.1076C218.182 65.1323 215.387 65.6143 211.209 65.6143V66.1143ZM222.858 59.2503H223.358C223.358 57.9597 223.145 56.83 222.664 55.8661C222.179 54.8965 221.438 54.1242 220.43 53.5311C218.442 52.3613 215.412 51.8863 211.209 51.8863V52.3863V52.8863C215.387 52.8863 218.182 53.3683 219.923 54.393C220.779 54.8971 221.379 55.5315 221.769 56.3129C222.162 57.1001 222.358 58.0659 222.358 59.2503H222.858ZM211.209 52.3863V51.8863C207.005 51.8863 203.975 52.3613 201.987 53.5311C200.979 54.1242 200.238 54.8965 199.754 55.8661C199.272 56.83 199.06 57.9597 199.06 59.2503H199.56H200.06C200.06 58.0659 200.255 57.1001 200.648 56.3129C201.039 55.5315 201.638 54.8971 202.494 54.393C204.236 53.3683 207.03 52.8863 211.209 52.8863V52.3863ZM264.62 48.8223H265.12V48.4539L264.768 48.3448L264.62 48.8223ZM264.62 54.1023L264.464 54.5773L265.12 54.793V54.1023H264.62ZM233.468 69.7113H232.968V70.0837L233.325 70.1904L233.468 69.7113ZM233.468 64.2003L233.622 63.7247L232.968 63.5125V64.2003H233.468ZM264.62 48.8223H264.12V54.1023H264.62H265.12V48.8223H264.62ZM264.62 54.1023L264.776 53.6273C262.308 52.8159 257.04 51.7213 249.44 51.7213V52.2213V52.7213C256.954 52.7213 262.114 53.8047 264.464 54.5773L264.62 54.1023ZM249.44 52.2213V51.7213C247.056 51.7213 244.396 51.954 242.318 52.479C241.282 52.7406 240.355 53.0832 239.675 53.5297C239 53.9736 238.479 54.5847 238.479 55.3893H238.979H239.479C239.479 55.0719 239.676 54.726 240.225 54.3655C240.769 54.0076 241.573 53.6985 242.562 53.4486C244.534 52.9506 247.105 52.7213 249.44 52.7213V52.2213ZM238.979 55.3893H238.479C238.479 55.7801 238.601 56.1248 238.848 56.4017C239.085 56.6672 239.405 56.8347 239.744 56.9454C240.41 57.1626 241.308 57.2093 242.279 57.2093V56.7093V56.2093C241.303 56.2093 240.551 56.157 240.054 55.9947C239.812 55.9156 239.672 55.8232 239.594 55.7361C239.526 55.6602 239.479 55.5595 239.479 55.3893H238.979ZM242.279 56.7093V57.2093H258.449V56.7093V56.2093H242.279V56.7093ZM258.449 56.7093V57.2093C261.303 57.2093 263.431 57.7465 264.832 58.7094C266.205 59.6533 266.925 61.0366 266.925 62.8803H267.425H267.925C267.925 60.731 267.061 59.0288 265.398 57.8854C263.763 56.7611 261.403 56.2093 258.449 56.2093V56.7093ZM267.425 62.8803H266.925C266.925 65.3025 265.503 67.301 262.489 68.7228C259.455 70.1539 254.871 70.9603 248.747 70.9603V71.4603V71.9603C254.933 71.9603 259.688 71.1497 262.915 69.6273C266.163 68.0956 267.925 65.8041 267.925 62.8803H267.425ZM248.747 71.4603V70.9603C242.706 70.9603 236.422 70.0721 233.611 69.2322L233.468 69.7113L233.325 70.1904C236.256 71.0664 242.644 71.9603 248.747 71.9603V71.4603ZM233.468 69.7113H233.968V64.2003H233.468H232.968V69.7113H233.468ZM233.468 64.2003L233.314 64.6759C235.808 65.4848 239.721 66.5813 248.813 66.5813V66.0813V65.5813C239.821 65.5813 236.012 64.4998 233.622 63.7247L233.468 64.2003ZM248.813 66.0813V66.5813C253.494 66.5813 256.581 66.2437 258.514 65.6652C259.481 65.3759 260.199 65.0146 260.683 64.57C261.183 64.1113 261.424 63.5689 261.424 62.9793H260.924H260.424C260.424 63.2642 260.319 63.5468 260.007 63.8336C259.679 64.1346 259.121 64.4396 258.227 64.7072C256.439 65.2424 253.471 65.5813 248.813 65.5813V66.0813ZM260.924 62.9793H261.424C261.424 62.6688 261.338 62.377 261.147 62.1278C260.962 61.8852 260.704 61.7177 260.415 61.6004C259.854 61.372 259.07 61.2913 258.119 61.2913V61.7913V62.2913C259.049 62.2913 259.667 62.3756 260.038 62.5266C260.216 62.5991 260.307 62.675 260.353 62.7356C260.395 62.7895 260.424 62.8608 260.424 62.9793H260.924ZM258.119 61.7913V61.2913H240.86V61.7913V62.2913H258.119V61.7913ZM240.86 61.7913V61.2913C237.888 61.2913 235.915 60.636 234.693 59.6313C233.486 58.639 232.945 57.251 232.945 55.6203H232.445H231.945C231.945 57.4876 232.576 59.1851 234.058 60.4038C235.525 61.6101 237.76 62.2913 240.86 62.2913V61.7913ZM232.445 55.6203H232.945C232.945 53.107 234.263 51.116 237.034 49.7227C239.836 48.314 244.092 47.5403 249.836 47.5403V47.0403V46.5403C244.031 46.5403 239.591 47.3176 236.585 48.8293C233.547 50.3566 231.945 52.6556 231.945 55.6203H232.445ZM249.836 47.0403V47.5403C255.578 47.5403 261.663 48.428 264.472 49.2998L264.62 48.8223L264.768 48.3448C261.835 47.4346 255.644 46.5403 249.836 46.5403V47.0403ZM281.273 70.8003H280.773V71.3003H281.273V70.8003ZM281.273 53.2113H281.773V52.7113H281.273V53.2113ZM269.954 53.2113H269.454V53.7113H269.954V53.2113ZM269.954 47.7003V47.2003H269.454V47.7003H269.954ZM299.192 47.7003H299.692V47.2003H299.192V47.7003ZM299.192 53.2113V53.7113H299.692V53.2113H299.192ZM287.873 53.2113V52.7113H287.373V53.2113H287.873ZM287.873 70.8003V71.3003H288.373V70.8003H287.873ZM281.273 70.8003H281.773V53.2113H281.273H280.773V70.8003H281.273ZM281.273 53.2113V52.7113H269.954V53.2113V53.7113H281.273V53.2113ZM269.954 53.2113H270.454V47.7003H269.954H269.454V53.2113H269.954ZM269.954 47.7003V48.2003H299.192V47.7003V47.2003H269.954V47.7003ZM299.192 47.7003H298.692V53.2113H299.192H299.692V47.7003H299.192ZM299.192 53.2113V52.7113H287.873V53.2113V53.7113H299.192V53.2113ZM287.873 53.2113H287.373V70.8003H287.873H288.373V53.2113H287.873ZM287.873 70.8003V70.3003H281.273V70.8003V71.3003H287.873V70.8003ZM158.829 79.8223H159.329V79.4539L158.977 79.3448L158.829 79.8223ZM158.829 85.1023L158.673 85.5773L159.329 85.793V85.1023H158.829ZM127.677 100.711H127.177V101.084L127.534 101.19L127.677 100.711ZM127.677 95.2003L127.831 94.7247L127.177 94.5125V95.2003H127.677ZM158.829 79.8223H158.329V85.1023H158.829H159.329V79.8223H158.829ZM158.829 85.1023L158.985 84.6273C156.517 83.8159 151.249 82.7213 143.649 82.7213V83.2213V83.7213C151.163 83.7213 156.323 84.8047 158.673 85.5773L158.829 85.1023ZM143.649 83.2213V82.7213C141.265 82.7213 138.605 82.954 136.526 83.479C135.491 83.7406 134.564 84.0832 133.884 84.5297C133.209 84.9736 132.688 85.5847 132.688 86.3893H133.188H133.688C133.688 86.0719 133.885 85.726 134.433 85.3655C134.978 85.0076 135.781 84.6985 136.771 84.4486C138.743 83.9506 141.314 83.7213 143.649 83.7213V83.2213ZM133.188 86.3893H132.688C132.688 86.7801 132.81 87.1248 133.057 87.4017C133.293 87.6672 133.613 87.8347 133.953 87.9454C134.619 88.1626 135.517 88.2093 136.488 88.2093V87.7093V87.2093C135.512 87.2093 134.76 87.157 134.263 86.9947C134.02 86.9156 133.881 86.8232 133.803 86.7361C133.735 86.6602 133.688 86.5595 133.688 86.3893H133.188ZM136.488 87.7093V88.2093H152.658V87.7093V87.2093H136.488V87.7093ZM152.658 87.7093V88.2093C155.512 88.2093 157.64 88.7465 159.041 89.7094C160.413 90.6533 161.134 92.0366 161.134 93.8803H161.634H162.134C162.134 91.731 161.27 90.0288 159.607 88.8854C157.972 87.7611 155.612 87.2093 152.658 87.2093V87.7093ZM161.634 93.8803H161.134C161.134 96.3025 159.712 98.301 156.697 99.7228C153.663 101.154 149.079 101.96 142.956 101.96V102.46V102.96C149.141 102.96 153.896 102.15 157.124 100.627C160.371 99.0956 162.134 96.8041 162.134 93.8803H161.634ZM142.956 102.46V101.96C136.915 101.96 130.631 101.072 127.82 100.232L127.677 100.711L127.534 101.19C130.465 102.066 136.853 102.96 142.956 102.96V102.46ZM127.677 100.711H128.177V95.2003H127.677H127.177V100.711H127.677ZM127.677 95.2003L127.523 95.6759C130.017 96.4848 133.93 97.5813 143.022 97.5813V97.0813V96.5813C134.03 96.5813 130.221 95.4998 127.831 94.7247L127.677 95.2003ZM143.022 97.0813V97.5813C147.703 97.5813 150.79 97.2437 152.723 96.6652C153.689 96.3759 154.408 96.0146 154.892 95.57C155.391 95.1113 155.633 94.5689 155.633 93.9793H155.133H154.633C154.633 94.2642 154.528 94.5468 154.216 94.8336C153.888 95.1346 153.33 95.4396 152.436 95.7072C150.648 96.2424 147.68 96.5813 143.022 96.5813V97.0813ZM155.133 93.9793H155.633C155.633 93.6688 155.547 93.377 155.356 93.1278C155.171 92.8853 154.912 92.7177 154.624 92.6004C154.063 92.372 153.279 92.2913 152.328 92.2913V92.7913V93.2913C153.258 93.2913 153.876 93.3756 154.247 93.5266C154.425 93.5991 154.516 93.675 154.562 93.7356C154.603 93.7895 154.633 93.8608 154.633 93.9793H155.133ZM152.328 92.7913V92.2913H135.069V92.7913V93.2913H152.328V92.7913ZM135.069 92.7913V92.2913C132.097 92.2913 130.124 91.636 128.902 90.6313C127.695 89.639 127.154 88.251 127.154 86.6203H126.654H126.154C126.154 88.4876 126.784 90.1851 128.267 91.4038C129.734 92.6101 131.969 93.2913 135.069 93.2913V92.7913ZM126.654 86.6203H127.154C127.154 84.107 128.472 82.116 131.243 80.7227C134.044 79.314 138.3 78.5403 144.045 78.5403V78.0403V77.5403C138.239 77.5403 133.8 78.3176 130.794 79.8293C127.756 81.3566 126.154 83.6556 126.154 86.6203H126.654ZM144.045 78.0403V78.5403C149.787 78.5403 155.872 79.428 158.681 80.2998L158.829 79.8223L158.977 79.3448C156.044 78.4346 149.853 77.5403 144.045 77.5403V78.0403ZM175.482 101.8H174.982V102.3H175.482V101.8ZM175.482 84.2113H175.982V83.7113H175.482V84.2113ZM164.163 84.2113H163.663V84.7113H164.163V84.2113ZM164.163 78.7003V78.2003H163.663V78.7003H164.163ZM193.401 78.7003H193.901V78.2003H193.401V78.7003ZM193.401 84.2113V84.7113H193.901V84.2113H193.401ZM182.082 84.2113V83.7113H181.582V84.2113H182.082ZM182.082 101.8V102.3H182.582V101.8H182.082ZM175.482 101.8H175.982V84.2113H175.482H174.982V101.8H175.482ZM175.482 84.2113V83.7113H164.163V84.2113V84.7113H175.482V84.2113ZM164.163 84.2113H164.663V78.7003H164.163H163.663V84.2113H164.163ZM164.163 78.7003V79.2003H193.401V78.7003V78.2003H164.163V78.7003ZM193.401 78.7003H192.901V84.2113H193.401H193.901V78.7003H193.401ZM193.401 84.2113V83.7113H182.082V84.2113V84.7113H193.401V84.2113ZM182.082 84.2113H181.582V101.8H182.082H182.582V84.2113H182.082ZM182.082 101.8V101.3H175.482V101.8V102.3H182.082V101.8ZM214.351 102.625V102.125C207.992 102.125 203.556 101.193 200.718 99.2663C197.924 97.3703 196.602 94.4552 196.602 90.2503H196.102H195.602C195.602 94.6914 197.018 97.9638 200.156 100.094C203.25 102.193 207.938 103.125 214.351 103.125V102.625ZM196.102 90.2503H196.602C196.602 86.0454 197.924 83.1303 200.718 81.2343C203.556 79.3079 207.992 78.3753 214.351 78.3753V77.8753V77.3753C207.938 77.3753 203.25 78.3072 200.156 80.4068C197.018 82.5368 195.602 85.8092 195.602 90.2503H196.102ZM214.351 77.8753V78.3753C220.709 78.3753 225.145 79.3079 227.984 81.2343C230.777 83.1303 232.1 86.0454 232.1 90.2503H232.6H233.1C233.1 85.8092 231.683 82.5368 228.545 80.4068C225.452 78.3072 220.763 77.3753 214.351 77.3753V77.8753ZM232.6 90.2503H232.1C232.1 94.4552 230.777 97.3703 227.984 99.2663C225.145 101.193 220.709 102.125 214.351 102.125V102.625V103.125C220.763 103.125 225.452 102.193 228.545 100.094C231.683 97.9638 233.1 94.6914 233.1 90.2503H232.6ZM202.702 90.2503H202.202C202.202 91.5409 202.414 92.6706 202.896 93.6345C203.38 94.6041 204.122 95.3764 205.129 95.9695C207.117 97.1393 210.147 97.6143 214.351 97.6143V97.1143V96.6143C210.172 96.6143 207.378 96.1323 205.637 95.1076C204.78 94.6035 204.181 93.9691 203.79 93.1877C203.397 92.4005 203.202 91.4347 203.202 90.2503H202.702ZM214.351 97.1143V97.6143C218.554 97.6143 221.584 97.1393 223.572 95.9695C224.58 95.3764 225.321 94.6041 225.806 93.6345C226.287 92.6706 226.5 91.5409 226.5 90.2503H226H225.5C225.5 91.4347 225.304 92.4005 224.911 93.1877C224.521 93.9691 223.922 94.6035 223.065 95.1076C221.324 96.1323 218.529 96.6143 214.351 96.6143V97.1143ZM226 90.2503H226.5C226.5 88.9597 226.287 87.83 225.806 86.8661C225.321 85.8965 224.58 85.1242 223.572 84.5311C221.584 83.3613 218.554 82.8863 214.351 82.8863V83.3863V83.8863C218.529 83.8863 221.324 84.3683 223.065 85.393C223.922 85.8971 224.521 86.5315 224.911 87.3129C225.304 88.1001 225.5 89.0659 225.5 90.2503H226ZM214.351 83.3863V82.8863C210.147 82.8863 207.117 83.3613 205.129 84.5311C204.122 85.1242 203.38 85.8965 202.896 86.8661C202.414 87.83 202.202 88.9597 202.202 90.2503H202.702H203.202C203.202 89.0659 203.397 88.1001 203.79 87.3129C204.181 86.5315 204.78 85.8971 205.637 85.393C207.378 84.3683 210.172 83.8863 214.351 83.8863V83.3863ZM263.177 101.8L262.691 101.919L262.784 102.3H263.177V101.8ZM249.878 96.6523L249.879 96.1522L249.871 96.1523L249.878 96.6523ZM242.552 96.5863L242.565 96.0865L242.052 96.073V96.5863H242.552ZM242.552 101.8V102.3H243.052V101.8H242.552ZM235.952 101.8H235.452V102.3H235.952V101.8ZM235.952 78.7003L235.919 78.2014L235.452 78.2323V78.7003H235.952ZM262.286 94.0453L262.165 93.56L261.786 93.6541V94.0453H262.286ZM262.286 94.3753H261.786V94.7596L262.157 94.8585L262.286 94.3753ZM270.041 101.8V102.3H270.637L270.533 101.713L270.041 101.8ZM242.552 83.8813L242.528 83.3818L242.052 83.4043V83.8813H242.552ZM242.552 91.0423H242.052V91.5269L242.536 91.542L242.552 91.0423ZM263.177 101.8L263.662 101.681C263.242 99.9652 262.153 98.5687 259.969 97.617C257.821 96.6808 254.604 96.1689 249.879 96.1523L249.878 96.6523L249.876 97.1523C254.557 97.1687 257.61 97.6798 259.57 98.5338C261.494 99.3724 262.352 100.533 262.691 101.919L263.177 101.8ZM249.878 96.6523L249.871 96.1523C247.537 96.1852 245.069 96.1524 242.565 96.0865L242.552 96.5863L242.539 97.0861C245.05 97.1522 247.533 97.1854 249.885 97.1522L249.878 96.6523ZM242.552 96.5863H242.052V101.8H242.552H243.052V96.5863H242.552ZM242.552 101.8V101.3H235.952V101.8V102.3H242.552V101.8ZM235.952 101.8H236.452V78.7003H235.952H235.452V101.8H235.952ZM235.952 78.7003L235.985 79.1992C240.469 78.9024 244.944 78.6723 249.086 78.6723V78.1723V77.6723C244.911 77.6723 240.41 77.9042 235.919 78.2014L235.952 78.7003ZM249.086 78.1723V78.6723C254.687 78.6723 259.626 79.1112 263.151 80.4189C264.908 81.0708 266.281 81.9268 267.212 83.021C268.135 84.1055 268.65 85.4531 268.65 87.1483H269.15H269.65C269.65 85.23 269.059 83.6489 267.973 82.3728C266.896 81.1065 265.356 80.1701 263.499 79.4814C259.797 78.1079 254.705 77.6723 249.086 77.6723V78.1723ZM269.15 87.1483H268.65C268.65 88.8394 268.024 90.1777 266.921 91.224C265.804 92.2827 264.178 93.0608 262.165 93.56L262.286 94.0453L262.406 94.5306C264.518 94.0068 266.324 93.1679 267.609 91.9496C268.906 90.7189 269.65 89.1202 269.65 87.1483H269.15ZM262.286 94.0453H261.786V94.3753H262.286H262.786V94.0453H262.286ZM262.286 94.3753L262.157 94.8585C264.635 95.5182 266.337 96.496 267.487 97.6812C268.635 98.8631 269.265 100.284 269.548 101.887L270.041 101.8L270.533 101.713C270.222 99.9508 269.516 98.3355 268.205 96.9847C266.897 95.6371 265.018 94.5853 262.414 93.8921L262.286 94.3753ZM270.041 101.8V101.3H263.177V101.8V102.3H270.041V101.8ZM242.552 83.8813H242.052V91.0423H242.552H243.052V83.8813H242.552ZM242.552 91.0423L242.536 91.542C247.801 91.7071 252.839 91.6925 256.57 91.1535C258.43 90.8848 260.012 90.4797 261.142 89.8724C262.28 89.2611 263.05 88.3876 263.05 87.1813H262.55H262.05C262.05 87.8725 261.636 88.4717 260.669 88.9916C259.694 89.5156 258.25 89.9005 256.427 90.1638C252.791 90.6891 247.83 90.7075 242.567 90.5425L242.552 91.0423ZM262.55 87.1813H263.05C263.05 86.3006 262.638 85.5934 261.953 85.0537C261.287 84.5279 260.356 84.1524 259.259 83.8788C257.063 83.3308 254.025 83.1503 250.604 83.1503V83.6503V84.1503C254.014 84.1503 256.948 84.3327 259.017 84.849C260.054 85.1076 260.828 85.4395 261.334 85.8388C261.823 86.2241 262.05 86.6595 262.05 87.1813H262.55ZM250.604 83.6503V83.1503C248.084 83.1503 245.336 83.2497 242.528 83.3818L242.552 83.8813L242.575 84.3807C245.378 84.2489 248.108 84.1503 250.604 84.1503V83.6503ZM273.208 101.8H272.708V102.3H273.208V101.8ZM273.208 78.7003V78.2003H272.708V78.7003H273.208ZM279.808 78.7003H280.308V78.2003H279.808V78.7003ZM279.808 101.8V102.3H280.308V101.8H279.808ZM273.208 101.8H273.708V78.7003H273.208H272.708V101.8H273.208ZM273.208 78.7003V79.2003H279.808V78.7003V78.2003H273.208V78.7003ZM279.808 78.7003H279.308V101.8H279.808H280.308V78.7003H279.808ZM279.808 101.8V101.3H273.208V101.8V102.3H279.808V101.8ZM283.878 101.8H283.378V102.3H283.878V101.8ZM283.878 78.7003V78.2003H283.378V78.7003H283.878ZM312.687 78.7003H313.187V78.2003H312.687V78.7003ZM312.687 84.0793V84.5793H313.187V84.0793H312.687ZM290.478 84.0793V83.5793H289.978V84.0793H290.478ZM290.478 87.7093H289.978V88.2093H290.478V87.7093ZM311.037 87.7093H311.537V87.2093H311.037V87.7093ZM311.037 92.7913V93.2913H311.537V92.7913H311.037ZM290.478 92.7913V92.2913H289.978V92.7913H290.478ZM290.478 96.4213H289.978V96.9213H290.478V96.4213ZM312.687 96.4213H313.187V95.9213H312.687V96.4213ZM312.687 101.8V102.3H313.187V101.8H312.687ZM283.878 101.8H284.378V78.7003H283.878H283.378V101.8H283.878ZM283.878 78.7003V79.2003H312.687V78.7003V78.2003H283.878V78.7003ZM312.687 78.7003H312.187V84.0793H312.687H313.187V78.7003H312.687ZM312.687 84.0793V83.5793H290.478V84.0793V84.5793H312.687V84.0793ZM290.478 84.0793H289.978V87.7093H290.478H290.978V84.0793H290.478ZM290.478 87.7093V88.2093H311.037V87.7093V87.2093H290.478V87.7093ZM311.037 87.7093H310.537V92.7913H311.037H311.537V87.7093H311.037ZM311.037 92.7913V92.2913H290.478V92.7913V93.2913H311.037V92.7913ZM290.478 92.7913H289.978V96.4213H290.478H290.978V92.7913H290.478ZM290.478 96.4213V96.9213H312.687V96.4213V95.9213H290.478V96.4213ZM312.687 96.4213H312.187V101.8H312.687H313.187V96.4213H312.687ZM312.687 101.8V101.3H283.878V101.8V102.3H312.687V101.8ZM348.046 79.8223H348.546V79.4539L348.194 79.3448L348.046 79.8223ZM348.046 85.1023L347.89 85.5773L348.546 85.793V85.1023H348.046ZM316.894 100.711H316.394V101.084L316.751 101.19L316.894 100.711ZM316.894 95.2003L317.048 94.7247L316.394 94.5125V95.2003H316.894ZM348.046 79.8223H347.546V85.1023H348.046H348.546V79.8223H348.046ZM348.046 85.1023L348.202 84.6273C345.734 83.8159 340.466 82.7213 332.866 82.7213V83.2213V83.7213C340.38 83.7213 345.54 84.8047 347.89 85.5773L348.046 85.1023ZM332.866 83.2213V82.7213C330.482 82.7213 327.822 82.954 325.743 83.479C324.708 83.7406 323.781 84.0832 323.101 84.5297C322.426 84.9736 321.905 85.5847 321.905 86.3893H322.405H322.905C322.905 86.0719 323.102 85.726 323.651 85.3655C324.195 85.0076 324.999 84.6985 325.988 84.4486C327.96 83.9506 330.531 83.7213 332.866 83.7213V83.2213ZM322.405 86.3893H321.905C321.905 86.7801 322.027 87.1248 322.274 87.4017C322.51 87.6672 322.831 87.8347 323.17 87.9454C323.836 88.1626 324.734 88.2093 325.705 88.2093V87.7093V87.2093C324.729 87.2093 323.977 87.157 323.48 86.9947C323.238 86.9156 323.098 86.8232 323.02 86.7361C322.952 86.6602 322.905 86.5595 322.905 86.3893H322.405ZM325.705 87.7093V88.2093H341.875V87.7093V87.2093H325.705V87.7093ZM341.875 87.7093V88.2093C344.729 88.2093 346.857 88.7465 348.258 89.7094C349.631 90.6533 350.351 92.0366 350.351 93.8803H350.851H351.351C351.351 91.731 350.487 90.0288 348.824 88.8854C347.189 87.7611 344.829 87.2093 341.875 87.2093V87.7093ZM350.851 93.8803H350.351C350.351 96.3025 348.929 98.301 345.915 99.7228C342.881 101.154 338.297 101.96 332.173 101.96V102.46V102.96C338.358 102.96 343.113 102.15 346.341 100.627C349.589 99.0956 351.351 96.8041 351.351 93.8803H350.851ZM332.173 102.46V101.96C326.132 101.96 319.848 101.072 317.037 100.232L316.894 100.711L316.751 101.19C319.682 102.066 326.07 102.96 332.173 102.96V102.46ZM316.894 100.711H317.394V95.2003H316.894H316.394V100.711H316.894ZM316.894 95.2003L316.74 95.6759C319.234 96.4848 323.147 97.5813 332.239 97.5813V97.0813V96.5813C323.247 96.5813 319.438 95.4998 317.048 94.7247L316.894 95.2003ZM332.239 97.0813V97.5813C336.92 97.5813 340.007 97.2437 341.94 96.6652C342.906 96.3759 343.625 96.0146 344.109 95.57C344.609 95.1113 344.85 94.5689 344.85 93.9793H344.35H343.85C343.85 94.2642 343.745 94.5468 343.433 94.8336C343.105 95.1346 342.547 95.4396 341.653 95.7072C339.865 96.2424 336.897 96.5813 332.239 96.5813V97.0813ZM344.35 93.9793H344.85C344.85 93.6688 344.764 93.377 344.573 93.1278C344.388 92.8853 344.13 92.7177 343.841 92.6004C343.28 92.372 342.496 92.2913 341.545 92.2913V92.7913V93.2913C342.475 93.2913 343.093 93.3756 343.464 93.5266C343.642 93.5991 343.733 93.675 343.779 93.7356C343.82 93.7895 343.85 93.8608 343.85 93.9793H344.35ZM341.545 92.7913V92.2913H324.286V92.7913V93.2913H341.545V92.7913ZM324.286 92.7913V92.2913C321.314 92.2913 319.341 91.636 318.119 90.6313C316.912 89.639 316.371 88.251 316.371 86.6203H315.871H315.371C315.371 88.4876 316.002 90.1851 317.484 91.4038C318.951 92.6101 321.186 93.2913 324.286 93.2913V92.7913ZM315.871 86.6203H316.371C316.371 84.107 317.689 82.116 320.46 80.7227C323.262 79.314 327.518 78.5403 333.262 78.5403V78.0403V77.5403C327.456 77.5403 323.017 78.3176 320.011 79.8293C316.973 81.3566 315.371 83.6556 315.371 86.6203H315.871ZM333.262 78.0403V78.5403C339.004 78.5403 345.089 79.428 347.898 80.2998L348.046 79.8223L348.194 79.3448C345.261 78.4346 339.07 77.5403 333.262 77.5403V78.0403Z" fill="black"/>
<path d="M2.90747 26.6001V1.4001C7.83947 1.0761 12.7355 0.824097 17.3075 0.824097C29.5115 0.824097 39.1235 2.7321 39.1235 10.6161C39.1235 20.0121 25.4795 21.4161 10.1075 20.9121V26.6001H2.90747ZM10.1075 7.0521V14.8641C21.5915 15.2241 31.9235 14.7921 31.9235 10.6521C31.9235 7.5921 26.3435 6.8001 18.8915 6.8001C16.1555 6.8001 13.1675 6.9081 10.1075 7.0521ZM37.5342 26.6001L50.8542 1.4001H64.0662L77.3862 26.6001H69.5742L67.7742 23.1801H47.1462L45.3462 26.6001H37.5342ZM50.3142 17.1681H64.6062L59.4222 7.4121H55.4622L50.3142 17.1681ZM80.4198 26.6001V1.4001C85.3518 1.0761 90.2478 0.824097 94.8198 0.824097C107.024 0.824097 116.636 2.7321 116.636 10.6161C116.636 20.0121 102.992 21.4161 87.6198 20.9121V26.6001H80.4198ZM87.6198 7.0521V14.8641C99.1038 15.2241 109.436 14.7921 109.436 10.6521C109.436 7.5921 103.856 6.8001 96.4038 6.8001C93.6678 6.8001 90.6798 6.9081 87.6198 7.0521ZM139.612 27.5001C125.68 27.5001 119.704 23.4321 119.704 14.0001C119.704 4.5681 125.68 0.500097 139.612 0.500097C153.544 0.500097 159.52 4.5681 159.52 14.0001C159.52 23.4321 153.544 27.5001 139.612 27.5001ZM126.904 14.0001C126.904 19.4001 130.468 21.4881 139.612 21.4881C148.756 21.4881 152.32 19.4001 152.32 14.0001C152.32 8.6001 148.756 6.5121 139.612 6.5121C130.468 6.5121 126.904 8.6001 126.904 14.0001ZM163.241 26.6001V1.4001H175.877L190.277 20.5881H191.897V1.4001H199.097V26.6001H186.641L172.205 7.4121H170.441V26.6001H163.241Z" fill="#F50000"/>
<path d="M2.90747 26.6001H2.40747V27.1001H2.90747V26.6001ZM2.90747 1.4001L2.87469 0.901171L2.40747 0.931865V1.4001H2.90747ZM10.1075 20.9121L10.1239 20.4124L9.60747 20.3954V20.9121H10.1075ZM10.1075 26.6001V27.1001H10.6075V26.6001H10.1075ZM10.1075 7.0521L10.084 6.55265L9.60747 6.57507V7.0521H10.1075ZM10.1075 14.8641H9.60747V15.3487L10.0918 15.3639L10.1075 14.8641ZM2.90747 26.6001H3.40747V1.4001H2.90747H2.40747V26.6001H2.90747ZM2.90747 1.4001L2.94024 1.89902C7.86908 1.57523 12.7521 1.3241 17.3075 1.3241V0.824097V0.324097C12.7188 0.324097 7.80986 0.576963 2.87469 0.901171L2.90747 1.4001ZM17.3075 0.824097V1.3241C23.4003 1.3241 28.7779 1.80278 32.6175 3.23218C34.5319 3.94488 36.0309 4.88213 37.0496 6.08341C38.0601 7.27518 38.6235 8.75618 38.6235 10.6161H39.1235H39.6235C39.6235 8.53401 38.9853 6.82002 37.8123 5.43666C36.6473 4.06281 34.9805 3.04482 32.9664 2.29501C28.949 0.799416 23.4186 0.324097 17.3075 0.324097V0.824097ZM39.1235 10.6161H38.6235C38.6235 12.8273 37.8275 14.5461 36.4068 15.8974C34.9707 17.2633 32.8727 18.2745 30.2477 18.9944C24.9938 20.4354 17.8055 20.6642 10.1239 20.4124L10.1075 20.9121L10.0911 21.4118C17.7814 21.664 25.1012 21.4428 30.5122 19.9588C33.2198 19.2162 35.4935 18.1461 37.096 16.622C38.7139 15.0831 39.6235 13.1029 39.6235 10.6161H39.1235ZM10.1075 20.9121H9.60747V26.6001H10.1075H10.6075V20.9121H10.1075ZM10.1075 26.6001V26.1001H2.90747V26.6001V27.1001H10.1075V26.6001ZM10.1075 7.0521H9.60747V14.8641H10.1075H10.6075V7.0521H10.1075ZM10.1075 14.8641L10.0918 15.3639C15.8349 15.5439 21.3276 15.5278 25.3935 14.9405C27.4215 14.6475 29.1408 14.2065 30.3664 13.5478C31.5995 12.885 32.4235 11.9447 32.4235 10.6521H31.9235H31.4235C31.4235 11.4295 30.9559 12.0957 29.8929 12.667C28.8223 13.2424 27.2409 13.6632 25.2505 13.9507C21.2794 14.5244 15.864 14.5443 10.1231 14.3643L10.1075 14.8641ZM31.9235 10.6521H32.4235C32.4235 9.70763 31.9822 8.94848 31.2448 8.36674C30.5251 7.79895 29.5163 7.39122 28.323 7.09347C25.9331 6.49715 22.6228 6.3001 18.8915 6.3001V6.8001V7.3001C22.6122 7.3001 25.8178 7.49905 28.0809 8.06372C29.2141 8.34648 30.066 8.71049 30.6255 9.15183C31.1672 9.57922 31.4235 10.0666 31.4235 10.6521H31.9235ZM18.8915 6.8001V6.3001C16.1436 6.3001 13.1464 6.40853 10.084 6.55265L10.1075 7.0521L10.131 7.55154C13.1886 7.40766 16.1673 7.3001 18.8915 7.3001V6.8001ZM37.5342 26.6001L37.0921 26.3664L36.7043 27.1001H37.5342V26.6001ZM50.8542 1.4001V0.900096H50.5529L50.4121 1.16644L50.8542 1.4001ZM64.0662 1.4001L64.5082 1.16644L64.3675 0.900096H64.0662V1.4001ZM77.3862 26.6001V27.1001H78.216L77.8282 26.3664L77.3862 26.6001ZM69.5742 26.6001L69.1317 26.833L69.2723 27.1001H69.5742V26.6001ZM67.7742 23.1801L68.2166 22.9472L68.0761 22.6801H67.7742V23.1801ZM47.1462 23.1801V22.6801H46.8443L46.7037 22.9472L47.1462 23.1801ZM45.3462 26.6001V27.1001H45.6481L45.7886 26.833L45.3462 26.6001ZM50.3142 17.1681L49.872 16.9348L49.485 17.6681H50.3142V17.1681ZM64.6062 17.1681V17.6681H65.4381L65.0477 16.9335L64.6062 17.1681ZM59.4222 7.4121L59.8637 7.17748L59.7227 6.9121H59.4222V7.4121ZM55.4622 7.4121V6.9121H55.1607L55.02 7.17875L55.4622 7.4121ZM37.5342 26.6001L37.9762 26.8338L51.2962 1.63375L50.8542 1.4001L50.4121 1.16644L37.0921 26.3664L37.5342 26.6001ZM50.8542 1.4001V1.9001H64.0662V1.4001V0.900096H50.8542V1.4001ZM64.0662 1.4001L63.6241 1.63375L76.9441 26.8338L77.3862 26.6001L77.8282 26.3664L64.5082 1.16644L64.0662 1.4001ZM77.3862 26.6001V26.1001H69.5742V26.6001V27.1001H77.3862V26.6001ZM69.5742 26.6001L70.0166 26.3672L68.2166 22.9472L67.7742 23.1801L67.3317 23.413L69.1317 26.833L69.5742 26.6001ZM67.7742 23.1801V22.6801H47.1462V23.1801V23.6801H67.7742V23.1801ZM47.1462 23.1801L46.7037 22.9472L44.9037 26.3672L45.3462 26.6001L45.7886 26.833L47.5886 23.413L47.1462 23.1801ZM45.3462 26.6001V26.1001H37.5342V26.6001V27.1001H45.3462V26.6001ZM50.3142 17.1681V17.6681H64.6062V17.1681V16.6681H50.3142V17.1681ZM64.6062 17.1681L65.0477 16.9335L59.8637 7.17748L59.4222 7.4121L58.9807 7.64671L64.1646 17.4027L64.6062 17.1681ZM59.4222 7.4121V6.9121H55.4622V7.4121V7.9121H59.4222V7.4121ZM55.4622 7.4121L55.02 7.17875L49.872 16.9348L50.3142 17.1681L50.7564 17.4014L55.9044 7.64544L55.4622 7.4121ZM80.4198 26.6001H79.9198V27.1001H80.4198V26.6001ZM80.4198 1.4001L80.387 0.901171L79.9198 0.931865V1.4001H80.4198ZM87.6198 20.9121L87.6362 20.4124L87.1198 20.3954V20.9121H87.6198ZM87.6198 26.6001V27.1001H88.1198V26.6001H87.6198ZM87.6198 7.0521L87.5963 6.55265L87.1198 6.57507V7.0521H87.6198ZM87.6198 14.8641H87.1198V15.3487L87.6041 15.3639L87.6198 14.8641ZM80.4198 26.6001H80.9198V1.4001H80.4198H79.9198V26.6001H80.4198ZM80.4198 1.4001L80.4526 1.89902C85.3814 1.57523 90.2644 1.3241 94.8198 1.3241V0.824097V0.324097C90.2312 0.324097 85.3222 0.576963 80.387 0.901171L80.4198 1.4001ZM94.8198 0.824097V1.3241C100.913 1.3241 106.29 1.80278 110.13 3.23218C112.044 3.94488 113.543 4.88213 114.562 6.08341C115.572 7.27518 116.136 8.75618 116.136 10.6161H116.636H117.136C117.136 8.53401 116.498 6.82002 115.325 5.43666C114.16 4.06281 112.493 3.04482 110.479 2.29501C106.461 0.799416 100.931 0.324097 94.8198 0.324097V0.824097ZM116.636 10.6161H116.136C116.136 12.8273 115.34 14.5461 113.919 15.8974C112.483 17.2633 110.385 18.2745 107.76 18.9944C102.506 20.4354 95.3179 20.6642 87.6362 20.4124L87.6198 20.9121L87.6034 21.4118C95.2938 21.664 102.614 21.4428 108.025 19.9588C110.732 19.2162 113.006 18.1461 114.608 16.622C116.226 15.0831 117.136 13.1029 117.136 10.6161H116.636ZM87.6198 20.9121H87.1198V26.6001H87.6198H88.1198V20.9121H87.6198ZM87.6198 26.6001V26.1001H80.4198V26.6001V27.1001H87.6198V26.6001ZM87.6198 7.0521H87.1198V14.8641H87.6198H88.1198V7.0521H87.6198ZM87.6198 14.8641L87.6041 15.3639C93.3473 15.5439 98.8399 15.5278 102.906 14.9405C104.934 14.6475 106.653 14.2065 107.879 13.5478C109.112 12.885 109.936 11.9447 109.936 10.6521H109.436H108.936C108.936 11.4295 108.468 12.0957 107.405 12.667C106.335 13.2424 104.753 13.6632 102.763 13.9507C98.7917 14.5244 93.3764 14.5443 87.6355 14.3643L87.6198 14.8641ZM109.436 10.6521H109.936C109.936 9.70763 109.495 8.94848 108.757 8.36674C108.037 7.79895 107.029 7.39122 105.835 7.09347C103.445 6.49715 100.135 6.3001 96.4038 6.3001V6.8001V7.3001C100.125 7.3001 103.33 7.49905 105.593 8.06372C106.726 8.34648 107.578 8.71049 108.138 9.15183C108.68 9.57922 108.936 10.0666 108.936 10.6521H109.436ZM96.4038 6.8001V6.3001C93.656 6.3001 90.6587 6.40853 87.5963 6.55265L87.6198 7.0521L87.6433 7.55154C90.7009 7.40766 93.6796 7.3001 96.4038 7.3001V6.8001ZM139.612 27.5001V27.0001C132.673 27.0001 127.822 25.9828 124.714 23.8734C121.651 21.7943 120.204 18.598 120.204 14.0001H119.704H119.204C119.204 18.8342 120.745 22.3879 124.153 24.7008C127.516 26.9834 132.619 28.0001 139.612 28.0001V27.5001ZM119.704 14.0001H120.204C120.204 9.40217 121.651 6.20585 124.714 4.12681C127.822 2.01743 132.673 1.0001 139.612 1.0001V0.500097V9.67979e-05C132.619 9.67979e-05 127.516 1.01676 124.153 3.29939C120.745 5.61234 119.204 9.16603 119.204 14.0001H119.704ZM139.612 0.500097V1.0001C146.551 1.0001 151.402 2.01743 154.51 4.12681C157.573 6.20585 159.02 9.40217 159.02 14.0001H159.52H160.02C160.02 9.16603 158.479 5.61234 155.071 3.29939C151.708 1.01676 146.605 9.67979e-05 139.612 9.67979e-05V0.500097ZM159.52 14.0001H159.02C159.02 18.598 157.573 21.7943 154.51 23.8734C151.402 25.9828 146.551 27.0001 139.612 27.0001V27.5001V28.0001C146.605 28.0001 151.708 26.9834 155.071 24.7008C158.479 22.3879 160.02 18.8342 160.02 14.0001H159.52ZM126.904 14.0001H126.404C126.404 15.4032 126.635 16.6282 127.156 17.6716C127.68 18.7209 128.483 19.557 129.575 20.2C131.733 21.4696 135.028 21.9881 139.612 21.9881V21.4881V20.9881C135.052 20.9881 131.993 20.4626 130.083 19.3382C129.141 18.7841 128.481 18.0858 128.051 17.2248C127.618 16.358 127.404 15.297 127.404 14.0001H126.904ZM139.612 21.4881V21.9881C144.196 21.9881 147.491 21.4696 149.649 20.2C150.741 19.557 151.544 18.7209 152.068 17.6716C152.589 16.6282 152.82 15.4032 152.82 14.0001H152.32H151.82C151.82 15.297 151.606 16.358 151.173 17.2248C150.743 18.0858 150.083 18.7841 149.141 19.3382C147.231 20.4626 144.172 20.9881 139.612 20.9881V21.4881ZM152.32 14.0001H152.82C152.82 12.597 152.589 11.372 152.068 10.3286C151.544 9.27934 150.741 8.44315 149.649 7.80018C147.491 6.53057 144.196 6.0121 139.612 6.0121V6.5121V7.0121C144.172 7.0121 147.231 7.53763 149.141 8.66201C150.083 9.21605 150.743 9.91435 151.173 10.7754C151.606 11.6422 151.82 12.7032 151.82 14.0001H152.32ZM139.612 6.5121V6.0121C135.028 6.0121 131.733 6.53057 129.575 7.80018C128.483 8.44315 127.68 9.27934 127.156 10.3286C126.635 11.372 126.404 12.597 126.404 14.0001H126.904H127.404C127.404 12.7032 127.618 11.6422 128.051 10.7754C128.481 9.91435 129.141 9.21605 130.083 8.66201C131.993 7.53763 135.052 7.0121 139.612 7.0121V6.5121ZM163.241 26.6001H162.741V27.1001H163.241V26.6001ZM163.241 1.4001V0.900096H162.741V1.4001H163.241ZM175.877 1.4001L176.277 1.09998L176.127 0.900096H175.877V1.4001ZM190.277 20.5881L189.877 20.8882L190.027 21.0881H190.277V20.5881ZM191.897 20.5881V21.0881H192.397V20.5881H191.897ZM191.897 1.4001V0.900096H191.397V1.4001H191.897ZM199.097 1.4001H199.597V0.900096H199.097V1.4001ZM199.097 26.6001V27.1001H199.597V26.6001H199.097ZM186.641 26.6001L186.241 26.9007L186.391 27.1001H186.641V26.6001ZM172.205 7.4121L172.604 7.1115L172.454 6.9121H172.205V7.4121ZM170.441 7.4121V6.9121H169.941V7.4121H170.441ZM170.441 26.6001V27.1001H170.941V26.6001H170.441ZM163.241 26.6001H163.741V1.4001H163.241H162.741V26.6001H163.241ZM163.241 1.4001V1.9001H175.877V1.4001V0.900096H163.241V1.4001ZM175.877 1.4001L175.477 1.70022L189.877 20.8882L190.277 20.5881L190.677 20.288L176.277 1.09998L175.877 1.4001ZM190.277 20.5881V21.0881H191.897V20.5881V20.0881H190.277V20.5881ZM191.897 20.5881H192.397V1.4001H191.897H191.397V20.5881H191.897ZM191.897 1.4001V1.9001H199.097V1.4001V0.900096H191.897V1.4001ZM199.097 1.4001H198.597V26.6001H199.097H199.597V1.4001H199.097ZM199.097 26.6001V26.1001H186.641V26.6001V27.1001H199.097V26.6001ZM186.641 26.6001L187.04 26.2995L172.604 7.1115L172.205 7.4121L171.805 7.7127L186.241 26.9007L186.641 26.6001ZM172.205 7.4121V6.9121H170.441V7.4121V7.9121H172.205V7.4121ZM170.441 7.4121H169.941V26.6001H170.441H170.941V7.4121H170.441ZM170.441 26.6001V26.1001H163.241V26.6001V27.1001H170.441V26.6001Z" fill="black"/>
<mask id="path-5-outside-1_6798_1795" maskUnits="userSpaceOnUse" x="154.5" y="23.6001" width="42" height="24" fill="black">
<rect fill="white" x="154.5" y="23.6001" width="42" height="24"/>
<path d="M182.142 46.6001L175.902 40.5841L169.662 46.6001H157.822L169.086 35.7201L157.822 24.8401H169.662L175.87 30.8561L182.142 24.8401H193.982L182.686 35.7201L193.982 46.6001H182.142Z"/>
</mask>
<path d="M182.142 46.6001L175.902 40.5841L169.662 46.6001H157.822L169.086 35.7201L157.822 24.8401H169.662L175.87 30.8561L182.142 24.8401H193.982L182.686 35.7201L193.982 46.6001H182.142Z" fill="white"/>
<path d="M182.142 46.6001L181.448 47.32L181.738 47.6001H182.142V46.6001ZM175.902 40.5841L176.596 39.8642L175.902 39.195L175.208 39.8642L175.902 40.5841ZM169.662 46.6001V47.6001H170.065L170.356 47.32L169.662 46.6001ZM157.822 46.6001L157.127 45.8808L155.347 47.6001H157.822V46.6001ZM169.086 35.7201L169.781 36.4394L170.525 35.7201L169.781 35.0008L169.086 35.7201ZM157.822 24.8401V23.8401H155.347L157.127 25.5594L157.822 24.8401ZM169.662 24.8401L170.358 24.122L170.067 23.8401H169.662V24.8401ZM175.87 30.8561L175.174 31.5742L175.866 32.2452L176.562 31.5778L175.87 30.8561ZM182.142 24.8401V23.8401H181.74L181.45 24.1184L182.142 24.8401ZM193.982 24.8401L194.676 25.5603L196.462 23.8401H193.982V24.8401ZM182.686 35.7201L181.992 34.9999L181.244 35.7201L181.992 36.4403L182.686 35.7201ZM193.982 46.6001V47.6001H196.462L194.676 45.8799L193.982 46.6001ZM182.142 46.6001L182.836 45.8802L176.596 39.8642L175.902 40.5841L175.208 41.304L181.448 47.32L182.142 46.6001ZM175.902 40.5841L175.208 39.8642L168.968 45.8802L169.662 46.6001L170.356 47.32L176.596 41.304L175.902 40.5841ZM169.662 46.6001V45.6001H157.822V46.6001V47.6001H169.662V46.6001ZM157.822 46.6001L158.517 47.3194L169.781 36.4394L169.086 35.7201L168.391 35.0008L157.127 45.8808L157.822 46.6001ZM169.086 35.7201L169.781 35.0008L158.517 24.1208L157.822 24.8401L157.127 25.5594L168.391 36.4394L169.086 35.7201ZM157.822 24.8401V25.8401H169.662V24.8401V23.8401H157.822V24.8401ZM169.662 24.8401L168.966 25.5582L175.174 31.5742L175.87 30.8561L176.566 30.138L170.358 24.122L169.662 24.8401ZM175.87 30.8561L176.562 31.5778L182.834 25.5618L182.142 24.8401L181.45 24.1184L175.178 30.1344L175.87 30.8561ZM182.142 24.8401V25.8401H193.982V24.8401V23.8401H182.142V24.8401ZM193.982 24.8401L193.288 24.1199L181.992 34.9999L182.686 35.7201L183.38 36.4403L194.676 25.5603L193.982 24.8401ZM182.686 35.7201L181.992 36.4403L193.288 47.3203L193.982 46.6001L194.676 45.8799L183.38 34.9999L182.686 35.7201ZM193.982 46.6001V45.6001H182.142V46.6001V47.6001H193.982V46.6001Z" fill="black" mask="url(#path-5-outside-1_6798_1795)"/>
</svg>
