<svg width="353" height="97" viewBox="0 0 353 97" fill="none" xmlns="http://www.w3.org/2000/svg">
    <mask id="path-1-outside-1_6037_4787" maskUnits="userSpaceOnUse" x="1" y="-0.0800781" width="180" height="29" fill="black">
        <rect fill="white" x="1" y="-0.0800781" width="180" height="29"/>
        <path d="M2.46396 26.9199V1.71992C7.03596 1.32392 11.608 0.999921 15.892 0.999921C28.564 0.999921 38.68 3.69992 38.68 14.3199C38.68 24.9399 28.564 27.6399 15.892 27.6399C11.608 27.6399 7.03596 27.3159 2.46396 26.9199ZM9.66396 7.29992V21.3039C11.536 21.3759 13.408 21.4479 15.172 21.4479C24.244 21.4479 31.48 20.0799 31.48 14.3199C31.48 8.52392 24.424 7.15592 15.496 7.15592C13.624 7.15592 11.644 7.19192 9.66396 7.29992ZM42.3979 26.9199V1.71992H49.5979V26.9199H42.3979ZM52.6613 1.71992H60.4373L70.5893 20.9079H74.5493L84.7013 1.71992H92.4773L79.1573 26.9199H65.9813L52.6613 1.71992ZM95.5469 26.9199V1.71992H102.747V26.9199H95.5469ZM107.25 26.9199V1.71992H119.886L134.286 20.9079H135.906V1.71992H143.106V26.9199H130.65L116.214 7.73192H114.45V26.9199H107.25ZM147.606 26.9199V1.71992H179.034V7.58792H154.806V11.5479H177.234V17.0919H154.806V21.0519H179.034V26.9199H147.606Z"/>
    </mask>
    <path d="M2.46396 26.9199V1.71992C7.03596 1.32392 11.608 0.999921 15.892 0.999921C28.564 0.999921 38.68 3.69992 38.68 14.3199C38.68 24.9399 28.564 27.6399 15.892 27.6399C11.608 27.6399 7.03596 27.3159 2.46396 26.9199ZM9.66396 7.29992V21.3039C11.536 21.3759 13.408 21.4479 15.172 21.4479C24.244 21.4479 31.48 20.0799 31.48 14.3199C31.48 8.52392 24.424 7.15592 15.496 7.15592C13.624 7.15592 11.644 7.19192 9.66396 7.29992ZM42.3979 26.9199V1.71992H49.5979V26.9199H42.3979ZM52.6613 1.71992H60.4373L70.5893 20.9079H74.5493L84.7013 1.71992H92.4773L79.1573 26.9199H65.9813L52.6613 1.71992ZM95.5469 26.9199V1.71992H102.747V26.9199H95.5469ZM107.25 26.9199V1.71992H119.886L134.286 20.9079H135.906V1.71992H143.106V26.9199H130.65L116.214 7.73192H114.45V26.9199H107.25ZM147.606 26.9199V1.71992H179.034V7.58792H154.806V11.5479H177.234V17.0919H154.806V21.0519H179.034V26.9199H147.606Z" fill="#F50000"/>
    <path d="M2.46396 26.9199H1.46396V27.8371L2.37767 27.9162L2.46396 26.9199ZM2.46396 1.71992L2.37767 0.72365L1.46396 0.80279V1.71992H2.46396ZM9.66396 7.29992L9.60949 6.30141L8.66396 6.35298V7.29992H9.66396ZM9.66396 21.3039H8.66396V22.2662L9.62552 22.3032L9.66396 21.3039ZM2.46396 26.9199H3.46396V1.71992H2.46396H1.46396V26.9199H2.46396ZM2.46396 1.71992L2.55025 2.71619C7.11648 2.32069 11.6531 1.99992 15.892 1.99992V0.999921V-7.9155e-05C11.5628 -7.9155e-05 6.95543 0.327152 2.37767 0.72365L2.46396 1.71992ZM15.892 0.999921V1.99992C22.1941 1.99992 27.7001 2.67769 31.6002 4.57652C33.5326 5.51732 35.0385 6.74261 36.0653 8.30708C37.0894 9.86736 37.68 11.8301 37.68 14.3199H38.68H39.68C39.68 11.4998 39.006 9.14248 37.7373 7.20964C36.4714 5.28098 34.6564 3.84002 32.4757 2.77832C28.1498 0.672152 22.2618 -7.9155e-05 15.892 -7.9155e-05V0.999921ZM38.68 14.3199H37.68C37.68 16.8098 37.0894 18.7725 36.0653 20.3328C35.0385 21.8972 33.5326 23.1225 31.6002 24.0633C27.7001 25.9622 22.1941 26.6399 15.892 26.6399V27.6399V28.6399C22.2618 28.6399 28.1498 27.9677 32.4757 25.8615C34.6564 24.7998 36.4714 23.3589 37.7373 21.4302C39.006 19.4974 39.68 17.1401 39.68 14.3199H38.68ZM15.892 27.6399V26.6399C11.6531 26.6399 7.11648 26.3192 2.55025 25.9237L2.46396 26.9199L2.37767 27.9162C6.95543 28.3127 11.5628 28.6399 15.892 28.6399V27.6399ZM9.66396 7.29992H8.66396V21.3039H9.66396H10.664V7.29992H9.66396ZM9.66396 21.3039L9.62552 22.3032C11.4935 22.375 13.3853 22.4479 15.172 22.4479V21.4479V20.4479C13.4307 20.4479 11.5785 20.3768 9.70239 20.3047L9.66396 21.3039ZM15.172 21.4479V22.4479C19.7251 22.4479 23.9507 22.1092 27.0674 20.9846C28.6354 20.4187 29.9916 19.6302 30.9605 18.5218C31.9474 17.3927 32.48 15.9903 32.48 14.3199H31.48H30.48C30.48 15.5295 30.108 16.4581 29.4547 17.2056C28.7833 17.9737 27.7635 18.6071 26.3885 19.1033C23.6192 20.1026 19.6908 20.4479 15.172 20.4479V21.4479ZM31.48 14.3199H32.48C32.48 12.6491 31.9643 11.2435 31.0002 10.1081C30.0524 8.99182 28.7229 8.19683 27.1832 7.62665C24.1256 6.49438 19.977 6.15592 15.496 6.15592V7.15592V8.15592C19.9429 8.15592 23.7863 8.50146 26.4887 9.50219C27.829 9.99851 28.8216 10.6323 29.4757 11.4026C30.1136 12.1539 30.48 13.0928 30.48 14.3199H31.48ZM15.496 7.15592V6.15592C13.6118 6.15592 11.6128 6.19213 9.60949 6.30141L9.66396 7.29992L9.71842 8.29844C11.6751 8.19171 13.6361 8.15592 15.496 8.15592V7.15592ZM42.3979 26.9199H41.3979V27.9199H42.3979V26.9199ZM42.3979 1.71992V0.71992H41.3979V1.71992H42.3979ZM49.5979 1.71992H50.5979V0.71992H49.5979V1.71992ZM49.5979 26.9199V27.9199H50.5979V26.9199H49.5979ZM42.3979 26.9199H43.3979V1.71992H42.3979H41.3979V26.9199H42.3979ZM42.3979 1.71992V2.71992H49.5979V1.71992V0.71992H42.3979V1.71992ZM49.5979 1.71992H48.5979V26.9199H49.5979H50.5979V1.71992H49.5979ZM49.5979 26.9199V25.9199H42.3979V26.9199V27.9199H49.5979V26.9199ZM52.6613 1.71992V0.71992H51.0016L51.7772 2.18723L52.6613 1.71992ZM60.4373 1.71992L61.3212 1.25226L61.0396 0.71992H60.4373V1.71992ZM70.5893 20.9079L69.7054 21.3756L69.987 21.9079H70.5893V20.9079ZM74.5493 20.9079V21.9079H75.1516L75.4332 21.3756L74.5493 20.9079ZM84.7013 1.71992V0.71992H84.099L83.8174 1.25226L84.7013 1.71992ZM92.4773 1.71992L93.3614 2.18723L94.137 0.71992H92.4773V1.71992ZM79.1573 26.9199V27.9199H79.7598L80.0414 27.3872L79.1573 26.9199ZM65.9813 26.9199L65.0972 27.3872L65.3788 27.9199H65.9813V26.9199ZM52.6613 1.71992V2.71992H60.4373V1.71992V0.71992H52.6613V1.71992ZM60.4373 1.71992L59.5534 2.18758L69.7054 21.3756L70.5893 20.9079L71.4732 20.4403L61.3212 1.25226L60.4373 1.71992ZM70.5893 20.9079V21.9079H74.5493V20.9079V19.9079H70.5893V20.9079ZM74.5493 20.9079L75.4332 21.3756L85.5852 2.18758L84.7013 1.71992L83.8174 1.25226L73.6654 20.4403L74.5493 20.9079ZM84.7013 1.71992V2.71992H92.4773V1.71992V0.71992H84.7013V1.71992ZM92.4773 1.71992L91.5932 1.25261L78.2732 26.4526L79.1573 26.9199L80.0414 27.3872L93.3614 2.18723L92.4773 1.71992ZM79.1573 26.9199V25.9199H65.9813V26.9199V27.9199H79.1573V26.9199ZM65.9813 26.9199L66.8654 26.4526L53.5454 1.25261L52.6613 1.71992L51.7772 2.18723L65.0972 27.3872L65.9813 26.9199ZM95.5469 26.9199H94.5469V27.9199H95.5469V26.9199ZM95.5469 1.71992V0.71992H94.5469V1.71992H95.5469ZM102.747 1.71992H103.747V0.71992H102.747V1.71992ZM102.747 26.9199V27.9199H103.747V26.9199H102.747ZM95.5469 26.9199H96.5469V1.71992H95.5469H94.5469V26.9199H95.5469ZM95.5469 1.71992V2.71992H102.747V1.71992V0.71992H95.5469V1.71992ZM102.747 1.71992H101.747V26.9199H102.747H103.747V1.71992H102.747ZM102.747 26.9199V25.9199H95.5469V26.9199V27.9199H102.747V26.9199ZM107.25 26.9199H106.25V27.9199H107.25V26.9199ZM107.25 1.71992V0.71992H106.25V1.71992H107.25ZM119.886 1.71992L120.686 1.11968L120.386 0.71992H119.886V1.71992ZM134.286 20.9079L133.487 21.5082L133.787 21.9079H134.286V20.9079ZM135.906 20.9079V21.9079H136.906V20.9079H135.906ZM135.906 1.71992V0.71992H134.906V1.71992H135.906ZM143.106 1.71992H144.106V0.71992H143.106V1.71992ZM143.106 26.9199V27.9199H144.106V26.9199H143.106ZM130.65 26.9199L129.851 27.5211L130.151 27.9199H130.65V26.9199ZM116.214 7.73192L117.013 7.13072L116.713 6.73192H116.214V7.73192ZM114.45 7.73192V6.73192H113.45V7.73192H114.45ZM114.45 26.9199V27.9199H115.45V26.9199H114.45ZM107.25 26.9199H108.25V1.71992H107.25H106.25V26.9199H107.25ZM107.25 1.71992V2.71992H119.886V1.71992V0.71992H107.25V1.71992ZM119.886 1.71992L119.087 2.32016L133.487 21.5082L134.286 20.9079L135.086 20.3077L120.686 1.11968L119.886 1.71992ZM134.286 20.9079V21.9079H135.906V20.9079V19.9079H134.286V20.9079ZM135.906 20.9079H136.906V1.71992H135.906H134.906V20.9079H135.906ZM135.906 1.71992V2.71992H143.106V1.71992V0.71992H135.906V1.71992ZM143.106 1.71992H142.106V26.9199H143.106H144.106V1.71992H143.106ZM143.106 26.9199V25.9199H130.65V26.9199V27.9199H143.106V26.9199ZM130.65 26.9199L131.449 26.3187L117.013 7.13072L116.214 7.73192L115.415 8.33312L129.851 27.5211L130.65 26.9199ZM116.214 7.73192V6.73192H114.45V7.73192V8.73192H116.214V7.73192ZM114.45 7.73192H113.45V26.9199H114.45H115.45V7.73192H114.45ZM114.45 26.9199V25.9199H107.25V26.9199V27.9199H114.45V26.9199ZM147.606 26.9199H146.606V27.9199H147.606V26.9199ZM147.606 1.71992V0.71992H146.606V1.71992H147.606ZM179.034 1.71992H180.034V0.71992H179.034V1.71992ZM179.034 7.58792V8.58792H180.034V7.58792H179.034ZM154.806 7.58792V6.58792H153.806V7.58792H154.806ZM154.806 11.5479H153.806V12.5479H154.806V11.5479ZM177.234 11.5479H178.234V10.5479H177.234V11.5479ZM177.234 17.0919V18.0919H178.234V17.0919H177.234ZM154.806 17.0919V16.0919H153.806V17.0919H154.806ZM154.806 21.0519H153.806V22.0519H154.806V21.0519ZM179.034 21.0519H180.034V20.0519H179.034V21.0519ZM179.034 26.9199V27.9199H180.034V26.9199H179.034ZM147.606 26.9199H148.606V1.71992H147.606H146.606V26.9199H147.606ZM147.606 1.71992V2.71992H179.034V1.71992V0.71992H147.606V1.71992ZM179.034 1.71992H178.034V7.58792H179.034H180.034V1.71992H179.034ZM179.034 7.58792V6.58792H154.806V7.58792V8.58792H179.034V7.58792ZM154.806 7.58792H153.806V11.5479H154.806H155.806V7.58792H154.806ZM154.806 11.5479V12.5479H177.234V11.5479V10.5479H154.806V11.5479ZM177.234 11.5479H176.234V17.0919H177.234H178.234V11.5479H177.234ZM177.234 17.0919V16.0919H154.806V17.0919V18.0919H177.234V17.0919ZM154.806 17.0919H153.806V21.0519H154.806H155.806V17.0919H154.806ZM154.806 21.0519V22.0519H179.034V21.0519V20.0519H154.806V21.0519ZM179.034 21.0519H178.034V26.9199H179.034H180.034V21.0519H179.034ZM179.034 26.9199V25.9199H147.606V26.9199V27.9199H179.034V26.9199Z" fill="black" mask="url(#path-1-outside-1_6037_4787)"/>
    <mask id="path-3-outside-2_6037_4787" maskUnits="userSpaceOnUse" x="186" y="40.9199" width="166" height="25" fill="black">
        <rect fill="white" x="186" y="40.9199" width="166" height="25"/>
        <path d="M208.86 63.9199L200.76 56.8699C198.45 57.4399 195.93 57.7399 193.26 57.7699V63.9199H187.26V42.9199H193.26V52.7899C202.14 52.6399 208.02 49.1599 209.91 42.9199H215.91C214.62 48.2299 211.29 52.2499 206.46 54.7699L216.96 63.9199H208.86ZM218.641 63.9199L229.741 42.9199H240.751L251.851 63.9199H245.341L243.841 61.0699H226.651L225.151 63.9199H218.641ZM229.291 56.0599H241.201L236.881 47.9299H233.581L229.291 56.0599ZM279.075 63.9199C278.385 61.0999 275.535 59.2699 266.985 59.2399C264.855 59.2699 262.605 59.2399 260.325 59.1799V63.9199H254.325V42.9199C258.405 42.6499 262.485 42.4399 266.265 42.4399C276.465 42.4399 284.505 44.0299 284.505 50.5999C284.505 53.9299 282.015 55.9399 278.265 56.8699V57.1699C282.885 58.3999 284.775 60.8599 285.315 63.9199H279.075ZM260.325 47.6299V54.1399C269.895 54.4399 278.505 54.0799 278.505 50.6299C278.505 48.0799 273.855 47.4199 267.645 47.4199C265.365 47.4199 262.875 47.5099 260.325 47.6299ZM317.385 42.9199V54.1399C317.385 62.5399 310.035 64.6699 302.685 64.6699C295.335 64.6699 287.985 62.5399 287.985 54.1399V42.9199H293.985V52.7599C293.985 58.0399 297.045 59.6599 302.685 59.6599C308.355 59.6599 311.385 58.0399 311.385 52.7599V42.9199H317.385ZM320.863 63.9199V42.9199H331.393L343.393 58.9099H344.743V42.9199H350.743V63.9199H340.363L328.333 47.9299H326.863V63.9199H320.863Z"/>
    </mask>
    <path d="M208.86 63.9199L200.76 56.8699C198.45 57.4399 195.93 57.7399 193.26 57.7699V63.9199H187.26V42.9199H193.26V52.7899C202.14 52.6399 208.02 49.1599 209.91 42.9199H215.91C214.62 48.2299 211.29 52.2499 206.46 54.7699L216.96 63.9199H208.86ZM218.641 63.9199L229.741 42.9199H240.751L251.851 63.9199H245.341L243.841 61.0699H226.651L225.151 63.9199H218.641ZM229.291 56.0599H241.201L236.881 47.9299H233.581L229.291 56.0599ZM279.075 63.9199C278.385 61.0999 275.535 59.2699 266.985 59.2399C264.855 59.2699 262.605 59.2399 260.325 59.1799V63.9199H254.325V42.9199C258.405 42.6499 262.485 42.4399 266.265 42.4399C276.465 42.4399 284.505 44.0299 284.505 50.5999C284.505 53.9299 282.015 55.9399 278.265 56.8699V57.1699C282.885 58.3999 284.775 60.8599 285.315 63.9199H279.075ZM260.325 47.6299V54.1399C269.895 54.4399 278.505 54.0799 278.505 50.6299C278.505 48.0799 273.855 47.4199 267.645 47.4199C265.365 47.4199 262.875 47.5099 260.325 47.6299ZM317.385 42.9199V54.1399C317.385 62.5399 310.035 64.6699 302.685 64.6699C295.335 64.6699 287.985 62.5399 287.985 54.1399V42.9199H293.985V52.7599C293.985 58.0399 297.045 59.6599 302.685 59.6599C308.355 59.6599 311.385 58.0399 311.385 52.7599V42.9199H317.385ZM320.863 63.9199V42.9199H331.393L343.393 58.9099H344.743V42.9199H350.743V63.9199H340.363L328.333 47.9299H326.863V63.9199H320.863Z" fill="#F50000"/>
    <path d="M208.86 63.9199L208.204 64.6742L208.486 64.9199H208.86V63.9199ZM200.76 56.8699L201.417 56.1156L201.025 55.7746L200.521 55.899L200.76 56.8699ZM193.26 57.7699L193.249 56.77L192.26 56.7811V57.7699H193.26ZM193.26 63.9199V64.9199H194.26V63.9199H193.26ZM187.26 63.9199H186.26V64.9199H187.26V63.9199ZM187.26 42.9199V41.9199H186.26V42.9199H187.26ZM193.26 42.9199H194.26V41.9199H193.26V42.9199ZM193.26 52.7899H192.26V53.807L193.277 53.7898L193.26 52.7899ZM209.91 42.9199V41.9199H209.168L208.953 42.63L209.91 42.9199ZM215.91 42.9199L216.882 43.156L217.182 41.9199H215.91V42.9199ZM206.46 54.7699L205.998 53.8833L204.699 54.5611L205.803 55.5238L206.46 54.7699ZM216.96 63.9199V64.9199H219.63L217.617 63.166L216.96 63.9199ZM208.86 63.9199L209.517 63.1656L201.417 56.1156L200.76 56.8699L200.104 57.6242L208.204 64.6742L208.86 63.9199ZM200.76 56.8699L200.521 55.899C198.295 56.4483 195.852 56.7407 193.249 56.77L193.26 57.7699L193.272 58.7699C196.008 58.7391 198.606 58.4315 201 57.8408L200.76 56.8699ZM193.26 57.7699H192.26V63.9199H193.26H194.26V57.7699H193.26ZM193.26 63.9199V62.9199H187.26V63.9199V64.9199H193.26V63.9199ZM187.26 63.9199H188.26V42.9199H187.26H186.26V63.9199H187.26ZM187.26 42.9199V43.9199H193.26V42.9199V41.9199H187.26V42.9199ZM193.26 42.9199H192.26V52.7899H193.26H194.26V42.9199H193.26ZM193.26 52.7899L193.277 53.7898C202.393 53.6358 208.802 50.0283 210.867 43.2098L209.91 42.9199L208.953 42.63C207.239 48.2915 201.887 51.6441 193.243 51.7901L193.26 52.7899ZM209.91 42.9199V43.9199H215.91V42.9199V41.9199H209.91V42.9199ZM215.91 42.9199L214.939 42.6838C213.721 47.6944 210.59 51.4871 205.998 53.8833L206.46 54.7699L206.923 55.6565C211.99 53.0127 215.519 48.7655 216.882 43.156L215.91 42.9199ZM206.46 54.7699L205.803 55.5238L216.303 64.6738L216.96 63.9199L217.617 63.166L207.117 54.016L206.46 54.7699ZM216.96 63.9199V62.9199H208.86V63.9199V64.9199H216.96V63.9199ZM218.641 63.9199L217.757 63.4526L216.981 64.9199H218.641V63.9199ZM229.741 42.9199V41.9199H229.138L228.857 42.4526L229.741 42.9199ZM240.751 42.9199L241.635 42.4526L241.353 41.9199H240.751V42.9199ZM251.851 63.9199V64.9199H253.51L252.735 63.4526L251.851 63.9199ZM245.341 63.9199L244.456 64.3857L244.737 64.9199H245.341V63.9199ZM243.841 61.0699L244.726 60.6042L244.444 60.0699H243.841V61.0699ZM226.651 61.0699V60.0699H226.047L225.766 60.6042L226.651 61.0699ZM225.151 63.9199V64.9199H225.754L226.036 64.3857L225.151 63.9199ZM229.291 56.0599L228.406 55.5932L227.632 57.0599H229.291V56.0599ZM241.201 56.0599V57.0599H242.865L242.084 55.5907L241.201 56.0599ZM236.881 47.9299L237.764 47.4607L237.482 46.9299H236.881V47.9299ZM233.581 47.9299V46.9299H232.978L232.696 47.4632L233.581 47.9299ZM218.641 63.9199L219.525 64.3872L230.625 43.3872L229.741 42.9199L228.857 42.4526L217.757 63.4526L218.641 63.9199ZM229.741 42.9199V43.9199H240.751V42.9199V41.9199H229.741V42.9199ZM240.751 42.9199L239.867 43.3872L250.967 64.3872L251.851 63.9199L252.735 63.4526L241.635 42.4526L240.751 42.9199ZM251.851 63.9199V62.9199H245.341V63.9199V64.9199H251.851V63.9199ZM245.341 63.9199L246.226 63.4542L244.726 60.6042L243.841 61.0699L242.956 61.5357L244.456 64.3857L245.341 63.9199ZM243.841 61.0699V60.0699H226.651V61.0699V62.0699H243.841V61.0699ZM226.651 61.0699L225.766 60.6042L224.266 63.4542L225.151 63.9199L226.036 64.3857L227.536 61.5357L226.651 61.0699ZM225.151 63.9199V62.9199H218.641V63.9199V64.9199H225.151V63.9199ZM229.291 56.0599V57.0599H241.201V56.0599V55.0599H229.291V56.0599ZM241.201 56.0599L242.084 55.5907L237.764 47.4607L236.881 47.9299L235.998 48.3992L240.318 56.5292L241.201 56.0599ZM236.881 47.9299V46.9299H233.581V47.9299V48.9299H236.881V47.9299ZM233.581 47.9299L232.696 47.4632L228.406 55.5932L229.291 56.0599L230.175 56.5266L234.465 48.3966L233.581 47.9299ZM279.075 63.9199L278.104 64.1576L278.291 64.9199H279.075V63.9199ZM266.985 59.2399L266.989 58.2399L266.98 58.2399L266.971 58.24L266.985 59.2399ZM260.325 59.1799L260.352 58.1803L259.325 58.1533V59.1799H260.325ZM260.325 63.9199V64.9199H261.325V63.9199H260.325ZM254.325 63.9199H253.325V64.9199H254.325V63.9199ZM254.325 42.9199L254.259 41.9221L253.325 41.9839V42.9199H254.325ZM278.265 56.8699L278.025 55.8993L277.265 56.0876V56.8699H278.265ZM278.265 57.1699H277.265V57.9385L278.008 58.1363L278.265 57.1699ZM285.315 63.9199V64.9199H286.507L286.3 63.7461L285.315 63.9199ZM260.325 47.6299L260.278 46.631L259.325 46.6759V47.6299H260.325ZM260.325 54.1399H259.325V55.1091L260.294 55.1394L260.325 54.1399ZM279.075 63.9199L280.047 63.6823C279.621 61.9418 278.504 60.5437 276.377 59.6169C274.321 58.7209 271.307 58.2551 266.989 58.2399L266.985 59.2399L266.982 60.2399C271.214 60.2548 273.9 60.7189 275.578 61.4504C277.187 62.1511 277.84 63.078 278.104 64.1576L279.075 63.9199ZM266.985 59.2399L266.971 58.24C264.86 58.2698 262.624 58.2401 260.352 58.1803L260.325 59.1799L260.299 60.1796C262.587 60.2398 264.851 60.2701 267 60.2398L266.985 59.2399ZM260.325 59.1799H259.325V63.9199H260.325H261.325V59.1799H260.325ZM260.325 63.9199V62.9199H254.325V63.9199V64.9199H260.325V63.9199ZM254.325 63.9199H255.325V42.9199H254.325H253.325V63.9199H254.325ZM254.325 42.9199L254.391 43.9177C258.465 43.6482 262.519 43.4399 266.265 43.4399V42.4399V41.4399C262.452 41.4399 258.346 41.6517 254.259 41.9221L254.325 42.9199ZM266.265 42.4399V43.4399C271.347 43.4399 275.755 43.8408 278.863 44.9937C280.406 45.5663 281.562 46.3006 282.328 47.2013C283.078 48.0828 283.505 49.1806 283.505 50.5999H284.505H285.505C285.505 48.7342 284.927 47.1695 283.851 45.9051C282.792 44.6599 281.3 43.7648 279.558 43.1186C276.096 41.8341 271.384 41.4399 266.265 41.4399V42.4399ZM284.505 50.5999H283.505C283.505 51.9841 283 53.0587 282.104 53.9094C281.181 54.7847 279.8 55.4589 278.025 55.8993L278.265 56.8699L278.506 57.8405C280.48 57.3509 282.22 56.5551 283.48 55.3605C284.765 54.1411 285.505 52.5457 285.505 50.5999H284.505ZM278.265 56.8699H277.265V57.1699H278.265H279.265V56.8699H278.265ZM278.265 57.1699L278.008 58.1363C280.193 58.7178 281.643 59.5663 282.603 60.5552C283.556 61.5375 284.089 62.7228 284.331 64.0937L285.315 63.9199L286.3 63.7461C286.002 62.057 285.319 60.4823 284.038 59.1622C282.763 57.8486 280.958 56.852 278.523 56.2036L278.265 57.1699ZM285.315 63.9199V62.9199H279.075V63.9199V64.9199H285.315V63.9199ZM260.325 47.6299H259.325V54.1399H260.325H261.325V47.6299H260.325ZM260.325 54.1399L260.294 55.1394C265.081 55.2895 269.704 55.2783 273.147 54.7809C274.859 54.5336 276.372 54.1543 277.484 53.5568C278.611 52.9512 279.505 52.0076 279.505 50.6299H278.505H277.505C277.505 50.9773 277.324 51.3724 276.537 51.7952C275.735 52.2261 274.498 52.565 272.861 52.8014C269.607 53.2715 265.14 53.2903 260.357 53.1404L260.325 54.1399ZM278.505 50.6299H279.505C279.505 49.6335 279.03 48.8423 278.301 48.2675C277.608 47.7206 276.676 47.3553 275.646 47.0984C273.581 46.583 270.761 46.4199 267.645 46.4199V47.4199V48.4199C270.74 48.4199 273.35 48.5868 275.162 49.0389C276.071 49.2658 276.69 49.5436 277.062 49.8377C277.4 50.1038 277.505 50.3514 277.505 50.6299H278.505ZM267.645 47.4199V46.4199C265.342 46.4199 262.833 46.5108 260.278 46.631L260.325 47.6299L260.372 48.6288C262.918 48.509 265.389 48.4199 267.645 48.4199V47.4199ZM317.385 42.9199H318.385V41.9199H317.385V42.9199ZM287.985 42.9199V41.9199H286.985V42.9199H287.985ZM293.985 42.9199H294.985V41.9199H293.985V42.9199ZM311.385 42.9199V41.9199H310.385V42.9199H311.385ZM317.385 42.9199H316.385V54.1399H317.385H318.385V42.9199H317.385ZM317.385 54.1399H316.385C316.385 57.9781 314.742 60.2817 312.293 61.6877C309.762 63.1411 306.296 63.6699 302.685 63.6699V64.6699V65.6699C306.424 65.6699 310.308 65.1338 313.289 63.4221C316.353 61.6632 318.385 58.7017 318.385 54.1399H317.385ZM302.685 64.6699V63.6699C299.074 63.6699 295.608 63.1411 293.077 61.6877C290.628 60.2817 288.985 57.9781 288.985 54.1399H287.985H286.985C286.985 58.7017 289.017 61.6632 292.081 63.4221C295.062 65.1338 298.946 65.6699 302.685 65.6699V64.6699ZM287.985 54.1399H288.985V42.9199H287.985H286.985V54.1399H287.985ZM287.985 42.9199V43.9199H293.985V42.9199V41.9199H287.985V42.9199ZM293.985 42.9199H292.985V52.7599H293.985H294.985V42.9199H293.985ZM293.985 52.7599H292.985C292.985 55.6003 293.82 57.6858 295.633 58.9997C297.369 60.2577 299.815 60.6599 302.685 60.6599V59.6599V58.6599C299.914 58.6599 298.01 58.2522 296.807 57.3801C295.68 56.5641 294.985 55.1996 294.985 52.7599H293.985ZM302.685 59.6599V60.6599C305.568 60.6599 308.015 60.2581 309.749 58.999C311.56 57.6837 312.385 55.5971 312.385 52.7599H311.385H310.385C310.385 55.2028 309.695 56.5661 308.573 57.3808C307.374 58.2518 305.471 58.6599 302.685 58.6599V59.6599ZM311.385 52.7599H312.385V42.9199H311.385H310.385V52.7599H311.385ZM311.385 42.9199V43.9199H317.385V42.9199V41.9199H311.385V42.9199ZM320.863 63.9199H319.863V64.9199H320.863V63.9199ZM320.863 42.9199V41.9199H319.863V42.9199H320.863ZM331.393 42.9199L332.193 42.3197L331.893 41.9199H331.393V42.9199ZM343.393 58.9099L342.593 59.5102L342.893 59.9099H343.393V58.9099ZM344.743 58.9099V59.9099H345.743V58.9099H344.743ZM344.743 42.9199V41.9199H343.743V42.9199H344.743ZM350.743 42.9199H351.743V41.9199H350.743V42.9199ZM350.743 63.9199V64.9199H351.743V63.9199H350.743ZM340.363 63.9199L339.564 64.5211L339.864 64.9199H340.363V63.9199ZM328.333 47.9299L329.132 47.3287L328.832 46.9299H328.333V47.9299ZM326.863 47.9299V46.9299H325.863V47.9299H326.863ZM326.863 63.9199V64.9199H327.863V63.9199H326.863ZM320.863 63.9199H321.863V42.9199H320.863H319.863V63.9199H320.863ZM320.863 42.9199V43.9199H331.393V42.9199V41.9199H320.863V42.9199ZM331.393 42.9199L330.593 43.5202L342.593 59.5102L343.393 58.9099L344.193 58.3097L332.193 42.3197L331.393 42.9199ZM343.393 58.9099V59.9099H344.743V58.9099V57.9099H343.393V58.9099ZM344.743 58.9099H345.743V42.9199H344.743H343.743V58.9099H344.743ZM344.743 42.9199V43.9199H350.743V42.9199V41.9199H344.743V42.9199ZM350.743 42.9199H349.743V63.9199H350.743H351.743V42.9199H350.743ZM350.743 63.9199V62.9199H340.363V63.9199V64.9199H350.743V63.9199ZM340.363 63.9199L341.162 63.3187L329.132 47.3287L328.333 47.9299L327.534 48.5311L339.564 64.5211L340.363 63.9199ZM328.333 47.9299V46.9299H326.863V47.9299V48.9299H328.333V47.9299ZM326.863 47.9299H325.863V63.9199H326.863H327.863V47.9299H326.863ZM326.863 63.9199V62.9199H320.863V63.9199V64.9199H326.863V63.9199Z" fill="black" mask="url(#path-3-outside-2_6037_4787)"/>
    <mask id="path-5-outside-3_6037_4787" maskUnits="userSpaceOnUse" x="186" y="72.9199" width="166" height="24" fill="black">
        <rect fill="white" x="186" y="72.9199" width="166" height="24"/>
        <path d="M187.48 94.9199V73.9199H198.01L210.01 89.9099H211.36V73.9199H217.36V94.9199H206.98L194.95 78.9299H193.48V94.9199H187.48ZM219.857 94.9199L230.957 73.9199H241.967L253.067 94.9199H246.557L245.057 92.0699H227.867L226.367 94.9199H219.857ZM230.507 87.0599H242.417L238.097 78.9299H234.797L230.507 87.0599ZM255.541 94.9199V73.9199H266.071L278.071 89.9099H279.421V73.9199H285.421V94.9199H275.041L263.011 78.9299H261.541V94.9199H255.541ZM310.718 94.9199L302.618 87.8699C300.308 88.4399 297.788 88.7399 295.118 88.7699V94.9199H289.118V73.9199H295.118V83.7899C303.998 83.6399 309.878 80.1599 311.768 73.9199H317.768C316.478 79.2299 313.148 83.2499 308.318 85.7699L318.818 94.9199H310.718ZM350.742 73.9199V85.1399C350.742 93.5399 343.392 95.6699 336.042 95.6699C328.692 95.6699 321.342 93.5399 321.342 85.1399V73.9199H327.342V83.7599C327.342 89.0399 330.402 90.6599 336.042 90.6599C341.712 90.6599 344.742 89.0399 344.742 83.7599V73.9199H350.742Z"/>
    </mask>
    <path d="M187.48 94.9199V73.9199H198.01L210.01 89.9099H211.36V73.9199H217.36V94.9199H206.98L194.95 78.9299H193.48V94.9199H187.48ZM219.857 94.9199L230.957 73.9199H241.967L253.067 94.9199H246.557L245.057 92.0699H227.867L226.367 94.9199H219.857ZM230.507 87.0599H242.417L238.097 78.9299H234.797L230.507 87.0599ZM255.541 94.9199V73.9199H266.071L278.071 89.9099H279.421V73.9199H285.421V94.9199H275.041L263.011 78.9299H261.541V94.9199H255.541ZM310.718 94.9199L302.618 87.8699C300.308 88.4399 297.788 88.7399 295.118 88.7699V94.9199H289.118V73.9199H295.118V83.7899C303.998 83.6399 309.878 80.1599 311.768 73.9199H317.768C316.478 79.2299 313.148 83.2499 308.318 85.7699L318.818 94.9199H310.718ZM350.742 73.9199V85.1399C350.742 93.5399 343.392 95.6699 336.042 95.6699C328.692 95.6699 321.342 93.5399 321.342 85.1399V73.9199H327.342V83.7599C327.342 89.0399 330.402 90.6599 336.042 90.6599C341.712 90.6599 344.742 89.0399 344.742 83.7599V73.9199H350.742Z" fill="#F50000"/>
    <path d="M187.48 94.9199H186.48V95.9199H187.48V94.9199ZM187.48 73.9199V72.9199H186.48V73.9199H187.48ZM198.01 73.9199L198.81 73.3197L198.51 72.9199H198.01V73.9199ZM210.01 89.9099L209.21 90.5102L209.51 90.9099H210.01V89.9099ZM211.36 89.9099V90.9099H212.36V89.9099H211.36ZM211.36 73.9199V72.9199H210.36V73.9199H211.36ZM217.36 73.9199H218.36V72.9199H217.36V73.9199ZM217.36 94.9199V95.9199H218.36V94.9199H217.36ZM206.98 94.9199L206.181 95.5211L206.481 95.9199H206.98V94.9199ZM194.95 78.9299L195.749 78.3287L195.449 77.9299H194.95V78.9299ZM193.48 78.9299V77.9299H192.48V78.9299H193.48ZM193.48 94.9199V95.9199H194.48V94.9199H193.48ZM187.48 94.9199H188.48V73.9199H187.48H186.48V94.9199H187.48ZM187.48 73.9199V74.9199H198.01V73.9199V72.9199H187.48V73.9199ZM198.01 73.9199L197.21 74.5202L209.21 90.5102L210.01 89.9099L210.81 89.3097L198.81 73.3197L198.01 73.9199ZM210.01 89.9099V90.9099H211.36V89.9099V88.9099H210.01V89.9099ZM211.36 89.9099H212.36V73.9199H211.36H210.36V89.9099H211.36ZM211.36 73.9199V74.9199H217.36V73.9199V72.9199H211.36V73.9199ZM217.36 73.9199H216.36V94.9199H217.36H218.36V73.9199H217.36ZM217.36 94.9199V93.9199H206.98V94.9199V95.9199H217.36V94.9199ZM206.98 94.9199L207.779 94.3187L195.749 78.3287L194.95 78.9299L194.151 79.5311L206.181 95.5211L206.98 94.9199ZM194.95 78.9299V77.9299H193.48V78.9299V79.9299H194.95V78.9299ZM193.48 78.9299H192.48V94.9199H193.48H194.48V78.9299H193.48ZM193.48 94.9199V93.9199H187.48V94.9199V95.9199H193.48V94.9199ZM219.857 94.9199L218.972 94.4526L218.197 95.9199H219.857V94.9199ZM230.957 73.9199V72.9199H230.354L230.072 73.4526L230.957 73.9199ZM241.967 73.9199L242.851 73.4526L242.569 72.9199H241.967V73.9199ZM253.067 94.9199V95.9199H254.726L253.951 94.4526L253.067 94.9199ZM246.557 94.9199L245.672 95.3857L245.953 95.9199H246.557V94.9199ZM245.057 92.0699L245.941 91.6042L245.66 91.0699H245.057V92.0699ZM227.867 92.0699V91.0699H227.263L226.982 91.6042L227.867 92.0699ZM226.367 94.9199V95.9199H226.97L227.251 95.3857L226.367 94.9199ZM230.507 87.0599L229.622 86.5932L228.848 88.0599H230.507V87.0599ZM242.417 87.0599V88.0599H244.08L243.3 86.5907L242.417 87.0599ZM238.097 78.9299L238.98 78.4607L238.698 77.9299H238.097V78.9299ZM234.797 78.9299V77.9299H234.194L233.912 78.4632L234.797 78.9299ZM219.857 94.9199L220.741 95.3872L231.841 74.3872L230.957 73.9199L230.072 73.4526L218.972 94.4526L219.857 94.9199ZM230.957 73.9199V74.9199H241.967V73.9199V72.9199H230.957V73.9199ZM241.967 73.9199L241.082 74.3872L252.182 95.3872L253.067 94.9199L253.951 94.4526L242.851 73.4526L241.967 73.9199ZM253.067 94.9199V93.9199H246.557V94.9199V95.9199H253.067V94.9199ZM246.557 94.9199L247.441 94.4542L245.941 91.6042L245.057 92.0699L244.172 92.5357L245.672 95.3857L246.557 94.9199ZM245.057 92.0699V91.0699H227.867V92.0699V93.0699H245.057V92.0699ZM227.867 92.0699L226.982 91.6042L225.482 94.4542L226.367 94.9199L227.251 95.3857L228.751 92.5357L227.867 92.0699ZM226.367 94.9199V93.9199H219.857V94.9199V95.9199H226.367V94.9199ZM230.507 87.0599V88.0599H242.417V87.0599V86.0599H230.507V87.0599ZM242.417 87.0599L243.3 86.5907L238.98 78.4607L238.097 78.9299L237.213 79.3992L241.533 87.5292L242.417 87.0599ZM238.097 78.9299V77.9299H234.797V78.9299V79.9299H238.097V78.9299ZM234.797 78.9299L233.912 78.4632L229.622 86.5932L230.507 87.0599L231.391 87.5266L235.681 79.3966L234.797 78.9299ZM255.541 94.9199H254.541V95.9199H255.541V94.9199ZM255.541 73.9199V72.9199H254.541V73.9199H255.541ZM266.071 73.9199L266.871 73.3197L266.571 72.9199H266.071V73.9199ZM278.071 89.9099L277.271 90.5102L277.571 90.9099H278.071V89.9099ZM279.421 89.9099V90.9099H280.421V89.9099H279.421ZM279.421 73.9199V72.9199H278.421V73.9199H279.421ZM285.421 73.9199H286.421V72.9199H285.421V73.9199ZM285.421 94.9199V95.9199H286.421V94.9199H285.421ZM275.041 94.9199L274.242 95.5211L274.542 95.9199H275.041V94.9199ZM263.011 78.9299L263.81 78.3287L263.51 77.9299H263.011V78.9299ZM261.541 78.9299V77.9299H260.541V78.9299H261.541ZM261.541 94.9199V95.9199H262.541V94.9199H261.541ZM255.541 94.9199H256.541V73.9199H255.541H254.541V94.9199H255.541ZM255.541 73.9199V74.9199H266.071V73.9199V72.9199H255.541V73.9199ZM266.071 73.9199L265.271 74.5202L277.271 90.5102L278.071 89.9099L278.871 89.3097L266.871 73.3197L266.071 73.9199ZM278.071 89.9099V90.9099H279.421V89.9099V88.9099H278.071V89.9099ZM279.421 89.9099H280.421V73.9199H279.421H278.421V89.9099H279.421ZM279.421 73.9199V74.9199H285.421V73.9199V72.9199H279.421V73.9199ZM285.421 73.9199H284.421V94.9199H285.421H286.421V73.9199H285.421ZM285.421 94.9199V93.9199H275.041V94.9199V95.9199H285.421V94.9199ZM275.041 94.9199L275.84 94.3187L263.81 78.3287L263.011 78.9299L262.212 79.5311L274.242 95.5211L275.041 94.9199ZM263.011 78.9299V77.9299H261.541V78.9299V79.9299H263.011V78.9299ZM261.541 78.9299H260.541V94.9199H261.541H262.541V78.9299H261.541ZM261.541 94.9199V93.9199H255.541V94.9199V95.9199H261.541V94.9199ZM310.718 94.9199L310.061 95.6742L310.343 95.9199H310.718V94.9199ZM302.618 87.8699L303.274 87.1156L302.882 86.7746L302.378 86.899L302.618 87.8699ZM295.118 88.7699L295.106 87.77L294.118 87.7811V88.7699H295.118ZM295.118 94.9199V95.9199H296.118V94.9199H295.118ZM289.118 94.9199H288.118V95.9199H289.118V94.9199ZM289.118 73.9199V72.9199H288.118V73.9199H289.118ZM295.118 73.9199H296.118V72.9199H295.118V73.9199ZM295.118 83.7899H294.118V84.807L295.135 84.7898L295.118 83.7899ZM311.768 73.9199V72.9199H311.026L310.811 73.63L311.768 73.9199ZM317.768 73.9199L318.739 74.156L319.04 72.9199H317.768V73.9199ZM308.318 85.7699L307.855 84.8833L306.556 85.5611L307.661 86.5238L308.318 85.7699ZM318.818 94.9199V95.9199H321.487L319.475 94.166L318.818 94.9199ZM310.718 94.9199L311.374 94.1656L303.274 87.1156L302.618 87.8699L301.961 88.6242L310.061 95.6742L310.718 94.9199ZM302.618 87.8699L302.378 86.899C300.152 87.4483 297.71 87.7407 295.106 87.77L295.118 88.7699L295.129 89.7699C297.866 89.7391 300.463 89.4315 302.857 88.8408L302.618 87.8699ZM295.118 88.7699H294.118V94.9199H295.118H296.118V88.7699H295.118ZM295.118 94.9199V93.9199H289.118V94.9199V95.9199H295.118V94.9199ZM289.118 94.9199H290.118V73.9199H289.118H288.118V94.9199H289.118ZM289.118 73.9199V74.9199H295.118V73.9199V72.9199H289.118V73.9199ZM295.118 73.9199H294.118V83.7899H295.118H296.118V73.9199H295.118ZM295.118 83.7899L295.135 84.7898C304.251 84.6358 310.66 81.0283 312.725 74.2098L311.768 73.9199L310.811 73.63C309.096 79.2915 303.745 82.6441 295.101 82.7901L295.118 83.7899ZM311.768 73.9199V74.9199H317.768V73.9199V72.9199H311.768V73.9199ZM317.768 73.9199L316.796 73.6838C315.579 78.6944 312.448 82.4871 307.855 84.8833L308.318 85.7699L308.78 86.6565C313.848 84.0127 317.377 79.7655 318.739 74.156L317.768 73.9199ZM308.318 85.7699L307.661 86.5238L318.161 95.6738L318.818 94.9199L319.475 94.166L308.975 85.016L308.318 85.7699ZM318.818 94.9199V93.9199H310.718V94.9199V95.9199H318.818V94.9199ZM350.742 73.9199H351.742V72.9199H350.742V73.9199ZM321.342 73.9199V72.9199H320.342V73.9199H321.342ZM327.342 73.9199H328.342V72.9199H327.342V73.9199ZM344.742 73.9199V72.9199H343.742V73.9199H344.742ZM350.742 73.9199H349.742V85.1399H350.742H351.742V73.9199H350.742ZM350.742 85.1399H349.742C349.742 88.9781 348.099 91.2817 345.65 92.6877C343.119 94.1411 339.652 94.6699 336.042 94.6699V95.6699V96.6699C339.781 96.6699 343.665 96.1338 346.646 94.4221C349.709 92.6632 351.742 89.7017 351.742 85.1399H350.742ZM336.042 95.6699V94.6699C332.431 94.6699 328.965 94.1411 326.433 92.6877C323.984 91.2817 322.342 88.9781 322.342 85.1399H321.342H320.342C320.342 89.7017 322.374 92.6632 325.437 94.4221C328.419 96.1338 332.303 96.6699 336.042 96.6699V95.6699ZM321.342 85.1399H322.342V73.9199H321.342H320.342V85.1399H321.342ZM321.342 73.9199V74.9199H327.342V73.9199V72.9199H321.342V73.9199ZM327.342 73.9199H326.342V83.7599H327.342H328.342V73.9199H327.342ZM327.342 83.7599H326.342C326.342 86.6003 327.176 88.6858 328.99 89.9997C330.726 91.2577 333.172 91.6599 336.042 91.6599V90.6599V89.6599C333.271 89.6599 331.367 89.2522 330.163 88.3801C329.037 87.5641 328.342 86.1996 328.342 83.7599H327.342ZM336.042 90.6599V91.6599C338.925 91.6599 341.372 91.2581 343.106 89.999C344.916 88.6837 345.742 86.5971 345.742 83.7599H344.742H343.742C343.742 86.2028 343.052 87.5661 341.93 88.3808C340.731 89.2518 338.828 89.6599 336.042 89.6599V90.6599ZM344.742 83.7599H345.742V73.9199H344.742H343.742V83.7599H344.742ZM344.742 73.9199V74.9199H350.742V73.9199V72.9199H344.742V73.9199Z" fill="black" mask="url(#path-5-outside-3_6037_4787)"/>
    <mask id="path-7-outside-4_6037_4787" maskUnits="userSpaceOnUse" x="256" y="54.9207" width="30.8162" height="26.521" fill="black">
        <rect fill="white" x="256" y="54.9207" width="30.8162" height="26.521"/>
        <path d="M284.132 68.3417L285.317 71.7265L280.582 71.5184C279.259 73.3332 276.465 74.9402 272.022 76.4951C266.539 78.4133 262.439 78.2863 261.357 75.1923C260.746 73.448 261.531 71.9613 263.473 70.5826C261.839 70.1755 260.789 69.3075 260.346 68.0408C259.387 65.2997 262.076 62.7272 268.057 60.6346C271.961 59.2685 274.587 59.0486 274.587 59.0486L275.815 62.558C275.815 62.558 273.589 62.591 268.709 64.2986C265.782 65.3231 264.74 65.9439 265.067 66.8783C265.263 67.439 265.835 67.5418 267.541 67.6209L276.837 68.0743L275.848 65.2502L280.022 63.7897L281.185 67.1122C281.316 67.4859 281.398 67.8535 281.459 68.2283L284.132 68.3417ZM274.804 71.3259L267.388 70.9142C265.635 71.8308 265.124 72.5689 265.378 73.2957C265.734 74.3132 267.589 74.1535 271.39 72.8238C272.885 72.3007 274.039 71.8034 274.804 71.3259Z"/>
    </mask>
    <path d="M284.132 68.3417L285.317 71.7265L280.582 71.5184C279.259 73.3332 276.465 74.9402 272.022 76.4951C266.539 78.4133 262.439 78.2863 261.357 75.1923C260.746 73.448 261.531 71.9613 263.473 70.5826C261.839 70.1755 260.789 69.3075 260.346 68.0408C259.387 65.2997 262.076 62.7272 268.057 60.6346C271.961 59.2685 274.587 59.0486 274.587 59.0486L275.815 62.558C275.815 62.558 273.589 62.591 268.709 64.2986C265.782 65.3231 264.74 65.9439 265.067 66.8783C265.263 67.439 265.835 67.5418 267.541 67.6209L276.837 68.0743L275.848 65.2502L280.022 63.7897L281.185 67.1122C281.316 67.4859 281.398 67.8535 281.459 68.2283L284.132 68.3417ZM274.804 71.3259L267.388 70.9142C265.635 71.8308 265.124 72.5689 265.378 73.2957C265.734 74.3132 267.589 74.1535 271.39 72.8238C272.885 72.3007 274.039 71.8034 274.804 71.3259Z" fill="white"/>
    <path d="M284.132 68.3417L285.076 68.0114L284.852 67.3713L284.175 67.3426L284.132 68.3417ZM285.317 71.7265L285.273 72.7255L286.748 72.7903L286.26 71.3962L285.317 71.7265ZM280.582 71.5184L280.626 70.5194L280.09 70.4958L279.774 70.9294L280.582 71.5184ZM263.473 70.5826L264.052 71.398L265.826 70.1383L263.715 69.6123L263.473 70.5826ZM274.587 59.0486L275.531 58.7184L275.276 57.9875L274.504 58.0521L274.587 59.0486ZM275.815 62.558L275.83 63.5579L277.217 63.5373L276.759 62.2277L275.815 62.558ZM267.541 67.6209L267.59 66.622L267.587 66.6219L267.541 67.6209ZM276.837 68.0743L276.788 69.0731L278.271 69.1454L277.78 67.744L276.837 68.0743ZM275.848 65.2502L275.518 64.3063L274.574 64.6366L274.904 65.5804L275.848 65.2502ZM280.022 63.7897L280.966 63.4594L280.636 62.5155L279.692 62.8458L280.022 63.7897ZM281.459 68.2283L280.472 68.3895L280.603 69.1929L281.416 69.2274L281.459 68.2283ZM274.804 71.3259L275.334 72.1743L278.013 70.5025L274.86 70.3274L274.804 71.3259ZM267.388 70.9142L267.444 69.9157L267.169 69.9004L266.925 70.0279L267.388 70.9142ZM284.132 68.3417L283.188 68.672L284.373 72.0567L285.317 71.7265L286.26 71.3962L285.076 68.0114L284.132 68.3417ZM285.317 71.7265L285.361 70.7274L280.626 70.5194L280.582 71.5184L280.538 72.5175L285.273 72.7255L285.317 71.7265ZM280.582 71.5184L279.774 70.9294C278.647 72.4757 276.12 74.0017 271.691 75.5512L272.022 76.4951L272.352 77.439C276.811 75.8786 279.872 74.1906 281.39 72.1075L280.582 71.5184ZM272.022 76.4951L271.691 75.5512C269.004 76.4914 266.77 76.8862 265.136 76.728C263.553 76.5747 262.676 75.9358 262.301 74.862L261.357 75.1923L260.413 75.5226C261.12 77.5428 262.834 78.5144 264.943 78.7186C267 78.9178 269.557 78.417 272.352 77.439L272.022 76.4951ZM261.357 75.1923L262.301 74.862C262.078 74.2259 262.117 73.6922 262.361 73.1801C262.622 72.6314 263.155 72.0352 264.052 71.398L263.473 70.5826L262.894 69.7673C261.85 70.5087 261.019 71.3452 260.555 72.3206C260.073 73.3326 260.025 74.4143 260.413 75.5226L261.357 75.1923ZM263.473 70.5826L263.715 69.6123C262.323 69.2657 261.596 68.5852 261.29 67.7105L260.346 68.0408L259.402 68.371C259.983 70.0297 261.354 71.0854 263.231 71.553L263.473 70.5826ZM260.346 68.0408L261.29 67.7105C260.976 66.8146 261.184 65.8788 262.291 64.8161C263.438 63.7156 265.447 62.6072 268.387 61.5784L268.057 60.6346L267.726 59.6907C264.686 60.7545 262.36 61.9787 260.907 63.3729C259.414 64.8049 258.757 66.5259 259.402 68.371L260.346 68.0408ZM268.057 60.6346L268.387 61.5784C270.289 60.9129 271.875 60.5282 272.979 60.3104C273.531 60.2016 273.962 60.1346 274.251 60.0951C274.396 60.0754 274.505 60.0626 274.575 60.0548C274.611 60.051 274.637 60.0484 274.653 60.0468C274.661 60.0461 274.666 60.0456 274.669 60.0453C274.671 60.0452 274.672 60.0451 274.672 60.0451C274.672 60.045 274.672 60.045 274.672 60.0451C274.672 60.0451 274.672 60.0451 274.671 60.0451C274.671 60.0451 274.671 60.0451 274.671 60.0451C274.671 60.0451 274.671 60.0451 274.587 59.0486C274.504 58.0521 274.504 58.0521 274.504 58.0522C274.503 58.0522 274.503 58.0522 274.503 58.0522C274.503 58.0522 274.502 58.0523 274.502 58.0523C274.501 58.0524 274.5 58.0524 274.499 58.0525C274.497 58.0527 274.494 58.053 274.49 58.0533C274.483 58.054 274.473 58.0549 274.461 58.056C274.437 58.0584 274.402 58.0619 274.358 58.0667C274.27 58.0763 274.143 58.0913 273.981 58.1135C273.655 58.158 273.185 58.2313 272.593 58.3482C271.407 58.582 269.728 58.9902 267.726 59.6907L268.057 60.6346ZM274.587 59.0486L273.643 59.3789L274.871 62.8883L275.815 62.558L276.759 62.2277L275.531 58.7184L274.587 59.0486ZM275.815 62.558C275.8 61.5581 275.8 61.5581 275.8 61.5581C275.8 61.5581 275.799 61.5581 275.799 61.5581C275.798 61.5581 275.798 61.5582 275.797 61.5582C275.796 61.5582 275.795 61.5582 275.793 61.5582C275.79 61.5583 275.787 61.5584 275.783 61.5585C275.774 61.5587 275.764 61.559 275.752 61.5595C275.726 61.5604 275.693 61.562 275.65 61.5646C275.565 61.5697 275.444 61.5789 275.287 61.5953C274.974 61.628 274.515 61.6897 273.906 61.8055C272.686 62.0373 270.862 62.486 268.379 63.3547L268.709 64.2986L269.04 65.2425C271.437 64.4037 273.165 63.982 274.279 63.7704C274.836 63.6645 275.239 63.6112 275.495 63.5844C275.623 63.571 275.715 63.5643 275.77 63.5609C275.798 63.5593 275.817 63.5585 275.827 63.5581C275.832 63.5579 275.835 63.5578 275.835 63.5578C275.835 63.5578 275.835 63.5578 275.834 63.5578C275.834 63.5578 275.833 63.5578 275.833 63.5578C275.832 63.5579 275.832 63.5579 275.832 63.5579C275.831 63.5579 275.831 63.5579 275.831 63.5579C275.831 63.5579 275.83 63.5579 275.815 62.558ZM268.709 64.2986L268.379 63.3547C266.929 63.862 265.814 64.3111 265.103 64.7966C264.741 65.044 264.388 65.3638 264.183 65.797C263.957 66.2732 263.967 66.7634 264.123 67.2086L265.067 66.8783L266.011 66.548C266.003 66.526 266.021 66.5882 265.99 66.6532C265.98 66.6752 266.009 66.6005 266.232 66.4479C266.692 66.1332 267.562 65.7596 269.04 65.2425L268.709 64.2986ZM265.067 66.8783L264.123 67.2086C264.223 67.4944 264.391 67.7669 264.657 67.9886C264.91 68.199 265.198 68.3181 265.471 68.3938C265.98 68.5351 266.668 68.5814 267.495 68.6198L267.541 67.6209L267.587 66.6219C266.709 66.5812 266.258 66.5366 266.005 66.4666C265.897 66.4366 265.899 66.42 265.936 66.4509C265.956 66.4675 265.976 66.4893 265.992 66.5133C266.007 66.536 266.012 66.5506 266.011 66.548L265.067 66.8783ZM267.541 67.6209L267.492 68.6197L276.788 69.0731L276.837 68.0743L276.885 67.0755L267.59 66.622L267.541 67.6209ZM276.837 68.0743L277.78 67.744L276.792 64.9199L275.848 65.2502L274.904 65.5804L275.893 68.4045L276.837 68.0743ZM275.848 65.2502L276.179 66.1941L280.352 64.7336L280.022 63.7897L279.692 62.8458L275.518 64.3063L275.848 65.2502ZM280.022 63.7897L279.078 64.12L280.241 67.4424L281.185 67.1122L282.129 66.7819L280.966 63.4594L280.022 63.7897ZM281.185 67.1122L280.241 67.4424C280.347 67.7452 280.417 68.0526 280.472 68.3895L281.459 68.2283L282.446 68.0671C282.378 67.6544 282.284 67.2267 282.129 66.7819L281.185 67.1122ZM281.459 68.2283L281.416 69.2274L284.09 69.3408L284.132 68.3417L284.175 67.3426L281.501 67.2292L281.459 68.2283ZM274.804 71.3259L274.86 70.3274L267.444 69.9157L267.388 70.9142L267.333 71.9126L274.749 72.3244L274.804 71.3259ZM267.388 70.9142L266.925 70.0279C266.012 70.505 265.299 70.9955 264.852 71.5476C264.358 72.16 264.174 72.8827 264.434 73.626L265.378 73.2957L266.322 72.9655C266.316 72.9494 266.316 72.9438 266.317 72.9467C266.317 72.9478 266.317 72.9495 266.317 72.9515C266.316 72.9535 266.316 72.9545 266.316 72.9541C266.316 72.9539 266.319 72.9425 266.331 72.9186C266.343 72.894 266.367 72.8559 266.408 72.8047C266.592 72.5769 267.011 72.24 267.852 71.8004L267.388 70.9142ZM265.378 73.2957L264.434 73.626C264.631 74.1899 265.051 74.5735 265.579 74.7734C266.061 74.9559 266.614 74.9816 267.172 74.9368C268.292 74.8468 269.809 74.4364 271.72 73.7677L271.39 72.8238L271.059 71.8799C269.17 72.5409 267.859 72.8752 267.012 72.9432C266.587 72.9773 266.372 72.9352 266.287 72.9031C266.248 72.8883 266.303 72.9103 266.322 72.9655L265.378 73.2957ZM271.39 72.8238L271.72 73.7677C273.232 73.2384 274.472 72.7121 275.334 72.1743L274.804 71.3259L274.275 70.4775C273.606 70.8947 272.537 71.3629 271.059 71.8799L271.39 72.8238Z" fill="black" mask="url(#path-7-outside-4_6037_4787)"/>
    <mask id="path-9-outside-5_6037_4787" maskUnits="userSpaceOnUse" x="155" y="22.9199" width="42" height="24" fill="black">
        <rect fill="white" x="155" y="22.9199" width="42" height="24"/>
        <path d="M182.642 45.9199L176.402 39.9039L170.162 45.9199H158.322L169.586 35.0399L158.322 24.1599H170.162L176.37 30.1759L182.642 24.1599H194.482L183.186 35.0399L194.482 45.9199H182.642Z"/>
    </mask>
    <path d="M182.642 45.9199L176.402 39.9039L170.162 45.9199H158.322L169.586 35.0399L158.322 24.1599H170.162L176.37 30.1759L182.642 24.1599H194.482L183.186 35.0399L194.482 45.9199H182.642Z" fill="white"/>
    <path d="M182.642 45.9199L181.948 46.6398L182.238 46.9199H182.642V45.9199ZM176.402 39.9039L177.096 39.184L176.402 38.5149L175.708 39.184L176.402 39.9039ZM170.162 45.9199V46.9199H170.565L170.856 46.6398L170.162 45.9199ZM158.322 45.9199L157.627 45.2007L155.847 46.9199H158.322V45.9199ZM169.586 35.0399L170.281 35.7592L171.025 35.0399L170.281 34.3207L169.586 35.0399ZM158.322 24.1599V23.1599H155.847L157.627 24.8792L158.322 24.1599ZM170.162 24.1599L170.858 23.4418L170.567 23.1599H170.162V24.1599ZM176.37 30.1759L175.674 30.894L176.366 31.565L177.062 30.8976L176.37 30.1759ZM182.642 24.1599V23.1599H182.24L181.95 23.4382L182.642 24.1599ZM194.482 24.1599L195.176 24.8802L196.962 23.1599H194.482V24.1599ZM183.186 35.0399L182.492 34.3197L181.744 35.0399L182.492 35.7602L183.186 35.0399ZM194.482 45.9199V46.9199H196.962L195.176 45.1997L194.482 45.9199ZM182.642 45.9199L183.336 45.2L177.096 39.184L176.402 39.9039L175.708 40.6238L181.948 46.6398L182.642 45.9199ZM176.402 39.9039L175.708 39.184L169.468 45.2L170.162 45.9199L170.856 46.6398L177.096 40.6238L176.402 39.9039ZM170.162 45.9199V44.9199H158.322V45.9199V46.9199H170.162V45.9199ZM158.322 45.9199L159.017 46.6392L170.281 35.7592L169.586 35.0399L168.891 34.3207L157.627 45.2007L158.322 45.9199ZM169.586 35.0399L170.281 34.3207L159.017 23.4407L158.322 24.1599L157.627 24.8792L168.891 35.7592L169.586 35.0399ZM158.322 24.1599V25.1599H170.162V24.1599V23.1599H158.322V24.1599ZM170.162 24.1599L169.466 24.878L175.674 30.894L176.37 30.1759L177.066 29.4578L170.858 23.4418L170.162 24.1599ZM176.37 30.1759L177.062 30.8976L183.334 24.8816L182.642 24.1599L181.95 23.4382L175.678 29.4542L176.37 30.1759ZM182.642 24.1599V25.1599H194.482V24.1599V23.1599H182.642V24.1599ZM194.482 24.1599L193.788 23.4397L182.492 34.3197L183.186 35.0399L183.88 35.7602L195.176 24.8802L194.482 24.1599ZM183.186 35.0399L182.492 35.7602L193.788 46.6402L194.482 45.9199L195.176 45.1997L183.88 34.3197L183.186 35.0399ZM194.482 45.9199V44.9199H182.642V45.9199V46.9199H194.482V45.9199Z" fill="black" mask="url(#path-9-outside-5_6037_4787)"/>
</svg>
