<svg width="44" height="44" viewBox="0 0 44 44" fill="none" xmlns="http://www.w3.org/2000/svg">
    <path d="M35.0138 19.5035C27.9222 15.292 16.2248 14.9048 9.45506 16.9594C8.36789 17.2894 7.21823 16.6754 6.88892 15.5886C6.5594 14.5007 7.17246 13.3519 8.26044 13.0214C16.0317 10.6626 28.9502 11.1181 37.1141 15.9643C38.0919 16.5449 38.4127 17.8077 37.8332 18.7839C37.2531 19.7616 35.9892 20.084 35.0138 19.5035ZM34.7816 25.7412C34.284 26.5486 33.2284 26.8018 32.4222 26.3061C26.5099 22.6719 17.4946 21.6191 10.5 23.7423C9.59298 24.0164 8.63491 23.5049 8.35938 22.5996C8.08608 21.6926 8.59776 20.7362 9.50319 20.4604C17.4935 18.0357 27.4268 19.2102 34.2173 23.3831C35.0235 23.8797 35.2773 24.9358 34.7816 25.7412ZM32.0896 31.7318C31.6942 32.3802 30.8501 32.5833 30.2041 32.1881C25.0379 29.0306 18.5353 28.3176 10.8774 30.0667C10.1394 30.2359 9.40393 29.7735 9.23564 29.0356C9.06662 28.2979 9.5273 27.5623 10.2669 27.3939C18.6472 25.4781 25.8359 26.3027 31.6346 29.8461C32.2811 30.2409 32.4847 31.0855 32.0896 31.7318ZM22.0001 0C9.84994 0 0 9.84973 0 21.9997C0 34.1511 9.84994 44 22.0001 44C34.1505 44 44 34.1511 44 21.9997C44 9.84973 34.1505 0 22.0001 0Z" fill="white"/>
</svg>
