<svg width="17" height="21" viewBox="0 0 17 21" fill="none" xmlns="http://www.w3.org/2000/svg">
<path fill-rule="evenodd" clip-rule="evenodd" d="M7.61538 20.8717C10.3395 18.3708 12.7834 15.7922 14.1008 13.7491C15.4182 11.706 16.0769 9.89178 16.0769 8.30641C16.0769 5.87254 15.301 3.87967 13.7491 2.3278C12.1972 0.775935 10.2937 0 8.03846 0C5.78323 0 3.87967 0.775935 2.3278 2.3278C0.775935 3.87967 0 5.87254 0 8.30641C0 9.89178 0.658707 11.706 1.97612 13.7491C3.29354 15.7922 4.89124 18.3708 7.61538 20.8717ZM9.93085 9.93085C9.40611 10.4556 8.77532 10.7179 8.03846 10.7179C7.3016 10.7179 6.67081 10.4556 6.14607 9.93085C5.62134 9.40612 5.35897 8.77532 5.35897 8.03846C5.35897 7.3016 5.62134 6.67081 6.14607 6.14608C6.67081 5.62134 7.3016 5.35898 8.03846 5.35898C8.77532 5.35898 9.40611 5.62134 9.93085 6.14608C10.4556 6.67081 10.7179 7.3016 10.7179 8.03846C10.7179 8.77532 10.4556 9.40612 9.93085 9.93085Z" fill="white"/>
</svg>
