<svg width="120" height="34" viewBox="0 0 120 34" fill="none" xmlns="http://www.w3.org/2000/svg">
<path d="M19.6291 20.9018C21.4292 20.4352 23.056 19.8952 24.5094 19.2818C25.9762 18.6552 27.263 18.0018 28.3699 17.3218C29.0633 16.8952 29.7567 16.4085 30.4502 15.8618C31.157 15.3018 31.8171 14.7285 32.4305 14.1418C33.0573 13.5552 33.5841 12.9952 34.0109 12.4618L36.1705 14.5218C35.557 15.1218 34.8835 15.7285 34.1501 16.3418C33.4299 16.9552 32.6765 17.5418 31.8897 18.1018C31.1029 18.6618 30.3228 19.1752 29.5494 19.6418C28.7893 20.0818 27.9358 20.5352 26.9891 21.0018C26.0556 21.4685 25.0689 21.9085 24.0288 22.3218C22.9887 22.7352 21.9419 23.1018 20.8885 23.4218L19.6291 20.9018ZM27.9496 18.6018L30.7897 17.9418L30.7878 26.9418C30.7877 27.2352 30.7943 27.5552 30.8076 27.9018C30.8208 28.2485 30.8408 28.5685 30.8674 28.8618C30.894 29.1685 30.9272 29.4018 30.9672 29.5618H27.8072C27.8339 29.4018 27.854 29.1685 27.8674 28.8618C27.8941 28.5685 27.9142 28.2485 27.9276 27.9018C27.941 27.5552 27.9477 27.2352 27.9478 26.9418L27.9496 18.6018ZM55.0174 14.8218C55.204 15.0885 55.4106 15.4152 55.6372 15.8018C55.8771 16.1885 56.1104 16.5752 56.337 16.9618C56.5636 17.3485 56.7501 17.7018 56.8967 18.0218L55.0966 18.8018C54.91 18.3752 54.7168 17.9818 54.5168 17.6218C54.3302 17.2485 54.137 16.8952 53.9371 16.5618C53.7505 16.2152 53.5305 15.8752 53.2773 15.5418L55.0174 14.8218ZM57.6977 13.7218C57.8976 13.9752 58.1176 14.2952 58.3575 14.6818C58.5974 15.0552 58.8306 15.4352 59.0572 15.8218C59.2971 16.1952 59.4904 16.5352 59.637 16.8418L57.8968 17.6818C57.6836 17.2552 57.477 16.8685 57.2771 16.5218C57.0771 16.1618 56.8706 15.8218 56.6573 15.5018C56.4574 15.1685 56.2308 14.8352 55.9775 14.5018L57.6977 13.7218ZM41.5357 22.9818C41.8424 22.7285 42.1158 22.4885 42.3558 22.2618C42.5959 22.0352 42.8759 21.7685 43.196 21.4618C43.4227 21.2218 43.6828 20.9352 43.9762 20.6018C44.2696 20.2685 44.583 19.8952 44.9164 19.4818C45.2632 19.0685 45.6166 18.6485 45.9767 18.2218C46.3368 17.7818 46.6902 17.3552 47.037 16.9418C47.6238 16.2352 48.2305 15.8485 48.8572 15.7818C49.4839 15.7018 50.1838 16.0352 50.957 16.7818C51.4103 17.1952 51.8702 17.6418 52.3367 18.1218C52.8166 18.6018 53.2832 19.0818 53.7364 19.5618C54.203 20.0418 54.6362 20.5018 55.0361 20.9418C55.4893 21.4085 55.9959 21.9485 56.5558 22.5618C57.129 23.1752 57.7088 23.8018 58.2954 24.4418C58.8952 25.0818 59.4484 25.6752 59.955 26.2218L57.7545 28.5818C57.3146 28.0218 56.8414 27.4352 56.3348 26.8218C55.8283 26.2085 55.3351 25.6152 54.8552 25.0418C54.3754 24.4552 53.9355 23.9352 53.5356 23.4818C53.2556 23.1352 52.9357 22.7685 52.5758 22.3818C52.2292 21.9818 51.8826 21.5885 51.5361 21.2018C51.1895 20.8152 50.8695 20.4685 50.5763 20.1618C50.283 19.8552 50.0497 19.6085 49.8764 19.4218C49.5432 19.1018 49.2565 18.9552 49.0165 18.9818C48.7899 18.9952 48.5298 19.1818 48.2364 19.5418C48.0497 19.7952 47.823 20.0952 47.5562 20.4418C47.2895 20.7885 47.0161 21.1552 46.736 21.5418C46.4559 21.9285 46.1825 22.3018 45.9157 22.6618C45.6623 23.0218 45.4356 23.3352 45.2355 23.6018C45.0088 23.9218 44.7821 24.2485 44.5553 24.5818C44.3286 24.9018 44.1219 25.1952 43.9351 25.4618L41.5357 22.9818ZM68.1048 13.4818C68.4514 13.7218 68.858 14.0152 69.3246 14.3618C69.7912 14.7085 70.2711 15.0885 70.7643 15.5018C71.2709 15.9018 71.7442 16.2952 72.1841 16.6818C72.624 17.0685 72.9839 17.4152 73.2639 17.7218L71.2234 19.8018C70.9701 19.5218 70.6369 19.1885 70.2236 18.8018C69.8104 18.4152 69.3638 18.0152 68.8839 17.6018C68.404 17.1885 67.9307 16.7952 67.4641 16.4218C66.9975 16.0485 66.5843 15.7352 66.2243 15.4818L68.1048 13.4818ZM65.6019 26.8018C66.6419 26.6552 67.622 26.4485 68.542 26.1818C69.4621 25.9152 70.3155 25.6085 71.1022 25.2618C71.889 24.9152 72.609 24.5552 73.2625 24.1818C74.3959 23.5018 75.4361 22.7285 76.383 21.8618C77.3298 20.9952 78.1567 20.0952 78.8635 19.1618C79.5704 18.2152 80.1306 17.2952 80.5441 16.4018L82.1035 19.2218C81.5967 20.1152 80.9698 21.0085 80.2229 21.9018C79.4894 22.7952 78.6559 23.6485 77.7224 24.4618C76.7889 25.2618 75.7821 25.9818 74.7019 26.6218C74.0218 27.0352 73.2884 27.4285 72.5017 27.8018C71.7149 28.1618 70.8815 28.4818 70.0015 28.7618C69.1347 29.0552 68.228 29.2818 67.2813 29.4418L65.6019 26.8018ZM92.0089 26.7618C92.009 26.5085 92.0091 26.0952 92.0092 25.5218C92.0093 24.9352 92.0095 24.2618 92.0096 23.5018C92.0098 22.7285 92.01 21.9218 92.0102 21.0818C92.0103 20.2418 92.0105 19.4352 92.0107 18.6618C92.0109 17.8752 92.011 17.1818 92.0111 16.5818C92.0113 15.9818 92.0114 15.5418 92.0114 15.2618C92.0115 14.9152 91.9916 14.5152 91.9517 14.0618C91.9251 13.6085 91.8785 13.2085 91.8119 12.8618H94.9319C94.8919 13.2085 94.8518 13.5952 94.8117 14.0218C94.7716 14.4352 94.7515 14.8485 94.7514 15.2618C94.7513 15.6352 94.7512 16.1418 94.7511 16.7818C94.751 17.4218 94.7508 18.1352 94.7506 18.9218C94.7505 19.6952 94.7503 20.4885 94.7501 21.3018C94.7499 22.1018 94.7498 22.8752 94.7496 23.6218C94.7495 24.3685 94.7493 25.0218 94.7492 25.5818C94.7491 26.1285 94.749 26.5218 94.7489 26.7618C94.7489 26.9485 94.7555 27.2152 94.7688 27.5618C94.782 27.8952 94.8086 28.2418 94.8485 28.6018C94.8885 28.9618 94.9151 29.2818 94.9283 29.5618H91.8083C91.8618 29.1618 91.9085 28.6952 91.9486 28.1618C91.9887 27.6285 92.0089 27.1618 92.0089 26.7618ZM94.1508 18.0418C94.8175 18.2152 95.5641 18.4418 96.3907 18.7218C97.2173 18.9885 98.0506 19.2752 98.8905 19.5818C99.7304 19.8885 100.517 20.1952 101.25 20.5018C101.997 20.7952 102.617 21.0685 103.11 21.3218L101.97 24.0818C101.41 23.7885 100.79 23.4952 100.11 23.2018C99.4298 22.8952 98.7365 22.6018 98.0299 22.3218C97.3366 22.0418 96.65 21.7818 95.9701 21.5418C95.3035 21.3018 94.6968 21.0885 94.1502 20.9018L94.1508 18.0418Z" fill="url(#paint0_linear_4193_6592)"/>
<path d="M1.32715 2.42499L18.2271 2.42499V6.84999L8.67715 6.84999L8.67715 9.92499L16.3271 9.92499V13.9L8.67715 13.9V16.75L18.2271 16.75V21.175L1.32715 21.175L1.32715 16.75H4.25215L4.25215 6.84999L1.32715 6.84999L1.32715 2.42499ZM35.1418 2.42499L39.5668 2.42499V21.175H37.3418C35.0418 21.175 33.0751 20.825 31.4418 20.125C29.8251 19.425 28.4835 18.45 27.4168 17.2C26.3668 15.9333 25.5751 14.425 25.0418 12.675C24.5251 10.9083 24.2168 8.96665 24.1168 6.84999H21.2168V2.42499L28.5168 2.42499V5.42499C28.5168 6.67499 28.5918 7.91665 28.7418 9.14999C28.8918 10.3833 29.2001 11.5167 29.6668 12.55C30.1501 13.5667 30.8251 14.4333 31.6918 15.15C32.5585 15.8667 33.7085 16.3417 35.1418 16.575V2.42499ZM43.3281 2.42499L60.2281 2.42499V6.84999L50.6781 6.84999V9.92499L58.3281 9.92499V13.9H50.6781V16.75L60.2281 16.75V21.175L43.3281 21.175V16.75H46.2531V6.84999H43.3281V2.42499ZM81.5678 2.42499V21.175H77.1428V20.05C77.1428 18.8333 76.9844 17.6667 76.6678 16.55C76.3678 15.4167 75.9261 14.3583 75.3428 13.375C74.7761 12.375 74.0844 11.4583 73.2678 10.625C72.4511 9.79165 71.5344 9.06665 70.5178 8.44999V21.175H66.0928V6.89999C65.9594 6.88332 65.8178 6.87499 65.6678 6.87499C65.5344 6.85832 65.4011 6.84999 65.2678 6.84999H63.2178V2.42499H65.2678C66.3844 2.42499 67.4928 2.57499 68.5928 2.87499C69.7094 3.17499 70.7761 3.59165 71.7928 4.12499C72.8261 4.64165 73.7928 5.25832 74.6928 5.97499C75.6094 6.67499 76.4261 7.44165 77.1428 8.27499V2.42499L81.5678 2.42499ZM84.5723 2.42499L100.397 2.42499V6.84999H94.6973V21.175H90.2723V6.84999L84.5723 6.84999V2.42499ZM114.256 -1.37687e-05L118.681 -1.37687e-05V6.84999L108.081 6.84999V9.59999L118.681 9.59999V15.025C118.681 15.875 118.515 16.675 118.181 17.425C117.865 18.175 117.431 18.825 116.881 19.375C116.331 19.925 115.681 20.3667 114.931 20.7C114.198 21.0167 113.406 21.175 112.556 21.175H103.656V16.75H112.556C113.023 16.75 113.423 16.5833 113.756 16.25C114.09 15.9167 114.256 15.5083 114.256 15.025V14L103.656 14V2.42499L114.256 2.42499V-1.37687e-05Z" fill="white"/>
<defs>
<linearGradient id="paint0_linear_4193_6592" x1="62.0577" y1="29.9675" x2="62.0652" y2="2.72944" gradientUnits="userSpaceOnUse">
<stop stop-color="#FF0000"/>
<stop offset="1" stop-color="#990003" stop-opacity="0"/>
</linearGradient>
</defs>
</svg>
