<svg width="89" height="28" viewBox="0 0 89 28" fill="none" xmlns="http://www.w3.org/2000/svg">
<path d="M25.5507 11.0604C25.0087 11.7264 24.327 12.399 23.5056 13.0782C22.6843 13.7575 21.7813 14.4034 20.7968 15.0161C19.8117 15.6154 18.7968 16.1481 17.752 16.6143C17.6499 16.4278 17.5132 16.2147 17.3419 15.975C17.17 15.722 16.9921 15.4822 16.8081 15.2558C16.6235 15.0161 16.4404 14.8096 16.259 14.6365C17.3456 14.2103 18.3941 13.6842 19.4047 13.0582C20.4152 12.4323 21.3306 11.7663 22.1507 11.0604C22.9702 10.3412 23.6303 9.63535 24.131 8.94279H26.551C27.1411 9.58208 27.7826 10.1814 28.4756 10.7408C29.1813 11.2869 29.9118 11.793 30.6671 12.2591C31.4224 12.7253 32.1954 13.1448 32.9863 13.5177C33.7899 13.8773 34.591 14.1837 35.3896 14.4367C35.1233 14.7297 34.866 15.0693 34.6175 15.4556C34.369 15.8418 34.1529 16.2081 33.9692 16.5544C32.9898 16.1415 31.9729 15.642 30.9187 15.056C29.8638 14.4567 28.8668 13.8107 27.9275 13.1182C26.9883 12.4256 26.196 11.7397 25.5507 11.0604ZM21.4496 17.4134H30.2496L30.3305 19.1315H21.5305L21.4496 17.4134ZM24.4409 12.9783H26.9209L27.0478 15.6753H24.5678L24.4409 12.9783ZM18.2447 25.3846C19.0016 25.318 19.8518 25.2514 20.7953 25.1848C21.7516 25.1049 22.7545 25.025 23.8041 24.9451C24.853 24.8518 25.8953 24.7586 26.9309 24.6654L27.0705 26.783C26.0883 26.8763 25.0927 26.9695 24.0837 27.0627C23.0887 27.1693 22.1264 27.2625 21.1969 27.3424C20.2813 27.4357 19.4383 27.5156 18.6681 27.5822L18.2447 25.3846ZM26.7358 21.369C27.5128 22.581 28.6449 23.5466 30.1321 24.2658C31.632 24.9717 33.4276 25.4445 35.5188 25.6843C35.367 25.8574 35.2034 26.0638 35.028 26.3036C34.8532 26.5566 34.6918 26.8097 34.5437 27.0627C34.3962 27.3291 34.2742 27.5688 34.1775 27.7819C32.6863 27.5422 31.3487 27.1693 30.1649 26.6632C28.9811 26.1571 27.9443 25.5178 27.0547 24.7453C26.1643 23.9595 25.3932 23.0139 24.7412 21.9084L26.7358 21.369ZM32.616 20.9495L34.4237 22.3879C33.9333 22.7342 33.4096 23.0805 32.8526 23.4268C32.2949 23.7597 31.7363 24.0727 31.1768 24.3657C30.6166 24.6454 30.0885 24.8985 29.5925 25.1249L28.1114 23.8263C28.5935 23.5866 29.107 23.3069 29.6519 22.9872C30.1963 22.6543 30.7336 22.3147 31.264 21.9684C31.7937 21.6088 32.2444 21.2691 32.616 20.9495ZM21.3124 14.4966H31.7324L32.0896 22.0882H21.6696L21.5822 20.2303H29.5622L29.3807 16.3746H21.4007L21.3124 14.4966ZM19.8124 14.4966H22.1924L22.7179 25.6643L20.3492 25.904L19.8124 14.4966ZM35.5311 20.3901C35.8132 20.1504 36.0752 19.9106 36.3173 19.6709C36.5726 19.4312 36.8462 19.1515 37.1378 18.8318C37.3525 18.5788 37.5984 18.2791 37.8755 17.9328C38.1652 17.5732 38.467 17.187 38.7809 16.7741C39.0949 16.3612 39.4088 15.9484 39.7227 15.5355C40.0366 15.1226 40.3451 14.7364 40.6481 14.3768C41.3039 13.5777 41.9638 13.1515 42.628 13.0982C43.2915 13.0316 44.0069 13.3579 44.774 14.0771C45.2614 14.5166 45.7585 15.0227 46.2655 15.5954C46.7718 16.1548 47.2715 16.7142 47.7645 17.2736C48.2701 17.8196 48.7264 18.3058 49.1331 18.732C49.4694 19.0782 49.8336 19.4512 50.2257 19.8507C50.6172 20.237 51.0297 20.6432 51.4631 21.0694C51.8958 21.4822 52.3426 21.9084 52.8032 22.348C53.2766 22.7741 53.7633 23.2003 54.2634 23.6265L52.2743 25.9839C51.773 25.5311 51.2492 25.025 50.7029 24.4656C50.1693 23.8929 49.6423 23.3202 49.122 22.7475C48.6145 22.1615 48.1361 21.6287 47.6868 21.1493C47.2503 20.6565 46.7925 20.1371 46.3135 19.591C45.8478 19.0449 45.3897 18.5189 44.9392 18.0127C44.5021 17.5066 44.1154 17.0804 43.7791 16.7342C43.5399 16.4678 43.3254 16.3013 43.1356 16.2347C42.9591 16.1681 42.7934 16.1881 42.6384 16.2947C42.4828 16.3879 42.3106 16.5544 42.1219 16.7941C41.9471 17.0472 41.7279 17.3468 41.4642 17.6931C41.2138 18.0394 40.9511 18.4056 40.6759 18.7919C40.4141 19.1781 40.1519 19.5577 39.8895 19.9306C39.6397 20.2902 39.4148 20.6099 39.2146 20.8896C39.0036 21.2225 38.7932 21.5688 38.5835 21.9284C38.3871 22.288 38.2085 22.601 38.0477 22.8674L35.5311 20.3901ZM48.7266 12.2192C48.9264 12.4989 49.1554 12.8318 49.4136 13.2181C49.6712 13.591 49.9227 13.9772 50.1681 14.3768C50.413 14.763 50.6159 15.1093 50.777 15.4156L49.0137 16.1948C48.7943 15.7819 48.5827 15.3956 48.3792 15.036C48.1749 14.6631 47.965 14.3102 47.7493 13.9772C47.533 13.6309 47.2901 13.2846 47.0204 12.9384L48.7266 12.2192ZM51.3549 11.1204C51.5808 11.3867 51.8228 11.7131 52.081 12.0993C52.3385 12.4722 52.5897 12.8518 52.8346 13.238C53.0921 13.611 53.3011 13.9439 53.4616 14.2369L51.761 15.076C51.5277 14.6498 51.3028 14.2636 51.0865 13.9173C50.8702 13.571 50.6476 13.2314 50.4186 12.8984C50.1896 12.5654 49.9409 12.2391 49.6725 11.9195L51.3549 11.1204ZM63.5766 9.00272L65.7764 9.42225C65.5751 10.5277 65.3192 11.6065 65.0087 12.6587C64.6976 13.6975 64.33 14.6698 63.9059 15.5754C63.4813 16.4678 63.0116 17.2536 62.4969 17.9328C62.3706 17.7997 62.1904 17.6531 61.9562 17.4933C61.7214 17.3202 61.4802 17.1537 61.2327 16.9939C60.9979 16.8207 60.798 16.6809 60.6329 16.5743C61.1387 15.9883 61.5794 15.2958 61.9552 14.4966C62.3442 13.6975 62.6702 12.8318 62.933 11.8995C63.2085 10.9539 63.423 9.9883 63.5766 9.00272ZM70.4433 12.1193H72.7233C72.7233 12.1193 72.7201 12.1925 72.7136 12.339C72.7199 12.4722 72.7271 12.6254 72.7353 12.7985C72.7434 12.9717 72.743 13.1048 72.7341 13.1981C72.7467 15.4489 72.7366 17.3601 72.7039 18.9317C72.6845 20.5033 72.6389 21.8019 72.5672 22.8274C72.5082 23.8396 72.4191 24.6388 72.3 25.2248C72.1803 25.7975 72.0331 26.2103 71.8583 26.4634C71.634 26.7964 71.4053 27.0361 71.1721 27.1826C70.939 27.3291 70.6574 27.4357 70.3272 27.5022C70.0497 27.5555 69.7109 27.5822 69.3109 27.5822C68.9116 27.5955 68.4913 27.5888 68.05 27.5622C68.007 27.2159 67.9152 26.823 67.7745 26.3835C67.6472 25.944 67.4823 25.5577 67.28 25.2248C67.6552 25.2647 68.0031 25.2914 68.3238 25.3047C68.6438 25.3047 68.8971 25.3047 69.0838 25.3047C69.2438 25.3047 69.3692 25.278 69.46 25.2248C69.5642 25.1715 69.6728 25.0716 69.7859 24.9251C69.9117 24.7653 70.0227 24.4323 70.1189 23.9262C70.2145 23.4068 70.293 22.6676 70.3546 21.7087C70.4161 20.7497 70.4521 19.5311 70.4625 18.0527C70.4857 16.561 70.4874 14.7564 70.4677 12.6387L70.4433 12.1193ZM64.3233 12.1193H71.4633L71.5677 14.3368H63.3477L64.3233 12.1193ZM65.7771 12.8385L67.5576 13.6975C67.3448 14.8429 67.0333 16.015 66.623 17.2136C66.2121 18.399 65.7178 19.5111 65.14 20.5499C64.5756 21.5888 63.9493 22.4478 63.2613 23.1271C63.0246 22.914 62.727 22.6809 62.3684 22.4279C62.0092 22.1615 61.6658 21.9484 61.3383 21.7886C61.9037 21.3357 62.424 20.7764 62.8993 20.1104C63.374 19.4312 63.7993 18.692 64.175 17.8929C64.5501 17.0804 64.8709 16.248 65.1375 15.3956C65.4034 14.5299 65.6166 13.6775 65.7771 12.8385ZM68.5684 13.0782L70.4689 13.9373C70.2763 15.2292 70.0171 16.5211 69.6912 17.813C69.3787 19.1049 68.9836 20.3435 68.5061 21.5289C68.0419 22.7142 67.4933 23.8063 66.8603 24.8052C66.2266 25.7908 65.5058 26.6232 64.6978 27.3025C64.4605 27.0761 64.1489 26.8297 63.763 26.5633C63.3905 26.2969 63.0335 26.0772 62.692 25.904C63.5292 25.278 64.2728 24.5056 64.9229 23.5866C65.5857 22.6543 66.1571 21.6221 66.6372 20.49C67.1166 19.3446 67.5136 18.1459 67.828 16.894C68.1418 15.6287 68.3886 14.3568 68.5684 13.0782ZM54.3099 19.9106C54.9558 19.7508 55.687 19.5644 56.5036 19.3513C57.3336 19.1382 58.2026 18.9051 59.1107 18.652C60.0315 18.3857 60.946 18.126 61.8541 17.8729L62.2528 19.9706C61.0182 20.3701 59.757 20.7697 58.4692 21.1693C57.194 21.5555 56.037 21.9018 54.9981 22.2081L54.3099 19.9106ZM57.3776 9.0227H59.5776L60.4603 27.7819H58.2603L57.3776 9.0227ZM54.7912 10.1614L56.8262 10.4811C56.7742 11.3601 56.7026 12.2458 56.6112 13.1381C56.5193 14.0172 56.3985 14.8496 56.2488 15.6354C56.0991 16.4212 55.9183 17.1137 55.7065 17.7131C55.5821 17.6198 55.4102 17.5066 55.1906 17.3735C54.9703 17.227 54.7504 17.0871 54.5308 16.9539C54.3106 16.8074 54.1189 16.7009 53.9558 16.6343C54.1434 16.0882 54.2943 15.4689 54.4083 14.7763C54.5351 14.0704 54.6267 13.3246 54.683 12.5388C54.7521 11.7397 54.7882 10.9472 54.7912 10.1614ZM55.479 12.8784H61.439L61.5462 15.1559H55.1262L55.479 12.8784Z" fill="url(#paint0_linear_2319_1812)"/>
<path d="M3.9339 -1.49012e-06L20.8339 -1.49012e-06V4.425L11.2589 4.425L11.2589 7.5L18.9089 7.5V11.475L11.2589 11.475L11.2589 18.75L6.8339 18.75L6.8339 4.425L3.9339 4.425L3.9339 -1.49012e-06ZM36.7544 -1.49012e-06C37.4711 -1.49012e-06 38.1377 0.141665 38.7544 0.424999C39.3877 0.691666 39.9377 1.05833 40.4044 1.525C40.8711 1.99167 41.2377 2.54167 41.5044 3.175C41.7877 3.79167 41.9294 4.45 41.9294 5.15V18.75L31.6044 18.75C30.9044 18.75 30.2377 18.6167 29.6044 18.35C28.9877 18.0667 28.4461 17.6917 27.9794 17.225C27.5127 16.7583 27.1377 16.2167 26.8544 15.6C26.5877 14.9667 26.4544 14.3 26.4544 13.6L26.4544 4.425L23.5794 4.425V-1.49012e-06L36.7544 -1.49012e-06ZM37.5044 5.15C37.5044 4.95 37.4294 4.78333 37.2794 4.65C37.1294 4.5 36.9544 4.425 36.7544 4.425H30.8794L30.8794 13.6C30.8794 13.8 30.9461 13.975 31.0794 14.125C31.2294 14.2583 31.4044 14.325 31.6044 14.325H37.5044V5.15ZM57.8648 -1.49012e-06C58.5814 -1.49012e-06 59.2481 0.141665 59.8648 0.424999C60.4981 0.691666 61.0481 1.05833 61.5148 1.525C61.9814 1.99167 62.3481 2.54167 62.6148 3.175C62.8981 3.79167 63.0398 4.45 63.0398 5.15V18.75L52.7148 18.75C52.0148 18.75 51.3481 18.6167 50.7148 18.35C50.0981 18.0667 49.5564 17.6917 49.0898 17.225C48.6231 16.7583 48.2481 16.2167 47.9648 15.6C47.6981 14.9667 47.5648 14.3 47.5648 13.6V4.425H44.6898V-1.49012e-06L57.8648 -1.49012e-06ZM58.6148 5.15C58.6148 4.95 58.5398 4.78333 58.3898 4.65C58.2398 4.5 58.0648 4.425 57.8648 4.425H51.9898V13.6C51.9898 13.8 52.0564 13.975 52.1898 14.125C52.3398 14.2583 52.5148 14.325 52.7148 14.325H58.6148V5.15ZM66.3128 -1.49012e-06L84.6878 -1.49012e-06V12.125C84.6878 13.0417 84.5128 13.9 84.1628 14.7C83.8128 15.5 83.3378 16.2 82.7378 16.8C82.1378 17.4 81.4295 17.875 80.6128 18.225C79.8128 18.575 78.9545 18.75 78.0378 18.75L66.3128 18.75V14.325H69.2128V4.425H66.3128V-1.49012e-06ZM80.2628 4.425H73.6378V14.325H78.0378C78.3378 14.325 78.6211 14.2667 78.8878 14.15C79.1711 14.0333 79.4128 13.875 79.6128 13.675C79.8128 13.475 79.9711 13.2417 80.0878 12.975C80.2045 12.7083 80.2628 12.425 80.2628 12.125V4.425Z" fill="white"/>
<defs>
<linearGradient id="paint0_linear_2319_1812" x1="44.8829" y1="24.6246" x2="43.2499" y2="-0.130868" gradientUnits="userSpaceOnUse">
<stop stop-color="#FF0000"/>
<stop offset="1" stop-color="#990000" stop-opacity="0"/>
</linearGradient>
</defs>
</svg>
