<svg width="183" height="43" viewBox="0 0 183 43" fill="none" xmlns="http://www.w3.org/2000/svg">
<path d="M50.4155 15.5382C50.5894 15.7782 50.7767 16.0648 50.9774 16.3982C51.1781 16.7315 51.3655 17.0648 51.5396 17.3982C51.727 17.7315 51.8876 18.0248 52.0215 18.2782L50.403 18.9782C50.2021 18.5648 49.9544 18.0982 49.66 17.5782C49.3788 17.0448 49.1045 16.5848 48.837 16.1982L50.4155 15.5382ZM52.7735 14.6382C52.9608 14.8915 53.1548 15.1915 53.3555 15.5382C53.5562 15.8715 53.7503 16.2048 53.9377 16.5382C54.1384 16.8582 54.2923 17.1315 54.3995 17.3582L52.821 18.0582C52.6068 17.6315 52.3524 17.1582 52.0579 16.6382C51.7634 16.1182 51.4758 15.6715 51.195 15.2982L52.7735 14.6382ZM42.1811 18.0982C42.1271 17.8048 42.0665 17.5382 41.9994 17.2982C41.9322 17.0582 41.8583 16.8182 41.7778 16.5782L44.5968 16.1182C44.6239 16.3182 44.6511 16.5648 44.6784 16.8582C44.719 17.1515 44.7663 17.4182 44.8201 17.6582C44.8472 17.8582 44.908 18.2115 45.0025 18.7182C45.0969 19.2248 45.2116 19.8382 45.3465 20.5582C45.4814 21.2782 45.6297 22.0515 45.7915 22.8782C45.9667 23.7048 46.1352 24.5448 46.2971 25.3982C46.4589 26.2515 46.614 27.0582 46.7623 27.8181C46.924 28.5781 47.0588 29.2515 47.1668 29.8381C47.288 30.4248 47.3756 30.8581 47.4296 31.1381C47.4969 31.4315 47.5776 31.7515 47.6717 32.0981C47.7658 32.4448 47.8598 32.7781 47.9539 33.0981L45.075 33.6181C45.0209 33.2448 44.9734 32.8848 44.9326 32.5381C44.9053 32.2048 44.8579 31.8915 44.7906 31.5981C44.75 31.3315 44.6758 30.9181 44.5679 30.3581C44.4733 29.7981 44.3519 29.1448 44.2036 28.3981C44.0553 27.6515 43.9003 26.8648 43.7384 26.0382C43.5766 25.1982 43.4148 24.3582 43.2529 23.5182C43.0911 22.6782 42.9361 21.8915 42.7878 21.1582C42.6529 20.4248 42.5315 19.7915 42.4236 19.2582C42.3158 18.7115 42.2349 18.3248 42.1811 18.0982ZM36.7267 20.6382C37.0466 20.6115 37.3599 20.5915 37.6665 20.5782C37.9731 20.5515 38.2797 20.5248 38.5863 20.4982C38.8796 20.4582 39.2928 20.4048 39.826 20.3382C40.3592 20.2582 40.9723 20.1648 41.6654 20.0582C42.3585 19.9515 43.0716 19.8448 43.8047 19.7382C44.5511 19.6182 45.2708 19.5048 45.9639 19.3982C46.657 19.2782 47.2701 19.1715 47.8032 19.0782C48.3497 18.9848 48.7762 18.9115 49.0828 18.8582C49.4026 18.7915 49.7358 18.7248 50.0823 18.6582C50.4288 18.5782 50.722 18.4982 50.9618 18.4182L51.4476 21.0582C51.2343 21.0715 50.9477 21.1048 50.5878 21.1582C50.2279 21.2115 49.9013 21.2582 49.6081 21.2982C49.2482 21.3515 48.775 21.4248 48.1886 21.5182C47.6154 21.5982 46.9756 21.6982 46.2692 21.8182C45.5628 21.9248 44.843 22.0382 44.11 22.1582C43.3769 22.2782 42.6771 22.3915 42.0107 22.4982C41.3443 22.6048 40.7578 22.7048 40.2514 22.7982C39.7449 22.8782 39.365 22.9382 39.1118 22.9782C38.7919 23.0448 38.4921 23.1115 38.2122 23.1782C37.9323 23.2315 37.6191 23.3048 37.2727 23.3982L36.7267 20.6382ZM36.7595 26.5182C37.0261 26.5048 37.3594 26.4782 37.7593 26.4382C38.1725 26.3848 38.5324 26.3382 38.839 26.2982C39.1989 26.2448 39.6787 26.1715 40.2785 26.0782C40.8783 25.9848 41.5514 25.8782 42.2978 25.7582C43.0576 25.6382 43.8373 25.5115 44.637 25.3782C45.4367 25.2448 46.2164 25.1182 46.9762 24.9982C47.7359 24.8648 48.429 24.7448 49.0554 24.6382C49.6818 24.5315 50.1883 24.4448 50.5748 24.3782C50.9613 24.2982 51.3278 24.2182 51.6743 24.1382C52.0341 24.0582 52.3473 23.9782 52.6138 23.8982L53.1595 26.5382C52.8929 26.5515 52.5663 26.5915 52.1798 26.6582C51.8066 26.7115 51.4267 26.7715 51.0402 26.8382C50.6137 26.9048 50.0805 26.9915 49.4408 27.0982C48.801 27.1915 48.0946 27.3048 47.3215 27.4381C46.5618 27.5581 45.782 27.6848 44.9823 27.8181C44.1826 27.9381 43.4162 28.0648 42.6832 28.1981C41.9501 28.3181 41.2903 28.4315 40.7039 28.5381C40.1174 28.6315 39.6576 28.7115 39.3244 28.7781C38.8979 28.8581 38.5114 28.9315 38.1649 28.9981C37.8317 29.0515 37.5518 29.1115 37.3253 29.1781L36.7595 26.5182ZM66.4577 19.3182C66.4982 19.5448 66.5454 19.7915 66.5993 20.0582C66.6666 20.3115 66.7271 20.5715 66.781 20.8382C66.9019 21.2248 67.043 21.7248 67.2043 22.3382C67.379 22.9515 67.5671 23.6248 67.7687 24.3582C67.9703 25.0915 68.172 25.8382 68.3736 26.5982C68.5886 27.3448 68.7968 28.0648 68.9983 28.7581C69.1998 29.4381 69.3745 30.0448 69.5223 30.5781C69.6701 31.0981 69.7843 31.4981 69.8649 31.7781C69.9185 31.8848 69.9722 32.0448 70.026 32.2581C70.0798 32.4715 70.1403 32.6848 70.2074 32.8981C70.2878 33.1115 70.3549 33.2848 70.4085 33.4181L67.69 34.0981C67.6494 33.8181 67.6021 33.5248 67.5481 33.2181C67.4941 32.9115 67.4201 32.6181 67.3262 32.3381C67.2455 32.0448 67.1313 31.6248 66.9834 31.0781C66.8355 30.5181 66.6675 29.8848 66.4793 29.1781C66.291 28.4715 66.0894 27.7381 65.8745 26.9782C65.6728 26.2182 65.4778 25.4782 65.2896 24.7582C65.1013 24.0248 64.9199 23.3648 64.7453 22.7782C64.584 22.1782 64.4496 21.7115 64.3422 21.3782C64.275 21.1115 64.1877 20.8582 64.0806 20.6182C63.9867 20.3782 63.8862 20.1582 63.7791 19.9582L66.4577 19.3182ZM76.0644 22.3982C75.8654 22.8382 75.5932 23.3382 75.2477 23.8982C74.9156 24.4582 74.5502 25.0315 74.1515 25.6182C73.7528 26.2048 73.354 26.7648 72.9552 27.2982C72.5563 27.8181 72.1773 28.2715 71.8181 28.6581L69.6157 27.5581C69.9617 27.2515 70.3276 26.8782 70.7133 26.4382C71.099 25.9982 71.458 25.5582 71.7904 25.1182C72.1361 24.6648 72.3886 24.2782 72.5479 23.9582C72.4012 23.9848 72.1214 24.0382 71.7082 24.1182C71.3084 24.1982 70.8219 24.2982 70.2489 24.4182C69.6758 24.5382 69.0494 24.6715 68.3697 24.8182C67.7034 24.9515 67.0303 25.0915 66.3507 25.2382C65.671 25.3848 65.0246 25.5248 64.4116 25.6582C63.7985 25.7782 63.2587 25.8915 62.7923 25.9982C62.3258 26.0915 61.9727 26.1648 61.7328 26.2182L61.1075 23.8182C61.4275 23.7915 61.7341 23.7582 62.0273 23.7182C62.3206 23.6782 62.6271 23.6315 62.947 23.5782C63.107 23.5515 63.3869 23.5048 63.7867 23.4382C64.1999 23.3715 64.6864 23.2848 65.2462 23.1782C65.8193 23.0715 66.4323 22.9582 67.0854 22.8382C67.7384 22.7048 68.3982 22.5782 69.0646 22.4582C69.731 22.3248 70.3574 22.2048 70.9438 22.0982C71.5302 21.9782 72.0433 21.8782 72.4831 21.7982C72.9229 21.7048 73.2428 21.6315 73.4427 21.5782C73.6159 21.5515 73.7958 21.5115 73.9824 21.4582C74.1689 21.3915 74.3288 21.3248 74.462 21.2582L76.0644 22.3982ZM86.1659 16.6782C86.446 16.7182 86.7794 16.7448 87.1661 16.7582C87.5528 16.7715 87.9128 16.7782 88.2461 16.7782C88.4995 16.7782 88.8861 16.7782 89.4061 16.7782C89.9395 16.7782 90.5261 16.7782 91.1661 16.7782C91.8195 16.7782 92.4661 16.7782 93.1061 16.7782C93.7461 16.7782 94.3195 16.7782 94.8261 16.7782C95.3328 16.7782 95.7061 16.7782 95.9461 16.7782C96.2528 16.7782 96.6194 16.7715 97.0461 16.7582C97.4727 16.7448 97.826 16.7182 98.1059 16.6782L98.1115 19.2582C97.8448 19.2315 97.4981 19.2182 97.0714 19.2182C96.6581 19.2048 96.2714 19.1982 95.9114 19.1982C95.6981 19.1982 95.3314 19.1982 94.8114 19.1982C94.3047 19.1982 93.7247 19.1982 93.0714 19.1982C92.4314 19.1982 91.7847 19.1982 91.1314 19.1982C90.4914 19.1982 89.9114 19.1982 89.3914 19.1982C88.8714 19.1982 88.4914 19.1982 88.2514 19.1982C87.9314 19.1982 87.5781 19.2048 87.1914 19.2182C86.8181 19.2315 86.4782 19.2448 86.1715 19.2582L86.1659 16.6782ZM99.7986 22.4782C99.7322 22.6115 99.6592 22.7582 99.5795 22.9182C99.5132 23.0782 99.4602 23.2115 99.4204 23.3182C99.1158 24.2782 98.7313 25.2382 98.2667 26.1982C97.8154 27.1448 97.2174 28.0315 96.4725 28.8581C95.475 29.9781 94.3569 30.8915 93.1185 31.5981C91.88 32.2915 90.6212 32.8181 89.3419 33.1781L87.357 30.9181C88.863 30.5981 90.202 30.1315 91.3739 29.5181C92.5459 28.9048 93.5111 28.2048 94.2694 27.4182C94.8015 26.8715 95.2269 26.2982 95.5456 25.6982C95.8776 25.0848 96.1363 24.5048 96.3218 23.9582C96.1751 23.9582 95.9218 23.9582 95.5618 23.9582C95.2018 23.9582 94.7685 23.9582 94.2618 23.9582C93.7685 23.9582 93.2351 23.9582 92.6618 23.9582C92.0885 23.9582 91.5018 23.9582 90.9018 23.9582C90.3018 23.9582 89.7285 23.9582 89.1818 23.9582C88.6351 23.9582 88.1418 23.9582 87.7018 23.9582C87.2751 23.9582 86.9285 23.9582 86.6618 23.9582C86.4218 23.9582 86.0818 23.9648 85.6418 23.9782C85.2019 23.9915 84.7686 24.0182 84.342 24.0582L84.3363 21.4582C84.7631 21.4848 85.1765 21.5115 85.5765 21.5382C85.9899 21.5648 86.3499 21.5782 86.6566 21.5782C86.8566 21.5782 87.1566 21.5782 87.5566 21.5782C87.9699 21.5782 88.4433 21.5782 88.9766 21.5782C89.5099 21.5782 90.0766 21.5782 90.6766 21.5782C91.2899 21.5782 91.8966 21.5782 92.4966 21.5782C93.1099 21.5782 93.6899 21.5782 94.2366 21.5782C94.7833 21.5782 95.2566 21.5782 95.6566 21.5782C96.0566 21.5782 96.3566 21.5782 96.5566 21.5782C96.8766 21.5782 97.1632 21.5582 97.4165 21.5182C97.6831 21.4782 97.883 21.4315 98.0162 21.3782L99.7986 22.4782ZM121.019 16.4982C121.007 16.7782 120.987 17.0848 120.961 17.4182C120.949 17.7382 120.943 18.0982 120.944 18.4982C120.945 18.8448 120.945 19.2648 120.947 19.7582C120.948 20.2515 120.949 20.7448 120.95 21.2382C120.951 21.7182 120.952 22.1248 120.952 22.4582C120.955 23.5248 120.904 24.4582 120.799 25.2582C120.707 26.0582 120.562 26.7582 120.363 27.3582C120.164 27.9581 119.919 28.4915 119.627 28.9581C119.348 29.4115 119.022 29.8448 118.65 30.2581C118.211 30.7381 117.705 31.1715 117.132 31.5581C116.56 31.9315 115.981 32.2448 115.394 32.4981C114.822 32.7648 114.289 32.9781 113.796 33.1381L111.691 30.9381C112.69 30.7115 113.59 30.3981 114.389 29.9981C115.201 29.5848 115.907 29.0581 116.505 28.4181C116.851 28.0315 117.13 27.6448 117.343 27.2582C117.555 26.8715 117.715 26.4448 117.82 25.9782C117.939 25.4982 118.018 24.9582 118.057 24.3582C118.109 23.7582 118.134 23.0715 118.132 22.2982C118.131 21.9515 118.13 21.5382 118.129 21.0582C118.128 20.5782 118.127 20.1048 118.126 19.6382C118.125 19.1715 118.124 18.7915 118.124 18.4982C118.123 18.0982 118.109 17.7382 118.081 17.4182C118.067 17.0848 118.04 16.7782 117.999 16.4982H121.019ZM111.74 16.6582C111.727 16.8982 111.714 17.1382 111.701 17.3782C111.689 17.6048 111.682 17.8782 111.683 18.1982C111.683 18.3448 111.684 18.5848 111.685 18.9182C111.685 19.2515 111.686 19.6448 111.687 20.0982C111.688 20.5382 111.689 21.0048 111.69 21.4982C111.691 21.9782 111.692 22.4448 111.693 22.8982C111.694 23.3515 111.695 23.7648 111.696 24.1382C111.697 24.4982 111.698 24.7715 111.698 24.9582C111.698 25.2115 111.706 25.5048 111.72 25.8382C111.734 26.1715 111.748 26.4582 111.762 26.6982H108.862C108.875 26.5115 108.894 26.2448 108.92 25.8982C108.946 25.5515 108.959 25.2315 108.958 24.9382C108.957 24.7515 108.957 24.4782 108.956 24.1182C108.955 23.7582 108.954 23.3515 108.953 22.8982C108.952 22.4315 108.951 21.9582 108.95 21.4782C108.949 20.9848 108.948 20.5182 108.947 20.0782C108.946 19.6382 108.945 19.2515 108.945 18.9182C108.944 18.5848 108.943 18.3448 108.943 18.1982C108.943 18.0115 108.936 17.7715 108.922 17.4782C108.908 17.1715 108.887 16.8982 108.86 16.6582H111.74ZM130.067 22.7582C130.307 22.7715 130.614 22.7915 130.987 22.8182C131.361 22.8315 131.747 22.8448 132.147 22.8582C132.561 22.8715 132.941 22.8782 133.287 22.8782C133.621 22.8782 134.034 22.8782 134.527 22.8782C135.021 22.8782 135.554 22.8782 136.127 22.8782C136.714 22.8782 137.314 22.8782 137.927 22.8782C138.554 22.8782 139.174 22.8782 139.787 22.8782C140.401 22.8782 140.981 22.8782 141.527 22.8782C142.074 22.8782 142.561 22.8782 142.987 22.8782C143.427 22.8782 143.774 22.8782 144.027 22.8782C144.494 22.8782 144.934 22.8648 145.347 22.8382C145.76 22.7982 146.1 22.7715 146.367 22.7582L146.374 25.8982C146.147 25.8848 145.807 25.8648 145.354 25.8382C144.9 25.8115 144.46 25.7982 144.034 25.7982C143.78 25.7982 143.434 25.7982 142.994 25.7982C142.554 25.7982 142.06 25.7982 141.514 25.7982C140.967 25.7982 140.387 25.7982 139.774 25.7982C139.174 25.7982 138.56 25.7982 137.934 25.7982C137.307 25.7982 136.7 25.7982 136.114 25.7982C135.54 25.7982 135.007 25.7982 134.514 25.7982C134.034 25.7982 133.627 25.7982 133.294 25.7982C132.72 25.7982 132.134 25.8115 131.534 25.8382C130.934 25.8515 130.447 25.8715 130.074 25.8982L130.067 22.7582Z" fill="url(#paint0_linear_3209_1569)"/>
<path d="M11.7102 -2.61504e-05L34.2981 -2.61504e-05V5.43949L20.7146 5.43949L20.7146 14.9049C20.7146 15.2736 20.7863 15.6219 20.9298 15.9497C21.0732 16.2775 21.2678 16.5644 21.5137 16.8102C21.7595 17.0561 22.0463 17.2507 22.3741 17.3941C22.7224 17.5375 23.081 17.6093 23.4498 17.6093H28.8585V13.9522L24.2181 13.9522L24.2181 8.51266L34.2981 8.51266L34.2981 27.5049L28.8585 27.5049V23.0488H23.4498C22.3229 23.0488 21.2576 22.8336 20.2537 22.4034C19.2702 21.9732 18.4098 21.3893 17.6722 20.6517C16.9346 19.9141 16.3507 19.0536 15.9205 18.0702C15.4902 17.0868 15.2751 16.0317 15.2751 14.9049L15.2751 5.43949L11.7102 5.43949V-2.61504e-05ZM57.944 16.4722C57.944 16.7795 58.0566 17.0458 58.282 17.2712C58.5074 17.4966 58.7737 17.6093 59.081 17.6093H59.8186L59.8186 23.0488H59.081C58.2001 23.0488 57.3703 22.8951 56.5918 22.5878C55.8337 22.26 55.1576 21.8093 54.5635 21.2356C53.9079 21.8093 53.1703 22.26 52.3508 22.5878C51.5518 22.8951 50.6913 23.0488 49.7693 23.0488H46.1737C45.1698 23.0488 44.2274 22.8644 43.3464 22.4956C42.4654 22.1063 41.6971 21.5839 41.0415 20.9283C40.3859 20.2727 39.8635 19.5044 39.4742 18.6234C39.1054 17.7424 38.921 16.8 38.921 15.7961V8.38973H52.5044V8.14388C52.5044 7.7751 52.4327 7.42681 52.2893 7.099C52.1459 6.7712 51.9513 6.48437 51.7054 6.23851C51.4596 5.99266 51.1625 5.79803 50.8142 5.65461C50.4864 5.5112 50.1381 5.43949 49.7693 5.43949L39.843 5.43949V-2.61504e-05L49.7693 -2.61504e-05C50.8961 -2.61504e-05 51.9513 0.215096 52.9347 0.645341C53.9386 1.07559 54.8093 1.65949 55.5469 2.39705C56.2844 3.13461 56.8683 3.9951 57.2986 4.97851C57.7288 5.96193 57.944 7.01705 57.944 8.14388V16.4722ZM50.6913 17.6093C51.183 17.6093 51.603 17.4351 51.9513 17.0868C52.32 16.7385 52.5044 16.3083 52.5044 15.7961V13.8293L44.3605 13.8293V15.7961C44.3605 16.3083 44.5347 16.7385 44.883 17.0868C45.2518 17.4351 45.682 17.6093 46.1737 17.6093H50.6913ZM69.8607 17.6093L80.709 17.6093V23.0488L64.4211 23.0488V-2.61504e-05L69.8607 -2.61504e-05V17.6093ZM90.769 17.6093L101.617 17.6093V23.0488L85.3295 23.0488V-2.61504e-05L90.769 -2.61504e-05V17.6093ZM105.007 -2.61504e-05L124.03 -2.61504e-05V5.839C124.03 7.00681 123.805 8.10291 123.354 9.1273C122.924 10.1312 122.33 11.0122 121.572 11.7702C120.814 12.5283 119.923 13.1327 118.898 13.5834C117.874 14.0136 116.788 14.2288 115.641 14.2288H110.447V14.9049C110.447 15.6424 110.713 16.2775 111.246 16.8102C111.779 17.3429 112.414 17.6093 113.151 17.6093L124.03 17.6093V23.0488L113.151 23.0488C112.025 23.0488 110.969 22.8336 109.986 22.4034C109.003 21.9732 108.142 21.3893 107.405 20.6517C106.667 19.9141 106.083 19.0536 105.653 18.0702C105.223 17.0868 105.007 16.0317 105.007 14.9049V-2.61504e-05ZM110.447 9.1273H115.641C116.05 9.1273 116.429 9.05559 116.778 8.91217C117.146 8.74827 117.464 8.53315 117.73 8.26681C117.997 7.97998 118.202 7.66242 118.345 7.31412C118.509 6.94534 118.591 6.55608 118.591 6.14632V5.43949L110.447 5.43949V9.1273ZM143.329 14.198C144.62 15.2429 145.645 16.5132 146.403 18.0088C147.181 19.5044 147.57 21.1844 147.57 23.0488L142.131 23.0488C142.131 22.1268 141.957 21.2663 141.608 20.4673C141.26 19.6478 140.779 18.941 140.164 18.3468C139.57 17.7322 138.863 17.2507 138.044 16.9024C137.245 16.5541 136.384 16.38 135.462 16.38H134.386V23.0488H128.947V-2.61504e-05L147.017 -2.61504e-05V7.22193C147.017 8.69705 146.679 10.039 146.003 11.2478C145.327 12.4566 144.436 13.44 143.329 14.198ZM134.386 11.2478H138.166C138.638 11.2478 139.078 11.1556 139.488 10.9712C139.898 10.7868 140.256 10.541 140.564 10.2336C140.871 9.92632 141.117 9.56778 141.301 9.15803C141.486 8.74827 141.578 8.30778 141.578 7.83656V5.43949L134.386 5.43949V11.2478ZM165.45 -2.61504e-05L170.889 -2.61504e-05V15.6732C170.889 16.6771 170.694 17.6297 170.305 18.5312C169.916 19.4327 169.383 20.2214 168.707 20.8975C168.051 21.5532 167.273 22.0756 166.371 22.4649C165.49 22.8541 164.538 23.0488 163.513 23.0488H151.866V17.6093H163.513C164.046 17.6093 164.497 17.4249 164.866 17.0561C165.255 16.6668 165.45 16.2058 165.45 15.6732V14.5361C164.63 14.5361 163.79 14.5053 162.93 14.4439C162.09 14.3824 161.239 14.2595 160.379 14.0751C159.539 13.8702 158.719 13.5834 157.92 13.2146C157.142 12.8458 156.404 12.3439 155.708 11.7088C154.396 10.541 153.423 9.00437 152.788 7.099C152.173 5.19364 151.866 2.82729 151.866 -2.61504e-05L157.306 -2.61504e-05C157.306 3.89266 157.992 6.45364 159.365 7.68291C159.918 8.1951 160.666 8.56388 161.608 8.78925C162.571 9.01461 163.851 9.1273 165.45 9.1273V-2.61504e-05Z" fill="white"/>
<defs>
<linearGradient id="paint0_linear_3209_1569" x1="91.832" y1="36.5979" x2="91.756" y2="8.68147" gradientUnits="userSpaceOnUse">
<stop stop-color="#FF0004"/>
<stop offset="1" stop-color="#990003" stop-opacity="0"/>
</linearGradient>
</defs>
</svg>
