<svg width="113" height="32" viewBox="0 0 113 32" fill="none" xmlns="http://www.w3.org/2000/svg">
<path d="M39.6471 10.1876C39.8161 10.4276 39.9909 10.7142 40.1716 11.0475C40.3656 11.3807 40.5529 11.714 40.7336 12.0473C40.9142 12.3806 41.0623 12.6739 41.1777 12.9272L39.5654 13.6071C39.3729 13.1938 39.1346 12.7272 38.8507 12.2073C38.5803 11.674 38.3152 11.2141 38.0555 10.8275L39.6471 10.1876ZM42.0233 9.28775C42.1923 9.52772 42.3737 9.821 42.5674 10.1676C42.7748 10.5009 42.9688 10.8342 43.1494 11.1674C43.3436 11.4874 43.4919 11.7674 43.5943 12.0073L42.002 12.6872C41.7964 12.2606 41.5516 11.7873 41.2676 11.2674C40.9837 10.7475 40.705 10.3009 40.4318 9.92765L42.0233 9.28775ZM41.3678 14.5869C41.2444 14.7735 41.1203 15.0002 40.9955 15.2668C40.8709 15.5201 40.7664 15.7734 40.6818 16.0267C40.4979 16.6132 40.2391 17.2865 39.9054 18.0463C39.5719 18.7929 39.1713 19.5661 38.7036 20.366C38.2358 21.1658 37.6884 21.9457 37.0614 22.7056C36.0941 23.8521 34.962 24.8919 33.6652 25.8251C32.3817 26.7583 30.7932 27.5981 28.8997 28.3447L26.578 26.225C27.9454 25.8117 29.127 25.3518 30.1228 24.8452C31.1189 24.3253 31.989 23.7654 32.7331 23.1655C33.4773 22.5656 34.142 21.9324 34.7274 21.2658C35.1901 20.7459 35.6206 20.1593 36.0191 19.5061C36.4309 18.8529 36.776 18.1996 37.0544 17.5464C37.3462 16.8932 37.5499 16.3199 37.6654 15.8267H30.9254L31.8862 13.5671C32.0595 13.5671 32.3462 13.5671 32.7462 13.5671C33.1462 13.5671 33.5928 13.5671 34.0862 13.5671C34.5795 13.5671 35.0662 13.5671 35.5462 13.5671C36.0395 13.5671 36.4728 13.5671 36.8462 13.5671C37.2195 13.5671 37.4662 13.5671 37.5862 13.5671C37.9062 13.5671 38.2198 13.5471 38.5272 13.5071C38.8482 13.4537 39.1159 13.3938 39.3305 13.3271L41.3678 14.5869ZM34.9047 11.4274C34.6585 11.774 34.4184 12.1473 34.1845 12.5472C33.9507 12.9472 33.7718 13.2538 33.648 13.4671C33.1802 14.2669 32.6052 15.1001 31.9229 15.9667C31.2408 16.8199 30.4725 17.6531 29.6178 18.4663C28.7767 19.2661 27.8702 19.9993 26.8982 20.6659L24.6885 18.9862C25.5781 18.4529 26.3614 17.8997 27.0384 17.3264C27.7154 16.7532 28.3056 16.1866 28.809 15.6267C29.3127 15.0535 29.7492 14.5069 30.1186 13.987C30.4882 13.4537 30.7969 12.9738 31.0445 12.5472C31.2089 12.3073 31.3813 11.9873 31.5618 11.5874C31.756 11.1741 31.896 10.8008 31.982 10.4676L34.9047 11.4274ZM56.4849 14.6869C56.5744 14.9002 56.6889 15.2068 56.8283 15.6067C56.9814 15.9933 57.1405 16.4133 57.3056 16.8665C57.471 17.3065 57.6168 17.7264 57.7429 18.1263C57.869 18.5263 57.9701 18.8395 58.046 19.0662L55.6308 19.906C55.5821 19.6527 55.4945 19.3328 55.3681 18.9462C55.2418 18.5596 55.1024 18.153 54.9501 17.7264C54.7981 17.2865 54.6456 16.8665 54.4928 16.4666C54.3401 16.0667 54.2061 15.7334 54.0909 15.4668L56.4849 14.6869ZM63.8386 16.1466C63.7262 16.4666 63.6279 16.7399 63.5438 16.9665C63.4731 17.1931 63.4026 17.4064 63.3323 17.6064C63.0607 18.6196 62.6958 19.6327 62.2375 20.6459C61.7795 21.6457 61.2025 22.5856 60.5067 23.4655C59.5517 24.6653 58.4733 25.6851 57.2715 26.525C56.0833 27.3515 54.8985 27.9847 53.7173 28.4246L51.6558 26.285C52.3928 26.085 53.1714 25.7917 53.9917 25.4051C54.8122 25.0052 55.6076 24.5253 56.3777 23.9654C57.1477 23.4055 57.8123 22.7856 58.3712 22.1057C58.8349 21.5324 59.2466 20.8792 59.6065 20.146C59.98 19.3994 60.2876 18.6062 60.5294 17.7664C60.7848 16.9132 60.9599 16.0733 61.0548 15.2468L63.8386 16.1466ZM51.8258 15.7467C51.9546 16 52.0954 16.3266 52.2482 16.7265C52.4143 17.1265 52.58 17.5464 52.7454 17.9863C52.9108 18.4263 53.0698 18.8529 53.2224 19.2661C53.3883 19.6794 53.5153 20.026 53.6036 20.306L51.147 21.2258C51.0719 20.9592 50.9581 20.6126 50.8058 20.186C50.6668 19.7594 50.5082 19.3128 50.3299 18.8462C50.1519 18.3663 49.9799 17.9264 49.8137 17.5264C49.6609 17.1265 49.5265 16.8199 49.4103 16.6066L51.8258 15.7467ZM84.2297 9.92765C84.3985 10.1809 84.5797 10.4809 84.7735 10.8275C84.9808 11.1608 85.1748 11.4941 85.3554 11.8273C85.5361 12.1606 85.6777 12.4406 85.7803 12.6672L84.148 13.3471C83.9553 12.9472 83.7169 12.4872 83.4329 11.9673C83.1623 11.4474 82.8973 10.9875 82.6378 10.5875L84.2297 9.92765ZM86.7623 9.22776C86.9444 9.48106 87.1325 9.77434 87.3264 10.1076C87.5204 10.4409 87.7078 10.7742 87.8884 11.1075C88.0827 11.4274 88.2309 11.7074 88.3333 11.9473L86.741 12.6272C86.5351 12.2139 86.2902 11.7474 86.0063 11.2274C85.7223 10.7075 85.4437 10.2609 85.1704 9.88766L86.7623 9.22776ZM85.0855 13.4871C85.0034 13.6071 84.88 13.7937 84.7154 14.047C84.5642 14.3003 84.4467 14.5336 84.3628 14.7469C84.0715 15.3734 83.7122 16.0733 83.285 16.8465C82.871 17.6197 82.397 18.3996 81.8628 19.1861C81.3419 19.9727 80.7888 20.6992 80.2035 21.3658C79.4414 22.219 78.5997 23.0522 77.6784 23.8654C76.7704 24.6786 75.8102 25.4318 74.7977 26.125C73.7988 26.8049 72.7749 27.3915 71.726 27.8847L69.7049 25.7251C70.7923 25.3118 71.8484 24.7919 72.873 24.1653C73.8976 23.5388 74.8499 22.8589 75.7298 22.1257C76.6097 21.3925 77.3692 20.6792 78.0084 19.986C78.4573 19.4928 78.8802 18.9595 79.2772 18.3863C79.6878 17.7997 80.0514 17.2265 80.3682 16.6666C80.6852 16.0933 80.9212 15.5734 81.0763 15.1068C80.943 15.1068 80.703 15.1068 80.3563 15.1068C80.0097 15.1068 79.603 15.1068 79.1363 15.1068C78.683 15.1068 78.203 15.1068 77.6963 15.1068C77.1897 15.1068 76.703 15.1068 76.2363 15.1068C75.783 15.1068 75.383 15.1068 75.0363 15.1068C74.6897 15.1068 74.443 15.1068 74.2963 15.1068C74.0163 15.1068 73.7229 15.1135 73.416 15.1268C73.1091 15.1401 72.8154 15.1601 72.5349 15.1868C72.2677 15.2135 72.0608 15.2268 71.9142 15.2268L71.9653 12.3873C72.1651 12.4006 72.4114 12.4206 72.7043 12.4472C72.9971 12.4739 73.2901 12.4939 73.5832 12.5072C73.8896 12.5206 74.1428 12.5272 74.3428 12.5272C74.5162 12.5272 74.7895 12.5272 75.1628 12.5272C75.5362 12.5272 75.9628 12.5272 76.4428 12.5272C76.9228 12.5272 77.4162 12.5272 77.9228 12.5272C78.4428 12.5272 78.9362 12.5272 79.4028 12.5272C79.8828 12.5272 80.2962 12.5272 80.6428 12.5272C80.9895 12.5272 81.2428 12.5272 81.4028 12.5272C81.8428 12.5272 82.2432 12.5072 82.6039 12.4672C82.9782 12.4139 83.266 12.3539 83.4672 12.2873L85.0855 13.4871ZM80.4934 19.7061C81.006 20.1193 81.5506 20.5993 82.1274 21.1458C82.7043 21.6924 83.274 22.259 83.8368 22.8456C84.3996 23.4321 84.916 23.9987 85.3862 24.5453C85.8699 25.0785 86.2748 25.5451 86.6009 25.945L84.2849 27.9447C83.804 27.2515 83.2502 26.5383 82.6235 25.8051C82.01 25.0719 81.3564 24.3453 80.6627 23.6254C79.9826 22.8922 79.2885 22.199 78.5802 21.5458L80.4934 19.7061Z" fill="url(#paint0_linear_4193_6583)"/>
<path d="M26.9623 -1.49012e-06L26.9623 18.75H22.5373L22.5373 4.825C21.9373 5.04167 21.3789 5.35 20.8623 5.75C20.3623 6.15 19.9289 6.60833 19.5623 7.125C19.2123 7.64167 18.9289 8.20833 18.7123 8.825C18.5123 9.44167 18.4123 10.0917 18.4123 10.775L18.4123 18.75H13.9873V10.775C13.9873 10.0917 13.8789 9.44167 13.6623 8.825C13.4623 8.20833 13.1789 7.64167 12.8123 7.125C12.4623 6.60833 12.0289 6.15 11.5123 5.75C11.0123 5.35 10.4623 5.04167 9.86225 4.825L9.86225 18.75L5.43725 18.75L5.43725 4.425L2.56225 4.425L2.56225 -1.49012e-06L7.63725 -1.49012e-06C9.40392 -1.49012e-06 11.0206 0.383332 12.4873 1.15C13.9706 1.91667 15.2123 2.95 16.2123 4.25C17.1956 2.95 18.4206 1.91667 19.8873 1.15C21.3706 0.383332 22.9956 -1.49012e-06 24.7623 -1.49012e-06L26.9623 -1.49012e-06ZM30.7039 -1.49012e-06L47.6039 -1.49012e-06V4.425L38.0539 4.425V7.5L45.7039 7.5V11.475L38.0539 11.475V14.325L47.6039 14.325V18.75L30.7039 18.75V14.325L33.6289 14.325V4.425L30.7039 4.425V-1.49012e-06ZM65.0435 12.05C65.2935 12.8 65.7435 13.4167 66.3935 13.9C67.0435 14.3833 67.7935 14.625 68.6435 14.625H68.9435V19.05H68.6435C67.7268 19.05 66.8518 18.9083 66.0185 18.625C65.1852 18.3417 64.4268 17.95 63.7435 17.45C63.0602 16.9333 62.4602 16.325 61.9435 15.625C61.4435 14.925 61.0602 14.1583 60.7935 13.325L57.8935 13.325V18.75H53.4685V4.425L50.5935 4.425V-1.49012e-06L68.1685 -1.49012e-06V6.125C68.1685 7.35833 67.8852 8.49167 67.3185 9.525C66.7518 10.5583 65.9935 11.4 65.0435 12.05ZM57.8935 8.9L60.9685 8.9C61.3518 8.9 61.7102 8.825 62.0435 8.675C62.3768 8.525 62.6685 8.325 62.9185 8.075C63.1685 7.825 63.3685 7.53333 63.5185 7.2C63.6685 6.86667 63.7435 6.50833 63.7435 6.125V4.425L57.8935 4.425V8.9ZM71.4597 -1.49012e-06L89.8097 -1.49012e-06V4.425L78.7847 4.425V12.125C78.7847 12.725 78.9931 13.2417 79.4097 13.675C79.8431 14.1083 80.3681 14.325 80.9847 14.325L89.8097 14.325V18.75L80.9847 18.75C80.0681 18.75 79.2097 18.575 78.4097 18.225C77.6097 17.875 76.9097 17.4 76.3097 16.8C75.7097 16.2 75.2347 15.5 74.8847 14.7C74.5347 13.9 74.3597 13.0417 74.3597 12.125V4.425H71.4597V-1.49012e-06ZM106.032 -1.49012e-06L110.432 -1.49012e-06V18.75H103.382V14.325L106.032 14.325V11.3L99.4068 11.3V13.35C99.4068 14.6333 99.2235 15.7333 98.8568 16.65C98.5068 17.5667 98.0818 18.3333 97.5818 18.95C97.0818 19.5667 96.5651 20.05 96.0318 20.4C95.5151 20.7667 95.0901 21.025 94.7568 21.175L92.8318 17.225C92.9151 17.1917 93.0735 17.1083 93.3068 16.975C93.5401 16.8417 93.7818 16.625 94.0318 16.325C94.2818 16.025 94.4985 15.6333 94.6818 15.15C94.8818 14.6667 94.9818 14.0667 94.9818 13.35V11.3L92.0818 11.3V6.875L94.9818 6.875V-1.49012e-06L99.4068 -1.49012e-06V6.875L106.032 6.875V-1.49012e-06Z" fill="white"/>
<defs>
<linearGradient id="paint0_linear_4193_6583" x1="56.5454" y1="27.4199" x2="57.2926" y2="-2.06114" gradientUnits="userSpaceOnUse">
<stop stop-color="#FF0000"/>
<stop offset="1" stop-color="#990000" stop-opacity="0"/>
</linearGradient>
</defs>
</svg>
