<svg width="107" height="39" viewBox="0 0 107 39" fill="none" xmlns="http://www.w3.org/2000/svg">
<path d="M30.1369 14.9828C30.4378 15.1426 30.7942 15.349 31.2061 15.6021C31.618 15.8551 32.0438 16.1215 32.4837 16.4012C32.9235 16.6809 33.3294 16.9472 33.7013 17.2003C34.0859 17.44 34.3886 17.6398 34.6095 17.7996L33.7334 19.1581C33.4853 18.985 33.1752 18.7719 32.8033 18.5188C32.4314 18.2658 32.0325 18.0061 31.6067 17.7397C31.1802 17.46 30.7613 17.2003 30.35 16.9606C29.9514 16.7075 29.6014 16.4944 29.2999 16.3213L30.1369 14.9828ZM27.8091 29.2669C28.5361 29.1338 29.2813 28.9606 30.0446 28.7475C30.8073 28.5211 31.5618 28.2614 32.308 27.9684C33.0536 27.6621 33.7506 27.3158 34.3991 26.9295C35.4757 26.2902 36.4691 25.5844 37.3794 24.8119C38.2898 24.0394 39.1042 23.2136 39.8229 22.3346C40.5415 21.4556 41.1456 20.5499 41.635 19.6176L42.6721 21.2558C41.8687 22.601 40.8295 23.8929 39.5545 25.1315C38.2928 26.3702 36.8842 27.4623 35.3287 28.4079C34.6668 28.7941 33.9438 29.1537 33.1594 29.4867C32.3878 29.8064 31.621 30.086 30.8589 30.3258C30.1102 30.5655 29.4256 30.752 28.8052 30.8852L27.8091 29.2669ZM27.3284 19.4778C27.6287 19.6243 27.9914 19.8241 28.4166 20.0771C28.8413 20.3168 29.2732 20.5699 29.7124 20.8363C30.1509 21.0893 30.5625 21.3357 30.9472 21.5755C31.3318 21.8152 31.6345 22.015 31.8554 22.1748L31.0012 23.5732C30.7391 23.3868 30.4157 23.1737 30.0311 22.934C29.6592 22.6809 29.2606 22.4278 28.8354 22.1748C28.4095 21.9084 27.9909 21.6554 27.5796 21.4156C27.1683 21.1759 26.8126 20.9828 26.5124 20.8363L27.3284 19.4778ZM50.7828 19.3579C50.9034 19.3712 51.0907 19.3845 51.3447 19.3979C51.612 19.4112 51.8793 19.4245 52.1466 19.4378C52.4266 19.4378 52.6532 19.4378 52.8266 19.4378C53.0532 19.4378 53.4066 19.4378 53.8866 19.4378C54.3799 19.4378 54.9399 19.4378 55.5666 19.4378C56.1932 19.4378 56.8266 19.4378 57.4666 19.4378C58.1066 19.4378 58.6999 19.4378 59.2466 19.4378C59.7932 19.4378 60.2332 19.4378 60.5666 19.4378C60.7932 19.4378 61.0199 19.4378 61.2466 19.4378C61.4726 19.4245 61.652 19.4112 61.7847 19.3979C61.7764 19.5044 61.7769 19.6576 61.7863 19.8574C61.7951 20.0438 61.8039 20.2303 61.8126 20.4167C61.8183 20.5366 61.8317 20.823 61.8531 21.2758C61.8744 21.7286 61.9004 22.2813 61.9311 22.934C61.9618 23.5866 61.9947 24.2858 62.0298 25.0316C62.0643 25.7642 62.0984 26.49 62.1323 27.2092C62.1655 27.9151 62.1952 28.5477 62.2216 29.1071C62.2479 29.6665 62.2676 30.086 62.2808 30.3657C62.2883 30.5256 62.2968 30.7054 62.3062 30.9051C62.3295 31.1182 62.3513 31.298 62.3716 31.4445H60.7916C60.7992 31.3247 60.7981 31.1582 60.7881 30.9451C60.778 30.732 60.7683 30.5256 60.7589 30.3258C60.7426 29.9795 60.721 29.52 60.694 28.9473C60.6671 28.3746 60.6376 27.7486 60.6057 27.0694C60.5737 26.3901 60.5417 25.7109 60.5098 25.0316C60.4772 24.3391 60.4471 23.6998 60.4195 23.1138C60.3913 22.5144 60.3678 22.015 60.349 21.6154C60.3302 21.2159 60.3183 20.9628 60.3133 20.8563C60.1933 20.8563 59.9533 20.8563 59.5933 20.8563C59.2466 20.8563 58.8266 20.8563 58.3333 20.8563C57.84 20.8563 57.3133 20.8563 56.7533 20.8563C56.2066 20.8563 55.6733 20.8563 55.1533 20.8563C54.6333 20.8563 54.1733 20.8563 53.7733 20.8563C53.3733 20.8563 53.08 20.8563 52.8933 20.8563C52.72 20.8563 52.4936 20.8629 52.2142 20.8762C51.9476 20.8762 51.6812 20.8829 51.4152 20.8962C51.1625 20.9095 50.9761 20.9162 50.8561 20.9162L50.7828 19.3579ZM51.4465 24.1126C51.6472 24.126 51.9078 24.1393 52.2284 24.1526C52.5624 24.1659 52.896 24.1726 53.2294 24.1726C53.4027 24.1726 53.7027 24.1726 54.1294 24.1726C54.556 24.1726 55.056 24.1726 55.6294 24.1726C56.2027 24.1726 56.796 24.1726 57.4094 24.1726C58.0227 24.1726 58.6027 24.1726 59.1494 24.1726C59.696 24.1726 60.156 24.1726 60.5294 24.1726C60.9027 24.1726 61.1427 24.1726 61.2494 24.1726L61.317 25.611C61.2104 25.611 60.9704 25.611 60.597 25.611C60.2237 25.611 59.7637 25.611 59.217 25.611C58.6704 25.611 58.0904 25.611 57.477 25.611C56.8637 25.611 56.2704 25.611 55.697 25.611C55.1237 25.611 54.6237 25.611 54.197 25.611C53.7704 25.611 53.477 25.611 53.317 25.611C52.9704 25.611 52.6307 25.6177 52.298 25.631C51.978 25.631 51.7183 25.6376 51.5189 25.6509L51.4465 24.1126ZM51.0006 29.0871C51.1612 29.1005 51.3889 29.1204 51.6834 29.1471C51.9774 29.1604 52.2977 29.1671 52.6444 29.1671C52.831 29.1671 53.1577 29.1671 53.6244 29.1671C54.091 29.1671 54.631 29.1671 55.2444 29.1671C55.8577 29.1671 56.4977 29.1671 57.1644 29.1671C57.831 29.1671 58.4644 29.1671 59.0644 29.1671C59.6644 29.1671 60.1777 29.1671 60.6044 29.1671C61.0444 29.1671 61.3377 29.1671 61.4844 29.1671L61.5539 30.6454C61.3939 30.6454 61.0939 30.6454 60.6539 30.6454C60.2139 30.6454 59.6873 30.6454 59.0739 30.6454C58.4739 30.6454 57.8473 30.6454 57.1939 30.6454C56.5406 30.6454 55.9073 30.6454 55.2939 30.6454C54.6806 30.6454 54.1473 30.6454 53.6939 30.6454C53.2406 30.6454 52.9206 30.6454 52.7339 30.6454C52.4139 30.6454 52.0943 30.6521 51.7749 30.6654C51.4688 30.6787 51.2358 30.6854 51.0758 30.6854L51.0006 29.0871ZM70.4719 21.6753C70.6725 21.6887 70.9201 21.7086 71.2147 21.7353C71.5086 21.7486 71.8293 21.7619 72.1766 21.7752C72.5366 21.7752 72.8966 21.7752 73.2566 21.7752C73.4699 21.7752 73.7966 21.7752 74.2366 21.7752C74.6899 21.7752 75.2166 21.7752 75.8166 21.7752C76.4166 21.7752 77.0499 21.7752 77.7166 21.7752C78.3966 21.7752 79.0699 21.7752 79.7366 21.7752C80.4166 21.7752 81.0566 21.7752 81.6566 21.7752C82.2699 21.7752 82.7966 21.7752 83.2366 21.7752C83.6766 21.7752 84.0032 21.7752 84.2166 21.7752C84.7232 21.7752 85.1559 21.7619 85.5147 21.7353C85.8734 21.7086 86.1591 21.6887 86.3719 21.6753L86.464 23.6332C86.2634 23.6199 85.9624 23.5999 85.5612 23.5732C85.1732 23.5466 84.7593 23.5333 84.3193 23.5333C84.1059 23.5333 83.7726 23.5333 83.3193 23.5333C82.8659 23.5333 82.3393 23.5333 81.7393 23.5333C81.1526 23.5333 80.5193 23.5333 79.8393 23.5333C79.1593 23.5333 78.4793 23.5333 77.7993 23.5333C77.1326 23.5333 76.4993 23.5333 75.8993 23.5333C75.3126 23.5333 74.7926 23.5333 74.3393 23.5333C73.8859 23.5333 73.5526 23.5333 73.3393 23.5333C72.7926 23.5333 72.2732 23.5466 71.7812 23.5732C71.2885 23.5866 70.8827 23.6065 70.564 23.6332L70.4719 21.6753Z" fill="url(#paint0_linear_2319_1830)"/>
<path d="M12.015 -1.37687e-05L16.44 -1.37687e-05V6.84999L5.84004 6.84999V9.59999L16.44 9.59999L16.44 15.025C16.44 15.875 16.2734 16.675 15.94 17.425C15.6234 18.175 15.19 18.825 14.64 19.375C14.09 19.925 13.44 20.3667 12.69 20.7C11.9567 21.0167 11.165 21.175 10.315 21.175H1.41504L1.41504 16.75H10.315C10.7817 16.75 11.1817 16.5833 11.515 16.25C11.8484 15.9167 12.015 15.5083 12.015 15.025V14L1.41504 14L1.41504 2.42499L12.015 2.42499V-1.37687e-05ZM33.3748 2.42499L37.7748 2.42499V21.175L30.7248 21.175V16.75H33.3748V13.725L26.7498 13.725L26.7498 15.775C26.7498 17.0583 26.5665 18.1583 26.1998 19.075C25.8498 19.9917 25.4248 20.7583 24.9248 21.375C24.4248 21.9917 23.9081 22.475 23.3748 22.825C22.8581 23.1917 22.4331 23.45 22.0998 23.6L20.1748 19.65C20.2581 19.6167 20.4165 19.5333 20.6498 19.4C20.8831 19.2667 21.1248 19.05 21.3748 18.75C21.6248 18.45 21.8415 18.0583 22.0248 17.575C22.2248 17.0917 22.3248 16.4917 22.3248 15.775L22.3248 13.725H19.4248V9.29999H22.3248V2.42499L26.7498 2.42499V9.29999L33.3748 9.29999V2.42499ZM54.2229 2.42499C54.9395 2.42499 55.6062 2.56665 56.2229 2.84999C56.8562 3.11665 57.4062 3.48332 57.8729 3.94999C58.3395 4.41665 58.7062 4.96665 58.9729 5.59999C59.2562 6.21665 59.3979 6.87499 59.3979 7.57499V21.175L49.0729 21.175C48.3729 21.175 47.7062 21.0417 47.0729 20.775C46.4562 20.4917 45.9145 20.1167 45.4479 19.65C44.9812 19.1833 44.6062 18.6417 44.3229 18.025C44.0562 17.3917 43.9229 16.725 43.9229 16.025V6.84999H41.0479V2.42499L54.2229 2.42499ZM54.9729 7.57499C54.9729 7.37499 54.8979 7.20832 54.7479 7.07499C54.5979 6.92499 54.4229 6.84999 54.2229 6.84999L48.3479 6.84999V16.025C48.3479 16.225 48.4145 16.4 48.5479 16.55C48.6979 16.6833 48.8729 16.75 49.0729 16.75H54.9729V7.57499ZM82.1582 2.42499L86.5832 2.42499V21.175H84.2332C82.4999 21.175 80.8999 20.8 79.4332 20.05C77.9665 19.2833 76.7332 18.2583 75.7332 16.975C74.7499 18.2583 73.5249 19.2833 72.0582 20.05C70.5915 20.8 68.9832 21.175 67.2332 21.175H65.0332V6.84999H62.1582V2.42499L69.4582 2.42499V16.35C70.0582 16.1167 70.5999 15.8083 71.0832 15.425C71.5832 15.0417 72.0165 14.5917 72.3832 14.075C72.7499 13.5583 73.0332 13 73.2332 12.4C73.4332 11.7833 73.5332 11.1417 73.5332 10.475V2.42499L77.9582 2.42499V10.475C77.9582 11.1583 78.0582 11.8083 78.2582 12.425C78.4749 13.0417 78.7665 13.6083 79.1332 14.125C79.5165 14.6417 79.9582 15.1 80.4582 15.5C80.9749 15.8833 81.5415 16.1833 82.1582 16.4V2.42499ZM101.168 -1.37687e-05L105.593 -1.37687e-05V6.84999L94.9934 6.84999V9.59999L105.593 9.59999V15.025C105.593 15.875 105.427 16.675 105.093 17.425C104.777 18.175 104.343 18.825 103.793 19.375C103.243 19.925 102.593 20.3667 101.843 20.7C101.11 21.0167 100.318 21.175 99.4684 21.175L90.5684 21.175V16.75H99.4684C99.935 16.75 100.335 16.5833 100.668 16.25C101.002 15.9167 101.168 15.5083 101.168 15.025V14L90.5684 14V2.42499L101.168 2.42499V-1.37687e-05Z" fill="white"/>
<defs>
<linearGradient id="paint0_linear_2319_1830" x1="56.6814" y1="33.0325" x2="54.9601" y2="10.2711" gradientUnits="userSpaceOnUse">
<stop stop-color="#FF0000"/>
<stop offset="1" stop-color="#990000" stop-opacity="0"/>
</linearGradient>
</defs>
</svg>
