<svg width="30" height="30" viewBox="0 0 30 30" fill="none" xmlns="http://www.w3.org/2000/svg">
<rect x="0.75" y="0.75" width="28.5" height="28.5" stroke="white" stroke-width="1.5"/>
<path d="M10.6367 15.7168C10.8807 15.7169 11.1159 15.811 11.29 15.9805C11.4645 16.1504 11.5635 16.3824 11.5635 16.625C11.5635 16.8676 11.4645 17.0996 11.29 17.2695C11.1159 17.439 10.8807 17.5331 10.6367 17.5332H9.18164C8.877 17.5333 8.6543 17.7579 8.6543 18.042V18.0449C8.65338 18.1106 8.66593 18.1761 8.69141 18.2373C8.71696 18.2986 8.75512 18.355 8.80371 18.4023C8.85237 18.4497 8.91111 18.4872 8.97559 18.5127C9.03994 18.5381 9.10898 18.5507 9.17871 18.5498H9.18164C10.4827 18.5498 11.5635 19.5951 11.5635 20.875C11.5635 22.1549 10.4827 23.2002 9.18164 23.2002H7.72754C7.48329 23.2002 7.24752 23.1053 7.07324 22.9355C6.89902 22.7657 6.79989 22.5344 6.7998 22.292C6.7998 22.0494 6.89884 21.8174 7.07324 21.6475C7.24752 21.4777 7.48329 21.3838 7.72754 21.3838H9.18164C9.48637 21.3838 9.70898 21.1591 9.70898 20.875C9.70898 20.5909 9.48637 20.3662 9.18164 20.3662C7.88074 20.3661 6.79999 19.3217 6.7998 18.042C6.7998 16.7622 7.88063 15.7169 9.18164 15.7168H10.6367ZM15 15.7168C16.3011 15.7168 17.3818 16.7621 17.3818 18.042V20.875C17.3816 20.9953 17.3571 21.1149 17.3096 21.2256C17.2695 21.319 17.2122 21.4035 17.1436 21.4785C16.8571 22.4138 16.091 23.2002 15 23.2002C13.6989 23.2002 12.6182 22.1549 12.6182 20.875V18.042C12.6182 16.7621 13.6989 15.7168 15 15.7168ZM22.2725 15.7168C22.5167 15.7168 22.7525 15.8108 22.9268 15.9805C23.1012 16.1504 23.2002 16.3824 23.2002 16.625C23.2002 16.8676 23.1012 17.0996 22.9268 17.2695C22.7525 17.4392 22.5167 17.5332 22.2725 17.5332H20.8184C20.5136 17.5332 20.291 17.7579 20.291 18.042V18.0449C20.2901 18.1107 20.3026 18.1761 20.3281 18.2373C20.3537 18.2987 20.3918 18.355 20.4404 18.4023C20.489 18.4496 20.547 18.4872 20.6113 18.5127C20.6758 18.5382 20.7456 18.5508 20.8154 18.5498H20.8184C22.1194 18.5499 23.2002 19.5952 23.2002 20.875C23.2002 22.1548 22.1194 23.2001 20.8184 23.2002H19.3633C19.1192 23.2001 18.8842 23.1052 18.71 22.9355C18.5356 22.7657 18.4366 22.5345 18.4365 22.292C18.4365 22.0494 18.5355 21.8174 18.71 21.6475C18.8841 21.4779 19.1192 21.3839 19.3633 21.3838H20.8184C21.123 21.3837 21.3457 21.159 21.3457 20.875C21.3457 20.591 21.123 20.3663 20.8184 20.3662C19.5174 20.3662 18.4367 19.3217 18.4365 18.042C18.4365 16.7621 19.5173 15.7168 20.8184 15.7168H22.2725ZM15 17.5332C14.6953 17.5332 14.4727 17.7579 14.4727 18.042V20.8779C14.4717 20.9437 14.4843 21.0091 14.5098 21.0703C14.5353 21.1316 14.5735 21.188 14.6221 21.2354C14.6707 21.2827 14.7295 21.3202 14.7939 21.3457C14.8583 21.3711 14.9273 21.3847 14.9971 21.3838H15L15.1104 21.373C15.357 21.3262 15.5273 21.1235 15.5273 20.875V18.042C15.5273 17.7579 15.3047 17.5332 15 17.5332ZM11.5635 11.4668V11.667C11.5633 12.567 10.8203 13.2832 9.90918 13.2832H8.4541C7.54315 13.283 6.79998 12.5669 6.7998 11.667V11.4668H11.5635ZM23.2002 11.4668V11.667C23.2 12.5669 22.4569 13.283 21.5459 13.2832H20.0908C19.1797 13.2832 18.4367 12.567 18.4365 11.667V11.4668H23.2002ZM15 5.7998C17.0194 5.7998 19.0505 6.15733 20.585 6.88184C22.1161 7.60488 23.2002 8.72071 23.2002 10.25V10.4502H18.4365V10.25C18.4365 9.64419 18.0524 9.16874 17.4082 8.83398C16.7627 8.49869 15.8872 8.3252 15 8.3252C14.1128 8.3252 13.2373 8.49869 12.5918 8.83398C11.9476 9.16874 11.5635 9.64419 11.5635 10.25V10.4502H6.7998V10.25C6.7998 8.72071 7.88388 7.60488 9.41504 6.88184C10.9495 6.15733 12.9806 5.7998 15 5.7998Z" fill="#FA0000" stroke="#FF0000" stroke-width="0.4"/>
</svg>
