<svg width="131" height="38" viewBox="0 0 131 38" fill="none" xmlns="http://www.w3.org/2000/svg">
<path d="M53.2343 15.7623H63.0143L63.0784 17.9813H53.2984L53.2343 15.7623ZM58.3391 11.0842H60.7191L61.1818 27.0975C61.1991 27.6973 61.1394 28.1704 61.0028 28.5169C60.8795 28.8635 60.6407 29.1367 60.2865 29.3366C59.9585 29.5232 59.5355 29.6498 59.0174 29.7164C58.5131 29.7964 57.9009 29.8364 57.1809 29.8364C57.1179 29.5032 56.9997 29.1034 56.8262 28.6369C56.6532 28.1837 56.4687 27.7972 56.2727 27.4774C56.7398 27.4907 57.1735 27.504 57.5739 27.5174C57.9739 27.5174 58.2472 27.5174 58.3939 27.5174C58.5402 27.504 58.6459 27.4707 58.711 27.4174C58.7757 27.3508 58.806 27.2441 58.8018 27.0975L58.3391 11.0842ZM58.1414 16.7019L60.0982 17.2816C59.7073 18.5211 59.2288 19.7273 58.6627 20.9001C58.1099 22.073 57.4811 23.1525 56.7763 24.1388C56.0844 25.1117 55.342 25.9513 54.5491 26.6577C54.3547 26.3912 54.0925 26.0846 53.7625 25.7381C53.4325 25.3916 53.1311 25.1117 52.8582 24.8985C53.4322 24.4586 53.9838 23.9389 54.5132 23.3391C55.0421 22.726 55.5362 22.0596 55.9954 21.3399C56.4546 20.6202 56.8662 19.8672 57.2301 19.0809C57.5937 18.2812 57.8975 17.4882 58.1414 16.7019ZM46.7777 24.8785L49.0744 25.4582C48.7783 26.2845 48.3816 27.0909 47.8843 27.8772C47.387 28.6635 46.8659 29.3166 46.3209 29.8364C46.1837 29.7031 45.9926 29.5498 45.7476 29.3766C45.5159 29.2033 45.2709 29.0301 45.0126 28.8568C44.768 28.6969 44.551 28.5703 44.3616 28.477C44.8956 28.0371 45.3733 27.4974 45.7948 26.8576C46.216 26.2046 46.5436 25.5448 46.7777 24.8785ZM49.5213 25.6981L51.4365 24.8385C51.8907 25.3316 52.3332 25.878 52.7639 26.4778C53.1945 27.0775 53.5233 27.6107 53.7501 28.0771L51.7595 29.0967C51.5461 28.6302 51.2234 28.0771 50.7916 27.4374C50.3731 26.7977 49.9497 26.2179 49.5213 25.6981ZM47.5593 17.3216L47.613 19.1808H50.473L50.4193 17.3216H47.5593ZM47.6639 20.9401L47.7182 22.8193H50.5782L50.5239 20.9401H47.6639ZM47.4553 13.7231L47.5079 15.5424H50.3679L50.3153 13.7231H47.4553ZM45.1599 11.8039H52.6199L52.993 24.7185H45.533L45.1599 11.8039ZM67.2289 13.883H85.1489L85.2153 16.1821H67.2953L67.2289 13.883ZM76.0961 16.9018H78.5161L78.8887 29.7964H76.4687L76.0961 16.9018ZM70.5825 19.2008H82.9625L83.0284 21.4799H73.0484L73.2373 28.0171H70.8373L70.5825 19.2008ZM81.9225 19.2008H84.3425L84.5233 25.4582C84.5391 26.0047 84.4785 26.4445 84.3415 26.7777C84.2174 27.0975 83.9578 27.3441 83.5628 27.5174C83.1945 27.6906 82.7309 27.7972 82.1721 27.8372C81.6266 27.8772 80.9738 27.8972 80.2138 27.8972C80.1642 27.564 80.0601 27.1908 79.9015 26.7777C79.7429 26.3645 79.5793 26.0113 79.4108 25.7181C79.7179 25.7314 80.0248 25.7381 80.3314 25.7381C80.6514 25.7381 80.9314 25.7381 81.1714 25.7381C81.4248 25.7381 81.5981 25.7381 81.6914 25.7381C81.8514 25.7381 81.9575 25.7181 82.0097 25.6781C82.0748 25.6248 82.1055 25.5315 82.1016 25.3982L81.9225 19.2008ZM73.5651 10.9843L76.0613 11.544C75.6287 13.1833 75.0621 14.8027 74.3617 16.402C73.6745 18.0013 72.8243 19.494 71.8111 20.8801C70.7974 22.2529 69.5915 23.4324 68.1933 24.4187C68.0942 24.2187 67.9543 23.9922 67.7737 23.7389C67.606 23.4724 67.4318 23.2125 67.2511 22.9593C67.0705 22.706 66.9043 22.4928 66.7526 22.3195C67.6816 21.7064 68.5138 20.9734 69.2491 20.1204C69.9974 19.2541 70.6503 18.3145 71.2077 17.3016C71.7651 16.2887 72.2417 15.2491 72.6376 14.1829C73.033 13.1034 73.3422 12.0372 73.5651 10.9843Z" fill="url(#paint0_linear_2319_1821)"/>
<path d="M25.1048 -1.49012e-06L29.5298 -1.49012e-06L29.5298 18.75H27.1798C25.4465 18.75 23.8465 18.375 22.3798 17.625C20.9131 16.8583 19.6798 15.8333 18.6798 14.55C17.6965 15.8333 16.4715 16.8583 15.0048 17.625C13.5381 18.375 11.9298 18.75 10.1798 18.75H7.97981L7.97981 4.425L5.10481 4.425L5.10481 -1.49012e-06L12.4048 -1.49012e-06L12.4048 13.925C13.0048 13.6917 13.5465 13.3833 14.0298 13C14.5298 12.6167 14.9631 12.1667 15.3298 11.65C15.6965 11.1333 15.9798 10.575 16.1798 9.975C16.3798 9.35833 16.4798 8.71667 16.4798 8.05V-1.49012e-06L20.9048 -1.49012e-06V8.05C20.9048 8.73333 21.0048 9.38333 21.2048 10C21.4215 10.6167 21.7131 11.1833 22.0798 11.7C22.4631 12.2167 22.9048 12.675 23.4048 13.075C23.9215 13.4583 24.4881 13.7583 25.1048 13.975L25.1048 -1.49012e-06ZM34.0277 -1.49012e-06L50.7777 -1.49012e-06V18.75H46.3777V12.175H41.2277C41.1777 13.125 40.9527 14.025 40.5527 14.875C40.1693 15.7083 39.6527 16.4333 39.0027 17.05C38.3527 17.6667 37.6027 18.1583 36.7527 18.525C35.9027 18.875 34.9943 19.05 34.0277 19.05V14.625C34.3777 14.625 34.711 14.5667 35.0277 14.45C35.3443 14.3167 35.6277 14.1417 35.8777 13.925C36.1277 13.6917 36.3277 13.4333 36.4777 13.15C36.6443 12.85 36.7443 12.525 36.7777 12.175H34.0277V8.2L36.8027 8.2V4.425H34.0277V-1.49012e-06ZM46.3777 4.425H41.2277V8.2H46.3777V4.425ZM59.1968 14.3C60.3301 14.2167 61.3635 14.025 62.2968 13.725C63.2301 13.425 64.0301 13.1167 64.6968 12.8C65.3635 12.4667 65.8801 12.1667 66.2468 11.9C66.6301 11.6333 66.8218 11.5 66.8218 11.5L69.6218 14.925C69.5885 14.9417 69.4385 15.05 69.1718 15.25C68.9051 15.45 68.5301 15.6917 68.0468 15.975C67.5801 16.2583 67.0051 16.5667 66.3218 16.9C65.6551 17.2167 64.8968 17.5167 64.0468 17.8C63.2135 18.0667 62.2968 18.2917 61.2968 18.475C60.3135 18.6583 59.2635 18.75 58.1468 18.75H54.7718V-1.49012e-06L59.1968 -1.49012e-06V14.3ZM76.7915 14.3C77.9249 14.2167 78.9582 14.025 79.8915 13.725C80.8249 13.425 81.6249 13.1167 82.2915 12.8C82.9582 12.4667 83.4749 12.1667 83.8415 11.9C84.2249 11.6333 84.4165 11.5 84.4165 11.5L87.2165 14.925C87.1832 14.9417 87.0332 15.05 86.7665 15.25C86.4999 15.45 86.1249 15.6917 85.6415 15.975C85.1749 16.2583 84.5999 16.5667 83.9165 16.9C83.2499 17.2167 82.4915 17.5167 81.6415 17.8C80.8082 18.0667 79.8915 18.2917 78.8915 18.475C77.9082 18.6583 76.8582 18.75 75.7415 18.75H72.3665V-1.49012e-06L76.7915 -1.49012e-06V14.3ZM89.473 -1.49012e-06L106.373 -1.49012e-06V4.425L96.823 4.425V7.5L104.473 7.5V11.475L96.823 11.475V14.325L106.373 14.325V18.75L89.473 18.75V14.325H92.398V4.425L89.473 4.425V-1.49012e-06ZM109.363 -1.49012e-06L125.188 -1.49012e-06V4.425L119.488 4.425V18.75H115.063V4.425L109.363 4.425V-1.49012e-06Z" fill="white"/>
<defs>
<linearGradient id="paint0_linear_2319_1821" x1="65.3649" y1="37.7998" x2="63.3615" y2="2.07597" gradientUnits="userSpaceOnUse">
<stop stop-color="#FF0000"/>
<stop offset="1" stop-color="#990000" stop-opacity="0"/>
</linearGradient>
</defs>
</svg>
