<svg width="1024" height="1024" viewBox="0 0 1024 1024" fill="none" xmlns="http://www.w3.org/2000/svg">
<g clip-path="url(#clip0_2433_41976)">
<path d="M290.825 299.815C290.825 299.815 260.487 273.711 252.946 273.711C245.405 273.711 205.322 306.196 205.322 309.444C205.322 312.693 204.8 321.916 208.048 330.037C211.297 338.158 215.067 346.279 215.067 346.279C215.067 346.279 189.602 365.248 196.099 380.388C202.595 395.528 229.105 385.783 229.105 385.783C229.105 385.783 228.003 414.497 246.449 431.261C264.896 448.025 279.456 452.898 306.023 445.357C317.741 441.992 326.79 433.581 333.287 425.228C341.35 414.845 345.526 402.025 345.526 388.857V387.407L376.908 369.018C376.908 369.018 384.507 361.999 380.679 357.649C376.85 353.298 372.558 353.298 369.309 354.922C366.061 356.547 344.946 368.438 344.946 368.438C344.946 368.438 331.72 352.66 328.182 349.47C325.456 347.033 321.685 342.973 324.934 339.724C328.182 336.476 335.607 327.195 336.999 323.83C338.681 319.712 339.029 309.966 333.055 302.947C327.08 295.928 318.437 295.348 312.462 295.348C306.487 295.348 290.825 299.815 290.825 299.815Z" fill="#AF3824"/>
<path d="M280.79 495.123C279.108 492.455 275.975 491.005 272.843 491.469C253.352 494.427 185.251 507.537 156.827 549.477C123.531 598.609 149.925 683.881 149.925 683.881C149.925 683.881 153.985 703.778 176.724 639.215C199.463 574.652 249.408 570.592 273.365 578.713C297.322 586.834 310.316 598.203 337.521 626.221C364.727 654.239 387.466 735.044 372.848 793.922C358.23 852.801 274.583 846.71 253.062 847.116C231.541 847.522 290.825 889.752 340.77 890.564C390.714 891.376 426.041 854.831 494.258 855.237C529.875 855.469 568.508 870.145 597.28 884.183C619.961 895.204 641.075 909.068 660.45 925.195C671.819 934.65 685.973 946.135 696.067 953.096C730.349 976.764 697.691 887.721 633.534 823.159C604.415 793.807 503.597 714.335 475.173 683.475C446.75 652.615 415.89 589.27 427.259 496.689C438.629 404.109 498.725 285.076 504.235 234.377C506.962 209.608 504.235 173.643 492.054 155.892C487.471 149.221 477.088 152.18 476.798 160.243C475.638 194.468 468.735 262.163 435.38 323.71C398.197 392.333 371.63 424.469 362.117 434.969C359.854 437.463 359.448 441.06 361.014 444.018C368.613 458.114 389.67 499.59 395.587 537.237C399.357 561.194 402.78 590.43 386.654 594.607C374.182 597.855 349.007 579.177 328.704 557.482C304.631 531.784 287.171 505.217 280.732 495.065L280.79 495.123Z" fill="#AF3824"/>
<path d="M291.755 485.087C273.135 490.946 359.914 591.938 383.987 585.383C389.788 583.817 396.691 564.906 383.697 519.718C374.416 487.524 360.784 463.508 354.809 452.081C353.069 448.774 348.719 448.02 345.934 450.573C339.031 456.953 328.88 473.486 291.755 485.087Z" fill="#AF3824"/>
<path d="M518.387 130.26C516.647 129.68 514.965 131.304 515.545 133.045C520.882 149.229 538.4 208.629 519.779 239.315C507.424 259.618 507.366 282.937 508.294 294.539C508.526 297.323 511.948 298.425 513.805 296.395C522.738 286.418 544.143 265.883 571.812 260.604C683.767 239.315 715.439 205.207 720.312 191.401C724.546 179.393 687.828 202.77 640.725 205.207C593.623 207.643 578.193 217.388 578.193 217.388C578.193 217.388 589.911 154.856 518.271 130.26H518.387Z" fill="#D3CA48"/>
<path d="M726.987 67.2028C723.391 66.0426 720.316 70.1032 722.463 73.2356C739.343 98.4111 778.788 171.037 720.78 232.758C661.961 295.29 565.9 303.411 515.549 338.1C515.549 338.1 413.398 392.164 450.465 565.318C469.781 655.636 519.32 695.662 545.133 710.86C551.224 714.456 558.649 708.945 556.967 702.042C547.047 660.915 526.107 554.354 560.099 501.973C602.735 436.192 653.898 415.483 653.898 415.483C653.898 415.483 832.967 333.866 832.967 203.522C832.909 110.071 756.223 76.6 726.987 67.2028Z" fill="#3E70A1"/>
<path d="M653.432 436.535C655.346 435.375 657.492 437.695 656.1 439.494C644.557 454.112 624.138 486.596 622.166 534.627C620.019 588.4 637.306 625.177 644.267 637.649C645.195 639.273 647.631 638.867 647.979 637.069C650.995 621.697 663.003 576.799 702.332 554.639C756.163 524.359 739.109 549.593 739.109 549.593C739.109 549.593 706.277 612.067 705.001 681.097C703.376 769.617 743.982 838.937 755.351 860.574C766.721 882.211 664.395 841.895 593.452 739.279C535.386 655.283 553.195 498.198 653.432 436.593V436.535Z" fill="#B7692B"/>
<path d="M764.459 509.691L729.944 648.156C725.129 670.199 724.027 692.88 726.812 715.271C732.38 759.706 757.208 816.205 823.51 803.676C912.436 786.911 890.625 698.101 841.899 686.209C822.698 681.511 793.578 677.218 778.322 675.072C772.928 674.318 769.331 669.097 770.549 663.76L873.803 213.734C873.803 213.734 877.051 193.779 864.87 193.779C852.688 193.779 846.423 200.218 843.755 213.734C841.725 224.059 833.836 268.03 822.64 290.421C809.646 316.408 792.592 353.243 724.375 385.438C639.916 425.289 655.636 488.054 655.636 488.054C655.636 488.054 663.235 460.964 707.611 436.253C734.295 421.345 765.097 413.804 778.148 411.077C781.339 410.381 784.123 413.282 783.311 416.472C780.469 427.668 767.823 448.725 737.427 458.876C696.009 472.682 679.013 484.051 658.305 507.081C643.977 522.975 640.264 530.922 635.566 556.271C633.941 565.089 633.477 574.138 634.289 583.071C634.927 590.38 636.088 598.269 638.06 601.228C640.322 604.592 645.427 604.012 646.703 600.183C653.258 581.041 673.387 531.444 709.815 517.464C736.441 507.255 751.117 504.18 758.658 503.31C762.254 502.904 765.155 506.21 764.401 509.749L764.459 509.691Z" fill="#4B8C4A"/>
<path d="M457.308 237.926C456.67 236.765 455.742 235.837 454.64 235.083C450.811 232.531 440.776 226.846 441.008 225.512C441.124 224.874 441.298 223.772 441.588 222.669C441.878 221.219 440.486 220.001 439.094 220.581C428.594 224.758 403.303 235.315 422.678 234.503C438.804 233.807 446.171 235.373 449.651 238.274C451.797 240.072 451.623 243.32 449.361 245.003C445.127 248.193 438.92 247.903 431.437 248.599C418.733 249.701 382.594 245.641 387.989 231.545C393.384 217.449 403.129 215.302 410.728 210.72C418.269 206.079 424.94 193.956 410.728 182.296C400.229 173.653 391.179 169.07 371.167 161.877C351.618 154.8 341.119 162.283 340.017 167.156C338.915 172.029 339.495 187.981 347.036 191.229C354.577 194.478 357.825 194.246 378.418 193.375C399.01 192.563 386.829 206.369 386.829 206.369C386.829 206.369 366.062 225.164 344.715 266.988C328.183 299.414 343.613 290.597 351.444 285.028C354.635 282.708 358.231 280.91 362.002 279.691C366.236 278.357 372.095 276.849 378.186 276.153C390.135 274.703 391.005 280.213 390.193 290.365C389.381 300.516 397.096 293.207 400.345 300.922C403.593 308.637 394.486 303.185 394.486 303.185C394.486 303.185 387.989 297.906 381.666 298.08C375.343 298.312 371.515 298.08 362.582 305.389C353.648 312.698 354.229 314.67 355.679 315.714C357.361 316.933 360.087 314.322 360.087 314.322C360.087 314.322 369.485 302.721 376.155 302.14C382.826 301.502 380.39 304.983 372.269 311.828C364.148 318.673 367.57 328.824 367.57 328.824L373.719 343.152L375.111 346.459C375.111 346.459 378.592 354.696 384.334 333.117C391.353 306.549 392.978 319.311 417.631 313.394C442.168 307.477 427.898 291.989 427.898 291.989C427.898 291.989 413.28 291.177 424.766 284.97C436.251 278.763 434.105 261.129 419.487 264.377C404.869 267.626 368.846 269.25 363.742 267.336C358.637 265.421 357.245 268.148 370.761 251.615C384.334 235.083 371.863 243.784 394.022 252.022C413.164 259.157 436.425 255.966 443.27 254.632C462.993 250.803 459.164 241.812 457.134 238.042L457.308 237.926ZM383.174 188.329C383.174 188.329 353.532 191.345 348.66 186.472C343.787 181.6 342.569 172.435 346.049 167.62C349.472 162.747 360.667 164.197 360.667 164.197C371.399 166.054 398.604 178.235 408.35 188.155C414.208 194.13 414.034 199.408 412.99 202.599C412.352 204.513 410.96 206.137 408.64 207.587L395.588 215.709C395.124 215.999 393.732 215.128 393.964 213.852C394.544 210.72 396.11 207.181 395.704 198.886C395.182 187.691 383.116 188.329 383.116 188.329H383.174Z" fill="#AF3824"/>
</g>
<defs>
<clipPath id="clip0_2433_41976">
<rect width="1024" height="1024" fill="white"/>
</clipPath>
</defs>
</svg>
